<svg width="61" height="62" viewBox="0 0 61 62" fill="none" xmlns="http://www.w3.org/2000/svg">
    <path d="M30.4873 61.4803C13.6745 61.4803 0 47.7994 0 30.9929C0 14.1865 13.6809 0.505615 30.4873 0.505615C47.2938 0.505615 60.9747 14.1865 60.9747 30.9929C60.9747 47.7994 47.2938 61.4803 30.4873 61.4803ZM30.4873 2.53596C14.7953 2.53596 2.03034 15.3009 2.03034 30.9929C2.03034 46.685 14.7953 59.4499 30.4873 59.4499C46.1793 59.4499 58.9443 46.685 58.9443 30.9929C58.9443 15.3009 46.1793 2.53596 30.4873 2.53596Z" fill="#9DADF2"/>
    <path d="M40.3797 11.9576C40.226 11.9576 40.0722 11.9255 39.9313 11.8551C36.9787 10.3948 33.8018 9.6518 30.4905 9.6518C27.1792 9.6518 24.0023 10.3948 21.0497 11.8551C20.659 12.0472 20.1914 11.9704 19.884 11.6629L14.6448 6.42374C14.4206 6.19957 14.3181 5.89213 14.3565 5.57829C14.395 5.26445 14.5743 4.98905 14.8433 4.82893C19.5637 1.99796 24.9759 0.505615 30.4969 0.505615C36.0179 0.505615 41.4301 2.00436 46.1505 4.82893C46.4195 4.98905 46.5988 5.26445 46.6373 5.57829C46.6757 5.89213 46.5668 6.19957 46.349 6.42374L41.1098 11.6629C40.9113 11.8551 40.6551 11.9576 40.3861 11.9576H40.3797ZM30.4905 7.62145C33.8659 7.62145 37.1196 8.32601 40.1683 9.71587L43.96 5.92414C39.8353 3.70164 35.2045 2.53596 30.4905 2.53596C25.7765 2.53596 21.1458 3.70164 17.021 5.92414L20.8127 9.71587C23.8614 8.32601 27.1151 7.62145 30.4905 7.62145Z" fill="#9DADF2"/>
    <path d="M30.4893 61.4803C24.9683 61.4803 19.5561 59.9815 14.8357 57.157C14.5667 56.9968 14.3873 56.7214 14.3489 56.4076C14.3105 56.0937 14.4194 55.7863 14.6371 55.5621L19.8764 50.3229C20.1838 50.0155 20.6578 49.9386 21.042 50.1308C23.9947 51.5911 27.1715 52.3341 30.4829 52.3341C33.7942 52.3341 36.9711 51.5911 39.9237 50.1308C40.3144 49.9386 40.782 50.0155 41.0894 50.3229L46.3286 55.5621C46.5528 55.7863 46.6553 56.0937 46.6168 56.4076C46.5784 56.7214 46.3991 56.9968 46.1301 57.157C41.4096 59.9879 35.9975 61.4803 30.4765 61.4803H30.4893ZM17.0198 56.0617C21.1445 58.2842 25.7753 59.4499 30.4893 59.4499C35.2033 59.4499 39.8341 58.2842 43.9588 56.0617L40.1671 52.27C37.1184 53.6599 33.8647 54.3644 30.4893 54.3644C27.1139 54.3644 23.8602 53.6599 20.8115 52.27L17.0198 56.0617Z" fill="#9DADF2"/>
    <path d="M55.7827 47.1397C55.5137 47.1397 55.2575 47.0372 55.0654 46.845L49.8262 41.6058C49.5188 41.2984 49.4419 40.8244 49.6341 40.4401C51.0944 37.4875 51.8373 34.3107 51.8373 30.9993C51.8373 27.688 51.0944 24.5112 49.6341 21.5585C49.4419 21.1678 49.5188 20.6938 49.8262 20.3928L55.0654 15.1536C55.2896 14.9294 55.597 14.8269 55.9109 14.8654C56.2247 14.9038 56.5001 15.0831 56.6602 15.3521C59.4912 20.0726 60.9835 25.4847 60.9835 31.0057C60.9835 36.5268 59.4912 41.9389 56.6602 46.6593C56.5001 46.9283 56.2247 47.1077 55.9109 47.1461C55.866 47.1461 55.8276 47.1461 55.7827 47.1461V47.1397ZM51.7669 40.6707L55.5586 44.4624C57.7811 40.3377 58.9468 35.7069 58.9468 30.9929C58.9468 26.2789 57.7811 21.6482 55.5586 17.5234L51.7669 21.3151C53.1568 24.3638 53.8613 27.6175 53.8613 30.9929C53.8613 34.3683 53.1568 37.622 51.7669 40.6707Z" fill="#9DADF2"/>
    <path d="M5.19534 47.1397C5.15051 47.1397 5.11208 47.1397 5.07365 47.1333C4.75981 47.0949 4.48441 46.9156 4.32429 46.6466C1.49332 41.9261 0.000976562 36.514 0.000976562 30.993C0.000976562 25.4719 1.49332 20.0598 4.32429 15.3394C4.48441 15.0704 4.75981 14.891 5.07365 14.8526C5.38749 14.8142 5.69493 14.9231 5.9191 15.1408L11.1583 20.38C11.4657 20.6875 11.5426 21.1614 11.3504 21.5457C9.89013 24.4984 9.14716 27.6752 9.14716 30.9866C9.14716 34.2979 9.89013 37.4747 11.3504 40.4274C11.5426 40.8181 11.4657 41.292 11.1583 41.5931L5.9191 46.8323C5.72695 47.0244 5.47076 47.1333 5.20176 47.1333L5.19534 47.1397ZM5.4195 17.5235C3.197 21.6482 2.03132 26.279 2.03132 30.993C2.03132 35.707 3.197 40.3377 5.4195 44.4625L9.21123 40.6708C7.82137 37.622 7.11682 34.3684 7.11682 30.993C7.11682 27.6176 7.82137 24.3639 9.21123 21.3152L5.4195 17.5235Z" fill="#9DADF2"/>
    <path d="M30.4883 7.61499C17.6016 7.61499 7.11035 18.0998 7.11035 30.9929C7.11035 43.886 17.5952 54.3708 30.4883 54.3708C43.3813 54.3708 53.8661 43.886 53.8661 30.9929C53.8661 18.0998 43.3813 7.61499 30.4883 7.61499ZM43.644 23.3134C44.752 25.2093 45.4245 27.278 45.6423 29.4749C45.6487 29.5646 45.6102 29.6479 45.5334 29.6927C43.8617 30.7175 42.363 31.9728 41.0692 33.4396C41.0115 33.51 40.9155 33.5356 40.8322 33.5036L37.9436 32.5621C37.8603 32.5365 37.8027 32.466 37.7899 32.3764C37.4632 29.9873 36.7202 27.7008 35.5802 25.5743C35.5417 25.4975 35.5482 25.4078 35.5994 25.3373L37.3863 22.8779C37.4312 22.8202 37.5016 22.7818 37.5721 22.7818C37.5913 22.7818 37.6041 22.7818 37.6233 22.7818C39.532 23.2045 41.4919 23.3454 43.439 23.1853C43.5287 23.1789 43.6119 23.2237 43.6567 23.3006L43.644 23.3134ZM36.2142 32.7798C36.2206 32.8439 36.2014 32.908 36.163 32.9528C34.645 34.7013 32.7108 36.104 30.5779 37.0007C30.5203 37.0263 30.4626 37.0263 30.405 37.0007C28.2722 36.0976 26.3379 34.6949 24.8199 32.9528C24.7815 32.908 24.7623 32.8439 24.7687 32.7798C25.0633 30.4613 25.7871 28.2452 26.9079 26.1956C26.94 26.138 26.9912 26.0996 27.0552 26.0868C28.1825 25.8498 29.3354 25.7281 30.4947 25.7281C31.6539 25.7281 32.8068 25.8498 33.9341 26.0868C33.9981 26.0996 34.0494 26.138 34.0814 26.1956C35.2023 28.2452 35.9196 30.4613 36.2206 32.7798H36.2142ZM35.8684 16.8829C35.8684 16.8829 35.9452 16.8188 36.0221 16.8188C36.0477 16.8188 36.0798 16.8189 36.1118 16.8381C38.4688 17.7732 40.576 19.3104 42.2156 21.2767C42.2989 21.3727 42.2669 21.4752 42.2476 21.5136C42.2348 21.5457 42.1772 21.6482 42.0427 21.6482C40.5888 21.6674 39.1413 21.5008 37.7386 21.1678C37.681 21.155 37.6297 21.1165 37.5977 21.0653C36.8483 19.8291 36.2463 18.4969 35.8107 17.1135C35.7723 16.9918 35.8428 16.9085 35.8748 16.8829H35.8684ZM27.2538 16.1143C29.3738 15.6596 31.6091 15.6596 33.7291 16.1143C33.8124 16.1335 33.8829 16.1976 33.9021 16.2808C34.3568 18.1831 35.0934 20.0021 36.0861 21.6866C36.131 21.7634 36.1246 21.8595 36.0733 21.9363L34.2992 24.383C34.2479 24.4535 34.1583 24.4919 34.075 24.4727C31.7308 23.9987 29.2521 23.9987 26.9079 24.4727C26.8247 24.4919 26.735 24.4535 26.6837 24.383L24.9096 21.9363C24.8584 21.8659 24.8519 21.7634 24.8968 21.6866C25.8895 20.0021 26.6261 18.1831 27.0808 16.2808C27.1001 16.1976 27.1705 16.1335 27.2538 16.1143ZM18.7673 21.2767C20.4069 19.304 22.5142 17.7668 24.8712 16.8381C24.9032 16.8253 24.9352 16.8188 24.9608 16.8188C25.0441 16.8188 25.0953 16.8637 25.1145 16.8829C25.1466 16.9149 25.217 16.9918 25.1786 17.1135C24.7431 18.5033 24.141 19.8291 23.3916 21.0653C23.3596 21.1165 23.3084 21.155 23.2507 21.1678C21.848 21.5008 20.4006 21.6674 18.9466 21.6482C18.8121 21.6482 18.7545 21.5457 18.7417 21.5136C18.7225 21.4752 18.6904 21.3727 18.7737 21.2767H18.7673ZM17.339 23.3134C17.3774 23.243 17.4543 23.1981 17.5376 23.1981C17.5376 23.1981 17.5503 23.1981 17.5567 23.1981C19.5102 23.3519 21.4702 23.2173 23.3724 22.7946C23.4621 22.7754 23.5517 22.8074 23.603 22.8843L25.39 25.3438C25.4412 25.4142 25.4476 25.5103 25.4092 25.5807C24.2691 27.7072 23.5261 29.9937 23.1995 32.3827C23.1867 32.466 23.129 32.5365 23.0458 32.5685L20.1571 33.51C20.0739 33.5356 19.9778 33.51 19.9202 33.446C18.6264 31.9793 17.1276 30.7239 15.456 29.6991C15.3855 29.6543 15.3406 29.571 15.347 29.4813C15.5648 27.2845 16.2374 25.2093 17.3454 23.3198L17.339 23.3134ZM18.0371 39.0951C17.9987 39.2168 17.8898 39.2424 17.845 39.2488C17.8001 39.2488 17.6976 39.2488 17.6272 39.1463C16.2629 37.0007 15.456 34.5156 15.2958 31.9664C15.2894 31.8384 15.3727 31.7743 15.4111 31.7551C15.4496 31.7359 15.552 31.691 15.6545 31.7679C16.8394 32.6069 17.9154 33.5933 18.857 34.6885C18.8954 34.7334 18.9146 34.791 18.9082 34.8551C18.7929 36.2962 18.4983 37.7245 18.0307 39.1015L18.0371 39.0951ZM24.3652 44.9428C22.3668 44.0653 20.6055 42.7779 19.1324 41.1255C19.0747 41.0614 19.0555 40.9653 19.0875 40.8885C19.8369 39.0823 20.3109 37.18 20.4966 35.2329C20.503 35.1433 20.5671 35.0664 20.6503 35.0408L23.5069 34.1121C23.5069 34.1121 23.5518 34.0993 23.5774 34.0993C23.6414 34.0993 23.6991 34.1249 23.7439 34.1761C25.3451 35.9695 27.3499 37.4298 29.5467 38.397C29.63 38.4354 29.6812 38.5123 29.6812 38.6019V41.6058C29.6812 41.6955 29.63 41.7788 29.5467 41.8108C27.7534 42.5858 26.0881 43.6298 24.5957 44.9044C24.5317 44.962 24.4356 44.9748 24.3588 44.9364L24.3652 44.9428ZM34.4401 45.5769C34.4337 45.6217 34.4017 45.7242 34.2736 45.7562C31.8013 46.3839 29.188 46.3839 26.7158 45.7562C26.5941 45.7242 26.5557 45.6217 26.5493 45.5769C26.5429 45.532 26.53 45.4296 26.6389 45.3463C27.8046 44.4816 29.0728 43.7579 30.4114 43.2006C30.469 43.175 30.5267 43.175 30.5843 43.2006C31.9166 43.7579 33.1847 44.4816 34.3568 45.3463C34.4593 45.4232 34.4529 45.532 34.4465 45.5769H34.4401ZM41.8634 41.1319C40.3902 42.7843 38.6289 44.0653 36.6306 44.9428C36.5473 44.9812 36.4576 44.962 36.3936 44.9107C34.9013 43.6362 33.2424 42.5922 31.4426 41.8172C31.3593 41.7788 31.3081 41.7019 31.3081 41.6122V38.6083C31.3081 38.5187 31.3593 38.4354 31.4426 38.4034C33.6395 37.4362 35.6506 35.9759 37.2454 34.1825C37.2903 34.1313 37.3479 34.1057 37.412 34.1057C37.4376 34.1057 37.4568 34.1057 37.4824 34.1185L40.339 35.0472C40.4223 35.0728 40.4863 35.1497 40.4927 35.2393C40.6785 37.1864 41.1524 39.0823 41.9018 40.8949C41.9338 40.9717 41.921 41.0678 41.857 41.1319H41.8634ZM43.3621 39.1527C43.2917 39.2616 43.1828 39.2616 43.1443 39.2552C43.0995 39.2552 42.997 39.2232 42.9522 39.1015C42.4911 37.7245 42.1964 36.2962 42.0747 34.8551C42.0747 34.7974 42.0875 34.7334 42.1259 34.6885C43.0675 33.5933 44.1435 32.6133 45.3284 31.7679C45.3732 31.7359 45.4181 31.7231 45.4565 31.7231C45.5077 31.7231 45.5462 31.7423 45.5718 31.7551C45.6102 31.7743 45.6999 31.8384 45.6871 31.9664C45.527 34.5156 44.72 37.0007 43.3557 39.1463L43.3621 39.1527Z" fill="#9DADF2"/>
</svg>
