<svg width="62" height="61" viewBox="0 0 62 61" fill="none" xmlns="http://www.w3.org/2000/svg">
    <path d="M31.1171 60.9939C23.3032 60.9939 15.4956 58.022 9.54543 52.0719C-2.34848 40.178 -2.34848 20.8288 9.54543 8.93485C15.3098 3.17044 22.9701 0 31.1171 0C39.2642 0 46.9244 3.17044 52.6889 8.93485C64.5828 20.8288 64.5828 40.178 52.6889 52.0719C46.7451 58.0156 38.9311 60.9939 31.1171 60.9939ZM11.1467 50.4706C22.1567 61.4807 40.0712 61.4807 51.0812 50.4706C62.0913 39.4606 62.0913 21.5461 51.0812 10.5361C45.7459 5.20079 38.6557 2.26732 31.1107 2.26732C23.5658 2.26732 16.4755 5.2072 11.1402 10.5361C0.130214 21.5461 0.130214 39.4606 11.1402 50.4706H11.1467Z" fill="#7DDACF"/>
    <path d="M32.2463 24.0826L26.5972 31.999H29.9853V37.6481L35.6345 29.7381H32.2463V24.0826Z" fill="#7DDACF"/>
    <path d="M31.1114 19.6823C24.9243 19.6823 19.9028 24.7037 19.9028 30.8909C19.9028 37.078 24.9243 42.0867 31.1114 42.0867C37.2986 42.0867 42.32 37.0652 42.32 30.8909C42.32 24.7165 37.2986 19.6823 31.1114 19.6823ZM31.1114 40.7032C25.6801 40.7032 21.2735 36.2966 21.2735 30.8653C21.2735 25.4339 25.6801 21.0273 31.1114 21.0273C36.5428 21.0273 40.9494 25.4339 40.9494 30.8653C40.9494 36.2966 36.5428 40.7032 31.1114 40.7032Z" fill="#7DDACF"/>
    <path d="M48.4374 13.1814C43.813 8.55063 37.6579 6.00787 31.1121 6.00787C24.5662 6.00787 18.4175 8.55703 13.7868 13.1814C4.23708 22.7311 4.23708 38.2758 13.7868 47.8319C18.5649 52.61 24.8352 54.999 31.1121 54.999C37.3889 54.999 43.6593 52.61 48.4374 47.8319C57.9871 38.2822 57.9871 22.7375 48.4374 13.1814ZM31.1121 46.0962C22.7344 46.0962 15.9132 39.2749 15.9132 30.8973C15.9132 27.1953 17.239 23.8007 19.4423 21.1491L17.5849 19.2916C17.0533 18.76 17.0533 17.8954 17.5849 17.3574C18.1165 16.8194 18.9812 16.8258 19.5192 17.3574L21.3766 19.2148C23.6824 17.2869 26.5838 16.0188 29.7478 15.7497V14.4944H28.4925C27.3844 14.4944 26.4685 13.5785 26.4685 12.4704V11.4136C26.4685 10.2928 27.3844 9.38968 28.4925 9.38968H33.7445C34.8525 9.38968 35.7684 10.2928 35.7684 11.4136V12.4704C35.7684 13.5785 34.8525 14.4944 33.7445 14.4944H32.4891V15.7497C35.6596 16.0252 38.5546 17.2933 40.8603 19.2148L42.7177 17.3574C43.2493 16.8258 44.114 16.8258 44.652 17.3574C45.1836 17.889 45.1836 18.7536 44.652 19.2916L42.7946 21.1491C44.9979 23.8007 46.3237 27.1889 46.3237 30.8973C46.3237 39.2749 39.5025 46.0962 31.1249 46.0962H31.1121Z" fill="#7DDACF"/>
</svg>
