<svg width="62" height="61" viewBox="0 0 62 61" fill="none" xmlns="http://www.w3.org/2000/svg">
    <path d="M61.5695 30.4937C61.5695 47.3066 47.8886 60.9875 31.0758 60.9875C14.2629 60.9875 0.582031 47.3066 0.582031 30.4937C0.582031 13.6809 14.2629 0 31.0758 0C47.8886 0 61.5695 13.6809 61.5695 30.4937ZM2.77891 30.4937C2.77891 46.0961 15.4734 58.7906 31.0758 58.7906C46.6781 58.7906 59.3726 46.0961 59.3726 30.4937C59.3726 14.8914 46.6781 2.19688 31.0758 2.19688C15.4734 2.19688 2.77891 14.8914 2.77891 30.4937Z" fill="#478BF9"/>
    <path d="M25.2021 25.1072C25.2021 26.2281 25.9643 27.2016 27.0532 27.4706L29.1219 27.9894V22.6669H27.6488C26.3038 22.6669 25.2086 23.7622 25.2086 25.1072H25.2021Z" fill="#478BF9"/>
    <path d="M33.0279 38.3205H34.501C35.846 38.3205 36.9413 37.2253 36.9413 35.8802C36.9413 34.7594 36.1791 33.7858 35.0903 33.5168L33.0215 32.998V38.3205H33.0279Z" fill="#478BF9"/>
    <path d="M31.0754 5.68109C17.3945 5.68109 6.25635 16.8128 6.25635 30.5001C6.25635 44.1874 17.3881 55.3191 31.0754 55.3191C44.7626 55.3191 55.8944 44.1874 55.8944 30.5001C55.8944 16.8128 44.7626 5.68109 31.0754 5.68109ZM40.8621 26.5803H36.9486V24.6204C36.9486 23.5444 36.0712 22.6605 34.9887 22.6605H33.0288V28.9629L36.0456 29.7187C38.8765 30.4297 40.8557 32.9596 40.8557 35.8802C40.8557 39.3837 38.0055 42.2339 34.502 42.2339H33.0288V47.1913H29.1155V42.2339H27.1556C23.9147 42.2339 21.2823 39.6015 21.2823 36.3606V34.4007H25.1957V36.3606C25.1957 37.4366 26.0731 38.3205 27.1556 38.3205H29.1155V32.0181L26.0987 31.2623C23.2678 30.5513 21.2887 28.0214 21.2887 25.1008C21.2887 21.5973 24.1388 18.7471 27.6423 18.7471H29.1155V13.7897H33.0288V18.7471H34.9887C38.2296 18.7471 40.8621 21.3795 40.8621 24.6204V26.5803Z" fill="#478BF9"/>
</svg>
