<svg width="62" height="61" viewBox="0 0 62 61" fill="none" xmlns="http://www.w3.org/2000/svg">
    <path d="M0.78125 30.4937C0.78125 13.6809 14.4622 0 31.275 0C48.0879 0 61.7688 13.6809 61.7688 30.4937C61.7688 47.3066 48.0879 60.9875 31.275 60.9875C14.4622 60.9875 0.78125 47.3066 0.78125 30.4937ZM59.5719 30.4937C59.5719 14.8914 46.8774 2.19688 31.275 2.19688C15.6727 2.19688 2.97817 14.8914 2.97817 30.4937C2.97817 46.0961 15.6727 58.7906 31.275 58.7906C46.8774 58.7906 59.5719 46.0961 59.5719 30.4937Z" fill="#478BF9"/>
    <path d="M60.8371 29.7571H47.4829V32.3895H60.8371V29.7571Z" fill="#478BF9"/>
    <path d="M14.8567 29.7571H1.50244V32.3895H14.8567V29.7571Z" fill="#478BF9"/>
    <path d="M32.6959 47.5882H30.0635V60.9424H32.6959V47.5882Z" fill="#478BF9"/>
    <path d="M32.6959 1.20398H30.0635V14.5582H32.6959V1.20398Z" fill="#478BF9"/>
    <path d="M47.0794 14.366C37.946 5.23258 23.1314 5.23258 13.9916 14.366C4.85825 23.4994 4.85825 38.3139 13.9916 47.4537C23.125 56.5871 37.9396 56.5871 47.0794 47.4537C56.2128 38.3203 56.2128 23.5058 47.0794 14.366ZM35.0574 16.3451C37.7218 17.1713 40.1108 18.7149 41.9683 20.8157L42.3269 21.2192L41.8018 21.3409C40.4119 21.6676 38.926 21.9366 37.3888 22.1351L37.1134 22.1736L37.0365 21.9046C36.7803 21.0271 36.4793 20.1816 36.1334 19.4002C35.7043 18.4203 35.2239 17.562 34.6987 16.8383L34.1223 16.0505L35.0574 16.3387V16.3451ZM24.3676 30.1797L24.3804 29.8466C24.4445 27.8227 24.6686 25.8884 25.0529 24.1078L25.1106 23.826L25.3988 23.8516C28.7678 24.1463 32.3673 24.1335 35.7171 23.8196L36.0053 23.794L36.0694 24.0758C36.4601 25.8756 36.6842 27.8163 36.7419 29.8466V30.1797H24.374H24.3676ZM36.7419 31.6656V31.9987C36.6714 34.029 36.4472 35.9697 36.0565 37.7695L35.9925 38.0513L35.7043 38.0257C32.3545 37.7118 28.755 37.7055 25.386 37.9937L25.0978 38.0193L25.0401 37.7375C24.6558 35.9569 24.4316 34.029 24.3676 31.9987L24.3548 31.6656H36.7291H36.7419ZM30.5548 15.7879C32.4186 15.7879 34.3144 18.1513 35.4993 21.9622L35.621 22.3465L35.2175 22.3785C33.6419 22.513 32.0151 22.5835 30.3818 22.5835C28.8638 22.5835 27.3523 22.5258 25.8791 22.4041L25.4756 22.3721L25.5973 21.9814C26.7822 18.1577 28.6845 15.7815 30.5548 15.7815V15.7879ZM19.0771 20.8862C20.9474 18.7533 23.3556 17.1842 26.0521 16.3515L26.9936 16.0633L26.4108 16.8575C25.8856 17.5748 25.3988 18.4395 24.9761 19.413C24.6366 20.1816 24.3292 21.0399 24.0602 21.9622L23.9833 22.2248L23.7079 22.1928C22.1579 22.0006 20.6592 21.7444 19.2501 21.4178L18.7185 21.2961L19.0771 20.8862ZM15.3367 29.8338C15.516 27.3359 16.3166 24.9021 17.6553 22.782L17.7834 22.5835L18.0139 22.6411C19.6536 23.0574 21.4213 23.3905 23.2788 23.6275L23.6246 23.6723L23.5542 24.0182C23.1699 25.8756 22.9521 27.8419 22.8945 29.8658V30.1797H15.3175L15.3431 29.8338H15.3367ZM17.7834 39.2618L17.6553 39.0633C16.3166 36.9497 15.516 34.5094 15.3367 32.0115L15.3111 31.6656H22.8817V31.9795C22.9457 34.0034 23.1699 35.9761 23.5478 37.8271L23.6182 38.173L23.2723 38.2178C21.4213 38.4548 19.6472 38.7879 18.0075 39.2042L17.777 39.2618H17.7834ZM26.0521 45.5002C23.3556 44.6676 20.9474 43.0984 19.0771 40.9656L18.7185 40.5556L19.2501 40.4339C20.6592 40.1137 22.1579 39.8511 23.7079 39.6589L23.9833 39.6269L24.0602 39.8895C24.3292 40.8118 24.6366 41.6701 24.9761 42.4387C25.4052 43.4186 25.8856 44.2769 26.4108 45.0006L26.9936 45.7948L26.0521 45.5066V45.5002ZM30.5548 46.0574C28.6845 46.0574 26.7822 43.6812 25.5973 39.8575L25.4756 39.4668L25.8791 39.4348C28.9343 39.1914 32.188 39.1978 35.2175 39.4604L35.621 39.4924L35.4993 39.8767C34.308 43.6812 32.4122 46.0511 30.5548 46.0511V46.0574ZM41.9683 41.0296C40.1108 43.1304 37.7154 44.674 35.0574 45.5002L34.1223 45.7884L34.6987 45.0006C35.2239 44.2833 35.7043 43.4186 36.1334 42.4387C36.4729 41.6509 36.7803 40.8118 37.0365 39.9343L37.1134 39.6653L37.3888 39.7038C38.926 39.9023 40.4119 40.1713 41.8018 40.498L42.3269 40.6261L41.9683 41.0296ZM45.7664 32.0115C45.5871 34.535 44.7736 37.0009 43.403 39.1401L43.2749 39.3387L43.0443 39.2811C41.4239 38.8519 39.6625 38.5125 37.8179 38.2627L37.472 38.2178L37.5425 37.8784C37.9268 36.021 38.1509 34.0418 38.2086 31.9859V31.672H45.7856L45.76 32.0179L45.7664 32.0115ZM38.2214 30.1797V29.8658C38.1574 27.8099 37.9332 25.8243 37.5489 23.9733L37.4785 23.6339L37.8243 23.5891C39.6689 23.3393 41.4238 22.9998 43.0507 22.5707L43.2813 22.513L43.4094 22.7116C44.78 24.8508 45.5998 27.3103 45.7728 29.8402L45.7984 30.1861H38.2278L38.2214 30.1797Z" fill="#478BF9"/>
</svg>
