<svg width="62" height="61" viewBox="0 0 62 61" fill="none" xmlns="http://www.w3.org/2000/svg">
    <path d="M31.0694 60.9747C14.2565 60.9747 0.582031 47.2938 0.582031 30.4873C0.582031 13.6809 14.2629 0 31.0694 0C47.8758 0 61.5567 13.6809 61.5567 30.4873C61.5567 47.2938 47.8758 60.9747 31.0694 60.9747ZM31.0694 2.03034C15.3773 2.03034 2.61238 14.7953 2.61238 30.4873C2.61238 46.1793 15.3773 58.9443 31.0694 58.9443C46.7614 58.9443 59.5264 46.1793 59.5264 30.4873C59.5264 14.7953 46.7614 2.03034 31.0694 2.03034Z" fill="#7DDACF"/>
    <path d="M50.9652 8.73288L41.5269 18.1712L43.3837 20.0281L52.8221 10.5898L50.9652 8.73288Z" fill="#7DDACF"/>
    <path d="M18.4745 41.2221L9.03613 50.6604L10.893 52.5173L20.3313 43.0789L18.4745 41.2221Z" fill="#7DDACF"/>
    <path d="M43.6601 41.2271L41.8032 43.084L51.2415 52.5223L53.0984 50.6654L43.6601 41.2271Z" fill="#7DDACF"/>
    <path d="M10.8906 8.45308L9.03369 10.3099L18.4675 19.7437L20.3244 17.8869L10.8906 8.45308Z" fill="#7DDACF"/>
    <path d="M38.5042 31.3073C39.1191 30.6925 39.1191 29.6997 38.5042 29.0912L37.1976 27.7911C36.5827 27.1762 35.59 27.1762 34.9815 27.7911L34.2769 28.4956L33.4635 27.6821C32.8487 27.0673 31.8559 27.0673 31.2474 27.6821L30.5429 28.3931L29.7295 27.5733C29.1146 26.9584 28.1218 26.9584 27.5133 27.5733L23.19 31.8966C23.158 31.9286 23.158 31.9799 23.19 32.0183C23.7665 32.5947 24.708 32.5947 25.2909 32.0183L28.077 29.2322C28.378 28.9311 28.8648 28.9311 29.1658 29.2322L29.3708 29.4371C29.4092 29.4756 29.4092 29.5332 29.3708 29.5716L27.0458 31.8966C27.0138 31.9286 27.0138 31.9799 27.0458 32.0183C27.6222 32.5947 28.5637 32.5947 29.1466 32.0183L31.8175 29.3474C32.1185 29.0464 32.6053 29.0464 32.9063 29.3474L33.1112 29.5524C33.1432 29.5844 33.1432 29.6357 33.1112 29.6741L30.8695 31.9158C30.8375 31.9478 30.8375 31.9991 30.8695 32.0375C31.4459 32.614 32.3875 32.614 32.9703 32.0375L35.5515 29.4563C35.8525 29.1553 36.3393 29.1553 36.6403 29.4563L37.0823 29.8983C37.2552 30.0712 37.2552 30.3594 37.0823 30.5323L37.0118 30.6028C36.8389 30.7757 36.5507 30.7757 36.3777 30.6028L35.8077 30.0328C35.7757 30.0008 35.7244 30.0008 35.686 30.0328L34.6997 31.0191C34.6676 31.0511 34.6676 31.1024 34.6997 31.1408L35.5899 32.0311C36.2048 32.646 37.1976 32.646 37.806 32.0311L38.5106 31.3265L38.5042 31.3073Z" fill="#7DDACF"/>
    <path d="M31.0688 7.1095C18.1565 7.1095 7.69092 17.5751 7.69092 30.4874C7.69092 43.3997 18.1565 53.8653 31.0688 53.8653C43.9811 53.8653 54.4467 43.3997 54.4467 30.4874C54.4467 17.5751 43.9811 7.1095 31.0688 7.1095ZM32.0232 14.3278C35.7765 14.5456 39.1839 16.0444 41.8227 18.3886L38.4473 21.7639C36.6859 20.2716 34.4634 19.3045 32.0232 19.0995V14.3278ZM30.1209 14.3278V19.0995C27.6806 19.298 25.4582 20.2716 23.6968 21.7639L20.3214 18.3886C22.9602 16.0444 26.3676 14.5456 30.1209 14.3278ZM18.9764 19.7336L22.3518 23.109C20.8594 24.8703 19.8923 27.0928 19.6873 29.5331H14.9157C15.1334 25.7798 16.6322 22.3724 18.9764 19.7336ZM14.9157 31.4354H19.6873C19.8859 33.8756 20.8594 36.0981 22.3518 37.8594L18.9764 41.2348C16.6322 38.596 15.1334 35.1886 14.9157 31.4354ZM30.1209 46.6406C26.3676 46.4228 22.9602 44.9241 20.3214 42.5799L23.6968 39.2045C25.4582 40.6968 27.6806 41.664 30.1209 41.8689V46.6406ZM21.2437 30.481C21.2437 25.056 25.6439 20.6559 31.0688 20.6559C36.4938 20.6559 40.894 25.056 40.894 30.481C40.894 35.9059 36.4938 40.3061 31.0688 40.3061C25.6439 40.3061 21.2437 35.9059 21.2437 30.481ZM32.0232 46.6406V41.8689C34.4634 41.6704 36.6859 40.6968 38.4473 39.2045L41.8227 42.5799C39.1839 44.9241 35.7765 46.4228 32.0232 46.6406ZM43.1677 41.2348L39.7923 37.8594C41.2847 36.0981 42.2518 33.8756 42.4568 31.4354H47.2284C47.0107 35.1886 45.5119 38.596 43.1677 41.2348ZM42.4568 29.5331C42.2582 27.0928 41.2847 24.8703 39.7923 23.109L43.1677 19.7336C45.5119 22.3724 47.0107 25.7798 47.2284 29.5331H42.4568Z" fill="#7DDACF"/>
</svg>
