<svg width="76" height="76" viewBox="0 0 76 76" fill="none" xmlns="http://www.w3.org/2000/svg">
    <path fill-rule="evenodd" clip-rule="evenodd" d="M11.1177 11.1177C-3.70591 25.9414 -3.70591 50.0586 11.1177 64.8823C25.9414 79.7059 50.0586 79.7059 64.8823 64.8823C79.7059 50.0586 79.7059 25.9414 64.8823 11.1177C50.0586 -3.70591 25.9414 -3.70591 11.1177 11.1177ZM62.3257 12.1669C48.6945 -0.679515 27.3032 -0.67897 13.6759 12.1685L17.0147 15.5073C22.5108 10.3774 29.8888 7.23809 38 7.23809C46.1113 7.23809 53.4893 10.3774 58.9853 15.5073L62.3257 12.1669ZM11.8948 13.9701C-0.674669 27.6127 -0.582816 48.7931 12.1704 62.3222L15.5073 58.9853C10.3774 53.4892 7.2381 46.1112 7.2381 38C7.2381 30.0333 10.2666 22.7739 15.235 17.3103L11.8948 13.9701ZM13.9718 64.1035C27.5154 76.5835 48.489 76.5841 62.03 64.1053L58.6897 60.765C53.2261 65.7335 45.9667 68.7619 38 68.7619C30.0333 68.7619 22.7739 65.7335 17.3103 60.765L13.9718 64.1035ZM63.8314 62.324C76.5869 48.791 76.6788 27.6081 64.1072 13.9681L60.765 17.3103C65.7335 22.7739 68.7619 30.0333 68.7619 38C68.7619 46.1112 65.6226 53.4892 60.4927 58.9853L63.8314 62.324ZM50.462 23.9551C47.3616 21.1981 43.3502 19.4371 38.9376 19.1821V24.7948C41.8068 25.0327 44.421 26.1682 46.4947 27.9257L50.462 23.9585V23.9551ZM27.5593 29.5065L23.592 25.5393C20.835 28.6397 19.074 32.6511 18.8191 37.0637H24.4317C24.6697 34.1945 25.8051 31.5803 27.5627 29.5065H27.5593ZM56.8191 37.0637H51.2099C50.9719 34.1945 49.833 31.5803 48.0789 29.5065L52.0462 25.5393C54.8032 28.6431 56.5641 32.6511 56.8191 37.0637ZM24.4283 39.3006H18.8191C19.074 43.7132 20.835 47.7212 23.592 50.825L27.5593 46.8578C25.8051 44.784 24.6663 42.1698 24.4283 39.3006ZM36.7006 19.1821V24.7914C33.8314 25.0293 31.2172 26.1682 29.1435 27.9224L25.1762 23.9551C28.28 21.1981 32.288 19.4371 36.7006 19.1821ZM52.0427 50.825C54.7998 47.7246 56.5607 43.7132 56.8157 39.3006H51.203C50.9651 42.1698 49.8296 44.784 48.0721 46.8544L52.0427 50.825ZM38.9376 57.1821V51.5729C41.8068 51.3349 44.421 50.1961 46.4947 48.4419L50.462 52.4092C47.3582 55.1662 43.3502 56.9272 38.9376 57.1821ZM25.1762 52.4092C28.2766 55.1662 32.288 56.9272 36.7006 57.1821V51.5695C33.8314 51.3315 31.2172 50.1961 29.1435 48.4385L25.1762 52.4058V52.4092ZM37.819 26.6271C44.1999 26.6271 49.374 31.8012 49.374 38.1822C49.374 44.5631 44.1999 49.7372 37.819 49.7372C31.4381 49.7372 26.264 44.5631 26.264 38.1822C26.264 31.8012 31.4381 26.6271 37.819 26.6271ZM42.0854 38.9334L43.1291 39.9771L43.1223 39.9907C43.843 40.7114 45.009 40.7114 45.7297 39.9907L46.5592 39.1612C47.2799 38.4405 47.2799 37.2711 46.5592 36.5538L45.026 35.0206C44.3053 34.2999 43.1393 34.2999 42.4186 35.0206L41.5891 35.8501L40.6338 34.8948C39.9131 34.1741 38.7471 34.1741 38.0264 34.8948L37.1969 35.7243L36.245 34.7622C35.5243 34.0415 34.3583 34.0415 33.6376 34.7622L28.5553 39.8445C28.5179 39.8819 28.5179 39.9465 28.5553 39.9839C29.2386 40.6638 30.3434 40.6638 31.0233 39.9839L34.2971 36.7102C34.6506 36.3566 35.2252 36.3566 35.5787 36.7102L35.8167 36.9481C35.8609 36.9923 35.8609 37.0603 35.8167 37.1045L33.08 39.8411C33.0426 39.8785 33.0426 39.9431 33.08 39.9805C33.7633 40.6604 34.8682 40.6604 35.5481 39.9805L38.6927 36.8359C39.0462 36.4824 39.6208 36.4824 39.9743 36.8359L40.2157 37.0773C40.2531 37.1147 40.2531 37.1793 40.2157 37.2167L37.581 39.8513C37.5436 39.8887 37.5436 39.9533 37.581 39.9907C38.2643 40.6706 39.3692 40.6706 40.0491 39.9907L43.0849 36.9549C43.4384 36.6014 44.0129 36.6014 44.3665 36.9549L44.8832 37.4716C45.0906 37.679 45.0906 38.0122 44.8832 38.2195L44.805 38.3011C44.5977 38.5085 44.2645 38.5085 44.0571 38.3011L43.3874 37.6314C43.35 37.594 43.2854 37.594 43.2481 37.6314L42.0854 38.7941C42.048 38.8315 42.048 38.896 42.0854 38.9334Z" fill="#110A1D"/>
</svg>
