<svg width="62" height="61" viewBox="0 0 62 61" fill="none" xmlns="http://www.w3.org/2000/svg">
    <path d="M31.0742 60.9939C23.2602 60.9939 15.4526 58.0221 9.50246 52.0719C-2.39145 40.178 -2.39145 20.8288 9.50246 8.93485C15.2669 3.17044 22.9271 0 31.0742 0C39.2212 0 46.8815 3.17044 52.6459 8.93485C64.5398 20.8288 64.5398 40.178 52.6459 52.0719C46.7021 58.0157 38.8882 60.9939 31.0742 60.9939ZM11.1037 50.4707C22.1137 61.4807 40.0282 61.4807 51.0383 50.4707C62.0483 39.4606 62.0483 21.5461 51.0383 10.5361C45.703 5.20079 38.6127 2.26736 31.0678 2.26736C23.5228 2.26736 16.4326 5.2072 11.0973 10.5361C0.0872456 21.5461 0.0872456 39.4606 11.0973 50.4707H11.1037Z" fill="#9DADF2"/>
    <path d="M30.6709 41.9135C30.7798 42.1761 31.0359 42.3298 31.3049 42.3298C31.3946 42.3298 31.4843 42.3106 31.574 42.2786C33.726 41.3755 35.6859 39.9792 37.2359 38.237C37.4857 37.9552 37.4601 37.5198 37.1783 37.27C36.8965 37.0202 36.4609 37.0458 36.2111 37.3276C34.7956 38.9224 33.0087 40.197 31.0424 41.0168C30.6965 41.1641 30.53 41.5677 30.6773 41.9135H30.6709Z" fill="#9DADF2"/>
    <path d="M42.6986 19.9575L31.3235 15.41C31.157 15.3459 30.9776 15.3459 30.8111 15.41L19.436 19.9575C19.1734 20.06 19.0068 20.3097 19.0068 20.5916V28.7386C19.0196 36.2579 23.7721 43.0536 30.8303 45.6411C30.9072 45.6668 30.984 45.6796 31.0673 45.6796C31.1505 45.6796 31.2274 45.6668 31.3043 45.6411C38.3625 43.0471 43.1149 36.2579 43.1277 28.7386V20.5916C43.1277 20.3097 42.9612 20.06 42.6986 19.9575ZM41.7571 28.7386C41.7443 35.579 37.453 41.811 31.0737 44.2641C24.6944 41.811 20.3967 35.579 20.3839 28.7386V21.0591L31.0737 16.787L41.7571 21.0591V28.7386Z" fill="#9DADF2"/>
    <path d="M26.3213 21.0271C26.1548 20.9566 25.9691 20.9566 25.7961 21.0271L23.0869 22.1096C22.8243 22.212 22.6577 22.4618 22.6577 22.7436V25.6323C22.6577 26.0101 22.9652 26.3175 23.343 26.3175C23.7209 26.3175 24.0284 26.0101 24.0284 25.6323V23.2112L26.3021 22.3017C26.475 22.2313 26.6032 22.1031 26.68 21.9302C26.7505 21.7637 26.7505 21.578 26.68 21.405C26.6096 21.2321 26.4815 21.1039 26.3149 21.0271H26.3213Z" fill="#9DADF2"/>
    <path d="M48.3924 13.1812C43.7681 8.55041 37.6129 6.00766 31.0671 6.00766C24.5213 6.00766 18.3726 8.55682 13.7419 13.1812C4.19216 22.7309 4.19216 38.2756 13.7419 47.8317C18.5199 52.6098 24.7903 54.9924 31.0671 54.9924C37.3439 54.9924 43.6143 52.6034 48.3924 47.8317C57.9421 38.282 57.9421 22.7373 48.3924 13.1812ZM45.0042 28.7387C45.0234 37.4301 39.4704 45.0328 31.1888 47.6652C31.112 47.6908 31.0287 47.6908 30.9454 47.6652C22.6639 45.0328 17.1108 37.4301 17.1301 28.7387V19.1249C17.1301 18.9648 17.2261 18.8175 17.3799 18.7534L30.9198 13.3413C30.9647 13.3221 31.0159 13.3157 31.0671 13.3157C31.1184 13.3157 31.1696 13.3221 31.2144 13.3413L44.7544 18.7598C44.9081 18.8175 45.0042 18.9648 45.0042 19.1313V28.7451V28.7387Z" fill="#9DADF2"/>
</svg>
