<svg width="44" height="8" viewBox="0 0 44 8" fill="none" xmlns="http://www.w3.org/2000/svg">
<path d="M3.22282 3.86651V3.38797H4.1799V7.4995H3.22282V7.06979C2.90379 7.4409 2.49361 7.62646 1.99229 7.62646C1.38679 7.62646 0.901738 7.41161 0.537136 6.9819C0.179045 6.55219 0 6.03784 0 5.43885C0 4.78778 0.192067 4.26692 0.576201 3.87627C0.966845 3.47912 1.44213 3.28054 2.00205 3.28054C2.5164 3.28054 2.92332 3.47586 3.22282 3.86651ZM2.11925 4.13996C1.78069 4.13996 1.50398 4.26692 1.28913 4.52084C1.08078 4.77476 0.976611 5.08727 0.976611 5.45838C0.976611 5.82299 1.08078 6.13225 1.28913 6.38616C1.50398 6.64008 1.78069 6.76704 2.11925 6.76704C2.44478 6.76704 2.71823 6.6531 2.9396 6.42523C3.16748 6.19735 3.28141 5.87833 3.28141 5.46815C3.28141 5.04495 3.16748 4.71941 2.9396 4.49154C2.71823 4.25715 2.44478 4.13996 2.11925 4.13996Z" fill="white"/>
<path d="M5.3838 7.4995V3.38797H6.34088V3.76885C6.63386 3.44331 7.00497 3.28054 7.45421 3.28054C7.99461 3.28054 8.39827 3.4661 8.66521 3.83721C8.83449 4.07811 8.91913 4.45898 8.91913 4.97984V7.4995H7.96205V5.21423C7.96205 4.96682 7.94252 4.76499 7.90346 4.60873C7.86439 4.45247 7.80254 4.34505 7.7179 4.28645C7.63326 4.22134 7.55513 4.18228 7.48351 4.16926C7.41841 4.14972 7.32726 4.13996 7.21006 4.13996C7.07334 4.13996 6.96265 4.15298 6.87801 4.17902C6.79988 4.19855 6.71199 4.25064 6.61433 4.33528C6.52318 4.41341 6.45482 4.55339 6.40924 4.75522C6.36367 4.95055 6.34088 5.20772 6.34088 5.52675V7.4995H5.3838Z" fill="white"/>
<path d="M13.1415 3.86651V0.380005H14.0986V7.4995H13.1415V7.06979C12.8225 7.4409 12.4123 7.62646 11.911 7.62646C11.3055 7.62646 10.8204 7.41161 10.4558 6.9819C10.0978 6.55219 9.91871 6.03784 9.91871 5.43885C9.91871 4.78778 10.1108 4.26692 10.4949 3.87627C10.8856 3.47912 11.3608 3.28054 11.9208 3.28054C12.4351 3.28054 12.842 3.47586 13.1415 3.86651ZM12.038 4.13996C11.6994 4.13996 11.4227 4.26692 11.2078 4.52084C10.9995 4.77476 10.8953 5.08727 10.8953 5.45838C10.8953 5.82299 10.9995 6.13225 11.2078 6.38616C11.4227 6.64008 11.6994 6.76704 12.038 6.76704C12.3635 6.76704 12.6369 6.6531 12.8583 6.42523C13.0862 6.19735 13.2001 5.87833 13.2001 5.46815C13.2001 5.04495 13.0862 4.71941 12.8583 4.49154C12.6369 4.25715 12.3635 4.13996 12.038 4.13996Z" fill="white"/>
<path d="M17.5917 7.4995V3.38797H18.5487V3.76885C18.8157 3.44331 19.1542 3.28054 19.5644 3.28054C20.0397 3.28054 20.3945 3.48237 20.6289 3.88604C20.9089 3.48237 21.3158 3.28054 21.8497 3.28054C22.3836 3.28054 22.7742 3.49539 23.0216 3.9251C23.1649 4.17902 23.2365 4.52409 23.2365 4.96031V7.4995H22.2794V5.23376C22.2794 4.87567 22.2501 4.63152 22.1915 4.5013C22.1004 4.26041 21.9181 4.13996 21.6446 4.13996C21.4102 4.13996 21.2214 4.24087 21.0782 4.44271C20.9545 4.6185 20.8926 4.93101 20.8926 5.38025V7.4995H19.9355V5.23376C19.9355 4.87567 19.9062 4.63152 19.8476 4.5013C19.7565 4.26041 19.5742 4.13996 19.3007 4.13996C19.0664 4.13996 18.8775 4.24087 18.7343 4.44271C18.6106 4.6185 18.5487 4.93101 18.5487 5.38025V7.4995H17.5917Z" fill="white"/>
<path d="M24.8591 3.89581C25.2823 3.48563 25.8064 3.28054 26.4314 3.28054C27.0565 3.28054 27.5773 3.48563 27.994 3.89581C28.4172 4.29947 28.6288 4.81708 28.6288 5.44862C28.6288 6.07365 28.4172 6.59451 27.994 7.0112C27.5773 7.42137 27.0565 7.62646 26.4314 7.62646C25.8064 7.62646 25.2823 7.42137 24.8591 7.0112C24.4424 6.59451 24.2341 6.07365 24.2341 5.44862C24.2341 4.81708 24.4424 4.29947 24.8591 3.89581ZM25.5427 6.41546C25.7641 6.64985 26.0603 6.76704 26.4314 6.76704C26.8026 6.76704 27.0988 6.64985 27.3202 6.41546C27.5415 6.17457 27.6522 5.85554 27.6522 5.45838C27.6522 5.02216 27.5318 4.69337 27.2909 4.47201C27.0565 4.25064 26.77 4.13996 26.4314 4.13996C26.0929 4.13996 25.8032 4.25064 25.5623 4.47201C25.3279 4.69337 25.2107 5.02216 25.2107 5.45838C25.2107 5.85554 25.3214 6.17457 25.5427 6.41546Z" fill="white"/>
<path d="M29.6276 7.4995V3.38797H30.5847V3.75908C30.7084 3.61584 30.8419 3.50191 30.9851 3.41727C31.1414 3.32612 31.3367 3.28054 31.5711 3.28054C31.8511 3.28054 32.1017 3.34565 32.3231 3.47586L31.9324 4.34505C31.7762 4.24739 31.6134 4.19855 31.4441 4.19855C31.1902 4.19855 30.9916 4.27343 30.8484 4.42318C30.6726 4.61199 30.5847 4.92776 30.5847 5.37049V7.4995H29.6276Z" fill="white"/>
<path d="M35.4461 6.11271L36.2469 6.56195C36.0646 6.88749 35.8335 7.13815 35.5535 7.31395C35.2345 7.52229 34.8308 7.62646 34.3425 7.62646C33.7696 7.62646 33.3073 7.45067 32.9557 7.09909C32.5521 6.69542 32.3502 6.17131 32.3502 5.52675C32.3502 4.84963 32.5684 4.28645 33.0046 3.83721C33.3757 3.4661 33.8347 3.28054 34.3816 3.28054C34.9155 3.28054 35.355 3.45959 35.7 3.81768C36.0842 4.21483 36.2762 4.79429 36.2762 5.55604V5.67324H33.3269C33.3529 6.01831 33.4701 6.29501 33.6784 6.50336C33.8542 6.67915 34.0984 6.76704 34.4109 6.76704C34.6648 6.76704 34.8829 6.69868 35.0652 6.56195C35.215 6.44476 35.3419 6.29501 35.4461 6.11271ZM33.3952 4.89195H35.2996C35.2606 4.66407 35.1629 4.47852 35.0066 4.33528C34.8374 4.17902 34.6225 4.10089 34.3621 4.10089C34.0886 4.10089 33.864 4.18879 33.6882 4.36458C33.545 4.49479 33.4473 4.67058 33.3952 4.89195Z" fill="white"/>
<path d="M37.4816 7.45067C37.3709 7.33348 37.3156 7.1935 37.3156 7.03073C37.3156 6.86796 37.3709 6.73123 37.4816 6.62055C37.5988 6.50336 37.7388 6.44476 37.9015 6.44476C38.0643 6.44476 38.201 6.50336 38.3117 6.62055C38.4289 6.73123 38.4875 6.86796 38.4875 7.03073C38.4875 7.1935 38.4289 7.33348 38.3117 7.45067C38.201 7.56135 38.0643 7.61669 37.9015 7.61669C37.7388 7.61669 37.5988 7.56135 37.4816 7.45067Z" fill="white"/>
<path d="M40.2378 7.45067C40.1272 7.33348 40.0718 7.1935 40.0718 7.03073C40.0718 6.86796 40.1272 6.73123 40.2378 6.62055C40.355 6.50336 40.495 6.44476 40.6578 6.44476C40.8205 6.44476 40.9573 6.50336 41.068 6.62055C41.1851 6.73123 41.2437 6.86796 41.2437 7.03073C41.2437 7.1935 41.1851 7.33348 41.068 7.45067C40.9573 7.56135 40.8205 7.61669 40.6578 7.61669C40.495 7.61669 40.355 7.56135 40.2378 7.45067Z" fill="white"/>
<path d="M42.9941 7.45067C42.8834 7.33348 42.8281 7.1935 42.8281 7.03073C42.8281 6.86796 42.8834 6.73123 42.9941 6.62055C43.1113 6.50336 43.2513 6.44476 43.414 6.44476C43.5768 6.44476 43.7135 6.50336 43.8242 6.62055C43.9414 6.73123 44 6.86796 44 7.03073C44 7.1935 43.9414 7.33348 43.8242 7.45067C43.7135 7.56135 43.5768 7.61669 43.414 7.61669C43.2513 7.61669 43.1113 7.56135 42.9941 7.45067Z" fill="white"/>
</svg>
