<svg width="65" height="32" viewBox="0 0 65 32" fill="none" xmlns="http://www.w3.org/2000/svg">
<rect x="1" y="0.5" width="63.5" height="31" rx="11.5" fill="white" fill-opacity="0.12"/>
<path d="M20.0083 15.9112V15.5922H20.6578V18.3332H20.0083V18.0468C19.7918 18.2942 19.5135 18.4179 19.1733 18.4179C18.7624 18.4179 18.4333 18.2746 18.1859 17.9882C17.9429 17.7017 17.8214 17.3588 17.8214 16.9595C17.8214 16.5254 17.9517 16.1782 18.2124 15.9178C18.4775 15.653 18.8 15.5206 19.1799 15.5206C19.529 15.5206 19.8051 15.6508 20.0083 15.9112ZM19.2595 16.0935C19.0297 16.0935 18.842 16.1782 18.6962 16.3475C18.5548 16.5167 18.4841 16.7251 18.4841 16.9725C18.4841 17.2156 18.5548 17.4217 18.6962 17.591C18.842 17.7603 19.0297 17.8449 19.2595 17.8449C19.4804 17.8449 19.6659 17.769 19.8161 17.6171C19.9708 17.4651 20.0481 17.2525 20.0481 16.979C20.0481 16.6969 19.9708 16.4799 19.8161 16.3279C19.6659 16.1717 19.4804 16.0935 19.2595 16.0935Z" fill="white"/>
<path d="M21.4747 18.3332V15.5922H22.1241V15.8461C22.323 15.6291 22.5748 15.5206 22.8796 15.5206C23.2463 15.5206 23.5202 15.6443 23.7014 15.8917C23.8162 16.0523 23.8737 16.3062 23.8737 16.6535V18.3332H23.2242V16.8097C23.2242 16.6448 23.211 16.5102 23.1845 16.4061C23.158 16.3019 23.116 16.2303 23.0586 16.1912C23.0011 16.1478 22.9481 16.1218 22.8995 16.1131C22.8553 16.1001 22.7935 16.0935 22.714 16.0935C22.6212 16.0935 22.5461 16.1022 22.4886 16.1196C22.4356 16.1326 22.376 16.1673 22.3097 16.2238C22.2479 16.2759 22.2015 16.3692 22.1705 16.5037C22.1396 16.6339 22.1241 16.8054 22.1241 17.0181V18.3332H21.4747Z" fill="white"/>
<path d="M26.7389 15.9112V13.5869H27.3883V18.3332H26.7389V18.0468C26.5224 18.2942 26.2441 18.4179 25.9039 18.4179C25.493 18.4179 25.1639 18.2746 24.9164 17.9882C24.6735 17.7017 24.552 17.3588 24.552 16.9595C24.552 16.5254 24.6823 16.1782 24.943 15.9178C25.208 15.653 25.5306 15.5206 25.9105 15.5206C26.2595 15.5206 26.5356 15.6508 26.7389 15.9112ZM25.99 16.0935C25.7603 16.0935 25.5725 16.1782 25.4267 16.3475C25.2854 16.5167 25.2147 16.7251 25.2147 16.9725C25.2147 17.2156 25.2854 17.4217 25.4267 17.591C25.5725 17.7603 25.7603 17.8449 25.99 17.8449C26.2109 17.8449 26.3965 17.769 26.5467 17.6171C26.7013 17.4651 26.7786 17.2525 26.7786 16.979C26.7786 16.6969 26.7013 16.4799 26.5467 16.3279C26.3965 16.1717 26.2109 16.0935 25.99 16.0935Z" fill="white"/>
<path d="M29.7586 18.3332V15.5922H30.4081V15.8461C30.5892 15.6291 30.8189 15.5206 31.0973 15.5206C31.4198 15.5206 31.6606 15.6552 31.8196 15.9243C32.0096 15.6552 32.2857 15.5206 32.648 15.5206C33.0103 15.5206 33.2753 15.6638 33.4432 15.9503C33.5404 16.1196 33.589 16.3496 33.589 16.6405V18.3332H32.9396V16.8228C32.9396 16.584 32.9197 16.4213 32.8799 16.3344C32.8181 16.1738 32.6944 16.0935 32.5088 16.0935C32.3498 16.0935 32.2217 16.1608 32.1245 16.2954C32.0405 16.4126 31.9985 16.6209 31.9985 16.9204V18.3332H31.3491V16.8228C31.3491 16.584 31.3292 16.4213 31.2895 16.3344C31.2276 16.1738 31.1039 16.0935 30.9183 16.0935C30.7593 16.0935 30.6312 16.1608 30.534 16.2954C30.45 16.4126 30.4081 16.6209 30.4081 16.9204V18.3332H29.7586Z" fill="white"/>
<path d="M34.6901 15.9308C34.9773 15.6573 35.3329 15.5206 35.757 15.5206C36.1812 15.5206 36.5346 15.6573 36.8174 15.9308C37.1045 16.1999 37.2481 16.545 37.2481 16.966C37.2481 17.3827 37.1045 17.7299 36.8174 18.0077C36.5346 18.2812 36.1812 18.4179 35.757 18.4179C35.3329 18.4179 34.9773 18.2812 34.6901 18.0077C34.4073 17.7299 34.266 17.3827 34.266 16.966C34.266 16.545 34.4073 16.1999 34.6901 15.9308ZM35.154 17.6106C35.3042 17.7668 35.5052 17.8449 35.757 17.8449C36.0089 17.8449 36.2099 17.7668 36.3601 17.6106C36.5103 17.45 36.5854 17.2373 36.5854 16.9725C36.5854 16.6817 36.5037 16.4625 36.3402 16.3149C36.1812 16.1673 35.9868 16.0935 35.757 16.0935C35.5273 16.0935 35.3307 16.1673 35.1672 16.3149C35.0082 16.4625 34.9287 16.6817 34.9287 16.9725C34.9287 17.2373 35.0038 17.45 35.154 17.6106Z" fill="white"/>
<path d="M37.9259 18.3332V15.5922H38.5753V15.8396C38.6593 15.7441 38.7498 15.6682 38.847 15.6118C38.9531 15.551 39.0856 15.5206 39.2447 15.5206C39.4346 15.5206 39.6047 15.564 39.7549 15.6508L39.4899 16.2303C39.3838 16.1652 39.2734 16.1326 39.1585 16.1326C38.9862 16.1326 38.8515 16.1825 38.7543 16.2824C38.635 16.4082 38.5753 16.6187 38.5753 16.9139V18.3332H37.9259Z" fill="white"/>
<path d="M41.8741 17.4087L42.4175 17.7082C42.2938 17.9252 42.137 18.0923 41.947 18.2095C41.7305 18.3484 41.4566 18.4179 41.1253 18.4179C40.7365 18.4179 40.4228 18.3007 40.1842 18.0663C39.9103 17.7972 39.7734 17.4478 39.7734 17.0181C39.7734 16.5667 39.9214 16.1912 40.2174 15.8917C40.4692 15.6443 40.7807 15.5206 41.1518 15.5206C41.5141 15.5206 41.8123 15.64 42.0464 15.8787C42.3071 16.1435 42.4374 16.5298 42.4374 17.0376V17.1157H40.4361C40.4537 17.3458 40.5333 17.5303 40.6746 17.6691C40.7939 17.7863 40.9596 17.8449 41.1717 17.8449C41.344 17.8449 41.492 17.7994 41.6157 17.7082C41.7173 17.6301 41.8034 17.5303 41.8741 17.4087ZM40.4825 16.5949H41.7747C41.7482 16.443 41.6819 16.3193 41.5759 16.2238C41.461 16.1196 41.3153 16.0675 41.1385 16.0675C40.953 16.0675 40.8006 16.1261 40.6813 16.2433C40.5841 16.3301 40.5178 16.4473 40.4825 16.5949Z" fill="white"/>
<path d="M43.2553 18.3007C43.1802 18.2226 43.1427 18.1292 43.1427 18.0207C43.1427 17.9122 43.1802 17.8211 43.2553 17.7473C43.3349 17.6691 43.4299 17.6301 43.5403 17.6301C43.6508 17.6301 43.7435 17.6691 43.8186 17.7473C43.8982 17.8211 43.9379 17.9122 43.9379 18.0207C43.9379 18.1292 43.8982 18.2226 43.8186 18.3007C43.7435 18.3745 43.6508 18.4114 43.5403 18.4114C43.4299 18.4114 43.3349 18.3745 43.2553 18.3007Z" fill="white"/>
<path d="M45.1257 18.3007C45.0506 18.2226 45.013 18.1292 45.013 18.0207C45.013 17.9122 45.0506 17.8211 45.1257 17.7473C45.2052 17.6691 45.3002 17.6301 45.4106 17.6301C45.5211 17.6301 45.6138 17.6691 45.689 17.7473C45.7685 17.8211 45.8082 17.9122 45.8082 18.0207C45.8082 18.1292 45.7685 18.2226 45.689 18.3007C45.6138 18.3745 45.5211 18.4114 45.4106 18.4114C45.3002 18.4114 45.2052 18.3745 45.1257 18.3007Z" fill="white"/>
<path d="M46.996 18.3007C46.9209 18.2226 46.8833 18.1292 46.8833 18.0207C46.8833 17.9122 46.9209 17.8211 46.996 17.7473C47.0755 17.6691 47.1705 17.6301 47.2809 17.6301C47.3914 17.6301 47.4842 17.6691 47.5593 17.7473C47.6388 17.8211 47.6786 17.9122 47.6786 18.0207C47.6786 18.1292 47.6388 18.2226 47.5593 18.3007C47.4842 18.3745 47.3914 18.4114 47.2809 18.4114C47.1705 18.4114 47.0755 18.3745 46.996 18.3007Z" fill="white"/>
<rect x="1" y="0.5" width="63.5" height="31" rx="11.5" stroke="url(#paint0_linear_1429_8619)"/>
<defs>
<linearGradient id="paint0_linear_1429_8619" x1="0.5" y1="0" x2="64.7496" y2="32.4951" gradientUnits="userSpaceOnUse">
<stop stop-color="white" stop-opacity="0.24"/>
<stop offset="1" stop-color="white" stop-opacity="0.14"/>
</linearGradient>
</defs>
</svg>
