<svg width="81" height="12" viewBox="0 0 81 12" fill="none" xmlns="http://www.w3.org/2000/svg">
<g clip-path="url(#clip0_54_1918)">
<path d="M15.8221 11.3589C15.2972 11.3589 14.7691 11.3427 14.2507 11.307C13.7032 11.2714 13.1588 11.1936 12.621 11.0802V1.76846C13.0616 1.68422 13.5509 1.6259 14.079 1.58378C14.6039 1.54166 15.0964 1.51898 15.55 1.51898C16.1623 1.51898 16.7228 1.56434 17.2348 1.65506C17.7467 1.7393 18.1873 1.89158 18.5599 2.10218C18.9293 2.31602 19.2209 2.59142 19.4282 2.94134C19.6356 3.29126 19.7425 3.71894 19.7425 4.22114C19.7425 4.98902 19.3732 5.59166 18.6312 6.03554C19.2436 6.26234 19.655 6.5831 19.8754 6.97514C20.0957 7.37366 20.2091 7.82078 20.2091 8.31974C20.2091 9.33063 19.8397 10.0855 19.1042 10.591C18.3623 11.1094 17.2769 11.3589 15.8221 11.3589ZM14.727 5.40374H15.78C16.4507 5.40374 16.9172 5.3195 17.2121 5.14778C17.494 4.9793 17.6398 4.70066 17.6398 4.32482C17.6398 3.93278 17.4907 3.66386 17.1991 3.50834C16.901 3.35282 16.4669 3.27182 15.8966 3.27182C15.712 3.27182 15.5143 3.27182 15.3005 3.2783C15.0866 3.28478 14.902 3.2945 14.7302 3.31394C14.727 3.31394 14.727 5.40374 14.727 5.40374ZM14.727 7.05614V9.53799C14.8825 9.56067 15.0542 9.57362 15.2389 9.5801C15.4236 9.58982 15.631 9.5963 15.8513 9.5963C16.4993 9.5963 17.0177 9.50559 17.4162 9.3209C17.8147 9.13622 18.0124 8.79602 18.0124 8.29706C18.0124 7.85642 17.8471 7.53566 17.5166 7.35098C17.1829 7.15982 16.7066 7.06586 16.0846 7.06586H14.727V7.05614Z" fill="white"/>
<path d="M23.293 1.83978C23.293 2.21562 23.1731 2.51694 22.9237 2.73726C22.6807 2.95758 22.3891 3.0645 22.0553 3.0645C21.7346 3.06774 21.4235 2.95434 21.187 2.73726C20.944 2.51694 20.8177 2.22534 20.8177 1.83978C20.8177 1.46394 20.9375 1.16262 21.187 0.942298C21.4235 0.728458 21.7346 0.611818 22.0553 0.615058C22.3761 0.611818 22.6871 0.725218 22.9237 0.942298C23.1699 1.16586 23.293 1.46394 23.293 1.83978ZM23.0921 11.239H21.0283V3.94578H23.0921V11.239Z" fill="white"/>
<path d="M24.204 2.13133L26.2679 1.79761V3.94573H28.7498V5.66617H26.2679V8.22577C26.2679 8.65993 26.3457 9.00985 26.4947 9.26257C26.6438 9.51853 26.958 9.65461 27.4181 9.65461C27.6482 9.65137 27.875 9.63193 28.1018 9.58981C28.3221 9.55093 28.5392 9.49261 28.7498 9.41809L29.0414 11.0251C28.7724 11.1353 28.4906 11.2228 28.2087 11.2876C27.9041 11.3589 27.5315 11.401 27.0844 11.401C26.5206 11.401 26.0541 11.3232 25.6815 11.1742C25.3121 11.0251 25.0108 10.8113 24.7905 10.5326C24.5702 10.2637 24.4146 9.93001 24.3272 9.54445C24.2364 9.12001 24.1911 8.68909 24.1911 8.25817V2.13133H24.204Z" fill="white"/>
<path d="M29.0443 7.59403C29.0411 7.08859 29.1285 6.58315 29.3003 6.10687C29.4623 5.65651 29.7117 5.24179 30.039 4.88863C30.3597 4.53871 30.755 4.26979 31.2183 4.06567C31.6817 3.85831 32.2065 3.76111 32.7962 3.76111C33.185 3.76111 33.5414 3.79675 33.8622 3.86803C34.1862 3.93931 34.5005 4.03651 34.8018 4.16611L34.3741 5.81527C34.1635 5.73751 33.9497 5.67271 33.7326 5.62411C33.4766 5.56579 33.2174 5.53663 32.955 5.53987C32.3426 5.53987 31.889 5.73103 31.5909 6.11011C31.2929 6.48595 31.1438 6.98491 31.1438 7.60375C31.1438 8.25823 31.2864 8.77015 31.5618 9.12655C31.8469 9.48943 32.3394 9.66763 33.0327 9.66763C33.3017 9.66763 33.5706 9.64495 33.8363 9.59635C34.1052 9.55423 34.3741 9.47971 34.6268 9.37603L34.9184 11.0673C34.6268 11.184 34.3255 11.2714 34.0145 11.3298C33.6192 11.4075 33.2207 11.4464 32.8189 11.4432C32.1482 11.4432 31.5812 11.3427 31.0985 11.1451C30.6157 10.9474 30.2237 10.6753 29.9094 10.3351C29.5951 9.99163 29.3748 9.58987 29.2322 9.12331C29.1091 8.62435 29.0443 8.11243 29.0443 7.59403Z" fill="white"/>
<path d="M42.0308 7.58101C42.0308 8.15773 41.9465 8.67613 41.7813 9.15241C41.6193 9.62869 41.3763 10.0337 41.0653 10.3707C40.7477 10.7076 40.3622 10.9733 39.9345 11.1547C39.4906 11.3394 39.0046 11.4334 38.4635 11.4334C37.9289 11.4334 37.4397 11.3427 36.9991 11.1547C36.5681 10.9765 36.1858 10.7109 35.8683 10.3707C35.554 10.0369 35.3045 9.62545 35.1361 9.15241C34.9579 8.67613 34.8736 8.14801 34.8736 7.58101C34.8736 7.00429 34.9643 6.48589 35.1425 6.01609C35.3207 5.54629 35.5702 5.14129 35.8877 4.81405C36.2117 4.48033 36.5973 4.21465 37.025 4.03645C37.4656 3.85177 37.9419 3.75781 38.4635 3.75781C38.9884 3.75781 39.4744 3.84853 39.9151 4.03645C40.3557 4.22113 40.7315 4.47709 41.0458 4.81405C41.3698 5.16073 41.6193 5.56897 41.7781 6.01609C41.9401 6.48589 42.0308 7.00429 42.0308 7.58101ZM39.9248 7.58101C39.9248 6.93949 39.7952 6.44377 39.5425 6.08089C39.2865 5.71801 38.9236 5.53333 38.4538 5.53333C37.984 5.53333 37.6147 5.71801 37.3587 6.08089C37.1027 6.44377 36.9667 6.94921 36.9667 7.58101C36.9667 8.22253 37.0963 8.72473 37.3587 9.09733C37.6147 9.47317 37.984 9.66109 38.4538 9.66109C38.9236 9.66109 39.2865 9.47641 39.5425 9.09733C39.7984 8.71825 39.9248 8.21281 39.9248 7.58101Z" fill="white"/>
<path d="M45.1217 1.83978C45.1217 2.21562 45.0018 2.51694 44.7523 2.73726C44.5093 2.95758 44.2177 3.0645 43.884 3.0645C43.5633 3.06774 43.2522 2.95434 43.0157 2.73726C42.7727 2.51694 42.6463 2.22534 42.6463 1.83978C42.6463 1.46394 42.7662 1.16262 43.0157 0.942298C43.2522 0.728458 43.5633 0.611818 43.884 0.615058C44.2048 0.611818 44.5158 0.725218 44.7523 0.942298C44.9986 1.16586 45.1217 1.46394 45.1217 1.83978ZM44.9273 11.239H42.8667V3.94578H44.9305V11.239H44.9273Z" fill="white"/>
<path d="M46.1003 4.19518C46.4502 4.09474 46.9038 3.99754 47.4578 3.9133C48.0346 3.82258 48.6145 3.77722 49.201 3.77722C49.8198 3.77722 50.3317 3.85498 50.7464 4.02022C51.1579 4.18222 51.4852 4.41226 51.7217 4.70386C51.9647 5.00194 52.1332 5.35186 52.2336 5.75686C52.334 6.16186 52.3826 6.6187 52.3826 7.11442V11.2325H50.3188V7.36066C50.3188 6.68998 50.2345 6.22342 50.0563 5.94478C49.8781 5.66614 49.5509 5.5333 49.0746 5.5333C48.9256 5.5333 48.77 5.53978 48.6048 5.55598C48.4396 5.57218 48.2905 5.58514 48.1642 5.60458V11.2325H46.1003V4.19518Z" fill="white"/>
<path d="M58.0233 11.4301C56.4584 11.4301 55.2725 10.996 54.4528 10.1276C53.6363 9.25933 53.2281 8.02813 53.2281 6.42757C53.2281 5.63052 53.3577 4.92744 53.6039 4.30212C53.8534 3.6768 54.1936 3.15192 54.6278 2.72424C55.0684 2.29332 55.5998 1.9596 56.1797 1.749C56.7759 1.52868 57.4304 1.41528 58.1367 1.41528C58.5417 1.41528 58.9143 1.44444 59.248 1.506C59.5461 1.5546 59.8377 1.62264 60.1228 1.71336C60.3366 1.77816 60.5472 1.85916 60.7481 1.95636C60.9101 2.0406 61.03 2.1054 61.111 2.14752L60.4857 3.89064C60.1552 3.72216 59.8118 3.58608 59.4554 3.49212C59.0633 3.37872 58.6162 3.32688 58.1172 3.32688C57.7868 3.32688 57.4563 3.3852 57.142 3.49212C56.8245 3.60552 56.5361 3.7902 56.2964 4.02672C56.0534 4.26972 55.8557 4.59048 55.7067 4.9728C55.5576 5.3616 55.4864 5.83464 55.4864 6.38869C55.4831 6.80665 55.5317 7.22137 55.6289 7.62637C55.7294 8.00869 55.8849 8.33593 56.0987 8.61457C56.3255 8.89969 56.6171 9.12649 56.9508 9.27553C57.3008 9.43753 57.7284 9.51853 58.2242 9.51853C58.506 9.51853 58.7879 9.50233 59.0698 9.46345C59.2966 9.43429 59.5202 9.38893 59.7405 9.32737C59.9154 9.28525 60.0872 9.22693 60.2524 9.15889C60.4014 9.09409 60.5343 9.02929 60.6509 8.98069L61.2471 10.7173C60.9425 10.902 60.5148 11.0672 59.9608 11.213C59.397 11.3588 58.749 11.4301 58.0233 11.4301Z" fill="#0AC18E"/>
<path d="M64.4832 3.75458C65.0956 3.75458 65.601 3.82586 66.006 3.96194C66.411 4.09802 66.7382 4.29566 66.9812 4.5581C67.2307 4.82378 67.4057 5.14778 67.4996 5.4977C67.6001 5.86706 67.6487 6.28178 67.6487 6.7289V11.0251C67.3506 11.0899 66.9456 11.1677 66.4175 11.2519C65.8926 11.3362 65.2511 11.388 64.5059 11.388C64.0361 11.388 63.6084 11.3427 63.2261 11.2584C62.8438 11.1742 62.5165 11.0381 62.2379 10.8534C61.9625 10.6655 61.7422 10.4128 61.5964 10.1147C61.4473 9.81014 61.376 9.43754 61.376 8.99042C61.376 8.56274 61.4603 8.20634 61.632 7.90826C61.794 7.61666 62.0273 7.3769 62.3156 7.20518C62.5975 7.02698 62.928 6.90062 63.2974 6.82286C63.6764 6.74186 64.062 6.70298 64.4476 6.70298C64.7165 6.70298 64.953 6.71918 65.1571 6.73862C65.3645 6.7613 65.533 6.78722 65.6626 6.82934V6.63818C65.6626 6.28826 65.5556 6.00638 65.3418 5.79254C65.128 5.5787 64.7586 5.47178 64.2305 5.47178C63.8838 5.47178 63.5371 5.4977 63.1937 5.54954C62.8502 5.59814 62.5522 5.66942 62.3027 5.76338L62.0402 4.09802C62.1601 4.06238 62.3092 4.02026 62.4874 3.97814C62.6656 3.93278 62.8632 3.90038 63.077 3.86474C63.2909 3.8291 63.5112 3.80642 63.7477 3.7805C64.0004 3.76754 64.2402 3.75458 64.4832 3.75458ZM64.6452 9.7907C64.8526 9.7907 65.0437 9.78422 65.2284 9.7745C65.3774 9.77126 65.5232 9.7583 65.669 9.73238V8.16746C65.5848 8.14478 65.4617 8.13182 65.2932 8.11238C65.1442 8.09294 64.9886 8.08322 64.8364 8.08322C64.6517 8.08646 64.4702 8.09618 64.2888 8.11886C64.1203 8.14154 63.968 8.18366 63.8417 8.25494C63.7186 8.31326 63.6116 8.40398 63.5371 8.51738C63.4594 8.6405 63.4205 8.78306 63.4237 8.92886C63.4237 9.24962 63.5306 9.47642 63.751 9.59954C63.9713 9.73562 64.2694 9.7907 64.6452 9.7907Z" fill="#0AC18E"/>
<path d="M70.8565 9.7583C71.2324 9.7583 71.5045 9.72266 71.66 9.6449C71.8188 9.57362 71.8966 9.42458 71.8966 9.21722C71.8966 9.05522 71.7961 8.90294 71.592 8.78306C71.3846 8.65346 71.0801 8.52062 70.6621 8.3651C70.3414 8.24522 70.0433 8.1221 69.7808 7.98926C69.5184 7.85966 69.2916 7.70414 69.1102 7.52594C68.9222 7.34126 68.7797 7.12094 68.6825 6.87794C68.582 6.62846 68.5334 6.33038 68.5334 5.97398C68.5334 5.29034 68.7894 4.74926 69.2948 4.35074C69.8003 3.95222 70.4969 3.75458 71.3846 3.75458C71.8123 3.75458 72.2368 3.7967 72.658 3.87446C73.063 3.95222 73.3902 4.03646 73.6267 4.13042L73.2638 5.73746C73.0079 5.64674 72.7487 5.57546 72.4798 5.51714C72.1687 5.4491 71.8512 5.41346 71.5337 5.4167C70.8857 5.4167 70.5649 5.5949 70.5649 5.95778C70.5617 6.03554 70.5779 6.10682 70.6103 6.1781C70.6459 6.25262 70.7042 6.31742 70.7723 6.36278C70.8824 6.4373 70.9958 6.49886 71.1157 6.55394C71.2939 6.64142 71.4754 6.71594 71.6633 6.78074C72.1201 6.95246 72.4862 7.11446 72.7876 7.27646C73.0856 7.43846 73.3124 7.6199 73.4842 7.80134C73.6462 7.98278 73.7725 8.19338 73.847 8.42666C73.9183 8.65346 73.954 8.92238 73.954 9.23018C73.954 9.94622 73.685 10.497 73.144 10.8599C72.6029 11.2293 71.8415 11.4139 70.8533 11.4139C70.2053 11.4139 69.6642 11.3589 69.2398 11.2519C68.8121 11.1385 68.514 11.0446 68.3423 10.9733L68.6922 9.29498C69.0421 9.43106 69.405 9.54122 69.7744 9.62222C70.1275 9.71294 70.4904 9.7583 70.8565 9.7583Z" fill="#0AC18E"/>
<path d="M74.719 11.2389V0.815837L76.7829 0.482117V3.97484C76.9578 3.91976 77.136 3.8744 77.3175 3.83876C77.5248 3.79664 77.7387 3.77396 77.9492 3.77396C78.5389 3.77396 79.0314 3.85172 79.4202 4.01696C79.809 4.17896 80.1233 4.40576 80.3598 4.7006C80.5963 4.99868 80.7583 5.3486 80.8555 5.7536C80.956 6.1586 80.9981 6.61544 80.9981 7.11116V11.2324H78.9342V7.36064C78.9342 6.68996 78.85 6.2234 78.6783 5.94476C78.5065 5.66612 78.189 5.53328 77.7322 5.53328C77.5572 5.53004 77.3823 5.54948 77.2138 5.58188C77.0485 5.61752 76.9092 5.64668 76.7796 5.6888V11.2292H74.7157L74.719 11.2389Z" fill="#0AC18E"/>
<path d="M5.44142 11.5176C8.44583 11.5176 10.8814 9.08206 10.8814 6.07766C10.8814 3.07325 8.44583 0.637695 5.44142 0.637695C2.43702 0.637695 0.00146484 3.07325 0.00146484 6.07766C0.00146484 9.08206 2.43702 11.5176 5.44142 11.5176Z" fill="#0AC18E"/>
<path d="M7.13632 4.25671C6.86416 3.63787 6.23884 3.50827 5.47096 3.63463L5.22472 2.68207L4.64152 2.83111L4.88452 3.78367C4.73224 3.82255 4.57348 3.85495 4.4212 3.90031L4.1782 2.95423L3.595 3.10327L3.84124 4.05907C3.71812 4.09471 2.6716 4.36363 2.6716 4.36363L2.8336 4.98571C2.8336 4.98571 3.26128 4.86583 3.25804 4.87555C3.49456 4.81399 3.60472 4.93063 3.6598 5.04403L4.33696 7.66195C4.34668 7.73971 4.33372 7.86931 4.16848 7.91143C4.1782 7.91467 3.74404 8.02159 3.74404 8.02159L3.80884 8.74411C3.80884 8.74411 4.84564 8.47843 4.98172 8.44603L5.2312 9.41155L5.81116 9.26251L5.56168 8.29051C5.72368 8.25487 5.87596 8.21275 6.02824 8.17387L6.27772 9.14263L6.86092 8.99359L6.61144 8.02807C7.50568 7.81099 8.13748 7.24723 8.00788 6.38539C7.92364 5.86699 7.35664 5.43931 6.8836 5.39071C7.16872 5.12179 7.31776 4.74919 7.13632 4.25671ZM6.85444 6.53119C6.97108 7.38655 5.78524 7.49023 5.38996 7.59391L5.04652 6.31735C5.44504 6.21367 6.66328 5.77951 6.85444 6.53119ZM6.14164 4.79455C6.26476 5.55271 5.25064 5.64343 4.92016 5.72767L4.60912 4.56775C4.93636 4.48351 5.89216 4.08823 6.14164 4.79455Z" fill="#110A1D"/>
</g>
<defs>
<clipPath id="clip0_54_1918">
<rect width="81" height="11.0484" fill="white" transform="translate(0 0.475769)"/>
</clipPath>
</defs>
</svg>
