<svg width="24" height="24" viewBox="0 0 24 24" fill="none" xmlns="http://www.w3.org/2000/svg">
<path d="M23.64 14.9029C22.0373 21.3315 15.5262 25.2438 9.09691 23.6407C2.67022 22.038 -1.24211 15.5266 0.361372 9.09838C1.96336 2.66907 8.47441 -1.24364 14.9018 0.359095C21.3308 1.96183 25.2427 8.47401 23.64 14.9029Z" fill="#F7931A"/>
<path d="M17.291 10.2906C17.5298 8.69385 16.3141 7.83548 14.6517 7.26286L15.191 5.09988L13.8744 4.77176L13.3494 6.87774C13.0032 6.79149 12.6478 6.71012 12.2945 6.62949L12.8232 4.50964L11.5074 4.18152L10.9678 6.34375C10.6813 6.2785 10.4 6.214 10.127 6.14612L10.1285 6.13937L8.31279 5.686L7.96255 7.09224C7.96255 7.09224 8.93941 7.31611 8.91879 7.32999C9.45203 7.46311 9.54841 7.81598 9.53228 8.09573L8.91804 10.5598C8.95479 10.5692 9.00241 10.5827 9.05491 10.6037C9.01104 10.5928 8.96416 10.5808 8.91579 10.5692L8.0548 14.021C7.98955 14.183 7.82418 14.426 7.45143 14.3338C7.46455 14.3529 6.49444 14.0949 6.49444 14.0949L5.84082 15.602L7.55418 16.0292C7.87292 16.109 8.1853 16.1926 8.49279 16.2714L7.94792 18.4591L9.26304 18.7872L9.80266 16.6228C10.1619 16.7203 10.5106 16.8103 10.8519 16.895L10.3141 19.0494L11.6308 19.3775L12.1756 17.1939C14.4207 17.6188 16.109 17.4474 16.8196 15.4168C17.3922 13.7818 16.7911 12.8387 15.6098 12.2237C16.4701 12.0253 17.1181 11.4594 17.291 10.2906ZM14.2827 14.5089C13.8759 16.1439 11.123 15.26 10.2305 15.0384L10.9535 12.1401C11.846 12.3628 14.708 12.8038 14.2827 14.5089ZM14.69 10.267C14.3187 11.7542 12.0275 10.9986 11.2843 10.8133L11.9398 8.1846C12.683 8.36985 15.0766 8.7156 14.69 10.267Z" fill="white"/>
</svg>
