<svg width="61" height="13" viewBox="0 0 61 13" fill="none" xmlns="http://www.w3.org/2000/svg">
<path d="M13.1418 8.14988C12.3042 11.5051 8.90577 13.5475 5.55057 12.7099C2.19537 11.8747 0.152966 8.47628 0.990566 5.12108C1.82577 1.76348 5.22417 -0.276519 8.57937 0.558681C11.9346 1.39628 13.977 4.79468 13.1418 8.14988Z" fill="#F7931A"/>
<path d="M9.82805 5.74265C9.95285 4.90985 9.31925 4.46105 8.45045 4.16105L8.73125 3.03305L8.04485 2.86265L7.77125 3.96185C7.59125 3.91625 7.40405 3.87305 7.22165 3.83225L7.49765 2.72585L6.81125 2.55545L6.53045 3.68345C6.38165 3.64985 6.23285 3.61625 6.09125 3.58025V3.57785L5.14325 3.34025L4.96085 4.07465C4.96085 4.07465 5.46965 4.19225 5.46005 4.19945C5.73845 4.26905 5.78885 4.45385 5.77925 4.60025L5.45765 5.88425C5.47685 5.88905 5.50085 5.89625 5.52965 5.90825C5.50565 5.90345 5.48165 5.89625 5.45765 5.88905L5.00645 7.69145C4.97285 7.77545 4.88645 7.90265 4.69205 7.85465C4.69925 7.86425 4.19285 7.72985 4.19285 7.72985L3.85205 8.51705L4.74725 8.74025C4.91285 8.78105 5.07605 8.82665 5.23685 8.86745L4.95365 10.0099L5.64005 10.1803L5.92085 9.04985C6.10805 9.10025 6.29045 9.14825 6.46805 9.19145L6.18725 10.3171L6.87365 10.4875L7.15925 9.34745C8.33045 9.56825 9.21365 9.47945 9.58325 8.41865C9.88085 7.56425 9.56885 7.07225 8.95205 6.75065C9.39845 6.64745 9.73685 6.35225 9.82805 5.74265ZM8.25845 7.94585C8.04725 8.80025 6.60965 8.33705 6.14405 8.22185L6.52085 6.70985C6.98645 6.82505 8.47925 7.05545 8.25845 7.94585ZM8.46965 5.73065C8.27525 6.50585 7.08005 6.11225 6.69125 6.01625L7.03445 4.64345C7.42325 4.73945 8.67125 4.92185 8.46965 5.73065Z" fill="#110A1D"/>
<path d="M19.1583 4.1611C19.6671 4.1611 20.1063 4.2523 20.4735 4.4299C20.8431 4.6099 21.1503 4.8547 21.3951 5.1595C21.6375 5.4667 21.8175 5.8267 21.9327 6.2371C22.0479 6.6499 22.1055 7.0939 22.1055 7.5691C22.1055 8.2987 21.9711 8.9875 21.7023 9.6379C21.4335 10.2883 21.0663 10.8523 20.6007 11.3347C20.1351 11.8147 19.5855 12.1939 18.9519 12.4747C18.3183 12.7555 17.6319 12.8947 16.8927 12.8947C16.7967 12.8947 16.6287 12.8923 16.3911 12.8875C16.1535 12.8827 15.8799 12.8587 15.5751 12.8179C15.2679 12.7747 14.9439 12.7123 14.6007 12.6259C14.2575 12.5419 13.9311 12.4267 13.6263 12.2779L16.3695 0.753101L18.8247 0.373901L17.8431 4.4635C18.0543 4.3675 18.2655 4.2955 18.4767 4.2427C18.6879 4.1899 18.9159 4.1611 19.1583 4.1611ZM17.0967 10.9483C17.4663 10.9483 17.8143 10.8571 18.1431 10.6795C18.4719 10.4995 18.7551 10.2595 18.9927 9.9571C19.2303 9.6547 19.4175 9.3139 19.5543 8.9347C19.6911 8.5555 19.7607 8.1571 19.7607 7.7443C19.7607 7.2379 19.6767 6.8419 19.5063 6.5563C19.3383 6.2707 19.0239 6.1291 18.5703 6.1291C18.4215 6.1291 18.2295 6.1579 17.9919 6.2083C17.7543 6.2611 17.5407 6.3739 17.3487 6.5419L16.3047 10.8835C16.3671 10.8955 16.4247 10.9051 16.4703 10.9147C16.5159 10.9243 16.5687 10.9339 16.6191 10.9387C16.6743 10.9459 16.7343 10.9483 16.8111 10.9483C16.8879 10.9483 16.9815 10.9483 17.0967 10.9483Z" fill="white"/>
<path d="M24.6548 12.6763H22.3076L24.29 4.33866H26.6516L24.6548 12.6763ZM25.7972 3.32346C25.4708 3.32346 25.1732 3.22506 24.9092 3.03066C24.6428 2.83626 24.5132 2.53866 24.5132 2.13546C24.5132 1.91466 24.5588 1.70586 24.6476 1.50906C24.7388 1.31226 24.8564 1.14426 25.0052 1.00026C25.154 0.858657 25.3244 0.745857 25.5212 0.659457C25.718 0.575457 25.9268 0.532257 26.1476 0.532257C26.474 0.532257 26.7692 0.630657 27.0356 0.825057C27.2996 1.02186 27.4316 1.31946 27.4316 1.72026C27.4316 1.94346 27.386 2.15226 27.2972 2.34666C27.2084 2.54106 27.0884 2.71146 26.942 2.85306C26.7956 2.99466 26.6228 3.10746 26.426 3.19386C26.2268 3.28266 26.018 3.32106 25.7972 3.32346Z" fill="white"/>
<path d="M28.7079 2.26026L31.1655 1.87866L30.5631 4.33626H33.1959L32.7207 6.27066H30.1047L29.4087 9.18666C29.3439 9.42906 29.3079 9.65707 29.2983 9.86827C29.2863 10.0795 29.3127 10.2619 29.3775 10.4155C29.4399 10.5691 29.5551 10.6867 29.7183 10.7707C29.8815 10.8547 30.1167 10.8979 30.4239 10.8979C30.6759 10.8979 30.9231 10.8739 31.1631 10.8259C31.4007 10.7779 31.6407 10.7131 31.8831 10.6267L32.0583 12.4339C31.7415 12.5515 31.3983 12.6499 31.0287 12.7339C30.6591 12.8203 30.2199 12.8611 29.7135 12.8611C28.9839 12.8611 28.4199 12.7531 28.0167 12.5371C27.6135 12.3211 27.3303 12.0235 27.1599 11.6491C26.9919 11.2747 26.9175 10.8427 26.9391 10.3579C26.9607 9.87067 27.0351 9.35946 27.1599 8.81946L28.7079 2.26026Z" fill="white"/>
<path d="M33.0909 9.34753C33.0909 8.62993 33.2061 7.95313 33.4389 7.31713C33.6717 6.68353 34.0053 6.12673 34.4397 5.65153C34.8717 5.17873 35.3973 4.80193 36.0165 4.52593C36.6333 4.25233 37.3245 4.11313 38.0853 4.11313C38.5605 4.11313 38.9877 4.15873 39.3621 4.24753C39.7389 4.33873 40.0773 4.45633 40.3845 4.60273L39.5757 6.44353C39.3645 6.35713 39.1437 6.28273 38.9181 6.21313C38.6901 6.14353 38.4141 6.10993 38.0853 6.10993C37.3029 6.10993 36.6837 6.37873 36.2229 6.91873C35.7645 7.45633 35.5317 8.18113 35.5317 9.09073C35.5317 9.63073 35.6493 10.0651 35.8821 10.3987C36.1149 10.7323 36.5421 10.8979 37.1661 10.8979C37.4733 10.8979 37.7709 10.8667 38.0541 10.8019C38.3397 10.7395 38.5941 10.6579 38.8149 10.5643L38.9901 12.4507C38.6925 12.5659 38.3661 12.6691 38.0061 12.7603C37.6461 12.8491 37.2189 12.8947 36.7221 12.8947C36.0669 12.8947 35.5125 12.7987 35.0589 12.6091C34.6053 12.4171 34.2285 12.1627 33.9333 11.8411C33.6357 11.5171 33.4221 11.1403 33.2901 10.7059C33.1581 10.2763 33.0909 9.82033 33.0909 9.34753Z" fill="white"/>
<path d="M43.5166 12.8971C42.9574 12.8971 42.4702 12.8107 42.0574 12.6427C41.647 12.4747 41.3062 12.2371 41.035 11.9299C40.7662 11.6251 40.5622 11.2627 40.4254 10.8451C40.2862 10.4275 40.2214 9.96672 40.2214 9.46032C40.2214 8.82432 40.3222 8.19072 40.5286 7.55712C40.735 6.92352 41.0374 6.35232 41.4406 5.84592C41.8414 5.33952 42.3334 4.92432 42.9142 4.60032C43.495 4.27872 44.1622 4.11792 44.911 4.11792C45.4606 4.11792 45.9454 4.20432 46.363 4.37232C46.7806 4.54032 47.1214 4.78032 47.3926 5.08512C47.6614 5.39232 47.8654 5.75232 48.0022 6.17232C48.139 6.58992 48.2086 7.05312 48.2086 7.55952C48.2086 8.19312 48.1078 8.82672 47.9086 9.46272C47.7094 10.0939 47.4118 10.6675 47.0206 11.1739C46.6294 11.6803 46.1422 12.0955 45.5542 12.4171C44.9662 12.7363 44.287 12.8971 43.5166 12.8971ZM44.6878 6.11232C44.3398 6.11232 44.0326 6.21312 43.7686 6.41232C43.5046 6.61392 43.2814 6.86832 43.1038 7.17312C42.9238 7.48032 42.7894 7.81632 42.6982 8.18112C42.6094 8.54592 42.5638 8.89152 42.5638 9.22032C42.5638 9.74832 42.6502 10.1611 42.8158 10.4587C42.9862 10.7539 43.291 10.9027 43.735 10.9027C44.083 10.9027 44.3902 10.8019 44.6542 10.6003C44.9158 10.4011 45.139 10.1467 45.319 9.83952C45.499 9.53472 45.6334 9.19632 45.7246 8.83152C45.8134 8.46672 45.859 8.12112 45.859 7.79232C45.859 7.26432 45.775 6.85152 45.6046 6.55632C45.439 6.26112 45.1318 6.11232 44.6878 6.11232Z" fill="white"/>
<path d="M50.7643 12.6763H48.4171L50.3995 4.33866H52.7635L50.7643 12.6763ZM51.9043 3.32346C51.5779 3.32346 51.2803 3.22506 51.0163 3.03066C50.7523 2.83626 50.6203 2.53866 50.6203 2.13546C50.6203 1.91466 50.6659 1.70586 50.7547 1.50906C50.8435 1.31226 50.9635 1.14426 51.1123 1.00026C51.2587 0.858657 51.4339 0.745857 51.6283 0.659457C51.8227 0.575457 52.0315 0.532257 52.2547 0.532257C52.5835 0.532257 52.8787 0.630657 53.1427 0.825057C53.4067 1.02186 53.5411 1.31946 53.5411 1.72026C53.5411 1.94346 53.4931 2.15226 53.4043 2.34666C53.3155 2.54106 53.1955 2.71146 53.0491 2.85306C52.9003 2.99466 52.7299 3.10746 52.5331 3.19386C52.3339 3.28266 52.1275 3.32106 51.9043 3.32346Z" fill="white"/>
<path d="M54.451 4.71799C54.6286 4.66519 54.8278 4.60279 55.0438 4.53559C55.2598 4.46839 55.5022 4.40359 55.7734 4.34599C56.0422 4.28599 56.3446 4.24039 56.6758 4.20199C57.0094 4.16359 57.3886 4.14679 57.8086 4.14679C59.047 4.14679 59.899 4.50679 60.3694 5.22679C60.8398 5.94439 60.9214 6.92839 60.6166 8.17639L59.5366 12.6788H57.1774L58.2238 8.27239C58.2886 7.99639 58.3366 7.72999 58.375 7.47079C58.4134 7.21399 58.411 6.98599 58.3654 6.78919C58.3246 6.59479 58.2262 6.43639 58.0726 6.31399C57.9166 6.19399 57.6838 6.13159 57.367 6.13159C57.0622 6.13159 56.7502 6.16519 56.431 6.22759L54.8926 12.6788H52.531L54.451 4.71799Z" fill="white"/>
</svg>
