<svg width="72" height="40" viewBox="0 0 72 40" fill="none" xmlns="http://www.w3.org/2000/svg">
    <rect x="0.5" y="0.5" width="71" height="39" rx="15.5" fill="#110A1D"/>
    <path d="M20.476 8H51.5285C52.8961 8 54.0045 9.10838 54.0045 10.476V29.524C54.0045 30.8916 52.8961 32 51.5285 32H20.476C19.1084 32 18 30.8916 18 29.524V10.476C18 9.10838 19.1084 8 20.476 8Z" fill="#F2F2F2"/>
    <path d="M37.9605 26.1362C37.7102 26.1451 37.4599 26.1093 37.2186 26.0378C37.0219 25.9753 36.8432 25.8859 36.6823 25.7697C36.5393 25.6535 36.4141 25.5194 36.3247 25.3496C36.2353 25.1797 36.1638 25.001 36.1191 24.8222L37.2007 24.3842C37.2096 24.6166 37.299 24.8311 37.4599 24.992C37.6298 25.135 37.8443 25.2065 38.0588 25.1976C38.1214 25.1976 38.1839 25.1887 38.2465 25.1797C38.3091 25.1708 38.3627 25.1529 38.4163 25.1172C38.47 25.0903 38.5057 25.0457 38.5415 24.992C38.5772 24.9384 38.5951 24.8669 38.5951 24.8043C38.5951 24.7417 38.5862 24.6792 38.5683 24.6166C38.5415 24.554 38.5057 24.5004 38.461 24.4646C38.3985 24.411 38.327 24.3663 38.2465 24.3306C38.1303 24.2769 38.0141 24.2412 37.8979 24.2054C37.6477 24.1339 37.4063 24.0445 37.1739 23.9462C36.9862 23.8658 36.8163 23.7585 36.6555 23.6244C36.5214 23.5082 36.4141 23.3652 36.3426 23.2043C36.2711 23.0255 36.2353 22.8378 36.2353 22.6501C36.2353 22.4445 36.28 22.2389 36.3694 22.0602C36.4588 21.8903 36.5839 21.7384 36.7448 21.6222C36.9147 21.4971 37.1024 21.4077 37.308 21.354C37.5404 21.2915 37.7817 21.2646 38.0231 21.2646C38.2376 21.2646 38.461 21.2825 38.6666 21.3362C38.8365 21.3808 38.9974 21.4524 39.1404 21.5507C39.2745 21.6401 39.3906 21.7563 39.48 21.8903C39.5784 22.0423 39.6499 22.1943 39.7124 22.3641L38.7381 22.7931C38.7024 22.6144 38.613 22.4535 38.4879 22.3283C38.2197 22.1496 37.88 22.1406 37.6029 22.3015C37.5225 22.3641 37.4778 22.4535 37.4689 22.5518C37.4689 22.6144 37.4778 22.668 37.5046 22.7216C37.5314 22.7753 37.5761 22.8289 37.6298 22.8646C37.7013 22.9183 37.7817 22.963 37.8711 22.9898C38.0052 23.0434 38.1303 23.0792 38.2644 23.1149C38.4788 23.1775 38.6935 23.2401 38.8812 23.3026C39.0599 23.3652 39.2298 23.4546 39.3817 23.5708C39.5247 23.687 39.6409 23.83 39.7214 23.9909C39.8108 24.1965 39.8555 24.4289 39.8465 24.6524C39.8555 24.8758 39.8018 25.0903 39.7035 25.2959C39.6052 25.4747 39.4711 25.6356 39.3013 25.7518C39.1225 25.8769 38.9169 25.9753 38.7024 26.0289C38.4521 26.1093 38.2018 26.1451 37.9605 26.1362Z" fill="#110A1D"/>
    <path d="M24.0871 22.4178V21.3899H20.8066V22.4178H21.8793V26.0201H23.0145V22.4178H24.0871Z" fill="#110A1D"/>
    <path fill-rule="evenodd" clip-rule="evenodd" d="M27.288 21.4882C27.145 21.4256 26.9751 21.3899 26.8142 21.3899H24.1416V26.0201H25.2768V24.134H26.1885L26.8857 26.0201H28.9937L29.2082 25.2156H30.6294L30.8439 26.0201H32.1043L30.5132 21.3899H29.3512L27.9294 25.6228L27.2522 23.9731C27.4757 23.8659 27.6634 23.705 27.7975 23.4905C27.9315 23.258 28.0031 22.9988 27.9941 22.7307C27.9941 22.5519 27.9673 22.3731 27.9047 22.2033C27.8511 22.0424 27.7707 21.8994 27.6634 21.7743C27.5651 21.6491 27.431 21.5508 27.288 21.4882ZM26.7517 23.0435C26.6891 23.1329 26.5818 23.1776 26.4746 23.1687H25.2857V22.3553H26.4746C26.5371 22.3463 26.5908 22.3642 26.6444 22.391C26.6891 22.4178 26.7338 22.4536 26.7606 22.4893C26.7874 22.534 26.8142 22.5787 26.8232 22.6234C26.8321 22.6681 26.841 22.7217 26.841 22.7664C26.841 22.8648 26.8142 22.9631 26.7517 23.0435ZM29.9322 22.6055H29.9143L29.4585 24.3217H30.3881L29.9322 22.6055Z" fill="#110A1D"/>
    <path d="M33.2407 23.2849H33.2675L34.8764 26.0201H36.0206V21.3899H34.8854V23.9731H34.8585L33.3569 21.3899H32.1055V26.0201H33.2407V23.2849Z" fill="#110A1D"/>
    <path d="M42.8219 23.1061H41.061V22.4178H43.3582V21.3899H39.9258V26.0201H41.061V24.134H42.8219V23.1061Z" fill="#110A1D"/>
    <path d="M43.4482 21.3899H46.8806V22.4178H44.5834V23.0435H46.5946V24.0715H44.5834V25.0011H46.9432V26.029H43.4482V21.3899Z" fill="#110A1D"/>
    <path fill-rule="evenodd" clip-rule="evenodd" d="M50.1708 21.4882C50.0278 21.4256 49.8579 21.3899 49.697 21.3899H47.0244V26.0201H48.1596V24.134H49.0713L49.7685 26.0201H50.9753L50.135 23.9731C50.3585 23.8659 50.5462 23.705 50.6803 23.4905C50.8144 23.258 50.8859 22.9988 50.8769 22.7307C50.8769 22.5519 50.8501 22.3731 50.7875 22.2033C50.7339 22.0424 50.6535 21.8994 50.5462 21.7743C50.4479 21.6491 50.3138 21.5508 50.1708 21.4882ZM49.6345 23.0435C49.5719 23.1329 49.4646 23.1776 49.3574 23.1687H48.1686V22.3553H49.3574C49.4199 22.3463 49.4736 22.3642 49.5272 22.391C49.5719 22.4178 49.6166 22.4536 49.6434 22.4893C49.6702 22.534 49.697 22.5787 49.706 22.6234C49.7149 22.6681 49.7239 22.7217 49.7239 22.7664C49.7239 22.8648 49.697 22.9631 49.6345 23.0435Z" fill="#110A1D"/>
    <path fill-rule="evenodd" clip-rule="evenodd" d="M32.2748 14.7038C31.9262 14.4536 31.4614 14.3284 30.8625 14.3284V14.3105H27.582V20.4335H30.8535C31.1217 20.4335 31.3988 20.3977 31.658 20.3173C31.9083 20.2457 32.1407 20.1295 32.3463 19.9686C32.5429 19.8167 32.7128 19.62 32.82 19.3876C32.9362 19.1374 32.9988 18.8603 32.9899 18.5742C32.9988 18.3865 32.972 18.1899 32.9183 18.0111C32.8737 17.8592 32.8111 17.7161 32.7217 17.5821C32.5787 17.3586 32.382 17.1888 32.1496 17.0815V17.0457C32.3552 16.9474 32.525 16.7776 32.6234 16.572C32.7396 16.3485 32.7932 16.0983 32.7932 15.848C32.7843 15.3385 32.6144 14.9541 32.2748 14.7038ZM30.5943 16.5809H29.1552V15.5619H30.5943C30.7642 15.5441 30.9429 15.5977 31.077 15.7139C31.1664 15.8122 31.2111 15.9374 31.2111 16.0625C31.22 16.1966 31.1664 16.3307 31.077 16.429C30.9429 16.5452 30.7731 16.5988 30.5943 16.5809ZM30.6122 19.2089H29.1552V17.8145H30.6122C30.8178 17.8055 31.0234 17.8681 31.1932 17.9932C31.3452 18.1273 31.4256 18.324 31.4077 18.5295C31.4167 18.7173 31.3541 18.8871 31.229 19.0212C31.0591 19.1642 30.8357 19.2267 30.6122 19.2089Z" fill="#110A1D"/>
    <path fill-rule="evenodd" clip-rule="evenodd" d="M32.8203 20.4512H34.4829L34.7868 19.3876H36.7622L37.0572 20.4512H38.8091L36.5924 14.3373H34.9834L32.8203 20.4512ZM35.7432 15.9373H35.779L36.4047 18.2077H35.1086L35.7432 15.9373Z" fill="#110A1D"/>
    <path d="M40.6509 16.8312H40.6152V20.4513H39.042V14.3284H40.785L42.8677 17.7429H42.9034V14.3284H44.4766V20.4513H42.8945L40.6509 16.8312Z" fill="#110A1D"/>
    <path d="M46.6661 16.4736V14.3284H45.084V20.4513H46.6572V18.1719L47.113 17.734L48.9186 20.4513H50.894L48.284 16.6613L50.751 14.3284H48.6773L46.6661 16.4736Z" fill="#110A1D"/>
    <path d="M26.9737 14.3281H20.7793V15.5706H26.9737V14.3281Z" fill="#110A1D"/>
    <path d="M26.9737 16.6611H20.7793V17.9036H26.9737V16.6611Z" fill="#110A1D"/>
    <path d="M20.7793 19.2177H26.9737V20.4601H20.7793V19.2177Z" fill="#110A1D"/>
    <rect x="0.5" y="0.5" width="71" height="39" rx="15.5" stroke="url(#paint0_linear_1429_7798)"/>
    <defs>
        <linearGradient id="paint0_linear_1429_7798" x1="0" y1="0" x2="74.8062" y2="33.7869" gradientUnits="userSpaceOnUse">
            <stop stop-color="white" stop-opacity="0.24"/>
            <stop offset="1" stop-color="white" stop-opacity="0.14"/>
        </linearGradient>
    </defs>
</svg>
