<svg width="37" height="24" viewBox="0 0 37 24" fill="none" xmlns="http://www.w3.org/2000/svg">
    <path d="M2.47598 0H33.5285C34.8961 0 36.0045 1.10838 36.0045 2.47598V21.524C36.0045 22.8916 34.8961 24 33.5285 24H2.47598C1.10838 24 0 22.8916 0 21.524V2.47598C0 1.10838 1.10838 0 2.47598 0Z" fill="#F2F2F2"/>
    <path d="M19.9605 18.1363C19.7102 18.1452 19.4599 18.1095 19.2186 18.038C19.0219 17.9754 18.8432 17.886 18.6823 17.7698C18.5393 17.6536 18.4141 17.5195 18.3247 17.3497C18.2353 17.1799 18.1638 17.0011 18.1191 16.8223L19.2007 16.3843C19.2096 16.6167 19.299 16.8313 19.4599 16.9921C19.6298 17.1352 19.8443 17.2067 20.0588 17.1977C20.1214 17.1977 20.1839 17.1888 20.2465 17.1799C20.3091 17.1709 20.3627 17.153 20.4163 17.1173C20.47 17.0905 20.5057 17.0458 20.5415 16.9921C20.5772 16.9385 20.5951 16.867 20.5951 16.8044C20.5951 16.7419 20.5862 16.6793 20.5683 16.6167C20.5415 16.5542 20.5057 16.5005 20.461 16.4648C20.3985 16.4111 20.327 16.3664 20.2465 16.3307C20.1303 16.2771 20.0141 16.2413 19.8979 16.2056C19.6477 16.1341 19.4063 16.0447 19.1739 15.9463C18.9862 15.8659 18.8163 15.7586 18.6555 15.6245C18.5214 15.5083 18.4141 15.3653 18.3426 15.2044C18.2711 15.0257 18.2353 14.838 18.2353 14.6502C18.2353 14.4447 18.28 14.2391 18.3694 14.0603C18.4588 13.8905 18.5839 13.7385 18.7448 13.6223C18.9147 13.4972 19.1024 13.4078 19.308 13.3542C19.5404 13.2916 19.7817 13.2648 20.0231 13.2648C20.2376 13.2648 20.461 13.2826 20.6666 13.3363C20.8365 13.381 20.9974 13.4525 21.1404 13.5508C21.2745 13.6402 21.3906 13.7564 21.48 13.8905C21.5784 14.0424 21.6499 14.1944 21.7124 14.3642L20.7381 14.7933C20.7024 14.6145 20.613 14.4536 20.4879 14.3285C20.2197 14.1497 19.88 14.1407 19.6029 14.3016C19.5225 14.3642 19.4778 14.4536 19.4689 14.5519C19.4689 14.6145 19.4778 14.6681 19.5046 14.7218C19.5314 14.7754 19.5761 14.829 19.6298 14.8648C19.7013 14.9184 19.7817 14.9631 19.8711 14.9899C20.0052 15.0435 20.1303 15.0793 20.2644 15.1151C20.4788 15.1776 20.6935 15.2402 20.8812 15.3028C21.0599 15.3653 21.2298 15.4547 21.3817 15.5709C21.5247 15.6871 21.6409 15.8301 21.7214 15.991C21.8108 16.1966 21.8555 16.429 21.8465 16.6525C21.8555 16.8759 21.8018 17.0905 21.7035 17.2961C21.6052 17.4748 21.4711 17.6357 21.3013 17.7519C21.1225 17.8771 20.9169 17.9754 20.7024 18.029C20.4521 18.1095 20.2018 18.1452 19.9605 18.1363Z" fill="#110A1D"/>
    <path d="M6.08709 14.4179V13.39H2.80664V14.4179H3.87927V18.0202H5.01446V14.4179H6.08709Z" fill="#110A1D"/>
    <path fill-rule="evenodd" clip-rule="evenodd" d="M9.28797 13.4883C9.14495 13.4258 8.97512 13.39 8.81423 13.39H6.1416V18.0202H7.2768V16.1341H8.18853L8.88574 18.0202H10.9937L11.2082 17.2157H12.6294L12.8439 18.0202H14.1043L12.5132 13.39H11.3512L9.92936 17.6229L9.25222 15.9733C9.47568 15.866 9.66339 15.7051 9.79747 15.4906C9.93155 15.2582 10.0031 14.999 9.99412 14.7308C9.99412 14.552 9.9673 14.3733 9.90473 14.2034C9.8511 14.0425 9.77065 13.8995 9.66339 13.7744C9.56507 13.6492 9.43099 13.5509 9.28797 13.4883ZM8.75166 15.0436C8.68909 15.133 8.58183 15.1777 8.47456 15.1688H7.28574V14.3554H8.47456C8.53713 14.3464 8.59076 14.3643 8.64439 14.3911C8.68909 14.4179 8.73378 14.4537 8.7606 14.4895C8.78741 14.5341 8.81423 14.5788 8.82317 14.6235C8.8321 14.6682 8.84104 14.7219 8.84104 14.7666C8.84104 14.8649 8.81423 14.9632 8.75166 15.0436ZM11.9322 14.6057H11.9143L11.4585 16.3219H12.3881L11.9322 14.6057Z" fill="#110A1D"/>
    <path d="M15.2407 15.285H15.2675L16.8764 18.0202H18.0206V13.39H16.8854V15.9733H16.8585L15.3569 13.39H14.1055V18.0202H15.2407V15.285Z" fill="#110A1D"/>
    <path d="M24.8219 15.1062H23.061V14.4179H25.3582V13.39H21.9258V18.0202H23.061V16.1341H24.8219V15.1062Z" fill="#110A1D"/>
    <path d="M25.4482 13.39H28.8806V14.4179H26.5834V15.0436H28.5946V16.0716H26.5834V17.0012H28.9432V18.0291H25.4482V13.39Z" fill="#110A1D"/>
    <path fill-rule="evenodd" clip-rule="evenodd" d="M32.1708 13.4883C32.0278 13.4258 31.8579 13.39 31.697 13.39H29.0244V18.0202H30.1596V16.1341H31.0713L31.7685 18.0202H32.9753L32.135 15.9733C32.3585 15.866 32.5462 15.7051 32.6803 15.4906C32.8144 15.2582 32.8859 14.999 32.8769 14.7308C32.8769 14.552 32.8501 14.3733 32.7875 14.2034C32.7339 14.0425 32.6535 13.8995 32.5462 13.7744C32.4479 13.6492 32.3138 13.5509 32.1708 13.4883ZM31.6345 15.0436C31.5719 15.133 31.4646 15.1777 31.3574 15.1688H30.1686V14.3554H31.3574C31.4199 14.3464 31.4736 14.3643 31.5272 14.3911C31.5719 14.4179 31.6166 14.4537 31.6434 14.4895C31.6702 14.5341 31.697 14.5788 31.706 14.6235C31.7149 14.6682 31.7239 14.7219 31.7239 14.7666C31.7239 14.8649 31.697 14.9632 31.6345 15.0436Z" fill="#110A1D"/>
    <path fill-rule="evenodd" clip-rule="evenodd" d="M14.2748 6.70397C13.9262 6.45369 13.4614 6.32855 12.8625 6.32855V6.31067H9.58203V12.4336H12.8535C13.1217 12.4336 13.3988 12.3978 13.658 12.3174C13.9083 12.2459 14.1407 12.1297 14.3463 11.9688C14.5429 11.8168 14.7128 11.6202 14.82 11.3878C14.9362 11.1375 14.9988 10.8604 14.9899 10.5744C14.9988 10.3866 14.972 10.19 14.9183 10.0112C14.8737 9.85927 14.8111 9.71626 14.7217 9.58218C14.5787 9.35871 14.382 9.18888 14.1496 9.08162V9.04587C14.3552 8.94754 14.525 8.77771 14.6234 8.57212C14.7396 8.34866 14.7932 8.09838 14.7932 7.8481C14.7843 7.3386 14.6144 6.95425 14.2748 6.70397ZM12.5943 8.58106H11.1552V7.56207H12.5943C12.7642 7.54419 12.9429 7.59782 13.077 7.71402C13.1664 7.81234 13.2111 7.93749 13.2111 8.06262C13.22 8.1967 13.1664 8.33078 13.077 8.4291C12.9429 8.54531 12.7731 8.59894 12.5943 8.58106ZM12.6122 11.209H11.1552V9.81458H12.6122C12.8178 9.80564 13.0234 9.86821 13.1932 9.99335C13.3452 10.1274 13.4256 10.3241 13.4077 10.5297C13.4167 10.7174 13.3541 10.8872 13.229 11.0213C13.0591 11.1643 12.8357 11.2269 12.6122 11.209Z" fill="#110A1D"/>
    <path fill-rule="evenodd" clip-rule="evenodd" d="M14.8203 12.4514H16.4829L16.7868 11.3877H18.7622L19.0572 12.4514H20.8091L18.5924 6.3374H16.9834L14.8203 12.4514ZM17.7432 7.9374H17.779L18.4047 10.2078H17.1086L17.7432 7.9374Z" fill="#110A1D"/>
    <path d="M22.6509 8.83128H22.6152V12.4514H21.042V6.32849H22.785L24.8677 9.74302H24.9034V6.32849H26.4766V12.4514H24.8945L22.6509 8.83128Z" fill="#110A1D"/>
    <path d="M28.6661 8.47374V6.32849H27.084V12.4514H28.6572V10.1721L29.113 9.73408L30.9186 12.4514H32.894L30.284 8.66145L32.751 6.32849H30.6773L28.6661 8.47374Z" fill="#110A1D"/>
    <path d="M8.97371 6.32849H2.7793V7.57095H8.97371V6.32849Z" fill="#110A1D"/>
    <path d="M8.97371 8.6615H2.7793V9.90396H8.97371V8.6615Z" fill="#110A1D"/>
    <path d="M2.7793 11.218H8.97371V12.4605H2.7793V11.218Z" fill="#110A1D"/>
</svg>
