<svg width="50" height="8" viewBox="0 0 50 8" fill="none" xmlns="http://www.w3.org/2000/svg">
<path d="M17.9673 2.2344C17.6444 2.22838 17.3254 2.30596 17.0413 2.45959C16.7733 2.59536 16.5542 2.8111 16.4142 3.07693H16.3579C16.3871 2.71196 16.4142 2.40329 16.4142 2.09462V0.130005H15.3193V7.70116H16.4142V5.04155C16.4142 4.36791 16.5268 3.89035 16.752 3.58168C16.8756 3.43732 17.0313 3.324 17.2066 3.25083C17.3819 3.17766 17.572 3.14669 17.7615 3.16041C17.9027 3.15275 18.0438 3.17646 18.1747 3.22983C18.3056 3.2832 18.4231 3.36491 18.5186 3.46908C18.7106 3.73798 18.8027 4.06553 18.7788 4.39509V7.70699H19.8737V4.22619C19.8387 2.90804 19.2214 2.2344 17.9673 2.2344Z" fill="#00A1E3"/>
<path d="M36.8244 2.23438C36.0479 2.23438 35.45 2.48675 35.0287 2.96431C34.6074 3.44188 34.3822 4.14269 34.3822 5.01241C34.3746 5.52455 34.4793 6.03213 34.689 6.49946C34.8659 6.9034 35.1592 7.24541 35.5315 7.48177C35.9116 7.71171 36.3492 7.82885 36.7933 7.81956C37.1271 7.83506 37.4602 7.7778 37.7696 7.65176C38.079 7.52572 38.3573 7.33391 38.5852 7.08962C39.0045 6.58488 39.2297 5.91124 39.2297 5.01241C39.2297 4.16987 39.0045 3.49623 38.5852 2.99149C38.1659 2.48675 37.5757 2.23438 36.8244 2.23438ZM36.8244 6.89355C35.9547 6.89355 35.5043 6.27621 35.5043 5.01241C35.4831 4.53496 35.5897 4.0605 35.813 3.63795C36.0071 3.32928 36.3468 3.16039 36.8244 3.16039C37.6941 3.16039 38.1426 3.77773 38.1426 5.01241C38.1426 6.24709 37.6883 6.89355 36.8244 6.89355Z" fill="#00A1E3"/>
<path d="M9.39873 2.68282C9.06094 2.37415 8.58532 2.23437 7.91168 2.23437C7.59945 2.23184 7.2882 2.26968 6.98567 2.34697C6.66559 2.42451 6.35504 2.53715 6.05966 2.68282L6.42463 3.50594C6.65354 3.39678 6.88963 3.30337 7.13127 3.22639C7.37591 3.14822 7.63159 3.1102 7.88838 3.11379C8.01732 3.1043 8.14679 3.12261 8.26803 3.16749C8.38927 3.21237 8.49946 3.28277 8.59114 3.37393C8.75252 3.59945 8.83136 3.87366 8.8144 4.15046V4.43001L7.9078 4.45913C7.09244 4.47466 6.51005 4.61832 6.12178 4.92699C5.92615 5.07112 5.77017 5.2624 5.66834 5.48303C5.56651 5.70366 5.52215 5.94646 5.53938 6.18885C5.52335 6.40929 5.55301 6.63066 5.6265 6.83911C5.7 7.04756 5.81574 7.23859 5.96648 7.40023C6.12412 7.5466 6.30986 7.65942 6.51242 7.73183C6.71498 7.80425 6.93015 7.83475 7.14486 7.8215C7.47302 7.83403 7.79987 7.7737 8.10193 7.64484C8.40293 7.48553 8.65972 7.25408 8.84934 6.9712H8.87846L9.10365 7.72831H9.88018V4.08833C9.90348 3.46905 9.73458 2.98566 9.39873 2.68282ZM8.81634 5.62974C8.82907 5.81071 8.80234 5.99227 8.73798 6.16188C8.67362 6.33149 8.57318 6.48509 8.4436 6.61205C8.17968 6.8445 7.83593 6.96558 7.48459 6.94984C7.37387 6.96168 7.2619 6.95055 7.15568 6.91715C7.04945 6.88375 6.95127 6.82879 6.86725 6.75571C6.79667 6.68151 6.74281 6.59303 6.70933 6.49625C6.67584 6.39947 6.66349 6.29663 6.67312 6.19467C6.65783 6.0503 6.68405 5.90457 6.7487 5.77459C6.81335 5.64461 6.91374 5.53577 7.03809 5.46085C7.26134 5.2939 7.65543 5.20848 8.16017 5.1813L8.84352 5.1483C8.81831 5.3062 8.80662 5.46597 8.80857 5.62586L8.81634 5.62974Z" fill="#00A1E3"/>
<path d="M3.24848 1.50434C3.52527 1.50803 3.79975 1.5552 4.0619 1.64411C4.31459 1.73161 4.56161 1.83469 4.80154 1.95278L5.16068 0.943294C4.56007 0.637066 3.89343 0.483071 3.21936 0.494849C2.6195 0.479202 2.0276 0.634753 1.51294 0.943294C1.01932 1.25355 0.628296 1.70266 0.388914 2.23427C0.121915 2.8461 -0.0104949 3.50815 0.000649385 4.1756C0.000649385 5.35592 0.253021 6.25281 0.814063 6.89345C1.37511 7.53408 2.10504 7.83887 3.11647 7.83887C3.73755 7.84423 4.35468 7.73973 4.93937 7.5302V6.52071C4.65982 6.60419 4.37833 6.68767 4.09878 6.74397C3.82148 6.80042 3.53924 6.82904 3.25625 6.82938C2.58261 6.82938 2.07786 6.60613 1.74007 6.15575C1.37122 5.70536 1.17515 5.03366 1.17515 4.16201C1.17515 3.32141 1.36928 2.67495 1.73619 2.19739C1.91368 1.96846 2.14391 1.78586 2.40724 1.66518C2.67058 1.5445 2.9592 1.48932 3.24848 1.50434Z" fill="#00A1E3"/>
<path d="M13.9453 5.04148C13.6562 4.84694 13.3455 4.68668 13.0193 4.56392C12.6732 4.44741 12.3431 4.2876 12.037 4.08829C11.9692 4.04049 11.9136 3.9775 11.8745 3.90436C11.8354 3.83121 11.8139 3.74994 11.8118 3.66702C11.8118 3.33118 12.0933 3.16228 12.6815 3.16228C13.1689 3.18404 13.6466 3.30561 14.0851 3.51948L14.4501 2.64977C13.9146 2.39675 13.3301 2.26422 12.7378 2.26151C12.2229 2.23808 11.7132 2.37364 11.278 2.64977C11.106 2.76705 10.9668 2.92636 10.8737 3.11255C10.7806 3.29875 10.7367 3.50565 10.746 3.71362C10.7307 4.04986 10.8407 4.37984 11.0547 4.63963C11.2488 4.892 11.6721 5.11719 12.2603 5.36956C12.5039 5.45806 12.737 5.5733 12.9553 5.71318C13.091 5.7872 13.2142 5.8822 13.3202 5.99467C13.4001 6.08844 13.4405 6.20953 13.4328 6.33246C13.4328 6.75179 13.095 6.97698 12.4214 6.97698C11.8321 6.96788 11.254 6.81386 10.7383 6.52853V7.51084C11.2546 7.7555 11.8236 7.86823 12.3942 7.83893C13.0679 7.83893 13.5998 7.69915 13.9648 7.41766C14.1484 7.27762 14.2954 7.09514 14.3931 6.88586C14.4909 6.67657 14.5364 6.44671 14.5258 6.21598C14.5254 5.98428 14.4778 5.75509 14.386 5.54234C14.2763 5.34603 14.1261 5.1753 13.9453 5.04148Z" fill="#00A1E3"/>
<path d="M43.4118 2.0946C43.4189 2.40487 43.4475 2.71427 43.4972 3.02061H43.4332C43.2645 2.76703 43.0324 2.56197 42.7599 2.42576C42.4875 2.28955 42.1842 2.22691 41.8801 2.24408C41.5876 2.23464 41.2971 2.29609 41.0334 2.42319C40.7698 2.55029 40.5407 2.73927 40.3659 2.97401C40.0009 3.45158 39.832 4.1524 39.832 5.05123C39.832 5.95006 40.0009 6.62176 40.3659 7.09933C40.5404 7.33443 40.7693 7.52368 41.0331 7.65082C41.2968 7.77796 41.5875 7.83919 41.8801 7.82926C42.1876 7.84035 42.4926 7.77096 42.765 7.62795C43.0374 7.48495 43.2677 7.27328 43.4332 7.01391H43.4895L43.6836 7.71667H44.5242V0.145508H43.4332L43.4041 2.11013L43.4118 2.0946ZM43.4681 5.20071C43.4681 5.78311 43.3555 6.23932 43.1595 6.49169C43.0366 6.62754 42.884 6.73323 42.7137 6.80057C42.5433 6.86791 42.3597 6.89507 42.1771 6.87995C42.0016 6.887 41.8272 6.84808 41.6712 6.76704C41.5153 6.68601 41.3832 6.56566 41.288 6.41792C41.0583 5.99779 40.9513 5.5215 40.9794 5.04346C40.9562 4.55654 41.0628 4.07219 41.288 3.63989C41.3779 3.48396 41.5099 3.35648 41.6689 3.27202C41.8278 3.18757 42.0073 3.14955 42.1869 3.16232C42.6347 3.16232 42.9621 3.30275 43.1692 3.58359C43.3749 3.86508 43.4778 4.34071 43.4778 5.04346L43.4681 5.20071Z" fill="#00A1E3"/>
<path d="M49.954 4.67074C49.954 3.91168 49.7599 3.32346 49.3716 2.87307C49.1659 2.65836 48.9169 2.48985 48.6411 2.37872C48.3653 2.2676 48.0691 2.21641 47.772 2.22856C47.042 2.22856 46.4519 2.48093 46.0597 2.98567C45.6676 3.49042 45.4424 4.19317 45.4424 5.06289C45.4424 5.9326 45.6676 6.61594 46.116 7.0838C46.361 7.33036 46.655 7.52274 46.9791 7.64848C47.3031 7.77422 47.65 7.83052 47.9972 7.81374C48.308 7.81931 48.6186 7.79066 48.9232 7.72832C49.2058 7.67364 49.4795 7.58022 49.7366 7.45071V6.52858C49.4667 6.65917 49.1844 6.76257 48.8941 6.83725C48.6171 6.89594 48.3346 6.92394 48.0515 6.92073C47.8539 6.93238 47.6561 6.90071 47.472 6.82794C47.288 6.75518 47.122 6.64307 46.9857 6.49946C46.7077 6.16162 46.5688 5.73051 46.5975 5.2939H50.0006L49.954 4.67074ZM46.5315 4.44555C46.5374 4.07781 46.6658 3.72255 46.8964 3.43606C47.1177 3.21966 47.4149 3.09849 47.7244 3.09849C48.0339 3.09849 48.3311 3.21966 48.5524 3.43606C48.7735 3.72439 48.8831 4.08286 48.861 4.44555H46.5315Z" fill="#00A1E3"/>
<path d="M25.8162 2.31781C25.5031 2.30696 25.1915 2.36697 24.9048 2.49336C24.618 2.61975 24.3635 2.80926 24.1603 3.04775C23.739 3.52531 23.5779 4.19895 23.5779 5.06867C23.5619 5.57017 23.6581 6.06892 23.8594 6.52854C24.0124 6.91954 24.2839 7.25285 24.6359 7.48173C25.0793 7.75837 25.6055 7.871 26.1233 7.80007C26.641 7.72915 27.1176 7.47914 27.4702 7.09347C27.8585 6.6159 28.0526 5.94226 28.0526 5.07255C28.0526 4.23002 27.8585 3.55638 27.4702 3.05163C27.2689 2.81114 27.0151 2.61996 26.7284 2.49276C26.4417 2.36556 26.1296 2.30571 25.8162 2.31781ZM27.1072 6.78285C26.8313 7.12473 26.431 7.34312 25.9942 7.39008C25.5574 7.43703 25.1199 7.30871 24.7776 7.03328C24.6847 6.9598 24.6007 6.87576 24.5272 6.78285C24.2185 6.36159 24.0787 5.80055 24.0787 5.07061C24.0787 4.34067 24.2185 3.77963 24.5272 3.35836C24.6798 3.16479 24.8768 3.01081 25.1015 2.90944C25.3262 2.80807 25.572 2.76229 25.8182 2.77596C26.0691 2.76156 26.3196 2.81056 26.5465 2.91845C26.7735 3.02634 26.9697 3.18965 27.1169 3.3933C27.4256 3.78157 27.5654 4.37561 27.5654 5.10361C27.6116 5.6975 27.4533 6.28933 27.1169 6.78091L27.1072 6.78285Z" fill="#00A1E3"/>
<path d="M32.0191 1.50448C32.2959 1.50817 32.5704 1.55534 32.8325 1.64425C33.082 1.73178 33.3258 1.83487 33.5624 1.95292L33.9507 0.970614C33.3501 0.664386 32.6834 0.510392 32.0094 0.522169C31.407 0.500264 30.8115 0.656232 30.2971 0.970614C29.8041 1.28099 29.4137 1.73011 29.175 2.26159C28.908 2.87341 28.7756 3.53547 28.7868 4.20292C28.7868 5.3813 29.0392 6.28013 29.6021 6.92077C30.1341 7.56723 30.8931 7.8759 31.9026 7.8759C32.5243 7.88145 33.1421 7.77694 33.7274 7.56723V6.5558C33.446 6.64122 33.1664 6.72469 32.8849 6.78099C32.6076 6.83681 32.3253 6.86477 32.0424 6.86447C31.3687 6.86447 30.864 6.64122 30.5281 6.19083C30.1923 5.74044 29.9943 5.06875 29.9943 4.19903C29.9943 3.32932 30.1884 2.71198 30.5553 2.23442C30.7145 1.99574 30.9334 1.80283 31.1901 1.67479C31.4469 1.54676 31.7326 1.48805 32.0191 1.50448Z" fill="#00A1E3"/>
<path d="M21.7472 7.11686C21.5928 6.84458 21.5251 6.53171 21.5531 6.21997V2.85177H23.0498V2.43051H21.5628V1.13953H21.3356L21.0833 2.3412L20.3223 2.56446V2.84595H21.0813V6.28597C21.0813 6.81789 21.1939 7.21198 21.39 7.46435C21.5861 7.71673 21.9219 7.82932 22.3723 7.82932C22.6357 7.83661 22.8984 7.79853 23.1488 7.71673V7.32846C22.9 7.38613 22.6452 7.41415 22.3898 7.41194C22.2665 7.42086 22.1429 7.39848 22.0306 7.3469C21.9183 7.29531 21.8208 7.21618 21.7472 7.11686Z" fill="#00A1E3"/>
</svg>
