<svg width="65" height="32" viewBox="0 0 65 32" fill="none" xmlns="http://www.w3.org/2000/svg">
<rect x="0.5" y="0.5" width="63.5" height="31" rx="11.5" fill="#110A1D"/>
<path fill-rule="evenodd" clip-rule="evenodd" d="M31.0708 12.9129V17.8372L31.0703 17.8454C31.0703 18.0617 31.14 18.2281 31.2772 18.3451C31.4143 18.4621 31.5859 18.5193 31.791 18.5193C31.9948 18.5193 32.1664 18.4625 32.3044 18.3451C32.4412 18.2294 32.5104 18.0617 32.5104 17.8394V16.4085H33.5756C34.2345 16.4085 34.7995 16.2213 35.2706 15.8487C35.7408 15.4743 35.9759 14.9681 35.9759 14.332C35.9759 13.7067 35.7421 13.2014 35.2754 12.8158C34.8075 12.4301 34.2217 12.2351 33.5187 12.2295L31.8201 12.2377C31.5824 12.2377 31.3985 12.3001 31.2679 12.4258C31.1365 12.5519 31.0708 12.714 31.0708 12.9129ZM33.4896 15.2429H32.5108V13.386L33.4896 13.3938C33.7908 13.3938 34.0308 13.4835 34.2094 13.6612C34.3885 13.8397 34.478 14.0612 34.478 14.3233C34.478 14.5868 34.3885 14.8061 34.2094 14.9846C34.0308 15.164 33.7908 15.2494 33.4896 15.2429Z" fill="url(#paint0_radial_1429_8345)"/>
<path fill-rule="evenodd" clip-rule="evenodd" d="M40.8514 14.5695L40.8509 14.5795V14.4473C40.8509 14.4005 40.8492 14.3511 40.8417 14.2987C40.8236 14.1635 40.7693 14.0387 40.6833 13.9256C40.5973 13.8116 40.4324 13.754 40.1893 13.754C40.0235 13.754 39.8757 13.8047 39.7487 13.9052C39.6195 14.0066 39.5463 14.1336 39.5268 14.2883C39.3742 14.0868 39.1793 13.9386 38.9464 13.8437C38.7144 13.7488 38.4678 13.7007 38.2129 13.7007C37.5787 13.7007 37.0397 13.9364 36.5951 14.404C36.1505 14.8711 35.9286 15.4552 35.9286 16.1503C35.9286 16.8583 36.1478 17.4394 36.5867 17.8927C37.0238 18.3464 37.5663 18.5739 38.2129 18.5739C38.4749 18.5739 38.7148 18.5254 38.9314 18.4283C39.1493 18.3321 39.3482 18.1869 39.5273 17.9945C39.5793 18.1583 39.6517 18.2879 39.7491 18.3798C39.8444 18.4747 39.9922 18.5202 40.1898 18.5202C40.4328 18.5202 40.5978 18.4647 40.6838 18.3538C40.7698 18.2428 40.824 18.1198 40.8421 17.9854C40.8492 17.9317 40.8514 17.8819 40.8514 17.8359V14.5695ZM37.31 16.2291V16.1455L37.3096 16.1546C37.3096 16.1259 37.312 16.0964 37.3146 16.0657L37.3149 16.0619C37.3175 16.0307 37.3202 15.996 37.3202 15.9609C37.3515 15.687 37.4556 15.4357 37.632 15.2082C37.8084 14.9803 38.0647 14.8663 38.4043 14.8663C38.7307 14.8663 38.9799 14.9803 39.1524 15.2082C39.3253 15.4357 39.428 15.687 39.4598 15.9609C39.4598 15.996 39.4616 16.0307 39.4647 16.0619C39.4677 16.0939 39.4704 16.1247 39.4704 16.1546V16.2291C39.4704 16.2551 39.4664 16.2829 39.4602 16.3115C39.4338 16.5862 39.3359 16.8414 39.1625 17.0737C38.9892 17.3077 38.7369 17.4251 38.4043 17.4251C38.0594 17.4251 37.7987 17.3077 37.6228 17.0737C37.4468 16.8414 37.3458 16.5862 37.3202 16.3115C37.3131 16.2829 37.31 16.2556 37.31 16.2291Z" fill="url(#paint1_radial_1429_8345)"/>
<path d="M41.0526 14.6146C41.0337 14.5734 41.0187 14.5257 41.0094 14.4742C41.0001 14.4213 40.9953 14.3624 40.9953 14.2991C40.9953 14.1687 41.0438 14.0569 41.1439 13.9642C41.2436 13.8706 41.3561 13.8064 41.4853 13.7713C41.5109 13.7661 41.536 13.7618 41.5616 13.7579L41.5738 13.757C41.5954 13.7555 41.6173 13.754 41.6388 13.754C41.8055 13.754 41.9467 13.793 42.0658 13.8727C42.184 13.9516 42.2717 14.0612 42.33 14.2012L43.2791 16.5676L44.298 14.1921C44.354 14.0564 44.4436 13.9516 44.5613 13.8727C44.6804 13.793 44.8216 13.754 44.9883 13.754C45.0143 13.754 45.039 13.7557 45.0646 13.7579C45.091 13.7618 45.1162 13.7661 45.1418 13.7713C45.2692 13.8064 45.3852 13.8706 45.4876 13.9642C45.5401 14.0118 45.5794 14.0644 45.6052 14.122C45.6355 14.0593 45.6794 14.0055 45.7365 13.9606C45.8586 13.8635 46.0046 13.815 46.178 13.815L49.3148 13.8059C49.3409 13.8115 49.3713 13.8176 49.407 13.8232C49.4419 13.8297 49.4789 13.8379 49.5173 13.8488C49.5817 13.8735 49.6386 13.912 49.6898 13.9679C49.7414 14.023 49.7669 14.104 49.7669 14.2093C49.7669 14.2613 49.7625 14.3068 49.7519 14.3449C49.7436 14.3826 49.7325 14.419 49.7189 14.455C49.712 14.4651 49.704 14.4764 49.695 14.4889C49.6889 14.4974 49.6824 14.5065 49.6756 14.5161C49.6726 14.5204 49.6696 14.5247 49.6665 14.529C49.6532 14.5479 49.6395 14.5673 49.624 14.5867L47.4452 17.3631H49.2685C49.4419 17.37 49.5887 17.4207 49.7092 17.5173C49.8313 17.6135 49.8926 17.7492 49.8926 17.9238C49.8926 18.1002 49.8313 18.2341 49.7092 18.3272C49.5887 18.4217 49.4419 18.4676 49.2685 18.4676H46.0545C45.8997 18.4676 45.7678 18.4343 45.6549 18.3671C45.5433 18.3004 45.4873 18.1933 45.4873 18.0473C45.4873 17.9944 45.4952 17.9455 45.5115 17.8982C45.5278 17.851 45.5446 17.8111 45.5636 17.776C45.5772 17.7643 45.5865 17.7522 45.5927 17.7405C45.5944 17.7374 45.5962 17.7342 45.598 17.731C45.6025 17.7228 45.6072 17.7143 45.6125 17.7063L45.6121 17.6963L47.7799 14.91H46.178C46.0046 14.9165 45.8586 14.871 45.7365 14.7744C45.6712 14.7226 45.6233 14.6592 45.5929 14.5845C45.5871 14.5977 45.5808 14.6108 45.574 14.6237L43.2615 19.8791C43.2037 20.0139 43.1226 20.13 43.0163 20.2301C42.9108 20.3293 42.775 20.3792 42.6078 20.3792C42.3714 20.3792 42.1928 20.322 42.0711 20.2076C41.9498 20.094 41.8893 19.9697 41.8893 19.8353C41.8893 19.8184 41.8902 19.7972 41.8933 19.7742C41.896 19.75 41.8982 19.7296 41.8982 19.7131C41.9048 19.6711 41.9158 19.6312 41.9321 19.5901C41.9443 19.5577 41.9553 19.5256 41.9663 19.4936L41.9753 19.4674L42.5796 18.1011L41.0526 14.6146Z" fill="url(#paint2_radial_1429_8345)"/>
<path fill-rule="evenodd" clip-rule="evenodd" d="M21.2334 15.9603C21.2334 16.1887 21.1747 16.3464 21.0561 16.4344C20.9379 16.5215 20.7539 16.5665 20.5052 16.5665H17.7988C17.7988 16.8287 17.932 17.0302 18.2015 17.1706C18.4176 17.2807 18.6844 17.337 18.9972 17.337C19.2406 17.337 19.5331 17.2642 19.8753 17.1177C20.2185 16.9721 20.4372 16.8989 20.5334 16.8989C20.7067 16.8989 20.854 16.9574 20.9745 17.0735C21.0958 17.191 21.1579 17.3305 21.1579 17.4943C21.1579 17.8687 20.8505 18.1612 20.2357 18.3701C19.769 18.5282 19.2909 18.6067 18.8048 18.6067C18.0246 18.6067 17.3934 18.3701 16.9109 17.8973C16.4266 17.4245 16.1858 16.8287 16.1858 16.1098C16.1858 15.4256 16.4372 14.8415 16.9396 14.3544C17.4415 13.8652 18.0634 13.6221 18.8048 13.6221C19.4973 13.6221 20.0738 13.853 20.5378 14.3137C21.0018 14.7756 21.2334 15.3242 21.2334 15.9603ZM19.7267 15.6193C19.7201 15.4113 19.6142 15.2219 19.4122 15.0516C19.2071 14.8805 18.9919 14.796 18.7621 14.796C18.5261 14.796 18.3069 14.8805 18.104 15.0516C17.9002 15.2224 17.7983 15.4113 17.7983 15.6193H19.7267Z" fill="#1C437D"/>
<path d="M25.6678 17.6516C25.6678 17.9619 25.4464 18.2071 25.0062 18.3887C24.6538 18.5343 24.2829 18.6067 23.8925 18.6067C23.1366 18.6067 22.523 18.3592 22.0502 17.8626C21.5959 17.3886 21.3688 16.8053 21.3688 16.1098C21.3688 15.4148 21.5999 14.8267 22.0648 14.3444C22.5283 13.8634 23.1366 13.6221 23.893 13.6221C24.3274 13.6221 24.7023 13.6806 25.0155 13.7971C25.4508 13.9544 25.6683 14.2001 25.6683 14.5329C25.6683 14.7028 25.6109 14.8514 25.4958 14.9797C25.3816 15.1071 25.2334 15.173 25.0556 15.173C24.9343 15.173 24.7601 15.1357 24.5294 15.0625C24.3001 14.9901 24.1179 14.9537 23.9843 14.9537C23.627 14.9537 23.35 15.0694 23.152 15.3008C22.9672 15.5105 22.8746 15.7792 22.8746 16.1102C22.8746 16.4227 22.9579 16.6879 23.1233 16.9019C23.3086 17.1515 23.5657 17.2759 23.8983 17.2759C24.0456 17.2759 24.2454 17.2365 24.4999 17.1576C24.7553 17.0792 24.9405 17.0397 25.0556 17.0397C25.2202 17.0397 25.3653 17.1043 25.4857 17.2326C25.607 17.3604 25.6678 17.5012 25.6678 17.6516Z" fill="#1C437D"/>
<path fill-rule="evenodd" clip-rule="evenodd" d="M29.8998 17.8626C30.3532 17.389 30.5821 16.8053 30.5821 16.1098C30.5821 15.4148 30.3537 14.8311 29.8998 14.3579C29.4257 13.8665 28.8113 13.6221 28.0562 13.6221C27.3081 13.6221 26.6937 13.8669 26.2147 14.3579C25.7608 14.8311 25.5341 15.4148 25.5341 16.1098C25.5341 16.8053 25.7604 17.3886 26.2147 17.8626C26.6871 18.3592 27.3015 18.6067 28.0562 18.6067C28.8117 18.6067 29.4257 18.3592 29.8998 17.8626ZM28.8276 15.3186C28.9921 15.5326 29.075 15.7974 29.075 16.1098C29.075 16.4222 28.9917 16.69 28.8276 16.9097C28.6437 17.155 28.387 17.2755 28.0566 17.2755C27.7276 17.2755 27.4709 17.1546 27.2874 16.9097C27.1224 16.6896 27.0399 16.4222 27.0399 16.1098C27.0399 15.7974 27.122 15.5326 27.2874 15.3186C27.4709 15.075 27.7276 14.9537 28.0566 14.9537C28.387 14.9537 28.6437 15.0746 28.8276 15.3186Z" fill="#1C437D"/>
<path d="M15.237 15.7785C15.2648 13.77 18.0673 12.1779 21.4975 12.2226C23.3685 12.2464 25.0357 12.753 26.1644 13.5343C25.0468 12.5562 23.1347 11.8976 20.955 11.8681C17.4763 11.8235 14.6341 13.4012 14.6076 15.3924C14.5974 16.1979 15.0478 16.9476 15.8174 17.5569C15.439 16.9957 15.2308 16.3864 15.237 15.7785Z" fill="url(#paint3_radial_1429_8345)"/>
<rect x="0.5" y="0.5" width="63.5" height="31" rx="11.5" stroke="url(#paint4_linear_1429_8345)"/>
<defs>
<radialGradient id="paint0_radial_1429_8345" cx="0" cy="0" r="1" gradientUnits="userSpaceOnUse" gradientTransform="translate(47.6895 16.1368) scale(2.28918 2.24902)">
<stop stop-color="#81C241"/>
<stop offset="1" stop-color="#8BC53F"/>
</radialGradient>
<radialGradient id="paint1_radial_1429_8345" cx="0" cy="0" r="1" gradientUnits="userSpaceOnUse" gradientTransform="translate(47.6895 16.1368) scale(2.28918 2.24902)">
<stop stop-color="#81C241"/>
<stop offset="1" stop-color="#8BC53F"/>
</radialGradient>
<radialGradient id="paint2_radial_1429_8345" cx="0" cy="0" r="1" gradientUnits="userSpaceOnUse" gradientTransform="translate(47.6895 16.1368) scale(2.28918 2.24902)">
<stop stop-color="#81C241"/>
<stop offset="1" stop-color="#8BC53F"/>
</radialGradient>
<radialGradient id="paint3_radial_1429_8345" cx="0" cy="0" r="1" gradientUnits="userSpaceOnUse" gradientTransform="translate(18.9717 13.7394) scale(7.9995 7.85916)">
<stop stop-color="#81C241"/>
<stop offset="1" stop-color="#8BC53F"/>
</radialGradient>
<linearGradient id="paint4_linear_1429_8345" x1="0" y1="0" x2="64.2496" y2="32.4951" gradientUnits="userSpaceOnUse">
<stop stop-color="white" stop-opacity="0.24"/>
<stop offset="1" stop-color="white" stop-opacity="0.14"/>
</linearGradient>
</defs>
</svg>
