<svg width="52" height="14" viewBox="0 0 52 14" fill="none" xmlns="http://www.w3.org/2000/svg">
<path fill-rule="evenodd" clip-rule="evenodd" d="M24.2624 2.36806V9.75459L24.2617 9.76694C24.2617 10.0913 24.3644 10.3409 24.5666 10.5164C24.7687 10.6919 25.0216 10.7777 25.3238 10.7777C25.6241 10.7777 25.877 10.6925 26.0804 10.5164C26.2819 10.3428 26.3839 10.0913 26.3839 9.75784V7.61156H27.9537C28.9248 7.61156 29.7574 7.33076 30.4516 6.77177C31.1445 6.21017 31.4909 5.45098 31.4909 4.49679C31.4909 3.55885 31.1465 2.80095 30.4588 2.22246C29.7691 1.64397 28.9059 1.35147 27.8698 1.34302L25.3667 1.35537C25.0164 1.35537 24.7453 1.44897 24.5529 1.63747C24.3592 1.82661 24.2624 2.06971 24.2624 2.36806ZM27.8269 5.86307H26.3846V3.07785L27.8269 3.08955C28.2709 3.08955 28.6245 3.2241 28.8877 3.4906C29.1516 3.75839 29.2836 4.09054 29.2836 4.48379C29.2836 4.87898 29.1516 5.20788 28.8877 5.47568C28.6245 5.74478 28.2709 5.87282 27.8269 5.86307Z" fill="url(#paint0_radial_1427_8322)"/>
<path fill-rule="evenodd" clip-rule="evenodd" d="M38.6759 4.85302L38.6753 4.86797V4.66972C38.6753 4.59952 38.6727 4.52542 38.6616 4.44677C38.635 4.24397 38.555 4.05677 38.4283 3.88713C38.3015 3.71618 38.0584 3.62973 37.7003 3.62973C37.4559 3.62973 37.2381 3.70578 37.0509 3.85658C36.8605 4.00867 36.7526 4.19912 36.724 4.43117C36.4991 4.12892 36.2118 3.90663 35.8686 3.76428C35.5267 3.62193 35.1633 3.54978 34.7876 3.54978C33.853 3.54978 33.0587 3.90338 32.4035 4.60472C31.7483 5.30541 31.4213 6.1816 31.4213 7.22419C31.4213 8.28628 31.7444 9.15793 32.3911 9.83782C33.0353 10.5184 33.8348 10.8596 34.7876 10.8596C35.1737 10.8596 35.5273 10.7868 35.8465 10.6412C36.1676 10.4969 36.4607 10.2792 36.7246 9.99057C36.8013 10.2363 36.9079 10.4306 37.0516 10.5684C37.192 10.7108 37.4097 10.779 37.7009 10.779C38.0591 10.779 38.3022 10.6958 38.4289 10.5294C38.5557 10.363 38.6356 10.1784 38.6623 9.97692C38.6727 9.89632 38.6759 9.82157 38.6759 9.75267V4.85302ZM33.4571 7.34249V7.21704L33.4565 7.23069C33.4565 7.18764 33.4601 7.14339 33.4638 7.09737L33.4643 7.09159C33.4682 7.0448 33.4721 6.9928 33.4721 6.94015C33.5182 6.52935 33.6716 6.15235 33.9316 5.81111C34.1916 5.46921 34.5692 5.29826 35.0697 5.29826C35.5507 5.29826 35.918 5.46921 36.1721 5.81111C36.4269 6.15235 36.5784 6.52935 36.6252 6.94015C36.6252 6.9928 36.6278 7.0448 36.6323 7.09159C36.6369 7.13969 36.6408 7.18584 36.6408 7.23069V7.34249C36.6408 7.38149 36.6349 7.42309 36.6258 7.46599C36.5868 7.87809 36.4425 8.26093 36.1871 8.60933C35.9316 8.96033 35.5598 9.13648 35.0697 9.13648C34.5614 9.13648 34.1773 8.96033 33.918 8.60933C33.6586 8.26093 33.5098 7.87809 33.4721 7.46599C33.4617 7.42309 33.4571 7.38214 33.4571 7.34249Z" fill="url(#paint1_radial_1427_8322)"/>
<path d="M38.9725 4.92064C38.9446 4.8589 38.9225 4.7874 38.9088 4.71005C38.8952 4.63075 38.888 4.54235 38.888 4.44745C38.888 4.2518 38.9595 4.0841 39.1071 3.945C39.254 3.80461 39.4197 3.70841 39.6102 3.65576C39.6479 3.64796 39.6849 3.64146 39.7226 3.63561L39.7406 3.63434C39.7724 3.63206 39.8046 3.62976 39.8363 3.62976C40.082 3.62976 40.29 3.68826 40.4655 3.80786C40.6397 3.92615 40.7691 4.0906 40.8549 4.30055L42.2537 7.85017L43.7552 4.2869C43.8377 4.08345 43.9697 3.92615 44.1432 3.80786C44.3187 3.68826 44.5267 3.62976 44.7724 3.62976C44.8108 3.62976 44.8471 3.63236 44.8848 3.63561C44.9238 3.64146 44.9609 3.64796 44.9986 3.65576C45.1864 3.70841 45.3574 3.80461 45.5082 3.945C45.5856 4.01642 45.6435 4.09537 45.6815 4.18178C45.7263 4.08771 45.7908 4.00698 45.875 3.93964C46.0551 3.79405 46.2702 3.72125 46.5256 3.72125L51.1484 3.7076C51.1867 3.71605 51.2316 3.72515 51.2843 3.7336C51.3356 3.74335 51.3902 3.7557 51.4467 3.77195C51.5416 3.809 51.6255 3.86684 51.7009 3.95069C51.7769 4.03324 51.8146 4.15479 51.8146 4.31274C51.8146 4.39074 51.8081 4.45899 51.7925 4.51619C51.7802 4.57274 51.7639 4.62734 51.7438 4.68129C51.7337 4.69638 51.7218 4.71332 51.7086 4.7321C51.6997 4.74486 51.6901 4.75847 51.6801 4.77294C51.6756 4.77934 51.6711 4.78579 51.6666 4.79228C51.647 4.82068 51.6268 4.84978 51.604 4.87888L48.3931 9.04339H51.0802C51.3356 9.05379 51.552 9.12984 51.7295 9.27479C51.9095 9.41909 51.9999 9.62254 51.9999 9.88449C51.9999 10.149 51.9095 10.3499 51.7295 10.4896C51.552 10.6313 51.3356 10.7002 51.0802 10.7002H46.3436C46.1155 10.7002 45.9211 10.6502 45.7548 10.5494C45.5903 10.4493 45.5078 10.2888 45.5078 10.0697C45.5078 9.99044 45.5195 9.91699 45.5435 9.84614C45.5676 9.77529 45.5923 9.71549 45.6202 9.66284C45.6404 9.64529 45.654 9.62709 45.6631 9.60954C45.6657 9.60491 45.6683 9.60013 45.6709 9.59526C45.6775 9.58303 45.6844 9.57028 45.6924 9.55819L45.6917 9.54324L48.8864 5.36378H46.5256C46.2702 5.37353 46.0551 5.30528 45.875 5.16033C45.7788 5.08264 45.7082 4.98763 45.6635 4.87548C45.6549 4.89532 45.6456 4.91493 45.6356 4.9343L42.2277 12.8174C42.1425 13.0196 42.0229 13.1938 41.8663 13.3439C41.7109 13.4928 41.5107 13.5675 41.2644 13.5675C40.916 13.5675 40.6527 13.4817 40.4733 13.3101C40.2946 13.1398 40.2055 12.9533 40.2055 12.7518C40.2055 12.7264 40.2068 12.6946 40.2114 12.6601C40.2153 12.6237 40.2185 12.5932 40.2185 12.5685C40.2283 12.5054 40.2445 12.4456 40.2686 12.3839C40.2865 12.3354 40.3027 12.2872 40.319 12.2392L40.3323 12.1999L41.2228 10.1505L38.9725 4.92064Z" fill="url(#paint2_radial_1427_8322)"/>
<path fill-rule="evenodd" clip-rule="evenodd" d="M9.7647 6.93998C9.7647 7.28253 9.67825 7.51913 9.5034 7.65108C9.32921 7.78173 9.05816 7.84932 8.69156 7.84932H4.7032C4.7032 8.24257 4.8995 8.54482 5.29664 8.75542C5.61514 8.92051 6.00839 9.00501 6.46923 9.00501C6.82803 9.00501 7.25898 8.89582 7.76337 8.67612C8.26907 8.45772 8.59146 8.34787 8.73316 8.34787C8.98861 8.34787 9.20571 8.43562 9.38315 8.60982C9.5619 8.78597 9.65355 8.99526 9.65355 9.24096C9.65355 9.80256 9.20051 10.2413 8.29442 10.5546C7.60672 10.7918 6.90213 10.9095 6.18584 10.9095C5.036 10.9095 4.10585 10.5546 3.39476 9.84546C2.68107 9.13631 2.32617 8.24257 2.32617 7.16423C2.32617 6.13789 2.69667 5.2617 3.43701 4.53111C4.1767 3.79726 5.0932 3.43262 6.18584 3.43262C7.20633 3.43262 8.05587 3.77906 8.73966 4.47001C9.42345 5.1629 9.7647 5.98579 9.7647 6.93998ZM7.54432 6.42844C7.53457 6.11644 7.37857 5.83239 7.08088 5.57695C6.77863 5.3202 6.46143 5.19345 6.12279 5.19345C5.77504 5.19345 5.45199 5.3202 5.153 5.57695C4.8527 5.83304 4.70255 6.11644 4.70255 6.42844H7.54432Z" fill="#1C437D"/>
<path d="M16.2997 9.47691C16.2997 9.9423 15.9734 10.3102 15.3247 10.5825C14.8054 10.8009 14.2587 10.9095 13.6835 10.9095C12.5694 10.9095 11.6653 10.5383 10.9685 9.79346C10.299 9.08236 9.96423 8.20747 9.96423 7.16423C9.96423 6.12164 10.3048 5.2396 10.9899 4.51616C11.6731 3.79466 12.5694 3.43262 13.6841 3.43262C14.3244 3.43262 14.8769 3.52037 15.3384 3.69522C15.9799 3.93116 16.3004 4.29971 16.3004 4.7989C16.3004 5.0537 16.2159 5.27665 16.0462 5.46905C15.8779 5.66015 15.6595 5.75894 15.3975 5.75894C15.2188 5.75894 14.962 5.70305 14.6221 5.5932C14.2841 5.48465 14.0156 5.43005 13.8187 5.43005C13.2922 5.43005 12.884 5.6036 12.5922 5.95069C12.3198 6.26529 12.1833 6.66829 12.1833 7.16488C12.1833 7.63353 12.3062 8.03132 12.5499 8.35242C12.8229 8.72682 13.2019 8.91337 13.6919 8.91337C13.909 8.91337 14.2035 8.85422 14.5785 8.73592C14.9549 8.61827 15.2279 8.55912 15.3975 8.55912C15.64 8.55912 15.8538 8.65597 16.0313 8.84837C16.21 9.04011 16.2997 9.25136 16.2997 9.47691Z" fill="#1C437D"/>
<path fill-rule="evenodd" clip-rule="evenodd" d="M22.5363 9.79346C23.2045 9.08301 23.5419 8.20747 23.5419 7.16423C23.5419 6.12164 23.2052 5.2461 22.5363 4.53631C21.8376 3.79921 20.9321 3.43262 19.8193 3.43262C18.7169 3.43262 17.8115 3.79986 17.1056 4.53631C16.4368 5.2461 16.1027 6.12164 16.1027 7.16423C16.1027 8.20747 16.4361 9.08236 17.1056 9.79346C17.8018 10.5383 18.7072 10.9095 19.8193 10.9095C20.9328 10.9095 21.8376 10.5383 22.5363 9.79346ZM20.9562 5.97734C21.1986 6.29844 21.3208 6.69559 21.3208 7.16423C21.3208 7.63288 21.198 8.03457 20.9562 8.36412C20.6851 8.73202 20.3068 8.91271 19.82 8.91271C19.3351 8.91271 18.9568 8.73137 18.6864 8.36412C18.4433 8.03392 18.3218 7.63288 18.3218 7.16423C18.3218 6.69559 18.4427 6.29844 18.6864 5.97734C18.9568 5.61205 19.3351 5.43005 19.82 5.43005C20.3068 5.43005 20.6851 5.6114 20.9562 5.97734Z" fill="#1C437D"/>
<path d="M0.927788 6.66698C0.968738 3.65426 5.0988 1.26618 10.1538 1.33313C12.9111 1.36888 15.368 2.12872 17.0314 3.30066C15.3843 1.83363 12.5666 0.845635 9.35431 0.801435C4.22781 0.734486 0.0392469 3.10111 0.000247295 6.08784C-0.0147026 7.29617 0.648941 8.42066 1.78318 9.33455C1.22549 8.49281 0.918689 7.57892 0.927788 6.66698Z" fill="url(#paint3_radial_1427_8322)"/>
<defs>
<radialGradient id="paint0_radial_1427_8322" cx="0" cy="0" r="1" gradientUnits="userSpaceOnUse" gradientTransform="translate(48.7531 7.20404) scale(3.37353)">
<stop stop-color="#81C241"/>
<stop offset="1" stop-color="#8BC53F"/>
</radialGradient>
<radialGradient id="paint1_radial_1427_8322" cx="0" cy="0" r="1" gradientUnits="userSpaceOnUse" gradientTransform="translate(48.7531 7.20404) scale(3.37353)">
<stop stop-color="#81C241"/>
<stop offset="1" stop-color="#8BC53F"/>
</radialGradient>
<radialGradient id="paint2_radial_1427_8322" cx="0" cy="0" r="1" gradientUnits="userSpaceOnUse" gradientTransform="translate(48.7531 7.20404) scale(3.37353)">
<stop stop-color="#81C241"/>
<stop offset="1" stop-color="#8BC53F"/>
</radialGradient>
<radialGradient id="paint3_radial_1427_8322" cx="0" cy="0" r="1" gradientUnits="userSpaceOnUse" gradientTransform="translate(6.43161 3.60843) scale(11.7887)">
<stop stop-color="#81C241"/>
<stop offset="1" stop-color="#8BC53F"/>
</radialGradient>
</defs>
</svg>
