<svg width="80" height="20" viewBox="0 0 80 20" fill="none" xmlns="http://www.w3.org/2000/svg">
<path d="M22.7264 11.0907C22.6262 9.90779 21.7156 8.82503 20.4607 8.82503C19.2058 8.82503 18.3171 9.90779 18.195 11.0907H22.7264ZM23.2396 11.3129C23.2365 11.4537 23.1207 11.5664 22.9798 11.5664H18.195C18.3171 12.7493 19.2058 13.832 20.4607 13.832C21.3181 13.832 21.9534 13.5066 22.4291 12.8212C22.4729 12.7493 22.5511 12.7023 22.6387 12.6992C22.7671 12.6961 22.8734 12.7962 22.8766 12.9245V12.937C22.8766 12.9808 22.8641 13.0215 22.839 13.0591C22.3571 13.8946 21.3964 14.3077 20.4576 14.3077C18.8491 14.3077 17.6943 12.8651 17.6943 11.3285C17.6943 9.79201 18.8428 8.34937 20.4576 8.34937C22.0786 8.34937 23.2333 9.77636 23.2396 11.3129Z" fill="#88AAF1"/>
<path d="M29.0537 8.46521C29.1851 8.46834 29.2884 8.57474 29.2915 8.70305C29.2947 8.83135 29.1945 8.93775 29.0662 8.94088H27.7675V13.9854C27.7675 14.1169 27.6611 14.2233 27.5297 14.2233C27.4014 14.2201 27.295 14.1137 27.2919 13.9854V8.94088H26.0589C25.9306 8.94401 25.8242 8.84387 25.821 8.71556V8.70305C25.821 8.57161 25.9274 8.46521 26.0589 8.46521H27.2919V6.62514C27.2919 6.49997 27.3826 6.39357 27.5078 6.37166C27.6361 6.35288 27.755 6.44364 27.7738 6.57507C27.7738 6.58759 27.7769 6.59698 27.7769 6.60949V8.46208L29.0537 8.46521Z" fill="#88AAF1"/>
<path d="M36.8832 10.903V13.9541C36.8801 14.0824 36.7737 14.1888 36.6454 14.192C36.5171 14.1951 36.4107 14.0949 36.4076 13.9666V10.903C36.4076 9.87029 35.8224 8.84699 34.677 8.84699C33.2062 8.84699 32.5709 10.13 32.6554 11.4506C32.6554 11.4882 32.6711 11.6384 32.6711 11.6603V13.9479C32.6711 14.073 32.5803 14.1794 32.4552 14.2013C32.3269 14.2201 32.2079 14.1262 32.1892 13.9979C32.1892 13.9854 32.186 13.9729 32.186 13.9635V3.92448C32.186 3.79304 32.2924 3.68665 32.4239 3.68665C32.5522 3.68977 32.6586 3.79617 32.6617 3.92448V9.59491C33.0716 8.8595 33.8102 8.36193 34.6676 8.36193C36.0821 8.36193 36.8832 9.59803 36.8832 10.903Z" fill="#88AAF1"/>
<path d="M44.9584 11.0906C44.8583 9.90773 43.9476 8.82497 42.6927 8.82497C41.4378 8.82497 40.5491 9.90773 40.4271 11.0906H44.9584ZM45.4779 11.3128C45.4747 11.4536 45.359 11.5663 45.2181 11.5663H40.4333C40.5554 12.7492 41.4441 13.832 42.699 13.832C43.5564 13.832 44.1917 13.5065 44.6674 12.8212C44.7112 12.7492 44.7894 12.7023 44.877 12.6991C45.0053 12.696 45.1117 12.7961 45.1149 12.9245V12.937C45.1149 12.9808 45.1023 13.0215 45.0773 13.059C44.5954 13.8946 43.6347 14.3076 42.6959 14.3076C41.0874 14.3076 39.9326 12.865 39.9326 11.3285C39.9326 9.79195 41.0811 8.3493 42.6959 8.3493C44.3012 8.3493 45.4685 9.7763 45.4779 11.3128Z" fill="#88AAF1"/>
<path d="M51.3579 8.6873C51.3673 8.82187 51.2672 8.93765 51.1358 8.94704C49.7275 9.15671 49.0954 10.3021 49.0954 11.6383V13.9259C49.0954 14.0511 49.0047 14.1575 48.8795 14.1794C48.7512 14.1981 48.6323 14.1043 48.6135 13.9759C48.6135 13.9634 48.6104 13.9509 48.6104 13.9415V8.72486C48.6104 8.59968 48.7011 8.49328 48.8263 8.47138C48.9546 8.45573 49.0735 8.54648 49.0923 8.67479C49.0923 8.6873 49.0954 8.69669 49.0954 8.70921V9.77007C49.4928 9.10038 50.2783 8.46512 51.1013 8.46512C51.2202 8.46512 51.3579 8.54961 51.3579 8.6873Z" fill="#88AAF1"/>
<path d="M58.7073 11.0907C58.6072 9.90779 57.6965 8.82503 56.4417 8.82503C55.1868 8.82503 54.298 9.90779 54.176 11.0907H58.7073ZM59.2205 11.3129C59.2174 11.4537 59.1016 11.5664 58.9608 11.5664H54.176C54.298 12.7493 55.1868 13.832 56.4417 13.832C57.2991 13.832 57.9344 13.5066 58.41 12.8212C58.4538 12.7493 58.5321 12.7023 58.6197 12.6992C58.748 12.6961 58.8544 12.7962 58.8575 12.9245V12.937C58.8575 12.9808 58.845 13.0215 58.82 13.0591C58.3381 13.8946 57.3773 14.3077 56.4385 14.3077C54.83 14.3077 53.6753 12.8651 53.6753 11.3285C53.6753 9.79201 54.8238 8.34937 56.4385 8.34937C58.0533 8.34937 59.2112 9.77636 59.2205 11.3129Z" fill="#88AAF1"/>
<path d="M66.9534 8.7468V13.9854C66.9503 14.1137 66.8439 14.2201 66.7156 14.2232C66.5873 14.2263 66.4809 14.1262 66.4777 13.9979V12.9871C66.0803 13.7726 65.3825 14.3421 64.4875 14.3421C63.0667 14.3421 62.2812 13.1092 62.2812 11.8042V8.73741C62.2812 8.60598 62.3877 8.49958 62.5191 8.49958C62.6474 8.50271 62.7538 8.60911 62.7569 8.73741V11.8042C62.7569 12.8369 63.3421 13.8602 64.4875 13.8602C66.096 13.8602 66.4777 12.3518 66.4777 10.687V8.73116C66.4809 8.59659 66.5904 8.49019 66.7218 8.49332C66.75 8.49332 66.775 8.49958 66.8032 8.50897C66.8939 8.54965 66.9534 8.64353 66.9534 8.7468Z" fill="#88AAF1"/>
<path d="M79.0687 10.881V13.9478C79.0656 14.0761 78.9592 14.1825 78.8309 14.1856C78.7026 14.1887 78.5962 14.0886 78.5931 13.9603V10.881C78.5931 9.8483 78.0079 8.84064 76.8625 8.84064C75.4199 8.84064 74.8722 10.3834 74.8722 11.582V13.9478C74.8691 14.0761 74.7627 14.1825 74.6344 14.1856C74.5061 14.1887 74.3997 14.0886 74.3966 13.9603V10.881C74.3966 9.8483 73.8114 8.84064 72.666 8.84064C71.2077 8.84064 70.61 9.98912 70.6601 11.5163C70.6601 11.5538 70.6757 11.6164 70.6601 11.6383V13.9415C70.6601 14.0667 70.5694 14.1731 70.4442 14.195C70.3159 14.2138 70.197 14.1199 70.1782 13.9916C70.1782 13.9791 70.175 13.9666 70.175 13.9572V8.72485C70.175 8.59968 70.2658 8.49328 70.391 8.47138C70.5193 8.45573 70.6382 8.54648 70.657 8.67478C70.657 8.6873 70.6601 8.69669 70.6601 8.70921V9.5823C71.07 8.8469 71.8086 8.36185 72.666 8.36185C73.6393 8.36185 74.3966 8.98146 74.7064 9.88272C75.1038 8.98772 75.8736 8.36185 76.8625 8.36185C78.2676 8.36185 79.0687 9.5823 79.0687 10.881Z" fill="#88AAF1"/>
<path d="M7.12976 19.6026V14.7051L1.07129 11.1627L7.12976 19.6026Z" fill="#F0CDC2" stroke="#1616B4" stroke-width="0.0976114" stroke-miterlimit="18.8679" stroke-linejoin="round"/>
<path d="M7.14844 19.6026V14.7051L13.21 11.1627L7.14844 19.6026Z" fill="#C9B3F5" stroke="#1616B4" stroke-width="0.0976114" stroke-miterlimit="18.8679" stroke-linejoin="round"/>
<path d="M7.13044 13.4878V7.23535L1 9.97981L7.13044 13.4878Z" fill="#88AAF1" stroke="#1616B4" stroke-width="0.0976114" stroke-miterlimit="18.8679" stroke-linejoin="round"/>
<path d="M7.14844 13.4878V7.23535L13.2789 9.97981L7.14844 13.4878Z" fill="#C9B3F5" stroke="#1616B4" stroke-width="0.0976114" stroke-miterlimit="18.8679" stroke-linejoin="round"/>
<path d="M1 9.97972L7.13044 0.0815125V7.23526L1 9.97972Z" fill="#F0CDC2" stroke="#1616B4" stroke-width="0.0976114" stroke-miterlimit="18.8679" stroke-linejoin="round"/>
<path d="M13.2789 9.97969L7.14844 0.0814819V7.23523L13.2789 9.97969Z" fill="#B8FAF6" stroke="#1616B4" stroke-width="0.0976114" stroke-miterlimit="18.8679" stroke-linejoin="round"/>
</svg>
