<svg width="56" height="12" viewBox="0 0 56 12" fill="none" xmlns="http://www.w3.org/2000/svg">
<path d="M22.0549 3.32544C22.0549 3.79211 21.9127 4.2478 21.6447 4.62662L19.583 7.53644H21.9674V8.4533H18.1064C18.1064 7.98663 18.2486 7.53095 18.5166 7.15212L20.5783 4.24231H18.1939V3.32544H22.0549Z" fill="white"/>
<path d="M35.5084 7.51448C35.667 8.16781 36.2194 8.53566 36.9686 8.53566C38.199 8.53566 38.8061 7.7231 38.8061 6.61957V3.32544H37.6084V6.69094C37.6084 7.22349 37.4225 7.58036 36.8647 7.58036C36.3287 7.58036 36.11 7.22349 36.11 6.69094V3.32544H34.9178V6.69094C34.9068 7.22349 34.6936 7.58036 34.1631 7.58036C33.6053 7.58036 33.4193 7.22349 33.4193 6.69094V3.32544H32.2217V6.61957C32.2217 7.7231 32.8287 8.53566 34.0592 8.53566C34.8029 8.53566 35.3608 8.16781 35.5084 7.51448Z" fill="white"/>
<path d="M54.9004 5.13172V6.76232C54.9004 6.97094 54.9332 7.15212 55.0098 7.28938L55.0152 7.30585C55.0426 7.34977 55.0699 7.39369 55.1082 7.42663C55.1301 7.44859 55.152 7.47055 55.1793 7.48703C55.1859 7.49368 55.1946 7.49831 55.204 7.50337L55.2107 7.50703L55.216 7.51003L55.2231 7.51448L55.2285 7.51997L55.2449 7.53095C55.3926 7.61879 55.5676 7.64624 55.7371 7.64624C55.8246 7.64624 55.9121 7.63526 55.9996 7.61879V8.52468C55.9121 8.53566 55.8246 8.53566 55.7371 8.53566C54.791 8.53566 54.0582 8.0635 53.8176 7.31134L53.8121 7.30036C53.7738 7.15761 53.752 7.00938 53.741 6.85016C53.741 6.83643 53.7396 6.82134 53.7383 6.80624C53.7369 6.79114 53.7355 6.77604 53.7355 6.76232V5.13172H53.0137V4.24231H53.7355V3.32544H54.9004V4.23682H55.9996V5.13172H54.9004Z" fill="white"/>
<path fill-rule="evenodd" clip-rule="evenodd" d="M26.019 4.72508C26.0463 4.74704 26.0682 4.769 26.0901 4.79096C26.4072 5.1039 26.5932 5.52665 26.5986 6.02626V6.75097H23.7549V6.77293C23.7549 6.86077 23.7604 6.94862 23.7768 7.01999C23.7822 7.04744 23.7877 7.07489 23.7932 7.09685C23.7971 7.12057 23.8067 7.14713 23.8159 7.17244C23.8194 7.18229 23.8229 7.19194 23.826 7.20117C23.8807 7.33293 23.9627 7.44274 24.083 7.50862L24.0994 7.5196C24.2416 7.60744 24.4221 7.6349 24.5916 7.6349C24.69 7.6349 24.794 7.62941 24.8869 7.60195C25.0401 7.56352 25.1822 7.47568 25.2807 7.33293H26.5002C26.4674 7.42627 26.4291 7.51411 26.3799 7.60195V7.60744C26.0572 8.18392 25.401 8.5298 24.5916 8.5298C23.6072 8.5298 22.8525 8.0247 22.6393 7.21764V7.20666C22.6064 7.07489 22.59 6.93215 22.5846 6.78391C22.5846 6.77568 22.5832 6.76881 22.5818 6.76195C22.5805 6.75509 22.5791 6.74822 22.5791 6.73999V6.02626C22.5791 5.51567 22.765 5.08743 23.0822 4.77998C23.1916 4.67018 23.3229 4.57684 23.465 4.49998C23.4897 4.489 23.5143 4.47665 23.5389 4.46429C23.5635 4.45195 23.5881 4.43958 23.6127 4.42861L23.6489 4.41385C23.6898 4.39704 23.7289 4.38098 23.7713 4.36822C23.9135 4.31331 24.0666 4.28037 24.2307 4.25841C24.27 4.25841 24.3049 4.25397 24.3433 4.24909L24.3565 4.24743C24.4275 4.24194 24.5041 4.23645 24.5807 4.23645C24.8705 4.23645 25.1385 4.28037 25.3791 4.36273C25.3901 4.36547 25.401 4.36959 25.4119 4.3737C25.4229 4.37782 25.4338 4.38194 25.4447 4.38469C25.5158 4.41214 25.5815 4.43959 25.6471 4.47253C25.7838 4.5439 25.9096 4.62626 26.019 4.72508ZM24.5807 5.13136C24.1815 5.13136 23.7494 5.30155 23.7494 5.99881H25.4229C25.4229 5.30155 24.9908 5.13136 24.5807 5.13136Z" fill="white"/>
<path fill-rule="evenodd" clip-rule="evenodd" d="M43.3762 5.96598C43.3762 5.90479 43.3715 5.84834 43.3664 5.78783L43.3652 5.77382L43.3488 5.64206C43.3434 5.62011 43.3379 5.59812 43.3379 5.57617C43.3379 5.5644 43.3348 5.55264 43.3319 5.54171C43.3293 5.53225 43.327 5.52343 43.327 5.51578V5.5048C43.1192 4.71421 42.3809 4.2146 41.4129 4.2146C40.8988 4.2146 40.4504 4.35186 40.1113 4.6044C40.002 4.68676 39.9035 4.78009 39.816 4.88441L40.6965 5.4499C40.7949 5.26872 40.9481 5.1699 41.1231 5.12598C41.134 5.12323 41.1463 5.12049 41.1586 5.11774C41.1709 5.115 41.1832 5.11225 41.1941 5.10951C41.2652 5.09853 41.3363 5.09303 41.4129 5.09303C41.4949 5.09303 41.5824 5.09852 41.6645 5.12049C41.6721 5.1224 41.6791 5.12432 41.6858 5.12624L41.6945 5.12872L41.7109 5.13334L41.7246 5.13696C41.7848 5.15343 41.8395 5.18088 41.8941 5.21382L41.9106 5.2248L41.916 5.23029C41.9215 5.23304 41.927 5.23715 41.9324 5.24127C41.9379 5.24539 41.9434 5.24951 41.9488 5.25225C42.0254 5.30166 42.0801 5.36755 42.1184 5.44441C42.1293 5.46088 42.1348 5.47186 42.1402 5.48833L42.1442 5.49935L42.1484 5.51027C42.1512 5.51714 42.1539 5.52401 42.1567 5.53225C42.1599 5.54196 42.1636 5.55167 42.1673 5.56152C42.1763 5.58507 42.1856 5.60949 42.1895 5.63657C42.1922 5.64755 42.1949 5.6599 42.1977 5.67225C42.2004 5.6846 42.2031 5.69696 42.2059 5.70794C42.2086 5.71617 42.21 5.72578 42.2113 5.73539C42.2127 5.74498 42.2141 5.75463 42.2168 5.76284V5.76833L42.2185 5.77987C42.2233 5.81356 42.2277 5.84416 42.2277 5.88363V5.97147H41.1504C40.3191 5.97147 39.6191 6.33382 39.6191 7.22873C39.6191 8.07422 40.352 8.5354 41.1012 8.5354C41.5113 8.5354 41.9488 8.41462 42.2277 8.11265V8.45854H43.3762V6.03735C43.3817 6.0099 43.3817 5.98794 43.3762 5.96598ZM42.2277 7.12442C42.2223 7.17932 42.2059 7.22873 42.1785 7.27265C42.0691 7.45383 41.7848 7.65148 41.3418 7.65148C41.0356 7.65148 40.7676 7.47579 40.7676 7.15187C40.7676 6.82794 41.0137 6.6248 41.4457 6.6248H42.2277V6.88834C42.2332 6.9652 42.2387 7.04206 42.2277 7.12442Z" fill="white"/>
<path fill-rule="evenodd" clip-rule="evenodd" d="M17.0248 4.72508C17.0522 4.74704 17.074 4.769 17.0959 4.79096C17.4131 5.1039 17.599 5.52665 17.599 6.02626V6.75097H14.7553V6.77293C14.7553 6.86077 14.7607 6.94862 14.7772 7.01999C14.7826 7.0474 14.7881 7.07493 14.7936 7.09685C14.799 7.11332 14.8059 7.13116 14.8127 7.149C14.8195 7.16685 14.8264 7.18469 14.8318 7.20117C14.8865 7.33293 14.9686 7.44274 15.0889 7.50862L15.1053 7.5196C15.2475 7.60744 15.4279 7.6349 15.5975 7.6349C15.6959 7.6349 15.7998 7.62941 15.8928 7.60195C16.0459 7.56352 16.1881 7.47568 16.2865 7.33293H17.5061C17.4842 7.39882 17.4569 7.4647 17.424 7.53058C17.4186 7.54156 17.4117 7.5539 17.4049 7.56625C17.3981 7.57861 17.3912 7.59097 17.3858 7.60195V7.60744C17.0631 8.18392 16.4068 8.5298 15.5975 8.5298C14.6131 8.5298 13.8584 8.0247 13.6451 7.21764V7.20666C13.6123 7.07489 13.5959 6.93215 13.5904 6.78391C13.5904 6.77568 13.5891 6.76881 13.5877 6.76195C13.5863 6.75509 13.585 6.74822 13.585 6.73999V6.02626C13.585 5.51567 13.7709 5.08743 14.0881 4.77998C14.1975 4.67018 14.3287 4.57684 14.4709 4.49998C14.4955 4.489 14.5201 4.47665 14.5447 4.46429C14.5693 4.45195 14.594 4.43958 14.6186 4.42861L14.6548 4.41385C14.6957 4.39704 14.7348 4.38098 14.7772 4.36822C14.9193 4.31331 15.0725 4.28037 15.2365 4.25841C15.2759 4.25841 15.3108 4.25397 15.3492 4.24909L15.3623 4.24743C15.4334 4.24194 15.51 4.23645 15.5865 4.23645C15.8764 4.23645 16.1443 4.28037 16.385 4.36273C16.3959 4.36547 16.4068 4.36959 16.4178 4.3737C16.4287 4.37782 16.4397 4.38194 16.4506 4.38469C16.5217 4.41214 16.5873 4.43959 16.6529 4.47253C16.7897 4.5439 16.9154 4.62626 17.0248 4.72508ZM15.5865 5.13136C15.1873 5.13136 14.7553 5.30155 14.7553 5.99881H16.4287C16.4287 5.30155 15.9967 5.13136 15.5865 5.13136Z" fill="white"/>
<path fill-rule="evenodd" clip-rule="evenodd" d="M30.8371 4.79096C30.8153 4.769 30.7934 4.74704 30.766 4.72508C30.6567 4.62626 30.5309 4.5439 30.3942 4.47253C30.3285 4.43959 30.2629 4.41214 30.1918 4.38469C30.1809 4.38194 30.1699 4.37782 30.159 4.37371C30.1481 4.36959 30.1371 4.36547 30.1262 4.36273C29.8856 4.28037 29.6176 4.23645 29.3277 4.23645C29.2512 4.23645 29.1746 4.24194 29.1035 4.24743L29.0904 4.24909C29.052 4.25397 29.0171 4.25841 28.9777 4.25841C28.8137 4.28037 28.6606 4.31331 28.5184 4.36822C28.476 4.38098 28.4369 4.39704 28.396 4.41385L28.3598 4.42861C28.3352 4.43959 28.3105 4.45194 28.2859 4.46429C28.2613 4.47665 28.2367 4.489 28.2121 4.49998C28.0699 4.57684 27.9441 4.67018 27.8293 4.77998C27.5121 5.08743 27.3262 5.51567 27.3262 6.02626V6.73999C27.3262 6.74822 27.3275 6.75509 27.3289 6.76195C27.3303 6.76881 27.3316 6.77568 27.3316 6.78391C27.3371 6.93215 27.3535 7.07489 27.3863 7.20666V7.21764C27.5996 8.0247 28.3543 8.5298 29.3387 8.5298C30.1481 8.5298 30.8043 8.18392 31.127 7.60744V7.60195C31.1762 7.51411 31.2145 7.42627 31.2473 7.33293H30.0223C29.9238 7.47568 29.7816 7.56352 29.6285 7.60195C29.5356 7.62941 29.4317 7.6349 29.3332 7.6349C29.1637 7.6349 28.9832 7.60744 28.841 7.5196L28.8246 7.50862C28.7043 7.44274 28.6223 7.33293 28.5676 7.20117C28.5621 7.1847 28.5553 7.16685 28.5484 7.14901C28.5416 7.13117 28.5348 7.11332 28.5293 7.09685C28.5239 7.07497 28.5184 7.04763 28.513 7.02027C28.4965 6.9489 28.491 6.86077 28.491 6.77293V6.75097H31.3348V6.02626C31.3403 5.52665 31.1543 5.1039 30.8371 4.79096ZM28.4965 5.99881C28.4965 5.30155 28.9285 5.13136 29.3277 5.13136C29.7379 5.13136 30.1699 5.30155 30.1699 5.99881H28.4965Z" fill="white"/>
<path fill-rule="evenodd" clip-rule="evenodd" d="M51.9037 4.72508C51.9311 4.74704 51.9529 4.769 51.9748 4.79096C52.292 5.1039 52.4779 5.52665 52.4834 6.02626V6.75097H49.6397V6.77293C49.6397 6.86077 49.6451 6.94862 49.6615 7.01999C49.667 7.04744 49.6725 7.07489 49.6779 7.09685C49.6819 7.12057 49.6915 7.14713 49.7006 7.17243L49.7033 7.17992C49.7051 7.1848 49.7068 7.18962 49.7084 7.19434C49.7092 7.19664 49.71 7.19892 49.7107 7.20117C49.7654 7.33293 49.8475 7.44274 49.9678 7.50862L49.9842 7.5196C50.1264 7.60744 50.3068 7.6349 50.4764 7.6349C50.5748 7.6349 50.6787 7.62941 50.7717 7.60195C50.9248 7.56352 51.067 7.47568 51.1654 7.33293H52.385C52.3522 7.42627 52.3139 7.51411 52.2647 7.60195V7.60744C51.942 8.18392 51.2858 8.5298 50.4764 8.5298C49.492 8.5298 48.7373 8.0247 48.524 7.21764V7.20666C48.4912 7.07489 48.4748 6.93215 48.4693 6.78391C48.4693 6.7757 48.468 6.76884 48.4666 6.762C48.4652 6.75513 48.4639 6.74822 48.4639 6.73999V6.02626C48.4639 5.51567 48.6498 5.08743 48.967 4.77998C49.0764 4.67018 49.2076 4.57684 49.3498 4.49998C49.3744 4.489 49.399 4.47664 49.4236 4.46429C49.4482 4.45195 49.4729 4.43957 49.4975 4.42861L49.5337 4.41385C49.5746 4.39704 49.6137 4.38098 49.6561 4.36822C49.7982 4.31331 49.9514 4.28037 50.1154 4.25841C50.1548 4.25841 50.1897 4.25397 50.2281 4.24909L50.2412 4.24743C50.3123 4.24194 50.3889 4.23645 50.4654 4.23645C50.7553 4.23645 51.0233 4.28037 51.2639 4.36273C51.2748 4.36547 51.2858 4.36959 51.2967 4.37371C51.3076 4.37782 51.3186 4.38194 51.3295 4.38469C51.4006 4.41214 51.4662 4.43959 51.5318 4.47253C51.6686 4.5439 51.7943 4.62626 51.9037 4.72508ZM50.4654 5.13136C50.0662 5.13136 49.6342 5.30155 49.6342 5.99881H51.3076C51.3076 5.30155 50.8756 5.13136 50.4654 5.13136Z" fill="white"/>
<path d="M44.8326 8.4533H45.4998V3.32544H44.335V7.95918C44.335 8.23369 44.5537 8.4533 44.8326 8.4533Z" fill="white"/>
<path d="M47.5223 8.4533H46.8551C46.5816 8.4533 46.3574 8.23369 46.3574 7.95918V3.32544H47.5223V8.4533Z" fill="white"/>
<path d="M2.0394 4.07737C2.0394 3.88521 2.08315 3.69306 2.17611 3.52286C2.46596 2.97384 3.07299 2.81462 3.65268 2.81462H10.3246V0.860103H3.2644C2.46596 0.854612 1.62924 1.04128 0.989391 1.54089C0.617515 1.82638 0.338607 2.2107 0.174544 2.64991C-0.197332 3.64913 0.0268873 4.63737 0.797984 5.36757C0.823505 5.39319 0.849633 5.4182 0.875761 5.44321C0.928018 5.49324 0.980276 5.54326 1.02767 5.59816C1.10424 5.686 1.17533 5.78483 1.20814 5.90012C1.21908 5.93306 1.22455 5.95503 1.22455 5.99895C1.22455 6.04287 1.21908 6.06483 1.20814 6.09777C1.17533 6.21307 1.10424 6.31189 1.02767 6.39973C0.980276 6.45464 0.928018 6.50466 0.875761 6.55468C0.849633 6.57969 0.823505 6.6047 0.797984 6.63032C0.0268873 7.36052 -0.197332 8.34327 0.174544 9.34798C0.333139 9.79269 0.617515 10.1715 0.983922 10.457C1.62377 10.9621 2.46049 11.1433 3.25893 11.1378H10.3191V9.18327H3.64721C3.07299 9.18327 2.46596 9.02406 2.17611 8.47504C2.08315 8.30484 2.0394 8.11268 2.0394 7.92052C2.0394 7.4264 2.34565 7.05307 2.74487 6.80052C3.04565 6.60287 3.33549 6.37228 3.33549 5.99895C3.33549 5.62561 3.04565 5.39502 2.74487 5.19738C2.34018 4.94483 2.03393 4.57149 2.0394 4.07737Z" fill="#03C5D3"/>
<path d="M9.67424 3.97302H4.47891C4.11797 3.97302 3.82812 4.264 3.82812 4.62636C3.82812 4.98871 4.11797 5.27969 4.47891 5.27969H9.67424V3.97302Z" fill="#03C5D3"/>
<path d="M3.83301 7.23447C3.83301 7.59682 4.12285 7.88781 4.48379 7.88781H9.67912V6.58662H4.48379C4.12285 6.58113 3.83301 6.87212 3.83301 7.23447Z" fill="#03C5D3"/>
</svg>
