<svg width="52" height="16" viewBox="0 0 52 16" fill="none" xmlns="http://www.w3.org/2000/svg">
<path fill-rule="evenodd" clip-rule="evenodd" d="M27.65 7.51022C27.7267 7.72922 27.5732 8.01391 27.935 7.87156C28.8779 7.65257 29.6015 7.07223 29.9633 6.20719C30.1058 5.84584 30.04 5.4845 29.744 5.2655C29.5247 5.0465 29.2397 5.18885 28.9437 5.2655C28.7244 5.34215 28.5051 5.4845 28.3626 5.70349C27.935 6.28384 27.7267 6.92988 27.65 7.51022ZM33.2414 7.94821V10.1929C32.3753 10.7733 31.5749 11.4303 30.5553 11.7916C29.8317 12.0106 29.1739 12.2296 28.3736 12.0763C26.7729 11.8573 25.6875 10.7733 25.545 9.1746C25.4024 7.43357 25.83 5.84584 26.9922 4.46616C27.7157 3.60112 28.6586 3.22883 29.8207 3.44783C31.2022 3.66682 32.0025 5.0465 31.4872 6.34954C30.9061 7.79492 29.744 8.6709 28.2968 9.1746C27.8583 9.31694 27.7925 9.39359 28.1543 9.75494C28.3736 10.1163 28.7354 10.1929 29.0972 10.1163C30.336 9.97394 31.3447 9.39359 32.3643 8.6709C32.6603 8.45191 32.9454 8.23291 33.2414 7.94821Z" fill="#BE2731"/>
<path d="M0 4.0062C0.305589 3.95279 0.605855 3.83558 0.908217 3.71754C1.03976 3.66619 1.17171 3.61468 1.30466 3.56821C1.44719 3.49156 1.44719 3.34921 1.44719 3.28351C1.44719 2.84552 1.44719 2.41847 1.52393 1.98048C1.7432 0.819794 2.54354 0.173754 3.99073 0.0204558C4.64854 -0.0561932 5.37213 0.0971048 6.01898 0.239453C6.04567 0.253807 6.07237 0.265474 6.09719 0.276322C6.2049 0.323398 6.27734 0.355063 6.16151 0.524148C6.07328 0.700388 6.01026 0.880824 5.94123 1.07844C5.89876 1.20006 5.85401 1.32818 5.79971 1.46584C5.72297 1.68483 5.65719 1.68483 5.43792 1.60818C5.21864 1.53154 4.93359 1.46584 4.63758 1.46584C3.83724 1.46584 3.55219 1.68483 3.33292 2.48417C3.11365 3.42586 3.19039 3.50251 4.13325 3.50251H4.27578C5.51466 3.50251 5.51466 3.50251 5.36117 4.73984C5.36117 4.95884 5.28443 4.95884 5.1419 4.95884H3.70568C3.42062 4.95884 3.26713 5.03549 3.26713 5.39683V11.7039C3.26713 11.9886 3.19039 12.1419 2.90534 12.0653H1.7432C1.52393 11.9886 1.45815 11.8463 1.45815 11.6273V5.25449C1.45815 4.96979 1.38141 4.81649 1.09635 4.89314H0V4.0062Z" fill="white"/>
<path fill-rule="evenodd" clip-rule="evenodd" d="M35.0502 15.624H33.2412V3.80906C33.2412 3.52437 33.318 3.44772 33.603 3.44772C33.7504 3.47895 33.9215 3.46109 34.0874 3.44379C34.3285 3.41862 34.5585 3.39461 34.6884 3.52437C34.8563 3.69207 34.8956 3.9882 34.9344 4.27999C34.9462 4.36924 34.958 4.45807 34.9734 4.5427C35.074 4.48865 35.1418 4.40191 35.1961 4.33243C35.2188 4.30342 35.2391 4.27736 35.2585 4.25801C36.4206 2.87833 39.5452 2.81263 40.5539 5.27634C41.135 6.87502 41.135 8.5394 40.5539 10.1271C39.5343 12.6675 36.3439 12.5142 35.1818 11.0688L34.9625 10.8498C35.0877 12.1167 35.0731 13.3391 35.059 14.522L35.059 14.5232C35.0546 14.8939 35.0502 15.2609 35.0502 15.624ZM35.1269 7.72911C35.1269 7.86298 35.1439 8.03076 35.1619 8.20851C35.1821 8.40878 35.2037 8.62172 35.2037 8.81315C35.2037 8.97383 35.245 9.09325 35.293 9.23196C35.3103 9.28216 35.3287 9.33535 35.3462 9.39349C35.5655 10.1162 36.0698 10.5542 36.9469 10.5542C37.8898 10.6308 38.3941 10.3352 38.8326 9.53584C39.1177 8.95549 39.1944 8.2985 39.1944 7.72911C39.1944 7.07212 39.1177 6.34943 38.8326 5.76909C38.4708 5.1121 37.813 4.75075 37.0236 4.8274C36.2233 4.90405 35.6422 5.18875 35.3572 6.06473C35.1269 6.56843 35.1269 7.07212 35.1269 7.72911Z" fill="white"/>
<path d="M23.6596 11.9339H25.5454C25.4916 11.8802 25.4472 11.825 25.4087 11.777C25.345 11.6978 25.2972 11.6383 25.2494 11.6383L22.64 7.93723C22.4975 7.71823 22.4975 7.65253 22.64 7.43353C23.0402 6.85319 23.4568 6.25643 23.8734 5.65967C24.29 5.0629 24.7067 4.46613 25.1068 3.88578C25.1141 3.87731 25.1224 3.86803 25.1314 3.85805C25.2037 3.77766 25.3176 3.65105 25.2494 3.52444H23.5829C23.3636 3.52444 23.2211 3.59014 23.0786 3.80913C22.6679 4.52244 22.1555 5.27931 21.6656 6.00289L21.6632 6.00636C21.5523 6.1702 21.4425 6.33233 21.3354 6.49185C21.2586 6.3495 21.1928 6.2838 21.1161 6.20715C20.8128 5.69795 20.4867 5.21151 20.1668 4.73444C19.9433 4.40107 19.7229 4.07224 19.5154 3.74343C19.4894 3.71747 19.4722 3.68396 19.4553 3.65099C19.4223 3.58667 19.3904 3.52444 19.2962 3.52444H17.2679C18.2108 4.82747 19.0878 6.05385 19.954 7.29119C20.0965 7.51018 20.1732 7.66348 19.954 7.94818C19.5491 8.50517 19.1814 9.06216 18.7991 9.64137L18.7983 9.64265C18.6322 9.89426 18.4634 10.1501 18.2875 10.4119C18.1733 10.571 18.059 10.7235 17.9448 10.876C17.6972 11.2064 17.4497 11.5368 17.2021 11.9339C17.4014 11.9339 17.5929 11.9249 17.7789 11.9162C18.1353 11.8994 18.4714 11.8836 18.8028 11.9339C19.1646 11.9339 19.3839 11.7806 19.6031 11.4959C19.8441 11.1256 20.1008 10.7572 20.3608 10.3842C20.7157 9.87488 21.0767 9.35674 21.4121 8.81322C21.5313 9.00084 21.6482 9.18586 21.7638 9.36876C22.2757 10.1786 22.7612 10.9467 23.2978 11.7149C23.3128 11.7298 23.3273 11.7472 23.3426 11.7656C23.406 11.8416 23.483 11.9339 23.6596 11.9339Z" fill="white"/>
<path fill-rule="evenodd" clip-rule="evenodd" d="M16.6978 11.3536V10.0505C16.5443 10.0505 16.4785 10.1162 16.4018 10.2038C15.8207 10.4885 15.1739 10.6309 14.516 10.7075C12.7728 10.9156 11.7532 10.1929 11.4682 8.52852C11.3914 8.24382 11.4682 8.16717 11.7532 8.16717H16.1825C16.6541 8.16717 16.8899 8.16717 17.0077 8.04932C17.1254 7.93156 17.1254 7.69613 17.1254 7.22549C17.1254 6.42615 17.0596 5.70346 16.621 4.98077C15.8975 3.88578 14.8778 3.38209 13.5732 3.38209C12.2027 3.31639 10.9639 3.74343 10.2403 4.98077C9.43993 6.20715 9.36318 7.51018 9.58246 8.88986C9.80173 10.1929 10.5253 11.2112 11.7642 11.7149C13.3539 12.2953 14.9546 12.1529 16.4785 11.5726C16.621 11.5726 16.6978 11.4959 16.6978 11.3536ZM15.0204 6.78749H13.3539C12.7728 6.78749 12.1918 6.78749 11.6107 6.86414C11.3914 6.86414 11.3914 6.79844 11.3914 6.57945C11.5449 5.27641 12.6961 4.47707 13.935 4.83842C14.7353 4.98077 15.3164 5.84581 15.2396 6.64514C15.2396 6.82153 15.1472 6.80613 15.0711 6.79346C15.0527 6.7904 15.0353 6.78749 15.0204 6.78749Z" fill="white"/>
<path d="M43.6895 11.5616C43.6895 11.7806 43.6128 11.8463 43.4045 11.8463H42.1656C42.0231 11.8463 41.8806 11.8463 41.8806 11.6273V3.65581C41.8806 3.43681 41.9573 3.43681 42.1656 3.43681H43.4045C43.6895 3.43681 43.6895 3.51346 43.6895 3.72151V11.5616Z" fill="white"/>
<path d="M8.85839 5.98813V11.5726C8.85839 11.8572 8.78164 11.9339 8.49659 11.9339H7.4112C7.0494 11.9339 6.97266 11.8572 6.97266 11.5726V0.403704C6.97266 0.119008 7.0494 0.0423584 7.33445 0.0423584H8.49659C8.78164 0.0423584 8.85839 0.119008 8.85839 0.403704C8.80732 1.66412 8.82421 2.88576 8.84123 4.11699C8.84979 4.73622 8.85839 5.35788 8.85839 5.98813Z" fill="white"/>
<path d="M41.7275 1.27969C41.7933 1.86003 42.1551 2.22138 42.8129 2.22138C43.4707 2.22138 43.8325 1.86003 43.7668 1.27969C43.7668 0.622698 43.405 0.261353 42.7471 0.261353C42.0893 0.261353 41.7275 0.622698 41.7275 1.27969Z" fill="white"/>
<path d="M50.3665 11.912H51.8904L51.9235 11.9119L52.0002 5.88953L51.9672 5.68153L51.8904 5.46253C51.7369 4.52084 51.2326 3.78721 50.2898 3.50251C49.5662 3.21781 48.7658 3.21781 48.0422 3.36016C47.3186 3.57916 46.6608 3.9405 46.1565 4.59749C46.1063 4.44699 46.0737 4.29512 46.0431 4.15195C45.9867 3.88892 45.9367 3.65527 45.7947 3.51346C45.6364 3.35534 45.3295 3.38559 45.0349 3.41463C44.9215 3.42581 44.8099 3.43681 44.7093 3.43681C44.501 3.43681 44.4243 3.50251 44.4243 3.72151V11.6164C44.4243 11.8244 44.49 11.901 44.7093 11.901H45.8714C46.1565 11.901 46.2332 11.8244 46.2332 11.5397V7.83865C46.2332 7.32401 46.2332 6.89696 46.31 6.45897C46.5293 5.29829 47.3954 4.71794 48.5575 4.79459C49.4236 4.87124 49.8622 5.30923 50.0047 6.17427C50.0814 6.39327 50.0814 6.61227 50.0814 6.83126V11.6273C50.0814 11.8353 50.1472 11.912 50.3665 11.912Z" fill="white"/>
</svg>
