<svg width="72" height="40" viewBox="0 0 72 40" fill="none" xmlns="http://www.w3.org/2000/svg">
    <rect x="0.5" y="0.5" width="71" height="39" rx="15.5" fill="#110A1D"/>
    <path fill-rule="evenodd" clip-rule="evenodd" d="M37.65 20.5106C37.7267 20.7296 37.5732 21.0143 37.935 20.8719C38.8779 20.6529 39.6015 20.0726 39.9633 19.2076C40.1058 18.8462 40.04 18.4849 39.744 18.2659C39.5247 18.0469 39.2397 18.1892 38.9437 18.2659C38.7244 18.3425 38.5051 18.4849 38.3626 18.7039C37.935 19.2842 37.7267 19.9302 37.65 20.5106ZM43.2414 20.9486V23.1933C42.3753 23.7736 41.5749 24.4306 40.5553 24.792C39.8317 25.011 39.1739 25.23 38.3736 25.0767C36.7729 24.8577 35.6875 23.7736 35.545 22.175C35.4024 20.4339 35.83 18.8462 36.9922 17.4665C37.7157 16.6015 38.6586 16.2292 39.8207 16.4482C41.2022 16.6672 42.0025 18.0469 41.4872 19.3499C40.9061 20.7953 39.744 21.6713 38.2968 22.175C37.8583 22.3173 37.7925 22.394 38.1543 22.7553C38.3736 23.1167 38.7354 23.1933 39.0972 23.1167C40.336 22.9743 41.3447 22.394 42.3643 21.6713C42.6603 21.4523 42.9454 21.2333 43.2414 20.9486Z" fill="#BE2731"/>
    <path d="M10 17.0062C10.3056 16.9528 10.6059 16.8356 10.9082 16.7175C11.0398 16.6662 11.1717 16.6147 11.3047 16.5682C11.4472 16.4916 11.4472 16.3492 11.4472 16.2835C11.4472 15.8455 11.4472 15.4185 11.5239 14.9805C11.7432 13.8198 12.5435 13.1738 13.9907 13.0205C14.6485 12.9438 15.3721 13.0971 16.019 13.2395C16.0457 13.2538 16.0724 13.2655 16.0972 13.2763C16.2049 13.3234 16.2773 13.3551 16.1615 13.5241C16.0733 13.7004 16.0103 13.8808 15.9412 14.0784C15.8988 14.2001 15.854 14.3282 15.7997 14.4658C15.723 14.6848 15.6572 14.6848 15.4379 14.6082C15.2186 14.5315 14.9336 14.4658 14.6376 14.4658C13.8372 14.4658 13.5522 14.6848 13.3329 15.4842C13.1136 16.4259 13.1904 16.5025 14.1333 16.5025H14.2758C15.5147 16.5025 15.5147 16.5025 15.3612 17.7398C15.3612 17.9588 15.2844 17.9588 15.1419 17.9588H13.7057C13.4206 17.9588 13.2671 18.0355 13.2671 18.3968V24.7039C13.2671 24.9886 13.1904 25.1419 12.9053 25.0653H11.7432C11.5239 24.9886 11.4582 24.8463 11.4582 24.6273V18.2545C11.4582 17.9698 11.3814 17.8165 11.0964 17.8931H10V17.0062Z" fill="white"/>
    <path fill-rule="evenodd" clip-rule="evenodd" d="M45.0502 28.624H43.2412V16.8091C43.2412 16.5244 43.318 16.4477 43.603 16.4477C43.7504 16.479 43.9215 16.4611 44.0874 16.4438C44.3285 16.4186 44.5585 16.3946 44.6884 16.5244C44.8563 16.6921 44.8956 16.9882 44.9344 17.28C44.9462 17.3692 44.958 17.4581 44.9734 17.5427C45.074 17.4886 45.1418 17.4019 45.1961 17.3324C45.2188 17.3034 45.2391 17.2774 45.2585 17.258C46.4206 15.8783 49.5452 15.8126 50.5539 18.2763C51.135 19.875 51.135 21.5394 50.5539 23.1271C49.5343 25.6675 46.3439 25.5142 45.1818 24.0688L44.9625 23.8498C45.0877 25.1167 45.0731 26.3391 45.059 27.522L45.059 27.5232C45.0546 27.8939 45.0502 28.2609 45.0502 28.624ZM45.1269 20.7291C45.1269 20.863 45.1439 21.0308 45.1619 21.2085C45.1821 21.4088 45.2037 21.6217 45.2037 21.8131C45.2037 21.9738 45.245 22.0932 45.293 22.232C45.3103 22.2822 45.3287 22.3353 45.3462 22.3935C45.5655 23.1162 46.0698 23.5542 46.9469 23.5542C47.8898 23.6308 48.3941 23.3352 48.8326 22.5358C49.1177 21.9555 49.1944 21.2985 49.1944 20.7291C49.1944 20.0721 49.1177 19.3494 48.8326 18.7691C48.4708 18.1121 47.813 17.7508 47.0236 17.8274C46.2233 17.904 45.6422 18.1887 45.3572 19.0647C45.1269 19.5684 45.1269 20.0721 45.1269 20.7291Z" fill="white"/>
    <path d="M33.6596 24.9339H35.5454C35.4916 24.8802 35.4472 24.825 35.4087 24.777C35.345 24.6978 35.2972 24.6383 35.2494 24.6383L32.64 20.9372C32.4975 20.7182 32.4975 20.6525 32.64 20.4335C33.0402 19.8532 33.4568 19.2564 33.8734 18.6597C34.29 18.0629 34.7067 17.4661 35.1068 16.8858C35.1141 16.8773 35.1224 16.868 35.1314 16.858C35.2037 16.7777 35.3176 16.6511 35.2494 16.5244H33.5829C33.3636 16.5244 33.2211 16.5901 33.0786 16.8091C32.6679 17.5224 32.1555 18.2793 31.6656 19.0029L31.6632 19.0064C31.5523 19.1702 31.4425 19.3323 31.3354 19.4918C31.2586 19.3495 31.1928 19.2838 31.1161 19.2072C30.8128 18.698 30.4867 18.2115 30.1668 17.7344C29.9433 17.4011 29.7229 17.0722 29.5154 16.7434C29.4894 16.7175 29.4722 16.684 29.4553 16.651C29.4223 16.5867 29.3904 16.5244 29.2962 16.5244H27.2679C28.2108 17.8275 29.0878 19.0539 29.954 20.2912C30.0965 20.5102 30.1732 20.6635 29.954 20.9482C29.5491 21.5052 29.1814 22.0622 28.7991 22.6414L28.7983 22.6427C28.6322 22.8943 28.4634 23.1501 28.2875 23.4119C28.1733 23.571 28.059 23.7235 27.9448 23.876C27.6972 24.2064 27.4497 24.5368 27.2021 24.9339C27.4014 24.9339 27.5929 24.9249 27.7789 24.9162C28.1353 24.8994 28.4714 24.8836 28.8028 24.9339C29.1646 24.9339 29.3839 24.7806 29.6031 24.4959C29.8441 24.1256 30.1008 23.7572 30.3608 23.3842C30.7157 22.8749 31.0767 22.3567 31.4121 21.8132C31.5313 22.0008 31.6482 22.1859 31.7638 22.3688C32.2757 23.1786 32.7612 23.9467 33.2978 24.7149C33.3128 24.7298 33.3273 24.7472 33.3426 24.7656C33.406 24.8416 33.483 24.9339 33.6596 24.9339Z" fill="white"/>
    <path fill-rule="evenodd" clip-rule="evenodd" d="M26.6978 24.3536V23.0505C26.5443 23.0505 26.4785 23.1162 26.4018 23.2038C25.8207 23.4885 25.1739 23.6309 24.516 23.7075C22.7728 23.9156 21.7532 23.1929 21.4682 21.5285C21.3914 21.2438 21.4682 21.1672 21.7532 21.1672H26.1825C26.6541 21.1672 26.8899 21.1672 27.0077 21.0493C27.1254 20.9316 27.1254 20.6961 27.1254 20.2255C27.1254 19.4261 27.0596 18.7035 26.621 17.9808C25.8975 16.8858 24.8778 16.3821 23.5732 16.3821C22.2027 16.3164 20.9639 16.7434 20.2403 17.9808C19.4399 19.2072 19.3632 20.5102 19.5825 21.8899C19.8017 23.1929 20.5253 24.2112 21.7642 24.7149C23.3539 25.2953 24.9546 25.1529 26.4785 24.5726C26.621 24.5726 26.6978 24.4959 26.6978 24.3536ZM25.0204 19.7875H23.3539C22.7728 19.7875 22.1918 19.7875 21.6107 19.8641C21.3914 19.8641 21.3914 19.7984 21.3914 19.5794C21.5449 18.2764 22.6961 17.4771 23.935 17.8384C24.7353 17.9808 25.3164 18.8458 25.2396 19.6451C25.2396 19.8215 25.1472 19.8061 25.0711 19.7935C25.0527 19.7904 25.0353 19.7875 25.0204 19.7875Z" fill="white"/>
    <path d="M53.6895 24.5616C53.6895 24.7806 53.6128 24.8463 53.4045 24.8463H52.1656C52.0231 24.8463 51.8806 24.8463 51.8806 24.6273V16.6558C51.8806 16.4368 51.9573 16.4368 52.1656 16.4368H53.4045C53.6895 16.4368 53.6895 16.5135 53.6895 16.7215V24.5616Z" fill="white"/>
    <path d="M18.8584 18.9881V24.5726C18.8584 24.8572 18.7816 24.9339 18.4966 24.9339H17.4112C17.0494 24.9339 16.9727 24.8572 16.9727 24.5726V13.4037C16.9727 13.119 17.0494 13.0424 17.3345 13.0424H18.4966C18.7816 13.0424 18.8584 13.119 18.8584 13.4037C18.8073 14.6641 18.8242 15.8858 18.8412 17.117C18.8498 17.7362 18.8584 18.3579 18.8584 18.9881Z" fill="white"/>
    <path d="M51.7275 14.2797C51.7933 14.86 52.1551 15.2214 52.8129 15.2214C53.4707 15.2214 53.8325 14.86 53.7668 14.2797C53.7668 13.6227 53.405 13.2614 52.7471 13.2614C52.0893 13.2614 51.7275 13.6227 51.7275 14.2797Z" fill="white"/>
    <path d="M60.3665 24.912H61.8904L61.9235 24.9119L62.0002 18.8895L61.9672 18.6815L61.8904 18.4625C61.7369 17.5208 61.2326 16.7872 60.2898 16.5025C59.5662 16.2178 58.7658 16.2178 58.0422 16.3602C57.3186 16.5792 56.6608 16.9405 56.1565 17.5975C56.1063 17.447 56.0737 17.2951 56.0431 17.152C55.9867 16.8889 55.9367 16.6553 55.7947 16.5135C55.6364 16.3553 55.3295 16.3856 55.0349 16.4146C54.9215 16.4258 54.8099 16.4368 54.7093 16.4368C54.501 16.4368 54.4243 16.5025 54.4243 16.7215V24.6164C54.4243 24.8244 54.49 24.901 54.7093 24.901H55.8714C56.1565 24.901 56.2332 24.8244 56.2332 24.5397V20.8387C56.2332 20.324 56.2332 19.897 56.31 19.459C56.5293 18.2983 57.3954 17.7179 58.5575 17.7946C59.4236 17.8712 59.8622 18.3092 60.0047 19.1743C60.0814 19.3933 60.0814 19.6123 60.0814 19.8313V24.6273C60.0814 24.8353 60.1472 24.912 60.3665 24.912Z" fill="white"/>
    <rect x="0.5" y="0.5" width="71" height="39" rx="15.5" stroke="url(#paint0_linear_1429_7802)"/>
    <defs>
        <linearGradient id="paint0_linear_1429_7802" x1="0" y1="0" x2="74.8062" y2="33.7869" gradientUnits="userSpaceOnUse">
            <stop stop-color="white" stop-opacity="0.24"/>
            <stop offset="1" stop-color="white" stop-opacity="0.14"/>
        </linearGradient>
    </defs>
</svg>
