<svg width="32" height="16" viewBox="0 0 32 16" fill="none" xmlns="http://www.w3.org/2000/svg">
<path d="M1.0563 0.61855C1.69408 0.406365 2.41298 0.634104 2.80299 1.18288C3.31078 1.87385 3.12632 2.92252 2.40077 3.38575C1.6463 3.87565 0.589628 3.61459 0.176299 2.80809C-0.26483 1.96938 0.156286 0.914049 1.0563 0.61855ZM0.332949 4.84432C1.1474 4.84432 1.96297 4.84432 2.77742 4.84432C2.77742 8.36246 2.77853 11.8806 2.77632 15.3988C1.96187 15.3977 1.14852 15.3977 0.334054 15.3988C0.331844 11.8806 0.332949 8.36246 0.332949 4.84432Z" fill="#EF5232"/>
<path d="M24.7179 0.608466C25.4902 0.369626 26.3635 0.786211 26.6235 1.55937C26.9013 2.29699 26.5513 3.15682 25.8357 3.48674C25.1035 3.82888 24.1946 3.5545 23.8112 2.83354C23.3568 1.97929 23.7824 0.885079 24.7179 0.608466ZM3.9943 0.80508C4.62986 0.885062 5.24209 0.982825 5.82321 1.26831C6.62545 1.64267 7.27767 2.30476 7.62656 3.11792C7.96545 3.89331 8.04657 4.6987 8.05545 5.53629C8.05434 7.27814 8.05322 9.01999 8.05545 10.7619C8.04878 11.8916 7.81212 13.0969 7.18322 14.0523C6.78099 14.6699 6.16098 15.1332 5.44098 15.3076C4.95319 15.4364 4.45318 15.3942 3.94429 15.3976C3.94207 14.5055 3.94319 13.6124 3.94319 12.7192C4.32209 12.6926 4.72209 12.7292 5.01988 12.4482C5.39878 12.0916 5.46211 11.5884 5.47211 11.094C5.471 9.12998 5.46988 7.16928 5.47322 5.20525C5.47099 4.67536 5.33654 4.08882 4.9021 3.74445C4.6132 3.51117 4.28876 3.48339 3.93652 3.42452C4.27541 2.67912 4.38097 1.90262 4.09765 1.11722C4.0632 1.01283 4.02875 0.909507 3.9943 0.80508ZM27.6669 1.90041C28.4713 1.90152 29.2769 1.90041 30.0824 1.90041C30.0824 2.90021 30.0813 3.89999 30.0835 4.89867C30.7213 4.90089 31.3602 4.89977 31.998 4.89977C32.0002 5.54741 32.0002 6.19617 31.998 6.84381C31.3602 6.84381 30.7213 6.84271 30.0835 6.84492C30.0813 8.37237 30.0847 9.89872 30.0802 11.4262C30.0869 11.855 30.1347 12.316 30.4802 12.6148C30.7169 12.8248 31.0102 12.8425 31.308 12.9037C31.3002 13.7346 31.3058 14.5655 31.3047 15.3965C31.0547 15.3987 30.8036 15.4031 30.5535 15.4009C29.8124 15.4298 29.0624 15.0621 28.5524 14.5389C27.908 13.8646 27.6635 12.8937 27.6646 11.9816C27.668 8.62122 27.6635 5.26082 27.6669 1.90041ZM23.9446 4.84423C24.759 4.84423 25.5724 4.84423 26.3868 4.84423C26.388 8.36238 26.3891 11.8805 26.3868 15.3987C25.5724 15.3965 24.7591 15.3965 23.9446 15.3987C23.9424 11.8805 23.9435 8.36238 23.9446 4.84423ZM15.2245 7.53811C15.2278 7.04377 15.1833 6.56499 14.9922 6.10619C14.5744 5.01865 13.3678 4.30325 12.2211 4.33879C11.6522 4.33434 11.1322 4.32324 10.6122 4.5954C9.93217 4.95755 9.51772 5.66183 9.27549 6.36836C9.05438 7.02933 8.93771 7.72808 8.94104 8.42459C8.94437 9.61101 8.94437 10.7974 8.94104 11.9838C8.94104 12.7003 9.03882 13.3958 9.3966 14.0279C9.87662 14.9088 10.8888 15.4731 11.8877 15.4575C12.6633 15.4687 13.3622 15.4909 14.0045 14.9877C14.85 14.33 15.2089 13.0703 15.1756 12.0383C14.42 12.0349 13.6644 12.0416 12.9089 12.0327C12.8611 12.3849 12.9133 12.7837 12.5789 13.0069C12.1177 13.2769 11.4144 12.9825 11.3189 12.4282C11.2322 11.8739 11.2911 11.2929 11.2789 10.7319C12.5922 10.7319 13.9067 10.7319 15.22 10.7319C15.2234 9.66767 15.2189 8.60234 15.2245 7.53811ZM12.8866 8.76007C12.3689 8.76007 11.8511 8.76007 11.3333 8.76007C11.3444 8.25351 11.29 7.72585 11.3711 7.22485C11.4789 6.68274 12.3033 6.41279 12.6389 6.90159C13.0022 7.37926 12.8644 8.19019 12.8866 8.76007ZM22.7235 7.53811C22.729 6.80716 22.6168 6.03731 22.2534 5.39301C21.9034 4.77092 21.2723 4.33101 20.549 4.2999C19.8567 4.28324 19.2567 4.55985 18.7434 5.00642C18.7556 3.64782 18.7445 2.2881 18.7501 0.929498C17.9812 0.927272 17.2123 0.928393 16.4434 0.928393C16.4434 5.75183 16.4423 10.5752 16.4445 15.3976C17.2134 15.3965 17.9823 15.3976 18.7512 15.3976C18.7489 15.1521 18.7456 14.9066 18.7412 14.6611C19.1278 15.0565 19.5301 15.3953 20.1045 15.4487C20.6612 15.4742 21.2534 15.4964 21.7268 15.1554C22.3968 14.7022 22.7024 13.7557 22.7212 12.9825C22.7235 11.1696 22.7179 9.35218 22.7235 7.53811ZM20.3879 8.64898C20.3901 9.7232 20.3834 10.7963 20.3923 11.8705C20.3901 12.0905 20.3979 12.3238 20.349 12.5382C20.2368 12.9403 19.7601 13.2336 19.359 13.0614C18.9923 12.9214 18.8267 12.587 18.8334 12.2071C18.8312 10.6885 18.8312 9.16442 18.8334 7.64586C18.8267 7.26483 18.9923 6.93379 19.3578 6.79159C19.7956 6.60052 20.3201 6.96823 20.3701 7.42257C20.4112 7.82805 20.3834 8.24131 20.3879 8.64898Z" fill="#59595A"/>
<path d="M24.7179 0.608466C25.4902 0.369626 26.3635 0.786211 26.6235 1.55937C26.9013 2.29699 26.5513 3.15682 25.8357 3.48674C25.1035 3.82888 24.1946 3.5545 23.8112 2.83354C23.3568 1.97929 23.7824 0.885079 24.7179 0.608466ZM3.9943 0.80508C4.62986 0.885062 5.24209 0.982825 5.82321 1.26831C6.62545 1.64267 7.27767 2.30476 7.62656 3.11792C7.96545 3.89331 8.04657 4.6987 8.05545 5.53629C8.05434 7.27814 8.05322 9.01999 8.05545 10.7619C8.04878 11.8916 7.81212 13.0969 7.18322 14.0523C6.78099 14.6699 6.16098 15.1332 5.44098 15.3076C4.95319 15.4364 4.45318 15.3942 3.94429 15.3976C3.94207 14.5055 3.94319 13.6124 3.94319 12.7192C4.32209 12.6926 4.72209 12.7292 5.01988 12.4482C5.39878 12.0916 5.46211 11.5884 5.47211 11.094C5.471 9.12998 5.46988 7.16928 5.47322 5.20525C5.47099 4.67536 5.33654 4.08882 4.9021 3.74445C4.6132 3.51117 4.28876 3.48339 3.93652 3.42452C4.27541 2.67912 4.38097 1.90262 4.09765 1.11722C4.0632 1.01283 4.02875 0.909507 3.9943 0.80508ZM27.6669 1.90041C28.4713 1.90152 29.2769 1.90041 30.0824 1.90041C30.0824 2.90021 30.0813 3.89999 30.0835 4.89867C30.7213 4.90089 31.3602 4.89977 31.998 4.89977C32.0002 5.54741 32.0002 6.19617 31.998 6.84381C31.3602 6.84381 30.7213 6.84271 30.0835 6.84492C30.0813 8.37237 30.0847 9.89872 30.0802 11.4262C30.0869 11.855 30.1347 12.316 30.4802 12.6148C30.7169 12.8248 31.0102 12.8425 31.308 12.9037C31.3002 13.7346 31.3058 14.5655 31.3047 15.3965C31.0547 15.3987 30.8036 15.4031 30.5535 15.4009C29.8124 15.4298 29.0624 15.0621 28.5524 14.5389C27.908 13.8646 27.6635 12.8937 27.6646 11.9816C27.668 8.62122 27.6635 5.26082 27.6669 1.90041ZM23.9446 4.84423C24.759 4.84423 25.5724 4.84423 26.3868 4.84423C26.388 8.36238 26.3891 11.8805 26.3868 15.3987C25.5724 15.3965 24.7591 15.3965 23.9446 15.3987C23.9424 11.8805 23.9435 8.36238 23.9446 4.84423ZM15.2245 7.53811C15.2278 7.04377 15.1833 6.56499 14.9922 6.10619C14.5744 5.01865 13.3678 4.30325 12.2211 4.33879C11.6522 4.33434 11.1322 4.32324 10.6122 4.5954C9.93217 4.95755 9.51772 5.66183 9.27549 6.36836C9.05438 7.02933 8.93771 7.72808 8.94104 8.42459C8.94437 9.61101 8.94437 10.7974 8.94104 11.9838C8.94104 12.7003 9.03882 13.3958 9.3966 14.0279C9.87662 14.9088 10.8888 15.4731 11.8877 15.4575C12.6633 15.4687 13.3622 15.4909 14.0045 14.9877C14.85 14.33 15.2089 13.0703 15.1756 12.0383C14.42 12.0349 13.6644 12.0416 12.9089 12.0327C12.8611 12.3849 12.9133 12.7837 12.5789 13.0069C12.1177 13.2769 11.4144 12.9825 11.3189 12.4282C11.2322 11.8739 11.2911 11.2929 11.2789 10.7319C12.5922 10.7319 13.9067 10.7319 15.22 10.7319C15.2234 9.66767 15.2189 8.60234 15.2245 7.53811ZM12.8866 8.76007C12.3689 8.76007 11.8511 8.76007 11.3333 8.76007C11.3444 8.25351 11.29 7.72585 11.3711 7.22485C11.4789 6.68274 12.3033 6.41279 12.6389 6.90159C13.0022 7.37926 12.8644 8.19019 12.8866 8.76007ZM22.7235 7.53811C22.729 6.80716 22.6168 6.03731 22.2534 5.39301C21.9034 4.77092 21.2723 4.33101 20.549 4.2999C19.8567 4.28324 19.2567 4.55985 18.7434 5.00642C18.7556 3.64782 18.7445 2.2881 18.7501 0.929498C17.9812 0.927272 17.2123 0.928393 16.4434 0.928393C16.4434 5.75183 16.4423 10.5752 16.4445 15.3976C17.2134 15.3965 17.9823 15.3976 18.7512 15.3976C18.7489 15.1521 18.7456 14.9066 18.7412 14.6611C19.1278 15.0565 19.5301 15.3953 20.1045 15.4487C20.6612 15.4742 21.2534 15.4964 21.7268 15.1554C22.3968 14.7022 22.7024 13.7557 22.7212 12.9825C22.7235 11.1696 22.7179 9.35218 22.7235 7.53811ZM20.3879 8.64898C20.3901 9.7232 20.3834 10.7963 20.3923 11.8705C20.3901 12.0905 20.3979 12.3238 20.349 12.5382C20.2368 12.9403 19.7601 13.2336 19.359 13.0614C18.9923 12.9214 18.8267 12.587 18.8334 12.2071C18.8312 10.6885 18.8312 9.16442 18.8334 7.64586C18.8267 7.26483 18.9923 6.93379 19.3578 6.79159C19.7956 6.60052 20.3201 6.96823 20.3701 7.42257C20.4112 7.82805 20.3834 8.24131 20.3879 8.64898Z" fill="white"/>
</svg>
