<svg width="24" height="24" viewBox="0 0 24 24" fill="none" xmlns="http://www.w3.org/2000/svg">
<mask id="mask0_1427_8532" style="mask-type:luminance" maskUnits="userSpaceOnUse" x="0" y="0" width="24" height="24">
<path d="M0 0H23.9996V24H0V0Z" fill="white"/>
</mask>
<g mask="url(#mask0_1427_8532)">
<path d="M2.34006 0.409058H21.6582C21.9119 0.40904 22.1631 0.458994 22.3975 0.556069C22.6319 0.653144 22.8449 0.795438 23.0244 0.974828C23.2038 1.15422 23.3461 1.36719 23.4432 1.60158C23.5403 1.83597 23.5903 2.0872 23.5903 2.34091V21.6595C23.5903 21.9131 23.5403 22.1644 23.4432 22.3987C23.3461 22.6331 23.2038 22.8461 23.0244 23.0254C22.845 23.2048 22.632 23.3471 22.3976 23.4442C22.1632 23.5412 21.912 23.5912 21.6583 23.5912H2.33978C1.82752 23.5912 1.33624 23.3877 0.973998 23.0255C0.611761 22.6633 0.40824 22.172 0.408203 21.6597V2.34077C0.40824 1.82844 0.61179 1.3371 0.974079 0.974836C1.33637 0.612573 1.82772 0.409058 2.34006 0.409058Z" fill="#FDB913"/>
<path d="M21.6591 0.408873C22.1714 0.409019 22.6627 0.612628 23.025 0.974927C23.3872 1.33723 23.5907 1.82855 23.5907 2.34087V21.6593C23.5907 22.1716 23.3872 22.6629 23.0249 23.0252C22.6627 23.3874 22.1714 23.591 21.6591 23.5911H2.34073C2.08702 23.5912 1.83578 23.5413 1.60137 23.4442C1.36697 23.3471 1.15398 23.2048 0.974579 23.0254C0.795179 22.846 0.652882 22.633 0.555816 22.3986C0.458751 22.1642 0.408819 21.913 0.408873 21.6593V2.34087C0.408819 2.08715 0.45875 1.83591 0.555814 1.60149C0.652878 1.36708 0.795173 1.15408 0.974571 0.974668C1.15397 0.795257 1.36696 0.652947 1.60136 0.555867C1.83577 0.458786 2.08701 0.408837 2.34073 0.408873H21.6591ZM21.6591 0H2.34073C1.72011 0.000656241 1.12509 0.247498 0.686259 0.686357C0.247426 1.12522 0.000619728 1.72024 0 2.34087L0 21.6593C0.000692559 22.2799 0.247527 22.8748 0.686348 23.3137C1.12517 23.7525 1.72014 23.9993 2.34073 24H21.6591C22.2797 23.9993 22.8746 23.7524 23.3134 23.3136C23.7521 22.8748 23.9989 22.2798 23.9996 21.6593V2.34087C23.999 1.72028 23.7522 1.12527 23.3135 0.686414C22.8747 0.247555 22.2797 0.000692751 21.6591 0Z" fill="white"/>
<path d="M13.352 12.2503L13.35 8.09975L14.4334 7.84264V8.38689C14.4334 8.38689 14.7141 7.67133 15.3653 7.50524C15.4626 7.47391 15.5661 7.46696 15.6667 7.485V8.54402C15.4716 8.54657 15.2789 8.58669 15.099 8.66218C14.6987 8.82027 14.4972 9.16525 14.4972 9.69187L14.4979 11.9837L13.352 12.2503ZM7.64081 13.6001C7.64081 13.6001 7.46453 13.3359 7.46453 12.4019V10.3355L6.9072 10.4682V9.61668L7.46591 9.48475V8.55655L8.61789 8.28457V9.21262L9.43178 9.01927V9.86966L8.61789 10.0629C8.61789 10.0629 8.61651 11.7561 8.61789 12.1671C8.61789 13.1241 8.87183 13.3078 8.87183 13.3078L7.64081 13.6001ZM9.55228 11.1308C9.55228 10.393 9.65736 9.85465 9.88293 9.4415C10.1515 8.95124 10.5915 8.63174 11.2327 8.48577C12.4965 8.19836 12.9527 8.94642 12.935 9.94953C12.9282 10.3083 12.9299 10.483 12.9299 10.483L10.7033 11.0063V11.0422C10.7033 11.7431 10.8502 12.0757 11.2944 11.9814C11.678 11.9005 11.7848 11.6602 11.8151 11.363C11.82 11.3151 11.8224 11.1932 11.8224 11.1932L12.8654 10.9433C12.8654 10.9433 12.8679 11.0287 12.8664 11.1245C12.8573 11.5228 12.7415 12.5107 11.2917 12.8535C9.91846 13.1795 9.55242 12.3408 9.55242 11.1307M11.2789 9.2589C10.91 9.34263 10.7165 9.70454 10.7081 10.3041L11.8281 10.0374C11.8301 10.0103 11.8303 9.9505 11.8301 9.85685C11.8281 9.40418 11.6882 9.16525 11.2789 9.2589ZM19.5659 8.70363C19.5226 7.43955 19.8505 6.43631 21.2609 6.11681C22.1597 5.91258 22.5011 6.14642 22.674 6.37241C22.8402 6.58807 22.9044 6.87892 22.9044 7.28628L22.9053 7.36106L21.802 7.62326L21.8011 7.46971C21.802 6.98661 21.6677 6.8029 21.3168 6.89076C20.8995 6.99556 20.731 7.39163 20.731 8.17908C20.731 8.45864 20.7323 8.50877 20.7323 8.5465C20.7323 9.34676 20.8415 9.71308 21.3224 9.61241C21.7397 9.5262 21.7967 9.15988 21.8035 8.83873C21.8043 8.78833 21.8064 8.62692 21.8064 8.62692L22.9081 8.36664C22.9081 8.36664 22.9092 8.44803 22.9092 8.53851C22.9064 9.58789 22.3534 10.2492 21.3172 10.4903C19.8897 10.825 19.6101 10.0001 19.5658 8.70363M15.7516 10.4734C15.7516 9.51188 16.3149 9.2078 17.1626 8.85705C17.925 8.54168 17.9416 8.3851 17.9447 8.11105C17.9489 7.88038 17.842 7.68303 17.4624 7.77984C17.3359 7.80535 17.2216 7.87285 17.1383 7.97142C17.0549 8.06998 17.0072 8.19382 17.003 8.32285C16.9968 8.39369 16.9944 8.4648 16.9959 8.53589L15.9269 8.78833C15.9197 8.5753 15.9446 8.3624 16.0007 8.15677C16.1715 7.58181 16.6787 7.19497 17.554 6.99239C18.6913 6.73032 19.0703 7.2294 19.0716 8.0057V9.84404C19.0716 10.7331 19.2368 10.8634 19.2368 10.8634L18.1874 11.1117C18.1295 10.9904 18.0824 10.8643 18.0468 10.7348C18.0468 10.7348 17.8168 11.3137 17.0245 11.4999C16.1923 11.6962 15.7516 11.1804 15.7516 10.4734ZM17.9374 9.16043C17.7605 9.28444 17.5738 9.39379 17.3791 9.48736C17.0293 9.65827 16.8712 9.86911 16.8712 10.1938C16.8712 10.475 17.0454 10.6597 17.3621 10.5815C17.7017 10.4958 17.9374 10.179 17.9374 9.73869V9.16043ZM1.61746 16.5095C1.49769 16.5094 1.38018 16.477 1.27729 16.4157C1.1744 16.3543 1.08994 16.2664 1.03281 16.1612C0.975682 16.0559 0.947991 15.9372 0.952654 15.8175C0.957316 15.6978 0.994161 15.5816 1.05931 15.4811L1.06675 15.4715L1.07914 15.4682L2.64619 15.0983V16.2882L2.62181 16.2939C2.33312 16.3634 2.04387 16.4306 1.75408 16.4954C1.70916 16.5049 1.66337 16.5096 1.61746 16.5095ZM1.61746 18.0318C1.44115 18.0319 1.27203 17.9619 1.14728 17.8373C1.02253 17.7127 0.95235 17.5437 0.952167 17.3674C0.951807 17.2389 0.989052 17.1131 1.05931 17.0056L1.06675 16.9946L1.07914 16.9913L2.64619 16.6215V17.8115L2.62181 17.8178C2.26637 17.9032 1.84153 18.0015 1.75408 18.019C1.70906 18.0277 1.66331 18.032 1.61746 18.0318ZM1.61746 19.5572C1.44107 19.557 1.27194 19.4869 1.1472 19.3622C1.02246 19.2375 0.952313 19.0684 0.952167 18.892C0.951697 18.7636 0.988952 18.6378 1.05931 18.5304L1.06675 18.5184L2.64619 18.1461V19.336L2.62181 19.3425C2.2464 19.4328 1.82954 19.527 1.75408 19.5435C1.7091 19.5526 1.66334 19.5571 1.61746 19.5572ZM2.64605 8.10623V14.7644L1.43251 15.0514L1.4321 8.39309L2.64605 8.10623ZM4.45617 14.4849C4.45751 14.3857 4.43913 14.2872 4.4021 14.1951C4.36506 14.1031 4.31011 14.0193 4.24043 13.9487C4.17075 13.878 4.08773 13.822 3.99619 13.7837C3.90466 13.7454 3.80643 13.7257 3.70721 13.7257C3.60799 13.7257 3.50976 13.7454 3.41822 13.7837C3.32669 13.822 3.24367 13.878 3.17399 13.9487C3.10431 14.0193 3.04935 14.1031 3.01232 14.1951C2.97528 14.2872 2.9569 14.3857 2.95825 14.4849L2.95963 20.7082C2.96028 21.2456 3.17395 21.7608 3.5538 22.1409C3.93365 22.521 4.4487 22.7351 4.98609 22.7362C5.55306 22.7362 7.1062 22.7334 7.1062 22.7334L7.10689 20.1372L7.10758 17.242C7.10776 17.0807 7.06809 16.9217 6.99211 16.7793C6.91612 16.6369 6.80616 16.5155 6.67199 16.4258L4.78255 15.1423L4.782 18.0568C4.782 18.0779 4.77783 18.0989 4.76973 18.1184C4.76164 18.138 4.74977 18.1557 4.73481 18.1707C4.71984 18.1857 4.70208 18.1975 4.68253 18.2056C4.66298 18.2137 4.64203 18.2179 4.62087 18.2179C4.59971 18.2179 4.57876 18.2137 4.55921 18.2056C4.53966 18.1975 4.5219 18.1857 4.50694 18.1707C4.49198 18.1557 4.48011 18.138 4.47201 18.1184C4.46392 18.0989 4.45975 18.0779 4.45975 18.0568C4.45975 18.0255 4.45617 14.8698 4.45617 14.4849ZM5.46768 9.84184C5.23807 9.89512 5.02266 9.99734 4.83619 10.1415C4.64971 10.2857 4.49655 10.4684 4.38717 10.6772V10.2093L3.29413 10.4679L3.29551 13.4563C3.48723 13.3805 3.69617 13.3592 3.89924 13.3947C4.10232 13.4302 4.29163 13.5211 4.44625 13.6575V11.7281C4.44625 11.2658 4.67623 10.8966 5.00482 10.8242C5.25202 10.7699 5.45845 10.8583 5.45845 11.2986L5.45928 14.1137L6.61057 13.8438V10.8657C6.61057 10.1437 6.33252 9.63899 5.46768 9.84184ZM22.1953 5.58027C22.0545 5.58041 21.9168 5.53877 21.7996 5.46063C21.6825 5.38248 21.5911 5.27134 21.5372 5.14128C21.4832 5.01121 21.4691 4.86806 21.4965 4.72994C21.5239 4.59182 21.5917 4.46494 21.6913 4.36536C21.7908 4.26578 21.9177 4.19797 22.0558 4.17052C22.1939 4.14306 22.3371 4.1572 22.4672 4.21113C22.5972 4.26506 22.7084 4.35637 22.7866 4.47349C22.8647 4.59062 22.9064 4.7283 22.9063 4.86912C22.9061 5.05766 22.8311 5.23843 22.6978 5.37178C22.5646 5.50513 22.3838 5.58002 22.1953 5.58027ZM22.1953 4.24665C22.0722 4.24662 21.9519 4.2831 21.8495 4.35145C21.7471 4.41981 21.6674 4.51699 21.6202 4.6307C21.5731 4.7444 21.5607 4.86953 21.5847 4.99026C21.6087 5.11098 21.668 5.22188 21.755 5.30894C21.842 5.39599 21.9529 5.45529 22.0736 5.47933C22.1943 5.50337 22.3194 5.49107 22.4332 5.44399C22.5469 5.39691 22.6441 5.31717 22.7125 5.21484C22.7809 5.11252 22.8174 4.9922 22.8175 4.86912C22.8173 4.70412 22.7517 4.54592 22.6351 4.42923C22.5184 4.31253 22.3603 4.24687 22.1953 4.24665Z" fill="#231F20"/>
<path d="M21.9365 4.44499H22.2432C22.2732 4.44178 22.3035 4.44536 22.3319 4.45548C22.3603 4.46559 22.386 4.48198 22.4072 4.50341C22.4284 4.52485 22.4445 4.55079 22.4543 4.5793C22.464 4.60781 22.4673 4.63816 22.4637 4.66809C22.4637 4.78088 22.4137 4.8675 22.3191 4.88223V4.88389C22.4052 4.8927 22.4505 4.94021 22.4549 5.06236C22.4565 5.11745 22.4574 5.18575 22.46 5.23891C22.46 5.25388 22.4639 5.26859 22.4711 5.2817C22.4783 5.29482 22.4887 5.30591 22.5013 5.31397H22.3444C22.3295 5.291 22.3214 5.26425 22.321 5.23685C22.3162 5.18493 22.3174 5.1359 22.3151 5.07283C22.3128 4.97808 22.2837 4.93649 22.1885 4.93649H22.0751V5.31383H21.9365V4.44499ZM22.1861 4.83197C22.2049 4.83368 22.2239 4.8312 22.2416 4.8247C22.2594 4.81819 22.2755 4.80783 22.2887 4.79435C22.302 4.78087 22.3121 4.76462 22.3183 4.74676C22.3246 4.7289 22.3268 4.70989 22.3247 4.69109C22.3247 4.5984 22.2848 4.54965 22.1934 4.54965H22.0751V4.83197H22.1861Z" fill="#231F20"/>
</g>
</svg>
