<svg width="44" height="14" viewBox="0 0 44 14" fill="none" xmlns="http://www.w3.org/2000/svg">
    <path d="M11.4488 0.630005H10.8298V13.3783H11.4488V0.630005Z" fill="#FF6300"/>
    <path d="M7.35191 3.11698L0.458572 4.97476C0.751141 4.36308 1.17247 3.82187 1.69371 3.3882C2.21494 2.95454 2.82375 2.63866 3.47844 2.46222C4.13313 2.28578 4.81822 2.25294 5.48678 2.36596C6.15535 2.47897 6.79158 2.73516 7.35191 3.11698Z" fill="#FF6300"/>
    <path d="M1.99905 10.8522L8.95154 9.02276C8.65768 9.64107 8.23238 10.1878 7.70537 10.6247C7.17835 11.0616 6.5623 11.3783 5.90025 11.5525C5.2382 11.7267 4.5461 11.7543 3.87229 11.6333C3.19847 11.5124 2.55918 11.2458 1.99905 10.8522Z" fill="#FF6300"/>
    <path d="M9.39596 7.32045C9.40281 7.21583 9.40672 7.11072 9.40672 7.00414C9.40825 6.03582 9.10932 5.09087 8.55116 4.2996L0.011739 6.66925C0.00391681 6.78023 5.61636e-06 6.89169 5.61636e-06 7.00414C-0.0014396 7.93752 0.276061 8.85003 0.796895 9.62458C2.36247 9.21082 7.05642 7.94924 9.06531 7.40932L9.39596 7.32045Z" fill="#FF6300"/>
    <path d="M18.0959 2.59998H19.752C19.7856 2.59998 19.8192 2.63412 19.8189 2.66826V8.63766C19.8189 10.2668 18.5321 11.5882 16.9543 11.5996H16.8983C15.3316 11.5996 14.0448 10.3351 14 8.7288C14 8.70594 14.0112 8.68323 14.0224 8.68323C14.0336 8.66051 14.0672 8.64909 14.0896 8.64909H15.7793C15.8129 8.64909 15.8465 8.68323 15.8465 8.71737C15.8465 8.91109 15.9025 9.1048 16.0032 9.27565C16.2047 9.58323 16.5627 9.77694 16.932 9.77694H16.9656C17.1335 9.77694 17.3013 9.73137 17.4468 9.65165C17.816 9.44665 18.0287 9.05937 18.0287 8.6378V2.66826C18.0287 2.63412 18.0623 2.59998 18.0959 2.59998Z" fill="#FF6300"/>
    <path d="M30.6166 5.22034H29.6319C29.5983 5.22034 29.5647 5.18619 29.5647 5.15205V2.66835C29.5647 2.63421 29.5311 2.60006 29.4975 2.60006H27.8414C27.8078 2.60006 27.7742 2.63421 27.7742 2.66835V5.03791C27.7742 5.07205 27.7406 5.10619 27.707 5.10619H27.1699C27.1363 5.10619 27.1027 5.14034 27.1027 5.17448V6.7469C27.1027 6.79247 27.1363 6.81518 27.1699 6.81518H27.707C27.7406 6.81518 27.7742 6.84933 27.7742 6.88347V8.99117C27.7742 10.4039 28.8821 11.5544 30.2585 11.5544C30.3799 11.5544 30.5013 11.5433 30.6228 11.5322L30.6278 11.5317C30.6614 11.5203 30.6838 11.4976 30.6838 11.4634V9.7316C30.6838 9.69746 30.6502 9.66331 30.6166 9.66331H30.225C29.9005 9.66331 29.5983 9.42403 29.5647 9.08232V6.99747C29.5647 6.9519 29.5983 6.92918 29.6319 6.92918H30.6166C30.6502 6.92918 30.6838 6.89504 30.6838 6.8609V5.30005C30.6838 5.25448 30.6502 5.22034 30.6166 5.22034Z" fill="#FF6300"/>
    <path fill-rule="evenodd" clip-rule="evenodd" d="M35.8323 5.34558C36.5932 5.66458 37.1863 6.27972 37.4884 7.043C37.6451 7.45314 37.7347 7.886 37.7233 8.30757C37.7233 8.75185 37.6451 9.1847 37.4884 9.59485C37.3317 9.98213 37.1079 10.324 36.8281 10.6201C36.5372 10.905 36.2016 11.1328 35.8323 11.2923C35.0267 11.6113 34.1427 11.6113 33.3369 11.2923C32.9565 11.1441 32.6208 10.9163 32.3299 10.6201C32.0501 10.324 31.8375 9.97084 31.692 9.59485C31.5355 9.18485 31.4571 8.75185 31.4571 8.30757C31.4459 7.87457 31.5353 7.44171 31.692 7.03157C31.8375 6.65572 32.0501 6.31386 32.3299 6.01772C32.6208 5.73287 32.9565 5.49373 33.3369 5.34558C34.1313 5.01516 35.0265 5.01516 35.8323 5.34558ZM34.0867 6.90629C33.93 6.96329 33.7957 7.05443 33.6839 7.16829C33.5496 7.305 33.46 7.476 33.4041 7.65828C33.2475 8.10257 33.2475 8.58114 33.4041 9.01399C33.4712 9.19628 33.572 9.3557 33.6951 9.49242C33.8069 9.61785 33.9412 9.70899 34.0979 9.77727C34.4112 9.90256 34.7692 9.90256 35.0937 9.77727C35.2504 9.70884 35.3959 9.6177 35.5077 9.49242C35.6308 9.3557 35.7315 9.19628 35.7987 9.01399C35.9441 8.56957 35.9441 8.09114 35.7987 7.64686C35.7316 7.47586 35.6308 7.31643 35.5077 7.17972C35.3847 7.06572 35.2504 6.96329 35.0937 6.90629C34.7692 6.781 34.4112 6.781 34.0867 6.90629Z" fill="#FF6300"/>
    <path d="M44 11.5316V7.66957C44 7.35057 43.9553 7.043 43.8656 6.73543C43.7873 6.45058 43.6419 6.17715 43.4516 5.9493C43.2615 5.71001 43.0152 5.52773 42.7355 5.40244C42.0641 5.14044 41.3368 5.15187 40.6877 5.44801C40.5759 5.49358 40.4639 5.56201 40.3632 5.64173C40.352 5.65315 40.3408 5.65315 40.3296 5.64173C40.3184 5.63044 40.3184 5.61901 40.3184 5.60758V5.28859C40.3184 5.25444 40.296 5.2203 40.2512 5.2203H38.5951C38.5615 5.2203 38.5279 5.25444 38.5279 5.28859V11.5314C38.5279 11.5656 38.5615 11.5997 38.5951 11.5997H40.2512C40.2848 11.5997 40.3184 11.5656 40.3184 11.5314V7.93143C40.3184 7.829 40.3184 7.73786 40.3408 7.63529C40.3632 7.51 40.3967 7.39615 40.4639 7.29358C40.6429 7.03143 40.9227 6.87201 41.236 6.87201C41.4039 6.87201 41.6724 6.91758 41.8179 7.02015C41.8448 7.03387 41.8676 7.05579 41.8912 7.07851C41.9069 7.09361 41.923 7.10909 41.9409 7.12272C42.0417 7.22529 42.12 7.362 42.1648 7.49872C42.1984 7.65814 42.2208 7.81771 42.2096 7.97714V11.5316C42.2096 11.5657 42.2432 11.5998 42.2768 11.5998H43.9328C43.9664 11.5998 44 11.5657 44 11.5316Z" fill="#FF6300"/>
    <path fill-rule="evenodd" clip-rule="evenodd" d="M25.57 5.76715C25.6034 5.78986 25.637 5.81272 25.6594 5.83543C26.0288 6.16586 26.3197 6.576 26.4877 7.05443C26.7226 7.64685 26.7562 8.30756 26.5772 8.93413C26.5772 8.96828 26.5436 8.9797 26.5212 8.9797H22.6382C22.627 8.9797 22.627 8.9797 22.6158 8.99113V9.02528C22.7389 9.41256 23.0298 9.72013 23.3992 9.86827C23.4048 9.86827 23.4076 9.87113 23.4104 9.87399C23.4132 9.87684 23.416 9.8797 23.4216 9.8797C23.8244 10.0278 24.2719 9.98227 24.6301 9.74299L24.6413 9.73156C24.6749 9.7087 24.7308 9.68599 24.7756 9.67456C24.8204 9.66327 24.865 9.67456 24.8986 9.68599L26.3757 10.1076C26.3869 10.1076 26.3981 10.1076 26.3981 10.119C26.4093 10.119 26.4205 10.1417 26.4205 10.1531C26.4205 10.1646 26.4205 10.1873 26.4093 10.1987C25.8945 11.0076 25.0329 11.5317 24.0817 11.6H23.8802C23.8284 11.6 23.7795 11.5969 23.7321 11.594C23.6874 11.5912 23.6439 11.5885 23.6005 11.5885C23.2199 11.5771 22.8507 11.4974 22.4926 11.3493C22.1122 11.1898 21.7765 10.962 21.4967 10.6771C21.217 10.3924 20.9931 10.0393 20.8477 9.66327C20.691 9.25313 20.6127 8.82028 20.6127 8.38728C20.6127 7.95428 20.691 7.52143 20.8477 7.11129C21.0043 6.73543 21.2282 6.38229 21.5079 6.09743C21.7877 5.81258 22.1233 5.58472 22.4926 5.42529C22.7389 5.32287 23.0074 5.25444 23.2759 5.2203H23.3207C24.1041 5.08358 24.9209 5.28872 25.57 5.76715ZM22.6269 7.49871H24.8425C24.8315 7.47614 24.8202 7.453 24.8201 7.43028C24.6746 7.20243 24.4731 7.03157 24.227 6.929C23.9025 6.80372 23.5445 6.80372 23.2199 6.929C23.0633 6.986 22.929 7.07714 22.8171 7.20243C22.7873 7.23279 22.7575 7.27323 22.7277 7.3137C22.7128 7.33397 22.6978 7.35426 22.6829 7.37328L22.6717 7.39614C22.6493 7.43042 22.6381 7.46457 22.6269 7.49871Z" fill="#FF6300"/>
</svg>
