<svg width="72" height="40" viewBox="0 0 72 40" fill="none" xmlns="http://www.w3.org/2000/svg">
    <rect x="0.5" y="0.5" width="71" height="39" rx="15.5" fill="#110A1D"/>
    <path d="M25.4488 13.6299H24.8298V26.3781H25.4488V13.6299Z" fill="#FF6300"/>
    <path d="M21.3519 16.1169L14.4586 17.9746C14.7511 17.363 15.1725 16.8217 15.6937 16.3881C16.2149 15.9544 16.8238 15.6385 17.4784 15.4621C18.1331 15.2857 18.8182 15.2528 19.4868 15.3658C20.1553 15.4788 20.7916 15.735 21.3519 16.1169Z" fill="#FF6300"/>
    <path d="M15.999 23.8521L22.9515 22.0226C22.6577 22.6409 22.2324 23.1877 21.7054 23.6246C21.1783 24.0615 20.5623 24.3781 19.9003 24.5524C19.2382 24.7266 18.5461 24.7541 17.8723 24.6332C17.1985 24.5122 16.5592 24.2457 15.999 23.8521Z" fill="#FF6300"/>
    <path d="M23.396 20.3203C23.4028 20.2157 23.4067 20.1106 23.4067 20.004C23.4082 19.0357 23.1093 18.0908 22.5512 17.2995L14.0117 19.6691C14.0039 19.7801 14 19.8916 14 20.004C13.9986 20.9374 14.2761 21.8499 14.7969 22.6245C16.3625 22.2107 21.0564 20.9491 23.0653 20.4092L23.396 20.3203Z" fill="#FF6300"/>
    <path d="M32.0959 15.5999H33.752C33.7856 15.5999 33.8192 15.634 33.8189 15.6681V21.6375C33.8189 23.2667 32.5321 24.5881 30.9543 24.5995H30.8983C29.3316 24.5995 28.0448 23.335 28 21.7287C28 21.7058 28.0112 21.6831 28.0224 21.6831C28.0336 21.6604 28.0672 21.649 28.0896 21.649H29.7793C29.8129 21.649 29.8465 21.6831 29.8465 21.7172C29.8465 21.911 29.9025 22.1047 30.0032 22.2755C30.2047 22.5831 30.5627 22.7768 30.932 22.7768H30.9656C31.1335 22.7768 31.3013 22.7312 31.4468 22.6515C31.816 22.4465 32.0287 22.0592 32.0287 21.6377V15.6681C32.0287 15.634 32.0623 15.5999 32.0959 15.5999Z" fill="#FF6300"/>
    <path d="M44.6166 18.2202H43.6319C43.5983 18.2202 43.5647 18.1861 43.5647 18.1519V15.6682C43.5647 15.6341 43.5311 15.5999 43.4975 15.5999H41.8414C41.8078 15.5999 41.7742 15.6341 41.7742 15.6682V18.0378C41.7742 18.0719 41.7406 18.1061 41.707 18.1061H41.1699C41.1363 18.1061 41.1027 18.1402 41.1027 18.1744V19.7468C41.1027 19.7923 41.1363 19.8151 41.1699 19.8151H41.707C41.7406 19.8151 41.7742 19.8492 41.7742 19.8833V21.9911C41.7742 23.4038 42.8821 24.5543 44.2585 24.5543C44.3799 24.5543 44.5013 24.5432 44.6228 24.5321L44.6278 24.5316C44.6614 24.5202 44.6838 24.4975 44.6838 24.4633V22.7315C44.6838 22.6973 44.6502 22.6632 44.6166 22.6632H44.225C43.9005 22.6632 43.5983 22.4239 43.5647 22.0822V19.9973C43.5647 19.9518 43.5983 19.9291 43.6319 19.9291H44.6166C44.6502 19.9291 44.6838 19.8949 44.6838 19.8608V18.2999C44.6838 18.2544 44.6502 18.2202 44.6166 18.2202Z" fill="#FF6300"/>
    <path fill-rule="evenodd" clip-rule="evenodd" d="M49.8323 18.3455C50.5932 18.6645 51.1863 19.2796 51.4884 20.0429C51.6451 20.453 51.7347 20.8859 51.7233 21.3074C51.7233 21.7517 51.6451 22.1846 51.4884 22.5947C51.3317 22.982 51.1079 23.3239 50.8281 23.62C50.5372 23.9049 50.2016 24.1327 49.8323 24.2921C49.0267 24.6111 48.1427 24.6111 47.3369 24.2921C46.9565 24.144 46.6208 23.9161 46.3299 23.62C46.0501 23.3239 45.8375 22.9707 45.692 22.5947C45.5355 22.1847 45.4571 21.7517 45.4571 21.3074C45.4459 20.8744 45.5353 20.4416 45.692 20.0315C45.8375 19.6556 46.0501 19.3137 46.3299 19.0176C46.6208 18.7327 46.9565 18.4936 47.3369 18.3455C48.1313 18.015 49.0265 18.015 49.8323 18.3455ZM48.0867 19.9062C47.93 19.9632 47.7957 20.0543 47.6839 20.1682C47.5496 20.3049 47.46 20.4759 47.4041 20.6582C47.2475 21.1024 47.2475 21.581 47.4041 22.0139C47.4712 22.1962 47.572 22.3556 47.6951 22.4923C47.8069 22.6177 47.9412 22.7089 48.0979 22.7772C48.4112 22.9024 48.7692 22.9024 49.0937 22.7772C49.2504 22.7087 49.3959 22.6176 49.5077 22.4923C49.6308 22.3556 49.7315 22.1962 49.7987 22.0139C49.9441 21.5694 49.9441 21.091 49.7987 20.6467C49.7316 20.4757 49.6308 20.3163 49.5077 20.1796C49.3847 20.0656 49.2504 19.9632 49.0937 19.9062C48.7692 19.7809 48.4112 19.7809 48.0867 19.9062Z" fill="#FF6300"/>
    <path d="M58 24.5314V20.6695C58 20.3505 57.9553 20.0429 57.8656 19.7353C57.7873 19.4505 57.6419 19.177 57.4516 18.9492C57.2615 18.7099 57.0152 18.5276 56.7355 18.4023C56.0641 18.1403 55.3368 18.1518 54.6877 18.4479C54.5759 18.4935 54.4639 18.5619 54.3632 18.6416C54.352 18.653 54.3408 18.653 54.3296 18.6416C54.3184 18.6303 54.3184 18.6189 54.3184 18.6075V18.2885C54.3184 18.2543 54.296 18.2202 54.2512 18.2202H52.5951C52.5615 18.2202 52.5279 18.2543 52.5279 18.2885V24.5313C52.5279 24.5654 52.5615 24.5996 52.5951 24.5996H54.2512C54.2848 24.5996 54.3184 24.5654 54.3184 24.5313V20.9313C54.3184 20.8289 54.3184 20.7377 54.3408 20.6352C54.3632 20.5099 54.3967 20.396 54.4639 20.2935C54.6429 20.0313 54.9227 19.8719 55.236 19.8719C55.4039 19.8719 55.6724 19.9175 55.8179 20.02C55.8448 20.0338 55.8676 20.0557 55.8912 20.0784C55.9069 20.0935 55.923 20.109 55.9409 20.1226C56.0417 20.2252 56.12 20.3619 56.1648 20.4986C56.1984 20.658 56.2208 20.8176 56.2096 20.977V24.5314C56.2096 24.5656 56.2432 24.5997 56.2768 24.5997H57.9328C57.9664 24.5997 58 24.5656 58 24.5314Z" fill="#FF6300"/>
    <path fill-rule="evenodd" clip-rule="evenodd" d="M39.57 18.767C39.6034 18.7897 39.637 18.8126 39.6594 18.8353C40.0288 19.1657 40.3197 19.5759 40.4877 20.0543C40.7226 20.6467 40.7562 21.3074 40.5772 21.934C40.5772 21.9682 40.5436 21.9796 40.5212 21.9796H36.6382C36.627 21.9796 36.627 21.9796 36.6158 21.991V22.0252C36.7389 22.4124 37.0298 22.72 37.3992 22.8681C37.4048 22.8681 37.4076 22.871 37.4104 22.8739C37.4132 22.8767 37.416 22.8796 37.4216 22.8796C37.8244 23.0277 38.2719 22.9821 38.6301 22.7429L38.6413 22.7314C38.6749 22.7086 38.7308 22.6859 38.7756 22.6744C38.8204 22.6632 38.865 22.6744 38.8986 22.6859L40.3757 23.1074C40.3869 23.1074 40.3981 23.1074 40.3981 23.1189C40.4093 23.1189 40.4205 23.1416 40.4205 23.153C40.4205 23.1644 40.4205 23.1871 40.4093 23.1986C39.8945 24.0074 39.0329 24.5316 38.0817 24.5999H37.8802C37.8284 24.5999 37.7795 24.5968 37.7321 24.5939C37.6874 24.5911 37.6439 24.5884 37.6005 24.5884C37.2199 24.577 36.8507 24.4973 36.4926 24.3491C36.1122 24.1897 35.7765 23.9619 35.4967 23.677C35.217 23.3923 34.9931 23.0391 34.8477 22.6632C34.691 22.253 34.6127 21.8202 34.6127 21.3872C34.6127 20.9542 34.691 20.5213 34.8477 20.1112C35.0043 19.7353 35.2282 19.3822 35.5079 19.0973C35.7877 18.8125 36.1233 18.5846 36.4926 18.4252C36.7389 18.3227 37.0074 18.2543 37.2759 18.2202H37.3207C38.1041 18.0835 38.9209 18.2886 39.57 18.767ZM36.6269 20.4986H38.8425C38.8315 20.476 38.8202 20.4529 38.8201 20.4302C38.6746 20.2023 38.4731 20.0314 38.227 19.9289C37.9025 19.8036 37.5445 19.8036 37.2199 19.9289C37.0633 19.9859 36.929 20.077 36.8171 20.2023C36.7873 20.2327 36.7575 20.2731 36.7277 20.3136C36.7128 20.3339 36.6978 20.3541 36.6829 20.3732L36.6717 20.396C36.6493 20.4303 36.6381 20.4644 36.6269 20.4986Z" fill="#FF6300"/>
    <rect x="0.5" y="0.5" width="71" height="39" rx="15.5" stroke="url(#paint0_linear_1429_7796)"/>
    <defs>
        <linearGradient id="paint0_linear_1429_7796" x1="0" y1="0" x2="74.8062" y2="33.7869" gradientUnits="userSpaceOnUse">
            <stop stop-color="white" stop-opacity="0.24"/>
            <stop offset="1" stop-color="white" stop-opacity="0.14"/>
        </linearGradient>
    </defs>
</svg>
