<svg width="73" height="21" viewBox="0 0 73 21" fill="none" xmlns="http://www.w3.org/2000/svg">
<path d="M10.3009 0.0814209C4.62438 0.0814209 0.0224609 4.68334 0.0224609 10.3598C0.0224609 16.0363 4.62438 20.6382 10.3009 20.6382C15.9773 20.6382 20.5793 16.0363 20.5793 10.3598C20.5676 4.68334 15.9744 0.0814209 10.3009 0.0814209ZM10.4527 10.6898L9.38982 14.3018H15.1013C15.3028 14.3018 15.4313 14.4916 15.3846 14.6785L14.8882 16.3896C14.8415 16.5561 14.6867 16.6729 14.5115 16.6729H5.7807L7.2553 11.6826L5.62594 12.1907L5.97926 11.011L7.6203 10.5029L9.69642 3.4949C9.74314 3.32846 9.8979 3.21166 10.0731 3.21166H12.2806C12.4821 3.21166 12.6106 3.40146 12.5639 3.58834L10.806 9.51302L12.4354 9.00494L12.0821 10.1963L10.4527 10.6898Z" fill="#345D9D"/>
<path d="M26.5126 3.19708H25.876C25.7592 3.19708 25.6745 3.26716 25.6512 3.38688L24.0014 16.4714C23.9897 16.5999 24.0247 16.6612 24.1561 16.6612H24.7927C24.9212 16.6612 24.9942 16.6028 25.0175 16.4714L26.6819 3.38396C26.714 3.25548 26.644 3.19708 26.5126 3.19708Z" fill="#345D9D"/>
<path d="M29.8536 6.97266H29.2171C29.1003 6.97266 29.0156 7.03106 28.9922 7.16246L27.8125 16.486C27.8009 16.6145 27.8709 16.6758 27.9907 16.6758H28.6272C28.744 16.6758 28.8287 16.6174 28.8521 16.486L30.0201 7.17414C30.0317 7.04274 29.9821 6.97266 29.8536 6.97266Z" fill="#345D9D"/>
<path d="M57.7735 6.82077C56.8888 6.82077 56.1208 7.06897 55.4726 7.57705C54.8243 8.08513 54.398 8.74505 54.1878 9.57141C54.0097 10.243 53.8578 11.1891 53.7877 11.8257C53.6943 12.6871 53.6096 13.3937 53.6096 14.0799C53.6213 14.9179 53.8929 15.5779 54.4009 16.0859C54.9207 16.5823 55.6273 16.8422 56.5238 16.8422C57.3969 16.8422 58.1648 16.594 58.8131 16.0859C59.4613 15.5895 59.8876 14.9179 60.1008 14.0799C60.2409 13.5251 60.384 12.7805 60.5008 11.8257C60.6176 10.8329 60.6789 10.0795 60.6789 9.55973C60.6789 8.73337 60.4191 8.07345 59.8993 7.57705C59.3679 7.06897 58.6583 6.82077 57.7735 6.82077ZM59.5664 10.9146C59.508 11.3877 59.473 11.6943 59.4613 11.8227C59.3445 12.7893 59.2365 13.4755 59.143 13.8872C59.0029 14.5004 58.6933 14.9968 58.2349 15.3735C57.7735 15.7501 57.2304 15.9283 56.6289 15.9283C56.0157 15.9283 55.531 15.7385 55.166 15.3735C54.801 15.0085 54.6229 14.5237 54.6229 13.9222C54.6229 13.6039 54.6579 13.201 54.7163 12.7309C54.7747 12.2578 54.8097 11.9512 54.8214 11.8227C54.9382 10.9029 55.0463 10.2167 55.1397 9.75829C55.2828 9.14509 55.5894 8.64869 56.0478 8.27201C56.5092 7.89533 57.0523 7.71721 57.6538 7.71721C58.267 7.71721 58.7517 7.90701 59.1167 8.26033C59.4817 8.62533 59.6599 9.11005 59.6599 9.71157C59.6628 10.0532 59.6248 10.4416 59.5664 10.9146Z" fill="#345D9D"/>
<path d="M64.3124 6.97266H63.6875C63.5707 6.97266 63.486 7.04274 63.4626 7.16246L62.2713 16.486C62.2596 16.6145 62.3297 16.6758 62.4494 16.6758H63.086C63.2028 16.6758 63.2874 16.6174 63.3108 16.486L64.4788 7.17414C64.4876 7.04274 64.4408 6.97266 64.3124 6.97266Z" fill="#345D9D"/>
<path d="M72.359 7.52746C71.921 7.0661 71.3078 6.84418 70.5048 6.84418C69.985 6.84418 69.5149 6.93762 69.0769 7.1391C68.6389 7.34058 68.2739 7.6355 67.9673 8.03554C67.9089 8.08226 67.8855 8.07058 67.8855 8.0005L67.979 7.17414C67.9907 7.05734 67.9439 6.98434 67.8242 6.98434H67.1877C67.0709 6.98434 66.9862 7.05442 66.9628 7.17414L65.7948 16.486C65.7831 16.6057 65.8182 16.6758 65.9496 16.6758H66.5861C66.7029 16.6758 66.7876 16.6057 66.7993 16.486L67.649 9.80798C67.7892 9.1831 68.087 8.67502 68.5221 8.31002C68.9601 7.94502 69.4769 7.75522 70.0931 7.75522C70.6595 7.75522 71.1092 7.93334 71.4392 8.28666C71.7691 8.63998 71.9356 9.11302 71.9356 9.71454C71.9356 9.89266 71.9239 10.0328 71.9122 10.1379L71.0975 16.486C71.0975 16.5444 71.0975 16.5795 71.1209 16.6145C71.1559 16.6495 71.2027 16.6729 71.2757 16.6729H71.9122C72.029 16.6729 72.1137 16.6145 72.1254 16.4831L72.9401 9.98026C72.9634 9.72038 72.9751 9.53058 72.9751 9.4021C73.0072 8.60202 72.797 7.97714 72.359 7.52746Z" fill="#345D9D"/>
<path d="M30.2674 3.20881C29.8907 3.00733 29.406 3.15041 29.2162 3.53877C29.0147 3.91545 29.1695 4.40017 29.5462 4.60165C29.9229 4.80313 30.3959 4.64837 30.5974 4.27169C30.7959 3.88041 30.6558 3.41029 30.2674 3.20881Z" fill="#345D9D"/>
<path d="M64.7718 3.20872C64.3951 3.00724 63.9104 3.15032 63.7206 3.53868C63.5191 3.91536 63.6739 4.40008 64.0506 4.60156C64.4273 4.80304 64.912 4.64828 65.1134 4.2716C65.3032 3.88032 65.1514 3.4102 64.7718 3.20872Z" fill="#345D9D"/>
<path d="M49.4679 6.82068C48.5831 6.82068 47.8152 7.08056 47.1669 7.57696C46.5187 8.08504 46.0924 8.74496 45.8821 9.57132C45.704 10.2429 45.5405 11.3058 45.4821 11.8256C45.4003 12.5818 45.304 13.3936 45.304 14.0798C45.3156 14.9178 45.5872 15.5778 46.0953 16.0858C46.615 16.5822 47.3217 16.8421 48.221 16.8421C49.0941 16.8421 49.8621 16.5939 50.5103 16.0858C51.1586 15.5894 51.5849 14.9178 51.7951 14.0798C51.8068 14.0097 51.8302 13.9367 51.8418 13.8666C51.8535 13.8082 51.8068 13.7615 51.7601 13.7615H50.9688C50.922 13.7615 50.8636 13.7849 50.852 13.855C50.852 13.8666 50.8403 13.89 50.8403 13.89C50.6972 14.5032 50.3906 14.9996 49.9322 15.3763C49.4708 15.753 48.9277 15.9311 48.3262 15.9311C47.713 15.9311 47.2282 15.7413 46.8632 15.3763C46.4982 15.0113 46.3201 14.5266 46.3201 13.925C46.3201 13.6068 46.3552 13.2038 46.4136 12.7337C46.4603 12.3336 46.507 11.954 46.5187 11.8256C46.6355 10.9058 46.7435 10.2196 46.837 9.76112C46.9771 9.14792 47.2866 8.65152 47.7451 8.27484C48.2064 7.89816 48.7496 7.72004 49.3511 7.72004C49.9526 7.72004 50.449 7.89816 50.814 8.26316C51.179 8.62816 51.3571 9.11288 51.3571 9.7144V9.72608C51.3571 9.80784 51.4272 9.88084 51.5119 9.88084H52.2565C52.3149 9.88084 52.3733 9.83412 52.3733 9.76404C52.3733 9.68228 52.3733 9.60928 52.3733 9.5392C52.3733 8.71284 52.1134 8.05292 51.5936 7.55652C51.0593 7.06888 50.3643 6.82068 49.4679 6.82068Z" fill="#345D9D"/>
<path d="M43.0566 7.57418C42.5368 7.07778 41.8302 6.8179 40.9454 6.8179C40.0607 6.8179 39.2927 7.0661 38.6445 7.57418C37.9962 8.08226 37.5699 8.74218 37.3597 9.56854C37.1815 10.2401 37.0998 10.8446 36.9596 11.8228C36.8311 12.7893 36.7815 13.3908 36.7815 14.077C36.7932 14.9151 37.0647 15.575 37.5728 16.0831C38.0926 16.5795 38.7992 16.8393 39.6957 16.8393C40.5687 16.8393 41.3367 16.5911 41.9849 16.0831C42.6332 15.5867 43.0595 14.9151 43.2697 14.077C43.2814 14.0069 43.3048 13.9339 43.3165 13.8639C43.3281 13.8055 43.2931 13.7587 43.2347 13.7587H42.4434C42.3967 13.7587 42.3383 13.7821 42.3266 13.8522C42.3266 13.8639 42.3149 13.8872 42.3149 13.8872C42.1747 14.5004 41.8652 14.9968 41.4068 15.3735C40.9454 15.7502 40.4052 15.9283 39.8008 15.9283C39.1876 15.9283 38.7029 15.7385 38.3379 15.3735C37.9729 15.0085 37.7947 14.5238 37.7947 13.9223C37.7947 13.639 37.8181 13.2857 37.8648 12.8827L43.5997 11.1015C43.7165 11.0665 43.7661 11.0081 43.7895 10.865C43.8245 10.5701 43.8479 10.062 43.8479 9.54226C43.8362 8.8035 43.5763 8.07058 43.0566 7.57418ZM42.8347 10.2547C42.8347 10.3131 42.7996 10.3599 42.7412 10.3715L37.9845 11.8461C37.9845 11.8345 37.9845 11.8345 37.9845 11.8228C38.1013 10.903 38.2094 10.2168 38.3028 9.75834C38.443 9.14514 38.7525 8.64874 39.2109 8.27206C39.6723 7.89538 40.2154 7.71726 40.8169 7.71726C41.4301 7.71726 41.9149 7.90706 42.2799 8.26038C42.858 8.8619 42.8697 9.4751 42.8347 10.2547Z" fill="#345D9D"/>
<path d="M34.5981 15.6479C34.7149 15.5895 34.8463 15.6713 34.8229 15.8027L34.7411 16.4393C34.7295 16.521 34.6711 16.594 34.601 16.6291C34.0345 16.8422 33.2432 16.9357 32.6066 16.6524C31.8737 16.3225 31.6868 15.6012 31.7919 14.7048L32.63 7.87198L32.7468 6.89378L33.03 4.72129C33.0417 4.59281 33.1235 4.53149 33.2549 4.53149H33.8681C34.0082 4.53149 34.0462 4.61325 34.0228 4.72129L33.6578 7.81358H35.6522C35.769 7.81358 35.8186 7.88366 35.8186 8.00338L35.7602 8.45306C35.7485 8.52314 35.7369 8.55818 35.7018 8.60782C35.6668 8.64286 35.5967 8.65454 35.5471 8.65454H33.5644L32.8694 14.2609C32.7993 14.8625 32.7176 15.4056 33.0242 15.7005C33.4184 16.0246 34.1951 15.8348 34.5981 15.6479Z" fill="#345D9D"/>
</svg>
