<svg width="32" height="24" viewBox="0 0 32 24" fill="none" xmlns="http://www.w3.org/2000/svg">
<path d="M30.8169 23.6721V23.7338H30.8745C30.8853 23.734 30.8959 23.7313 30.9053 23.726C30.909 23.7233 30.9121 23.7198 30.9141 23.7156C30.9161 23.7115 30.9171 23.707 30.9169 23.7024C30.9171 23.6979 30.9161 23.6934 30.9141 23.6894C30.9121 23.6854 30.909 23.6819 30.9053 23.6794C30.896 23.6738 30.8853 23.6711 30.8745 23.6715H30.8169V23.6721ZM30.8751 23.6285C30.8997 23.627 30.9241 23.6341 30.9442 23.6485C30.9522 23.6551 30.9586 23.6635 30.9628 23.673C30.967 23.6824 30.9689 23.6928 30.9684 23.7031C30.9687 23.7121 30.9672 23.721 30.9638 23.7292C30.9605 23.7375 30.9554 23.745 30.9489 23.7511C30.9335 23.7645 30.9141 23.7726 30.8937 23.7741L30.9708 23.862H30.9115L30.8405 23.7747H30.8175V23.862H30.7679V23.6287H30.8758L30.8751 23.6285ZM30.8596 23.9425C30.8857 23.9427 30.9115 23.9375 30.9354 23.9271C30.9584 23.9172 30.9793 23.903 30.9971 23.8853C31.0148 23.8676 31.029 23.8467 31.0389 23.8236C31.0591 23.7747 31.0591 23.7198 31.0389 23.6709C31.0289 23.6479 31.0147 23.627 30.9971 23.6092C30.9793 23.5915 30.9584 23.5773 30.9354 23.5674C30.9114 23.5576 30.8856 23.5527 30.8596 23.5529C30.8332 23.5527 30.807 23.5576 30.7825 23.5674C30.759 23.5771 30.7376 23.5913 30.7195 23.6092C30.6922 23.6372 30.6737 23.6726 30.6664 23.711C30.6591 23.7494 30.6632 23.7891 30.6783 23.8251C30.6877 23.8483 30.7017 23.8693 30.7195 23.8868C30.7376 23.9047 30.759 23.9189 30.7825 23.9286C30.8069 23.939 30.8332 23.9443 30.8596 23.944M30.8596 23.4968C30.9274 23.4967 30.9925 23.5233 31.0409 23.5708C31.0642 23.5936 31.0827 23.6208 31.0955 23.6509C31.1086 23.6817 31.1154 23.7149 31.1154 23.7484C31.1154 23.7819 31.1086 23.8151 31.0955 23.846C31.0824 23.8758 31.0639 23.903 31.0409 23.926C31.0172 23.9487 30.9897 23.967 30.9596 23.98C30.928 23.9934 30.894 24.0002 30.8596 24C30.8249 24.0003 30.7905 23.9935 30.7585 23.98C30.728 23.9673 30.7003 23.949 30.6766 23.926C30.6535 23.9021 30.6353 23.8741 30.6228 23.8433C30.6096 23.8125 30.6028 23.7793 30.6028 23.7458C30.6028 23.7123 30.6096 23.6791 30.6228 23.6482C30.6355 23.6182 30.654 23.591 30.6774 23.5682C30.7007 23.5448 30.7286 23.5265 30.7592 23.5142C30.7913 23.5007 30.8257 23.4939 30.8604 23.4942M7.24461 22.5957C7.24461 22.1507 7.5361 21.7852 8.0125 21.7852C8.46778 21.7852 8.77499 22.135 8.77499 22.5957C8.77499 23.0563 8.46778 23.4061 8.0125 23.4061C7.5361 23.4061 7.24461 23.0406 7.24461 22.5957ZM9.29396 22.5957V21.3295H8.74353V21.6379C8.56895 21.41 8.30414 21.267 7.94403 21.267C7.23459 21.267 6.67783 21.8234 6.67783 22.5963C6.67783 23.3691 7.23428 23.9255 7.94403 23.9255C8.30399 23.9255 8.56895 23.7824 8.74353 23.5546V23.862H9.29335V22.5957H9.29396ZM27.8923 22.5957C27.8923 22.1507 28.1838 21.7852 28.6604 21.7852C29.1161 21.7852 29.4229 22.135 29.4229 22.5957C29.4229 23.0563 29.1161 23.4061 28.6604 23.4061C28.184 23.4061 27.8923 23.0406 27.8923 22.5957ZM29.9423 22.5957V20.3131H29.3914V21.6379C29.2168 21.41 28.952 21.267 28.5919 21.267C27.8825 21.267 27.3257 21.8234 27.3257 22.5963C27.3257 23.3691 27.8822 23.9255 28.5919 23.9255C28.952 23.9255 29.2168 23.7824 29.3914 23.5546V23.862H29.9423V22.5957ZM16.1255 21.7591C16.4803 21.7591 16.7081 21.9815 16.7662 22.3731H15.4528C15.5116 22.0076 15.7335 21.7591 16.1257 21.7591M16.1366 21.2656C15.3948 21.2656 14.8759 21.8054 14.8759 22.5949C14.8759 23.3998 15.4156 23.9242 16.1735 23.9242C16.5548 23.9242 16.9039 23.829 17.2111 23.5694L16.9414 23.1615C16.7292 23.3312 16.459 23.4263 16.205 23.4263C15.8503 23.4263 15.5273 23.2621 15.4479 22.8063H17.3274C17.3328 22.7378 17.3384 22.6688 17.3384 22.5947C17.3328 21.8056 16.8449 21.2655 16.1363 21.2655M22.7819 22.5947C22.7819 22.1498 23.0734 21.7843 23.5498 21.7843C24.0051 21.7843 24.3123 22.1341 24.3123 22.5947C24.3123 23.0554 24.0051 23.4052 23.5498 23.4052C23.0734 23.4052 22.7818 23.0397 22.7818 22.5947M24.8311 22.5947V21.3295H24.281V21.6379C24.1058 21.41 23.8416 21.267 23.4815 21.267C22.7721 21.267 22.2153 21.8234 22.2153 22.5963C22.2153 23.3691 22.7717 23.9255 23.4815 23.9255C23.8416 23.9255 24.1058 23.7824 24.281 23.5546V23.862H24.8313V22.5957L24.8311 22.5947ZM19.6735 22.5947C19.6735 23.3626 20.2081 23.924 21.0239 23.924C21.4052 23.924 21.6592 23.8392 21.9338 23.6222L21.6695 23.1772C21.4628 23.3258 21.2458 23.4052 21.0063 23.4052C20.5669 23.3998 20.2438 23.0821 20.2438 22.5947C20.2438 22.1074 20.5669 21.7898 21.0063 21.7843C21.2452 21.7843 21.4622 21.8637 21.6695 22.0122L21.9338 21.5673C21.6587 21.3503 21.4047 21.2655 21.0239 21.2655C20.2081 21.2655 19.6735 21.8267 19.6735 22.5947ZM26.7694 21.2655C26.4519 21.2655 26.2451 21.414 26.1021 21.6364V21.3295H25.5566V23.8606H26.1076V22.4417C26.1076 22.0229 26.2876 21.7901 26.6474 21.7901C26.7653 21.7884 26.8823 21.8101 26.9917 21.8538L27.1613 21.335C27.0395 21.287 26.8806 21.2659 26.7691 21.2659M12.0153 21.5307C11.7505 21.3561 11.3856 21.2659 10.983 21.2659C10.3418 21.2659 9.92891 21.5733 9.92891 22.0762C9.92891 22.4889 10.2363 22.7436 10.8023 22.823L11.0623 22.86C11.3641 22.9024 11.5066 22.9818 11.5066 23.1248C11.5066 23.3205 11.3061 23.4322 10.9297 23.4322C10.5484 23.4322 10.2733 23.3103 10.0878 23.1674L9.82913 23.5966C10.1309 23.819 10.5122 23.9251 10.9251 23.9251C11.6561 23.9251 12.0797 23.5808 12.0797 23.0989C12.0797 22.6539 11.7463 22.4212 11.1954 22.3418L10.936 22.3042C10.6977 22.2733 10.5068 22.2254 10.5068 22.0557C10.5068 21.8706 10.6868 21.7593 10.9887 21.7593C11.3119 21.7593 11.6246 21.8811 11.7779 21.9763L12.0162 21.5313L12.0153 21.5307ZM19.1175 21.2664C18.8 21.2664 18.5932 21.4149 18.4508 21.6373V21.3295H17.9053V23.8606H18.4557V22.4417C18.4557 22.0229 18.6357 21.7901 18.9955 21.7901C19.1134 21.7884 19.2303 21.8101 19.3398 21.8538L19.5094 21.335C19.3876 21.287 19.2287 21.2659 19.1172 21.2659M14.4204 21.3295H13.5204V20.5616H12.9639V21.3295H12.4505V21.8325H12.9639V22.9872C12.9639 23.5745 13.1919 23.9243 13.843 23.9243C14.0819 23.9243 14.357 23.8503 14.5316 23.7286L14.3726 23.2573C14.2084 23.3524 14.0284 23.4004 13.8853 23.4004C13.6101 23.4004 13.5204 23.2308 13.5204 22.9767V21.833H14.4204V21.3295ZM6.1911 23.8612V22.2727C6.1911 21.6745 5.80985 21.2719 5.19526 21.2665C4.87216 21.2611 4.53888 21.3617 4.30553 21.7169C4.13095 21.4362 3.85581 21.2665 3.46901 21.2665C3.19866 21.2665 2.93447 21.346 2.72765 21.6424V21.3295H2.17676V23.8606H2.73197V22.4572C2.73197 22.0178 2.97565 21.7843 3.35196 21.7843C3.71747 21.7843 3.90239 22.0225 3.90239 22.4516V23.8603H4.45884V22.4568C4.45884 22.0175 4.71284 21.784 5.07821 21.784C5.45405 21.784 5.63342 22.0222 5.63342 22.4513V23.86L6.1911 23.8612Z" fill="white"/>
<path d="M31.1315 15.4414V15.0713H31.0351L30.9236 15.3253L30.8127 15.0713H30.716V15.4414H30.7845V15.1626L30.8887 15.4032H30.9597L31.0639 15.162V15.4414H31.1318H31.1315ZM30.52 15.4414V15.1347H30.6434V15.0722H30.3281V15.1347H30.4515V15.4414H30.5194H30.52Z" fill="#F79410"/>
<path d="M20.1764 17.0288H11.835V2.03809H20.1766L20.1764 17.0288Z" fill="#FF5F00"/>
<path d="M12.3629 9.53378C12.3629 6.49291 13.7867 3.78409 16.0039 2.03841C14.3256 0.715073 12.2499 -0.00314755 10.1126 1.03693e-05C4.84781 1.03693e-05 0.580078 4.26836 0.580078 9.53378C0.580078 14.7992 4.84781 19.0675 10.1126 19.0675C12.2499 19.0707 14.3257 18.3525 16.004 17.0291C13.787 15.2838 12.3629 12.5748 12.3629 9.53378Z" fill="#EB001B"/>
<path d="M31.4286 9.53378C31.4286 14.7992 27.1609 19.0675 21.8961 19.0675C19.7586 19.0707 17.6825 18.3525 16.0039 17.0291C18.2217 15.2835 19.6455 12.5748 19.6455 9.53378C19.6455 6.49276 18.2217 3.78409 16.0039 2.03841C17.6825 0.715113 19.7585 -0.00309219 21.8959 1.00076e-05C27.1607 1.00076e-05 31.4285 4.26836 31.4285 9.53378" fill="#F79E1B"/>
</svg>
