<svg width="72" height="40" viewBox="0 0 72 40" fill="none" xmlns="http://www.w3.org/2000/svg">
    <rect x="0.5" y="0.5" width="71" height="39" rx="15.5" fill="#110A1D"/>
    <g clip-path="url(#clip0_1429_7877)">
        <path d="M50.8168 31.6725V31.7342H50.8743C50.8851 31.7344 50.8958 31.7317 50.9052 31.7263C50.9089 31.7237 50.9119 31.7201 50.914 31.716C50.916 31.7119 50.9169 31.7073 50.9167 31.7027C50.9169 31.6982 50.916 31.6938 50.914 31.6897C50.9119 31.6857 50.9089 31.6823 50.9052 31.6798C50.8959 31.6742 50.8852 31.6714 50.8743 31.6719H50.8168V31.6725ZM50.8749 31.6289C50.8996 31.6274 50.924 31.6344 50.944 31.6489C50.9521 31.6555 50.9584 31.6639 50.9626 31.6733C50.9668 31.6828 50.9688 31.6932 50.9683 31.7035C50.9686 31.7124 50.9671 31.7213 50.9637 31.7296C50.9604 31.7379 50.9553 31.7453 50.9488 31.7515C50.9334 31.7649 50.914 31.773 50.8936 31.7745L50.9707 31.8624H50.9113L50.8404 31.7751H50.8174V31.8624H50.7678V31.629H50.8757L50.8749 31.6289ZM50.8595 31.9429C50.8856 31.9431 50.9114 31.9379 50.9352 31.9274C50.9583 31.9175 50.9792 31.9034 50.9969 31.8857C51.0147 31.868 51.0289 31.847 51.0387 31.824C51.059 31.7751 51.059 31.7202 51.0387 31.6713C51.0288 31.6483 51.0146 31.6274 50.9969 31.6096C50.9792 31.5919 50.9583 31.5777 50.9352 31.5678C50.9112 31.5579 50.8855 31.553 50.8595 31.5533C50.8331 31.5531 50.8069 31.558 50.7824 31.5678C50.7589 31.5775 50.7375 31.5917 50.7193 31.6096C50.6921 31.6376 50.6736 31.673 50.6663 31.7114C50.659 31.7497 50.6631 31.7894 50.6782 31.8255C50.6875 31.8487 50.7016 31.8696 50.7193 31.8872C50.7375 31.9051 50.7589 31.9193 50.7824 31.929C50.8068 31.9394 50.833 31.9446 50.8595 31.9444M50.8595 31.4972C50.9273 31.4971 50.9924 31.5237 51.0407 31.5712C51.0641 31.594 51.0826 31.6212 51.0953 31.6512C51.1085 31.6821 51.1153 31.7152 51.1153 31.7488C51.1153 31.7823 51.1085 31.8155 51.0953 31.8463C51.0823 31.8762 51.0638 31.9033 51.0407 31.9264C51.0171 31.9491 50.9896 31.9673 50.9595 31.9803C50.9279 31.9938 50.8939 32.0006 50.8595 32.0004C50.8248 32.0006 50.7904 31.9938 50.7584 31.9803C50.7279 31.9676 50.7001 31.9493 50.6765 31.9264C50.6534 31.9025 50.6351 31.8744 50.6226 31.8437C50.6095 31.8129 50.6027 31.7797 50.6027 31.7462C50.6027 31.7126 50.6095 31.6794 50.6226 31.6486C50.6354 31.6186 50.6539 31.5914 50.6772 31.5686C50.7006 31.5452 50.7285 31.5268 50.7591 31.5146C50.7911 31.5011 50.8256 31.4943 50.8603 31.4945M27.2445 30.596C27.2445 30.1511 27.536 29.7856 28.0124 29.7856C28.4677 29.7856 28.7749 30.1353 28.7749 30.596C28.7749 31.0567 28.4677 31.4065 28.0124 31.4065C27.536 31.4065 27.2445 31.041 27.2445 30.596ZM29.2938 30.596V29.3298H28.7434V29.6383C28.5688 29.4103 28.304 29.2674 27.9439 29.2674C27.2345 29.2674 26.6777 29.8238 26.6777 30.5966C26.6777 31.3695 27.2342 31.9259 27.9439 31.9259C28.3039 31.9259 28.5688 31.7828 28.7434 31.555V31.8624H29.2932V30.596H29.2938ZM47.8922 30.596C47.8922 30.1511 48.1837 29.7856 48.6603 29.7856C49.116 29.7856 49.4228 30.1353 49.4228 30.596C49.4228 31.0567 49.116 31.4065 48.6603 31.4065C48.1839 31.4065 47.8922 31.041 47.8922 30.596ZM49.9422 30.596V28.3135H49.3913V29.6383C49.2167 29.4103 48.9519 29.2674 48.5918 29.2674C47.8824 29.2674 47.3256 29.8238 47.3256 30.5966C47.3256 31.3695 47.882 31.9259 48.5918 31.9259C48.9519 31.9259 49.2167 31.7828 49.3913 31.555V31.8624H49.9422V30.596ZM36.1254 29.7595C36.4801 29.7595 36.7079 29.9819 36.7661 30.3735H35.4527C35.5114 30.008 35.7334 29.7595 36.1256 29.7595M36.1365 29.266C35.3947 29.266 34.8757 29.8058 34.8757 30.5952C34.8757 31.4002 35.4155 31.9245 36.1734 31.9245C36.5546 31.9245 36.9038 31.8294 37.211 31.5698L36.9413 31.1619C36.7291 31.3315 36.4589 31.4267 36.2048 31.4267C35.8501 31.4267 35.5272 31.2624 35.4478 30.8067H37.3273C37.3327 30.7382 37.3383 30.6691 37.3383 30.5951C37.3327 29.8059 36.8447 29.2658 36.1362 29.2658M42.7818 30.5951C42.7818 30.1502 43.0733 29.7846 43.5497 29.7846C44.005 29.7846 44.3122 30.1344 44.3122 30.5951C44.3122 31.0558 44.005 31.4055 43.5497 31.4055C43.0733 31.4055 42.7816 31.04 42.7816 30.5951M44.831 30.5951V29.3298H44.2809V29.6383C44.1057 29.4103 43.8415 29.2674 43.4814 29.2674C42.7719 29.2674 42.2152 29.8238 42.2152 30.5966C42.2152 31.3695 42.7716 31.9259 43.4814 31.9259C43.8415 31.9259 44.1057 31.7828 44.2809 31.555V31.8624H44.8312V30.596L44.831 30.5951ZM39.6734 30.5951C39.6734 31.363 40.2079 31.9244 41.0238 31.9244C41.405 31.9244 41.659 31.8395 41.9337 31.6225L41.6694 31.1776C41.4627 31.3261 41.2457 31.4055 41.0062 31.4055C40.5668 31.4001 40.2437 31.0824 40.2437 30.5951C40.2437 30.1077 40.5668 29.7902 41.0062 29.7846C41.2451 29.7846 41.4621 29.8641 41.6694 30.0126L41.9337 29.5676C41.6586 29.3506 41.4046 29.2658 41.0238 29.2658C40.2079 29.2658 39.6734 29.827 39.6734 30.5951ZM46.7693 29.2658C46.4518 29.2658 46.2449 29.4143 46.102 29.6367V29.3298H45.5565V31.861H46.1075V30.4421C46.1075 30.0232 46.2875 29.7905 46.6473 29.7905C46.7651 29.7888 46.8821 29.8104 46.9915 29.8542L47.1612 29.3354C47.0394 29.2874 46.8805 29.2663 46.769 29.2663M32.0152 29.5311C31.7503 29.3565 31.3855 29.2663 30.9829 29.2663C30.3417 29.2663 29.9288 29.5737 29.9288 30.0766C29.9288 30.4893 30.2362 30.7439 30.8022 30.8233L31.0622 30.8604C31.364 30.9028 31.5065 30.9822 31.5065 31.1252C31.5065 31.3209 31.306 31.4325 30.9296 31.4325C30.5483 31.4325 30.2732 31.3107 30.0876 31.1677L29.829 31.5969C30.1308 31.8193 30.5121 31.9254 30.9249 31.9254C31.656 31.9254 32.0796 31.5812 32.0796 31.0993C32.0796 30.6543 31.7462 30.4216 31.1953 30.3422L30.9359 30.3045C30.6976 30.2737 30.5067 30.2257 30.5067 30.0561C30.5067 29.871 30.6867 29.7597 30.9886 29.7597C31.3117 29.7597 31.6245 29.8815 31.7778 29.9766L32.0161 29.5317L32.0152 29.5311ZM39.1174 29.2667C38.7998 29.2667 38.593 29.4153 38.4507 29.6377V29.3298H37.9052V31.861H38.4556V30.4421C38.4556 30.0232 38.6356 29.7905 38.9954 29.7905C39.1132 29.7888 39.2302 29.8104 39.3396 29.8542L39.5093 29.3354C39.3875 29.2874 39.2286 29.2663 39.1171 29.2663M34.4203 29.3298H33.5202V28.5619H32.9638V29.3298H32.4504V29.8329H32.9638V30.9876C32.9638 31.5749 33.1917 31.9247 33.8429 31.9247C34.0818 31.9247 34.3569 31.8506 34.5315 31.729L34.3725 31.2576C34.2082 31.3528 34.0283 31.4008 33.8851 31.4008C33.61 31.4008 33.5202 31.2311 33.5202 30.9771V29.8334H34.4203V29.3298ZM26.191 31.8616V30.2731C26.191 29.6748 25.8097 29.2723 25.1951 29.2669C24.872 29.2615 24.5388 29.3621 24.3054 29.7172C24.1308 29.4365 23.8557 29.2669 23.4689 29.2669C23.1985 29.2669 22.9343 29.3463 22.7275 29.6427V29.3298H22.1766V31.861H22.7318V30.4575C22.7318 30.0181 22.9755 29.7846 23.3518 29.7846C23.7174 29.7846 23.9023 30.0229 23.9023 30.452V31.8607H24.4587V30.4572C24.4587 30.0178 24.7127 29.7843 25.0781 29.7843C25.4539 29.7843 25.6333 30.0226 25.6333 30.4517V31.8604L26.191 31.8616Z" fill="white"/>
        <path d="M51.1314 23.4414V23.0713H51.035L50.9235 23.3253L50.8126 23.0713H50.7159V23.4414H50.7844V23.1626L50.8887 23.4032H50.9596L51.0639 23.162V23.4414H51.1317H51.1314ZM50.5199 23.4414V23.1347H50.6433V23.0722H50.3281V23.1347H50.4514V23.4414H50.5193H50.5199Z" fill="#F79410"/>
        <path d="M40.1763 25.0288H31.8349V10.0381H40.1765L40.1763 25.0288Z" fill="#FF5F00"/>
        <path d="M32.3629 17.5338C32.3629 14.4929 33.7867 11.7841 36.0038 10.0384C34.3255 8.71507 32.2498 7.99685 30.1126 8.00001C24.8477 8.00001 20.58 12.2684 20.58 17.5338C20.58 22.7992 24.8477 27.0675 30.1126 27.0675C32.2498 27.0707 34.3257 26.3525 36.004 25.0291C33.787 23.2838 32.3629 20.5748 32.3629 17.5338Z" fill="#EB001B"/>
        <path d="M51.4286 17.5338C51.4286 22.7992 47.1608 27.0675 41.896 27.0675C39.7585 27.0707 37.6825 26.3525 36.0038 25.0291C38.2216 23.2835 39.6454 20.5748 39.6454 17.5338C39.6454 14.4928 38.2216 11.7841 36.0038 10.0384C37.6824 8.71511 39.7584 7.99691 41.8959 8.00001C47.1607 8.00001 51.4284 12.2684 51.4284 17.5338" fill="#F79E1B"/>
    </g>
    <rect x="0.5" y="0.5" width="71" height="39" rx="15.5" stroke="url(#paint0_linear_1429_7877)"/>
    <defs>
        <linearGradient id="paint0_linear_1429_7877" x1="0" y1="0" x2="74.8062" y2="33.7869" gradientUnits="userSpaceOnUse">
            <stop stop-color="white" stop-opacity="0.24"/>
            <stop offset="1" stop-color="white" stop-opacity="0.14"/>
        </linearGradient>
        <clipPath id="clip0_1429_7877">
            <rect width="56" height="24" fill="white" transform="translate(8 8)"/>
        </clipPath>
    </defs>
</svg>
