<svg width="50" height="12" viewBox="0 0 50 12" fill="none" xmlns="http://www.w3.org/2000/svg">
<path d="M31.4061 8.02533C31.2561 8.02533 31.0811 8.02533 30.9561 7.90031C30.8311 7.7753 30.8311 7.60028 30.8311 7.45026V3.6748C30.8311 3.52478 30.8311 3.34976 30.9561 3.22475C31.0811 3.09973 31.2561 3.09973 31.4061 3.09973H32.8146C33.7981 3.09973 34.3481 3.6498 34.3481 4.48323C34.3481 5.0333 33.9981 5.39167 33.7231 5.51669C34.0231 5.66671 34.4065 5.96675 34.4065 6.62516C34.4065 7.55861 33.7814 8.05866 32.898 8.05866H31.4145V8.02533H31.4061ZM31.8145 3.94983V5.08331H32.773C33.173 5.08331 33.398 4.85828 33.398 4.50824C33.398 4.15819 33.173 3.93317 32.773 3.93317H31.8145V3.94983ZM32.8146 7.16689C33.2397 7.16689 33.4647 6.89186 33.4647 6.56682C33.4647 6.24178 33.2647 5.96675 32.8146 5.96675H31.8062V7.17523H32.8146V7.16689ZM35.94 6.49181C35.94 6.96687 36.215 7.30024 36.7484 7.30024C36.9735 7.30024 37.1985 7.25023 37.3735 7.10021C37.5235 7.0002 37.5985 6.9752 37.6986 6.9752C37.8736 6.9752 38.0486 7.15022 38.0486 7.35024C38.0486 7.52527 37.8986 7.67529 37.6986 7.8003C37.4485 7.97532 37.1235 8.05033 36.7151 8.05033C35.8567 8.05033 35.0316 7.67528 35.0316 6.19177C35.0316 5.0083 35.6566 4.33321 36.6151 4.33321C37.5985 4.33321 38.1486 5.04163 38.1986 5.94174C38.1986 6.09176 38.1736 6.24178 38.0736 6.34179C37.9486 6.46681 37.8236 6.46681 37.6736 6.46681H35.94V6.49181ZM37.2485 5.48335C37.1485 5.25833 36.9485 5.10831 36.6484 5.10831C36.3484 5.10831 36.1484 5.25833 36.0484 5.48335C35.9983 5.60837 35.9733 5.70838 35.9733 5.8834H37.3568C37.3235 5.70838 37.2985 5.60837 37.2485 5.48335ZM39.0821 5.20832H38.982C38.807 5.20832 38.757 5.20832 38.682 5.15831C38.582 5.10831 38.507 5.0083 38.507 4.85828C38.507 4.73326 38.557 4.60825 38.682 4.55824C38.757 4.50823 38.807 4.50824 38.982 4.50824H39.0821V4.03318C39.0821 3.80815 39.0821 3.73314 39.1321 3.63313C39.2071 3.50811 39.3321 3.4081 39.5321 3.4081C39.7071 3.4081 39.8571 3.48311 39.9322 3.63313C39.9822 3.73314 39.9822 3.80815 39.9822 4.03318V4.50824H40.2572C40.4322 4.50824 40.4822 4.50823 40.5572 4.55824C40.6572 4.60825 40.7323 4.70826 40.7323 4.85828C40.7323 4.98329 40.6822 5.10831 40.5572 5.15831C40.4822 5.20832 40.4322 5.20832 40.2572 5.20832H39.9822V6.94186C39.9822 7.11688 40.0322 7.2419 40.2822 7.2669C40.4072 7.2669 40.4822 7.29191 40.5572 7.31691C40.6572 7.36691 40.7323 7.46693 40.7323 7.64195C40.7323 7.79197 40.6572 7.91698 40.5572 7.96699C40.4822 8.01699 40.3572 8.01699 40.1822 8.01699H40.1322C39.3738 8.01699 39.0737 7.51693 39.0737 6.98353L39.0821 5.20832ZM41.524 5.20832H41.424C41.249 5.20832 41.199 5.20832 41.124 5.15831C41.024 5.10831 40.9489 5.0083 40.9489 4.85828C40.9489 4.73326 40.999 4.60825 41.124 4.55824C41.199 4.50823 41.249 4.50824 41.424 4.50824H41.524V4.03318C41.524 3.80815 41.524 3.73314 41.574 3.63313C41.649 3.50811 41.774 3.4081 41.9741 3.4081C42.1491 3.4081 42.2991 3.48311 42.3741 3.63313C42.4241 3.73314 42.4241 3.80815 42.4241 4.03318V4.50824H42.6992C42.8742 4.50824 42.9242 4.50823 42.9992 4.55824C43.0992 4.60825 43.1742 4.70826 43.1742 4.85828C43.1742 4.98329 43.1242 5.10831 42.9992 5.15831C42.9242 5.20832 42.8742 5.20832 42.6992 5.20832H42.4241V6.94186C42.4241 7.11688 42.4741 7.2419 42.7242 7.2669C42.8492 7.2669 42.9242 7.29191 42.9992 7.31691C43.0992 7.36691 43.1742 7.46693 43.1742 7.64195C43.1742 7.79197 43.0992 7.91698 42.9992 7.96699C42.9242 8.01699 42.7992 8.01699 42.6242 8.01699H42.5741C41.8157 8.01699 41.5157 7.51693 41.5157 6.98353L41.524 5.20832ZM44.441 6.49181C44.441 6.96687 44.7161 7.30024 45.2495 7.30024C45.4745 7.30024 45.6995 7.25023 45.8745 7.10021C46.0246 7.0002 46.0996 6.9752 46.1996 6.9752C46.3746 6.9752 46.5496 7.15022 46.5496 7.35024C46.5496 7.52527 46.3996 7.67529 46.1996 7.8003C45.9496 7.97532 45.6245 8.05033 45.2161 8.05033C44.3577 8.05033 43.5326 7.67528 43.5326 6.19177C43.5326 5.0083 44.1577 4.33321 45.1161 4.33321C46.0996 4.33321 46.6496 5.04163 46.6996 5.94174C46.6996 6.09176 46.6746 6.24178 46.5746 6.34179C46.4496 6.46681 46.3246 6.46681 46.1746 6.46681H44.441V6.49181ZM45.7495 5.48335C45.6495 5.25833 45.4495 5.10831 45.1495 5.10831C44.8494 5.10831 44.6494 5.25833 44.5494 5.48335C44.4994 5.60837 44.4744 5.70838 44.4744 5.8834H45.8579C45.7995 5.70838 45.7995 5.60837 45.7495 5.48335ZM49.1499 4.34988C49.425 4.34988 49.6 4.39989 49.775 4.5249C49.9 4.62492 50 4.74993 50 4.89995C50 5.02496 49.95 5.14998 49.875 5.22499C49.8 5.3 49.675 5.35 49.575 5.35C49.475 5.35 49.4 5.325 49.275 5.24999C49.1749 5.19999 49.0499 5.14998 48.9249 5.14998C48.6249 5.14998 48.3248 5.35 48.3248 5.80006V7.40859C48.3248 7.63361 48.3248 7.70862 48.2748 7.80863C48.1998 7.93365 48.0748 8.03366 47.8748 8.03366C47.6748 8.03366 47.5497 7.95865 47.4747 7.80863C47.4247 7.70862 47.4247 7.63361 47.4247 7.40859V4.96663C47.4247 4.7416 47.4247 4.66659 47.4997 4.56658C47.5748 4.44156 47.7248 4.36655 47.8748 4.36655C47.9998 4.36655 48.0998 4.41656 48.1498 4.46656C48.2248 4.54157 48.2748 4.61658 48.2748 4.7416C48.4665 4.54991 48.7916 4.34988 49.1499 4.34988Z" fill="#606060"/>
<path d="M31.4061 8.02533C31.2561 8.02533 31.0811 8.02533 30.9561 7.90031C30.8311 7.7753 30.8311 7.60028 30.8311 7.45026V3.6748C30.8311 3.52478 30.8311 3.34976 30.9561 3.22475C31.0811 3.09973 31.2561 3.09973 31.4061 3.09973H32.8146C33.7981 3.09973 34.3481 3.6498 34.3481 4.48323C34.3481 5.0333 33.9981 5.39167 33.7231 5.51669C34.0231 5.66671 34.4065 5.96675 34.4065 6.62516C34.4065 7.55861 33.7814 8.05866 32.898 8.05866H31.4145V8.02533H31.4061ZM31.8145 3.94983V5.08331H32.773C33.173 5.08331 33.398 4.85828 33.398 4.50824C33.398 4.15819 33.173 3.93317 32.773 3.93317H31.8145V3.94983ZM32.8146 7.16689C33.2397 7.16689 33.4647 6.89186 33.4647 6.56682C33.4647 6.24178 33.2647 5.96675 32.8146 5.96675H31.8062V7.17523H32.8146V7.16689ZM35.94 6.49181C35.94 6.96687 36.215 7.30024 36.7484 7.30024C36.9735 7.30024 37.1985 7.25023 37.3735 7.10021C37.5235 7.0002 37.5985 6.9752 37.6986 6.9752C37.8736 6.9752 38.0486 7.15022 38.0486 7.35024C38.0486 7.52527 37.8986 7.67529 37.6986 7.8003C37.4485 7.97532 37.1235 8.05033 36.7151 8.05033C35.8567 8.05033 35.0316 7.67528 35.0316 6.19177C35.0316 5.0083 35.6566 4.33321 36.6151 4.33321C37.5985 4.33321 38.1486 5.04163 38.1986 5.94174C38.1986 6.09176 38.1736 6.24178 38.0736 6.34179C37.9486 6.46681 37.8236 6.46681 37.6736 6.46681H35.94V6.49181ZM37.2485 5.48335C37.1485 5.25833 36.9485 5.10831 36.6484 5.10831C36.3484 5.10831 36.1484 5.25833 36.0484 5.48335C35.9983 5.60837 35.9733 5.70838 35.9733 5.8834H37.3568C37.3235 5.70838 37.2985 5.60837 37.2485 5.48335ZM39.0821 5.20832H38.982C38.807 5.20832 38.757 5.20832 38.682 5.15831C38.582 5.10831 38.507 5.0083 38.507 4.85828C38.507 4.73326 38.557 4.60825 38.682 4.55824C38.757 4.50823 38.807 4.50824 38.982 4.50824H39.0821V4.03318C39.0821 3.80815 39.0821 3.73314 39.1321 3.63313C39.2071 3.50811 39.3321 3.4081 39.5321 3.4081C39.7071 3.4081 39.8571 3.48311 39.9322 3.63313C39.9822 3.73314 39.9822 3.80815 39.9822 4.03318V4.50824H40.2572C40.4322 4.50824 40.4822 4.50823 40.5572 4.55824C40.6572 4.60825 40.7323 4.70826 40.7323 4.85828C40.7323 4.98329 40.6822 5.10831 40.5572 5.15831C40.4822 5.20832 40.4322 5.20832 40.2572 5.20832H39.9822V6.94186C39.9822 7.11688 40.0322 7.2419 40.2822 7.2669C40.4072 7.2669 40.4822 7.29191 40.5572 7.31691C40.6572 7.36691 40.7323 7.46693 40.7323 7.64195C40.7323 7.79197 40.6572 7.91698 40.5572 7.96699C40.4822 8.01699 40.3572 8.01699 40.1822 8.01699H40.1322C39.3738 8.01699 39.0737 7.51693 39.0737 6.98353L39.0821 5.20832ZM41.524 5.20832H41.424C41.249 5.20832 41.199 5.20832 41.124 5.15831C41.024 5.10831 40.9489 5.0083 40.9489 4.85828C40.9489 4.73326 40.999 4.60825 41.124 4.55824C41.199 4.50823 41.249 4.50824 41.424 4.50824H41.524V4.03318C41.524 3.80815 41.524 3.73314 41.574 3.63313C41.649 3.50811 41.774 3.4081 41.9741 3.4081C42.1491 3.4081 42.2991 3.48311 42.3741 3.63313C42.4241 3.73314 42.4241 3.80815 42.4241 4.03318V4.50824H42.6992C42.8742 4.50824 42.9242 4.50823 42.9992 4.55824C43.0992 4.60825 43.1742 4.70826 43.1742 4.85828C43.1742 4.98329 43.1242 5.10831 42.9992 5.15831C42.9242 5.20832 42.8742 5.20832 42.6992 5.20832H42.4241V6.94186C42.4241 7.11688 42.4741 7.2419 42.7242 7.2669C42.8492 7.2669 42.9242 7.29191 42.9992 7.31691C43.0992 7.36691 43.1742 7.46693 43.1742 7.64195C43.1742 7.79197 43.0992 7.91698 42.9992 7.96699C42.9242 8.01699 42.7992 8.01699 42.6242 8.01699H42.5741C41.8157 8.01699 41.5157 7.51693 41.5157 6.98353L41.524 5.20832ZM44.441 6.49181C44.441 6.96687 44.7161 7.30024 45.2495 7.30024C45.4745 7.30024 45.6995 7.25023 45.8745 7.10021C46.0246 7.0002 46.0996 6.9752 46.1996 6.9752C46.3746 6.9752 46.5496 7.15022 46.5496 7.35024C46.5496 7.52527 46.3996 7.67529 46.1996 7.8003C45.9496 7.97532 45.6245 8.05033 45.2161 8.05033C44.3577 8.05033 43.5326 7.67528 43.5326 6.19177C43.5326 5.0083 44.1577 4.33321 45.1161 4.33321C46.0996 4.33321 46.6496 5.04163 46.6996 5.94174C46.6996 6.09176 46.6746 6.24178 46.5746 6.34179C46.4496 6.46681 46.3246 6.46681 46.1746 6.46681H44.441V6.49181ZM45.7495 5.48335C45.6495 5.25833 45.4495 5.10831 45.1495 5.10831C44.8494 5.10831 44.6494 5.25833 44.5494 5.48335C44.4994 5.60837 44.4744 5.70838 44.4744 5.8834H45.8579C45.7995 5.70838 45.7995 5.60837 45.7495 5.48335ZM49.1499 4.34988C49.425 4.34988 49.6 4.39989 49.775 4.5249C49.9 4.62492 50 4.74993 50 4.89995C50 5.02496 49.95 5.14998 49.875 5.22499C49.8 5.3 49.675 5.35 49.575 5.35C49.475 5.35 49.4 5.325 49.275 5.24999C49.1749 5.19999 49.0499 5.14998 48.9249 5.14998C48.6249 5.14998 48.3248 5.35 48.3248 5.80006V7.40859C48.3248 7.63361 48.3248 7.70862 48.2748 7.80863C48.1998 7.93365 48.0748 8.03366 47.8748 8.03366C47.6748 8.03366 47.5497 7.95865 47.4747 7.80863C47.4247 7.70862 47.4247 7.63361 47.4247 7.40859V4.96663C47.4247 4.7416 47.4247 4.66659 47.4997 4.56658C47.5748 4.44156 47.7248 4.36655 47.8748 4.36655C47.9998 4.36655 48.0998 4.41656 48.1498 4.46656C48.2248 4.54157 48.2748 4.61658 48.2748 4.7416C48.4665 4.54991 48.7916 4.34988 49.1499 4.34988Z" fill="white"/>
<path d="M15.8623 6.71694L15.0538 5.13341V7.35035C15.0538 7.57537 15.0538 7.65038 14.9788 7.7754C14.9038 7.90041 14.7538 8.00043 14.5538 8.00043C14.3537 8.00043 14.2037 7.90041 14.1287 7.7754C14.0787 7.65038 14.0537 7.57537 14.0537 7.35035V3.6499C14.0537 3.44987 14.0787 3.29986 14.2037 3.19984C14.2787 3.12484 14.4038 3.07483 14.5288 3.07483C14.6538 3.07483 14.7288 3.09983 14.8038 3.14984C14.9038 3.19984 14.9788 3.32486 15.0538 3.44987L16.2873 5.79183L17.5208 3.44987C17.5708 3.32486 17.6708 3.22485 17.7708 3.14984C17.8458 3.09983 17.9458 3.07483 18.0459 3.07483C18.1709 3.07483 18.2709 3.12484 18.3709 3.19984C18.4959 3.32486 18.5209 3.44987 18.5209 3.6499V7.37535C18.5209 7.60038 18.5209 7.67539 18.4459 7.8004C18.3709 7.92542 18.2209 8.02543 18.0209 8.02543C17.8208 8.02543 17.6708 7.92542 17.5958 7.8004C17.5458 7.67539 17.5208 7.60038 17.5208 7.37535V5.15841L16.7874 6.71694C16.6624 6.94197 16.5623 7.04198 16.3373 7.04198C16.1123 7.04198 15.9873 6.96697 15.8623 6.71694ZM20.6878 8.02543C20.3378 8.02543 20.0378 7.90041 19.8294 7.70039C19.5294 7.40035 19.4544 7.07531 19.4544 6.66693V4.95839C19.4544 4.73336 19.4544 4.65835 19.5044 4.55834C19.5794 4.43333 19.7044 4.35832 19.8794 4.35832C20.0544 4.35832 20.2045 4.43333 20.2545 4.55834C20.3045 4.65835 20.3045 4.73336 20.3045 4.95839V6.54192C20.3045 7.01697 20.6045 7.19199 20.9045 7.19199C21.1796 7.19199 21.5046 7.04198 21.5046 6.54192V4.95839C21.5046 4.73336 21.5046 4.65835 21.5546 4.55834C21.6296 4.43333 21.7546 4.35832 21.9297 4.35832C22.1047 4.35832 22.2547 4.43333 22.3047 4.55834C22.3547 4.65835 22.3547 4.73336 22.3547 4.95839V7.37535C22.3547 7.60038 22.3547 7.67539 22.2797 7.7754C22.2047 7.90041 22.0547 7.97542 21.9047 7.97542C21.7796 7.97542 21.6796 7.92542 21.6296 7.87541C21.5546 7.8004 21.5296 7.72539 21.5046 7.62538C21.3713 7.90041 21.0129 8.02543 20.6878 8.02543ZM25.4968 4.525C25.6968 4.62502 25.9218 4.80004 25.9218 5.02506C25.9218 5.15008 25.8718 5.22509 25.7968 5.3251C25.7468 5.40011 25.6218 5.45012 25.5218 5.45012C25.4218 5.45012 25.3467 5.42511 25.2217 5.3251C25.0717 5.22509 24.9717 5.17508 24.7967 5.17508C24.5967 5.17508 24.4216 5.25009 24.2966 5.40011C24.1716 5.57513 24.0966 5.80016 24.0966 6.18354C24.0966 6.55858 24.1466 6.80861 24.2966 6.99197C24.4216 7.14199 24.5967 7.217 24.7967 7.217C24.9717 7.217 25.0717 7.16699 25.2217 7.06698C25.3467 6.96697 25.4218 6.94196 25.5218 6.94196C25.6218 6.94196 25.7218 6.99197 25.7968 7.06698C25.8718 7.14199 25.9218 7.242 25.9218 7.36702C25.9218 7.59204 25.6968 7.76706 25.4968 7.86708C25.2967 7.99209 25.0717 8.0421 24.7883 8.0421C24.0799 8.0421 23.1798 7.66705 23.1798 6.20854C23.1798 4.75003 24.0633 4.37499 24.7883 4.37499C25.0634 4.34998 25.2717 4.39999 25.4968 4.525ZM29.4722 7.8004C29.3972 7.92542 29.2722 8.00043 29.0972 8.00043C28.9222 8.00043 28.7722 7.92542 28.7222 7.8004C28.6721 7.70039 28.6721 7.62538 28.6721 7.40035V5.81683C28.6721 5.34177 28.3721 5.16675 28.0721 5.16675C27.772 5.16675 27.472 5.31677 27.472 5.81683V7.40035C27.472 7.62538 27.472 7.70039 27.422 7.8004C27.347 7.92542 27.222 8.00043 27.047 8.00043C26.8719 8.00043 26.7219 7.92542 26.6719 7.8004C26.6219 7.70039 26.6219 7.62538 26.6219 7.40035V3.6749C26.6219 3.44987 26.6219 3.37486 26.6719 3.27485C26.7469 3.14984 26.8719 3.07483 27.047 3.07483C27.222 3.07483 27.372 3.14984 27.422 3.27485C27.472 3.37486 27.472 3.44987 27.472 3.6749V4.73336C27.697 4.50834 27.9471 4.35832 28.3554 4.35832C28.7055 4.35832 29.0055 4.48333 29.2139 4.68336C29.5139 4.98339 29.5889 5.30843 29.5889 5.71682V7.42536C29.5473 7.62538 29.5223 7.70039 29.4722 7.8004Z" fill="#F69220"/>
<path d="M10.5794 6.71679C10.5794 6.36675 10.4544 6.03338 10.2544 5.68333C9.95436 5.13327 9.60432 4.77489 9.12092 4.54986C8.72088 4.34984 8.26249 4.24983 7.81243 4.29983C7.96245 3.97479 8.06246 3.64976 8.08747 3.29138C8.13747 2.79132 7.96245 2.33293 7.66241 1.78286C7.46239 1.43282 7.21236 1.18279 6.92899 0.974431C6.62896 0.79941 6.32892 0.674394 5.97054 0.649391C5.61217 0.624388 5.26212 0.649391 4.88708 0.724401C4.76206 0.749404 4.63705 0.799409 4.51203 0.824412C4.46203 0.849415 4.41202 0.874418 4.36201 0.899421C4.13699 0.97443 3.55358 1.29947 3.35356 1.42448L2.37011 1.99956H2.3451C1.99506 2.22458 1.87005 2.68297 2.07007 3.05802C2.22009 3.30805 2.47012 3.43306 2.72015 3.43306C2.84516 3.43306 2.97018 3.40806 3.09519 3.33305H3.1202L4.70372 2.42461C4.85374 2.3496 5.00376 2.29959 5.15378 2.27459C5.3038 2.24958 5.45381 2.27459 5.60383 2.29959C5.75385 2.3496 5.87886 2.42461 6.02888 2.52462C6.1539 2.62463 6.25391 2.74965 6.35392 2.89966C6.42893 3.04968 6.50394 3.1997 6.52894 3.37472C6.55395 3.54974 6.55395 3.69976 6.52894 3.84978C6.50394 3.9998 6.45393 4.12481 6.35392 4.24983C6.27891 4.37484 6.1539 4.47486 6.02888 4.54986L5.07043 5.12493L4.67038 5.34996L4.42035 5.49998C4.07031 5.7 3.9703 6.12505 4.17032 6.48343C4.29534 6.70846 4.54537 6.83347 4.7954 6.83347C4.92042 6.83347 5.04543 6.80847 5.14544 6.73346L5.67051 6.43342L7.029 5.7C7.17902 5.62499 7.30404 5.57499 7.45406 5.57499C7.60407 5.57499 7.75409 5.59999 7.87911 5.65C8.02913 5.7 8.15414 5.77501 8.27916 5.87502C8.40417 5.97504 8.50418 6.10005 8.6042 6.25007C8.6792 6.40009 8.72921 6.55011 8.75421 6.70012C8.77922 6.85014 8.77922 7.02516 8.72921 7.17518C8.70421 7.3252 8.6292 7.45021 8.52919 7.60023C8.42917 7.72525 8.30416 7.82526 8.15414 7.92527L5.81219 9.25877H5.68718L5.26212 9.5088L4.42869 9.95885C4.07865 10.1589 3.92863 10.6089 4.12865 10.9673C4.25367 11.2173 4.5037 11.3674 4.77873 11.3674C4.90375 11.3674 5.02876 11.3424 5.12877 11.2673L7.14569 10.1839L8.77922 9.30044C9.12926 9.10042 9.46263 8.85038 9.73767 8.56702C10.0127 8.29198 10.2127 7.99195 10.3377 7.68358C10.5211 7.39187 10.6044 7.06684 10.5794 6.71679Z" fill="#606060"/>
<path d="M10.5794 6.71679C10.5794 6.36675 10.4544 6.03338 10.2544 5.68333C9.95436 5.13327 9.60432 4.77489 9.12092 4.54986C8.72088 4.34984 8.26249 4.24983 7.81243 4.29983C7.96245 3.97479 8.06246 3.64976 8.08747 3.29138C8.13747 2.79132 7.96245 2.33293 7.66241 1.78286C7.46239 1.43282 7.21236 1.18279 6.92899 0.974431C6.62896 0.79941 6.32892 0.674394 5.97054 0.649391C5.61217 0.624388 5.26212 0.649391 4.88708 0.724401C4.76206 0.749404 4.63705 0.799409 4.51203 0.824412C4.46203 0.849415 4.41202 0.874418 4.36201 0.899421C4.13699 0.97443 3.55358 1.29947 3.35356 1.42448L2.37011 1.99956H2.3451C1.99506 2.22458 1.87005 2.68297 2.07007 3.05802C2.22009 3.30805 2.47012 3.43306 2.72015 3.43306C2.84516 3.43306 2.97018 3.40806 3.09519 3.33305H3.1202L4.70372 2.42461C4.85374 2.3496 5.00376 2.29959 5.15378 2.27459C5.3038 2.24958 5.45381 2.27459 5.60383 2.29959C5.75385 2.3496 5.87886 2.42461 6.02888 2.52462C6.1539 2.62463 6.25391 2.74965 6.35392 2.89966C6.42893 3.04968 6.50394 3.1997 6.52894 3.37472C6.55395 3.54974 6.55395 3.69976 6.52894 3.84978C6.50394 3.9998 6.45393 4.12481 6.35392 4.24983C6.27891 4.37484 6.1539 4.47486 6.02888 4.54986L5.07043 5.12493L4.67038 5.34996L4.42035 5.49998C4.07031 5.7 3.9703 6.12505 4.17032 6.48343C4.29534 6.70846 4.54537 6.83347 4.7954 6.83347C4.92042 6.83347 5.04543 6.80847 5.14544 6.73346L5.67051 6.43342L7.029 5.7C7.17902 5.62499 7.30404 5.57499 7.45406 5.57499C7.60407 5.57499 7.75409 5.59999 7.87911 5.65C8.02913 5.7 8.15414 5.77501 8.27916 5.87502C8.40417 5.97504 8.50418 6.10005 8.6042 6.25007C8.6792 6.40009 8.72921 6.55011 8.75421 6.70012C8.77922 6.85014 8.77922 7.02516 8.72921 7.17518C8.70421 7.3252 8.6292 7.45021 8.52919 7.60023C8.42917 7.72525 8.30416 7.82526 8.15414 7.92527L5.81219 9.25877H5.68718L5.26212 9.5088L4.42869 9.95885C4.07865 10.1589 3.92863 10.6089 4.12865 10.9673C4.25367 11.2173 4.5037 11.3674 4.77873 11.3674C4.90375 11.3674 5.02876 11.3424 5.12877 11.2673L7.14569 10.1839L8.77922 9.30044C9.12926 9.10042 9.46263 8.85038 9.73767 8.56702C10.0127 8.29198 10.2127 7.99195 10.3377 7.68358C10.5211 7.39187 10.6044 7.06684 10.5794 6.71679Z" fill="white"/>
<path d="M3.4773 9.35875C3.25227 9.35875 3.02724 9.23374 2.90223 9.03371L0.0852179 4.17479C-0.0898033 3.84975 0.0102088 3.44137 0.335248 3.24135C0.660288 3.06632 1.06867 3.16634 1.2687 3.49138L4.0857 8.32529C4.26072 8.65033 4.16071 9.05872 3.83567 9.25874C3.70232 9.33375 3.60231 9.35875 3.4773 9.35875Z" fill="#F69220"/>
</svg>
