<svg width="65" height="32" viewBox="0 0 65 32" fill="none" xmlns="http://www.w3.org/2000/svg">
<rect x="1" y="0.5" width="63.5" height="31" rx="11.5" fill="#110A1D"/>
<path d="M16.4639 19.5501V13.5957C16.4639 13.0568 16.8982 12.6659 17.4844 12.6659C18.0707 12.6659 18.4127 12.8878 18.6733 13.3791L20.2096 16.3537H20.2313V12.7768H21.9522V18.6731C21.9522 19.2912 21.4744 19.6611 21.0402 19.6611C20.595 19.6611 20.2693 19.4603 19.8133 18.5991L18.2119 15.5823H18.1902V19.5448H16.4639V19.5501ZM25.079 17.6904L24.433 16.6865L25.8173 15.7883C25.5622 15.6298 25.3613 15.6087 25.1659 15.6087C24.471 15.6087 24.091 16.3114 24.091 16.9137C24.091 17.5424 24.547 18.1976 25.231 18.1976C25.8662 18.1976 26.485 17.6428 26.7402 17.0564L27.9507 17.6745C27.4676 18.8263 26.3873 19.6611 25.1116 19.6611C23.7002 19.6611 22.4624 18.4564 22.4624 16.9982C22.4624 15.5347 23.6947 14.3354 25.1116 14.3354C26.295 14.3354 27.0713 14.9641 27.625 15.9574L25.079 17.6904ZM29.5793 16.9982C29.5793 16.4118 30.0136 15.9204 30.6053 15.9204C31.197 15.9204 31.6313 16.4118 31.6313 16.9982C31.6313 17.5847 31.197 18.076 30.6053 18.076C30.0136 18.076 29.5793 17.5847 29.5793 16.9982ZM27.9507 16.9982C27.9507 18.4617 29.1884 19.6611 30.6053 19.6611C32.0222 19.6611 33.2599 18.4564 33.2599 16.9982C33.2599 15.5347 32.0222 14.3354 30.6053 14.3354C29.1884 14.3354 27.9507 15.5347 27.9507 16.9982ZM33.6073 18.0972H35.2087C35.4042 18.0972 35.5019 18.0021 35.5019 17.87C35.5019 17.3945 33.6616 17.5741 33.6616 15.9151C33.6616 14.9694 34.4922 14.4939 35.2847 14.4939H36.9024V15.8306H35.5996C35.4042 15.8306 35.2576 15.931 35.2576 16.0684C35.2576 16.4699 37.201 16.5703 37.201 17.9175C37.201 18.9372 36.555 19.492 35.4639 19.492H33.6019V18.0972H33.6073ZM39.3616 17.3839C39.3616 17.8172 39.5842 18.0866 39.9479 18.0866C40.3116 18.0866 40.5342 17.8172 40.5342 17.3839V14.4992H42.179V17.3839C42.179 18.6889 41.4027 19.6663 39.9479 19.6663C38.4984 19.6663 37.7167 18.6942 37.7167 17.3839V14.4992H39.3616V17.3839ZM44.1333 15.334H44.155C44.4047 14.626 44.8824 14.4992 45.6044 14.4992V15.9997C44.4536 16.0419 44.3504 16.285 44.3504 17.1515V19.4973H42.6893V14.4992H44.1333V15.334ZM45.9519 19.4973V14.1346C45.9519 13.0991 46.777 12.333 48.0799 12.333H49.0353V13.8282H48.2319C47.7976 13.8282 47.689 14.066 47.689 14.4833H48.6987V15.9785H47.689V19.4973H45.9519Z" fill="#FF3399"/>
<rect x="1" y="0.5" width="63.5" height="31" rx="11.5" stroke="url(#paint0_linear_1429_8517)"/>
<defs>
<linearGradient id="paint0_linear_1429_8517" x1="0.5" y1="0" x2="64.7496" y2="32.4951" gradientUnits="userSpaceOnUse">
<stop stop-color="white" stop-opacity="0.24"/>
<stop offset="1" stop-color="white" stop-opacity="0.14"/>
</linearGradient>
</defs>
</svg>
