<svg width="48" height="12" viewBox="0 0 48 12" fill="none" xmlns="http://www.w3.org/2000/svg">
<path d="M0 11.3257V2.39409C0 1.58573 0.64 0.999279 1.504 0.999279C2.368 0.999279 2.872 1.33213 3.256 2.06916L5.52 6.53098H5.552V1.16571H8.088V10.0101C8.088 10.9373 7.384 11.4921 6.744 11.4921C6.088 11.4921 5.608 11.1909 4.936 9.89914L2.576 5.37392H2.544V11.3177H0V11.3257ZM12.696 8.53602L11.744 7.03026L13.784 5.683C13.408 5.44525 13.112 5.41355 12.824 5.41355C11.8 5.41355 11.24 6.46758 11.24 7.37104C11.24 8.31412 11.912 9.29683 12.92 9.29683C13.856 9.29683 14.768 8.4647 15.144 7.58501L16.928 8.51225C16.216 10.2399 14.624 11.4921 12.744 11.4921C10.664 11.4921 8.84 9.68516 8.84 7.49784C8.84 5.30259 10.656 3.5036 12.744 3.5036C14.488 3.5036 15.632 4.44669 16.448 5.9366L12.696 8.53602ZM19.328 7.49784C19.328 6.61816 19.968 5.88112 20.84 5.88112C21.712 5.88112 22.352 6.61816 22.352 7.49784C22.352 8.37752 21.712 9.11455 20.84 9.11455C19.968 9.11455 19.328 8.37752 19.328 7.49784ZM16.928 7.49784C16.928 9.69308 18.752 11.4921 20.84 11.4921C22.928 11.4921 24.752 9.68516 24.752 7.49784C24.752 5.30259 22.928 3.5036 20.84 3.5036C18.752 3.5036 16.928 5.30259 16.928 7.49784ZM25.264 9.14626H27.624C27.912 9.14626 28.056 9.0036 28.056 8.80548C28.056 8.09222 25.344 8.36167 25.344 5.8732C25.344 4.45461 26.568 3.74135 27.736 3.74135H30.12V5.7464H28.2C27.912 5.7464 27.696 5.89697 27.696 6.10303C27.696 6.70533 30.56 6.85591 30.56 8.8768C30.56 10.4063 29.608 11.2385 28 11.2385H25.256V9.14626H25.264ZM33.744 8.07637C33.744 8.72623 34.072 9.1304 34.608 9.1304C35.144 9.1304 35.472 8.72623 35.472 8.07637V3.74928H37.896V8.07637C37.896 10.0339 36.752 11.5 34.608 11.5C32.472 11.5 31.32 10.0418 31.32 8.07637V3.74928H33.744V8.07637ZM40.776 5.00144H40.808C41.176 3.93948 41.88 3.74928 42.944 3.74928V6C41.248 6.0634 41.096 6.42795 41.096 7.72766V11.2464H38.648V3.74928H40.776V5.00144ZM43.456 11.2464V3.20245C43.456 1.64913 44.672 0.5 46.592 0.5H48V2.74279H46.816C46.176 2.74279 46.016 3.09942 46.016 3.7255H47.504V5.9683H46.016V11.2464H43.456Z" fill="#FF3399"/>
</svg>
