<svg width="52" height="10" viewBox="0 0 52 10" fill="none" xmlns="http://www.w3.org/2000/svg">
<path d="M51.0499 1.19306C50.3873 0.739076 49.3843 0.510119 48.0697 0.510119H44.627L43.3471 7.45857H38.8369L39.1268 5.88211H41.8436L42.1656 4.1115L39.4503 4.11541L39.741 2.54599H42.5394L42.9118 0.510525H37.2287L36.0136 7.10156H33.9281L35.1513 0.510178H32.1806L30.9655 7.10122H28.9338L30.1583 0.510178H27.1891L25.9076 7.45863H21.365L21.6522 5.88217H24.3799L24.7023 4.12162L21.9771 4.11888L22.2662 2.54634H25.0961L25.4661 0.51001H7.7565L6.74851 6.01615L4.74113 0.51001H1.6589L0 9.49601H2.94356L3.94765 3.83803L5.89559 9.49601H16.4451L17.7277 2.54547H19.3776L18.095 9.49601H45.8527L46.6576 5.10857L47.9594 9.49601H50.9045L49.5554 5.91093L49.8641 5.84452C50.5439 5.69879 51.074 5.38584 51.4432 4.91662C51.8121 4.44311 52 3.83517 52 3.10493C52 2.25478 51.689 1.62928 51.049 1.19253L51.0499 1.19306ZM13.8835 7.45857H9.37772L9.66878 5.88211H12.495L12.8154 4.10648H10.0164L10.286 2.54643H14.7852L13.8827 7.45855L13.8835 7.45857ZM48.6232 4.43181C48.3271 4.63887 47.8977 4.73967 47.3105 4.73967H46.7283L47.1749 2.32824H47.6031C48.0907 2.32824 48.4462 2.40638 48.6916 2.56578C48.883 2.6908 49.1108 2.93812 49.1108 3.40577C49.1101 3.9715 48.8451 4.27546 48.6224 4.43174L48.6232 4.43181Z" fill="#83BA3B"/>
</svg>
