<svg width="72" height="40" viewBox="0 0 72 40" fill="none" xmlns="http://www.w3.org/2000/svg">
    <rect x="0.5" y="0.5" width="71" height="39" rx="15.5" fill="#110A1D"/>
    <path d="M61.0499 16.1928C60.3873 15.7388 59.3843 15.5099 58.0697 15.5099H54.627L53.3471 22.4583H48.8369L49.1268 20.8819H51.8436L52.1656 19.1113L49.4503 19.1152L49.741 17.5457H52.5394L52.9118 15.5103H47.2287L46.0136 22.1013H43.9281L45.1513 15.5099H42.1806L40.9655 22.101H38.9338L40.1583 15.5099H37.1891L35.9076 22.4584H31.365L31.6522 20.8819H34.3799L34.7023 19.1214L31.9771 19.1186L32.2662 17.5461H35.0961L35.4661 15.5098H17.7565L16.7485 21.0159L14.7411 15.5098H11.6589L10 24.4958H12.9436L13.9477 18.8378L15.8956 24.4958H26.4451L27.7277 17.5452H29.3776L28.095 24.4958H55.8527L56.6576 20.1083L57.9594 24.4958H60.9045L59.5554 20.9107L59.8641 20.8443C60.5439 20.6985 61.074 20.3856 61.4432 19.9164C61.8121 19.4429 62 18.8349 62 18.1047C62 17.2545 61.689 16.629 61.049 16.1923L61.0499 16.1928ZM23.8835 22.4583H19.3777L19.6688 20.8819H22.495L22.8154 19.1062H20.0164L20.286 17.5462H24.7852L23.8827 22.4583L23.8835 22.4583ZM58.6232 19.4316C58.3271 19.6386 57.8977 19.7394 57.3105 19.7394H56.7283L57.1749 17.328H57.6031C58.0907 17.328 58.4462 17.4061 58.6916 17.5655C58.883 17.6906 59.1108 17.9379 59.1108 18.4055C59.1101 18.9713 58.8451 19.2752 58.6224 19.4315L58.6232 19.4316Z" fill="#83BA3B"/>
    <rect x="0.5" y="0.5" width="71" height="39" rx="15.5" stroke="url(#paint0_linear_1429_7881)"/>
    <defs>
        <linearGradient id="paint0_linear_1429_7881" x1="0" y1="0" x2="74.8062" y2="33.7869" gradientUnits="userSpaceOnUse">
            <stop stop-color="white" stop-opacity="0.24"/>
            <stop offset="1" stop-color="white" stop-opacity="0.14"/>
        </linearGradient>
    </defs>
</svg>
