<svg width="50" height="14" viewBox="0 0 50 14" fill="none" xmlns="http://www.w3.org/2000/svg">
<path fill-rule="evenodd" clip-rule="evenodd" d="M18.619 7.0322C19.2318 7.0322 19.6062 6.65775 19.6062 6.04501C19.6062 5.43227 19.2318 5.09186 18.6531 5.09186H17.6319V7.0322H18.619ZM16.917 4.47913H18.7552C19.6743 4.47913 20.3211 5.09186 20.3211 6.04501C20.3211 6.99816 19.6743 7.64494 18.7552 7.64494H17.6319V9.51719H16.917V4.47913ZM21.8529 9.04062C22.4316 9.04062 22.8061 8.42788 22.8061 7.88323V7.7811H22.6359C22.1253 7.7811 21.1721 7.81514 21.1721 8.46192C21.1721 8.73425 21.4104 9.04062 21.8529 9.04062ZM22.6359 7.27049H22.8061V7.20241C22.8061 6.62371 22.4657 6.41946 22.0231 6.41946C21.4785 6.41946 21.0019 6.75987 21.0019 6.75987L20.7296 6.24926C20.7296 6.24926 21.2402 5.80673 22.0912 5.80673C23.0103 5.80673 23.5209 6.31734 23.5209 7.20241V9.48315H22.8742V9.14274C22.8742 8.97254 22.8742 8.87042 22.8742 8.87042C22.8742 8.87042 22.5678 9.58528 21.7168 9.58528C21.104 9.58528 20.4913 9.21083 20.4913 8.49596C20.4573 7.30453 22.0572 7.27049 22.6359 7.27049ZM24.1337 10.2661C24.1337 10.2661 24.3379 10.4023 24.5422 10.4023C24.8145 10.4023 25.0528 10.198 25.189 9.89165L25.3592 9.48315L23.8614 5.94289H24.6443L25.5634 8.29172C25.6315 8.46192 25.6996 8.73425 25.6996 8.73425C25.6996 8.73425 25.7677 8.49596 25.8357 8.29172L26.7208 5.94289H27.4697L25.7677 10.198C25.5634 10.7427 25.1209 11.049 24.6103 11.049C24.2018 11.049 23.8954 10.8448 23.8954 10.8448L24.1337 10.2661ZM29.2739 4.47913H29.9887L32.2354 7.74706C32.4056 8.01939 32.6439 8.46192 32.6439 8.46192C32.6439 8.46192 32.6099 8.01939 32.6099 7.74706V4.47913H33.3248V9.48315H32.6439L30.3972 6.21522C30.227 5.94289 29.9887 5.46632 29.9887 5.46632C29.9887 5.46632 30.0228 5.90885 30.0228 6.21522V9.48315H29.3079L29.2739 4.47913ZM37.1714 7.0322C37.7841 7.0322 38.1586 6.65775 38.1586 6.04501C38.1586 5.43227 37.7841 5.09186 37.2054 5.09186H36.1842V7.0322H37.1714ZM35.4353 4.47913H37.2735C38.1926 4.47913 38.8734 5.09186 38.8734 6.04501C38.8734 6.99816 38.2267 7.64494 37.3076 7.64494H36.1842V9.51719H35.4693L35.4353 4.47913ZM39.4181 4.47913H40.0989V8.39384C40.0989 8.83637 40.2691 8.90446 40.4734 8.90446C40.5414 8.90446 40.6095 8.90446 40.6095 8.90446V9.51719C40.6095 9.51719 40.5074 9.51719 40.3712 9.51719C39.9628 9.51719 39.4181 9.41507 39.4181 8.49596V4.47913ZM42.4818 9.04062C43.0605 9.04062 43.4349 8.42788 43.4349 7.88323V7.7811H43.2647C42.7541 7.7811 41.801 7.81514 41.801 8.46192C41.801 8.73425 42.0393 9.04062 42.4818 9.04062ZM43.2988 7.27049H43.469V7.20241C43.469 6.62371 43.1286 6.41946 42.686 6.41946C42.1414 6.41946 41.6648 6.75987 41.6648 6.75987L41.3925 6.24926C41.3925 6.24926 41.9031 5.80673 42.7541 5.80673C43.6732 5.80673 44.1838 6.31734 44.1838 7.20241V9.48315H43.503V9.14274C43.503 8.97254 43.503 8.87042 43.503 8.87042C43.503 8.87042 43.1966 9.58528 42.3456 9.58528C41.7329 9.58528 41.1201 9.21083 41.1201 8.49596C41.1201 7.30453 42.686 7.27049 43.2988 7.27049ZM44.7625 10.2661C44.7625 10.2661 44.9668 10.4023 45.171 10.4023C45.4434 10.4023 45.6816 10.198 45.8178 9.89165L45.988 9.48315L44.4902 5.94289H45.2731L46.1923 8.29172C46.2603 8.46192 46.3284 8.73425 46.3284 8.73425C46.3284 8.73425 46.3965 8.49596 46.4646 8.29172L47.3497 5.94289H48.0986L46.3965 10.198C46.1923 10.7427 45.7497 11.049 45.2391 11.049C44.8306 11.049 44.5242 10.8448 44.5242 10.8448L44.7625 10.2661Z" fill="#231F20"/>
<path fill-rule="evenodd" clip-rule="evenodd" d="M18.619 7.0322C19.2318 7.0322 19.6062 6.65775 19.6062 6.04501C19.6062 5.43227 19.2318 5.09186 18.6531 5.09186H17.6319V7.0322H18.619ZM16.917 4.47913H18.7552C19.6743 4.47913 20.3211 5.09186 20.3211 6.04501C20.3211 6.99816 19.6743 7.64494 18.7552 7.64494H17.6319V9.51719H16.917V4.47913ZM21.8529 9.04062C22.4316 9.04062 22.8061 8.42788 22.8061 7.88323V7.7811H22.6359C22.1253 7.7811 21.1721 7.81514 21.1721 8.46192C21.1721 8.73425 21.4104 9.04062 21.8529 9.04062ZM22.6359 7.27049H22.8061V7.20241C22.8061 6.62371 22.4657 6.41946 22.0231 6.41946C21.4785 6.41946 21.0019 6.75987 21.0019 6.75987L20.7296 6.24926C20.7296 6.24926 21.2402 5.80673 22.0912 5.80673C23.0103 5.80673 23.5209 6.31734 23.5209 7.20241V9.48315H22.8742V9.14274C22.8742 8.97254 22.8742 8.87042 22.8742 8.87042C22.8742 8.87042 22.5678 9.58528 21.7168 9.58528C21.104 9.58528 20.4913 9.21083 20.4913 8.49596C20.4573 7.30453 22.0572 7.27049 22.6359 7.27049ZM24.1337 10.2661C24.1337 10.2661 24.3379 10.4023 24.5422 10.4023C24.8145 10.4023 25.0528 10.198 25.189 9.89165L25.3592 9.48315L23.8614 5.94289H24.6443L25.5634 8.29172C25.6315 8.46192 25.6996 8.73425 25.6996 8.73425C25.6996 8.73425 25.7677 8.49596 25.8357 8.29172L26.7208 5.94289H27.4697L25.7677 10.198C25.5634 10.7427 25.1209 11.049 24.6103 11.049C24.2018 11.049 23.8954 10.8448 23.8954 10.8448L24.1337 10.2661ZM29.2739 4.47913H29.9887L32.2354 7.74706C32.4056 8.01939 32.6439 8.46192 32.6439 8.46192C32.6439 8.46192 32.6099 8.01939 32.6099 7.74706V4.47913H33.3248V9.48315H32.6439L30.3972 6.21522C30.227 5.94289 29.9887 5.46632 29.9887 5.46632C29.9887 5.46632 30.0228 5.90885 30.0228 6.21522V9.48315H29.3079L29.2739 4.47913ZM37.1714 7.0322C37.7841 7.0322 38.1586 6.65775 38.1586 6.04501C38.1586 5.43227 37.7841 5.09186 37.2054 5.09186H36.1842V7.0322H37.1714ZM35.4353 4.47913H37.2735C38.1926 4.47913 38.8734 5.09186 38.8734 6.04501C38.8734 6.99816 38.2267 7.64494 37.3076 7.64494H36.1842V9.51719H35.4693L35.4353 4.47913ZM39.4181 4.47913H40.0989V8.39384C40.0989 8.83637 40.2691 8.90446 40.4734 8.90446C40.5414 8.90446 40.6095 8.90446 40.6095 8.90446V9.51719C40.6095 9.51719 40.5074 9.51719 40.3712 9.51719C39.9628 9.51719 39.4181 9.41507 39.4181 8.49596V4.47913ZM42.4818 9.04062C43.0605 9.04062 43.4349 8.42788 43.4349 7.88323V7.7811H43.2647C42.7541 7.7811 41.801 7.81514 41.801 8.46192C41.801 8.73425 42.0393 9.04062 42.4818 9.04062ZM43.2988 7.27049H43.469V7.20241C43.469 6.62371 43.1286 6.41946 42.686 6.41946C42.1414 6.41946 41.6648 6.75987 41.6648 6.75987L41.3925 6.24926C41.3925 6.24926 41.9031 5.80673 42.7541 5.80673C43.6732 5.80673 44.1838 6.31734 44.1838 7.20241V9.48315H43.503V9.14274C43.503 8.97254 43.503 8.87042 43.503 8.87042C43.503 8.87042 43.1966 9.58528 42.3456 9.58528C41.7329 9.58528 41.1201 9.21083 41.1201 8.49596C41.1201 7.30453 42.686 7.27049 43.2988 7.27049ZM44.7625 10.2661C44.7625 10.2661 44.9668 10.4023 45.171 10.4023C45.4434 10.4023 45.6816 10.198 45.8178 9.89165L45.988 9.48315L44.4902 5.94289H45.2731L46.1923 8.29172C46.2603 8.46192 46.3284 8.73425 46.3284 8.73425C46.3284 8.73425 46.3965 8.49596 46.4646 8.29172L47.3497 5.94289H48.0986L46.3965 10.198C46.1923 10.7427 45.7497 11.049 45.2391 11.049C44.8306 11.049 44.5242 10.8448 44.5242 10.8448L44.7625 10.2661Z" fill="white"/>
<path fill-rule="evenodd" clip-rule="evenodd" d="M49.3538 5.70497C49.0474 5.70497 48.8092 5.46668 48.8092 5.12627C48.8092 4.8199 49.0474 4.58162 49.3538 4.58162C49.6602 4.58162 49.8985 4.8199 49.8985 5.12627C49.8985 5.46668 49.6602 5.70497 49.3538 5.70497ZM49.3538 4.47949C49.0134 4.47949 48.707 4.78586 48.707 5.12627C48.707 5.50072 48.9794 5.77305 49.3538 5.77305C49.7283 5.77305 50.0006 5.46668 50.0006 5.12627C50.0006 4.78586 49.7283 4.47949 49.3538 4.47949Z" fill="#231F20"/>
<path fill-rule="evenodd" clip-rule="evenodd" d="M49.3538 5.70497C49.0474 5.70497 48.8092 5.46668 48.8092 5.12627C48.8092 4.8199 49.0474 4.58162 49.3538 4.58162C49.6602 4.58162 49.8985 4.8199 49.8985 5.12627C49.8985 5.46668 49.6602 5.70497 49.3538 5.70497ZM49.3538 4.47949C49.0134 4.47949 48.707 4.78586 48.707 5.12627C48.707 5.50072 48.9794 5.77305 49.3538 5.77305C49.7283 5.77305 50.0006 5.46668 50.0006 5.12627C50.0006 4.78586 49.7283 4.47949 49.3538 4.47949Z" fill="white"/>
<path fill-rule="evenodd" clip-rule="evenodd" d="M49.3926 5.1257H49.2564V4.88742H49.3926C49.4607 4.88742 49.4947 4.92146 49.4947 4.98954C49.4947 5.09166 49.4607 5.1257 49.3926 5.1257ZM49.4947 5.22783C49.4947 5.22783 49.4947 5.19379 49.4607 5.19379C49.5287 5.19379 49.5968 5.1257 49.5968 5.02358C49.5968 4.92146 49.5287 4.81934 49.3926 4.81934H49.1543V5.46612H49.2564V5.19379H49.3926L49.5287 5.46612H49.6309L49.4947 5.22783Z" fill="#231F20"/>
<path fill-rule="evenodd" clip-rule="evenodd" d="M49.3926 5.1257H49.2564V4.88742H49.3926C49.4607 4.88742 49.4947 4.92146 49.4947 4.98954C49.4947 5.09166 49.4607 5.1257 49.3926 5.1257ZM49.4947 5.22783C49.4947 5.22783 49.4947 5.19379 49.4607 5.19379C49.5287 5.19379 49.5968 5.1257 49.5968 5.02358C49.5968 4.92146 49.5287 4.81934 49.3926 4.81934H49.1543V5.46612H49.2564V5.19379H49.3926L49.5287 5.46612H49.6309L49.4947 5.22783Z" fill="white"/>
<path fill-rule="evenodd" clip-rule="evenodd" d="M0.578697 13.9768C0.238287 13.9768 0 13.7045 0 13.3981V13.3641L0.714861 0.598717C0.714861 0.258307 0.987189 0.0200195 1.3276 0.0200195C1.66801 0.0540605 1.9063 0.326389 1.87226 0.632758L1.19144 13.4322C1.15739 13.7385 0.919107 13.9768 0.578697 13.9768Z" fill="#006E00"/>
<path fill-rule="evenodd" clip-rule="evenodd" d="M1.29482 0.0200195C1.09057 0.0200195 0.920365 0.122143 0.784201 0.292348C0.613996 0.564676 0.682078 0.939127 0.954406 1.10933L11.7114 7.98562C11.9837 8.15582 12.3581 8.08774 12.5283 7.81541C12.6986 7.54308 12.6305 7.16863 12.3581 6.99843L1.60119 0.122143C1.5331 0.0540605 1.39694 0.0200195 1.29482 0.0200195Z" fill="url(#paint0_linear_1427_9100)"/>
<path fill-rule="evenodd" clip-rule="evenodd" d="M0.578478 13.9766C0.374232 13.9766 0.169985 13.8404 0.0678624 13.6702C-0.0683016 13.3979 0.0338214 13.0234 0.30615 12.8873L11.7439 6.99816C12.0163 6.862 12.3907 6.96412 12.5269 7.23645C12.663 7.50878 12.5609 7.88323 12.2886 8.01939L0.850806 13.9085C0.782724 13.9425 0.680601 13.9766 0.578478 13.9766Z" fill="#69D720"/>
<path fill-rule="evenodd" clip-rule="evenodd" d="M3.3381 8.63254C3.06577 8.63254 2.82748 8.46234 2.7594 8.19001L0.716942 0.769069C0.64886 0.4627 0.819065 0.12229 1.15948 0.054208C1.46584 -0.0138741 1.77221 0.156331 1.87434 0.4627L3.9168 7.88364C4.01892 8.19001 3.81467 8.49638 3.5083 8.5985C3.47426 8.5985 3.40618 8.63254 3.3381 8.63254Z" fill="#69D720"/>
<path fill-rule="evenodd" clip-rule="evenodd" d="M0.578697 13.9765C0.238287 13.9765 0 13.7041 0 13.3978C0 13.2957 0.034041 13.2276 0.068082 13.1254L2.8254 7.78101C2.96157 7.50868 3.33602 7.37252 3.60835 7.54272C3.88067 7.67888 4.01684 8.05334 3.84663 8.32566L1.12335 13.6701C1.02123 13.8403 0.816984 13.9765 0.578697 13.9765Z" fill="#69D720"/>
<path fill-rule="evenodd" clip-rule="evenodd" d="M3.33647 8.6322C3.0301 8.6322 2.75777 8.39391 2.75777 8.08754C2.72373 7.74713 2.99605 7.4748 3.30242 7.4748L11.9829 6.96419C12.2893 6.93015 12.5956 7.20248 12.5956 7.50885C12.6297 7.84926 12.3573 8.12158 12.051 8.12158L3.37051 8.6322C3.37051 8.6322 3.37051 8.6322 3.33647 8.6322Z" fill="#69D720"/>
<defs>
<linearGradient id="paint0_linear_1427_9100" x1="11.8143" y1="7.32052" x2="5.62774" y2="-1.24741" gradientUnits="userSpaceOnUse">
<stop stop-color="#5BBC1D"/>
<stop offset="1" stop-color="#006E00"/>
</linearGradient>
</defs>
</svg>
