<svg width="72" height="40" viewBox="0 0 72 40" fill="none" xmlns="http://www.w3.org/2000/svg">
    <rect x="0.5" y="0.5" width="71" height="39" rx="15.5" fill="#110A1D"/>
    <path fill-rule="evenodd" clip-rule="evenodd" d="M29.619 20.0316C30.2318 20.0316 30.6062 19.6571 30.6062 19.0444C30.6062 18.4317 30.2318 18.0913 29.6531 18.0913H28.6319V20.0316H29.619ZM27.917 17.4785H29.7552C30.6743 17.4785 31.3211 18.0913 31.3211 19.0444C31.3211 19.9975 30.6743 20.6443 29.7552 20.6443H28.6319V22.5166H27.917V17.4785ZM32.8529 22.04C33.4316 22.04 33.8061 21.4273 33.8061 20.8826V20.7805H33.6359C33.1253 20.7805 32.1721 20.8145 32.1721 21.4613C32.1721 21.7336 32.4104 22.04 32.8529 22.04ZM33.6359 20.2699H33.8061V20.2018C33.8061 19.6231 33.4657 19.4189 33.0231 19.4189C32.4785 19.4189 32.0019 19.7593 32.0019 19.7593L31.7296 19.2486C31.7296 19.2486 32.2402 18.8061 33.0912 18.8061C34.0103 18.8061 34.5209 19.3167 34.5209 20.2018V22.4825H33.8742V22.1421C33.8742 21.9719 33.8742 21.8698 33.8742 21.8698C33.8742 21.8698 33.5678 22.5847 32.7168 22.5847C32.104 22.5847 31.4913 22.2102 31.4913 21.4954C31.4573 20.3039 33.0572 20.2699 33.6359 20.2699ZM35.1337 23.2655C35.1337 23.2655 35.3379 23.4017 35.5422 23.4017C35.8145 23.4017 36.0528 23.1974 36.189 22.891L36.3592 22.4825L34.8614 18.9423H35.6443L36.5634 21.2911C36.6315 21.4613 36.6996 21.7336 36.6996 21.7336C36.6996 21.7336 36.7677 21.4954 36.8357 21.2911L37.7208 18.9423H38.4697L36.7677 23.1974C36.5634 23.7421 36.1209 24.0484 35.6103 24.0484C35.2018 24.0484 34.8954 23.8442 34.8954 23.8442L35.1337 23.2655ZM40.2739 17.4785H40.9887L43.2354 20.7465C43.4056 21.0188 43.6439 21.4613 43.6439 21.4613C43.6439 21.4613 43.6099 21.0188 43.6099 20.7465V17.4785H44.3248V22.4825H43.6439L41.3972 19.2146C41.227 18.9423 40.9887 18.4657 40.9887 18.4657C40.9887 18.4657 41.0228 18.9082 41.0228 19.2146V22.4825H40.3079L40.2739 17.4785ZM48.1714 20.0316C48.7841 20.0316 49.1586 19.6571 49.1586 19.0444C49.1586 18.4317 48.7841 18.0913 48.2054 18.0913H47.1842V20.0316H48.1714ZM46.4353 17.4785H48.2735C49.1926 17.4785 49.8734 18.0913 49.8734 19.0444C49.8734 19.9975 49.2267 20.6443 48.3076 20.6443H47.1842V22.5166H46.4693L46.4353 17.4785ZM50.4181 17.4785H51.0989V21.3932C51.0989 21.8358 51.2691 21.9038 51.4734 21.9038C51.5414 21.9038 51.6095 21.9038 51.6095 21.9038V22.5166C51.6095 22.5166 51.5074 22.5166 51.3712 22.5166C50.9628 22.5166 50.4181 22.4145 50.4181 21.4954V17.4785ZM53.4818 22.04C54.0605 22.04 54.4349 21.4273 54.4349 20.8826V20.7805H54.2647C53.7541 20.7805 52.801 20.8145 52.801 21.4613C52.801 21.7336 53.0393 22.04 53.4818 22.04ZM54.2988 20.2699H54.469V20.2018C54.469 19.6231 54.1286 19.4189 53.686 19.4189C53.1414 19.4189 52.6648 19.7593 52.6648 19.7593L52.3925 19.2486C52.3925 19.2486 52.9031 18.8061 53.7541 18.8061C54.6732 18.8061 55.1838 19.3167 55.1838 20.2018V22.4825H54.503V22.1421C54.503 21.9719 54.503 21.8698 54.503 21.8698C54.503 21.8698 54.1966 22.5847 53.3456 22.5847C52.7329 22.5847 52.1201 22.2102 52.1201 21.4954C52.1201 20.3039 53.686 20.2699 54.2988 20.2699ZM55.7625 23.2655C55.7625 23.2655 55.9668 23.4017 56.171 23.4017C56.4434 23.4017 56.6816 23.1974 56.8178 22.891L56.988 22.4825L55.4902 18.9423H56.2731L57.1923 21.2911C57.2603 21.4613 57.3284 21.7336 57.3284 21.7336C57.3284 21.7336 57.3965 21.4954 57.4646 21.2911L58.3497 18.9423H59.0986L57.3965 23.1974C57.1923 23.7421 56.7497 24.0484 56.2391 24.0484C55.8306 24.0484 55.5242 23.8442 55.5242 23.8442L55.7625 23.2655Z" fill="#231F20"/>
    <path fill-rule="evenodd" clip-rule="evenodd" d="M29.619 20.0316C30.2318 20.0316 30.6062 19.6571 30.6062 19.0444C30.6062 18.4317 30.2318 18.0913 29.6531 18.0913H28.6319V20.0316H29.619ZM27.917 17.4785H29.7552C30.6743 17.4785 31.3211 18.0913 31.3211 19.0444C31.3211 19.9975 30.6743 20.6443 29.7552 20.6443H28.6319V22.5166H27.917V17.4785ZM32.8529 22.04C33.4316 22.04 33.8061 21.4273 33.8061 20.8826V20.7805H33.6359C33.1253 20.7805 32.1721 20.8145 32.1721 21.4613C32.1721 21.7336 32.4104 22.04 32.8529 22.04ZM33.6359 20.2699H33.8061V20.2018C33.8061 19.6231 33.4657 19.4189 33.0231 19.4189C32.4785 19.4189 32.0019 19.7593 32.0019 19.7593L31.7296 19.2486C31.7296 19.2486 32.2402 18.8061 33.0912 18.8061C34.0103 18.8061 34.5209 19.3167 34.5209 20.2018V22.4825H33.8742V22.1421C33.8742 21.9719 33.8742 21.8698 33.8742 21.8698C33.8742 21.8698 33.5678 22.5847 32.7168 22.5847C32.104 22.5847 31.4913 22.2102 31.4913 21.4954C31.4573 20.3039 33.0572 20.2699 33.6359 20.2699ZM35.1337 23.2655C35.1337 23.2655 35.3379 23.4017 35.5422 23.4017C35.8145 23.4017 36.0528 23.1974 36.189 22.891L36.3592 22.4825L34.8614 18.9423H35.6443L36.5634 21.2911C36.6315 21.4613 36.6996 21.7336 36.6996 21.7336C36.6996 21.7336 36.7677 21.4954 36.8357 21.2911L37.7208 18.9423H38.4697L36.7677 23.1974C36.5634 23.7421 36.1209 24.0484 35.6103 24.0484C35.2018 24.0484 34.8954 23.8442 34.8954 23.8442L35.1337 23.2655ZM40.2739 17.4785H40.9887L43.2354 20.7465C43.4056 21.0188 43.6439 21.4613 43.6439 21.4613C43.6439 21.4613 43.6099 21.0188 43.6099 20.7465V17.4785H44.3248V22.4825H43.6439L41.3972 19.2146C41.227 18.9423 40.9887 18.4657 40.9887 18.4657C40.9887 18.4657 41.0228 18.9082 41.0228 19.2146V22.4825H40.3079L40.2739 17.4785ZM48.1714 20.0316C48.7841 20.0316 49.1586 19.6571 49.1586 19.0444C49.1586 18.4317 48.7841 18.0913 48.2054 18.0913H47.1842V20.0316H48.1714ZM46.4353 17.4785H48.2735C49.1926 17.4785 49.8734 18.0913 49.8734 19.0444C49.8734 19.9975 49.2267 20.6443 48.3076 20.6443H47.1842V22.5166H46.4693L46.4353 17.4785ZM50.4181 17.4785H51.0989V21.3932C51.0989 21.8358 51.2691 21.9038 51.4734 21.9038C51.5414 21.9038 51.6095 21.9038 51.6095 21.9038V22.5166C51.6095 22.5166 51.5074 22.5166 51.3712 22.5166C50.9628 22.5166 50.4181 22.4145 50.4181 21.4954V17.4785ZM53.4818 22.04C54.0605 22.04 54.4349 21.4273 54.4349 20.8826V20.7805H54.2647C53.7541 20.7805 52.801 20.8145 52.801 21.4613C52.801 21.7336 53.0393 22.04 53.4818 22.04ZM54.2988 20.2699H54.469V20.2018C54.469 19.6231 54.1286 19.4189 53.686 19.4189C53.1414 19.4189 52.6648 19.7593 52.6648 19.7593L52.3925 19.2486C52.3925 19.2486 52.9031 18.8061 53.7541 18.8061C54.6732 18.8061 55.1838 19.3167 55.1838 20.2018V22.4825H54.503V22.1421C54.503 21.9719 54.503 21.8698 54.503 21.8698C54.503 21.8698 54.1966 22.5847 53.3456 22.5847C52.7329 22.5847 52.1201 22.2102 52.1201 21.4954C52.1201 20.3039 53.686 20.2699 54.2988 20.2699ZM55.7625 23.2655C55.7625 23.2655 55.9668 23.4017 56.171 23.4017C56.4434 23.4017 56.6816 23.1974 56.8178 22.891L56.988 22.4825L55.4902 18.9423H56.2731L57.1923 21.2911C57.2603 21.4613 57.3284 21.7336 57.3284 21.7336C57.3284 21.7336 57.3965 21.4954 57.4646 21.2911L58.3497 18.9423H59.0986L57.3965 23.1974C57.1923 23.7421 56.7497 24.0484 56.2391 24.0484C55.8306 24.0484 55.5242 23.8442 55.5242 23.8442L55.7625 23.2655Z" fill="white"/>
    <path fill-rule="evenodd" clip-rule="evenodd" d="M60.3538 18.704C60.0474 18.704 59.8092 18.4657 59.8092 18.1253C59.8092 17.8189 60.0474 17.5806 60.3538 17.5806C60.6602 17.5806 60.8985 17.8189 60.8985 18.1253C60.8985 18.4657 60.6602 18.704 60.3538 18.704ZM60.3538 17.4785C60.0134 17.4785 59.707 17.7849 59.707 18.1253C59.707 18.4997 59.9794 18.7721 60.3538 18.7721C60.7283 18.7721 61.0006 18.4657 61.0006 18.1253C61.0006 17.7849 60.7283 17.4785 60.3538 17.4785Z" fill="#231F20"/>
    <path fill-rule="evenodd" clip-rule="evenodd" d="M60.3538 18.704C60.0474 18.704 59.8092 18.4657 59.8092 18.1253C59.8092 17.8189 60.0474 17.5806 60.3538 17.5806C60.6602 17.5806 60.8985 17.8189 60.8985 18.1253C60.8985 18.4657 60.6602 18.704 60.3538 18.704ZM60.3538 17.4785C60.0134 17.4785 59.707 17.7849 59.707 18.1253C59.707 18.4997 59.9794 18.7721 60.3538 18.7721C60.7283 18.7721 61.0006 18.4657 61.0006 18.1253C61.0006 17.7849 60.7283 17.4785 60.3538 17.4785Z" fill="white"/>
    <path fill-rule="evenodd" clip-rule="evenodd" d="M60.3926 18.1247H60.2564V17.8864H60.3926C60.4607 17.8864 60.4947 17.9205 60.4947 17.9886C60.4947 18.0907 60.4607 18.1247 60.3926 18.1247ZM60.4947 18.2269C60.4947 18.2269 60.4947 18.1928 60.4607 18.1928C60.5287 18.1928 60.5968 18.1247 60.5968 18.0226C60.5968 17.9205 60.5287 17.8184 60.3926 17.8184H60.1543V18.4651H60.2564V18.1928H60.3926L60.5287 18.4651H60.6309L60.4947 18.2269Z" fill="#231F20"/>
    <path fill-rule="evenodd" clip-rule="evenodd" d="M60.3926 18.1247H60.2564V17.8864H60.3926C60.4607 17.8864 60.4947 17.9205 60.4947 17.9886C60.4947 18.0907 60.4607 18.1247 60.3926 18.1247ZM60.4947 18.2269C60.4947 18.2269 60.4947 18.1928 60.4607 18.1928C60.5287 18.1928 60.5968 18.1247 60.5968 18.0226C60.5968 17.9205 60.5287 17.8184 60.3926 17.8184H60.1543V18.4651H60.2564V18.1928H60.3926L60.5287 18.4651H60.6309L60.4947 18.2269Z" fill="white"/>
    <path fill-rule="evenodd" clip-rule="evenodd" d="M11.5787 26.9763C11.2383 26.9763 11 26.704 11 26.3976V26.3636L11.7149 13.5982C11.7149 13.2578 11.9872 13.0195 12.3276 13.0195C12.668 13.0536 12.9063 13.3259 12.8723 13.6323L12.1914 26.4317C12.1574 26.7381 11.9191 26.9763 11.5787 26.9763Z" fill="#006E00"/>
    <path fill-rule="evenodd" clip-rule="evenodd" d="M12.295 13.0195C12.0907 13.0195 11.9205 13.1217 11.7844 13.2919C11.6141 13.5642 11.6822 13.9386 11.9546 14.1088L22.7115 20.9851C22.9838 21.1553 23.3583 21.0872 23.5285 20.8149C23.6987 20.5426 23.6306 20.1681 23.3583 19.9979L12.6013 13.1217C12.5333 13.0536 12.3971 13.0195 12.295 13.0195Z" fill="url(#paint0_linear_1429_7804)"/>
    <path fill-rule="evenodd" clip-rule="evenodd" d="M11.5786 26.976C11.3744 26.976 11.1701 26.8398 11.068 26.6696C10.9319 26.3973 11.034 26.0228 11.3063 25.8866L22.7441 19.9976C23.0164 19.8614 23.3909 19.9635 23.527 20.2358C23.6632 20.5082 23.5611 20.8826 23.2887 21.0188L11.851 26.9079C11.7829 26.9419 11.6808 26.976 11.5786 26.976Z" fill="#69D720"/>
    <path fill-rule="evenodd" clip-rule="evenodd" d="M14.3381 21.6323C14.0658 21.6323 13.8275 21.4621 13.7594 21.1898L11.7169 13.7688C11.6489 13.4625 11.8191 13.122 12.1595 13.054C12.4658 12.9859 12.7722 13.1561 12.8743 13.4625L14.9168 20.8834C15.0189 21.1898 14.8147 21.4961 14.5083 21.5983C14.4743 21.5983 14.4062 21.6323 14.3381 21.6323Z" fill="#69D720"/>
    <path fill-rule="evenodd" clip-rule="evenodd" d="M11.5787 26.9766C11.2383 26.9766 11 26.7043 11 26.3979C11 26.2958 11.034 26.2277 11.0681 26.1256L13.8254 20.7811C13.9616 20.5088 14.336 20.3726 14.6083 20.5428C14.8807 20.679 15.0168 21.0535 14.8466 21.3258L12.1234 26.6702C12.0212 26.8404 11.817 26.9766 11.5787 26.9766Z" fill="#69D720"/>
    <path fill-rule="evenodd" clip-rule="evenodd" d="M14.3365 21.6318C14.0301 21.6318 13.7578 21.3935 13.7578 21.0872C13.7237 20.7468 13.9961 20.4744 14.3024 20.4744L22.9829 19.9638C23.2893 19.9298 23.5956 20.2021 23.5956 20.5085C23.6297 20.8489 23.3573 21.1212 23.051 21.1212L14.3705 21.6318C14.3705 21.6318 14.3705 21.6318 14.3365 21.6318Z" fill="#69D720"/>
    <rect x="0.5" y="0.5" width="71" height="39" rx="15.5" stroke="url(#paint1_linear_1429_7804)"/>
    <defs>
        <linearGradient id="paint0_linear_1429_7804" x1="22.8144" y1="20.32" x2="16.6279" y2="11.7521" gradientUnits="userSpaceOnUse">
            <stop stop-color="#5BBC1D"/>
            <stop offset="1" stop-color="#006E00"/>
        </linearGradient>
        <linearGradient id="paint1_linear_1429_7804" x1="0" y1="0" x2="74.8062" y2="33.7869" gradientUnits="userSpaceOnUse">
            <stop stop-color="white" stop-opacity="0.24"/>
            <stop offset="1" stop-color="white" stop-opacity="0.14"/>
        </linearGradient>
    </defs>
</svg>
