<svg width="36" height="14" viewBox="0 0 36 14" fill="none" xmlns="http://www.w3.org/2000/svg">
<path d="M28.6285 1.9393L31.6244 1.38956V13.1715H28.6285V1.9393ZM33.0025 1.9393V13.1715H36V1.38956L33.0025 1.9393ZM24.3609 13.1715H27.3584V4.5546H24.3609V13.1715ZM4.55497 5.77281C4.17552 5.74678 3.29914 5.68986 3.29914 4.87989C3.29914 3.90403 4.56132 3.90403 5.03603 3.90403C5.86955 3.90403 6.94756 4.15613 7.71758 4.39196C7.71758 4.39196 8.14783 4.54647 8.51299 4.70586L8.54633 4.71562V4.67984V2.04339L8.50029 2.02875C7.59215 1.70346 6.53477 1.38956 4.57561 1.38956C1.19709 1.38956 0 3.40634 0 5.13362C0 6.12899 0.415964 8.47269 4.28507 8.74268C4.61372 8.76382 5.48375 8.81424 5.48375 9.65023C5.48375 10.3398 4.77089 10.7481 3.57222 10.7481C2.25923 10.7481 0.984344 10.4049 0.20957 10.0796V12.8332C1.36856 13.1438 2.67361 13.3 4.20569 13.3C7.50959 13.3 8.98928 11.3921 8.98928 9.50222C8.9877 7.35695 7.33178 5.9631 4.55497 5.77281ZM22.6717 4.42774C19.9012 4.51882 18.4961 5.79232 18.4961 8.32306V13.1715H21.519V9.2176C21.519 7.70176 21.7127 7.05281 23.4687 6.99101V4.47166C23.1718 4.40823 22.6717 4.42774 22.6717 4.42774ZM14.5413 4.54485C14.4746 4.71725 13.9951 6.1046 12.8346 7.54399V1.38956L9.74183 2.01574V13.1715H12.8346V9.72342C13.73 11.0994 14.173 13.1715 14.173 13.1715H17.877C17.5102 11.6117 15.9083 8.73292 15.9083 8.73292C17.3467 6.86414 17.9786 4.87339 18.0786 4.54322H14.5413V4.54485ZM25.8597 3.72675C26.6757 3.72675 27.3378 3.04853 27.3378 2.21416C27.3378 1.37818 26.6757 0.699951 25.8597 0.699951C25.0452 0.699951 24.3832 1.37818 24.3832 2.21416C24.3832 3.05015 25.0436 3.72675 25.8597 3.72675Z" fill="#862165"/>
</svg>
