<svg width="72" height="40" viewBox="0 0 72 40" fill="none" xmlns="http://www.w3.org/2000/svg">
    <rect x="0.5" y="0.5" width="71" height="39" rx="15.5" fill="#110A1D"/>
    <path d="M46.6285 14.9395L49.6244 14.3898V26.1717H46.6285V14.9395ZM51.0025 14.9395V26.1717H54V14.3898L51.0025 14.9395ZM42.3609 26.1717H45.3584V17.5548H42.3609V26.1717ZM22.555 18.773C22.1755 18.747 21.2991 18.6901 21.2991 17.8801C21.2991 16.9043 22.5613 16.9043 23.036 16.9043C23.8695 16.9043 24.9476 17.1564 25.7176 17.3922C25.7176 17.3922 26.1478 17.5467 26.513 17.7061L26.5463 17.7159V17.6801V15.0436L26.5003 15.029C25.5922 14.7037 24.5348 14.3898 22.5756 14.3898C19.1971 14.3898 18 16.4066 18 18.1339C18 19.1292 18.416 21.4729 22.2851 21.7429C22.6137 21.7641 23.4837 21.8145 23.4837 22.6505C23.4837 23.3401 22.7709 23.7483 21.5722 23.7483C20.2592 23.7483 18.9843 23.4051 18.2096 23.0799V25.8334C19.3686 26.1441 20.6736 26.3002 22.2057 26.3002C25.5096 26.3002 26.9893 24.3924 26.9893 22.5025C26.9877 20.3572 25.3318 18.9633 22.555 18.773ZM40.6717 17.428C37.9012 17.5191 36.4961 18.7926 36.4961 21.3233V26.1717H39.519V22.2178C39.519 20.702 39.7127 20.0531 41.4687 19.9913V17.4719C41.1718 17.4085 40.6717 17.428 40.6717 17.428ZM32.5413 17.5451C32.4746 17.7175 31.9951 19.1048 30.8346 20.5442V14.3898L27.7418 15.016V26.1717H30.8346V22.7237C31.73 24.0996 32.173 26.1717 32.173 26.1717H35.877C35.5102 24.612 33.9083 21.7332 33.9083 21.7332C35.3467 19.8644 35.9786 17.8736 36.0786 17.5435H32.5413V17.5451ZM43.8597 16.727C44.6757 16.727 45.3378 16.0488 45.3378 15.2144C45.3378 14.3784 44.6757 13.7002 43.8597 13.7002C43.0452 13.7002 42.3832 14.3784 42.3832 15.2144C42.3832 16.0504 43.0436 16.727 43.8597 16.727Z" fill="#862165"/>
    <rect x="0.5" y="0.5" width="71" height="39" rx="15.5" stroke="url(#paint0_linear_1429_7794)"/>
    <defs>
        <linearGradient id="paint0_linear_1429_7794" x1="0" y1="0" x2="74.8062" y2="33.7869" gradientUnits="userSpaceOnUse">
            <stop stop-color="white" stop-opacity="0.24"/>
            <stop offset="1" stop-color="white" stop-opacity="0.14"/>
        </linearGradient>
    </defs>
</svg>
