<svg width="72" height="40" viewBox="0 0 72 40" fill="none" xmlns="http://www.w3.org/2000/svg">
    <rect x="0.5" y="0.5" width="71" height="39" rx="15.5" fill="#110A1D"/>
    <path d="M28.8904 13.4238C28.3159 13.4238 27.7589 13.5573 27.2356 13.8065C26.4884 14.1644 25.8106 14.7612 25.2573 15.5532C24.8979 16.0673 24.5902 16.6633 24.3493 17.3299C23.8951 18.5881 23.9002 19.6086 24.3646 20.2812C24.6279 20.6614 25.1752 21.1155 26.2882 21.1168H26.2925C28.3198 21.1168 29.8331 19.773 30.7916 17.1226C31.0447 16.4214 31.3787 15.1126 30.7683 14.2295C30.3996 13.6956 29.7688 13.4247 28.8904 13.4238ZM41.1231 13.4238C40.549 13.4238 39.9915 13.5573 39.4687 13.8065C38.7211 14.1644 38.0438 14.7612 37.4905 15.5532C37.1307 16.0673 36.8233 16.6633 36.5824 17.3299C36.1277 18.5881 36.1332 19.6086 36.598 20.2812C36.8609 20.6614 37.4079 21.1155 38.5217 21.1168H38.5251C40.5529 21.1168 42.0667 19.773 43.0243 17.1226C43.2782 16.4214 43.6114 15.1126 43.0014 14.2295C42.6322 13.6956 42.0015 13.4247 41.1231 13.4238ZM22.3795 13.5304C21.7124 13.5304 21.0643 13.5303 20.4834 13.8283C19.9031 14.1262 19.3904 14.7226 18.9958 15.9153C18.9103 16.1717 18.8651 16.3927 18.8592 16.5845C18.8532 16.7767 18.8863 16.9402 18.9582 17.0823C19.0471 17.2557 19.1911 17.4188 19.371 17.5563C19.5513 17.6941 19.7667 17.8059 19.9992 17.8774C20.008 17.8799 20.13 17.915 20.2782 17.9578C20.4255 18.0006 20.5978 18.052 20.707 18.0854C20.7709 18.105 20.8411 18.1308 20.9046 18.1697C20.9686 18.2078 21.0257 18.2592 21.0617 18.3302C21.0854 18.3773 21.0982 18.4291 21.0994 18.4844C21.1011 18.54 21.0917 18.6 21.0702 18.6634C21.016 18.8252 20.9338 18.9296 20.7772 18.9934C20.6214 19.0572 20.3916 19.0777 20.0427 19.0803H15.6883L15 20.9926H19.6609C20.0995 20.9926 20.9012 20.9926 21.6717 20.6613C22.4422 20.3304 23.1814 19.6689 23.4942 18.3448C23.6119 17.8474 23.5755 17.4419 23.3829 17.1234C23.1894 16.8054 22.8397 16.5742 22.3305 16.4265C22.3305 16.4265 22.2166 16.393 22.0824 16.3541C21.9491 16.3151 21.7945 16.2706 21.7158 16.2475C21.5854 16.2099 21.4851 16.1336 21.4258 16.0365C21.367 15.9397 21.3492 15.822 21.3826 15.7017C21.4178 15.5767 21.5024 15.4769 21.6244 15.408C21.7471 15.3395 21.908 15.3018 22.0959 15.3018H24.8052C24.8243 15.274 24.8417 15.2437 24.8607 15.2158C25.3556 14.5077 25.9546 13.9349 26.6108 13.5304H22.3795ZM34.5571 13.5304C33.3515 13.5304 32.454 14.1472 32.0302 15.3018L29.9821 20.9926H32.2258L33.2782 18.0674L35.2611 18.0687L35.8254 16.5019L33.8489 16.5005L34.1673 15.5934C34.2333 15.4307 34.392 15.3014 34.624 15.3014C34.7531 15.3014 36.2089 15.3018 36.962 15.3022C36.9815 15.274 36.9989 15.2437 37.0179 15.2158C37.5128 14.5077 38.2134 13.9349 38.8696 13.5304H34.5571ZM44.9661 13.5345L42.2791 20.9972H44.5614L45.538 18.3704C45.5858 18.4787 46.162 20.9972 46.162 20.9972H48.5614C48.5614 20.9972 48.125 19.1465 47.8041 18.3991C47.7216 18.2069 47.6356 17.9915 47.5204 17.8113C48.1982 17.5566 49.1803 17.0099 49.5871 15.9019C49.8369 15.2208 49.8226 14.6703 49.5449 14.2665C49.2083 13.7764 48.5234 13.5358 47.4502 13.5345H44.9661ZM49.6472 13.5346C49.7915 13.6502 49.916 13.782 50.0197 13.9327C50.2851 14.3197 50.3867 14.7796 50.3262 15.3066H51.6851L49.637 20.9991H51.6834L53.7327 15.3066H56.3621L57 13.5346H49.6472ZM46.4697 15.0753H46.8465C47.5353 15.0757 47.7922 15.2795 47.5589 15.9152C47.3401 16.512 46.9464 16.8806 46.1979 16.8806H46.195L45.8076 16.8802L46.4697 15.0753ZM28.3519 15.1123H28.3524C29.0534 15.1131 29.2139 15.5241 28.5984 17.2271H28.5983C27.9658 18.9776 27.507 19.4181 26.8161 19.4181H26.8148C26.1417 19.4177 25.9055 18.987 26.5354 17.2446C27.0057 15.944 27.6149 15.1123 28.3519 15.1123ZM40.5846 15.1123H40.5854C41.2861 15.1131 41.4469 15.5241 40.8309 17.2271C40.1989 18.9776 39.7396 19.4181 39.0491 19.4181H39.0475C38.374 19.4177 38.139 18.987 38.7685 17.2446C39.2384 15.944 39.848 15.1123 40.5846 15.1123Z" fill="#EE7F00"/>
    <path d="M17.2189 21.7832C17.0754 21.7832 16.9679 21.8097 16.8959 21.8615C16.8243 21.9146 16.7642 22.0084 16.7155 22.1441C16.6685 22.2742 16.6614 22.3645 16.694 22.4159C16.7266 22.4677 16.815 22.4934 16.9606 22.4934C17.1058 22.4934 17.2142 22.4668 17.2854 22.4129C17.3565 22.3594 17.4162 22.266 17.464 22.1325C17.5114 22.0006 17.5194 21.9099 17.4873 21.8589C17.4559 21.8084 17.3662 21.7832 17.2189 21.7832ZM18.4563 21.7832C18.3106 21.7832 18.2027 21.8097 18.132 21.8615C18.0609 21.9146 18.0012 22.0084 17.9526 22.1441C17.906 22.2742 17.8984 22.3645 17.9297 22.4159C17.9614 22.4677 18.0495 22.4934 18.1951 22.4934C18.3403 22.4934 18.4487 22.4668 18.5211 22.4129C18.5931 22.3594 18.6531 22.266 18.7013 22.1325C18.7488 22.0006 18.756 21.9099 18.7234 21.8589C18.6904 21.8084 18.6015 21.7832 18.4563 21.7832ZM41.5547 22.754C41.3862 22.754 41.2195 22.7759 41.0536 22.8195C40.8876 22.8636 40.7335 22.9299 40.5912 23.0186C40.4486 23.1076 40.3212 23.2189 40.2073 23.3533C40.0939 23.4882 40.0053 23.6445 39.9414 23.8217C39.8855 23.9767 39.8606 24.1089 39.8661 24.2198C39.8712 24.3303 39.8957 24.4266 39.9393 24.5075C39.9825 24.5889 40.0401 24.6582 40.112 24.7164C40.1836 24.7747 40.2598 24.8268 40.3415 24.8722C40.4232 24.918 40.5027 24.9622 40.5811 25.0028C40.6585 25.0439 40.7255 25.0876 40.7809 25.1347C40.8372 25.1813 40.8765 25.2348 40.9002 25.2948C40.9239 25.3551 40.9206 25.4271 40.8906 25.511C40.8643 25.5833 40.8275 25.6493 40.7796 25.7084C40.7318 25.7679 40.6755 25.8176 40.6115 25.8574C40.5468 25.8976 40.4752 25.9288 40.3952 25.9507C40.3156 25.9725 40.2306 25.9837 40.14 25.9837C40.002 25.9837 39.8864 25.9678 39.7933 25.9361C39.7001 25.9048 39.6223 25.8698 39.5605 25.8317C39.4991 25.7936 39.4495 25.7589 39.4131 25.7272C39.3759 25.6959 39.3441 25.6801 39.3174 25.6801C39.2988 25.6801 39.2806 25.6852 39.2624 25.6959C39.2446 25.7062 39.2268 25.7237 39.2095 25.7485C39.1921 25.7734 39.1743 25.8059 39.1561 25.8462C39.1379 25.886 39.1176 25.9361 39.0969 25.9948C39.0652 26.0829 39.046 26.1501 39.0397 26.1968C39.0329 26.2434 39.0381 26.2794 39.0537 26.3043C39.0685 26.3291 39.099 26.3577 39.143 26.3903C39.1866 26.4224 39.245 26.4536 39.3174 26.4832C39.3898 26.5127 39.4766 26.538 39.5773 26.559C39.6785 26.58 39.7924 26.5902 39.919 26.5902C40.1056 26.5902 40.2903 26.5654 40.4723 26.5161C40.6544 26.4665 40.8245 26.3924 40.9824 26.294C41.1408 26.1959 41.2817 26.0735 41.4066 25.9262C41.531 25.7794 41.6284 25.6085 41.6987 25.4138C41.752 25.2648 41.7762 25.1355 41.7702 25.0259C41.7643 24.9164 41.7393 24.8205 41.6948 24.7396C41.6504 24.6582 41.5916 24.5889 41.5179 24.5302C41.4447 24.4724 41.3667 24.4202 41.285 24.3744C41.2038 24.3285 41.123 24.2854 41.0434 24.2443C40.9638 24.2032 40.8952 24.159 40.8376 24.1123C40.7796 24.0657 40.7394 24.0122 40.7165 23.9522C40.6941 23.8923 40.6974 23.8208 40.7271 23.7386C40.747 23.6834 40.7759 23.6312 40.814 23.5811C40.8512 23.5314 40.8965 23.4891 40.9498 23.454C41.0032 23.4188 41.0633 23.391 41.131 23.3709C41.1987 23.3508 41.2733 23.3409 41.3545 23.3409C41.4583 23.3409 41.5493 23.3533 41.6268 23.3795C41.7042 23.4051 41.7702 23.4334 41.8248 23.4655C41.8794 23.4967 41.9247 23.5258 41.9603 23.5528C41.9962 23.5798 42.0247 23.5927 42.045 23.5927C42.0662 23.5927 42.0844 23.5871 42.1009 23.5755C42.1174 23.564 42.1335 23.546 42.1492 23.5212C42.1644 23.4963 42.18 23.4646 42.1969 23.4265C42.2134 23.3888 42.2321 23.3418 42.252 23.2866C42.2698 23.2369 42.2837 23.195 42.2934 23.162C42.304 23.1282 42.3104 23.1007 42.3138 23.0789C42.3167 23.057 42.3176 23.0391 42.3159 23.0259C42.3138 23.0126 42.307 22.9959 42.2952 22.977C42.2833 22.9582 42.2532 22.9342 42.2049 22.9055C42.1563 22.8768 42.0987 22.8512 42.0314 22.828C41.9645 22.8054 41.8896 22.7874 41.8079 22.7741C41.7254 22.7604 41.6411 22.754 41.5547 22.754ZM53.3123 22.7564C53.0235 22.7564 52.7459 22.8013 52.4783 22.8912C52.2108 22.9811 51.964 23.11 51.7366 23.2791C51.5102 23.4482 51.3074 23.6532 51.13 23.8947C50.9526 24.1366 50.8095 24.4089 50.6999 24.7124C50.5945 25.0061 50.542 25.2694 50.5441 25.501C50.545 25.733 50.5971 25.93 50.6991 26.0909C50.8015 26.2523 50.953 26.3752 51.1541 26.4604C51.3543 26.5451 51.6011 26.5875 51.8936 26.5875C51.994 26.5875 52.0952 26.5828 52.1977 26.5734C52.3001 26.5635 52.4033 26.5494 52.5075 26.5305C52.612 26.5113 52.7137 26.4886 52.814 26.4616C52.9144 26.4346 52.9994 26.4094 53.0697 26.3846C53.14 26.3594 53.1929 26.3255 53.2284 26.2827C53.2631 26.2399 53.2915 26.1898 53.3119 26.1324L53.8427 24.6581C53.8562 24.6195 53.8639 24.5857 53.8647 24.5561C53.866 24.5266 53.8618 24.5014 53.8512 24.4804C53.8406 24.4594 53.8258 24.4435 53.8059 24.4332C53.786 24.4225 53.761 24.417 53.7309 24.417H52.4936C52.4766 24.417 52.4597 24.4225 52.4428 24.4332C52.4258 24.4435 52.4089 24.4598 52.3911 24.482C52.3742 24.5039 52.3564 24.5326 52.3386 24.5694C52.3208 24.6054 52.3022 24.6503 52.2831 24.7034C52.2459 24.807 52.2289 24.8798 52.2323 24.9226C52.2361 24.9658 52.2547 24.9872 52.2886 24.9872H52.9825L52.673 25.8461C52.5896 25.8842 52.5037 25.9128 52.4156 25.9321C52.328 25.9509 52.2421 25.9607 52.1592 25.9607C51.989 25.9607 51.8437 25.9329 51.723 25.8777C51.6024 25.8221 51.5114 25.7403 51.4509 25.6311C51.3899 25.5228 51.3607 25.3875 51.3628 25.2265C51.3654 25.0651 51.4047 24.8781 51.4809 24.6666C51.5503 24.4735 51.6413 24.2976 51.7535 24.1383C51.8653 23.9791 51.9927 23.8425 52.1354 23.7286C52.2785 23.6152 52.433 23.5274 52.5985 23.4654C52.7645 23.4037 52.9359 23.3725 53.1133 23.3725C53.2792 23.3725 53.4189 23.3896 53.5324 23.4238C53.645 23.4581 53.7398 23.4957 53.8165 23.5355C53.8922 23.5758 53.9515 23.613 53.9939 23.6472C54.0362 23.6815 54.0696 23.6986 54.0946 23.6986C54.1111 23.6986 54.1276 23.694 54.1432 23.6845C54.1593 23.6747 54.1755 23.6579 54.1928 23.6344C54.2098 23.6104 54.2275 23.5784 54.2466 23.5381C54.2661 23.4983 54.2855 23.4507 54.3054 23.3951C54.3397 23.2996 54.3601 23.2278 54.366 23.179C54.3728 23.1306 54.3676 23.0929 54.352 23.0659C54.3359 23.039 54.3025 23.0077 54.2517 22.9713C54.2004 22.9353 54.1314 22.9011 54.0455 22.8699C53.96 22.8382 53.8558 22.8117 53.7334 22.7898C53.6111 22.7676 53.4706 22.7564 53.3123 22.7564ZM30.1665 22.8022C30.07 22.8022 29.9943 22.8047 29.9388 22.8099C29.8834 22.8146 29.8402 22.8274 29.8089 22.8484C29.7775 22.8694 29.756 22.8993 29.7441 22.9387C29.7319 22.9777 29.7221 23.0316 29.7141 23.1006L29.383 26.3327C29.3775 26.379 29.3788 26.4154 29.3855 26.4432C29.3927 26.4706 29.4126 26.4915 29.4452 26.5061C29.4778 26.5202 29.5257 26.53 29.5892 26.5347C29.6527 26.5395 29.7391 26.5416 29.8483 26.5416C29.9524 26.5416 30.0366 26.5395 30.1014 26.5347C30.1662 26.53 30.2203 26.5198 30.2627 26.5044C30.3046 26.4895 30.3393 26.468 30.3664 26.4402C30.3931 26.4128 30.4194 26.3768 30.4448 26.3327L31.8447 23.985H31.8502L31.5916 26.3327C31.5844 26.379 31.5844 26.4154 31.5916 26.4432C31.5983 26.4706 31.6182 26.4915 31.6508 26.5061C31.6834 26.5202 31.7312 26.53 31.7947 26.5347C31.8582 26.5395 31.9437 26.5416 32.0513 26.5416C32.1474 26.5416 32.2278 26.5395 32.2917 26.5347C32.3556 26.53 32.4102 26.5202 32.4547 26.5061C32.4995 26.4915 32.5372 26.4706 32.5664 26.4432C32.5965 26.4154 32.6257 26.379 32.6532 26.3327L34.6544 23.1091C34.6967 23.0385 34.7267 22.9824 34.7445 22.9417C34.7619 22.9002 34.7639 22.8694 34.7508 22.8484C34.7373 22.8274 34.709 22.8146 34.6645 22.8099C34.6197 22.8047 34.5558 22.8022 34.4732 22.8022C34.3843 22.8022 34.3144 22.8047 34.2636 22.8099C34.2128 22.8146 34.1717 22.8231 34.1408 22.8356C34.1103 22.848 34.0858 22.8651 34.0689 22.8869C34.0515 22.9092 34.0342 22.9352 34.0177 22.9656L32.3569 25.7946H32.3514L32.6745 22.9768C32.6804 22.9392 32.6811 22.9083 32.6765 22.8852C32.6714 22.8629 32.6567 22.845 32.6317 22.8326C32.6067 22.8202 32.5685 22.812 32.516 22.8081C32.4631 22.8043 32.392 22.8022 32.3014 22.8022C32.2163 22.8022 32.1473 22.8047 32.0949 22.8099C32.0419 22.8146 31.9987 22.8231 31.9653 22.8356C31.9314 22.848 31.9043 22.8655 31.884 22.8882C31.8633 22.9113 31.843 22.9413 31.8222 22.9768L30.1403 25.7946H30.1374L30.5159 22.9571C30.5235 22.9207 30.526 22.8929 30.5234 22.8728C30.5213 22.8526 30.5091 22.8373 30.4862 22.827C30.4634 22.8163 30.427 22.8099 30.3762 22.8069C30.325 22.8039 30.2554 22.8022 30.1665 22.8022ZM39.002 22.8024C38.93 22.8024 38.8694 22.8053 38.8203 22.8109C38.7712 22.8169 38.7302 22.8246 38.6976 22.834C38.665 22.8434 38.6396 22.8559 38.6219 22.8713C38.6041 22.8867 38.5918 22.9039 38.5846 22.9227L37.3256 26.4215C37.3188 26.4408 37.3184 26.458 37.3256 26.4734C37.3319 26.4884 37.3476 26.5008 37.3725 26.5102C37.3979 26.52 37.4331 26.5277 37.4792 26.5333C37.5249 26.5389 37.5842 26.5418 37.6557 26.5418C37.7294 26.5418 37.7908 26.5389 37.8404 26.5333C37.8895 26.5277 37.9301 26.52 37.9614 26.5102C37.9936 26.5008 38.0182 26.4884 38.0364 26.4734C38.0537 26.458 38.066 26.4408 38.0727 26.4215L39.3321 22.9227C39.3394 22.9039 39.3393 22.8867 39.3326 22.8713C39.3258 22.8559 39.3098 22.8434 39.2848 22.834C39.2602 22.8246 39.2251 22.8169 39.1802 22.8109C39.1349 22.8053 39.0752 22.8024 39.002 22.8024ZM16.351 22.8025C16.2774 22.8025 16.216 22.8055 16.1665 22.8111C16.1174 22.8171 16.0763 22.8248 16.0437 22.8342C16.0111 22.8436 15.9861 22.856 15.9696 22.8714C15.9526 22.8864 15.9408 22.9035 15.9336 22.9228L15.1229 25.1763C15.0379 25.413 14.9968 25.6194 15.0002 25.7958C15.004 25.9726 15.0471 26.1198 15.1314 26.238C15.2152 26.3566 15.3384 26.4448 15.5005 26.503C15.6622 26.5612 15.8587 26.5903 16.089 26.5903C16.3345 26.5903 16.5631 26.5578 16.7752 26.4931C16.9873 26.4281 17.1799 26.334 17.3526 26.2098C17.5258 26.0861 17.6778 25.9341 17.8082 25.7543C17.939 25.5749 18.0452 25.372 18.1269 25.1446L18.9266 22.9228C18.9338 22.9035 18.9338 22.8864 18.9278 22.8714C18.9223 22.856 18.9071 22.8436 18.8821 22.8342C18.8571 22.8248 18.8229 22.8171 18.7785 22.8111C18.7344 22.8055 18.6764 22.8025 18.6044 22.8025C18.5329 22.8025 18.472 22.8055 18.4216 22.8111C18.3716 22.8171 18.3309 22.8248 18.2988 22.8342C18.267 22.8436 18.2429 22.856 18.226 22.8714C18.2091 22.8864 18.1976 22.9035 18.1904 22.9228L17.3878 25.1533C17.3412 25.283 17.2815 25.399 17.2104 25.5013C17.1384 25.6036 17.058 25.6892 16.9686 25.7585C16.8793 25.8283 16.782 25.881 16.6762 25.9178C16.5712 25.9538 16.4598 25.9722 16.343 25.9722C16.2274 25.9722 16.1296 25.9547 16.0487 25.9191C15.9683 25.8836 15.9073 25.8309 15.8654 25.7603C15.8239 25.6896 15.8045 25.6006 15.8075 25.4923C15.8105 25.3848 15.8384 25.2573 15.8913 25.11L16.6787 22.9228C16.6855 22.9035 16.6855 22.8864 16.6787 22.8714C16.672 22.856 16.6563 22.8436 16.6313 22.8342C16.6063 22.8248 16.5712 22.8171 16.5263 22.8111C16.481 22.8055 16.4226 22.8025 16.351 22.8025ZM43.82 22.8026C43.7463 22.8026 43.685 22.8055 43.6354 22.8111C43.5863 22.8167 43.5453 22.8244 43.5127 22.8338C43.4801 22.8437 43.455 22.8561 43.4381 22.8711C43.4212 22.8865 43.4097 22.9036 43.4026 22.9229L42.5919 25.176C42.5068 25.4127 42.4657 25.6195 42.4695 25.7959C42.4725 25.9727 42.5161 26.1199 42.5999 26.2381C42.6842 26.3567 42.807 26.4449 42.9696 26.5031C43.1313 26.5613 43.3276 26.5905 43.5579 26.5905C43.803 26.5905 44.0317 26.5579 44.2442 26.4932C44.4563 26.4282 44.6484 26.334 44.8216 26.2098C44.9947 26.0857 45.1463 25.9342 45.2771 25.7544C45.4079 25.575 45.5137 25.3716 45.5959 25.1447L46.3956 22.9229C46.4028 22.9036 46.4027 22.8865 46.3968 22.8711C46.3909 22.8561 46.3761 22.8437 46.3512 22.8338C46.3262 22.8244 46.2919 22.8167 46.2474 22.8111C46.2034 22.8055 46.145 22.8026 46.0734 22.8026C46.0019 22.8026 45.9409 22.8055 45.8905 22.8111C45.8406 22.8167 45.8 22.8244 45.7678 22.8338C45.736 22.8437 45.7114 22.8561 45.6949 22.8711C45.678 22.8865 45.6666 22.9036 45.6594 22.9229L44.8567 25.1533C44.8097 25.283 44.7504 25.399 44.6793 25.5013C44.6074 25.6036 44.527 25.6888 44.4377 25.7586C44.3484 25.8284 44.251 25.8811 44.1451 25.9175C44.0397 25.9539 43.928 25.9723 43.8115 25.9723C43.6964 25.9723 43.5986 25.9543 43.5178 25.9192C43.4373 25.8837 43.376 25.831 43.3341 25.7604C43.2926 25.6897 43.2731 25.6003 43.2764 25.4924C43.279 25.3849 43.3074 25.2574 43.3603 25.1101L44.1473 22.9229C44.1545 22.9036 44.154 22.8865 44.1473 22.8711C44.1409 22.8561 44.1248 22.8437 44.1002 22.8338C44.0752 22.8244 44.0401 22.8167 43.9953 22.8111C43.95 22.8055 43.8915 22.8026 43.82 22.8026ZM50.1862 22.8081C50.1181 22.8081 50.0618 22.8107 50.016 22.8154C49.9712 22.8201 49.9335 22.8282 49.9026 22.8398C49.8722 22.8513 49.8484 22.8647 49.8319 22.8796C49.815 22.8951 49.8031 22.9122 49.7963 22.9314L49.1702 24.6695C49.1232 24.8013 49.075 24.9396 49.0255 25.0843C48.976 25.2295 48.9298 25.369 48.8879 25.5026H48.8849C48.8781 25.4259 48.8714 25.3498 48.8625 25.2736C48.8541 25.197 48.8455 25.1194 48.8362 25.0402C48.8269 24.9606 48.8159 24.8819 48.8041 24.8027C48.7918 24.723 48.78 24.6426 48.7681 24.5604L48.542 23.2062C48.5331 23.1317 48.5204 23.0693 48.5047 23.0188C48.4887 22.9683 48.4666 22.9289 48.4387 22.9002C48.4099 22.8715 48.3735 22.8504 48.3291 22.838C48.2846 22.8256 48.2262 22.8196 48.1547 22.8196H47.7554C47.6801 22.8196 47.6082 22.8423 47.54 22.8868C47.4719 22.9318 47.4219 22.9991 47.3897 23.089L46.1912 26.4187C46.184 26.4376 46.1828 26.4551 46.1861 26.4705C46.1908 26.4855 46.2031 26.4984 46.2234 26.5087C46.2446 26.5194 46.2755 26.5275 46.317 26.5335C46.3585 26.5391 46.4118 26.5421 46.4779 26.5421C46.5456 26.5421 46.6023 26.5391 46.6485 26.5335C46.6938 26.5275 46.731 26.5194 46.7602 26.5087C46.7895 26.4984 46.8118 26.4855 46.8283 26.4705C46.8436 26.4551 46.8551 26.4376 46.8619 26.4187L47.5599 24.4803C47.612 24.3352 47.6611 24.1943 47.706 24.0582C47.7517 23.9216 47.7952 23.7846 47.8371 23.6471H47.8426C47.8452 23.7597 47.8528 23.8759 47.8647 23.9953C47.8761 24.1143 47.8901 24.2256 47.9057 24.3287L48.194 26.0608C48.2071 26.1563 48.2215 26.2343 48.2372 26.2942C48.2537 26.3541 48.2757 26.402 48.3032 26.4371C48.3316 26.4727 48.3668 26.4971 48.4099 26.5104C48.4535 26.5241 48.5082 26.5304 48.5746 26.5304H48.8913C48.9273 26.5304 48.9645 26.5253 49.0035 26.5146C49.042 26.5043 49.0784 26.4873 49.1123 26.4646C49.1457 26.4415 49.1762 26.4128 49.2037 26.379C49.2313 26.3443 49.2528 26.3053 49.2685 26.2612L50.4673 22.9314C50.4741 22.9122 50.4758 22.8951 50.4716 22.8796C50.4678 22.8647 50.4559 22.8513 50.4364 22.8398C50.4169 22.8282 50.3865 22.8201 50.3445 22.8154C50.3031 22.8107 50.2502 22.8081 50.1862 22.8081ZM23.7522 22.8196C23.6896 22.8196 23.6307 22.8381 23.5744 22.8753C23.5185 22.913 23.4758 22.9733 23.4454 23.0572L22.2829 26.2868C22.2528 26.3711 22.2524 26.4315 22.2816 26.4688C22.3108 26.506 22.3565 26.5249 22.4183 26.5249H24.2586C24.2759 26.5249 24.2933 26.5193 24.3115 26.5086C24.3289 26.4983 24.3471 26.482 24.3644 26.4589C24.3826 26.4358 24.4 26.4058 24.4186 26.3686C24.4364 26.3314 24.4554 26.2851 24.4753 26.2299C24.4952 26.1746 24.5092 26.128 24.5185 26.0912C24.5269 26.0539 24.5307 26.0235 24.5295 26.0004C24.5286 25.9777 24.5222 25.9611 24.5121 25.9504C24.5019 25.9405 24.488 25.935 24.471 25.935H23.152L23.5279 24.8899H24.6349C24.6519 24.8899 24.6692 24.8853 24.687 24.8754C24.7043 24.866 24.7217 24.8501 24.7391 24.8283C24.7564 24.8064 24.7742 24.7774 24.7915 24.741C24.8097 24.7046 24.8283 24.6587 24.8482 24.6035C24.8677 24.55 24.8817 24.5046 24.8902 24.4674C24.8991 24.4305 24.9024 24.401 24.9008 24.3788C24.8995 24.357 24.8936 24.3403 24.883 24.33C24.8724 24.3197 24.8593 24.3142 24.8419 24.3142H23.7354L24.0604 23.4096H25.3686C25.3859 23.4096 25.4029 23.4044 25.4198 23.3937C25.4367 23.383 25.454 23.3667 25.4718 23.3436C25.4896 23.3209 25.507 23.2905 25.5252 23.2533C25.5434 23.2165 25.562 23.1711 25.5815 23.1171C25.6022 23.0602 25.6166 23.0131 25.6255 22.9754C25.6339 22.9386 25.6382 22.9078 25.6373 22.8839C25.6361 22.8603 25.631 22.8436 25.6209 22.8342C25.6116 22.8248 25.598 22.8196 25.5811 22.8196H23.7522ZM26.8245 22.8196C26.7623 22.8196 26.7031 22.8381 26.6472 22.8753C26.5913 22.913 26.5481 22.9733 26.518 23.0572L25.3073 26.4217C25.3005 26.441 25.2997 26.4581 25.3056 26.4731C25.3115 26.4885 25.3267 26.5009 25.3521 26.5103C25.3767 26.5197 25.4123 26.5279 25.4584 26.5334C25.5041 26.539 25.5629 26.542 25.6349 26.542C25.7081 26.542 25.77 26.539 25.8191 26.5334C25.8687 26.5279 25.9092 26.5197 25.9406 26.5103C25.9723 26.5009 25.9973 26.4885 26.015 26.4731C26.0324 26.4581 26.0452 26.441 26.0519 26.4217L26.5599 25.0098H26.7924C26.8711 25.0098 26.9366 25.0222 26.9883 25.0474C27.0395 25.0723 27.0798 25.1087 27.1086 25.1575C27.1374 25.2063 27.1572 25.2667 27.1691 25.3395C27.1809 25.4118 27.1894 25.4948 27.1958 25.5886L27.2263 26.4157C27.2254 26.4388 27.2279 26.4585 27.233 26.4743C27.2389 26.4906 27.2534 26.5043 27.2771 26.5146C27.3004 26.5253 27.335 26.5321 27.3807 26.536C27.4269 26.5398 27.4891 26.542 27.5687 26.542C27.6631 26.542 27.7385 26.5398 27.7944 26.536C27.8507 26.5321 27.8942 26.5257 27.926 26.5163C27.9581 26.5064 27.9802 26.4944 27.9929 26.4803C28.0056 26.4662 28.0158 26.4482 28.0234 26.4273C28.0302 26.4084 28.0348 26.3818 28.0373 26.3485C28.0399 26.3151 28.0403 26.262 28.0382 26.1897L27.992 25.4597C27.9878 25.3719 27.9793 25.2932 27.9666 25.2235C27.9543 25.1541 27.9361 25.0915 27.9133 25.0372C27.8904 24.9828 27.8621 24.9366 27.8274 24.8985C27.7931 24.86 27.7537 24.8279 27.708 24.8013C27.8346 24.7649 27.9527 24.717 28.0627 24.6579C28.1728 24.5988 28.2723 24.529 28.3616 24.4486C28.4509 24.3685 28.5293 24.2777 28.5974 24.1754C28.6652 24.0735 28.7214 23.9605 28.7663 23.8363C28.8192 23.6891 28.8442 23.559 28.8421 23.4451C28.8392 23.3317 28.8117 23.2336 28.7596 23.1505C28.7075 23.0675 28.6317 23.0003 28.5318 22.9489C28.4327 22.8971 28.3133 22.8608 28.1732 22.8398C28.1245 22.8342 28.07 22.8294 28.0086 22.8256C27.9476 22.8217 27.8692 22.8196 27.7731 22.8196H26.8245ZM35.77 22.8196C35.7078 22.8196 35.6485 22.8381 35.5926 22.8753C35.5367 22.913 35.4935 22.9733 35.4634 23.0572L34.301 26.2868C34.2709 26.3711 34.2701 26.4315 34.2988 26.4688C34.3285 26.506 34.3742 26.5249 34.4364 26.5249H36.2766C36.294 26.5249 36.3114 26.5193 36.3292 26.5086C36.3474 26.4983 36.3648 26.482 36.3821 26.4589C36.4007 26.4358 36.4185 26.4058 36.4363 26.3686C36.4545 26.3314 36.4735 26.2851 36.4934 26.2299H36.4935C36.5134 26.1746 36.5277 26.128 36.5366 26.0912C36.5446 26.0539 36.5489 26.0235 36.5472 26.0004C36.5464 25.9777 36.5404 25.9611 36.5299 25.9504C36.5197 25.9405 36.5057 25.935 36.4888 25.935H35.1697L35.5456 24.8899H36.6526C36.67 24.8899 36.6869 24.8853 36.7046 24.8754C36.7224 24.866 36.7398 24.8501 36.7572 24.8283C36.7745 24.8064 36.7919 24.7774 36.8097 24.741C36.8275 24.7046 36.8465 24.6587 36.8664 24.6035C36.8854 24.55 36.8994 24.5046 36.9079 24.4674C36.9168 24.4305 36.9205 24.401 36.9188 24.3788C36.9176 24.357 36.9113 24.3403 36.9012 24.33C36.8906 24.3197 36.8769 24.3142 36.86 24.3142H35.753L36.0786 23.4096H37.3863C37.4032 23.4096 37.4205 23.4044 37.4379 23.3937C37.4544 23.383 37.4721 23.3667 37.4895 23.3436C37.5073 23.3209 37.5255 23.2905 37.5428 23.2533C37.5615 23.2165 37.5802 23.1711 37.5996 23.1171C37.6204 23.0602 37.6343 23.0131 37.6432 22.9754C37.6521 22.9386 37.6559 22.9078 37.655 22.8839C37.6542 22.8603 37.6487 22.8436 37.639 22.8342C37.6292 22.8248 37.6161 22.8196 37.5987 22.8196H35.77ZM20.2385 22.8198C20.1763 22.8198 20.117 22.8383 20.0611 22.8755C20.0053 22.9128 19.9625 22.9731 19.932 23.0574L18.7695 26.287C18.7395 26.3709 18.7386 26.4313 18.7678 26.4686C18.797 26.5058 18.8427 26.5247 18.905 26.5247H19.8791C20.026 26.5247 20.1632 26.5157 20.2894 26.4973C20.4159 26.4793 20.5386 26.451 20.658 26.4129C20.7774 26.3748 20.8917 26.3261 21.0009 26.267C21.1102 26.2079 21.2105 26.1373 21.3037 26.0555C21.3964 25.9733 21.4797 25.8782 21.5542 25.7716C21.6287 25.6645 21.6897 25.5456 21.7371 25.4138C21.7824 25.2879 21.8045 25.174 21.8032 25.0729C21.8015 24.9719 21.7819 24.8838 21.7438 24.8084C21.7057 24.7331 21.6516 24.6714 21.5809 24.6235C21.5102 24.5759 21.4268 24.5421 21.3299 24.5233C21.4217 24.4929 21.5085 24.4526 21.5898 24.4029C21.6711 24.3533 21.7447 24.296 21.8116 24.2313C21.8781 24.1663 21.9369 24.0943 21.9881 24.0151C22.0393 23.9359 22.0808 23.8516 22.1134 23.7617C22.1714 23.6016 22.193 23.462 22.1791 23.3438C22.1651 23.2252 22.1185 23.1272 22.0397 23.0501C21.961 22.9726 21.8505 22.9149 21.7083 22.8768C21.5665 22.8387 21.3832 22.8198 21.1589 22.8198H20.2385ZM20.5454 23.3837H20.9218C21.0369 23.3837 21.125 23.3944 21.1864 23.4153C21.2478 23.4363 21.2939 23.4663 21.3252 23.5057C21.3565 23.5446 21.3726 23.5938 21.3739 23.6529C21.3751 23.7124 21.3628 23.7788 21.3362 23.8533C21.312 23.9205 21.2786 23.9834 21.2363 24.0438C21.1935 24.1037 21.1432 24.1564 21.0844 24.2013C21.026 24.2463 20.9599 24.2814 20.8866 24.3071C20.813 24.3328 20.7228 24.346 20.6148 24.346H20.1991L20.5454 23.3837ZM27.1411 23.395H27.4751C27.5602 23.395 27.6259 23.3985 27.672 23.404C27.7182 23.4096 27.758 23.4172 27.7923 23.4262C27.9044 23.4613 27.973 23.52 27.9975 23.6043C28.0221 23.6882 28.012 23.7914 27.9683 23.9134C27.9391 23.9935 27.9002 24.0663 27.8503 24.1309C27.8007 24.196 27.7406 24.2521 27.6711 24.2987C27.6013 24.3454 27.5226 24.3813 27.4337 24.4075C27.3452 24.4331 27.2483 24.446 27.1424 24.446H26.7631L27.1411 23.395ZM20.001 24.8958H20.4426C20.5785 24.8958 20.6842 24.9081 20.7604 24.933C20.8362 24.9578 20.8938 24.9929 20.9324 25.0387C20.97 25.0845 20.9911 25.1414 20.995 25.2091C20.9992 25.2767 20.9857 25.3534 20.9548 25.4395C20.9252 25.5221 20.8845 25.5949 20.8325 25.6586C20.7796 25.7224 20.7198 25.7759 20.6525 25.8187C20.5852 25.862 20.512 25.8941 20.4332 25.9164C20.3545 25.9386 20.2635 25.9488 20.1602 25.9488H19.6222L20.001 24.8958Z" fill="#383A41"/>
    <path d="M17.2189 21.7832C17.0754 21.7832 16.9679 21.8097 16.8959 21.8615C16.8243 21.9146 16.7642 22.0084 16.7155 22.1441C16.6685 22.2742 16.6614 22.3645 16.694 22.4159C16.7266 22.4677 16.815 22.4934 16.9606 22.4934C17.1058 22.4934 17.2142 22.4668 17.2854 22.4129C17.3565 22.3594 17.4162 22.266 17.464 22.1325C17.5114 22.0006 17.5194 21.9099 17.4873 21.8589C17.4559 21.8084 17.3662 21.7832 17.2189 21.7832ZM18.4563 21.7832C18.3106 21.7832 18.2027 21.8097 18.132 21.8615C18.0609 21.9146 18.0012 22.0084 17.9526 22.1441C17.906 22.2742 17.8984 22.3645 17.9297 22.4159C17.9614 22.4677 18.0495 22.4934 18.1951 22.4934C18.3403 22.4934 18.4487 22.4668 18.5211 22.4129C18.5931 22.3594 18.6531 22.266 18.7013 22.1325C18.7488 22.0006 18.756 21.9099 18.7234 21.8589C18.6904 21.8084 18.6015 21.7832 18.4563 21.7832ZM41.5547 22.754C41.3862 22.754 41.2195 22.7759 41.0536 22.8195C40.8876 22.8636 40.7335 22.9299 40.5912 23.0186C40.4486 23.1076 40.3212 23.2189 40.2073 23.3533C40.0939 23.4882 40.0053 23.6445 39.9414 23.8217C39.8855 23.9767 39.8606 24.1089 39.8661 24.2198C39.8712 24.3303 39.8957 24.4266 39.9393 24.5075C39.9825 24.5889 40.0401 24.6582 40.112 24.7164C40.1836 24.7747 40.2598 24.8268 40.3415 24.8722C40.4232 24.918 40.5027 24.9622 40.5811 25.0028C40.6585 25.0439 40.7255 25.0876 40.7809 25.1347C40.8372 25.1813 40.8765 25.2348 40.9002 25.2948C40.9239 25.3551 40.9206 25.4271 40.8906 25.511C40.8643 25.5833 40.8275 25.6493 40.7796 25.7084C40.7318 25.7679 40.6755 25.8176 40.6115 25.8574C40.5468 25.8976 40.4752 25.9288 40.3952 25.9507C40.3156 25.9725 40.2306 25.9837 40.14 25.9837C40.002 25.9837 39.8864 25.9678 39.7933 25.9361C39.7001 25.9048 39.6223 25.8698 39.5605 25.8317C39.4991 25.7936 39.4495 25.7589 39.4131 25.7272C39.3759 25.6959 39.3441 25.6801 39.3174 25.6801C39.2988 25.6801 39.2806 25.6852 39.2624 25.6959C39.2446 25.7062 39.2268 25.7237 39.2095 25.7485C39.1921 25.7734 39.1743 25.8059 39.1561 25.8462C39.1379 25.886 39.1176 25.9361 39.0969 25.9948C39.0652 26.0829 39.046 26.1501 39.0397 26.1968C39.0329 26.2434 39.0381 26.2794 39.0537 26.3043C39.0685 26.3291 39.099 26.3577 39.143 26.3903C39.1866 26.4224 39.245 26.4536 39.3174 26.4832C39.3898 26.5127 39.4766 26.538 39.5773 26.559C39.6785 26.58 39.7924 26.5902 39.919 26.5902C40.1056 26.5902 40.2903 26.5654 40.4723 26.5161C40.6544 26.4665 40.8245 26.3924 40.9824 26.294C41.1408 26.1959 41.2817 26.0735 41.4066 25.9262C41.531 25.7794 41.6284 25.6085 41.6987 25.4138C41.752 25.2648 41.7762 25.1355 41.7702 25.0259C41.7643 24.9164 41.7393 24.8205 41.6948 24.7396C41.6504 24.6582 41.5916 24.5889 41.5179 24.5302C41.4447 24.4724 41.3667 24.4202 41.285 24.3744C41.2038 24.3285 41.123 24.2854 41.0434 24.2443C40.9638 24.2032 40.8952 24.159 40.8376 24.1123C40.7796 24.0657 40.7394 24.0122 40.7165 23.9522C40.6941 23.8923 40.6974 23.8208 40.7271 23.7386C40.747 23.6834 40.7759 23.6312 40.814 23.5811C40.8512 23.5314 40.8965 23.4891 40.9498 23.454C41.0032 23.4188 41.0633 23.391 41.131 23.3709C41.1987 23.3508 41.2733 23.3409 41.3545 23.3409C41.4583 23.3409 41.5493 23.3533 41.6268 23.3795C41.7042 23.4051 41.7702 23.4334 41.8248 23.4655C41.8794 23.4967 41.9247 23.5258 41.9603 23.5528C41.9962 23.5798 42.0247 23.5927 42.045 23.5927C42.0662 23.5927 42.0844 23.5871 42.1009 23.5755C42.1174 23.564 42.1335 23.546 42.1492 23.5212C42.1644 23.4963 42.18 23.4646 42.1969 23.4265C42.2134 23.3888 42.2321 23.3418 42.252 23.2866C42.2698 23.2369 42.2837 23.195 42.2934 23.162C42.304 23.1282 42.3104 23.1007 42.3138 23.0789C42.3167 23.057 42.3176 23.0391 42.3159 23.0259C42.3138 23.0126 42.307 22.9959 42.2952 22.977C42.2833 22.9582 42.2532 22.9342 42.2049 22.9055C42.1563 22.8768 42.0987 22.8512 42.0314 22.828C41.9645 22.8054 41.8896 22.7874 41.8079 22.7741C41.7254 22.7604 41.6411 22.754 41.5547 22.754ZM53.3123 22.7564C53.0235 22.7564 52.7459 22.8013 52.4783 22.8912C52.2108 22.9811 51.964 23.11 51.7366 23.2791C51.5102 23.4482 51.3074 23.6532 51.13 23.8947C50.9526 24.1366 50.8095 24.4089 50.6999 24.7124C50.5945 25.0061 50.542 25.2694 50.5441 25.501C50.545 25.733 50.5971 25.93 50.6991 26.0909C50.8015 26.2523 50.953 26.3752 51.1541 26.4604C51.3543 26.5451 51.6011 26.5875 51.8936 26.5875C51.994 26.5875 52.0952 26.5828 52.1977 26.5734C52.3001 26.5635 52.4033 26.5494 52.5075 26.5305C52.612 26.5113 52.7137 26.4886 52.814 26.4616C52.9144 26.4346 52.9994 26.4094 53.0697 26.3846C53.14 26.3594 53.1929 26.3255 53.2284 26.2827C53.2631 26.2399 53.2915 26.1898 53.3119 26.1324L53.8427 24.6581C53.8562 24.6195 53.8639 24.5857 53.8647 24.5561C53.866 24.5266 53.8618 24.5014 53.8512 24.4804C53.8406 24.4594 53.8258 24.4435 53.8059 24.4332C53.786 24.4225 53.761 24.417 53.7309 24.417H52.4936C52.4766 24.417 52.4597 24.4225 52.4428 24.4332C52.4258 24.4435 52.4089 24.4598 52.3911 24.482C52.3742 24.5039 52.3564 24.5326 52.3386 24.5694C52.3208 24.6054 52.3022 24.6503 52.2831 24.7034C52.2459 24.807 52.2289 24.8798 52.2323 24.9226C52.2361 24.9658 52.2547 24.9872 52.2886 24.9872H52.9825L52.673 25.8461C52.5896 25.8842 52.5037 25.9128 52.4156 25.9321C52.328 25.9509 52.2421 25.9607 52.1592 25.9607C51.989 25.9607 51.8437 25.9329 51.723 25.8777C51.6024 25.8221 51.5114 25.7403 51.4509 25.6311C51.3899 25.5228 51.3607 25.3875 51.3628 25.2265C51.3654 25.0651 51.4047 24.8781 51.4809 24.6666C51.5503 24.4735 51.6413 24.2976 51.7535 24.1383C51.8653 23.9791 51.9927 23.8425 52.1354 23.7286C52.2785 23.6152 52.433 23.5274 52.5985 23.4654C52.7645 23.4037 52.9359 23.3725 53.1133 23.3725C53.2792 23.3725 53.4189 23.3896 53.5324 23.4238C53.645 23.4581 53.7398 23.4957 53.8165 23.5355C53.8922 23.5758 53.9515 23.613 53.9939 23.6472C54.0362 23.6815 54.0696 23.6986 54.0946 23.6986C54.1111 23.6986 54.1276 23.694 54.1432 23.6845C54.1593 23.6747 54.1755 23.6579 54.1928 23.6344C54.2098 23.6104 54.2275 23.5784 54.2466 23.5381C54.2661 23.4983 54.2855 23.4507 54.3054 23.3951C54.3397 23.2996 54.3601 23.2278 54.366 23.179C54.3728 23.1306 54.3676 23.0929 54.352 23.0659C54.3359 23.039 54.3025 23.0077 54.2517 22.9713C54.2004 22.9353 54.1314 22.9011 54.0455 22.8699C53.96 22.8382 53.8558 22.8117 53.7334 22.7898C53.6111 22.7676 53.4706 22.7564 53.3123 22.7564ZM30.1665 22.8022C30.07 22.8022 29.9943 22.8047 29.9388 22.8099C29.8834 22.8146 29.8402 22.8274 29.8089 22.8484C29.7775 22.8694 29.756 22.8993 29.7441 22.9387C29.7319 22.9777 29.7221 23.0316 29.7141 23.1006L29.383 26.3327C29.3775 26.379 29.3788 26.4154 29.3855 26.4432C29.3927 26.4706 29.4126 26.4915 29.4452 26.5061C29.4778 26.5202 29.5257 26.53 29.5892 26.5347C29.6527 26.5395 29.7391 26.5416 29.8483 26.5416C29.9524 26.5416 30.0366 26.5395 30.1014 26.5347C30.1662 26.53 30.2203 26.5198 30.2627 26.5044C30.3046 26.4895 30.3393 26.468 30.3664 26.4402C30.3931 26.4128 30.4194 26.3768 30.4448 26.3327L31.8447 23.985H31.8502L31.5916 26.3327C31.5844 26.379 31.5844 26.4154 31.5916 26.4432C31.5983 26.4706 31.6182 26.4915 31.6508 26.5061C31.6834 26.5202 31.7312 26.53 31.7947 26.5347C31.8582 26.5395 31.9437 26.5416 32.0513 26.5416C32.1474 26.5416 32.2278 26.5395 32.2917 26.5347C32.3556 26.53 32.4102 26.5202 32.4547 26.5061C32.4995 26.4915 32.5372 26.4706 32.5664 26.4432C32.5965 26.4154 32.6257 26.379 32.6532 26.3327L34.6544 23.1091C34.6967 23.0385 34.7267 22.9824 34.7445 22.9417C34.7619 22.9002 34.7639 22.8694 34.7508 22.8484C34.7373 22.8274 34.709 22.8146 34.6645 22.8099C34.6197 22.8047 34.5558 22.8022 34.4732 22.8022C34.3843 22.8022 34.3144 22.8047 34.2636 22.8099C34.2128 22.8146 34.1717 22.8231 34.1408 22.8356C34.1103 22.848 34.0858 22.8651 34.0689 22.8869C34.0515 22.9092 34.0342 22.9352 34.0177 22.9656L32.3569 25.7946H32.3514L32.6745 22.9768C32.6804 22.9392 32.6811 22.9083 32.6765 22.8852C32.6714 22.8629 32.6567 22.845 32.6317 22.8326C32.6067 22.8202 32.5685 22.812 32.516 22.8081C32.4631 22.8043 32.392 22.8022 32.3014 22.8022C32.2163 22.8022 32.1473 22.8047 32.0949 22.8099C32.0419 22.8146 31.9987 22.8231 31.9653 22.8356C31.9314 22.848 31.9043 22.8655 31.884 22.8882C31.8633 22.9113 31.843 22.9413 31.8222 22.9768L30.1403 25.7946H30.1374L30.5159 22.9571C30.5235 22.9207 30.526 22.8929 30.5234 22.8728C30.5213 22.8526 30.5091 22.8373 30.4862 22.827C30.4634 22.8163 30.427 22.8099 30.3762 22.8069C30.325 22.8039 30.2554 22.8022 30.1665 22.8022ZM39.002 22.8024C38.93 22.8024 38.8694 22.8053 38.8203 22.8109C38.7712 22.8169 38.7302 22.8246 38.6976 22.834C38.665 22.8434 38.6396 22.8559 38.6219 22.8713C38.6041 22.8867 38.5918 22.9039 38.5846 22.9227L37.3256 26.4215C37.3188 26.4408 37.3184 26.458 37.3256 26.4734C37.3319 26.4884 37.3476 26.5008 37.3725 26.5102C37.3979 26.52 37.4331 26.5277 37.4792 26.5333C37.5249 26.5389 37.5842 26.5418 37.6557 26.5418C37.7294 26.5418 37.7908 26.5389 37.8404 26.5333C37.8895 26.5277 37.9301 26.52 37.9614 26.5102C37.9936 26.5008 38.0182 26.4884 38.0364 26.4734C38.0537 26.458 38.066 26.4408 38.0727 26.4215L39.3321 22.9227C39.3394 22.9039 39.3393 22.8867 39.3326 22.8713C39.3258 22.8559 39.3098 22.8434 39.2848 22.834C39.2602 22.8246 39.2251 22.8169 39.1802 22.8109C39.1349 22.8053 39.0752 22.8024 39.002 22.8024ZM16.351 22.8025C16.2774 22.8025 16.216 22.8055 16.1665 22.8111C16.1174 22.8171 16.0763 22.8248 16.0437 22.8342C16.0111 22.8436 15.9861 22.856 15.9696 22.8714C15.9526 22.8864 15.9408 22.9035 15.9336 22.9228L15.1229 25.1763C15.0379 25.413 14.9968 25.6194 15.0002 25.7958C15.004 25.9726 15.0471 26.1198 15.1314 26.238C15.2152 26.3566 15.3384 26.4448 15.5005 26.503C15.6622 26.5612 15.8587 26.5903 16.089 26.5903C16.3345 26.5903 16.5631 26.5578 16.7752 26.4931C16.9873 26.4281 17.1799 26.334 17.3526 26.2098C17.5258 26.0861 17.6778 25.9341 17.8082 25.7543C17.939 25.5749 18.0452 25.372 18.1269 25.1446L18.9266 22.9228C18.9338 22.9035 18.9338 22.8864 18.9278 22.8714C18.9223 22.856 18.9071 22.8436 18.8821 22.8342C18.8571 22.8248 18.8229 22.8171 18.7785 22.8111C18.7344 22.8055 18.6764 22.8025 18.6044 22.8025C18.5329 22.8025 18.472 22.8055 18.4216 22.8111C18.3716 22.8171 18.3309 22.8248 18.2988 22.8342C18.267 22.8436 18.2429 22.856 18.226 22.8714C18.2091 22.8864 18.1976 22.9035 18.1904 22.9228L17.3878 25.1533C17.3412 25.283 17.2815 25.399 17.2104 25.5013C17.1384 25.6036 17.058 25.6892 16.9686 25.7585C16.8793 25.8283 16.782 25.881 16.6762 25.9178C16.5712 25.9538 16.4598 25.9722 16.343 25.9722C16.2274 25.9722 16.1296 25.9547 16.0487 25.9191C15.9683 25.8836 15.9073 25.8309 15.8654 25.7603C15.8239 25.6896 15.8045 25.6006 15.8075 25.4923C15.8105 25.3848 15.8384 25.2573 15.8913 25.11L16.6787 22.9228C16.6855 22.9035 16.6855 22.8864 16.6787 22.8714C16.672 22.856 16.6563 22.8436 16.6313 22.8342C16.6063 22.8248 16.5712 22.8171 16.5263 22.8111C16.481 22.8055 16.4226 22.8025 16.351 22.8025ZM43.82 22.8026C43.7463 22.8026 43.685 22.8055 43.6354 22.8111C43.5863 22.8167 43.5453 22.8244 43.5127 22.8338C43.4801 22.8437 43.455 22.8561 43.4381 22.8711C43.4212 22.8865 43.4097 22.9036 43.4026 22.9229L42.5919 25.176C42.5068 25.4127 42.4657 25.6195 42.4695 25.7959C42.4725 25.9727 42.5161 26.1199 42.5999 26.2381C42.6842 26.3567 42.807 26.4449 42.9696 26.5031C43.1313 26.5613 43.3276 26.5905 43.5579 26.5905C43.803 26.5905 44.0317 26.5579 44.2442 26.4932C44.4563 26.4282 44.6484 26.334 44.8216 26.2098C44.9947 26.0857 45.1463 25.9342 45.2771 25.7544C45.4079 25.575 45.5137 25.3716 45.5959 25.1447L46.3956 22.9229C46.4028 22.9036 46.4027 22.8865 46.3968 22.8711C46.3909 22.8561 46.3761 22.8437 46.3512 22.8338C46.3262 22.8244 46.2919 22.8167 46.2474 22.8111C46.2034 22.8055 46.145 22.8026 46.0734 22.8026C46.0019 22.8026 45.9409 22.8055 45.8905 22.8111C45.8406 22.8167 45.8 22.8244 45.7678 22.8338C45.736 22.8437 45.7114 22.8561 45.6949 22.8711C45.678 22.8865 45.6666 22.9036 45.6594 22.9229L44.8567 25.1533C44.8097 25.283 44.7504 25.399 44.6793 25.5013C44.6074 25.6036 44.527 25.6888 44.4377 25.7586C44.3484 25.8284 44.251 25.8811 44.1451 25.9175C44.0397 25.9539 43.928 25.9723 43.8115 25.9723C43.6964 25.9723 43.5986 25.9543 43.5178 25.9192C43.4373 25.8837 43.376 25.831 43.3341 25.7604C43.2926 25.6897 43.2731 25.6003 43.2764 25.4924C43.279 25.3849 43.3074 25.2574 43.3603 25.1101L44.1473 22.9229C44.1545 22.9036 44.154 22.8865 44.1473 22.8711C44.1409 22.8561 44.1248 22.8437 44.1002 22.8338C44.0752 22.8244 44.0401 22.8167 43.9953 22.8111C43.95 22.8055 43.8915 22.8026 43.82 22.8026ZM50.1862 22.8081C50.1181 22.8081 50.0618 22.8107 50.016 22.8154C49.9712 22.8201 49.9335 22.8282 49.9026 22.8398C49.8722 22.8513 49.8484 22.8647 49.8319 22.8796C49.815 22.8951 49.8031 22.9122 49.7963 22.9314L49.1702 24.6695C49.1232 24.8013 49.075 24.9396 49.0255 25.0843C48.976 25.2295 48.9298 25.369 48.8879 25.5026H48.8849C48.8781 25.4259 48.8714 25.3498 48.8625 25.2736C48.8541 25.197 48.8455 25.1194 48.8362 25.0402C48.8269 24.9606 48.8159 24.8819 48.8041 24.8027C48.7918 24.723 48.78 24.6426 48.7681 24.5604L48.542 23.2062C48.5331 23.1317 48.5204 23.0693 48.5047 23.0188C48.4887 22.9683 48.4666 22.9289 48.4387 22.9002C48.4099 22.8715 48.3735 22.8504 48.3291 22.838C48.2846 22.8256 48.2262 22.8196 48.1547 22.8196H47.7554C47.6801 22.8196 47.6082 22.8423 47.54 22.8868C47.4719 22.9318 47.4219 22.9991 47.3897 23.089L46.1912 26.4187C46.184 26.4376 46.1828 26.4551 46.1861 26.4705C46.1908 26.4855 46.2031 26.4984 46.2234 26.5087C46.2446 26.5194 46.2755 26.5275 46.317 26.5335C46.3585 26.5391 46.4118 26.5421 46.4779 26.5421C46.5456 26.5421 46.6023 26.5391 46.6485 26.5335C46.6938 26.5275 46.731 26.5194 46.7602 26.5087C46.7895 26.4984 46.8118 26.4855 46.8283 26.4705C46.8436 26.4551 46.8551 26.4376 46.8619 26.4187L47.5599 24.4803C47.612 24.3352 47.6611 24.1943 47.706 24.0582C47.7517 23.9216 47.7952 23.7846 47.8371 23.6471H47.8426C47.8452 23.7597 47.8528 23.8759 47.8647 23.9953C47.8761 24.1143 47.8901 24.2256 47.9057 24.3287L48.194 26.0608C48.2071 26.1563 48.2215 26.2343 48.2372 26.2942C48.2537 26.3541 48.2757 26.402 48.3032 26.4371C48.3316 26.4727 48.3668 26.4971 48.4099 26.5104C48.4535 26.5241 48.5082 26.5304 48.5746 26.5304H48.8913C48.9273 26.5304 48.9645 26.5253 49.0035 26.5146C49.042 26.5043 49.0784 26.4873 49.1123 26.4646C49.1457 26.4415 49.1762 26.4128 49.2037 26.379C49.2313 26.3443 49.2528 26.3053 49.2685 26.2612L50.4673 22.9314C50.4741 22.9122 50.4758 22.8951 50.4716 22.8796C50.4678 22.8647 50.4559 22.8513 50.4364 22.8398C50.4169 22.8282 50.3865 22.8201 50.3445 22.8154C50.3031 22.8107 50.2502 22.8081 50.1862 22.8081ZM23.7522 22.8196C23.6896 22.8196 23.6307 22.8381 23.5744 22.8753C23.5185 22.913 23.4758 22.9733 23.4454 23.0572L22.2829 26.2868C22.2528 26.3711 22.2524 26.4315 22.2816 26.4688C22.3108 26.506 22.3565 26.5249 22.4183 26.5249H24.2586C24.2759 26.5249 24.2933 26.5193 24.3115 26.5086C24.3289 26.4983 24.3471 26.482 24.3644 26.4589C24.3826 26.4358 24.4 26.4058 24.4186 26.3686C24.4364 26.3314 24.4554 26.2851 24.4753 26.2299C24.4952 26.1746 24.5092 26.128 24.5185 26.0912C24.5269 26.0539 24.5307 26.0235 24.5295 26.0004C24.5286 25.9777 24.5222 25.9611 24.5121 25.9504C24.5019 25.9405 24.488 25.935 24.471 25.935H23.152L23.5279 24.8899H24.6349C24.6519 24.8899 24.6692 24.8853 24.687 24.8754C24.7043 24.866 24.7217 24.8501 24.7391 24.8283C24.7564 24.8064 24.7742 24.7774 24.7915 24.741C24.8097 24.7046 24.8283 24.6587 24.8482 24.6035C24.8677 24.55 24.8817 24.5046 24.8902 24.4674C24.8991 24.4305 24.9024 24.401 24.9008 24.3788C24.8995 24.357 24.8936 24.3403 24.883 24.33C24.8724 24.3197 24.8593 24.3142 24.8419 24.3142H23.7354L24.0604 23.4096H25.3686C25.3859 23.4096 25.4029 23.4044 25.4198 23.3937C25.4367 23.383 25.454 23.3667 25.4718 23.3436C25.4896 23.3209 25.507 23.2905 25.5252 23.2533C25.5434 23.2165 25.562 23.1711 25.5815 23.1171C25.6022 23.0602 25.6166 23.0131 25.6255 22.9754C25.6339 22.9386 25.6382 22.9078 25.6373 22.8839C25.6361 22.8603 25.631 22.8436 25.6209 22.8342C25.6116 22.8248 25.598 22.8196 25.5811 22.8196H23.7522ZM26.8245 22.8196C26.7623 22.8196 26.7031 22.8381 26.6472 22.8753C26.5913 22.913 26.5481 22.9733 26.518 23.0572L25.3073 26.4217C25.3005 26.441 25.2997 26.4581 25.3056 26.4731C25.3115 26.4885 25.3267 26.5009 25.3521 26.5103C25.3767 26.5197 25.4123 26.5279 25.4584 26.5334C25.5041 26.539 25.5629 26.542 25.6349 26.542C25.7081 26.542 25.77 26.539 25.8191 26.5334C25.8687 26.5279 25.9092 26.5197 25.9406 26.5103C25.9723 26.5009 25.9973 26.4885 26.015 26.4731C26.0324 26.4581 26.0452 26.441 26.0519 26.4217L26.5599 25.0098H26.7924C26.8711 25.0098 26.9366 25.0222 26.9883 25.0474C27.0395 25.0723 27.0798 25.1087 27.1086 25.1575C27.1374 25.2063 27.1572 25.2667 27.1691 25.3395C27.1809 25.4118 27.1894 25.4948 27.1958 25.5886L27.2263 26.4157C27.2254 26.4388 27.2279 26.4585 27.233 26.4743C27.2389 26.4906 27.2534 26.5043 27.2771 26.5146C27.3004 26.5253 27.335 26.5321 27.3807 26.536C27.4269 26.5398 27.4891 26.542 27.5687 26.542C27.6631 26.542 27.7385 26.5398 27.7944 26.536C27.8507 26.5321 27.8942 26.5257 27.926 26.5163C27.9581 26.5064 27.9802 26.4944 27.9929 26.4803C28.0056 26.4662 28.0158 26.4482 28.0234 26.4273C28.0302 26.4084 28.0348 26.3818 28.0373 26.3485C28.0399 26.3151 28.0403 26.262 28.0382 26.1897L27.992 25.4597C27.9878 25.3719 27.9793 25.2932 27.9666 25.2235C27.9543 25.1541 27.9361 25.0915 27.9133 25.0372C27.8904 24.9828 27.8621 24.9366 27.8274 24.8985C27.7931 24.86 27.7537 24.8279 27.708 24.8013C27.8346 24.7649 27.9527 24.717 28.0627 24.6579C28.1728 24.5988 28.2723 24.529 28.3616 24.4486C28.4509 24.3685 28.5293 24.2777 28.5974 24.1754C28.6652 24.0735 28.7214 23.9605 28.7663 23.8363C28.8192 23.6891 28.8442 23.559 28.8421 23.4451C28.8392 23.3317 28.8117 23.2336 28.7596 23.1505C28.7075 23.0675 28.6317 23.0003 28.5318 22.9489C28.4327 22.8971 28.3133 22.8608 28.1732 22.8398C28.1245 22.8342 28.07 22.8294 28.0086 22.8256C27.9476 22.8217 27.8692 22.8196 27.7731 22.8196H26.8245ZM35.77 22.8196C35.7078 22.8196 35.6485 22.8381 35.5926 22.8753C35.5367 22.913 35.4935 22.9733 35.4634 23.0572L34.301 26.2868C34.2709 26.3711 34.2701 26.4315 34.2988 26.4688C34.3285 26.506 34.3742 26.5249 34.4364 26.5249H36.2766C36.294 26.5249 36.3114 26.5193 36.3292 26.5086C36.3474 26.4983 36.3648 26.482 36.3821 26.4589C36.4007 26.4358 36.4185 26.4058 36.4363 26.3686C36.4545 26.3314 36.4735 26.2851 36.4934 26.2299H36.4935C36.5134 26.1746 36.5277 26.128 36.5366 26.0912C36.5446 26.0539 36.5489 26.0235 36.5472 26.0004C36.5464 25.9777 36.5404 25.9611 36.5299 25.9504C36.5197 25.9405 36.5057 25.935 36.4888 25.935H35.1697L35.5456 24.8899H36.6526C36.67 24.8899 36.6869 24.8853 36.7046 24.8754C36.7224 24.866 36.7398 24.8501 36.7572 24.8283C36.7745 24.8064 36.7919 24.7774 36.8097 24.741C36.8275 24.7046 36.8465 24.6587 36.8664 24.6035C36.8854 24.55 36.8994 24.5046 36.9079 24.4674C36.9168 24.4305 36.9205 24.401 36.9188 24.3788C36.9176 24.357 36.9113 24.3403 36.9012 24.33C36.8906 24.3197 36.8769 24.3142 36.86 24.3142H35.753L36.0786 23.4096H37.3863C37.4032 23.4096 37.4205 23.4044 37.4379 23.3937C37.4544 23.383 37.4721 23.3667 37.4895 23.3436C37.5073 23.3209 37.5255 23.2905 37.5428 23.2533C37.5615 23.2165 37.5802 23.1711 37.5996 23.1171C37.6204 23.0602 37.6343 23.0131 37.6432 22.9754C37.6521 22.9386 37.6559 22.9078 37.655 22.8839C37.6542 22.8603 37.6487 22.8436 37.639 22.8342C37.6292 22.8248 37.6161 22.8196 37.5987 22.8196H35.77ZM20.2385 22.8198C20.1763 22.8198 20.117 22.8383 20.0611 22.8755C20.0053 22.9128 19.9625 22.9731 19.932 23.0574L18.7695 26.287C18.7395 26.3709 18.7386 26.4313 18.7678 26.4686C18.797 26.5058 18.8427 26.5247 18.905 26.5247H19.8791C20.026 26.5247 20.1632 26.5157 20.2894 26.4973C20.4159 26.4793 20.5386 26.451 20.658 26.4129C20.7774 26.3748 20.8917 26.3261 21.0009 26.267C21.1102 26.2079 21.2105 26.1373 21.3037 26.0555C21.3964 25.9733 21.4797 25.8782 21.5542 25.7716C21.6287 25.6645 21.6897 25.5456 21.7371 25.4138C21.7824 25.2879 21.8045 25.174 21.8032 25.0729C21.8015 24.9719 21.7819 24.8838 21.7438 24.8084C21.7057 24.7331 21.6516 24.6714 21.5809 24.6235C21.5102 24.5759 21.4268 24.5421 21.3299 24.5233C21.4217 24.4929 21.5085 24.4526 21.5898 24.4029C21.6711 24.3533 21.7447 24.296 21.8116 24.2313C21.8781 24.1663 21.9369 24.0943 21.9881 24.0151C22.0393 23.9359 22.0808 23.8516 22.1134 23.7617C22.1714 23.6016 22.193 23.462 22.1791 23.3438C22.1651 23.2252 22.1185 23.1272 22.0397 23.0501C21.961 22.9726 21.8505 22.9149 21.7083 22.8768C21.5665 22.8387 21.3832 22.8198 21.1589 22.8198H20.2385ZM20.5454 23.3837H20.9218C21.0369 23.3837 21.125 23.3944 21.1864 23.4153C21.2478 23.4363 21.2939 23.4663 21.3252 23.5057C21.3565 23.5446 21.3726 23.5938 21.3739 23.6529C21.3751 23.7124 21.3628 23.7788 21.3362 23.8533C21.312 23.9205 21.2786 23.9834 21.2363 24.0438C21.1935 24.1037 21.1432 24.1564 21.0844 24.2013C21.026 24.2463 20.9599 24.2814 20.8866 24.3071C20.813 24.3328 20.7228 24.346 20.6148 24.346H20.1991L20.5454 23.3837ZM27.1411 23.395H27.4751C27.5602 23.395 27.6259 23.3985 27.672 23.404C27.7182 23.4096 27.758 23.4172 27.7923 23.4262C27.9044 23.4613 27.973 23.52 27.9975 23.6043C28.0221 23.6882 28.012 23.7914 27.9683 23.9134C27.9391 23.9935 27.9002 24.0663 27.8503 24.1309C27.8007 24.196 27.7406 24.2521 27.6711 24.2987C27.6013 24.3454 27.5226 24.3813 27.4337 24.4075C27.3452 24.4331 27.2483 24.446 27.1424 24.446H26.7631L27.1411 23.395ZM20.001 24.8958H20.4426C20.5785 24.8958 20.6842 24.9081 20.7604 24.933C20.8362 24.9578 20.8938 24.9929 20.9324 25.0387C20.97 25.0845 20.9911 25.1414 20.995 25.2091C20.9992 25.2767 20.9857 25.3534 20.9548 25.4395C20.9252 25.5221 20.8845 25.5949 20.8325 25.6586C20.7796 25.7224 20.7198 25.7759 20.6525 25.8187C20.5852 25.862 20.512 25.8941 20.4332 25.9164C20.3545 25.9386 20.2635 25.9488 20.1602 25.9488H19.6222L20.001 24.8958Z" fill="white"/>
    <rect x="0.5" y="0.5" width="71" height="39" rx="15.5" stroke="url(#paint0_linear_1429_7800)"/>
    <defs>
        <linearGradient id="paint0_linear_1429_7800" x1="0" y1="0" x2="74.8062" y2="33.7869" gradientUnits="userSpaceOnUse">
            <stop stop-color="white" stop-opacity="0.24"/>
            <stop offset="1" stop-color="white" stop-opacity="0.14"/>
        </linearGradient>
    </defs>
</svg>
