<svg width="42" height="14" viewBox="0 0 42 14" fill="none" xmlns="http://www.w3.org/2000/svg">
<path d="M13.8904 0.423462C13.3159 0.423462 12.7589 0.556977 12.2356 0.806134C11.4884 1.16403 10.8106 1.76083 10.2573 2.55282C9.89791 3.06697 9.59019 3.66295 9.34931 4.32951C8.89507 5.58771 8.90016 6.60828 9.36455 7.28083C9.62786 7.66099 10.1752 8.11518 11.2882 8.11646H11.2925C13.3198 8.11646 14.8331 6.77264 15.7916 4.12225C16.0447 3.42101 16.3787 2.11227 15.7683 1.22909C15.3996 0.695241 14.7688 0.424318 13.8904 0.423462ZM26.1231 0.423462C25.549 0.423462 24.9915 0.556977 24.4687 0.806134C23.7211 1.16403 23.0438 1.76083 22.4905 2.55282C22.1307 3.06697 21.8233 3.66295 21.5824 4.32951C21.1277 5.58771 21.1332 6.60828 21.598 7.28083C21.8609 7.66099 22.4079 8.11518 23.5217 8.11646H23.5251C25.5529 8.11646 27.0667 6.77264 28.0243 4.12225C28.2782 3.42101 28.6114 2.11227 28.0014 1.22909C27.6322 0.695241 27.0015 0.424318 26.1231 0.423462ZM7.37954 0.530022C6.71237 0.530022 6.06426 0.52997 5.48344 0.827919C4.90305 1.12588 4.39038 1.72224 3.99583 2.91494C3.91032 3.17137 3.86509 3.39231 3.85916 3.5841C3.85324 3.77632 3.88627 3.93984 3.95823 4.08197C4.04713 4.25535 4.19107 4.41847 4.37098 4.55589C4.55132 4.69374 4.76675 4.80551 4.99916 4.87701C5.00805 4.87957 5.13002 4.91466 5.27819 4.95747C5.4255 5.00028 5.59777 5.0516 5.70699 5.08499C5.77091 5.10468 5.84113 5.1304 5.90463 5.16935C5.96855 5.20746 6.02574 5.2588 6.06172 5.32986C6.08543 5.37695 6.09815 5.42877 6.09942 5.484C6.10111 5.53965 6.09175 5.59965 6.07016 5.663C6.01597 5.82483 5.93384 5.92928 5.77721 5.99306C5.62142 6.05685 5.39157 6.07733 5.04275 6.0799H0.688326L0 7.99223H4.66089C5.09946 7.99223 5.90124 7.99228 6.67171 7.66093C7.44217 7.33001 8.18139 6.66858 8.49424 5.34445C8.61192 4.847 8.57548 4.44158 8.38287 4.12307C8.1894 3.80499 7.83973 3.57386 7.33046 3.42616C7.33046 3.42616 7.21662 3.39267 7.08243 3.35372C6.94907 3.31476 6.79454 3.27028 6.71581 3.24716C6.58542 3.20948 6.48507 3.13327 6.4258 3.03609C6.36696 2.93934 6.34917 2.8216 6.38262 2.70131C6.41775 2.5763 6.50243 2.47655 6.62435 2.40762C6.74712 2.33912 6.90798 2.30147 7.09594 2.30147H9.80525C9.8243 2.27365 9.84168 2.24329 9.86073 2.21546C10.3556 1.50738 10.9546 0.934581 11.6108 0.530022H7.37954ZM19.5571 0.530022C18.3515 0.530022 17.454 1.14688 17.0302 2.30147L14.9821 7.99223H17.2258L18.2782 5.06701L20.2611 5.06834L20.8254 3.50148L18.8489 3.50015L19.1673 2.593C19.2333 2.43032 19.392 2.30106 19.624 2.30106C19.7531 2.30106 21.2089 2.30148 21.962 2.30188C21.9815 2.27363 21.9989 2.24329 22.0179 2.21546C22.5128 1.50738 23.2134 0.934581 23.8696 0.530022H19.5571ZM29.9661 0.534131L27.2791 7.99685H29.5613L30.538 5.37004C30.5858 5.47835 31.162 7.99685 31.162 7.99685H33.5614C33.5614 7.99685 33.125 6.14618 32.8041 5.39871C32.7216 5.20649 32.6356 4.99116 32.5204 4.81093C33.1982 4.55621 34.1803 4.00951 34.5871 2.90158C34.8369 2.22047 34.8226 1.66988 34.5449 1.26618C34.2083 0.776003 33.5234 0.535416 32.4502 0.534131H29.9661ZM34.6472 0.534237C34.7915 0.649825 34.916 0.78163 35.0197 0.932323C35.2851 1.31933 35.3867 1.7792 35.3262 2.3062H36.6851L34.637 7.9987H36.6834L38.7327 2.3062H41.3621L42 0.534237H34.6472ZM31.4697 2.07489H31.8465C32.5353 2.07537 32.7922 2.2791 32.5589 2.91484C32.3401 3.51162 31.9464 3.88025 31.1979 3.88025H31.195L30.8076 3.87983L31.4697 2.07489ZM13.3519 2.11189H13.3524C14.0534 2.11274 14.2139 2.52376 13.5984 4.22675H13.5983C12.9658 5.97727 12.507 6.41777 11.8161 6.41777H11.8148C11.1417 6.41735 10.9055 5.98661 11.5354 4.24422C12.0057 2.94364 12.6149 2.11189 13.3519 2.11189ZM25.5846 2.11189H25.5854C26.2861 2.11274 26.4469 2.52376 25.8309 4.22675C25.1989 5.97727 24.7396 6.41777 24.0491 6.41777H24.0475C23.374 6.41735 23.139 5.98661 23.7685 4.24422C24.2384 2.94364 24.848 2.11189 25.5846 2.11189Z" fill="#EE7F00"/>
<path d="M2.21891 8.78296C2.0754 8.78296 1.96785 8.80946 1.89589 8.86126C1.82434 8.91435 1.76421 9.00814 1.71552 9.14385C1.66853 9.27399 1.66138 9.36427 1.69398 9.41564C1.72658 9.46744 1.81499 9.49312 1.96061 9.49312C2.10582 9.49312 2.21425 9.4666 2.28537 9.41266C2.35649 9.35915 2.41617 9.2658 2.464 9.13223C2.51142 9.00038 2.51945 8.90964 2.48727 8.85869C2.45595 8.80818 2.36623 8.78296 2.21891 8.78296ZM3.45625 8.78296C3.31063 8.78296 3.2027 8.80946 3.13201 8.86126C3.06089 8.91435 3.00124 9.00814 2.95256 9.14385C2.90599 9.27399 2.89837 9.36427 2.9297 9.41564C2.96145 9.46744 3.04948 9.49312 3.19511 9.49312C3.34031 9.49312 3.44869 9.4666 3.52108 9.41266C3.59305 9.35915 3.65309 9.2658 3.70135 9.13223C3.74876 9.00038 3.75599 8.90964 3.7234 8.85869C3.69038 8.80818 3.60146 8.78296 3.45625 8.78296ZM26.5547 9.75372C26.3862 9.75372 26.2195 9.77561 26.0536 9.81928C25.8876 9.86337 25.7335 9.9297 25.5912 10.0183C25.4486 10.1074 25.3212 10.2187 25.2073 10.3531C25.0939 10.488 25.0053 10.6442 24.9414 10.8215C24.8855 10.9765 24.8606 11.1087 24.8661 11.2196C24.8712 11.33 24.8957 11.4264 24.9393 11.5073C24.9825 11.5886 25.0401 11.658 25.112 11.7162C25.1836 11.7744 25.2598 11.8266 25.3415 11.872C25.4232 11.9178 25.5027 11.9619 25.5811 12.0026C25.6585 12.0437 25.7255 12.0873 25.7809 12.1344C25.8372 12.1811 25.8765 12.2346 25.9002 12.2945C25.9239 12.3549 25.9206 12.4268 25.8906 12.5107C25.8643 12.5831 25.8274 12.649 25.7796 12.7081C25.7318 12.7676 25.6755 12.8173 25.6115 12.8571C25.5468 12.8974 25.4752 12.9286 25.3952 12.9504C25.3156 12.9723 25.2306 12.9834 25.14 12.9834C25.002 12.9834 24.8864 12.9675 24.7933 12.9358C24.7001 12.9046 24.6223 12.8695 24.5605 12.8314C24.4991 12.7933 24.4495 12.7586 24.4131 12.7269C24.3759 12.6957 24.3441 12.6799 24.3174 12.6799C24.2988 12.6799 24.2806 12.685 24.2624 12.6957C24.2446 12.706 24.2268 12.7235 24.2095 12.7483C24.1921 12.7731 24.1743 12.8057 24.1561 12.8459C24.1379 12.8857 24.1176 12.9359 24.0969 12.9945C24.0652 13.0827 24.046 13.1499 24.0397 13.1965C24.0329 13.2432 24.0381 13.2792 24.0537 13.304C24.0685 13.3288 24.099 13.3575 24.143 13.39C24.1866 13.4221 24.245 13.4534 24.3174 13.4829C24.3898 13.5125 24.4766 13.5378 24.5773 13.5588C24.6785 13.5797 24.7924 13.59 24.919 13.59C25.1056 13.59 25.2903 13.5651 25.4723 13.5159C25.6544 13.4662 25.8245 13.3922 25.9824 13.2937C26.1408 13.1957 26.2817 13.0732 26.4066 12.926C26.531 12.7791 26.6284 12.6083 26.6987 12.4135C26.752 12.2645 26.7762 12.1353 26.7702 12.0257C26.7643 11.9161 26.7393 11.8202 26.6948 11.7393C26.6504 11.658 26.5916 11.5886 26.5179 11.53C26.4447 11.4722 26.3667 11.4199 26.285 11.3741C26.2038 11.3283 26.123 11.2851 26.0434 11.244C25.9638 11.2029 25.8952 11.1587 25.8376 11.1121C25.7796 11.0654 25.7394 11.0119 25.7165 10.952C25.6941 10.892 25.6974 10.8205 25.7271 10.7383C25.747 10.6831 25.7759 10.6309 25.814 10.5808C25.8512 10.5312 25.8965 10.4888 25.9498 10.4537C26.0032 10.4186 26.0633 10.3908 26.131 10.3707C26.1987 10.3506 26.2733 10.3407 26.3545 10.3407C26.4583 10.3407 26.5493 10.3531 26.6268 10.3792C26.7042 10.4049 26.7702 10.4331 26.8248 10.4652C26.8794 10.4965 26.9247 10.5256 26.9603 10.5526C26.9962 10.5795 27.0247 10.5924 27.045 10.5924C27.0662 10.5924 27.0844 10.5868 27.1009 10.5753C27.1174 10.5637 27.1335 10.5457 27.1492 10.5209C27.1644 10.4961 27.18 10.4644 27.1969 10.4263C27.2134 10.3886 27.2321 10.3415 27.252 10.2863C27.2698 10.2367 27.2837 10.1947 27.2934 10.1618C27.304 10.1279 27.3104 10.1005 27.3138 10.0786C27.3167 10.0568 27.3176 10.0389 27.3159 10.0256C27.3138 10.0123 27.307 9.99564 27.2952 9.9768C27.2833 9.95797 27.2532 9.93397 27.2049 9.90529C27.1563 9.8766 27.0987 9.85092 27.0314 9.82781C26.9645 9.80512 26.8896 9.78713 26.8079 9.77386C26.7254 9.76016 26.6411 9.75372 26.5547 9.75372ZM38.3123 9.75618C38.0235 9.75618 37.7459 9.8011 37.4783 9.891C37.2108 9.9809 36.964 10.1097 36.7366 10.2788C36.5102 10.4479 36.3074 10.653 36.13 10.8944C35.9526 11.1363 35.8095 11.4087 35.6999 11.7122C35.5945 12.0059 35.542 12.2692 35.5441 12.5008C35.545 12.7328 35.5971 12.9297 35.6991 13.0907C35.8015 13.2521 35.953 13.3749 36.1541 13.4601C36.3543 13.5449 36.6011 13.5872 36.8936 13.5872C36.994 13.5872 37.0952 13.5826 37.1977 13.5731C37.3001 13.5633 37.4033 13.5491 37.5075 13.5303C37.612 13.511 37.7137 13.4883 37.814 13.4613C37.9144 13.4344 37.9994 13.4092 38.0697 13.3844C38.14 13.3591 38.1929 13.3252 38.2284 13.2824C38.2631 13.2396 38.2915 13.1896 38.3119 13.1322L38.8427 11.6578C38.8562 11.6193 38.8639 11.5854 38.8647 11.5559C38.866 11.5264 38.8618 11.5011 38.8512 11.4802C38.8406 11.4592 38.8258 11.4433 38.8059 11.433C38.786 11.4223 38.761 11.4168 38.7309 11.4168H37.4936C37.4766 11.4168 37.4597 11.4223 37.4428 11.433C37.4258 11.4433 37.4089 11.4595 37.3911 11.4818C37.3742 11.5036 37.3564 11.5323 37.3386 11.5691C37.3208 11.6051 37.3022 11.6501 37.2831 11.7031C37.2459 11.8067 37.2289 11.8795 37.2323 11.9223C37.2361 11.9656 37.2547 11.987 37.2886 11.987H37.9825L37.673 12.8458C37.5896 12.8839 37.5037 12.9126 37.4156 12.9318C37.328 12.9507 37.2421 12.9605 37.1592 12.9605C36.989 12.9605 36.8437 12.9327 36.723 12.8775C36.6024 12.8218 36.5114 12.74 36.4509 12.6308C36.3899 12.5225 36.3607 12.3873 36.3628 12.2263C36.3653 12.0649 36.4047 11.8778 36.4809 11.6664C36.5503 11.4733 36.6413 11.2973 36.7535 11.1381C36.8653 10.9788 36.9927 10.8423 37.1354 10.7284C37.2785 10.6149 37.433 10.5272 37.5985 10.4651C37.7645 10.4035 37.9359 10.3722 38.1133 10.3722C38.2792 10.3722 38.4189 10.3894 38.5323 10.4236C38.645 10.4578 38.7398 10.4955 38.8165 10.5353C38.8922 10.5755 38.9515 10.6127 38.9939 10.647C39.0362 10.6812 39.0696 10.6984 39.0946 10.6984C39.1111 10.6984 39.1276 10.6937 39.1432 10.6843C39.1593 10.6745 39.1755 10.6577 39.1928 10.6342C39.2098 10.6102 39.2275 10.5781 39.2466 10.5379C39.2661 10.4981 39.2855 10.4505 39.3054 10.3948C39.3397 10.2994 39.3601 10.2275 39.366 10.1787C39.3728 10.1304 39.3676 10.0927 39.352 10.0657C39.3359 10.0387 39.3025 10.0074 39.2517 9.97105C39.2004 9.93509 39.1314 9.90088 39.0455 9.86963C38.96 9.83795 38.8558 9.81141 38.7334 9.78958C38.6111 9.76732 38.4706 9.75618 38.3123 9.75618ZM15.1665 9.80191C15.07 9.80191 14.9943 9.80448 14.9388 9.80962C14.8834 9.81433 14.8402 9.82718 14.8089 9.84815C14.7775 9.86913 14.756 9.89909 14.7441 9.93848C14.7319 9.97744 14.7221 10.0314 14.7141 10.1003L14.383 13.3325C14.3775 13.3787 14.3788 13.4151 14.3855 13.4429C14.3927 13.4703 14.4126 13.4913 14.4452 13.5058C14.4778 13.52 14.5257 13.5298 14.5892 13.5345C14.6527 13.5392 14.7391 13.5414 14.8483 13.5414C14.9524 13.5414 15.0366 13.5392 15.1014 13.5345C15.1662 13.5298 15.2203 13.5196 15.2627 13.5042C15.3046 13.4892 15.3393 13.4678 15.3664 13.44C15.3931 13.4126 15.4194 13.3766 15.4448 13.3325L16.8447 10.9848H16.8502L16.5916 13.3325C16.5844 13.3787 16.5844 13.4151 16.5916 13.4429C16.5983 13.4703 16.6182 13.4913 16.6508 13.5058C16.6834 13.52 16.7312 13.5298 16.7947 13.5345C16.8582 13.5392 16.9437 13.5414 17.0513 13.5414C17.1474 13.5414 17.2278 13.5392 17.2917 13.5345C17.3556 13.5298 17.4102 13.52 17.4547 13.5058C17.4995 13.4913 17.5372 13.4703 17.5664 13.4429C17.5965 13.4151 17.6257 13.3787 17.6532 13.3325L19.6544 10.1089C19.6967 10.0382 19.7267 9.98213 19.7445 9.94146C19.7619 9.89993 19.7639 9.86913 19.7508 9.84815C19.7373 9.82718 19.709 9.81433 19.6645 9.80962C19.6197 9.80448 19.5558 9.80191 19.4732 9.80191C19.3843 9.80191 19.3144 9.80448 19.2636 9.80962C19.2128 9.81433 19.1717 9.82289 19.1408 9.83531C19.1103 9.84772 19.0858 9.86485 19.0689 9.88669C19.0515 9.90895 19.0342 9.93501 19.0177 9.9654L17.3569 12.7943H17.3514L17.6745 9.9766C17.6804 9.93893 17.6811 9.90806 17.6765 9.88494C17.6714 9.86268 17.6567 9.84474 17.6317 9.83233C17.6067 9.81991 17.5685 9.81173 17.516 9.80787C17.4631 9.80402 17.392 9.80191 17.3014 9.80191C17.2163 9.80191 17.1473 9.80448 17.0949 9.80962C17.0419 9.81433 16.9987 9.82289 16.9653 9.83531C16.9314 9.84772 16.9043 9.86523 16.884 9.88792C16.8633 9.91104 16.843 9.94107 16.8222 9.9766L15.1403 12.7943H15.1374L15.5159 9.95687C15.5235 9.92048 15.526 9.89263 15.5234 9.87251C15.5213 9.85239 15.5091 9.83705 15.4862 9.82678C15.4634 9.81608 15.427 9.80964 15.3762 9.80664C15.325 9.80365 15.2554 9.80191 15.1665 9.80191ZM24.002 9.80212C23.93 9.80212 23.8694 9.80508 23.8203 9.81065C23.7712 9.81664 23.7302 9.82435 23.6976 9.83377C23.665 9.84319 23.6396 9.85566 23.6219 9.87107C23.6041 9.88648 23.5918 9.90362 23.5846 9.92245L22.3256 13.4213C22.3188 13.4405 22.3184 13.4577 22.3256 13.4732C22.3319 13.4881 22.3476 13.5005 22.3725 13.5099C22.3979 13.5198 22.4331 13.5275 22.4792 13.5331C22.5249 13.5386 22.5842 13.5416 22.6557 13.5416C22.7294 13.5416 22.7908 13.5386 22.8404 13.5331C22.8895 13.5275 22.9301 13.5198 22.9614 13.5099C22.9936 13.5005 23.0182 13.4881 23.0364 13.4732C23.0537 13.4577 23.066 13.4405 23.0727 13.4213L24.3321 9.92245C24.3394 9.90362 24.3393 9.88648 24.3326 9.87107C24.3258 9.85566 24.3098 9.84319 24.2848 9.83377C24.2602 9.82435 24.2251 9.81664 24.1802 9.81065C24.1349 9.80509 24.0752 9.80212 24.002 9.80212ZM1.35104 9.80223C1.27738 9.80223 1.21604 9.80529 1.16651 9.81086C1.1174 9.81685 1.07625 9.82456 1.04366 9.83398C1.01106 9.8434 0.986092 9.85577 0.969582 9.87118C0.952648 9.88616 0.940807 9.90329 0.93361 9.92256L0.122942 12.176C0.0378526 12.4128 -0.00319463 12.6192 0.000193811 12.7956C0.0040021 12.9724 0.0471329 13.1196 0.131376 13.2377C0.215196 13.3563 0.3384 13.4445 0.500536 13.5028C0.662249 13.561 0.858684 13.5901 1.08898 13.5901C1.33451 13.5901 1.56308 13.5575 1.77517 13.4929C1.98726 13.4278 2.17992 13.3337 2.35264 13.2096C2.52578 13.0859 2.67778 12.9339 2.80817 12.7541C2.93898 12.5747 3.04522 12.3717 3.12693 12.1444L3.92662 9.92256C3.93381 9.90329 3.93377 9.88616 3.92784 9.87118C3.92234 9.85577 3.90709 9.8434 3.88211 9.83398C3.85714 9.82456 3.82292 9.81685 3.77847 9.81086C3.73444 9.80529 3.67637 9.80223 3.6044 9.80223C3.53286 9.80223 3.47198 9.80529 3.4216 9.81086C3.37165 9.81685 3.33093 9.82456 3.29875 9.83398C3.267 9.8434 3.24293 9.85577 3.226 9.87118C3.20906 9.88616 3.19763 9.90329 3.19043 9.92256L2.38779 12.153C2.34123 12.2827 2.2815 12.3988 2.21038 12.5011C2.13841 12.6034 2.05796 12.6889 1.96864 12.7583C1.87932 12.8281 1.78203 12.8807 1.6762 12.9175C1.57121 12.9535 1.45985 12.9719 1.34301 12.9719C1.22744 12.9719 1.12959 12.9544 1.04874 12.9189C0.968303 12.8834 0.907336 12.8307 0.865426 12.76C0.823939 12.6894 0.804542 12.6003 0.807507 12.492C0.810473 12.3846 0.838421 12.257 0.891337 12.1098L1.67874 9.92256C1.68551 9.90329 1.68551 9.88616 1.67874 9.87118C1.67196 9.85577 1.65626 9.8434 1.63128 9.83398C1.60631 9.82456 1.57119 9.81685 1.52632 9.81086C1.48102 9.80529 1.42258 9.80223 1.35104 9.80223ZM28.82 9.80233C28.7463 9.80233 28.685 9.80529 28.6354 9.81086C28.5863 9.81643 28.5453 9.82415 28.5127 9.83357C28.4801 9.84342 28.455 9.85589 28.4381 9.87087C28.4212 9.88628 28.4097 9.9034 28.4025 9.92266L27.5919 12.1757C27.5068 12.4125 27.4657 12.6193 27.4695 12.7957C27.4725 12.9725 27.5161 13.1197 27.5999 13.2379C27.6842 13.3564 27.807 13.4446 27.9696 13.5029C28.1313 13.5611 28.3276 13.5902 28.5579 13.5902C28.803 13.5902 29.0317 13.5576 29.2442 13.493C29.4563 13.4279 29.6484 13.3337 29.8216 13.2096C29.9947 13.0854 30.1463 12.934 30.2771 12.7542C30.4079 12.5748 30.5137 12.3714 30.5959 12.1445L31.3956 9.92266C31.4028 9.9034 31.4027 9.88628 31.3968 9.87087C31.3909 9.85589 31.3761 9.84342 31.3512 9.83357C31.3262 9.82415 31.2919 9.81643 31.2474 9.81086C31.2034 9.8053 31.145 9.80233 31.0734 9.80233C31.0019 9.80233 30.9409 9.80529 30.8905 9.81086C30.8406 9.81643 30.8 9.82415 30.7678 9.83357C30.736 9.84342 30.7114 9.85589 30.6949 9.87087C30.678 9.88628 30.6666 9.9034 30.6594 9.92266L29.8567 12.153C29.8097 12.2827 29.7504 12.3988 29.6793 12.5011C29.6074 12.6034 29.527 12.6886 29.4377 12.7584C29.3484 12.8282 29.251 12.8809 29.1451 12.9172C29.0397 12.9536 28.928 12.972 28.8115 12.972C28.6964 12.972 28.5986 12.9541 28.5178 12.919C28.4373 12.8835 28.376 12.8308 28.3341 12.7601C28.2926 12.6895 28.2731 12.6 28.2764 12.4921C28.279 12.3847 28.3074 12.2571 28.3603 12.1099L29.1473 9.92266C29.1545 9.9034 29.154 9.88628 29.1473 9.87087C29.1409 9.85589 29.1248 9.84342 29.1002 9.83357C29.0752 9.82415 29.0401 9.81643 28.9953 9.81086C28.95 9.8053 28.8915 9.80233 28.82 9.80233ZM35.1862 9.80788C35.1181 9.80788 35.0618 9.81047 35.016 9.81518C34.9712 9.81989 34.9335 9.82797 34.9026 9.83953C34.8722 9.85109 34.8484 9.86442 34.8319 9.8794C34.815 9.89481 34.8031 9.91193 34.7963 9.93119L34.1702 11.6692C34.1232 11.8011 34.075 11.9394 34.0255 12.0841C33.976 12.2292 33.9298 12.3687 33.8879 12.5023H33.8849C33.8781 12.4257 33.8714 12.3496 33.8625 12.2734C33.8541 12.1967 33.8455 12.1192 33.8362 12.04C33.8269 11.9604 33.8159 11.8816 33.8041 11.8024C33.7918 11.7228 33.78 11.6423 33.7681 11.5601L33.542 10.206C33.5331 10.1315 33.5204 10.0691 33.5047 10.0185C33.4887 9.96802 33.4666 9.92864 33.4387 9.89995C33.4099 9.87127 33.3735 9.8502 33.3291 9.83778C33.2846 9.82537 33.2262 9.81939 33.1547 9.81939H32.7554C32.6801 9.81939 32.6082 9.84207 32.54 9.88659C32.4719 9.93155 32.4219 9.99882 32.3897 10.0887L31.1912 13.4185C31.184 13.4373 31.1828 13.4549 31.1861 13.4703C31.1908 13.4853 31.2031 13.4981 31.2234 13.5084C31.2446 13.5191 31.2755 13.5273 31.317 13.5333C31.3585 13.5388 31.4118 13.5418 31.4779 13.5418C31.5456 13.5418 31.6023 13.5388 31.6485 13.5333C31.6938 13.5273 31.731 13.5191 31.7602 13.5084C31.7895 13.4981 31.8118 13.4853 31.8283 13.4703C31.8436 13.4549 31.8551 13.4373 31.8619 13.4185L32.5599 11.4801C32.612 11.3349 32.6611 11.1941 32.706 11.0579C32.7517 10.9214 32.7952 10.7843 32.8371 10.6469H32.8426C32.8452 10.7595 32.8528 10.8756 32.8647 10.995C32.8761 11.1141 32.8901 11.2253 32.9057 11.3285L33.194 13.0606C33.2071 13.1561 33.2215 13.234 33.2372 13.294C33.2537 13.3539 33.2757 13.4018 33.3032 13.4369C33.3316 13.4724 33.3668 13.4969 33.4099 13.5102C33.4535 13.5239 33.5082 13.5302 33.5746 13.5302H33.8913C33.9273 13.5302 33.9645 13.5251 34.0035 13.5144C34.042 13.5041 34.0784 13.487 34.1123 13.4643C34.1457 13.4412 34.1762 13.4126 34.2037 13.3787C34.2313 13.3441 34.2528 13.3051 34.2685 13.261L35.4673 9.93119C35.4741 9.91193 35.4758 9.89481 35.4716 9.8794C35.4678 9.86442 35.4559 9.85109 35.4364 9.83953C35.4169 9.82797 35.3865 9.81989 35.3445 9.81518C35.3031 9.81047 35.2502 9.80788 35.1862 9.80788ZM8.75222 9.81939C8.68957 9.81939 8.6307 9.83784 8.5744 9.87509C8.51852 9.91276 8.47583 9.97306 8.44535 10.057L7.2829 13.2866C7.25284 13.3709 7.25237 13.4313 7.28158 13.4685C7.31079 13.5058 7.35654 13.5246 7.41835 13.5246H9.25856C9.27592 13.5246 9.2933 13.519 9.3115 13.5083C9.32886 13.498 9.34708 13.4818 9.36444 13.4587C9.38264 13.4356 9.39997 13.4056 9.4186 13.3684C9.43638 13.3311 9.4554 13.2849 9.4753 13.2296C9.4952 13.1744 9.50917 13.1277 9.51849 13.0909C9.52695 13.0537 9.53073 13.0233 9.52946 13.0002C9.52861 12.9775 9.52224 12.9608 9.51208 12.9501C9.50192 12.9403 9.48797 12.9347 9.47103 12.9347H8.15199L8.52786 11.8897H9.63493C9.65187 11.8897 9.66918 11.885 9.68696 11.8752C9.70432 11.8658 9.72173 11.8498 9.73909 11.828C9.75644 11.8062 9.77416 11.7772 9.79152 11.7408C9.80972 11.7044 9.82832 11.6585 9.84822 11.6033C9.86769 11.5498 9.88172 11.5044 9.89019 11.4671C9.89908 11.4303 9.90244 11.4008 9.90075 11.3785C9.89948 11.3567 9.89355 11.34 9.88297 11.3297C9.87239 11.3195 9.85928 11.3139 9.84192 11.3139H8.73535L9.06042 10.4093H10.3686C10.3859 10.4093 10.4029 10.4042 10.4198 10.3935C10.4367 10.3828 10.454 10.3665 10.4718 10.3434C10.4896 10.3207 10.507 10.2903 10.5252 10.253C10.5434 10.2162 10.562 10.1708 10.5815 10.1169C10.6022 10.0599 10.6166 10.0128 10.6255 9.97517C10.6339 9.93835 10.6382 9.90759 10.6373 9.88361C10.6361 9.86007 10.631 9.8434 10.6209 9.83398C10.6116 9.82456 10.598 9.81939 10.5811 9.81939H8.75222ZM11.8245 9.81939C11.7623 9.81939 11.7031 9.83784 11.6472 9.87509C11.5913 9.91276 11.5481 9.97306 11.518 10.057L10.3073 13.4215C10.3005 13.4407 10.2997 13.4579 10.3056 13.4729C10.3115 13.4883 10.3267 13.5006 10.3521 13.5101C10.3767 13.5195 10.4123 13.5276 10.4584 13.5332C10.5041 13.5387 10.5629 13.5417 10.6349 13.5417C10.7081 13.5417 10.77 13.5387 10.8191 13.5332C10.8687 13.5276 10.9092 13.5195 10.9406 13.5101C10.9723 13.5006 10.9973 13.4883 11.015 13.4729C11.0324 13.4579 11.0452 13.4407 11.0519 13.4215L11.5599 12.0096H11.7924C11.8711 12.0096 11.9366 12.0219 11.9883 12.0472C12.0395 12.072 12.0798 12.1084 12.1086 12.1572C12.1374 12.206 12.1572 12.2665 12.1691 12.3392C12.1809 12.4116 12.1894 12.4946 12.1958 12.5883L12.2263 13.4154C12.2254 13.4385 12.2279 13.4583 12.233 13.4741C12.2389 13.4904 12.2534 13.5041 12.2771 13.5144C12.3004 13.5251 12.335 13.5319 12.3807 13.5357C12.4269 13.5396 12.4891 13.5417 12.5687 13.5417C12.6631 13.5417 12.7385 13.5396 12.7944 13.5357C12.8507 13.5319 12.8942 13.5254 12.926 13.516C12.9581 13.5062 12.9802 13.4942 12.9929 13.4801C13.0056 13.4659 13.0158 13.448 13.0234 13.427C13.0302 13.4082 13.0348 13.3816 13.0373 13.3482C13.0399 13.3148 13.0403 13.2618 13.0382 13.1895L12.992 12.4595C12.9878 12.3717 12.9793 12.293 12.9666 12.2232C12.9543 12.1539 12.9361 12.0913 12.9133 12.0369C12.8904 11.9825 12.8621 11.9364 12.8274 11.8983C12.7931 11.8598 12.7537 11.8276 12.708 11.8011C12.8346 11.7647 12.9527 11.7167 13.0627 11.6576C13.1728 11.5986 13.2723 11.5288 13.3616 11.4483C13.4509 11.3683 13.5293 11.2775 13.5974 11.1752C13.6652 11.0733 13.7214 10.9602 13.7663 10.8361C13.8192 10.6888 13.8442 10.5588 13.8421 10.4449C13.8392 10.3314 13.8117 10.2333 13.7596 10.1503C13.7075 10.0672 13.6317 10 13.5318 9.94866C13.4327 9.89686 13.3133 9.86051 13.1732 9.83953C13.1245 9.83397 13.07 9.8292 13.0086 9.82535C12.9476 9.8215 12.8692 9.81939 12.7731 9.81939H11.8245ZM20.77 9.81939C20.7078 9.81939 20.6485 9.83784 20.5926 9.87509C20.5367 9.91276 20.4935 9.97306 20.4634 10.057L19.301 13.2866C19.2709 13.3709 19.2701 13.4313 19.2988 13.4685C19.3285 13.5058 19.3742 13.5246 19.4364 13.5246H21.2766C21.294 13.5246 21.3114 13.519 21.3292 13.5083C21.3474 13.498 21.3648 13.4818 21.3821 13.4587C21.4007 13.4356 21.4185 13.4056 21.4363 13.3684C21.4545 13.3311 21.4735 13.2849 21.4934 13.2296H21.4935C21.5134 13.1744 21.5277 13.1277 21.5366 13.0909C21.5446 13.0537 21.5489 13.0233 21.5472 13.0002C21.5464 12.9775 21.5404 12.9608 21.5299 12.9501C21.5197 12.9403 21.5057 12.9347 21.4888 12.9347H20.1697L20.5456 11.8897H21.6526C21.67 11.8897 21.6869 11.885 21.7046 11.8752C21.7224 11.8658 21.7398 11.8498 21.7572 11.828C21.7745 11.8062 21.7919 11.7772 21.8097 11.7408C21.8275 11.7044 21.8465 11.6585 21.8664 11.6033C21.8854 11.5498 21.8994 11.5044 21.9079 11.4671C21.9167 11.4303 21.9205 11.4008 21.9188 11.3785C21.9176 11.3567 21.9113 11.34 21.9012 11.3297C21.8906 11.3195 21.8769 11.3139 21.86 11.3139H20.753L21.0786 10.4093H22.3863C22.4032 10.4093 22.4205 10.4042 22.4379 10.3935C22.4544 10.3828 22.4721 10.3665 22.4895 10.3434C22.5073 10.3207 22.5255 10.2903 22.5428 10.253C22.5615 10.2162 22.5802 10.1708 22.5996 10.1169C22.6204 10.0599 22.6343 10.0128 22.6432 9.97517C22.6521 9.93835 22.6559 9.90759 22.655 9.88361C22.6542 9.86007 22.6487 9.8434 22.639 9.83398C22.6292 9.82456 22.6161 9.81939 22.5987 9.81939H20.77ZM5.23855 9.8196C5.17632 9.8196 5.11701 9.83805 5.06113 9.8753C5.00525 9.91254 4.96246 9.97284 4.93198 10.0572L3.76953 13.2868C3.73947 13.3707 3.73859 13.4311 3.7678 13.4683C3.79701 13.5056 3.84275 13.5244 3.90498 13.5244H4.87914C5.02604 13.5244 5.1632 13.5154 5.28935 13.497C5.41593 13.479 5.53863 13.4507 5.65801 13.4126C5.77738 13.3745 5.89173 13.3258 6.00095 13.2667C6.11017 13.2077 6.21052 13.137 6.30365 13.0553C6.39636 12.9731 6.47973 12.8779 6.55423 12.7713C6.62874 12.6643 6.68972 12.5454 6.73713 12.4135C6.78243 12.2877 6.80445 12.1737 6.80318 12.0727C6.80149 11.9716 6.78194 11.8835 6.74384 11.8082C6.70574 11.7328 6.65155 11.6712 6.58085 11.6232C6.51016 11.5757 6.42681 11.5419 6.32987 11.523C6.42173 11.4926 6.50852 11.4524 6.5898 11.4027C6.67108 11.353 6.74473 11.2957 6.81162 11.2311C6.87808 11.166 6.9369 11.0941 6.98812 11.0149C7.03934 10.9357 7.08081 10.8514 7.11341 10.7615C7.1714 10.6014 7.19302 10.4617 7.17905 10.3436C7.16508 10.225 7.11848 10.1269 7.03974 10.0499C6.961 9.9724 6.85052 9.91463 6.70828 9.87653C6.56646 9.83843 6.38322 9.8196 6.15886 9.8196H5.23855ZM5.54542 10.3834H5.92179C6.03694 10.3834 6.12501 10.3941 6.18639 10.4151C6.24778 10.4361 6.29387 10.466 6.3252 10.5054C6.35652 10.5444 6.3726 10.5936 6.37387 10.6527C6.37514 10.7122 6.36284 10.7786 6.33617 10.853C6.31204 10.9203 6.27862 10.9832 6.23628 11.0436C6.19353 11.1035 6.14322 11.1561 6.08437 11.2011C6.02595 11.246 5.95987 11.2811 5.88663 11.3068C5.81297 11.3325 5.72277 11.3458 5.61482 11.3458H5.19912L5.54542 10.3834ZM12.1411 10.3947H12.4751C12.5602 10.3947 12.6259 10.3982 12.672 10.4038C12.7182 10.4093 12.758 10.417 12.7923 10.426C12.9044 10.4611 12.973 10.5197 12.9975 10.6041C13.0221 10.688 13.012 10.7911 12.9683 10.9132C12.9391 10.9932 12.9002 11.0661 12.8503 11.1307C12.8007 11.1958 12.7406 11.2518 12.6711 11.2985C12.6013 11.3452 12.5226 11.3811 12.4337 11.4072C12.3452 11.4329 12.2483 11.4458 12.1424 11.4458H11.7631L12.1411 10.3947ZM5.00098 11.8955H5.44259C5.57848 11.8955 5.68423 11.9079 5.76043 11.9327C5.83621 11.9576 5.89384 11.9927 5.93236 12.0385C5.97004 12.0843 5.99114 12.1412 5.99495 12.2088C5.99919 12.2765 5.98572 12.3532 5.95482 12.4392C5.92518 12.5218 5.88454 12.5946 5.83247 12.6584C5.77956 12.7222 5.71983 12.7757 5.65252 12.8185C5.58521 12.8617 5.51198 12.8939 5.43324 12.9161C5.3545 12.9384 5.2635 12.9486 5.1602 12.9486H4.62216L5.00098 11.8955Z" fill="#383A41"/>
<path d="M2.21891 8.78296C2.0754 8.78296 1.96785 8.80946 1.89589 8.86126C1.82434 8.91435 1.76421 9.00814 1.71552 9.14385C1.66853 9.27399 1.66138 9.36427 1.69398 9.41564C1.72658 9.46744 1.81499 9.49312 1.96061 9.49312C2.10582 9.49312 2.21425 9.4666 2.28537 9.41266C2.35649 9.35915 2.41617 9.2658 2.464 9.13223C2.51142 9.00038 2.51945 8.90964 2.48727 8.85869C2.45595 8.80818 2.36623 8.78296 2.21891 8.78296ZM3.45625 8.78296C3.31063 8.78296 3.2027 8.80946 3.13201 8.86126C3.06089 8.91435 3.00124 9.00814 2.95256 9.14385C2.90599 9.27399 2.89837 9.36427 2.9297 9.41564C2.96145 9.46744 3.04948 9.49312 3.19511 9.49312C3.34031 9.49312 3.44869 9.4666 3.52108 9.41266C3.59305 9.35915 3.65309 9.2658 3.70135 9.13223C3.74876 9.00038 3.75599 8.90964 3.7234 8.85869C3.69038 8.80818 3.60146 8.78296 3.45625 8.78296ZM26.5547 9.75372C26.3862 9.75372 26.2195 9.77561 26.0536 9.81928C25.8876 9.86337 25.7335 9.9297 25.5912 10.0183C25.4486 10.1074 25.3212 10.2187 25.2073 10.3531C25.0939 10.488 25.0053 10.6442 24.9414 10.8215C24.8855 10.9765 24.8606 11.1087 24.8661 11.2196C24.8712 11.33 24.8957 11.4264 24.9393 11.5073C24.9825 11.5886 25.0401 11.658 25.112 11.7162C25.1836 11.7744 25.2598 11.8266 25.3415 11.872C25.4232 11.9178 25.5027 11.9619 25.5811 12.0026C25.6585 12.0437 25.7255 12.0873 25.7809 12.1344C25.8372 12.1811 25.8765 12.2346 25.9002 12.2945C25.9239 12.3549 25.9206 12.4268 25.8906 12.5107C25.8643 12.5831 25.8274 12.649 25.7796 12.7081C25.7318 12.7676 25.6755 12.8173 25.6115 12.8571C25.5468 12.8974 25.4752 12.9286 25.3952 12.9504C25.3156 12.9723 25.2306 12.9834 25.14 12.9834C25.002 12.9834 24.8864 12.9675 24.7933 12.9358C24.7001 12.9046 24.6223 12.8695 24.5605 12.8314C24.4991 12.7933 24.4495 12.7586 24.4131 12.7269C24.3759 12.6957 24.3441 12.6799 24.3174 12.6799C24.2988 12.6799 24.2806 12.685 24.2624 12.6957C24.2446 12.706 24.2268 12.7235 24.2095 12.7483C24.1921 12.7731 24.1743 12.8057 24.1561 12.8459C24.1379 12.8857 24.1176 12.9359 24.0969 12.9945C24.0652 13.0827 24.046 13.1499 24.0397 13.1965C24.0329 13.2432 24.0381 13.2792 24.0537 13.304C24.0685 13.3288 24.099 13.3575 24.143 13.39C24.1866 13.4221 24.245 13.4534 24.3174 13.4829C24.3898 13.5125 24.4766 13.5378 24.5773 13.5588C24.6785 13.5797 24.7924 13.59 24.919 13.59C25.1056 13.59 25.2903 13.5651 25.4723 13.5159C25.6544 13.4662 25.8245 13.3922 25.9824 13.2937C26.1408 13.1957 26.2817 13.0732 26.4066 12.926C26.531 12.7791 26.6284 12.6083 26.6987 12.4135C26.752 12.2645 26.7762 12.1353 26.7702 12.0257C26.7643 11.9161 26.7393 11.8202 26.6948 11.7393C26.6504 11.658 26.5916 11.5886 26.5179 11.53C26.4447 11.4722 26.3667 11.4199 26.285 11.3741C26.2038 11.3283 26.123 11.2851 26.0434 11.244C25.9638 11.2029 25.8952 11.1587 25.8376 11.1121C25.7796 11.0654 25.7394 11.0119 25.7165 10.952C25.6941 10.892 25.6974 10.8205 25.7271 10.7383C25.747 10.6831 25.7759 10.6309 25.814 10.5808C25.8512 10.5312 25.8965 10.4888 25.9498 10.4537C26.0032 10.4186 26.0633 10.3908 26.131 10.3707C26.1987 10.3506 26.2733 10.3407 26.3545 10.3407C26.4583 10.3407 26.5493 10.3531 26.6268 10.3792C26.7042 10.4049 26.7702 10.4331 26.8248 10.4652C26.8794 10.4965 26.9247 10.5256 26.9603 10.5526C26.9962 10.5795 27.0247 10.5924 27.045 10.5924C27.0662 10.5924 27.0844 10.5868 27.1009 10.5753C27.1174 10.5637 27.1335 10.5457 27.1492 10.5209C27.1644 10.4961 27.18 10.4644 27.1969 10.4263C27.2134 10.3886 27.2321 10.3415 27.252 10.2863C27.2698 10.2367 27.2837 10.1947 27.2934 10.1618C27.304 10.1279 27.3104 10.1005 27.3138 10.0786C27.3167 10.0568 27.3176 10.0389 27.3159 10.0256C27.3138 10.0123 27.307 9.99564 27.2952 9.9768C27.2833 9.95797 27.2532 9.93397 27.2049 9.90529C27.1563 9.8766 27.0987 9.85092 27.0314 9.82781C26.9645 9.80512 26.8896 9.78713 26.8079 9.77386C26.7254 9.76016 26.6411 9.75372 26.5547 9.75372ZM38.3123 9.75618C38.0235 9.75618 37.7459 9.8011 37.4783 9.891C37.2108 9.9809 36.964 10.1097 36.7366 10.2788C36.5102 10.4479 36.3074 10.653 36.13 10.8944C35.9526 11.1363 35.8095 11.4087 35.6999 11.7122C35.5945 12.0059 35.542 12.2692 35.5441 12.5008C35.545 12.7328 35.5971 12.9297 35.6991 13.0907C35.8015 13.2521 35.953 13.3749 36.1541 13.4601C36.3543 13.5449 36.6011 13.5872 36.8936 13.5872C36.994 13.5872 37.0952 13.5826 37.1977 13.5731C37.3001 13.5633 37.4033 13.5491 37.5075 13.5303C37.612 13.511 37.7137 13.4883 37.814 13.4613C37.9144 13.4344 37.9994 13.4092 38.0697 13.3844C38.14 13.3591 38.1929 13.3252 38.2284 13.2824C38.2631 13.2396 38.2915 13.1896 38.3119 13.1322L38.8427 11.6578C38.8562 11.6193 38.8639 11.5854 38.8647 11.5559C38.866 11.5264 38.8618 11.5011 38.8512 11.4802C38.8406 11.4592 38.8258 11.4433 38.8059 11.433C38.786 11.4223 38.761 11.4168 38.7309 11.4168H37.4936C37.4766 11.4168 37.4597 11.4223 37.4428 11.433C37.4258 11.4433 37.4089 11.4595 37.3911 11.4818C37.3742 11.5036 37.3564 11.5323 37.3386 11.5691C37.3208 11.6051 37.3022 11.6501 37.2831 11.7031C37.2459 11.8067 37.2289 11.8795 37.2323 11.9223C37.2361 11.9656 37.2547 11.987 37.2886 11.987H37.9825L37.673 12.8458C37.5896 12.8839 37.5037 12.9126 37.4156 12.9318C37.328 12.9507 37.2421 12.9605 37.1592 12.9605C36.989 12.9605 36.8437 12.9327 36.723 12.8775C36.6024 12.8218 36.5114 12.74 36.4509 12.6308C36.3899 12.5225 36.3607 12.3873 36.3628 12.2263C36.3653 12.0649 36.4047 11.8778 36.4809 11.6664C36.5503 11.4733 36.6413 11.2973 36.7535 11.1381C36.8653 10.9788 36.9927 10.8423 37.1354 10.7284C37.2785 10.6149 37.433 10.5272 37.5985 10.4651C37.7645 10.4035 37.9359 10.3722 38.1133 10.3722C38.2792 10.3722 38.4189 10.3894 38.5323 10.4236C38.645 10.4578 38.7398 10.4955 38.8165 10.5353C38.8922 10.5755 38.9515 10.6127 38.9939 10.647C39.0362 10.6812 39.0696 10.6984 39.0946 10.6984C39.1111 10.6984 39.1276 10.6937 39.1432 10.6843C39.1593 10.6745 39.1755 10.6577 39.1928 10.6342C39.2098 10.6102 39.2275 10.5781 39.2466 10.5379C39.2661 10.4981 39.2855 10.4505 39.3054 10.3948C39.3397 10.2994 39.3601 10.2275 39.366 10.1787C39.3728 10.1304 39.3676 10.0927 39.352 10.0657C39.3359 10.0387 39.3025 10.0074 39.2517 9.97105C39.2004 9.93509 39.1314 9.90088 39.0455 9.86963C38.96 9.83795 38.8558 9.81141 38.7334 9.78958C38.6111 9.76732 38.4706 9.75618 38.3123 9.75618ZM15.1665 9.80191C15.07 9.80191 14.9943 9.80448 14.9388 9.80962C14.8834 9.81433 14.8402 9.82718 14.8089 9.84815C14.7775 9.86913 14.756 9.89909 14.7441 9.93848C14.7319 9.97744 14.7221 10.0314 14.7141 10.1003L14.383 13.3325C14.3775 13.3787 14.3788 13.4151 14.3855 13.4429C14.3927 13.4703 14.4126 13.4913 14.4452 13.5058C14.4778 13.52 14.5257 13.5298 14.5892 13.5345C14.6527 13.5392 14.7391 13.5414 14.8483 13.5414C14.9524 13.5414 15.0366 13.5392 15.1014 13.5345C15.1662 13.5298 15.2203 13.5196 15.2627 13.5042C15.3046 13.4892 15.3393 13.4678 15.3664 13.44C15.3931 13.4126 15.4194 13.3766 15.4448 13.3325L16.8447 10.9848H16.8502L16.5916 13.3325C16.5844 13.3787 16.5844 13.4151 16.5916 13.4429C16.5983 13.4703 16.6182 13.4913 16.6508 13.5058C16.6834 13.52 16.7312 13.5298 16.7947 13.5345C16.8582 13.5392 16.9437 13.5414 17.0513 13.5414C17.1474 13.5414 17.2278 13.5392 17.2917 13.5345C17.3556 13.5298 17.4102 13.52 17.4547 13.5058C17.4995 13.4913 17.5372 13.4703 17.5664 13.4429C17.5965 13.4151 17.6257 13.3787 17.6532 13.3325L19.6544 10.1089C19.6967 10.0382 19.7267 9.98213 19.7445 9.94146C19.7619 9.89993 19.7639 9.86913 19.7508 9.84815C19.7373 9.82718 19.709 9.81433 19.6645 9.80962C19.6197 9.80448 19.5558 9.80191 19.4732 9.80191C19.3843 9.80191 19.3144 9.80448 19.2636 9.80962C19.2128 9.81433 19.1717 9.82289 19.1408 9.83531C19.1103 9.84772 19.0858 9.86485 19.0689 9.88669C19.0515 9.90895 19.0342 9.93501 19.0177 9.9654L17.3569 12.7943H17.3514L17.6745 9.9766C17.6804 9.93893 17.6811 9.90806 17.6765 9.88494C17.6714 9.86268 17.6567 9.84474 17.6317 9.83233C17.6067 9.81991 17.5685 9.81173 17.516 9.80787C17.4631 9.80402 17.392 9.80191 17.3014 9.80191C17.2163 9.80191 17.1473 9.80448 17.0949 9.80962C17.0419 9.81433 16.9987 9.82289 16.9653 9.83531C16.9314 9.84772 16.9043 9.86523 16.884 9.88792C16.8633 9.91104 16.843 9.94107 16.8222 9.9766L15.1403 12.7943H15.1374L15.5159 9.95687C15.5235 9.92048 15.526 9.89263 15.5234 9.87251C15.5213 9.85239 15.5091 9.83705 15.4862 9.82678C15.4634 9.81608 15.427 9.80964 15.3762 9.80664C15.325 9.80365 15.2554 9.80191 15.1665 9.80191ZM24.002 9.80212C23.93 9.80212 23.8694 9.80508 23.8203 9.81065C23.7712 9.81664 23.7302 9.82435 23.6976 9.83377C23.665 9.84319 23.6396 9.85566 23.6219 9.87107C23.6041 9.88648 23.5918 9.90362 23.5846 9.92245L22.3256 13.4213C22.3188 13.4405 22.3184 13.4577 22.3256 13.4732C22.3319 13.4881 22.3476 13.5005 22.3725 13.5099C22.3979 13.5198 22.4331 13.5275 22.4792 13.5331C22.5249 13.5386 22.5842 13.5416 22.6557 13.5416C22.7294 13.5416 22.7908 13.5386 22.8404 13.5331C22.8895 13.5275 22.9301 13.5198 22.9614 13.5099C22.9936 13.5005 23.0182 13.4881 23.0364 13.4732C23.0537 13.4577 23.066 13.4405 23.0727 13.4213L24.3321 9.92245C24.3394 9.90362 24.3393 9.88648 24.3326 9.87107C24.3258 9.85566 24.3098 9.84319 24.2848 9.83377C24.2602 9.82435 24.2251 9.81664 24.1802 9.81065C24.1349 9.80509 24.0752 9.80212 24.002 9.80212ZM1.35104 9.80223C1.27738 9.80223 1.21604 9.80529 1.16651 9.81086C1.1174 9.81685 1.07625 9.82456 1.04366 9.83398C1.01106 9.8434 0.986092 9.85577 0.969582 9.87118C0.952648 9.88616 0.940807 9.90329 0.93361 9.92256L0.122942 12.176C0.0378526 12.4128 -0.00319463 12.6192 0.000193811 12.7956C0.0040021 12.9724 0.0471329 13.1196 0.131376 13.2377C0.215196 13.3563 0.3384 13.4445 0.500536 13.5028C0.662249 13.561 0.858684 13.5901 1.08898 13.5901C1.33451 13.5901 1.56308 13.5575 1.77517 13.4929C1.98726 13.4278 2.17992 13.3337 2.35264 13.2096C2.52578 13.0859 2.67778 12.9339 2.80817 12.7541C2.93898 12.5747 3.04522 12.3717 3.12693 12.1444L3.92662 9.92256C3.93381 9.90329 3.93377 9.88616 3.92784 9.87118C3.92234 9.85577 3.90709 9.8434 3.88211 9.83398C3.85714 9.82456 3.82292 9.81685 3.77847 9.81086C3.73444 9.80529 3.67637 9.80223 3.6044 9.80223C3.53286 9.80223 3.47198 9.80529 3.4216 9.81086C3.37165 9.81685 3.33093 9.82456 3.29875 9.83398C3.267 9.8434 3.24293 9.85577 3.226 9.87118C3.20906 9.88616 3.19763 9.90329 3.19043 9.92256L2.38779 12.153C2.34123 12.2827 2.2815 12.3988 2.21038 12.5011C2.13841 12.6034 2.05796 12.6889 1.96864 12.7583C1.87932 12.8281 1.78203 12.8807 1.6762 12.9175C1.57121 12.9535 1.45985 12.9719 1.34301 12.9719C1.22744 12.9719 1.12959 12.9544 1.04874 12.9189C0.968303 12.8834 0.907336 12.8307 0.865426 12.76C0.823939 12.6894 0.804542 12.6003 0.807507 12.492C0.810473 12.3846 0.838421 12.257 0.891337 12.1098L1.67874 9.92256C1.68551 9.90329 1.68551 9.88616 1.67874 9.87118C1.67196 9.85577 1.65626 9.8434 1.63128 9.83398C1.60631 9.82456 1.57119 9.81685 1.52632 9.81086C1.48102 9.80529 1.42258 9.80223 1.35104 9.80223ZM28.82 9.80233C28.7463 9.80233 28.685 9.80529 28.6354 9.81086C28.5863 9.81643 28.5453 9.82415 28.5127 9.83357C28.4801 9.84342 28.455 9.85589 28.4381 9.87087C28.4212 9.88628 28.4097 9.9034 28.4025 9.92266L27.5919 12.1757C27.5068 12.4125 27.4657 12.6193 27.4695 12.7957C27.4725 12.9725 27.5161 13.1197 27.5999 13.2379C27.6842 13.3564 27.807 13.4446 27.9696 13.5029C28.1313 13.5611 28.3276 13.5902 28.5579 13.5902C28.803 13.5902 29.0317 13.5576 29.2442 13.493C29.4563 13.4279 29.6484 13.3337 29.8216 13.2096C29.9947 13.0854 30.1463 12.934 30.2771 12.7542C30.4079 12.5748 30.5137 12.3714 30.5959 12.1445L31.3956 9.92266C31.4028 9.9034 31.4027 9.88628 31.3968 9.87087C31.3909 9.85589 31.3761 9.84342 31.3512 9.83357C31.3262 9.82415 31.2919 9.81643 31.2474 9.81086C31.2034 9.8053 31.145 9.80233 31.0734 9.80233C31.0019 9.80233 30.9409 9.80529 30.8905 9.81086C30.8406 9.81643 30.8 9.82415 30.7678 9.83357C30.736 9.84342 30.7114 9.85589 30.6949 9.87087C30.678 9.88628 30.6666 9.9034 30.6594 9.92266L29.8567 12.153C29.8097 12.2827 29.7504 12.3988 29.6793 12.5011C29.6074 12.6034 29.527 12.6886 29.4377 12.7584C29.3484 12.8282 29.251 12.8809 29.1451 12.9172C29.0397 12.9536 28.928 12.972 28.8115 12.972C28.6964 12.972 28.5986 12.9541 28.5178 12.919C28.4373 12.8835 28.376 12.8308 28.3341 12.7601C28.2926 12.6895 28.2731 12.6 28.2764 12.4921C28.279 12.3847 28.3074 12.2571 28.3603 12.1099L29.1473 9.92266C29.1545 9.9034 29.154 9.88628 29.1473 9.87087C29.1409 9.85589 29.1248 9.84342 29.1002 9.83357C29.0752 9.82415 29.0401 9.81643 28.9953 9.81086C28.95 9.8053 28.8915 9.80233 28.82 9.80233ZM35.1862 9.80788C35.1181 9.80788 35.0618 9.81047 35.016 9.81518C34.9712 9.81989 34.9335 9.82797 34.9026 9.83953C34.8722 9.85109 34.8484 9.86442 34.8319 9.8794C34.815 9.89481 34.8031 9.91193 34.7963 9.93119L34.1702 11.6692C34.1232 11.8011 34.075 11.9394 34.0255 12.0841C33.976 12.2292 33.9298 12.3687 33.8879 12.5023H33.8849C33.8781 12.4257 33.8714 12.3496 33.8625 12.2734C33.8541 12.1967 33.8455 12.1192 33.8362 12.04C33.8269 11.9604 33.8159 11.8816 33.8041 11.8024C33.7918 11.7228 33.78 11.6423 33.7681 11.5601L33.542 10.206C33.5331 10.1315 33.5204 10.0691 33.5047 10.0185C33.4887 9.96802 33.4666 9.92864 33.4387 9.89995C33.4099 9.87127 33.3735 9.8502 33.3291 9.83778C33.2846 9.82537 33.2262 9.81939 33.1547 9.81939H32.7554C32.6801 9.81939 32.6082 9.84207 32.54 9.88659C32.4719 9.93155 32.4219 9.99882 32.3897 10.0887L31.1912 13.4185C31.184 13.4373 31.1828 13.4549 31.1861 13.4703C31.1908 13.4853 31.2031 13.4981 31.2234 13.5084C31.2446 13.5191 31.2755 13.5273 31.317 13.5333C31.3585 13.5388 31.4118 13.5418 31.4779 13.5418C31.5456 13.5418 31.6023 13.5388 31.6485 13.5333C31.6938 13.5273 31.731 13.5191 31.7602 13.5084C31.7895 13.4981 31.8118 13.4853 31.8283 13.4703C31.8436 13.4549 31.8551 13.4373 31.8619 13.4185L32.5599 11.4801C32.612 11.3349 32.6611 11.1941 32.706 11.0579C32.7517 10.9214 32.7952 10.7843 32.8371 10.6469H32.8426C32.8452 10.7595 32.8528 10.8756 32.8647 10.995C32.8761 11.1141 32.8901 11.2253 32.9057 11.3285L33.194 13.0606C33.2071 13.1561 33.2215 13.234 33.2372 13.294C33.2537 13.3539 33.2757 13.4018 33.3032 13.4369C33.3316 13.4724 33.3668 13.4969 33.4099 13.5102C33.4535 13.5239 33.5082 13.5302 33.5746 13.5302H33.8913C33.9273 13.5302 33.9645 13.5251 34.0035 13.5144C34.042 13.5041 34.0784 13.487 34.1123 13.4643C34.1457 13.4412 34.1762 13.4126 34.2037 13.3787C34.2313 13.3441 34.2528 13.3051 34.2685 13.261L35.4673 9.93119C35.4741 9.91193 35.4758 9.89481 35.4716 9.8794C35.4678 9.86442 35.4559 9.85109 35.4364 9.83953C35.4169 9.82797 35.3865 9.81989 35.3445 9.81518C35.3031 9.81047 35.2502 9.80788 35.1862 9.80788ZM8.75222 9.81939C8.68957 9.81939 8.6307 9.83784 8.5744 9.87509C8.51852 9.91276 8.47583 9.97306 8.44535 10.057L7.2829 13.2866C7.25284 13.3709 7.25237 13.4313 7.28158 13.4685C7.31079 13.5058 7.35654 13.5246 7.41835 13.5246H9.25856C9.27592 13.5246 9.2933 13.519 9.3115 13.5083C9.32886 13.498 9.34708 13.4818 9.36444 13.4587C9.38264 13.4356 9.39997 13.4056 9.4186 13.3684C9.43638 13.3311 9.4554 13.2849 9.4753 13.2296C9.4952 13.1744 9.50917 13.1277 9.51849 13.0909C9.52695 13.0537 9.53073 13.0233 9.52946 13.0002C9.52861 12.9775 9.52224 12.9608 9.51208 12.9501C9.50192 12.9403 9.48797 12.9347 9.47103 12.9347H8.15199L8.52786 11.8897H9.63493C9.65187 11.8897 9.66918 11.885 9.68696 11.8752C9.70432 11.8658 9.72173 11.8498 9.73909 11.828C9.75644 11.8062 9.77416 11.7772 9.79152 11.7408C9.80972 11.7044 9.82832 11.6585 9.84822 11.6033C9.86769 11.5498 9.88172 11.5044 9.89019 11.4671C9.89908 11.4303 9.90244 11.4008 9.90075 11.3785C9.89948 11.3567 9.89355 11.34 9.88297 11.3297C9.87239 11.3195 9.85928 11.3139 9.84192 11.3139H8.73535L9.06042 10.4093H10.3686C10.3859 10.4093 10.4029 10.4042 10.4198 10.3935C10.4367 10.3828 10.454 10.3665 10.4718 10.3434C10.4896 10.3207 10.507 10.2903 10.5252 10.253C10.5434 10.2162 10.562 10.1708 10.5815 10.1169C10.6022 10.0599 10.6166 10.0128 10.6255 9.97517C10.6339 9.93835 10.6382 9.90759 10.6373 9.88361C10.6361 9.86007 10.631 9.8434 10.6209 9.83398C10.6116 9.82456 10.598 9.81939 10.5811 9.81939H8.75222ZM11.8245 9.81939C11.7623 9.81939 11.7031 9.83784 11.6472 9.87509C11.5913 9.91276 11.5481 9.97306 11.518 10.057L10.3073 13.4215C10.3005 13.4407 10.2997 13.4579 10.3056 13.4729C10.3115 13.4883 10.3267 13.5006 10.3521 13.5101C10.3767 13.5195 10.4123 13.5276 10.4584 13.5332C10.5041 13.5387 10.5629 13.5417 10.6349 13.5417C10.7081 13.5417 10.77 13.5387 10.8191 13.5332C10.8687 13.5276 10.9092 13.5195 10.9406 13.5101C10.9723 13.5006 10.9973 13.4883 11.015 13.4729C11.0324 13.4579 11.0452 13.4407 11.0519 13.4215L11.5599 12.0096H11.7924C11.8711 12.0096 11.9366 12.0219 11.9883 12.0472C12.0395 12.072 12.0798 12.1084 12.1086 12.1572C12.1374 12.206 12.1572 12.2665 12.1691 12.3392C12.1809 12.4116 12.1894 12.4946 12.1958 12.5883L12.2263 13.4154C12.2254 13.4385 12.2279 13.4583 12.233 13.4741C12.2389 13.4904 12.2534 13.5041 12.2771 13.5144C12.3004 13.5251 12.335 13.5319 12.3807 13.5357C12.4269 13.5396 12.4891 13.5417 12.5687 13.5417C12.6631 13.5417 12.7385 13.5396 12.7944 13.5357C12.8507 13.5319 12.8942 13.5254 12.926 13.516C12.9581 13.5062 12.9802 13.4942 12.9929 13.4801C13.0056 13.4659 13.0158 13.448 13.0234 13.427C13.0302 13.4082 13.0348 13.3816 13.0373 13.3482C13.0399 13.3148 13.0403 13.2618 13.0382 13.1895L12.992 12.4595C12.9878 12.3717 12.9793 12.293 12.9666 12.2232C12.9543 12.1539 12.9361 12.0913 12.9133 12.0369C12.8904 11.9825 12.8621 11.9364 12.8274 11.8983C12.7931 11.8598 12.7537 11.8276 12.708 11.8011C12.8346 11.7647 12.9527 11.7167 13.0627 11.6576C13.1728 11.5986 13.2723 11.5288 13.3616 11.4483C13.4509 11.3683 13.5293 11.2775 13.5974 11.1752C13.6652 11.0733 13.7214 10.9602 13.7663 10.8361C13.8192 10.6888 13.8442 10.5588 13.8421 10.4449C13.8392 10.3314 13.8117 10.2333 13.7596 10.1503C13.7075 10.0672 13.6317 10 13.5318 9.94866C13.4327 9.89686 13.3133 9.86051 13.1732 9.83953C13.1245 9.83397 13.07 9.8292 13.0086 9.82535C12.9476 9.8215 12.8692 9.81939 12.7731 9.81939H11.8245ZM20.77 9.81939C20.7078 9.81939 20.6485 9.83784 20.5926 9.87509C20.5367 9.91276 20.4935 9.97306 20.4634 10.057L19.301 13.2866C19.2709 13.3709 19.2701 13.4313 19.2988 13.4685C19.3285 13.5058 19.3742 13.5246 19.4364 13.5246H21.2766C21.294 13.5246 21.3114 13.519 21.3292 13.5083C21.3474 13.498 21.3648 13.4818 21.3821 13.4587C21.4007 13.4356 21.4185 13.4056 21.4363 13.3684C21.4545 13.3311 21.4735 13.2849 21.4934 13.2296H21.4935C21.5134 13.1744 21.5277 13.1277 21.5366 13.0909C21.5446 13.0537 21.5489 13.0233 21.5472 13.0002C21.5464 12.9775 21.5404 12.9608 21.5299 12.9501C21.5197 12.9403 21.5057 12.9347 21.4888 12.9347H20.1697L20.5456 11.8897H21.6526C21.67 11.8897 21.6869 11.885 21.7046 11.8752C21.7224 11.8658 21.7398 11.8498 21.7572 11.828C21.7745 11.8062 21.7919 11.7772 21.8097 11.7408C21.8275 11.7044 21.8465 11.6585 21.8664 11.6033C21.8854 11.5498 21.8994 11.5044 21.9079 11.4671C21.9167 11.4303 21.9205 11.4008 21.9188 11.3785C21.9176 11.3567 21.9113 11.34 21.9012 11.3297C21.8906 11.3195 21.8769 11.3139 21.86 11.3139H20.753L21.0786 10.4093H22.3863C22.4032 10.4093 22.4205 10.4042 22.4379 10.3935C22.4544 10.3828 22.4721 10.3665 22.4895 10.3434C22.5073 10.3207 22.5255 10.2903 22.5428 10.253C22.5615 10.2162 22.5802 10.1708 22.5996 10.1169C22.6204 10.0599 22.6343 10.0128 22.6432 9.97517C22.6521 9.93835 22.6559 9.90759 22.655 9.88361C22.6542 9.86007 22.6487 9.8434 22.639 9.83398C22.6292 9.82456 22.6161 9.81939 22.5987 9.81939H20.77ZM5.23855 9.8196C5.17632 9.8196 5.11701 9.83805 5.06113 9.8753C5.00525 9.91254 4.96246 9.97284 4.93198 10.0572L3.76953 13.2868C3.73947 13.3707 3.73859 13.4311 3.7678 13.4683C3.79701 13.5056 3.84275 13.5244 3.90498 13.5244H4.87914C5.02604 13.5244 5.1632 13.5154 5.28935 13.497C5.41593 13.479 5.53863 13.4507 5.65801 13.4126C5.77738 13.3745 5.89173 13.3258 6.00095 13.2667C6.11017 13.2077 6.21052 13.137 6.30365 13.0553C6.39636 12.9731 6.47973 12.8779 6.55423 12.7713C6.62874 12.6643 6.68972 12.5454 6.73713 12.4135C6.78243 12.2877 6.80445 12.1737 6.80318 12.0727C6.80149 11.9716 6.78194 11.8835 6.74384 11.8082C6.70574 11.7328 6.65155 11.6712 6.58085 11.6232C6.51016 11.5757 6.42681 11.5419 6.32987 11.523C6.42173 11.4926 6.50852 11.4524 6.5898 11.4027C6.67108 11.353 6.74473 11.2957 6.81162 11.2311C6.87808 11.166 6.9369 11.0941 6.98812 11.0149C7.03934 10.9357 7.08081 10.8514 7.11341 10.7615C7.1714 10.6014 7.19302 10.4617 7.17905 10.3436C7.16508 10.225 7.11848 10.1269 7.03974 10.0499C6.961 9.9724 6.85052 9.91463 6.70828 9.87653C6.56646 9.83843 6.38322 9.8196 6.15886 9.8196H5.23855ZM5.54542 10.3834H5.92179C6.03694 10.3834 6.12501 10.3941 6.18639 10.4151C6.24778 10.4361 6.29387 10.466 6.3252 10.5054C6.35652 10.5444 6.3726 10.5936 6.37387 10.6527C6.37514 10.7122 6.36284 10.7786 6.33617 10.853C6.31204 10.9203 6.27862 10.9832 6.23628 11.0436C6.19353 11.1035 6.14322 11.1561 6.08437 11.2011C6.02595 11.246 5.95987 11.2811 5.88663 11.3068C5.81297 11.3325 5.72277 11.3458 5.61482 11.3458H5.19912L5.54542 10.3834ZM12.1411 10.3947H12.4751C12.5602 10.3947 12.6259 10.3982 12.672 10.4038C12.7182 10.4093 12.758 10.417 12.7923 10.426C12.9044 10.4611 12.973 10.5197 12.9975 10.6041C13.0221 10.688 13.012 10.7911 12.9683 10.9132C12.9391 10.9932 12.9002 11.0661 12.8503 11.1307C12.8007 11.1958 12.7406 11.2518 12.6711 11.2985C12.6013 11.3452 12.5226 11.3811 12.4337 11.4072C12.3452 11.4329 12.2483 11.4458 12.1424 11.4458H11.7631L12.1411 10.3947ZM5.00098 11.8955H5.44259C5.57848 11.8955 5.68423 11.9079 5.76043 11.9327C5.83621 11.9576 5.89384 11.9927 5.93236 12.0385C5.97004 12.0843 5.99114 12.1412 5.99495 12.2088C5.99919 12.2765 5.98572 12.3532 5.95482 12.4392C5.92518 12.5218 5.88454 12.5946 5.83247 12.6584C5.77956 12.7222 5.71983 12.7757 5.65252 12.8185C5.58521 12.8617 5.51198 12.8939 5.43324 12.9161C5.3545 12.9384 5.2635 12.9486 5.1602 12.9486H4.62216L5.00098 11.8955Z" fill="white"/>
</svg>
