<svg width="74" height="16" viewBox="0 0 74 16" fill="none" xmlns="http://www.w3.org/2000/svg">
<path fill-rule="evenodd" clip-rule="evenodd" d="M5.14253 0.0814819H16.2152C16.4926 0.0814819 16.732 0.239162 16.8488 0.437722L20.0637 6.03244C20.2214 6.30984 20.1835 6.70696 19.944 6.9464L11.0964 15.759C10.819 16.0364 10.3431 16.0364 10.0657 15.759L1.21221 6.98728C0.972774 6.75076 0.934814 6.35364 1.09249 6.07332L4.54393 0.437722C4.66657 0.201202 4.90309 0.0814819 5.14253 0.0814819ZM14.7873 2.581V4.16948H11.6512V5.24112C13.8733 5.36084 15.5407 5.8368 15.5407 6.3916V7.58296C15.5407 8.13776 13.8733 8.6546 11.6512 8.73344V11.4315H9.54881V8.81228C7.32669 8.69256 5.65937 8.2166 5.65937 7.6618V6.47044C5.65937 5.91564 7.32669 5.3988 9.54881 5.31996V4.20744H6.41273V2.62188H14.7873V2.581ZM10.6205 7.98008C13.0032 7.98008 14.945 7.58296 15.4618 7.02816C15.0647 6.5522 13.558 6.19304 11.6921 6.1142V7.26468C11.3359 7.26468 11.0176 7.30556 10.6613 7.30556C10.3051 7.30556 9.94593 7.30556 9.63057 7.26468V6.1142C7.76469 6.19304 6.25797 6.59016 5.86085 7.02816C6.25213 7.58296 8.23773 7.98008 10.6205 7.98008Z" fill="#009393"/>
<path d="M24.4287 3.13864L26.9691 2.86124V5.36076H29.1912V7.50404H26.9691V10.8387C26.9691 11.6329 27.2874 12.03 27.9619 12.03C28.3999 12.03 28.7561 11.9512 29.0335 11.8315L29.6292 13.9748C29.0335 14.2142 28.4379 14.331 27.7633 14.3719C26.7326 14.4128 25.8975 14.1733 25.3018 13.6185C24.7061 13.0637 24.4287 12.1498 24.4287 10.8416V7.50404H22.8811V5.36076H24.4287V3.13864Z" fill="#009393"/>
<path d="M38.7954 10.5584H32.3276C32.4065 11.0343 32.6459 11.3935 33.043 11.7088C33.4401 11.9862 33.9949 12.1439 34.7103 12.1439C35.7031 12.1439 36.4565 11.9045 36.9733 11.4285L38.4012 13.055C37.569 13.928 36.2988 14.366 34.6695 14.366C33.1219 14.366 31.8925 13.928 31.0195 13.0958C30.1873 12.2636 29.7493 11.0723 29.7493 9.64439C29.7493 8.25447 30.1843 7.18283 31.0195 6.30975C31.8546 5.47755 33.0051 5.03955 34.4329 5.03955C35.9805 5.03955 37.1719 5.51551 38.0041 6.46743C38.7954 7.42227 39.0757 8.81219 38.7954 10.5584ZM32.3276 8.69247H36.4945C36.4536 8.25447 36.255 7.89823 35.8579 7.66171C35.4608 7.42227 34.9848 7.26459 34.3891 7.26459C33.8723 7.26459 33.4372 7.38431 33.0781 7.66171C32.7247 7.90115 32.4473 8.21651 32.3276 8.69247Z" fill="#009393"/>
<path d="M40.9004 3.13864L43.4408 2.86124V5.36076H45.6629V7.50404H43.4408V10.8387C43.4408 11.6329 43.7591 12.03 44.4336 12.03C44.8687 12.03 45.2278 11.9512 45.5052 11.8315L46.1009 13.9748C45.5052 14.2142 44.9095 14.331 44.235 14.3719C43.2043 14.4128 42.3691 14.1733 41.7735 13.6185C41.1778 13.0637 40.9004 12.1498 40.9004 10.8416V7.50404H39.3528V5.36076H40.9004V3.13864Z" fill="#009393"/>
<path d="M47.0498 1.5502H49.6282V6.3536C50.2618 5.5214 51.1378 5.12428 52.2883 5.12428C54.6301 5.12428 55.7806 6.55216 55.7806 9.41084V14.1734H53.2402V9.40792C53.2402 8.81224 53.0825 8.33628 52.7642 7.98004C52.4868 7.66176 52.0488 7.4632 51.5729 7.4632C51.0181 7.4632 50.5421 7.66176 50.183 8.05888C49.8267 8.456 49.6282 8.97284 49.6282 9.64736V14.1325H47.0878V1.5502H47.0498Z" fill="#009393"/>
<path d="M65.8634 10.5585H59.3956C59.4745 11.0345 59.7139 11.3936 60.111 11.709C60.5081 11.9864 61.0629 12.1441 61.7783 12.1441C62.7711 12.1441 63.5245 11.9046 64.0413 11.4287L65.4692 13.0551C64.5961 13.9282 63.3259 14.3633 61.6995 14.3633C60.1519 14.3633 58.9226 13.9282 58.0495 13.0931C57.1764 12.2609 56.7793 11.0695 56.7793 9.64162C56.7793 8.25169 57.2173 7.18005 58.0495 6.30697C58.8817 5.47477 60.0351 5.03677 61.463 5.03677C63.0106 5.03677 64.2019 5.51273 65.0341 6.46465C65.8634 7.42241 66.1408 8.81233 65.8634 10.5585ZM59.3927 8.69261H63.5595C63.5187 8.25461 63.3201 7.89838 62.9259 7.66185C62.5288 7.42241 62.0528 7.26473 61.4571 7.26473C60.9403 7.26473 60.5052 7.38445 60.1461 7.66185C59.7898 7.90129 59.5124 8.21665 59.3927 8.69261Z" fill="#009393"/>
<path d="M66.9357 5.279H69.3155L69.514 6.2718C70.0688 5.47756 70.8631 5.08044 71.8559 5.08044C72.6881 5.08044 73.4035 5.35784 73.9991 5.87468L72.9275 7.93913C72.5304 7.62085 72.0544 7.50113 71.5376 7.50113C70.9419 7.50113 70.4659 7.69969 70.0688 8.05593C69.6717 8.41217 69.4731 8.92901 69.4731 9.56557V14.2084H66.8948V5.279H66.9357Z" fill="#009393"/>
</svg>
