<svg width="72" height="40" viewBox="0 0 72 40" fill="none" xmlns="http://www.w3.org/2000/svg">
<rect x="0.5" y="0.5" width="71" height="39" rx="15.5" fill="#110A1D"/>
<path d="M28.0029 23.5257V17.0408H25.6749V15.5H32.0062V17.0408H29.6782V23.5257H28.0029Z" fill="#0EE06E"/>
<path d="M31.7413 17.7032H33.2821V18.6249C33.6469 17.8424 34.1174 17.7032 34.6214 17.7032H35.2166V19.2633H34.7126C33.9878 19.2633 33.3397 19.6809 33.3397 20.9577V23.5305H31.7413V17.7032Z" fill="#0EE06E"/>
<path d="M35.9425 17.7032V21.3945C35.9425 22.7817 36.7441 23.6601 38.0209 23.6649C38.7457 23.6649 39.3169 23.3769 39.7009 22.7961V23.5305H41.2177V17.7032H39.6241V21.0441C39.6241 21.7161 39.2065 22.2201 38.5489 22.2201C37.8673 22.2201 37.5361 21.7161 37.5361 21.0345V17.7032H35.9425Z" fill="#0EE06E"/>
<path d="M41.8986 21.8888L43.2858 21.572C43.353 22.0232 43.713 22.364 44.409 22.364C44.9466 22.364 45.2442 22.1432 45.2442 21.8696C45.2442 21.6488 45.1242 21.4856 44.5722 21.3656L43.6602 21.1688C42.4938 20.9144 41.9994 20.3768 41.9994 19.3976C41.9994 18.3992 42.825 17.5928 44.3754 17.5928C46.0218 17.5928 46.6842 18.5816 46.7514 19.2296L45.3546 19.5368C45.2874 19.196 45.0378 18.8216 44.3418 18.8216C43.9002 18.8216 43.5738 19.0184 43.5738 19.3064C43.5738 19.5464 43.737 19.6808 44.025 19.748L45.3546 20.0552C46.3674 20.2856 46.8378 20.8904 46.8378 21.7496C46.8378 22.6712 46.1034 23.6408 44.4186 23.6408C42.5658 23.636 41.961 22.5272 41.8986 21.8888Z" fill="#0EE06E"/>
<path d="M48.1776 21.8217C48.1776 22.9545 48.8688 23.5257 49.9008 23.5257H51.0336V22.1289H50.4192C49.992 22.1289 49.7712 21.9609 49.7712 21.5337V19.0953H50.9472V17.6985H49.7712V15.9417L48.1776 16.4025V17.6985H47.1984V19.0953H48.1776V21.8217Z" fill="#0EE06E"/>
<path d="M51.8966 15.5048H53.4902V23.5304H51.8966V15.5048Z" fill="#0EE06E"/>
<path d="M60.0002 17.7032H58.2962L56.9618 22.2105L55.7617 17.7032H54.0577L55.6609 23.5305H56.5394L55.8674 25.6185H57.5714L60.0002 17.7032Z" fill="#0EE06E"/>
<path d="M12 19.0185H15.7392V16.0329L18.7249 19.0185L15.7392 21.9993V23.5257H19.3633V19.0185H22.6897V15.5049H12V19.0185Z" fill="#0EE06E"/>
<rect x="0.5" y="0.5" width="71" height="39" rx="15.5" stroke="url(#paint0_linear_1429_7896)"/>
<defs>
<linearGradient id="paint0_linear_1429_7896" x1="0" y1="0" x2="74.8062" y2="33.7869" gradientUnits="userSpaceOnUse">
<stop stop-color="white" stop-opacity="0.24"/>
<stop offset="1" stop-color="white" stop-opacity="0.14"/>
</linearGradient>
</defs>
</svg>
