<svg width="48" height="11" viewBox="0 0 48 11" fill="none" xmlns="http://www.w3.org/2000/svg">
<path d="M16.0028 8.52566V2.04081H13.6748V0.5H20.0061V2.04081H17.678V8.52566H16.0028Z" fill="#0EE06E"/>
<path d="M19.7412 2.70325H21.282V3.62485C21.6468 2.84245 22.1172 2.70325 22.6212 2.70325H23.2164V4.26326H22.7124C21.9876 4.26326 21.3396 4.68086 21.3396 5.95767V8.53049H19.7412V2.70325Z" fill="#0EE06E"/>
<path d="M23.9424 2.70325V6.39447C23.9424 7.78168 24.744 8.66009 26.0208 8.66489C26.7456 8.66489 27.3168 8.37689 27.7008 7.79609V8.53049H29.2176V2.70325H27.624V6.04407C27.624 6.71608 27.2064 7.22008 26.5488 7.22008C25.8672 7.22008 25.536 6.71608 25.536 6.03447V2.70325H23.9424Z" fill="#0EE06E"/>
<path d="M29.8984 6.88881L31.2856 6.572C31.3528 7.02321 31.7129 7.36401 32.4089 7.36401C32.9465 7.36401 33.2441 7.14321 33.2441 6.86961C33.2441 6.6488 33.1241 6.4856 32.5721 6.3656L31.66 6.1688C30.4936 5.9144 29.9992 5.37679 29.9992 4.39759C29.9992 3.39918 30.8248 2.59277 32.3753 2.59277C34.0217 2.59277 34.6841 3.58158 34.7513 4.22959L33.3545 4.53679C33.2873 4.19599 33.0377 3.82158 32.3417 3.82158C31.9001 3.82158 31.5736 4.01838 31.5736 4.30639C31.5736 4.54639 31.7369 4.68079 32.0249 4.74799L33.3545 5.05519C34.3673 5.28559 34.8377 5.8904 34.8377 6.74961C34.8377 7.67121 34.1033 8.64082 32.4185 8.64082C30.5656 8.63602 29.9608 7.52721 29.8984 6.88881Z" fill="#0EE06E"/>
<path d="M36.1775 6.82169C36.1775 7.9545 36.8687 8.52571 37.9007 8.52571H39.0335V7.1289H38.4191C37.9919 7.1289 37.7711 6.9609 37.7711 6.53369V4.09527H38.9471V2.69846H37.7711V0.94165L36.1775 1.40245V2.69846H35.1982V4.09527H36.1775V6.82169Z" fill="#0EE06E"/>
<path d="M39.8965 0.504761H41.4901V8.53042H39.8965V0.504761Z" fill="#0EE06E"/>
<path d="M48.0001 2.70325H46.296L44.9616 7.21048L43.7616 2.70325H42.0576L43.6608 8.53049H44.5392L43.8672 10.6185H45.5712L48.0001 2.70325Z" fill="#0EE06E"/>
<path d="M0 4.01839H3.73923V1.03276L6.72485 4.01839L3.73923 6.99921V8.52562H7.36326V4.01839H10.6897V0.504761H0V4.01839Z" fill="#0EE06E"/>
</svg>
