<svg width="38" height="14" viewBox="0 0 38 14" fill="none" xmlns="http://www.w3.org/2000/svg">
<path d="M24.864 0.854614C26.0548 0.854614 27.0178 1.12058 27.625 1.36146L27.2063 3.9322L26.9279 3.80578C26.3709 3.56507 25.6356 3.32453 24.6349 3.34994C23.4196 3.34994 22.8745 3.86891 22.8619 4.37558C22.8619 4.93292 23.5212 5.30022 24.5979 5.84494C26.3714 6.69349 27.194 7.73192 27.1818 9.08715C27.1568 11.5569 25.0541 13.1528 21.8241 13.1528C20.4432 13.14 19.113 12.8482 18.391 12.5192L18.8218 9.84683L19.2271 10.037C20.2279 10.4808 20.8864 10.6703 22.1154 10.6703C23.0016 10.6703 23.9518 10.3027 23.964 9.50512C23.964 8.98582 23.5591 8.60556 22.3682 8.02297C21.203 7.45283 19.6451 6.50311 19.6704 4.79321C19.6835 2.47564 21.8241 0.854614 24.864 0.854614Z" fill="#00579F"/>
<path d="M13.3878 12.9754H16.4661L18.3913 1.07041H15.3132L13.3878 12.9754Z" fill="#00579F"/>
<path fill-rule="evenodd" clip-rule="evenodd" d="M35.5158 1.07041H33.1347C32.4005 1.07041 31.8426 1.28554 31.5258 2.05817L26.9535 12.9752H30.1834C30.1834 12.9752 30.7152 11.5059 30.8295 11.1894H34.7817C34.8701 11.6074 35.149 12.9752 35.149 12.9752H37.9991L35.5158 1.07041ZM31.716 8.75789C31.9696 8.07397 32.945 5.42697 32.945 5.42697C32.9399 5.43724 32.9801 5.32556 33.04 5.15958C33.1284 4.91463 33.2594 4.55139 33.35 4.2872L33.5652 5.31301C33.5652 5.31301 34.1481 8.16268 34.2747 8.75789H31.716Z" fill="#00579F"/>
<path d="M7.80212 9.18848L10.8167 1.07041H14.0717L9.23326 12.9628H5.97809L3.2168 2.55189C5.16741 3.5782 6.91535 5.64226 7.47269 7.54204L7.80212 9.18848Z" fill="#00579F"/>
<path d="M5.00329 1.07031H0.0506672L0 1.31086C3.86335 2.29879 6.42197 4.68016 7.4732 7.54245L6.39656 2.07104C6.21931 1.31069 5.67459 1.09539 5.00329 1.07031Z" fill="#FAA61A"/>
</svg>
