<svg width="72" height="40" viewBox="0 0 72 40" fill="none" xmlns="http://www.w3.org/2000/svg">
    <rect x="0.5" y="0.5" width="71" height="39" rx="15.5" fill="#110A1D"/>
    <path d="M41.864 13.8545C43.0548 13.8545 44.0178 14.1205 44.625 14.3613L44.2063 16.9321L43.9279 16.8057C43.3709 16.5649 42.6356 16.3244 41.6349 16.3498C40.4196 16.3498 39.8745 16.8688 39.8619 17.3755C39.8619 17.9328 40.5212 18.3001 41.5979 18.8448C43.3714 19.6934 44.194 20.7318 44.1818 22.087C44.1568 24.5568 42.0541 26.1527 38.8241 26.1527C37.4432 26.1399 36.113 25.848 35.391 25.5191L35.8218 22.8467L36.2271 23.0369C37.2279 23.4806 37.8864 23.6702 39.1154 23.6702C40.0016 23.6702 40.9518 23.3025 40.964 22.505C40.964 21.9857 40.5591 21.6054 39.3682 21.0228C38.203 20.4527 36.6451 19.503 36.6704 17.7931C36.6835 15.4755 38.8241 13.8545 41.864 13.8545Z" fill="#00579F"/>
    <path d="M30.3878 25.9753H33.4661L35.3913 14.0703H32.3132L30.3878 25.9753Z" fill="#00579F"/>
    <path fill-rule="evenodd" clip-rule="evenodd" d="M52.5158 14.0703H50.1347C49.4005 14.0703 48.8426 14.2854 48.5258 15.0581L43.9535 25.9751H47.1834C47.1834 25.9751 47.7152 24.5058 47.8295 24.1893H51.7817C51.8701 24.6073 52.149 25.9751 52.149 25.9751H54.9991L52.5158 14.0703ZM48.716 21.7578C48.9696 21.0738 49.945 18.4268 49.945 18.4268C49.9399 18.4371 49.9801 18.3254 50.04 18.1595C50.1284 17.9145 50.2594 17.5513 50.35 17.2871L50.5652 18.3129C50.5652 18.3129 51.1481 21.1626 51.2747 21.7578H48.716Z" fill="#00579F"/>
    <path d="M24.8021 22.1884L27.8167 14.0703H31.0717L26.2333 25.9627H22.9781L20.2168 15.5518C22.1674 16.5781 23.9154 18.6421 24.4727 20.5419L24.8021 22.1884Z" fill="#00579F"/>
    <path d="M22.0033 14.0703H17.0507L17 14.3109C20.8634 15.2988 23.422 17.6802 24.4732 20.5424L23.3966 15.071C23.2193 14.3107 22.6746 14.0954 22.0033 14.0703Z" fill="#FAA61A"/>
    <rect x="0.5" y="0.5" width="71" height="39" rx="15.5" stroke="url(#paint0_linear_1429_7875)"/>
    <defs>
        <linearGradient id="paint0_linear_1429_7875" x1="0" y1="0" x2="74.8062" y2="33.7869" gradientUnits="userSpaceOnUse">
            <stop stop-color="white" stop-opacity="0.24"/>
            <stop offset="1" stop-color="white" stop-opacity="0.14"/>
        </linearGradient>
    </defs>
</svg>
