<svg width="66" height="19" viewBox="0 0 66 19" fill="none" xmlns="http://www.w3.org/2000/svg">
<path d="M18.9558 0.0983276H22.0228L15.6206 6.56758C13.3078 8.91394 9.55359 8.91394 7.24075 6.56758L0.855297 0.0983276H3.92232L8.78264 5.00893C10.224 6.46702 12.5871 6.48378 14.0452 5.05921C14.062 5.04245 14.0787 5.02569 14.0955 5.00893L18.9558 0.0983276ZM3.90556 18.0815H0.821777L7.25751 11.5787C9.57035 9.23237 13.3245 9.23237 15.6374 11.5787L22.0731 18.0815H19.0061L14.1122 13.1374C12.6709 11.6793 10.3078 11.6625 8.84968 13.0871C8.83292 13.1039 8.81616 13.1206 8.7994 13.1374L3.90556 18.0815Z" fill="white"/>
<path d="M59.4463 0.0983276C60.234 0.115087 60.9714 0.265925 61.6586 0.5676C62.3625 0.835756 62.9658 1.22123 63.4854 1.72402C64.0049 2.21005 64.4239 2.79664 64.7256 3.45027C65.0273 4.1039 65.1781 4.79105 65.1781 5.52848C65.1781 6.26591 65.0273 6.98657 64.7088 7.65696C64.4072 8.31059 63.9882 8.88042 63.4519 9.38321C62.9323 9.86924 62.2954 10.2547 61.5915 10.5564C60.8876 10.8413 60.1334 10.9754 59.329 10.9754H52.6251V18.0145H50.262V0.0983276H59.4463ZM59.3122 8.81338C59.7815 8.81338 60.234 8.72958 60.653 8.56199C61.0887 8.39439 61.4575 8.15975 61.7759 7.85808C62.0943 7.5564 62.3457 7.20445 62.5301 6.81898C62.7144 6.41674 62.7982 5.99775 62.7982 5.54524C62.7982 5.10948 62.7144 4.69049 62.5301 4.28826C62.3457 3.88602 62.0943 3.53407 61.7759 3.24916C61.4575 2.94748 61.0887 2.71284 60.653 2.54525C60.234 2.37765 59.7815 2.29385 59.3122 2.29385H52.6083V8.83014H59.3122V8.81338Z" fill="white"/>
<path d="M33.1178 11.0256C34.3077 11.0256 35.4139 11.5284 36.1681 12.3832L41.0452 18.0312H44.0787L37.4083 10.2044C36.6709 9.33291 35.548 8.83012 34.3413 8.83012H29.7323V2.31059H36.4362C36.9055 2.31059 37.358 2.39438 37.777 2.56198C38.2128 2.72958 38.5815 2.96422 38.8999 3.26589C39.2183 3.55081 39.4697 3.886 39.6541 4.28823C39.8385 4.69046 39.9223 5.10946 39.9223 5.56197C39.9223 6.01448 39.8217 6.43348 39.6541 6.83571C39.5368 7.07034 39.4027 7.28822 39.2519 7.48934L40.7938 9.19883C40.8105 9.18207 40.8273 9.14855 40.844 9.13179C41.2965 8.64576 41.6485 8.09269 41.8999 7.48934C42.1681 6.88599 42.3021 6.23236 42.3021 5.54521C42.3021 4.80778 42.1513 4.12064 41.8496 3.46701C41.5479 2.79662 41.1457 2.22679 40.6094 1.724C40.0898 1.23796 39.4697 0.85249 38.7826 0.550816C38.0954 0.249141 37.358 0.0983027 36.5703 0.081543H28.5592C28.2407 0.081543 27.9558 0.198861 27.7212 0.416737C27.5033 0.617854 27.386 0.886009 27.386 1.17092V17.9809H29.7491V10.9921H33.1178V11.0256Z" fill="white"/>
</svg>
