<svg width="320" height="141" viewBox="0 0 320 141" fill="none" xmlns="http://www.w3.org/2000/svg">
    <g opacity="0.2">
        <mask id="mask0_610_12473" style="mask-type:alpha" maskUnits="userSpaceOnUse" x="0" y="0" width="320" height="141">
            <rect width="320" height="141" fill="url(#paint0_linear_610_12473)"/>
        </mask>
        <g mask="url(#mask0_610_12473)">
            <path fill-rule="evenodd" clip-rule="evenodd" d="M34.4516 61.0737C28.9849 66.5356 28.9849 75.4218 34.4516 80.8837C39.9184 86.3456 48.8125 86.3456 54.2793 80.8837C59.746 75.4218 59.746 66.5356 54.2793 61.0737C48.8125 55.6118 39.9184 55.6118 34.4516 61.0737ZM35.1137 61.7339C40.2149 56.6359 48.516 56.6359 53.6185 61.7339C58.721 66.8305 58.721 75.1243 53.6185 80.2222C48.5174 85.3202 40.2162 85.3202 35.1137 80.2222C30.0112 75.1256 30.0112 66.8318 35.1137 61.7339ZM55.71 70.9787C55.71 77.2386 50.6309 82.3132 44.3655 82.3132C38.1 82.3132 33.0209 77.2386 33.0209 70.9787C33.0209 64.7188 38.1 59.6442 44.3655 59.6442C50.6309 59.6442 55.71 64.7188 55.71 70.9787ZM49.6004 67.8218L48.8907 68.5305V68.5323C49.7322 69.5426 50.2381 70.8372 50.2381 72.2492C50.2381 75.4452 47.6329 78.0466 44.4323 78.0466C41.2317 78.0466 38.6266 75.4452 38.6266 72.2492C38.6266 70.8354 39.1325 69.5426 39.9757 68.5305L39.266 67.8218C39.0622 67.6184 39.0622 67.2886 39.266 67.0851C39.4698 66.8816 39.8 66.8816 40.0038 67.0851L40.7135 67.7938C41.5953 67.0588 42.7003 66.5746 43.9106 66.4712V65.9923H43.431C43.0077 65.9923 42.6581 65.6432 42.6581 65.2205V64.817C42.6581 64.389 43.0077 64.0452 43.431 64.0452H45.4354C45.8587 64.0452 46.2083 64.389 46.2083 64.817V65.2205C46.2083 65.6432 45.8587 65.9923 45.4354 65.9923H44.9558V66.4712C46.1644 66.5764 47.2711 67.0605 48.1529 67.7938L48.8626 67.0851C49.0664 66.8816 49.3966 66.8816 49.6004 67.0851C49.8042 67.2886 49.8042 67.6184 49.6004 67.8218ZM40.1513 72.2492C40.1513 74.6033 42.0696 76.5188 44.4323 76.5188C46.795 76.5188 48.7133 74.6085 48.7133 72.2492C48.7133 69.8899 46.795 67.9744 44.4323 67.9744C42.0696 67.9744 40.1513 69.8952 40.1513 72.2492ZM40.9067 72.2387C40.9067 70.2934 42.486 68.7182 44.4324 68.7182C46.3805 68.7182 47.958 70.2934 47.958 72.2387C47.958 74.184 46.3805 75.7592 44.4324 75.7592C42.4842 75.7592 40.9067 74.184 40.9067 72.2387ZM44.0002 72.6685V74.8243L46.1592 71.8072H44.8645V69.6514L42.7056 72.6685H44.0002Z" fill="#9DADF2"/>
            <path fill-rule="evenodd" clip-rule="evenodd" d="M-13.7715 60.7724C-19.2383 66.2343 -19.2383 75.1205 -13.7715 80.5824C-8.30475 86.0443 0.589378 86.0443 6.05614 80.5824C11.5229 75.1205 11.5229 66.2343 6.05614 60.7724C0.589378 55.3106 -8.30475 55.3106 -13.7715 60.7724ZM3.19993 59.6659C3.97847 60.1643 4.71534 60.7532 5.39538 61.4326C6.07553 62.112 6.66501 62.8481 7.16383 63.626L5.89863 64.89C4.92941 63.2626 3.56384 61.8982 1.93491 60.9298L3.19993 59.6659ZM2.36864 59.1764C-1.50255 57.0866 -6.21318 57.0867 -10.0838 59.1767L-8.79127 60.468C-7.29955 59.7471 -5.62585 59.343 -3.85768 59.343C-2.08951 59.343 -0.415815 59.7471 1.0759 60.468L2.36864 59.1764ZM-10.915 59.6663C-11.6932 60.1645 -12.4297 60.7533 -13.1094 61.4326C-13.7897 62.1123 -14.3793 62.8488 -14.8782 63.6269L-13.614 64.89C-12.6448 63.2626 -11.2792 61.8982 -9.65028 60.9298L-10.915 59.6663ZM-15.3681 64.4575C-17.4591 68.3248 -17.459 73.0304 -15.3678 76.8971L-14.0762 75.6066C-14.7978 74.1162 -15.2023 72.444 -15.2023 70.6774C-15.2023 68.9108 -14.7978 67.2387 -14.0762 65.7483L-15.3681 64.4575ZM-14.8779 77.7276C-14.379 78.5054 -13.7896 79.2416 -13.1094 79.9209C-12.4294 80.6004 -11.6925 81.1893 -10.9139 81.6876L-9.65024 80.4251C-11.2792 79.4567 -12.6448 78.0923 -13.614 76.4649L-14.8779 77.7276ZM-10.0827 82.1771C-6.21206 84.2666 -1.50228 84.2668 2.36796 82.1778L1.07586 80.8869C-0.415844 81.6078 -2.08952 82.0119 -3.85768 82.0119C-5.62584 82.0119 -7.29952 81.6078 -8.79123 80.8869L-10.0827 82.1771ZM3.19927 81.6883C3.97809 81.1898 4.71519 80.6007 5.39538 79.9209C6.0752 79.2417 6.66444 78.5058 7.16311 77.7282L5.89861 76.4649C4.92939 78.0923 3.56381 79.4567 1.93488 80.4251L3.19927 81.6883ZM7.65312 76.8977C9.74506 73.0301 9.74529 68.3237 7.65381 64.4565L6.36086 65.7483C7.08239 67.2387 7.4869 68.9108 7.4869 70.6774C7.4869 72.444 7.08238 74.1162 6.36084 75.6066L7.65312 76.8977ZM-1.34305 66.3314C-1.80172 65.5576 -2.14038 64.7213 -2.35105 63.8452C-2.36038 63.8066 -2.39238 63.7761 -2.43105 63.7681C-3.40838 63.558 -4.44172 63.558 -5.41772 63.7681C-5.45772 63.7761 -5.48972 63.8066 -5.49905 63.8452C-5.70972 64.7213 -6.04838 65.5576 -6.50705 66.3314C-6.52839 66.3673 -6.52572 66.4112 -6.50172 66.4457L-5.68305 67.5691C-5.65905 67.6024 -5.61772 67.6197 -5.57906 67.6104C-4.49772 67.3937 -3.35638 67.3937 -2.27505 67.6104C-2.23505 67.6183 -2.19505 67.6024 -2.17105 67.5691L-1.35238 66.4457C-1.32838 66.4125 -1.32572 66.3673 -1.34705 66.3314H-1.34305ZM-9.33104 66.1426C-8.57504 65.2359 -7.60304 64.5299 -6.51637 64.1005H-6.51504C-6.50037 64.0952 -6.48704 64.0925 -6.47504 64.0925C-6.43771 64.0925 -6.41238 64.1138 -6.40304 64.1218C-6.38838 64.1351 -6.35771 64.1736 -6.37504 64.2295C-6.57637 64.8663 -6.85371 65.4779 -7.20037 66.0469C-7.21371 66.0695 -7.23771 66.0868 -7.26437 66.0934C-7.91237 66.2463 -8.57904 66.3221 -9.24971 66.3141C-9.31104 66.3141 -9.33771 66.2676 -9.34438 66.253C-9.35371 66.2344 -9.36837 66.1878 -9.33104 66.1426ZM-1.57905 68.1209C-1.05372 69.0981 -0.71105 70.151 -0.55905 71.2492C-0.553717 71.2878 -0.525719 71.321 -0.487053 71.333L0.844948 71.7651C0.884947 71.7784 0.927616 71.7651 0.955616 71.7358C1.55162 71.0631 2.24362 70.4834 3.01429 70.0128C3.04762 69.9915 3.06762 69.9529 3.06362 69.913C2.96362 68.9026 2.65429 67.9494 2.14229 67.0785C2.12229 67.044 2.08362 67.0227 2.04362 67.0267C1.14362 67.0985 0.239613 67.0347 -0.639055 66.8392L-0.641979 66.8387C-0.648731 66.8376 -0.654713 66.8366 -0.661718 66.8366C-0.695053 66.8366 -0.725719 66.8525 -0.74572 66.8804L-1.56972 68.0105C-1.59372 68.0424 -1.59639 68.0863 -1.57772 68.1209H-1.57905ZM-7.20837 66.8407C-8.08837 67.0361 -8.99104 67.0986 -9.89104 67.0281H-9.89904C-9.93504 67.0281 -9.97104 67.0481 -9.9897 67.0813C-10.5017 67.9522 -10.811 68.9054 -10.911 69.9158C-10.915 69.9557 -10.8964 69.9956 -10.8617 70.0156C-10.091 70.4862 -9.39904 71.0645 -8.80304 71.7386C-8.77504 71.7692 -8.73237 71.7811 -8.69237 71.7678L-7.36037 71.3358C-7.3217 71.3238 -7.29371 71.2906 -7.28837 71.252C-7.13637 70.1538 -6.7937 69.1009 -6.26837 68.1237C-6.2497 68.0891 -6.25237 68.0452 -6.27637 68.0133L-7.10037 66.8832C-7.12437 66.85 -7.16703 66.834 -7.20704 66.842L-7.20837 66.8407ZM-1.30838 71.5127C-1.28971 71.4914 -1.28038 71.4621 -1.28438 71.4329C-1.42038 70.3666 -1.75238 69.3482 -2.26971 68.4056C-2.28438 68.379 -2.30838 68.3604 -2.33771 68.3551C-2.85638 68.2447 -3.38971 68.1902 -3.92304 68.1902C-4.45638 68.1902 -4.98971 68.2447 -5.50838 68.3551C-5.53771 68.3617 -5.56305 68.3803 -5.57638 68.4056C-6.09372 69.3482 -6.42572 70.3666 -6.56172 71.4329C-6.56572 71.4621 -6.55639 71.4914 -6.53772 71.5127C-5.83638 72.317 -4.94572 72.9605 -3.96172 73.3753C-3.93638 73.3859 -3.90704 73.3859 -3.88171 73.3753C-2.89771 72.9605 -2.00705 72.317 -1.30571 71.5127H-1.30838ZM-2.1057 77.3146C-2.1097 77.3346 -2.12436 77.3811 -2.18169 77.3957H-2.18302C-3.32303 77.6842 -4.52703 77.6842 -5.66703 77.3957C-5.72436 77.3811 -5.73903 77.3346 -5.74303 77.3146C-5.74703 77.2947 -5.75103 77.2455 -5.70303 77.2096C-5.16436 76.8108 -4.57902 76.4797 -3.96436 76.2231C-3.93902 76.2125 -3.90969 76.2125 -3.88436 76.2231C-3.26836 76.4797 -2.68436 76.8121 -2.14569 77.2096C-2.09769 77.2455 -2.1017 77.2947 -2.1057 77.3146ZM-8.46304 72.4709C-8.50304 72.4842 -8.53104 72.5188 -8.53504 72.56C-8.62037 73.4534 -8.83904 74.3282 -9.18437 75.1605C-9.19904 75.1964 -9.19237 75.2403 -9.16437 75.2709C-8.48437 76.03 -7.67237 76.6203 -6.7497 77.0245C-6.71237 77.0404 -6.66971 77.0351 -6.63904 77.0085C-5.95237 76.4222 -5.18436 75.9436 -4.35636 75.5859C-4.3177 75.57 -4.2937 75.5314 -4.2937 75.4902V74.1089C-4.2937 74.0676 -4.3177 74.0304 -4.35504 74.0131C-5.36837 73.5677 -6.29503 72.8977 -7.03237 72.0734C-7.05237 72.0508 -7.08037 72.0388 -7.1097 72.0388C-7.12037 72.0388 -7.13104 72.0401 -7.14304 72.0441L-8.46171 72.4709H-8.46304ZM-3.55237 74.1088C-3.55237 74.0676 -3.52837 74.029 -3.49104 74.0131L-3.48838 74.0144C-2.47504 73.569 -1.54837 72.899 -0.811039 72.0747C-0.791039 72.0521 -0.763037 72.0401 -0.733704 72.0401C-0.723036 72.0401 -0.71237 72.0414 -0.701704 72.0454L0.616966 72.4722C0.656967 72.4855 0.684963 72.5201 0.688963 72.5613C0.774298 73.4547 0.992964 74.3295 1.3383 75.1605C1.35296 75.1977 1.34497 75.2402 1.3183 75.2708C0.636967 76.03 -0.175039 76.6203 -1.09637 77.0244C-1.13371 77.0404 -1.17637 77.0337 -1.20704 77.0085C-1.89504 76.4222 -2.6617 75.9435 -3.4897 75.5859C-3.52837 75.57 -3.55237 75.5314 -3.55237 75.4902V74.1088ZM-1.37237 64.0925C-1.36037 64.0925 -1.34703 64.0952 -1.33236 64.1005H-1.33102C-0.244356 64.5299 0.728975 65.2359 1.48364 66.1426C1.52098 66.1878 1.50497 66.2344 1.49697 66.253C1.49031 66.2676 1.46364 66.3141 1.40231 66.3141C0.731644 66.3221 0.0649738 66.2463 -0.583027 66.0934C-0.609694 66.0868 -0.632364 66.0708 -0.647032 66.0469C-0.993698 65.4792 -1.27103 64.8676 -1.47237 64.2295C-1.49103 64.1723 -1.45903 64.1351 -1.44436 64.1218C-1.43636 64.1138 -1.4097 64.0925 -1.37237 64.0925ZM-9.75638 74.407C-9.73638 74.4044 -9.68838 74.3924 -9.66971 74.3365C-9.45638 73.7037 -9.32038 73.0469 -9.26571 72.3835C-9.26304 72.3569 -9.27238 72.329 -9.28971 72.3077C-9.72438 71.8038 -10.2204 71.3531 -10.7657 70.9649C-10.8137 70.9303 -10.8604 70.949 -10.8777 70.9596C-10.895 70.9689 -10.935 70.9981 -10.931 71.0566C-10.8577 72.2306 -10.4857 73.3727 -9.85638 74.3591C-9.82438 74.4097 -9.77505 74.4083 -9.75505 74.407H-9.75638ZM2.91696 70.9649C2.9383 70.9503 2.95963 70.945 2.97696 70.945V70.9463C2.99963 70.9463 3.01962 70.9543 3.02896 70.9596C3.04629 70.9689 3.0863 70.9981 3.0823 71.0566C3.00896 72.2306 2.63696 73.3726 2.00763 74.3591C1.97563 74.4097 1.92629 74.4083 1.90629 74.407C1.88629 74.4043 1.83829 74.3924 1.81962 74.3365C1.60762 73.7037 1.47163 73.0456 1.41696 72.3835C1.4143 72.3556 1.42363 72.329 1.44096 72.3077C1.87563 71.8038 2.37163 71.3518 2.91696 70.9649Z" fill="white"/>
            <path fill-rule="evenodd" clip-rule="evenodd" d="M130.897 12.5923C125.431 18.0542 125.431 26.9404 130.897 32.4023C136.364 37.8642 145.258 37.8642 150.725 32.4023C156.192 26.9404 156.192 18.0542 150.725 12.5923C145.258 7.13044 136.364 7.13044 130.897 12.5923ZM141.345 9.43981C144.516 9.56798 147.649 10.8389 150.064 13.2525C152.514 15.6996 153.788 18.8837 153.885 22.0973H152.149C151.944 16.2 147.23 11.4476 141.345 11.1752V9.43981ZM140.411 9.4351C137.195 9.53263 134.008 10.8051 131.56 13.2525C129.11 15.7 127.836 18.884 127.739 22.0973H129.474C129.68 16.1555 134.464 11.3759 140.411 11.1698V9.4351ZM127.743 23.0307C127.872 26.1984 129.144 29.3279 131.56 31.7408C134.009 34.188 137.195 35.4604 140.411 35.5582V33.8249C134.508 33.6203 129.752 28.9105 129.479 23.0307H127.743ZM141.345 35.5535C144.516 35.4256 147.649 34.1547 150.064 31.7408C152.48 29.3276 153.752 26.1981 153.88 23.0307H152.144C151.873 28.8661 147.186 33.5491 141.345 33.8195V35.5535ZM138.731 18.6257L138.545 18.611L138.544 18.6096L138.6 18.4303C139.144 16.6624 140.022 15.5636 140.878 15.5636C141.735 15.5636 142.606 16.657 143.153 18.4182L143.209 18.5962L143.024 18.6123C142.3 18.6752 141.553 18.7073 140.8 18.7073C140.103 18.7073 139.407 18.6806 138.731 18.6257ZM138.347 25.7161C138.17 24.893 138.066 23.999 138.038 23.0622H138.04L138.034 22.9069H143.724L143.72 23.0608C143.693 24.0003 143.588 24.897 143.41 25.7294L143.382 25.8593L143.25 25.8472C141.71 25.704 140.056 25.6987 138.507 25.8338L138.375 25.8459L138.347 25.7161ZM143.445 17.2379C143.601 17.6019 143.741 17.9913 143.858 18.3982L143.894 18.5213L144.02 18.5052C144.727 18.4129 145.409 18.2898 146.049 18.1372L146.293 18.0797L146.128 17.8923C145.272 16.9207 144.173 16.206 142.95 15.8246L142.52 15.6908L142.785 16.0561C143.025 16.3894 143.248 16.7868 143.445 17.2392V17.2379ZM144.095 19.3497L144.062 19.1918L144.063 19.1905L144.221 19.169C145.069 19.0553 145.877 18.896 146.624 18.6993L146.729 18.6712L146.787 18.7635C147.417 19.7525 147.793 20.8914 147.874 22.0598L147.885 22.2204H144.405L144.401 22.0745C144.376 21.1243 144.272 20.2076 144.095 19.3497ZM137.734 18.524L137.86 18.54L137.896 18.4169C138.02 17.9913 138.161 17.5938 138.316 17.2379C138.512 16.7855 138.734 16.3867 138.976 16.0548L139.244 15.6881L138.813 15.8219C137.574 16.2074 136.465 16.9327 135.607 17.9204L135.442 18.1091L135.685 18.1653C136.333 18.3139 137.024 18.4343 137.735 18.5226L137.734 18.524ZM143.409 19.3979C143.588 20.2303 143.692 21.1283 143.718 22.0665H143.717L143.721 22.2204H138.032L138.037 22.0651C138.065 21.1283 138.169 20.2357 138.346 19.4113L138.374 19.2815L138.505 19.2935C140.054 19.43 141.71 19.4247 143.249 19.2801L143.381 19.2681L143.409 19.3979ZM144.02 26.6234L143.894 26.6074L143.858 26.7305C143.74 27.136 143.601 27.5268 143.445 27.8895C143.248 28.3432 143.025 28.7406 142.785 29.0739L142.52 29.4392L142.95 29.3054C144.173 28.924 145.272 28.2093 146.128 27.2377L146.293 27.0504L146.049 26.9928C145.409 26.8402 144.727 26.7158 144.02 26.6248V26.6234ZM143.024 26.5164L143.209 26.5324H143.21L143.154 26.7104C142.608 28.4716 141.74 29.565 140.88 29.565C140.019 29.565 139.147 28.4663 138.601 26.697L138.545 26.5177L138.732 26.503C140.136 26.3906 141.633 26.3946 143.024 26.5164ZM144.401 23.0528C144.376 24.003 144.272 24.9211 144.095 25.779L144.062 25.9369L144.22 25.9583C145.067 26.0734 145.875 26.2313 146.622 26.428L146.727 26.4561L146.786 26.3638C147.415 25.3748 147.792 24.2359 147.873 23.0675L147.883 22.9069H144.404L144.4 23.0528H144.401ZM137.895 26.7118C138.019 27.1373 138.16 27.5335 138.315 27.8895H138.314C138.509 28.3418 138.732 28.7406 138.974 29.0725L139.241 29.4392L138.81 29.3054C137.572 28.92 136.463 28.1946 135.604 27.2069L135.439 27.0182L135.683 26.962C136.33 26.8121 137.021 26.693 137.733 26.6047L137.859 26.5886L137.895 26.7118ZM137.357 22.0759C137.383 21.139 137.485 20.2276 137.661 19.3698L137.693 19.2105L137.533 19.1905C136.682 19.0807 135.868 18.9281 135.113 18.7354L135.008 18.7087L134.95 18.801C134.334 19.7793 133.965 20.9062 133.883 22.0611L133.871 22.2217H137.351L137.355 22.0759H137.357ZM137.662 25.7589L137.694 25.9181H137.697L137.537 25.9382C136.684 26.048 135.87 26.2005 135.117 26.3932L135.012 26.42L134.954 26.3277C134.338 25.3507 133.968 24.2225 133.887 23.0675L133.875 22.9069H137.355L137.359 23.0528C137.384 23.991 137.486 24.901 137.662 25.7589Z" fill="#9DADF2"/>
            <path fill-rule="evenodd" clip-rule="evenodd" d="M82.6748 12.5923C77.208 18.0542 77.208 26.9404 82.6748 32.4023C88.1415 37.8642 97.0357 37.8642 102.502 32.4023C107.969 26.9404 107.969 18.0542 102.502 12.5923C97.0357 7.13044 88.1415 7.13044 82.6748 12.5923ZM96.3256 9.96948C98.3461 10.5675 100.25 11.6618 101.842 13.2525C103.434 14.8429 104.529 16.7447 105.128 18.7636H103.303C102.167 15.5073 99.5849 12.9278 96.3256 11.7922V9.96948ZM95.3914 9.72998C93.5464 9.32868 91.6307 9.32871 89.7858 9.73007V11.5114C90.6823 11.2838 91.6213 11.1628 92.5886 11.1628C93.5559 11.1628 94.495 11.2838 95.3914 11.5114V9.72998ZM88.8516 9.96961C86.8314 10.5677 84.9284 11.662 83.3368 13.2525C81.7448 14.8431 80.6495 16.7449 80.0509 18.7636H81.8739C83.0106 15.5073 85.5923 12.9278 88.8516 11.7922V9.96961ZM79.8112 19.697C79.4095 21.5404 79.4096 23.4543 79.8113 25.2976H81.5929C81.3651 24.402 81.244 23.4638 81.244 22.4973C81.244 21.5309 81.3651 20.5927 81.5929 19.697H79.8112ZM80.0511 26.231C80.6496 28.2494 81.7449 30.1507 83.3368 31.7408C84.9286 33.3311 86.8316 34.4253 88.8516 35.0234V33.2024C85.5923 32.0668 83.0106 29.4874 81.8739 26.231H80.0511ZM89.7858 35.263C91.6308 35.6645 93.5464 35.6647 95.3914 35.2635V33.4832C94.495 33.7108 93.5559 33.8318 92.5886 33.8318C91.6213 33.8318 90.6823 33.7108 89.7858 33.4832V35.263ZM96.3256 35.0241C98.3463 34.4261 100.25 33.3317 101.842 31.7408C103.433 30.1505 104.529 28.2492 105.127 26.231H103.303C102.167 29.4874 99.5849 32.0668 96.3256 33.2024V35.0241ZM105.367 25.2976C105.769 23.4543 105.769 21.5403 105.368 19.697H103.584C103.812 20.5927 103.933 21.5309 103.933 22.4973C103.933 23.4638 103.812 24.402 103.584 25.2976H105.367ZM88.4601 25.3335C88.575 25.652 88.8773 25.8643 89.214 25.8617V25.8604L95.9947 25.8152C96.3314 25.8126 96.6324 25.5976 96.742 25.2778L97.9434 21.8073C98.02 21.8498 98.1019 21.8829 98.1864 21.9095C98.3171 21.9493 98.4517 21.9679 98.589 21.9679L98.6735 21.9652C99.3825 21.9161 99.9344 21.3162 99.9291 20.6022C99.9251 19.8537 99.3152 19.2486 98.5706 19.2539C97.888 19.2579 97.315 19.7754 97.2384 20.4576C97.2331 20.5107 97.2305 20.5651 97.2305 20.6195C97.2305 20.7403 97.2477 20.8597 97.2794 20.9738C97.3058 21.0681 97.3414 21.1583 97.3863 21.2446L94.9927 22.4483L93.0981 19.7648C93.176 19.7316 93.2513 19.6905 93.3212 19.6414C93.4546 19.5498 93.5708 19.4344 93.6658 19.299C93.8454 19.0402 93.9286 18.7363 93.9061 18.4191C93.8573 17.7489 93.3186 17.2114 92.6519 17.1663C92.6189 17.1636 92.5846 17.1636 92.5516 17.1636H92.5515C91.8069 17.1689 91.2049 17.7821 91.2102 18.5306C91.2115 18.8093 91.2986 19.0787 91.4597 19.307C91.5548 19.441 91.6723 19.5551 91.8069 19.6467C91.8782 19.6958 91.9535 19.7369 92.0314 19.7701L90.1698 22.4815L87.7366 21.2977C87.7841 21.2207 87.825 21.1397 87.8581 21.0548C87.9188 20.8995 87.9478 20.7336 87.9478 20.5611C87.9439 19.8126 87.3339 19.2074 86.5893 19.2127C85.8447 19.218 85.2427 19.8312 85.2479 20.5797C85.2519 21.2565 85.7575 21.8312 86.4243 21.9161C86.4837 21.9241 86.5444 21.9267 86.6065 21.9267C86.7134 21.9267 86.819 21.9135 86.9233 21.8869C87.0118 21.8644 87.0989 21.8338 87.1808 21.794L88.4601 25.3335ZM95.3359 21.6361C95.1564 21.6361 94.9861 21.5498 94.8831 21.4025L94.4963 20.8544C94.4065 20.7283 94.3748 20.5691 94.4065 20.4178C94.4382 20.2665 94.5332 20.1338 94.6666 20.0555L95.4019 19.6215C95.4851 19.5724 95.5802 19.5458 95.6766 19.5445C95.901 19.5432 96.103 19.6772 96.1901 19.8856L96.4674 20.5531C96.5783 20.8212 96.4634 21.1331 96.206 21.2632L95.5802 21.5777C95.5049 21.6149 95.4204 21.6361 95.3373 21.6361H95.3359ZM89.5718 21.6175C89.6483 21.6547 89.7328 21.6732 89.816 21.6732L89.8147 21.6719C89.9942 21.6719 90.1632 21.5817 90.2649 21.433L90.6557 20.8637C90.7428 20.7363 90.7732 20.577 90.7389 20.4257C90.7045 20.2744 90.6082 20.1431 90.4748 20.0674L89.7619 19.6586C89.6774 19.6095 89.5823 19.5857 89.4859 19.5857C89.2615 19.587 89.0622 19.7237 88.9777 19.9334L88.703 20.6208C88.5948 20.8902 88.7136 21.1995 88.9737 21.3269L89.5718 21.6175ZM88.7715 26.3769L96.4394 26.3258C96.7624 26.3237 97.026 26.5851 97.0281 26.9098L97.0299 27.1845C97.0321 27.5092 96.7719 27.7742 96.4489 27.7763L88.7811 27.8275C88.4581 27.8296 88.1945 27.5682 88.1924 27.2435L88.1906 26.9687C88.1884 26.6441 88.4485 26.3791 88.7715 26.3769Z" fill="#478BF9"/>
            <path fill-rule="evenodd" clip-rule="evenodd" d="M34.4516 12.5923C28.9849 18.0542 28.9849 26.9404 34.4516 32.4023C39.9184 37.8642 48.8125 37.8642 54.2793 32.4023C59.746 26.9404 59.746 18.0542 54.2793 12.5923C48.8125 7.13044 39.9184 7.13044 34.4516 12.5923ZM53.3365 12.9789C48.3094 8.24554 40.4206 8.24574 35.3951 12.9795L36.6264 14.2097C38.6532 12.3196 41.3742 11.1628 44.3655 11.1628C47.3568 11.1628 50.0777 12.3196 52.1046 14.2097L53.3365 12.9789ZM34.7382 13.6433C30.1028 18.67 30.1366 26.4741 34.8398 31.459L36.0705 30.2295C34.1786 28.2045 33.0209 25.486 33.0209 22.4973C33.0209 19.5619 34.1377 16.8871 35.97 14.874L34.7382 13.6433ZM35.5042 32.1154C40.4989 36.7137 48.2337 36.7139 53.2274 32.116L51.9956 30.8853C49.9806 32.7159 47.3035 33.8318 44.3655 33.8318C41.4275 33.8318 38.7503 32.7159 36.7354 30.8853L35.5042 32.1154ZM53.8917 31.4597C58.5958 26.4734 58.6297 18.6683 53.9934 13.6426L52.7609 14.874C54.5932 16.8871 55.71 19.5619 55.71 22.4973C55.71 25.486 54.5523 28.2045 52.6605 30.2295L53.8917 31.4597ZM48.9612 17.3223C47.8179 16.3064 46.3385 15.6576 44.7112 15.5636V17.6317C45.7693 17.7193 46.7334 18.1377 47.4982 18.7853L48.9612 17.3235V17.3223ZM40.515 19.3677L39.0519 17.906C38.0352 19.0483 37.3858 20.5264 37.2917 22.1522H39.3616C39.4494 21.0951 39.8681 20.1318 40.5163 19.3677H40.515ZM51.3057 22.1522H49.237C49.1493 21.0951 48.7293 20.1318 48.0824 19.3677L49.5455 17.906C50.5622 19.0496 51.2116 20.5264 51.3057 22.1522ZM39.3604 22.9764H37.2917C37.3858 24.6023 38.0352 26.0791 39.0519 27.2227L40.515 25.7609C39.8681 24.9969 39.4481 24.0336 39.3604 22.9764ZM43.8862 15.5636V17.6304C42.8281 17.7181 41.864 18.1377 41.0992 18.784L39.6362 17.3223C40.7808 16.3064 42.2589 15.6576 43.8862 15.5636ZM49.5442 27.2227C50.5609 26.0803 51.2104 24.6023 51.3044 22.9764H49.2345C49.1468 24.0336 48.728 24.9969 48.0799 25.7597L49.5442 27.2227ZM44.7112 29.565V27.4983C45.7693 27.4106 46.7334 26.991 47.4982 26.3446L48.9612 27.8064C47.8166 28.8223 46.3385 29.4711 44.7112 29.565ZM39.6362 27.8064C40.7795 28.8222 42.2589 29.4711 43.8862 29.565V27.497C42.8281 27.4093 41.864 26.991 41.0992 26.3434L39.6362 27.8052V27.8064ZM44.2987 18.3068C46.6519 18.3068 48.56 20.2132 48.56 22.5643C48.56 24.9154 46.6519 26.8219 44.2987 26.8219C41.9455 26.8219 40.0373 24.9154 40.0373 22.5643C40.0373 20.2132 41.9455 18.3068 44.2987 18.3068ZM45.8721 22.8412L46.2569 23.2257L46.2544 23.2307C46.5202 23.4963 46.9502 23.4963 47.216 23.2307L47.5219 22.9251C47.7877 22.6595 47.7877 22.2286 47.5219 21.9643L46.9565 21.3994C46.6907 21.1339 46.2607 21.1339 45.9949 21.3994L45.689 21.7051L45.3367 21.3531C45.0709 21.0875 44.6409 21.0875 44.3751 21.3531L44.0692 21.6587L43.7182 21.3042C43.4524 21.0387 43.0224 21.0387 42.7566 21.3042L40.8823 23.1769C40.8685 23.1906 40.8685 23.2144 40.8823 23.2282C41.1343 23.4787 41.5418 23.4787 41.7925 23.2282L42.9998 22.022C43.1302 21.8917 43.3421 21.8917 43.4725 22.022L43.5602 22.1096C43.5765 22.1259 43.5765 22.151 43.5602 22.1673L42.551 23.1756C42.5372 23.1894 42.5372 23.2132 42.551 23.227C42.803 23.4775 43.2105 23.4775 43.4612 23.227L44.6209 22.0683C44.7513 21.938 44.9631 21.938 45.0935 22.0683L45.1825 22.1572C45.1963 22.171 45.1963 22.1948 45.1825 22.2086L44.2109 23.1794C44.1971 23.1931 44.1971 23.2169 44.2109 23.2307C44.4629 23.4812 44.8704 23.4812 45.1211 23.2307L46.2406 22.1122C46.371 21.9819 46.5829 21.9819 46.7133 22.1122L46.9039 22.3025C46.9803 22.379 46.9803 22.5017 46.9039 22.5781L46.875 22.6082C46.7985 22.6846 46.6757 22.6846 46.5992 22.6082L46.3522 22.3614C46.3384 22.3476 46.3146 22.3476 46.3008 22.3614L45.8721 22.7898C45.8583 22.8036 45.8583 22.8274 45.8721 22.8412Z" fill="#7DDACF"/>
            <path fill-rule="evenodd" clip-rule="evenodd" d="M-13.771 12.5925C-19.2378 18.0543 -19.2378 26.9405 -13.771 32.4024C-8.30426 37.8643 0.589867 37.8643 6.05663 32.4024C11.5234 26.9405 11.5234 18.0543 6.05663 12.5925C0.589867 7.13056 -8.30426 7.13056 -13.771 12.5925ZM-3.32333 9.43993C-0.152645 9.56811 2.98011 10.839 5.39587 13.2526C7.84578 15.6997 9.11939 18.8838 9.2167 22.0974H7.48046C7.27571 16.2001 2.56174 11.4477 -3.32333 11.1753V9.43993ZM-4.25759 9.43522C-7.47358 9.53276 -10.66 10.8052 -13.109 13.2526C-15.5586 15.7001 -16.8322 18.8841 -16.9297 22.0974H-15.1948C-14.9886 16.1556 -10.2047 11.376 -4.25759 11.1699V9.43522ZM-16.925 23.0308C-16.7966 26.1985 -15.5246 29.3281 -13.109 31.7409C-10.6596 34.1881 -7.47326 35.4605 -4.25759 35.5583V33.825C-10.1601 33.6204 -14.9168 28.9106 -15.1894 23.0308H-16.925ZM-3.32333 35.5537C-0.152338 35.4257 2.98049 34.1548 5.39587 31.7409C7.8113 29.3277 9.08331 26.1982 9.21189 23.0308H7.47505C7.20448 28.8663 2.51731 33.5493 -3.32333 33.8196V35.5537ZM-7.99505 24.8921V24.0717H-6.34007V24.8921C-6.34007 25.3441 -5.9685 25.7125 -5.51259 25.7125H-4.6851V23.0719L-5.95994 22.7556C-7.15778 22.4587 -7.99505 21.396 -7.99505 20.172C-7.99505 18.7033 -6.78987 17.5084 -5.30846 17.5084H-4.6851V15.4302H-3.03012V17.5084H-2.20263C-0.833675 17.5084 0.279827 18.6124 0.279827 19.9696V20.79H-1.37514V19.9696C-1.37514 19.5176 -1.74672 19.1492 -2.20263 19.1492H-3.03012V21.7898L-1.75527 22.1061C-0.557434 22.403 0.279827 23.4658 0.279827 24.6897C0.279827 26.1584 -0.925344 27.3533 -2.40675 27.3533H-3.03012V29.4316H-4.6851V27.3533H-5.51259C-6.88155 27.3533 -7.99505 26.2493 -7.99505 24.8921ZM-2.15619 23.6984L-3.03012 23.4815V25.7125H-2.40675C-1.83717 25.7125 -1.37514 25.2532 -1.37514 24.6897C-1.37514 24.2195 -1.69538 23.8123 -2.15619 23.6984ZM-6.34007 20.172C-6.34007 20.6422 -6.01983 21.0494 -5.55903 21.1633L-4.6851 21.3802V19.1492H-5.30846C-5.87804 19.1492 -6.34007 19.6085 -6.34007 20.172Z" fill="#478BF9"/>
            <path d="M82.6748 80.5824C77.208 75.1205 77.208 66.2343 82.6748 60.7724C88.1415 55.3106 97.0357 55.3106 102.502 60.7724C107.969 66.2343 107.969 75.1205 102.502 80.5824C97.0357 86.0443 88.1415 86.0443 82.6748 80.5824ZM101.842 61.4326C96.7392 56.3347 88.438 56.3347 83.3369 61.4326C78.2344 66.5305 78.2344 74.8243 83.3369 79.9209C88.4393 85.0189 96.7405 85.0189 101.842 79.9209C106.944 74.823 106.944 66.5292 101.842 61.4326Z" fill="#7DDACF"/>
            <path fill-rule="evenodd" clip-rule="evenodd" d="M103.933 70.6775C103.933 76.9374 98.8542 82.012 92.5887 82.012C86.3233 82.012 81.2441 76.9374 81.2441 70.6775C81.2441 64.4177 86.3233 59.3431 92.5887 59.3431C98.8542 59.3431 103.933 64.4177 103.933 70.6775ZM92.5821 63.6222L98.0932 65.828C98.1544 65.8527 98.1944 65.9128 98.1944 65.9788V69.8946C98.2026 73.4348 95.9431 76.5333 92.5715 77.6039C92.5386 77.6145 92.5044 77.6145 92.4727 77.6039C89.1011 76.5333 86.8416 73.4348 86.8498 69.8946V65.9788C86.8498 65.9116 86.8898 65.8527 86.951 65.828L92.4621 63.6222C92.4809 63.6139 92.5021 63.6104 92.5221 63.6104C92.5421 63.6104 92.5633 63.6151 92.5821 63.6222ZM92.6174 76.7795C95.4912 75.7242 97.4247 72.9578 97.4306 69.8946V66.577C97.4306 66.4628 97.3624 66.3603 97.2553 66.3179L92.6257 64.4642C92.5586 64.4371 92.4856 64.4371 92.4185 64.4642L87.7889 66.3168C87.6818 66.3591 87.6136 66.4604 87.6136 66.5758V69.8946C87.6195 72.9566 89.553 75.7242 92.4268 76.7795C92.4574 76.7901 92.4903 76.796 92.5221 76.796C92.5539 76.796 92.5868 76.7912 92.6174 76.7795ZM96.8728 69.8946C96.8681 72.6811 95.1205 75.219 92.5233 76.2189C89.926 75.2202 88.1785 72.6811 88.1737 69.8946V66.7655L92.5233 65.0236L96.8728 66.7655V69.8946ZM94.6109 73.3924C94.0343 74.0401 93.307 74.5607 92.5068 74.8951C92.3656 74.9552 92.2985 75.1189 92.3585 75.2614C92.4032 75.3686 92.508 75.4322 92.6162 75.4322C92.6527 75.4322 92.6892 75.4251 92.7245 75.4098C93.6001 75.0435 94.3968 74.4735 95.0287 73.7634C95.1311 73.648 95.1205 73.4713 95.0052 73.3688C94.8899 73.2664 94.7133 73.277 94.6109 73.3924ZM89.3776 68.9065C89.5318 68.9065 89.6565 68.7817 89.6565 68.6274L89.6577 68.6286V67.6417L90.5839 67.2707H90.585C90.6545 67.2436 90.7086 67.1894 90.738 67.1211C90.7675 67.0516 90.7686 66.9763 90.7404 66.9068C90.7133 66.8373 90.6604 66.7831 90.5909 66.7537C90.5215 66.7242 90.4462 66.7231 90.3768 66.7513L89.2741 67.193C89.1682 67.2354 89.0987 67.3366 89.0987 67.4521V68.6274C89.0987 68.7817 89.2235 68.9065 89.3776 68.9065Z" fill="#7DDACF"/>
            <path fill-rule="evenodd" clip-rule="evenodd" d="M140.629 84.679C144.219 84.679 147.81 83.3135 150.543 80.5825C156.01 75.1206 156.01 66.2344 150.543 60.7726C147.81 58.0416 144.219 56.6761 140.629 56.6761L140.629 57.6106C143.98 57.6109 147.33 58.8854 149.881 61.434C154.983 66.5307 154.983 74.8244 149.881 79.9224C147.33 82.4713 143.98 83.7458 140.629 83.7458L140.629 84.679Z" fill="#7DDACF"/>
            <path d="M92.2378 56.6759L140.629 56.6759V57.6093L92.2378 57.6093V56.6759Z" fill="#7DDACF"/>
            <path d="M91.1123 83.7451H140.629V84.6785H91.1123V83.7451Z" fill="#7DDACF"/>
            <path fill-rule="evenodd" clip-rule="evenodd" d="M130.897 109.274C125.431 114.736 125.431 123.622 130.897 129.084C136.364 134.546 145.258 134.546 150.725 129.084C156.192 123.622 156.192 114.736 150.725 109.274C145.258 103.812 136.364 103.812 130.897 109.274ZM141.345 106.121C144.516 106.25 147.649 107.52 150.064 109.934C152.514 112.381 153.788 115.565 153.885 118.779H152.149C151.944 112.881 147.23 108.129 141.345 107.857V106.121ZM140.411 106.117C137.195 106.214 134.008 107.487 131.56 109.934C129.11 112.381 127.836 115.566 127.739 118.779H129.474C129.68 112.837 134.464 108.057 140.411 107.851V106.117ZM127.743 119.712C127.872 122.88 129.144 126.009 131.56 128.422C134.009 130.869 137.195 132.142 140.411 132.24V130.506C134.508 130.302 129.752 125.592 129.479 119.712H127.743ZM141.345 132.235C144.516 132.107 147.649 130.836 150.064 128.422C152.48 126.009 153.752 122.88 153.88 119.712H152.144C151.873 125.548 147.186 130.231 141.345 130.501V132.235ZM138.732 115.307L138.545 115.293L138.544 115.291L138.6 115.112C139.144 113.344 140.022 112.245 140.879 112.245C141.735 112.245 142.607 113.339 143.153 115.1L143.209 115.278L143.024 115.294C142.301 115.357 141.553 115.389 140.8 115.389C140.103 115.389 139.407 115.362 138.732 115.307ZM138.347 122.398C138.17 121.575 138.067 120.681 138.039 119.744H138.04L138.035 119.589H143.724L143.72 119.742C143.693 120.682 143.588 121.579 143.41 122.411L143.382 122.541L143.25 122.529C141.71 122.386 140.057 122.38 138.507 122.515L138.375 122.527L138.347 122.398ZM143.445 113.919C143.602 114.283 143.741 114.673 143.858 115.08L143.894 115.203L144.021 115.187C144.727 115.094 145.409 114.971 146.049 114.819L146.293 114.761L146.128 114.574C145.272 113.602 144.174 112.888 142.95 112.506L142.52 112.372L142.785 112.738C143.026 113.071 143.248 113.468 143.445 113.921V113.919ZM144.095 116.031L144.062 115.873L144.063 115.872L144.221 115.851C145.069 115.737 145.878 115.578 146.624 115.381L146.729 115.353L146.787 115.445C147.417 116.434 147.793 117.573 147.874 118.741L147.885 118.902H144.405L144.401 118.756C144.376 117.806 144.272 116.889 144.095 116.031ZM137.734 115.206L137.86 115.222L137.896 115.098C138.02 114.673 138.161 114.275 138.317 113.919C138.512 113.467 138.734 113.068 138.976 112.736L139.244 112.37L138.813 112.504C137.574 112.889 136.465 113.614 135.607 114.602L135.442 114.791L135.685 114.847C136.333 114.995 137.024 115.116 137.735 115.204L137.734 115.206ZM143.409 116.079C143.588 116.912 143.692 117.81 143.719 118.748H143.717L143.721 118.902H138.032L138.037 118.747C138.065 117.81 138.169 116.917 138.346 116.093L138.374 115.963L138.506 115.975C140.054 116.112 141.71 116.106 143.249 115.962L143.381 115.95L143.409 116.079ZM144.021 123.305L143.894 123.289L143.858 123.412C143.74 123.818 143.602 124.208 143.445 124.571C143.248 125.025 143.026 125.422 142.785 125.755L142.52 126.121L142.95 125.987C144.174 125.606 145.272 124.891 146.128 123.919L146.293 123.732L146.049 123.674C145.409 123.522 144.727 123.397 144.021 123.306V123.305ZM143.024 123.198L143.209 123.214H143.211L143.155 123.392C142.608 125.153 141.741 126.247 140.88 126.247C140.019 126.247 139.147 125.148 138.601 123.379L138.545 123.199L138.732 123.185C140.136 123.072 141.633 123.076 143.024 123.198ZM144.401 119.734C144.376 120.685 144.272 121.603 144.095 122.461L144.062 122.618L144.22 122.64C145.067 122.755 145.875 122.913 146.623 123.11L146.728 123.138L146.786 123.045C147.415 122.056 147.792 120.917 147.873 119.749L147.884 119.589H144.404L144.4 119.734H144.401ZM137.895 123.393C138.019 123.819 138.16 124.215 138.315 124.571H138.314C138.51 125.023 138.732 125.422 138.974 125.754L139.241 126.121L138.81 125.987C137.572 125.602 136.464 124.876 135.604 123.889L135.439 123.7L135.683 123.644C136.331 123.494 137.021 123.375 137.733 123.286L137.859 123.27L137.895 123.393ZM137.358 118.757C137.383 117.821 137.485 116.909 137.661 116.051L137.693 115.892L137.533 115.872C136.682 115.762 135.868 115.61 135.113 115.417L135.008 115.39L134.95 115.483C134.334 116.461 133.965 117.588 133.883 118.743L133.871 118.903H137.351L137.355 118.757H137.358ZM137.662 122.44L137.694 122.6H137.697L137.537 122.62C136.684 122.73 135.87 122.882 135.117 123.075L135.012 123.102L134.954 123.009C134.338 122.032 133.968 120.904 133.887 119.749L133.875 119.589H137.355L137.359 119.734C137.384 120.673 137.487 121.583 137.662 122.44Z" fill="#9DADF2"/>
            <path fill-rule="evenodd" clip-rule="evenodd" d="M82.7329 109.274C77.2661 114.736 77.2661 123.622 82.7329 129.084C88.1996 134.546 97.0938 134.546 102.561 129.084C108.027 123.622 108.027 114.736 102.561 109.274C97.0938 103.812 88.1996 103.812 82.7329 109.274ZM96.3837 106.651C98.4043 107.249 100.308 108.343 101.9 109.934C103.492 111.524 104.587 113.426 105.186 115.445H103.361C102.225 112.189 99.643 109.609 96.3837 108.474V106.651ZM95.4495 106.412C93.6045 106.01 91.6888 106.01 89.8439 106.412V108.193C90.7404 107.965 91.6794 107.844 92.6467 107.844C93.614 107.844 94.5531 107.965 95.4495 108.193V106.412ZM88.9097 106.651C86.8895 107.249 84.9865 108.343 83.395 109.934C81.8029 111.525 80.7076 113.426 80.109 115.445H81.932C83.0687 112.189 85.6504 109.609 88.9097 108.474V106.651ZM79.8693 116.379C79.4677 118.222 79.4677 120.136 79.8694 121.979H81.651C81.4232 121.083 81.3021 120.145 81.3021 119.179C81.3021 118.212 81.4232 117.274 81.651 116.379H79.8693ZM80.1092 122.913C80.7078 124.931 81.803 126.832 83.395 128.422C84.9867 130.013 86.8897 131.107 88.9097 131.705V129.884C85.6504 128.748 83.0687 126.169 81.932 122.913H80.1092ZM89.8439 131.945C91.6889 132.346 93.6046 132.346 95.4495 131.945V130.165C94.5531 130.392 93.614 130.513 92.6467 130.513C91.6794 130.513 90.7404 130.392 89.8439 130.165V131.945ZM96.3838 131.706C98.4044 131.108 100.308 130.013 101.9 128.422C103.491 126.832 104.587 124.931 105.185 122.913H103.361C102.225 126.169 99.643 128.748 96.3838 129.884V131.706ZM105.425 121.979C105.827 120.136 105.827 118.222 105.426 116.379H103.642C103.87 117.274 103.991 118.212 103.991 119.179C103.991 120.145 103.87 121.083 103.642 121.979H105.425ZM88.5183 122.015C88.6332 122.333 88.9355 122.546 89.2722 122.543V122.542L96.053 122.497C96.3897 122.494 96.6907 122.279 96.8003 121.959L98.0017 118.489C98.0783 118.531 98.1601 118.564 98.2446 118.591C98.3753 118.631 98.51 118.649 98.6473 118.649L98.7318 118.647C99.4408 118.597 99.9926 117.998 99.9873 117.284C99.9834 116.535 99.3734 115.93 98.6288 115.935C97.9462 115.939 97.3732 116.457 97.2967 117.139C97.2914 117.192 97.2888 117.246 97.2888 117.301C97.2888 117.422 97.3059 117.541 97.3376 117.655C97.364 117.749 97.3997 117.84 97.4445 117.926L95.0509 119.13L93.1564 116.446C93.2343 116.413 93.3095 116.372 93.3795 116.323C93.5128 116.231 93.629 116.116 93.7241 115.98C93.9036 115.722 93.9868 115.418 93.9644 115.1C93.9155 114.43 93.3769 113.893 92.7101 113.848C92.6771 113.845 92.6428 113.845 92.6099 113.845H92.6098C91.8652 113.85 91.2631 114.463 91.2684 115.212C91.2697 115.491 91.3569 115.76 91.5179 115.988C91.613 116.122 91.7305 116.237 91.8652 116.328C91.9365 116.377 92.0117 116.418 92.0896 116.452L90.2281 119.163L87.7948 117.979C87.8424 117.902 87.8833 117.821 87.9163 117.736C87.977 117.581 88.0061 117.415 88.0061 117.242C88.0021 116.494 87.3922 115.889 86.6475 115.894C85.9029 115.899 85.3009 116.513 85.3062 117.261C85.3101 117.938 85.8158 118.513 86.4825 118.597C86.5419 118.605 86.6027 118.608 86.6647 118.608C86.7716 118.608 86.8773 118.595 86.9816 118.568C87.07 118.546 87.1572 118.515 87.239 118.475L88.5183 122.015ZM95.3942 118.317C95.2146 118.317 95.0443 118.231 94.9413 118.084L94.5545 117.536C94.4647 117.41 94.4331 117.25 94.4647 117.099C94.4964 116.948 94.5915 116.815 94.7248 116.737L95.4602 116.303C95.5434 116.254 95.6384 116.227 95.7348 116.226C95.9593 116.225 96.1613 116.359 96.2484 116.567L96.5256 117.235C96.6365 117.503 96.5217 117.814 96.2642 117.945L95.6384 118.259C95.5632 118.296 95.4787 118.317 95.3955 118.317H95.3942ZM89.63 118.299C89.7066 118.336 89.7911 118.355 89.8743 118.355L89.8729 118.353C90.0525 118.353 90.2215 118.263 90.3231 118.114L90.7139 117.545C90.8011 117.418 90.8314 117.258 90.7971 117.107C90.7628 116.956 90.6664 116.824 90.5331 116.749L89.8201 116.34C89.7356 116.291 89.6406 116.267 89.5442 116.267C89.3198 116.268 89.1204 116.405 89.0359 116.615L88.7613 117.302C88.653 117.572 88.7718 117.881 89.0319 118.008L89.63 118.299ZM88.8298 123.058L96.4976 123.007C96.8206 123.005 97.0842 123.267 97.0864 123.591L97.0882 123.866C97.0903 124.191 96.8302 124.456 96.5072 124.458L88.8394 124.509C88.5164 124.511 88.2528 124.25 88.2506 123.925L88.2488 123.65C88.2467 123.325 88.5068 123.06 88.8298 123.058Z" fill="#478BF9"/>
            <path fill-rule="evenodd" clip-rule="evenodd" d="M34.4516 109.274C28.9849 114.736 28.9849 123.622 34.4516 129.084C39.9184 134.546 48.8125 134.546 54.2793 129.084C59.746 123.622 59.746 114.736 54.2793 109.274C48.8125 103.812 39.9184 103.812 34.4516 109.274ZM53.3365 109.66C48.3094 104.927 40.4206 104.927 35.3951 109.661L36.6264 110.891C38.6532 109.001 41.3742 107.844 44.3655 107.844C47.3568 107.844 50.0777 109.001 52.1046 110.891L53.3365 109.66ZM34.7382 110.325C30.1028 115.352 30.1366 123.156 34.8398 128.141L36.0705 126.911C34.1786 124.886 33.0209 122.167 33.0209 119.179C33.0209 116.243 34.1377 113.569 35.97 111.556L34.7382 110.325ZM35.5042 128.797C40.4989 133.395 48.2337 133.395 53.2274 128.798L51.9956 127.567C49.9806 129.397 47.3035 130.513 44.3655 130.513C41.4275 130.513 38.7503 129.397 36.7354 127.567L35.5042 128.797ZM53.8917 128.141C58.5958 123.155 58.6297 115.35 53.9934 110.324L52.7609 111.556C54.5932 113.569 55.71 116.243 55.71 119.179C55.71 122.167 54.5523 124.886 52.6605 126.911L53.8917 128.141ZM48.9612 114.004C47.8179 112.988 46.3385 112.339 44.7112 112.245V114.313C45.7693 114.401 46.7334 114.819 47.4982 115.467L48.9612 114.005V114.004ZM40.515 116.049L39.0519 114.588C38.0352 115.73 37.3858 117.208 37.2917 118.834H39.3616C39.4494 117.777 39.8681 116.813 40.5163 116.049H40.515ZM51.3057 118.834H49.237C49.1493 117.777 48.7293 116.813 48.0824 116.049L49.5455 114.588C50.5622 115.731 51.2116 117.208 51.3057 118.834ZM39.3604 119.658H37.2917C37.3858 121.284 38.0352 122.761 39.0519 123.904L40.515 122.443C39.8681 121.678 39.4481 120.715 39.3604 119.658ZM43.8862 112.245V114.312C42.8281 114.4 41.864 114.819 41.0992 115.466L39.6362 114.004C40.7808 112.988 42.2589 112.339 43.8862 112.245ZM49.5442 123.904C50.5609 122.762 51.2104 121.284 51.3044 119.658H49.2345C49.1468 120.715 48.728 121.678 48.0799 122.441L49.5442 123.904ZM44.7112 126.247V124.18C45.7693 124.092 46.7334 123.673 47.4982 123.026L48.9612 124.488C47.8166 125.504 46.3385 126.153 44.7112 126.247ZM39.6362 124.488C40.7795 125.504 42.2589 126.153 43.8862 126.247V124.179C42.8281 124.091 41.864 123.673 41.0992 123.025L39.6362 124.487V124.488ZM44.2987 114.988C46.6519 114.988 48.56 116.895 48.56 119.246C48.56 121.597 46.6519 123.503 44.2987 123.503C41.9455 123.503 40.0373 121.597 40.0373 119.246C40.0373 116.895 41.9455 114.988 44.2987 114.988ZM45.8721 119.523L46.2569 119.907L46.2544 119.912C46.5202 120.178 46.9502 120.178 47.216 119.912L47.5219 119.607C47.7877 119.341 47.7877 118.91 47.5219 118.646L46.9565 118.081C46.6907 117.815 46.2607 117.815 45.9949 118.081L45.689 118.387L45.3367 118.035C45.0709 117.769 44.6409 117.769 44.3751 118.035L44.0692 118.34L43.7182 117.986C43.4524 117.72 43.0224 117.72 42.7566 117.986L40.8823 119.858C40.8685 119.872 40.8685 119.896 40.8823 119.91C41.1343 120.16 41.5418 120.16 41.7925 119.91L42.9998 118.704C43.1302 118.573 43.3421 118.573 43.4725 118.704L43.5602 118.791C43.5765 118.808 43.5765 118.833 43.5602 118.849L42.551 119.857C42.5372 119.871 42.5372 119.895 42.551 119.909C42.803 120.159 43.2105 120.159 43.4612 119.909L44.6209 118.75C44.7513 118.62 44.9631 118.62 45.0935 118.75L45.1825 118.839C45.1963 118.853 45.1963 118.876 45.1825 118.89L44.2109 119.861C44.1971 119.875 44.1971 119.899 44.2109 119.912C44.4629 120.163 44.8704 120.163 45.1211 119.912L46.2406 118.794C46.371 118.663 46.5829 118.663 46.7133 118.794L46.9039 118.984C46.9803 119.061 46.9803 119.183 46.9039 119.26L46.875 119.29C46.7985 119.366 46.6757 119.366 46.5992 119.29L46.3522 119.043C46.3384 119.029 46.3146 119.029 46.3008 119.043L45.8721 119.471C45.8583 119.485 45.8583 119.509 45.8721 119.523Z" fill="white"/>
            <path fill-rule="evenodd" clip-rule="evenodd" d="M-13.771 109.274C-19.2378 114.736 -19.2378 123.622 -13.771 129.084C-8.30426 134.546 0.589867 134.546 6.05663 129.084C11.5234 123.622 11.5234 114.736 6.05663 109.274C0.589867 103.812 -8.30426 103.812 -13.771 109.274ZM-3.32333 106.121C-0.152643 106.25 2.98011 107.52 5.39587 109.934C7.84578 112.381 9.11939 115.565 9.2167 118.779H7.48045C7.27571 112.882 2.56174 108.129 -3.32333 107.857V106.121ZM-4.25759 106.117C-7.47358 106.214 -10.66 107.487 -13.109 109.934C-15.5586 112.382 -16.8322 115.566 -16.9297 118.779H-15.1948C-14.9886 112.837 -10.2047 108.057 -4.25759 107.851V106.117ZM-16.925 119.712C-16.7966 122.88 -15.5246 126.01 -13.109 128.422C-10.6596 130.87 -7.47326 132.142 -4.25759 132.24V130.506C-10.1601 130.302 -14.9168 125.592 -15.1894 119.712H-16.925ZM-3.32333 132.235C-0.152338 132.107 2.98049 130.836 5.39587 128.422C7.8113 126.009 9.08331 122.88 9.21189 119.712H7.47505C7.20448 125.548 2.51731 130.231 -3.32333 130.501V132.235ZM-7.99527 121.574V120.753H-6.34029V121.574C-6.34029 122.026 -5.96872 122.394 -5.51281 122.394H-4.68532V119.753L-5.96016 119.437C-7.158 119.14 -7.99527 118.077 -7.99527 116.854C-7.99527 115.385 -6.79009 114.19 -5.30868 114.19H-4.68532V112.112H-3.03035V114.19H-2.20286C-0.833899 114.19 0.279604 115.294 0.279604 116.651V117.472H-1.37537V116.651C-1.37537 116.199 -1.74694 115.831 -2.20286 115.831H-3.03035V118.471L-1.7555 118.788C-0.557657 119.085 0.279604 120.147 0.279604 121.371C0.279604 122.84 -0.925568 124.035 -2.40698 124.035H-3.03035V126.113H-4.68532V124.035H-5.51281C-6.88177 124.035 -7.99527 122.931 -7.99527 121.574ZM-2.15641 120.38L-3.03035 120.163V122.394H-2.40698C-1.83739 122.394 -1.37537 121.935 -1.37537 121.371C-1.37537 120.901 -1.69561 120.494 -2.15641 120.38ZM-6.34029 116.854C-6.34029 117.324 -6.02006 117.731 -5.55926 117.845L-4.68532 118.062V115.831H-5.30868C-5.87827 115.831 -6.34029 116.29 -6.34029 116.854Z" fill="#478BF9"/>
            <path fill-rule="evenodd" clip-rule="evenodd" d="M227.274 61.0738C221.808 66.5357 221.808 75.4219 227.274 80.8838C232.741 86.3457 241.635 86.3457 247.102 80.8838C252.569 75.4219 252.569 66.5357 247.102 61.0738C241.635 55.6119 232.741 55.6119 227.274 61.0738ZM227.936 61.734C233.038 56.636 241.339 56.636 246.441 61.734C251.544 66.8306 251.544 75.1244 246.441 80.2223C241.34 85.3203 233.039 85.3203 227.936 80.2223C222.834 75.1257 222.834 66.8319 227.936 61.734ZM248.533 70.9788C248.533 77.2387 243.454 82.3133 237.188 82.3133C230.923 82.3133 225.844 77.2387 225.844 70.9788C225.844 64.719 230.923 59.6444 237.188 59.6444C243.454 59.6444 248.533 64.719 248.533 70.9788ZM242.423 67.822L241.713 68.5306V68.5324C242.555 69.5427 243.061 70.8373 243.061 72.2494C243.061 75.4454 240.456 78.0467 237.255 78.0467C234.054 78.0467 231.449 75.4454 231.449 72.2494C231.449 70.8355 231.955 69.5427 232.798 68.5306L232.089 67.822C231.885 67.6185 231.885 67.2887 232.089 67.0852C232.292 66.8817 232.623 66.8817 232.826 67.0852L233.536 67.7939C234.418 67.0589 235.523 66.5748 236.733 66.4713V65.9924H236.254C235.83 65.9924 235.481 65.6433 235.481 65.2206V64.8171C235.481 64.3891 235.83 64.0453 236.254 64.0453H238.258C238.681 64.0453 239.031 64.3891 239.031 64.8171V65.2206C239.031 65.6433 238.681 65.9924 238.258 65.9924H237.778V66.4713C238.987 66.5765 240.094 67.0607 240.976 67.7939L241.685 67.0852C241.889 66.8817 242.219 66.8817 242.423 67.0852C242.627 67.2887 242.627 67.6185 242.423 67.822ZM232.974 72.2494C232.974 74.6034 234.892 76.5189 237.255 76.5189C239.618 76.5189 241.536 74.6087 241.536 72.2494C241.536 69.8901 239.618 67.9746 237.255 67.9746C234.892 67.9746 232.974 69.8953 232.974 72.2494ZM233.729 72.2388C233.729 70.2935 235.309 68.7183 237.255 68.7183C239.203 68.7183 240.781 70.2935 240.781 72.2388C240.781 74.1841 239.203 75.7593 237.255 75.7593C235.307 75.7593 233.729 74.1841 233.729 72.2388ZM236.823 72.6686V74.8244L238.982 71.8073H237.687V69.6515L235.528 72.6686H236.823Z" fill="#9DADF2"/>
            <path fill-rule="evenodd" clip-rule="evenodd" d="M179.051 60.7726C173.584 66.2345 173.584 75.1207 179.051 80.5825C184.518 86.0444 193.412 86.0444 198.879 80.5825C204.346 75.1207 204.346 66.2345 198.879 60.7726C193.412 55.3107 184.518 55.3107 179.051 60.7726ZM196.023 59.6661C196.801 60.1644 197.538 60.7533 198.218 61.4327C198.898 62.1121 199.488 62.8482 199.987 63.6261L198.721 64.8902C197.752 63.2627 196.387 61.8983 194.758 60.93L196.023 59.6661ZM195.191 59.1765C191.32 57.0868 186.61 57.0868 182.739 59.1768L184.031 60.4681C185.523 59.7472 187.197 59.3431 188.965 59.3431C190.733 59.3431 192.407 59.7472 193.899 60.4681L195.191 59.1765ZM181.908 59.6664C181.13 60.1647 180.393 60.7534 179.713 61.4327C179.033 62.1124 178.443 62.8489 177.945 63.6271L179.209 64.8902C180.178 63.2627 181.544 61.8983 183.172 60.93L181.908 59.6664ZM177.455 64.4577C175.364 68.325 175.364 73.0306 177.455 76.8972L178.747 75.6067C178.025 74.1164 177.62 72.4441 177.62 70.6776C177.62 68.911 178.025 67.2388 178.747 65.7484L177.455 64.4577ZM177.945 77.7277C178.444 78.5056 179.033 79.2417 179.713 79.9211C180.393 80.6005 181.13 81.1894 181.909 81.6878L183.173 80.4252C181.544 79.4568 180.178 78.0925 179.209 76.465L177.945 77.7277ZM182.74 82.1773C186.611 84.2667 191.32 84.2669 195.191 82.1779L193.899 80.887C192.407 81.6079 190.733 82.012 188.965 82.012C187.197 82.012 185.523 81.6079 184.032 80.887L182.74 82.1773ZM196.022 81.6884C196.801 81.19 197.538 80.6008 198.218 79.9211C198.898 79.2419 199.487 78.5059 199.986 77.7284L198.721 76.465C197.752 78.0925 196.387 79.4568 194.758 80.4252L196.022 81.6884ZM200.476 76.8979C202.568 73.0303 202.568 68.3239 200.477 64.4566L199.184 65.7484C199.905 67.2388 200.31 68.911 200.31 70.6776C200.31 72.4441 199.905 74.1164 199.184 75.6067L200.476 76.8979ZM191.48 66.3315C191.021 65.5577 190.682 64.7215 190.472 63.8453C190.462 63.8068 190.43 63.7762 190.392 63.7682C189.414 63.5581 188.381 63.5581 187.405 63.7682C187.365 63.7762 187.333 63.8068 187.324 63.8453C187.113 64.7215 186.774 65.5577 186.316 66.3315C186.294 66.3674 186.297 66.4113 186.321 66.4458L187.14 67.5693C187.164 67.6025 187.205 67.6198 187.244 67.6105C188.325 67.3938 189.466 67.3938 190.548 67.6105C190.588 67.6185 190.628 67.6025 190.652 67.5693L191.47 66.4458C191.494 66.4126 191.497 66.3674 191.476 66.3315H191.48ZM183.492 66.1427C184.248 65.236 185.22 64.53 186.306 64.1006H186.308C186.322 64.0953 186.336 64.0926 186.348 64.0926C186.385 64.0926 186.41 64.1139 186.42 64.1219C186.434 64.1352 186.465 64.1737 186.448 64.2296C186.246 64.8664 185.969 65.478 185.622 66.047C185.609 66.0696 185.585 66.0869 185.558 66.0936C184.91 66.2464 184.244 66.3222 183.573 66.3143C183.512 66.3143 183.485 66.2677 183.478 66.2531C183.469 66.2345 183.454 66.1879 183.492 66.1427ZM191.244 68.121C191.769 69.0982 192.112 70.1512 192.264 71.2493C192.269 71.2879 192.297 71.3211 192.336 71.3331L193.668 71.7652C193.708 71.7785 193.75 71.7652 193.778 71.7359C194.374 71.0632 195.066 70.4835 195.837 70.0129C195.87 69.9916 195.89 69.9531 195.886 69.9132C195.786 68.9027 195.477 67.9495 194.965 67.0787C194.945 67.0441 194.906 67.0228 194.866 67.0268C193.966 67.0986 193.062 67.0348 192.184 66.8393C192.176 66.838 192.169 66.8367 192.161 66.8367C192.128 66.8367 192.097 66.8526 192.077 66.8806L191.253 68.0106C191.229 68.0426 191.226 68.0864 191.245 68.121H191.244ZM185.614 66.8408C184.734 67.0362 183.832 67.0987 182.932 67.0283H182.924C182.888 67.0283 182.852 67.0482 182.833 67.0814C182.321 67.9523 182.012 68.9055 181.912 69.916C181.908 69.9558 181.926 69.9957 181.961 70.0157C182.732 70.4863 183.424 71.0647 184.02 71.7387C184.048 71.7693 184.09 71.7813 184.13 71.768L185.462 71.3359C185.501 71.3239 185.529 71.2907 185.534 71.2521C185.686 70.1539 186.029 69.101 186.554 68.1238C186.573 68.0892 186.57 68.0453 186.546 68.0134L185.722 66.8834C185.698 66.8501 185.656 66.8342 185.616 66.8421L185.614 66.8408ZM191.514 71.5128C191.533 71.4915 191.542 71.4623 191.538 71.433C191.402 70.3668 191.07 69.3483 190.553 68.4057C190.538 68.3791 190.514 68.3605 190.485 68.3552C189.966 68.2449 189.433 68.1903 188.9 68.1903C188.366 68.1903 187.833 68.2449 187.314 68.3552C187.285 68.3618 187.26 68.3805 187.246 68.4057C186.729 69.3483 186.397 70.3668 186.261 71.433C186.257 71.4623 186.266 71.4915 186.285 71.5128C186.986 72.3171 187.877 72.9606 188.861 73.3754C188.886 73.3861 188.916 73.3861 188.941 73.3754C189.925 72.9606 190.816 72.3171 191.517 71.5128H191.514ZM190.717 77.3148C190.713 77.3347 190.698 77.3812 190.641 77.3959H190.64C189.5 77.6844 188.296 77.6844 187.156 77.3959C187.098 77.3812 187.084 77.3347 187.08 77.3148C187.076 77.2948 187.072 77.2456 187.12 77.2097C187.658 76.8109 188.244 76.4798 188.858 76.2232C188.884 76.2126 188.913 76.2126 188.938 76.2232C189.554 76.4798 190.138 76.8122 190.677 77.2097C190.725 77.2456 190.721 77.2948 190.717 77.3148ZM184.36 72.471C184.32 72.4843 184.292 72.5189 184.288 72.5601C184.202 73.4535 183.984 74.3283 183.638 75.1606C183.624 75.1965 183.63 75.2404 183.658 75.271C184.338 76.0301 185.15 76.6204 186.073 77.0246C186.11 77.0406 186.153 77.0352 186.184 77.0086C186.87 76.4223 187.638 75.9437 188.466 75.5861C188.505 75.5701 188.529 75.5316 188.529 75.4903V74.109C188.529 74.0678 188.505 74.0305 188.468 74.0133C187.454 73.5679 186.528 72.8978 185.79 72.0735C185.77 72.0509 185.742 72.0389 185.713 72.0389C185.702 72.0389 185.692 72.0403 185.68 72.0442L184.361 72.471H184.36ZM189.27 74.1089C189.27 74.0677 189.294 74.0292 189.332 74.0132L189.334 74.0145C190.348 73.5692 191.274 72.8991 192.012 72.0748C192.032 72.0522 192.06 72.0402 192.089 72.0402C192.1 72.0402 192.11 72.0416 192.121 72.0455L193.44 72.4723C193.48 72.4856 193.508 72.5202 193.512 72.5614C193.597 73.4548 193.816 74.3296 194.161 75.1606C194.176 75.1978 194.168 75.2404 194.141 75.2709C193.46 76.0301 192.648 76.6204 191.726 77.0246C191.689 77.0405 191.646 77.0339 191.616 77.0086C190.928 76.4223 190.161 75.9437 189.333 75.586C189.294 75.5701 189.27 75.5315 189.27 75.4903V74.1089ZM191.45 64.0926C191.462 64.0926 191.476 64.0953 191.49 64.1006H191.492C192.578 64.53 193.552 65.236 194.306 66.1427C194.344 66.1879 194.328 66.2345 194.32 66.2531C194.313 66.2677 194.286 66.3143 194.225 66.3143C193.554 66.3222 192.888 66.2464 192.24 66.0936C192.213 66.0869 192.19 66.071 192.176 66.047C191.829 65.4793 191.552 64.8677 191.35 64.2296C191.332 64.1724 191.364 64.1352 191.378 64.1219C191.386 64.1139 191.413 64.0926 191.45 64.0926ZM183.066 74.4071C183.086 74.4045 183.134 74.3925 183.153 74.3367C183.366 73.7038 183.502 73.047 183.557 72.3836C183.56 72.357 183.55 72.3291 183.533 72.3078C183.098 71.804 182.602 71.3532 182.057 70.965C182.009 70.9305 181.962 70.9491 181.945 70.9597C181.928 70.969 181.888 70.9983 181.892 71.0568C181.965 72.2307 182.337 73.3728 182.966 74.3593C182.998 74.4098 183.048 74.4085 183.068 74.4071H183.066ZM195.74 70.965C195.761 70.9504 195.782 70.9451 195.8 70.9451V70.9464C195.822 70.9464 195.842 70.9544 195.852 70.9597C195.869 70.969 195.909 70.9983 195.905 71.0568C195.832 72.2307 195.46 73.3728 194.83 74.3593C194.798 74.4098 194.749 74.4085 194.729 74.4071C194.709 74.4045 194.661 74.3925 194.642 74.3367C194.43 73.7038 194.294 73.0457 194.24 72.3836C194.237 72.3557 194.246 72.3291 194.264 72.3078C194.698 71.8039 195.194 71.3519 195.74 70.965Z" fill="white"/>
            <path fill-rule="evenodd" clip-rule="evenodd" d="M323.72 12.5925C318.253 18.0543 318.253 26.9405 323.72 32.4024C329.187 37.8643 338.081 37.8643 343.548 32.4024C349.015 26.9405 349.015 18.0543 343.548 12.5925C338.081 7.13056 329.187 7.13056 323.72 12.5925ZM334.168 9.43993C337.339 9.56811 340.471 10.839 342.887 13.2526C345.337 15.6997 346.611 18.8838 346.708 22.0974H344.972C344.767 16.2001 340.053 11.4477 334.168 11.1753V9.43993ZM333.234 9.43522C330.018 9.53276 326.831 10.8052 324.382 13.2526C321.933 15.7001 320.659 18.8841 320.561 22.0974H322.296C322.503 16.1556 327.287 11.376 333.234 11.1699V9.43522ZM320.566 23.0308C320.695 26.1985 321.967 29.3281 324.382 31.7409C326.832 34.1881 330.018 35.4605 333.234 35.5583V33.825C327.331 33.6204 322.574 28.9106 322.302 23.0308H320.566ZM334.168 35.5537C337.339 35.4257 340.472 34.1548 342.887 31.7409C345.303 29.3277 346.575 26.1982 346.703 23.0308H344.966C344.696 28.8663 340.009 33.5493 334.168 33.8196V35.5537ZM331.554 18.6258L331.368 18.6111L331.367 18.6097L331.423 18.4304C331.967 16.6625 332.845 15.5638 333.701 15.5638C334.558 15.5638 335.429 16.6572 335.976 18.4184L336.032 18.5964L335.847 18.6124C335.123 18.6753 334.376 18.7074 333.623 18.7074C332.926 18.7074 332.23 18.6807 331.554 18.6258ZM331.17 25.7162C330.993 24.8931 330.889 23.9991 330.861 23.0623H330.863L330.857 22.9071H336.547L336.543 23.061C336.516 24.0005 336.411 24.8971 336.233 25.7296L336.205 25.8594L336.073 25.8473C334.533 25.7041 332.879 25.6988 331.33 25.8339L331.198 25.846L331.17 25.7162ZM336.267 17.238C336.424 17.602 336.564 17.9915 336.681 18.3983L336.717 18.5214L336.843 18.5054C337.55 18.413 338.232 18.2899 338.872 18.1373L339.115 18.0798L338.95 17.8924C338.095 16.9208 336.996 16.2061 335.773 15.8247L335.343 15.6909L335.608 16.0563C335.848 16.3895 336.071 16.787 336.267 17.2393V17.238ZM336.918 19.3498L336.885 19.1919L336.886 19.1906L337.044 19.1692C337.892 19.0554 338.7 18.8961 339.447 18.6994L339.552 18.6713L339.61 18.7637C340.239 19.7527 340.616 20.8916 340.697 22.0599L340.708 22.2205H337.228L337.224 22.0746C337.199 21.1244 337.095 20.2077 336.918 19.3498ZM330.557 18.5241L330.683 18.5402L330.719 18.417C330.843 17.9914 330.984 17.594 331.139 17.238C331.335 16.7856 331.557 16.3868 331.799 16.0549L332.067 15.6882L331.636 15.822C330.397 16.2075 329.288 16.9328 328.43 17.9205L328.265 18.1092L328.508 18.1654C329.156 18.314 329.846 18.4344 330.558 18.5228L330.557 18.5241ZM336.231 19.398C336.411 20.2304 336.515 21.1284 336.541 22.0666H336.54L336.544 22.2205H330.855L330.86 22.0653C330.888 21.1284 330.992 20.2358 331.169 19.4114L331.197 19.2816L331.328 19.2936C332.877 19.4301 334.533 19.4248 336.072 19.2802L336.204 19.2682L336.231 19.398ZM336.843 26.6236L336.717 26.6075L336.681 26.7306C336.563 27.1361 336.424 27.5269 336.267 27.8896C336.071 28.3433 335.848 28.7408 335.608 29.074L335.343 29.4394L335.773 29.3055C336.996 28.9241 338.095 28.2094 338.95 27.2378L339.115 27.0505L338.872 26.9929C338.232 26.8404 337.55 26.7159 336.843 26.6249V26.6236ZM335.847 26.5165L336.032 26.5326H336.033L335.977 26.7105C335.431 28.4718 334.563 29.5652 333.703 29.5652C332.842 29.5652 331.969 28.4664 331.424 26.6972L331.368 26.5178L331.554 26.5031C332.959 26.3907 334.456 26.3947 335.847 26.5165ZM337.224 23.0529C337.199 24.0031 337.095 24.9212 336.918 25.7791L336.885 25.937L337.043 25.9584C337.89 26.0735 338.698 26.2314 339.445 26.4282L339.55 26.4563L339.609 26.3639C340.238 25.3749 340.615 24.236 340.696 23.0677L340.706 22.9071H337.226L337.222 23.0529H337.224ZM330.718 26.7119C330.841 27.1375 330.982 27.5336 331.138 27.8896H331.137C331.332 28.3419 331.554 28.7408 331.797 29.0727L332.064 29.4394L331.633 29.3055C330.394 28.9201 329.286 28.1947 328.427 27.2071L328.262 27.0184L328.506 26.9621C329.153 26.8123 329.844 26.6931 330.555 26.6048L330.682 26.5888L330.718 26.7119ZM330.18 22.076C330.206 21.1392 330.308 20.2278 330.484 19.3699L330.516 19.2107L330.356 19.1906C329.505 19.0808 328.69 18.9283 327.936 18.7356L327.831 18.7088L327.773 18.8011C327.157 19.7794 326.788 20.9063 326.706 22.0612L326.694 22.2218H330.174L330.178 22.076H330.18ZM330.485 25.759L330.517 25.9183H330.52L330.36 25.9383C329.507 26.0481 328.693 26.2006 327.94 26.3934L327.835 26.4201L327.777 26.3278C327.161 25.3508 326.791 24.2226 326.71 23.0677L326.698 22.9071H330.178L330.182 23.0529C330.207 23.9911 330.309 24.9011 330.485 25.759Z" fill="#9DADF2"/>
            <path fill-rule="evenodd" clip-rule="evenodd" d="M275.497 12.5925C270.03 18.0543 270.03 26.9405 275.497 32.4024C280.964 37.8643 289.858 37.8643 295.325 32.4024C300.791 26.9405 300.791 18.0543 295.325 12.5925C289.858 7.13056 280.964 7.13056 275.497 12.5925ZM289.148 9.9696C291.168 10.5676 293.072 11.662 294.664 13.2526C296.256 14.8431 297.352 16.7449 297.95 18.7637H296.126C294.989 15.5074 292.407 12.9279 289.148 11.7923V9.9696ZM288.214 9.73011C286.369 9.3288 284.453 9.32883 282.608 9.73019V11.5115C283.505 11.2839 284.444 11.163 285.411 11.163C286.378 11.163 287.317 11.2839 288.214 11.5115V9.73011ZM281.674 9.96974C279.654 10.5678 277.751 11.6621 276.159 13.2526C274.567 14.8432 273.472 16.745 272.873 18.7637H274.696C275.833 15.5074 278.415 12.9279 281.674 11.7923V9.96974ZM272.633 19.6972C272.232 21.5405 272.232 23.4545 272.634 25.2977H274.415C274.187 24.4021 274.066 23.4639 274.066 22.4974C274.066 21.531 274.187 20.5928 274.415 19.6972H272.633ZM272.873 26.2311C273.472 28.2495 274.567 30.1508 276.159 31.7409C277.751 33.3312 279.654 34.4255 281.674 35.0236V33.2026C278.415 32.0669 275.833 29.4875 274.696 26.2311H272.873ZM282.608 35.2632C284.453 35.6647 286.369 35.6648 288.214 35.2636V33.4834C287.317 33.711 286.378 33.8319 285.411 33.8319C284.444 33.8319 283.505 33.711 282.608 33.4834V35.2632ZM289.148 35.0242C291.169 34.4262 293.072 33.3318 294.664 31.7409C296.256 30.1507 297.351 28.2494 297.949 26.2311H296.126C294.989 29.4875 292.407 32.0669 289.148 33.2026V35.0242ZM298.189 25.2977C298.591 23.4544 298.591 21.5405 298.19 19.6972H296.407C296.634 20.5928 296.755 21.531 296.755 22.4974C296.755 23.4639 296.634 24.4021 296.407 25.2977H298.189ZM281.283 25.3336C281.397 25.6521 281.7 25.8645 282.036 25.8618V25.8605L288.817 25.8154C289.154 25.8127 289.455 25.5977 289.564 25.2779L290.766 21.8074C290.842 21.8499 290.924 21.8831 291.009 21.9096C291.139 21.9494 291.274 21.968 291.411 21.968L291.496 21.9653C292.205 21.9162 292.757 21.3164 292.752 20.6024C292.748 19.8539 292.138 19.2487 291.393 19.254C290.71 19.258 290.137 19.7756 290.061 20.4577C290.056 20.5108 290.053 20.5652 290.053 20.6196C290.053 20.7404 290.07 20.8598 290.102 20.974C290.128 21.0682 290.164 21.1584 290.209 21.2447L287.815 22.4484L285.921 19.7649C285.998 19.7318 286.074 19.6906 286.144 19.6415C286.277 19.5499 286.393 19.4345 286.488 19.2991C286.668 19.0403 286.751 18.7364 286.729 18.4192C286.68 17.749 286.141 17.2115 285.474 17.1664C285.441 17.1638 285.407 17.1638 285.374 17.1638H285.374C284.629 17.1691 284.027 17.7822 284.033 18.5307C284.034 18.8094 284.121 19.0788 284.282 19.3071C284.377 19.4411 284.495 19.5553 284.629 19.6468C284.701 19.6959 284.776 19.7371 284.854 19.7702L282.992 22.4816L280.559 21.2978C280.607 21.2208 280.647 21.1399 280.68 21.0549C280.741 20.8996 280.77 20.7338 280.77 20.5612C280.766 19.8127 280.156 19.2075 279.412 19.2129C278.667 19.2182 278.065 19.8313 278.07 20.5798C278.074 21.2566 278.58 21.8313 279.247 21.9162C279.306 21.9242 279.367 21.9268 279.429 21.9268C279.536 21.9268 279.641 21.9136 279.746 21.887C279.834 21.8645 279.921 21.8339 280.003 21.7941L281.283 25.3336ZM288.158 21.6362C287.979 21.6362 287.808 21.5499 287.706 21.4026L287.319 20.8545C287.229 20.7284 287.197 20.5692 287.229 20.4179C287.261 20.2666 287.356 20.1339 287.489 20.0556L288.224 19.6216C288.308 19.5725 288.403 19.546 288.499 19.5446C288.723 19.5433 288.925 19.6774 289.013 19.8857L289.29 20.5533C289.401 20.8213 289.286 21.1332 289.028 21.2633L288.403 21.5778C288.327 21.615 288.243 21.6362 288.16 21.6362H288.158ZM282.394 21.6176C282.471 21.6548 282.555 21.6734 282.638 21.6734L282.637 21.672C282.817 21.672 282.986 21.5818 283.087 21.4332L283.478 20.8638C283.565 20.7364 283.596 20.5772 283.561 20.4259C283.527 20.2746 283.431 20.1432 283.297 20.0675L282.584 19.6588C282.5 19.6097 282.405 19.5858 282.308 19.5858C282.084 19.5871 281.885 19.7238 281.8 19.9335L281.525 20.6209C281.417 20.8904 281.536 21.1996 281.796 21.327L282.394 21.6176ZM281.594 26.3771L289.262 26.3259C289.585 26.3238 289.848 26.5853 289.851 26.91L289.852 27.1847C289.854 27.5094 289.594 27.7743 289.271 27.7765L281.604 27.8276C281.281 27.8297 281.017 27.5683 281.015 27.2436L281.013 26.9689C281.011 26.6442 281.271 26.3792 281.594 26.3771Z" fill="#478BF9"/>
            <path fill-rule="evenodd" clip-rule="evenodd" d="M227.274 12.5925C221.808 18.0543 221.808 26.9405 227.274 32.4024C232.741 37.8643 241.635 37.8643 247.102 32.4024C252.569 26.9405 252.569 18.0543 247.102 12.5925C241.635 7.13056 232.741 7.13056 227.274 12.5925ZM246.159 12.979C241.132 8.24566 233.243 8.24586 228.218 12.9796L229.449 14.2098C231.476 12.3197 234.197 11.163 237.188 11.163C240.18 11.163 242.9 12.3197 244.927 14.2098L246.159 12.979ZM227.561 13.6434C222.926 18.6702 222.959 26.4742 227.663 31.4592L228.893 30.2296C227.001 28.2046 225.844 25.4861 225.844 22.4974C225.844 19.562 226.96 16.8873 228.793 14.8742L227.561 13.6434ZM228.327 32.1155C233.322 36.7138 241.056 36.714 246.05 32.1162L244.818 30.8854C242.803 32.7161 240.126 33.8319 237.188 33.8319C234.25 33.8319 231.573 32.7161 229.558 30.8854L228.327 32.1155ZM246.714 31.4598C251.419 26.4735 251.452 18.6684 246.816 13.6427L245.584 14.8742C247.416 16.8873 248.533 19.562 248.533 22.4974C248.533 25.4861 247.375 28.2046 245.483 30.2296L246.714 31.4598ZM241.784 17.3224C240.641 16.3065 239.161 15.6577 237.534 15.5638V17.6318C238.592 17.7195 239.556 18.1378 240.321 18.7854L241.784 17.3236V17.3224ZM233.338 19.3679L231.875 17.9061C230.858 19.0484 230.208 20.5265 230.114 22.1524H232.184C232.272 21.0952 232.691 20.1319 233.339 19.3679H233.338ZM244.128 22.1524H242.06C241.972 21.0952 241.552 20.1319 240.905 19.3679L242.368 17.9061C243.385 19.0497 244.034 20.5265 244.128 22.1524ZM232.183 22.9766H230.114C230.208 24.6024 230.858 26.0792 231.875 27.2228L233.338 25.7611C232.691 24.997 232.271 24.0337 232.183 22.9766ZM236.709 15.5638V17.6305C235.651 17.7182 234.687 18.1378 233.922 18.7842L232.459 17.3224C233.603 16.3065 235.082 15.6577 236.709 15.5638ZM242.367 27.2228C243.384 26.0805 244.033 24.6024 244.127 22.9766H242.057C241.969 24.0337 241.551 24.997 240.903 25.7598L242.367 27.2228ZM237.534 29.5652V27.4984C238.592 27.4107 239.556 26.9911 240.321 26.3448L241.784 27.8065C240.639 28.8224 239.161 29.4712 237.534 29.5652ZM232.459 27.8065C233.602 28.8224 235.082 29.4712 236.709 29.5652V27.4971C235.651 27.4095 234.687 26.9911 233.922 26.3435L232.459 27.8053V27.8065ZM237.121 18.3069C239.475 18.3069 241.383 20.2134 241.383 22.5645C241.383 24.9156 239.475 26.822 237.121 26.822C234.768 26.822 232.86 24.9156 232.86 22.5645C232.86 20.2134 234.768 18.3069 237.121 18.3069ZM238.695 22.8413L239.08 23.2258L239.077 23.2308C239.343 23.4964 239.773 23.4964 240.039 23.2308L240.345 22.9252C240.61 22.6597 240.61 22.2288 240.345 21.9645L239.779 21.3996C239.513 21.134 239.083 21.134 238.818 21.3996L238.512 21.7052L238.159 21.3532C237.894 21.0877 237.464 21.0877 237.198 21.3532L236.892 21.6588L236.541 21.3044C236.275 21.0388 235.845 21.0388 235.579 21.3044L233.705 23.177C233.691 23.1908 233.691 23.2145 233.705 23.2283C233.957 23.4788 234.364 23.4788 234.615 23.2283L235.823 22.0221C235.953 21.8918 236.165 21.8918 236.295 22.0221L236.383 22.1098C236.399 22.1261 236.399 22.1511 236.383 22.1674L235.374 23.1757C235.36 23.1895 235.36 23.2133 235.374 23.2271C235.626 23.4776 236.033 23.4776 236.284 23.2271L237.444 22.0684C237.574 21.9382 237.786 21.9382 237.916 22.0684L238.005 22.1574C238.019 22.1711 238.019 22.1949 238.005 22.2087L237.034 23.1795C237.02 23.1933 237.02 23.2171 237.034 23.2308C237.286 23.4814 237.693 23.4814 237.944 23.2308L239.063 22.1123C239.194 21.982 239.406 21.982 239.536 22.1123L239.727 22.3027C239.803 22.3791 239.803 22.5018 239.727 22.5782L239.698 22.6083C239.621 22.6847 239.498 22.6847 239.422 22.6083L239.175 22.3615C239.161 22.3478 239.137 22.3478 239.124 22.3615L238.695 22.7899C238.681 22.8037 238.681 22.8275 238.695 22.8413Z" fill="#7DDACF"/>
            <path fill-rule="evenodd" clip-rule="evenodd" d="M179.052 12.5925C173.585 18.0544 173.585 26.9406 179.052 32.4025C184.518 37.8644 193.413 37.8644 198.879 32.4025C204.346 26.9406 204.346 18.0544 198.879 12.5925C193.413 7.13062 184.518 7.13062 179.052 12.5925ZM189.499 9.43999C192.67 9.56817 195.803 10.8391 198.219 13.2527C200.669 15.6998 201.942 18.8839 202.039 22.0975H200.303C200.098 16.2002 195.384 11.4477 189.499 11.1754V9.43999ZM188.565 9.43528C185.349 9.53282 182.163 10.8053 179.714 13.2527C177.264 15.7001 175.991 18.8842 175.893 22.0975H177.628C177.834 16.1557 182.618 11.3761 188.565 11.17V9.43528ZM175.898 23.0309C176.026 26.1986 177.298 29.3281 179.714 31.741C182.163 34.1881 185.349 35.4606 188.565 35.5584V33.825C182.663 33.6205 177.906 28.9107 177.633 23.0309H175.898ZM189.499 35.5537C192.67 35.4258 195.803 34.1549 198.219 31.741C200.634 29.3277 201.906 26.1983 202.035 23.0309H200.298C200.027 28.8663 195.34 33.5493 189.499 33.8196V35.5537ZM184.828 24.8921V24.0717H186.483V24.8921C186.483 25.3441 186.854 25.7125 187.31 25.7125H188.138V23.072L186.863 22.7557C185.665 22.4588 184.828 21.396 184.828 20.1721C184.828 18.7033 186.033 17.5085 187.514 17.5085H188.138V15.4302H189.793V17.5085H190.62C191.989 17.5085 193.103 18.6125 193.103 19.9697V20.7901H191.448V19.9697C191.448 19.5177 191.076 19.1493 190.62 19.1493H189.793V21.7899L191.067 22.1061C192.265 22.403 193.103 23.4658 193.103 24.6898C193.103 26.1585 191.897 27.3533 190.416 27.3533H189.793V29.4316H188.138V27.3533H187.31C185.941 27.3533 184.828 26.2494 184.828 24.8921ZM190.666 23.6985L189.793 23.4816V25.7125H190.416C190.986 25.7125 191.448 25.2533 191.448 24.6898C191.448 24.2196 191.127 23.8124 190.666 23.6985ZM186.483 20.1721C186.483 20.6423 186.803 21.0494 187.264 21.1633L188.138 21.3803V19.1493H187.514C186.945 19.1493 186.483 19.6086 186.483 20.1721Z" fill="#478BF9"/>
            <path d="M275.497 80.5825C270.03 75.1207 270.03 66.2345 275.497 60.7726C280.964 55.3107 289.858 55.3107 295.325 60.7726C300.791 66.2345 300.791 75.1207 295.325 80.5825C289.858 86.0444 280.964 86.0444 275.497 80.5825ZM294.664 61.4327C289.561 56.3348 281.26 56.3348 276.159 61.4327C271.057 66.5307 271.057 74.8244 276.159 79.9211C281.262 85.019 289.563 85.019 294.664 79.9211C299.766 74.8231 299.766 66.5293 294.664 61.4327Z" fill="#7DDACF"/>
            <path fill-rule="evenodd" clip-rule="evenodd" d="M296.756 70.6777C296.756 76.9375 291.677 82.0121 285.411 82.0121C279.146 82.0121 274.067 76.9375 274.067 70.6777C274.067 64.4178 279.146 59.3432 285.411 59.3432C291.677 59.3432 296.756 64.4178 296.756 70.6777ZM285.405 63.6223L290.916 65.8281C290.977 65.8529 291.017 65.9129 291.017 65.9789V69.8947C291.025 73.4349 288.766 76.5334 285.394 77.604C285.361 77.6146 285.327 77.6146 285.295 77.604C281.924 76.5334 279.664 73.4349 279.673 69.8947V65.9789C279.673 65.9117 279.713 65.8529 279.774 65.8281L285.285 63.6223C285.304 63.614 285.325 63.6105 285.345 63.6105C285.365 63.6105 285.386 63.6152 285.405 63.6223ZM285.44 76.7796C288.314 75.7244 290.247 72.9579 290.253 69.8947V66.5771C290.253 66.4629 290.185 66.3605 290.078 66.3181L285.448 64.4644C285.381 64.4373 285.308 64.4373 285.241 64.4644L280.612 66.3169C280.505 66.3593 280.436 66.4606 280.436 66.576V69.8947C280.442 72.9568 282.376 75.7244 285.249 76.7796C285.28 76.7902 285.313 76.7961 285.345 76.7961C285.377 76.7961 285.41 76.7914 285.44 76.7796ZM289.695 69.8947C289.691 72.6812 287.943 75.2191 285.346 76.219C282.749 75.2203 281.001 72.6812 280.996 69.8947V66.7656L285.346 65.0238L289.695 66.7656V69.8947ZM287.434 73.3925C286.857 74.0402 286.13 74.5608 285.329 74.8953C285.188 74.9553 285.121 75.119 285.181 75.2615C285.226 75.3687 285.331 75.4323 285.439 75.4323C285.475 75.4323 285.512 75.4252 285.547 75.4099C286.423 75.0437 287.219 74.4736 287.851 73.7635C287.954 73.6481 287.943 73.4714 287.828 73.369C287.713 73.2665 287.536 73.2771 287.434 73.3925ZM282.2 68.9066C282.354 68.9066 282.479 68.7818 282.479 68.6275L282.48 68.6287V67.6418L283.407 67.2708H283.408C283.477 67.2437 283.531 67.1896 283.561 67.1212C283.59 67.0518 283.591 66.9764 283.563 66.9069C283.536 66.8374 283.483 66.7832 283.414 66.7538C283.344 66.7244 283.269 66.7232 283.199 66.7514L282.097 67.1931C281.991 67.2355 281.921 67.3368 281.921 67.4522V68.6275C281.921 68.7818 282.046 68.9066 282.2 68.9066Z" fill="#7DDACF"/>
            <path d="M285.061 56.676L333.452 56.676V57.6095L285.061 57.6095V56.676Z" fill="#7DDACF"/>
            <path d="M283.936 83.7452H333.452V84.6787H283.936V83.7452Z" fill="#7DDACF"/>
            <path fill-rule="evenodd" clip-rule="evenodd" d="M323.72 109.274C318.253 114.736 318.253 123.622 323.72 129.084C329.187 134.546 338.081 134.546 343.548 129.084C349.015 123.622 349.015 114.736 343.548 109.274C338.081 103.812 329.187 103.812 323.72 109.274ZM334.168 106.121C337.339 106.25 340.471 107.52 342.887 109.934C345.337 112.381 346.611 115.565 346.708 118.779H344.972C344.767 112.881 340.053 108.129 334.168 107.857V106.121ZM333.234 106.117C330.018 106.214 326.831 107.487 324.382 109.934C321.933 112.381 320.659 115.566 320.561 118.779H322.296C322.503 112.837 327.287 108.057 333.234 107.851V106.117ZM320.566 119.712C320.695 122.88 321.967 126.009 324.382 128.422C326.832 130.869 330.018 132.142 333.234 132.24V130.506C327.331 130.302 322.574 125.592 322.302 119.712H320.566ZM334.168 132.235C337.339 132.107 340.472 130.836 342.887 128.422C345.303 126.009 346.575 122.88 346.703 119.712H344.966C344.696 125.548 340.009 130.231 334.168 130.501V132.235ZM331.554 115.307L331.368 115.293L331.367 115.291L331.423 115.112C331.967 113.344 332.845 112.245 333.701 112.245C334.558 112.245 335.429 113.339 335.976 115.1L336.032 115.278L335.847 115.294C335.123 115.357 334.376 115.389 333.623 115.389C332.926 115.389 332.23 115.362 331.554 115.307ZM331.17 122.398C330.993 121.575 330.889 120.681 330.861 119.744H330.863L330.857 119.589H336.547L336.543 119.742C336.516 120.682 336.411 121.579 336.233 122.411L336.205 122.541L336.073 122.529C334.533 122.386 332.879 122.38 331.33 122.515L331.198 122.527L331.17 122.398ZM336.267 113.919C336.424 114.283 336.564 114.673 336.681 115.08L336.717 115.203L336.843 115.187C337.55 115.094 338.232 114.971 338.872 114.819L339.115 114.761L338.95 114.574C338.095 113.602 336.996 112.888 335.773 112.506L335.343 112.372L335.608 112.738C335.848 113.071 336.071 113.468 336.267 113.921V113.919ZM336.918 116.031L336.885 115.873L336.886 115.872L337.044 115.851C337.892 115.737 338.7 115.578 339.447 115.381L339.552 115.353L339.61 115.445C340.239 116.434 340.616 117.573 340.697 118.741L340.708 118.902H337.228L337.224 118.756C337.199 117.806 337.095 116.889 336.918 116.031ZM330.557 115.206L330.683 115.222L330.719 115.098C330.843 114.673 330.984 114.275 331.139 113.919C331.335 113.467 331.557 113.068 331.799 112.736L332.067 112.37L331.636 112.504C330.397 112.889 329.288 113.614 328.43 114.602L328.265 114.791L328.508 114.847C329.156 114.995 329.846 115.116 330.558 115.204L330.557 115.206ZM336.231 116.079C336.411 116.912 336.515 117.81 336.541 118.748H336.54L336.544 118.902H330.855L330.86 118.747C330.888 117.81 330.992 116.917 331.169 116.093L331.197 115.963L331.328 115.975C332.877 116.112 334.533 116.106 336.072 115.962L336.204 115.95L336.231 116.079ZM336.843 123.305L336.717 123.289L336.681 123.412C336.563 123.818 336.424 124.208 336.267 124.571C336.071 125.025 335.848 125.422 335.608 125.755L335.343 126.121L335.773 125.987C336.996 125.606 338.095 124.891 338.95 123.919L339.115 123.732L338.872 123.674C338.232 123.522 337.55 123.397 336.843 123.306V123.305ZM335.847 123.198L336.032 123.214H336.033L335.977 123.392C335.431 125.153 334.563 126.247 333.703 126.247C332.842 126.247 331.969 125.148 331.424 123.379L331.368 123.199L331.554 123.185C332.959 123.072 334.456 123.076 335.847 123.198ZM337.224 119.734C337.199 120.685 337.095 121.603 336.918 122.461L336.885 122.618L337.043 122.64C337.89 122.755 338.698 122.913 339.445 123.11L339.55 123.138L339.609 123.045C340.238 122.056 340.615 120.917 340.696 119.749L340.706 119.589H337.226L337.222 119.734H337.224ZM330.718 123.393C330.841 123.819 330.982 124.215 331.138 124.571H331.137C331.332 125.023 331.554 125.422 331.797 125.754L332.064 126.121L331.633 125.987C330.394 125.602 329.286 124.876 328.427 123.889L328.262 123.7L328.506 123.644C329.153 123.494 329.844 123.375 330.555 123.286L330.682 123.27L330.718 123.393ZM330.18 118.757C330.206 117.821 330.308 116.909 330.484 116.051L330.516 115.892L330.356 115.872C329.505 115.762 328.69 115.61 327.936 115.417L327.831 115.39L327.773 115.483C327.157 116.461 326.788 117.588 326.706 118.743L326.694 118.903H330.174L330.178 118.757H330.18ZM330.485 122.44L330.517 122.6H330.52L330.36 122.62C329.507 122.73 328.693 122.882 327.94 123.075L327.835 123.102L327.777 123.009C327.161 122.032 326.791 120.904 326.71 119.749L326.698 119.589H330.178L330.182 119.734C330.207 120.673 330.309 121.583 330.485 122.44Z" fill="#9DADF2"/>
            <path fill-rule="evenodd" clip-rule="evenodd" d="M275.556 109.274C270.089 114.736 270.089 123.622 275.556 129.084C281.022 134.546 289.917 134.546 295.383 129.084C300.85 123.622 300.85 114.736 295.383 109.274C289.917 103.812 281.022 103.812 275.556 109.274ZM289.207 106.651C291.227 107.249 293.13 108.343 294.723 109.934C296.315 111.524 297.41 113.426 298.009 115.445H296.184C295.047 112.189 292.466 109.609 289.207 108.474V106.651ZM288.272 106.412C286.427 106.01 284.512 106.01 282.667 106.412V108.193C283.563 107.965 284.502 107.844 285.469 107.844C286.437 107.844 287.376 107.965 288.272 108.193V106.412ZM281.732 106.651C279.712 107.249 277.809 108.343 276.218 109.934C274.626 111.525 273.53 113.426 272.932 115.445H274.755C275.891 112.189 278.473 109.609 281.732 108.474V106.651ZM272.692 116.379C272.29 118.222 272.29 120.136 272.692 121.979H274.474C274.246 121.083 274.125 120.145 274.125 119.179C274.125 118.212 274.246 117.274 274.474 116.379H272.692ZM272.932 122.913C273.531 124.931 274.626 126.832 276.218 128.422C277.809 130.013 279.712 131.107 281.732 131.705V129.884C278.473 128.748 275.891 126.169 274.755 122.913H272.932ZM282.667 131.945C284.512 132.346 286.427 132.346 288.272 131.945V130.165C287.376 130.392 286.437 130.513 285.469 130.513C284.502 130.513 283.563 130.392 282.667 130.165V131.945ZM289.207 131.706C291.227 131.108 293.131 130.013 294.723 128.422C296.314 126.832 297.409 124.931 298.008 122.913H296.184C295.047 126.169 292.466 128.748 289.207 129.884V131.706ZM298.248 121.979C298.65 120.136 298.65 118.222 298.248 116.379H296.465C296.693 117.274 296.814 118.212 296.814 119.179C296.814 120.145 296.693 121.083 296.465 121.979H298.248ZM281.341 122.015C281.456 122.333 281.758 122.546 282.095 122.543V122.542L288.876 122.497C289.212 122.494 289.513 122.279 289.623 121.959L290.824 118.489C290.901 118.531 290.983 118.564 291.067 118.591C291.198 118.631 291.333 118.649 291.47 118.649L291.554 118.647C292.263 118.597 292.815 117.998 292.81 117.284C292.806 116.535 292.196 115.93 291.451 115.935C290.769 115.939 290.196 116.457 290.119 117.139C290.114 117.192 290.111 117.246 290.111 117.301C290.111 117.422 290.129 117.541 290.16 117.655C290.187 117.749 290.222 117.84 290.267 117.926L287.874 119.13L285.979 116.446C286.057 116.413 286.132 116.372 286.202 116.323C286.335 116.231 286.452 116.116 286.547 115.98C286.726 115.722 286.809 115.418 286.787 115.1C286.738 114.43 286.2 113.893 285.533 113.848C285.5 113.845 285.465 113.845 285.433 113.845H285.432C284.688 113.85 284.086 114.463 284.091 115.212C284.092 115.491 284.18 115.76 284.341 115.988C284.436 116.122 284.553 116.237 284.688 116.328C284.759 116.377 284.834 116.418 284.912 116.452L283.051 119.163L280.618 117.979C280.665 117.902 280.706 117.821 280.739 117.736C280.8 117.581 280.829 117.415 280.829 117.242C280.825 116.494 280.215 115.889 279.47 115.894C278.726 115.899 278.124 116.513 278.129 117.261C278.133 117.938 278.638 118.513 279.305 118.597C279.365 118.605 279.425 118.608 279.487 118.608C279.594 118.608 279.7 118.595 279.804 118.568C279.893 118.546 279.98 118.515 280.062 118.475L281.341 122.015ZM288.217 118.317C288.037 118.317 287.867 118.231 287.764 118.084L287.377 117.536C287.287 117.41 287.256 117.25 287.287 117.099C287.319 116.948 287.414 116.815 287.547 116.737L288.283 116.303C288.366 116.254 288.461 116.227 288.557 116.226C288.782 116.225 288.984 116.359 289.071 116.567L289.348 117.235C289.459 117.503 289.344 117.814 289.087 117.945L288.461 118.259C288.386 118.296 288.301 118.317 288.218 118.317H288.217ZM282.453 118.299C282.529 118.336 282.614 118.355 282.697 118.355L282.696 118.353C282.875 118.353 283.044 118.263 283.146 118.114L283.537 117.545C283.624 117.418 283.654 117.258 283.62 117.107C283.585 116.956 283.489 116.824 283.356 116.749L282.643 116.34C282.558 116.291 282.463 116.267 282.367 116.267C282.142 116.268 281.943 116.405 281.859 116.615L281.584 117.302C281.476 117.572 281.595 117.881 281.855 118.008L282.453 118.299ZM281.652 123.058L289.32 123.007C289.643 123.005 289.907 123.267 289.909 123.591L289.911 123.866C289.913 124.191 289.653 124.456 289.33 124.458L281.662 124.509C281.339 124.511 281.075 124.25 281.073 123.925L281.071 123.65C281.069 123.325 281.329 123.06 281.652 123.058Z" fill="#478BF9"/>
            <path fill-rule="evenodd" clip-rule="evenodd" d="M227.274 109.274C221.808 114.736 221.808 123.622 227.274 129.084C232.741 134.546 241.635 134.546 247.102 129.084C252.569 123.622 252.569 114.736 247.102 109.274C241.635 103.812 232.741 103.812 227.274 109.274ZM246.159 109.66C241.132 104.927 233.243 104.927 228.218 109.661L229.449 110.891C231.476 109.001 234.197 107.844 237.188 107.844C240.18 107.844 242.9 109.001 244.927 110.891L246.159 109.66ZM227.561 110.325C222.926 115.352 222.959 123.156 227.663 128.141L228.893 126.911C227.001 124.886 225.844 122.167 225.844 119.179C225.844 116.243 226.96 113.569 228.793 111.556L227.561 110.325ZM228.327 128.797C233.322 133.395 241.056 133.395 246.05 128.798L244.818 127.567C242.803 129.397 240.126 130.513 237.188 130.513C234.25 130.513 231.573 129.397 229.558 127.567L228.327 128.797ZM246.714 128.141C251.419 123.155 251.452 115.35 246.816 110.324L245.584 111.556C247.416 113.569 248.533 116.243 248.533 119.179C248.533 122.167 247.375 124.886 245.483 126.911L246.714 128.141ZM241.784 114.004C240.641 112.988 239.161 112.339 237.534 112.245V114.313C238.592 114.401 239.556 114.819 240.321 115.467L241.784 114.005V114.004ZM233.338 116.049L231.875 114.588C230.858 115.73 230.208 117.208 230.114 118.834H232.184C232.272 117.777 232.691 116.813 233.339 116.049H233.338ZM244.128 118.834H242.06C241.972 117.777 241.552 116.813 240.905 116.049L242.368 114.588C243.385 115.731 244.034 117.208 244.128 118.834ZM232.183 119.658H230.114C230.208 121.284 230.858 122.761 231.875 123.904L233.338 122.443C232.691 121.678 232.271 120.715 232.183 119.658ZM236.709 112.245V114.312C235.651 114.4 234.687 114.819 233.922 115.466L232.459 114.004C233.603 112.988 235.082 112.339 236.709 112.245ZM242.367 123.904C243.384 122.762 244.033 121.284 244.127 119.658H242.057C241.969 120.715 241.551 121.678 240.903 122.441L242.367 123.904ZM237.534 126.247V124.18C238.592 124.092 239.556 123.673 240.321 123.026L241.784 124.488C240.639 125.504 239.161 126.153 237.534 126.247ZM232.459 124.488C233.602 125.504 235.082 126.153 236.709 126.247V124.179C235.651 124.091 234.687 123.673 233.922 123.025L232.459 124.487V124.488ZM237.121 114.988C239.475 114.988 241.383 116.895 241.383 119.246C241.383 121.597 239.475 123.503 237.121 123.503C234.768 123.503 232.86 121.597 232.86 119.246C232.86 116.895 234.768 114.988 237.121 114.988ZM238.695 119.523L239.08 119.907L239.077 119.912C239.343 120.178 239.773 120.178 240.039 119.912L240.345 119.607C240.61 119.341 240.61 118.91 240.345 118.646L239.779 118.081C239.513 117.815 239.083 117.815 238.818 118.081L238.512 118.387L238.159 118.035C237.894 117.769 237.464 117.769 237.198 118.035L236.892 118.34L236.541 117.986C236.275 117.72 235.845 117.72 235.579 117.986L233.705 119.858C233.691 119.872 233.691 119.896 233.705 119.91C233.957 120.16 234.364 120.16 234.615 119.91L235.823 118.704C235.953 118.573 236.165 118.573 236.295 118.704L236.383 118.791C236.399 118.808 236.399 118.833 236.383 118.849L235.374 119.857C235.36 119.871 235.36 119.895 235.374 119.909C235.626 120.159 236.033 120.159 236.284 119.909L237.444 118.75C237.574 118.62 237.786 118.62 237.916 118.75L238.005 118.839C238.019 118.853 238.019 118.876 238.005 118.89L237.034 119.861C237.02 119.875 237.02 119.899 237.034 119.912C237.286 120.163 237.693 120.163 237.944 119.912L239.063 118.794C239.194 118.663 239.406 118.663 239.536 118.794L239.727 118.984C239.803 119.061 239.803 119.183 239.727 119.26L239.698 119.29C239.621 119.366 239.498 119.366 239.422 119.29L239.175 119.043C239.161 119.029 239.137 119.029 239.124 119.043L238.695 119.471C238.681 119.485 238.681 119.509 238.695 119.523Z" fill="white"/>
            <path fill-rule="evenodd" clip-rule="evenodd" d="M179.051 109.274C173.584 114.736 173.584 123.622 179.051 129.084C184.518 134.546 193.412 134.546 198.879 129.084C204.346 123.622 204.346 114.736 198.879 109.274C193.412 103.812 184.518 103.812 179.051 109.274ZM189.499 106.121C192.67 106.25 195.802 107.52 198.218 109.934C200.668 112.381 201.942 115.565 202.039 118.779H200.303C200.098 112.881 195.384 108.129 189.499 107.857V106.121ZM188.565 106.117C185.349 106.214 182.162 107.487 179.713 109.934C177.264 112.381 175.99 115.566 175.893 118.779H177.627C177.834 112.837 182.618 108.057 188.565 107.851V106.117ZM175.897 119.712C176.026 122.88 177.298 126.009 179.713 128.422C182.163 130.869 185.349 132.142 188.565 132.24V130.506C182.662 130.302 177.905 125.592 177.633 119.712H175.897ZM189.499 132.235C192.67 132.107 195.803 130.836 198.218 128.422C200.634 126.009 201.906 122.88 202.034 119.712H200.297C200.027 125.548 195.34 130.231 189.499 130.501V132.235ZM184.827 121.574V120.753H186.482V121.574C186.482 122.026 186.854 122.394 187.31 122.394H188.137V119.753L186.862 119.437C185.665 119.14 184.827 118.077 184.827 116.853C184.827 115.385 186.032 114.19 187.514 114.19H188.137V112.112H189.792V114.19H190.62C191.989 114.19 193.102 115.294 193.102 116.651V117.472H191.447V116.651C191.447 116.199 191.076 115.831 190.62 115.831H189.792V118.471L191.067 118.788C192.265 119.084 193.102 120.147 193.102 121.371C193.102 122.84 191.897 124.035 190.416 124.035H189.792V126.113H188.137V124.035H187.31C185.941 124.035 184.827 122.931 184.827 121.574ZM190.666 120.38L189.792 120.163V122.394H190.416C190.985 122.394 191.447 121.935 191.447 121.371C191.447 120.901 191.127 120.494 190.666 120.38ZM186.482 116.853C186.482 117.324 186.802 117.731 187.263 117.845L188.137 118.062V115.831H187.514C186.944 115.831 186.482 116.29 186.482 116.853Z" fill="#478BF9"/>
        </g>
    </g>
    <defs>
        <linearGradient id="paint0_linear_610_12473" x1="160" y1="0" x2="160" y2="141" gradientUnits="userSpaceOnUse">
            <stop stop-color="white"/>
            <stop offset="1" stop-color="white" stop-opacity="0"/>
        </linearGradient>
    </defs>
</svg>
