<svg width="320" height="401" viewBox="0 0 320 401" fill="none" xmlns="http://www.w3.org/2000/svg">
    <mask id="mask0_404_7858" style="mask-type:alpha" maskUnits="userSpaceOnUse" x="217" y="-28" width="162" height="400">
        <rect x="217.001" y="-28" width="161.291" height="400" fill="url(#paint0_linear_404_7858)"/>
    </mask>
    <g mask="url(#mask0_404_7858)">
        <g opacity="0.5">
            <path d="M345.246 294.58C339.129 294.58 333.017 292.254 328.358 287.597C319.047 278.287 319.047 263.142 328.358 253.832C332.871 249.32 338.868 246.838 345.246 246.838C351.624 246.838 357.621 249.32 362.134 253.832C371.445 263.142 371.445 278.287 362.134 287.597C357.48 292.249 351.363 294.58 345.246 294.58ZM329.612 286.343C338.231 294.961 352.256 294.961 360.875 286.343C369.494 277.726 369.494 263.703 360.875 255.085C356.698 250.909 351.148 248.613 345.241 248.613C339.334 248.613 333.784 250.914 329.607 255.085C320.988 263.703 320.988 277.726 329.607 286.343H329.612Z" fill="#9DADF2"/>
            <path d="M345.246 173.29C339.129 173.29 333.017 170.964 328.358 166.306C319.047 156.997 319.047 141.851 328.358 132.542C332.871 128.03 338.868 125.548 345.246 125.548C351.624 125.548 357.621 128.03 362.134 132.542C371.445 141.851 371.445 156.997 362.134 166.306C357.48 170.959 351.363 173.29 345.246 173.29ZM329.612 165.053C338.231 173.671 352.256 173.671 360.875 165.053C369.494 156.435 369.494 142.413 360.875 133.795C356.698 129.619 351.148 127.323 345.241 127.323C339.334 127.323 333.784 129.624 329.607 133.795C320.988 142.413 320.988 156.435 329.607 165.053H329.612Z" fill="#9DADF2"/>
            <path d="M328.359 45.0341C319.047 35.7221 319.047 20.5721 328.359 11.2601C337.671 1.94813 352.821 1.94813 362.133 11.2601C371.445 20.5721 371.445 35.7221 362.133 45.0341C352.821 54.3461 337.671 54.3461 328.359 45.0341ZM361.008 12.3856C352.316 3.69413 338.176 3.69413 329.487 12.3856C320.795 21.0771 320.795 35.2171 329.487 43.9063C338.178 52.5978 352.318 52.5978 361.008 43.9063C369.699 35.2149 369.699 21.0748 361.008 12.3856Z" fill="#E3E3E3"/>
        </g>
        <g opacity="0.2">
            <path d="M293.059 367.484C286.942 367.484 280.83 365.157 276.171 360.5C266.86 351.19 266.86 336.045 276.171 326.735C280.684 322.223 286.681 319.742 293.059 319.742C299.437 319.742 305.434 322.223 309.947 326.735C319.258 336.045 319.258 351.19 309.947 360.5C305.293 365.152 299.176 367.484 293.059 367.484ZM277.425 359.247C286.044 367.865 300.069 367.865 308.688 359.247C317.307 350.629 317.307 336.607 308.688 327.989C304.511 323.813 298.961 321.516 293.054 321.516C287.147 321.516 281.597 323.818 277.42 327.989C268.801 336.607 268.801 350.629 277.42 359.247H277.425Z" fill="#E3E3E3"/>
            <path d="M293.944 338.592L289.521 344.788H292.174V349.21L296.596 343.019H293.944V338.592Z" fill="#E3E3E3"/>
            <path d="M293.056 335.148C288.212 335.148 284.281 339.078 284.281 343.921C284.281 348.764 288.212 352.685 293.056 352.685C297.9 352.685 301.831 348.754 301.831 343.921C301.831 339.088 297.9 335.148 293.056 335.148ZM293.056 351.602C288.804 351.602 285.354 348.153 285.354 343.901C285.354 339.65 288.804 336.201 293.056 336.201C297.308 336.201 300.758 339.65 300.758 343.901C300.758 348.153 297.308 351.602 293.056 351.602Z" fill="#E3E3E3"/>
            <path d="M306.619 330.059C302.999 326.435 298.18 324.444 293.056 324.444C287.932 324.444 283.118 326.44 279.493 330.059C272.017 337.534 272.017 349.701 279.493 357.181C283.233 360.921 288.142 362.791 293.056 362.791C297.97 362.791 302.879 360.921 306.619 357.181C314.095 349.706 314.095 337.539 306.619 330.059ZM293.056 355.823C286.498 355.823 281.157 350.484 281.157 343.926C281.157 341.028 282.195 338.371 283.92 336.296L282.466 334.842C282.05 334.426 282.05 333.749 282.466 333.328C282.882 332.907 283.559 332.912 283.98 333.328L285.435 334.782C287.24 333.273 289.511 332.28 291.988 332.07V331.087H291.005C290.138 331.087 289.421 330.37 289.421 329.503V328.676C289.421 327.798 290.138 327.091 291.005 327.091H295.117C295.984 327.091 296.701 327.798 296.701 328.676V329.503C296.701 330.37 295.984 331.087 295.117 331.087H294.134V332.07C296.616 332.285 298.882 333.278 300.688 334.782L302.142 333.328C302.558 332.912 303.235 332.912 303.656 333.328C304.072 333.744 304.072 334.421 303.656 334.842L302.202 336.296C303.927 338.371 304.965 341.023 304.965 343.926C304.965 350.484 299.625 355.823 293.066 355.823H293.056Z" fill="#E3E3E3"/>
            <path d="M269.219 224.565C269.219 211.412 279.922 200.709 293.075 200.709C306.228 200.709 316.931 211.412 316.931 224.565C316.931 237.718 306.228 248.421 293.075 248.421C279.922 248.421 269.219 237.718 269.219 224.565ZM315.212 224.565C315.212 212.359 305.281 202.428 293.075 202.428C280.869 202.428 270.937 212.359 270.937 224.565C270.937 236.771 280.869 246.703 293.075 246.703C305.281 246.703 315.212 236.771 315.212 224.565Z" fill="#478BF9"/>
            <path d="M269.218 282.885C269.218 282.409 269.604 282.028 270.075 282.028C270.546 282.028 270.932 282.414 270.932 282.885C270.932 295.091 280.863 305.022 293.069 305.022C305.275 305.022 315.206 295.091 315.206 282.885C315.206 282.409 315.592 282.028 316.063 282.028C316.534 282.028 316.92 282.414 316.92 282.885C316.92 296.038 306.217 306.741 293.064 306.741C279.911 306.741 269.208 296.038 269.208 282.885H269.218Z" fill="#478BF9"/>
            <path d="M316.203 223.989H305.756V226.049H316.203V223.989Z" fill="#478BF9"/>
            <path d="M280.231 223.989H269.784V226.048H280.231V223.989Z" fill="#478BF9"/>
            <path d="M294.187 237.939H292.127V248.386H294.187V237.939Z" fill="#478BF9"/>
            <path d="M294.187 201.651H292.127V212.099H294.187V201.651Z" fill="#478BF9"/>
            <path d="M305.44 211.948C298.295 204.803 286.705 204.803 279.555 211.948C272.41 219.094 272.41 230.683 279.555 237.834C286.7 244.979 298.29 244.979 305.44 237.834C312.586 230.688 312.586 219.099 305.44 211.948ZM296.035 213.497C298.12 214.143 299.989 215.351 301.442 216.994L301.723 217.31L301.312 217.405C300.224 217.66 299.062 217.871 297.859 218.026L297.644 218.056L297.584 217.846C297.383 217.159 297.148 216.498 296.877 215.887C296.541 215.12 296.166 214.449 295.755 213.882L295.304 213.266L296.035 213.492V213.497ZM287.673 224.32L287.683 224.059C287.733 222.476 287.908 220.963 288.209 219.57L288.254 219.349L288.479 219.369C291.115 219.6 293.931 219.59 296.552 219.344L296.777 219.324L296.827 219.545C297.133 220.953 297.308 222.471 297.353 224.059V224.32H287.678H287.673ZM297.353 225.482V225.743C297.298 227.331 297.123 228.849 296.817 230.257L296.767 230.478L296.541 230.458C293.921 230.212 291.105 230.207 288.469 230.433L288.244 230.453L288.199 230.232C287.898 228.839 287.723 227.331 287.673 225.743L287.663 225.482H297.343H297.353ZM292.513 213.061C293.971 213.061 295.454 214.91 296.381 217.891L296.476 218.192L296.161 218.217C294.928 218.322 293.655 218.377 292.378 218.377C291.19 218.377 290.008 218.332 288.855 218.237L288.539 218.212L288.635 217.906C289.562 214.915 291.05 213.056 292.513 213.056V213.061ZM283.534 217.049C284.997 215.381 286.881 214.153 288.99 213.502L289.727 213.276L289.271 213.897C288.86 214.459 288.479 215.135 288.149 215.897C287.883 216.498 287.642 217.169 287.432 217.891L287.372 218.096L287.156 218.071C285.944 217.921 284.771 217.721 283.669 217.465L283.253 217.37L283.534 217.049ZM280.607 224.049C280.748 222.095 281.374 220.191 282.421 218.532L282.522 218.377L282.702 218.422C283.985 218.748 285.368 219.008 286.821 219.194L287.091 219.229L287.036 219.499C286.736 220.952 286.565 222.491 286.52 224.074V224.32H280.592L280.613 224.049H280.607ZM282.522 231.425L282.421 231.269C281.374 229.616 280.748 227.707 280.607 225.753L280.587 225.482H286.51V225.728C286.56 227.311 286.736 228.854 287.031 230.302L287.086 230.573L286.816 230.608C285.368 230.793 283.98 231.054 282.697 231.38L282.517 231.425H282.522ZM288.99 236.305C286.881 235.654 284.997 234.426 283.534 232.758L283.253 232.437L283.669 232.342C284.771 232.091 285.944 231.886 287.156 231.735L287.372 231.71L287.432 231.916C287.642 232.637 287.883 233.309 288.149 233.91C288.484 234.677 288.86 235.348 289.271 235.914L289.727 236.536L288.99 236.31V236.305ZM292.513 236.741C291.05 236.741 289.562 234.882 288.635 231.891L288.539 231.585L288.855 231.56C291.245 231.37 293.791 231.375 296.161 231.58L296.476 231.605L296.381 231.906C295.449 234.882 293.966 236.736 292.513 236.736V236.741ZM301.442 232.808C299.989 234.451 298.115 235.659 296.035 236.305L295.304 236.531L295.755 235.914C296.166 235.353 296.541 234.677 296.877 233.91C297.143 233.294 297.383 232.637 297.584 231.951L297.644 231.74L297.859 231.771C299.062 231.926 300.224 232.136 301.312 232.392L301.723 232.492L301.442 232.808ZM304.413 225.753C304.273 227.727 303.637 229.656 302.564 231.33L302.464 231.485L302.284 231.44C301.016 231.104 299.638 230.839 298.195 230.643L297.924 230.608L297.98 230.343C298.28 228.889 298.456 227.341 298.501 225.733V225.487H304.428L304.408 225.758L304.413 225.753ZM298.511 224.32V224.074C298.461 222.466 298.285 220.912 297.985 219.464L297.929 219.199L298.2 219.164C299.643 218.968 301.016 218.703 302.289 218.367L302.469 218.322L302.569 218.477C303.642 220.151 304.283 222.075 304.418 224.054L304.438 224.325H298.516L298.511 224.32Z" fill="#478BF9"/>
            <path d="M269.188 283.245V225.673C269.188 225.196 269.573 224.816 270.044 224.816C270.515 224.816 270.901 225.202 270.901 225.673V283.245C270.901 283.721 270.515 284.102 270.044 284.102C269.573 284.102 269.188 283.716 269.188 283.245Z" fill="#478BF9"/>
            <path d="M315.186 283.376V225.803C315.186 225.327 315.571 224.946 316.042 224.946C316.513 224.946 316.899 225.332 316.899 225.803V283.376C316.899 283.852 316.513 284.233 316.042 284.233C315.571 284.233 315.186 283.847 315.186 283.376Z" fill="#478BF9"/>
            <path d="M276.171 180.822C266.86 171.51 266.86 156.36 276.171 147.048C285.483 137.736 300.634 137.736 309.946 147.048C319.257 156.36 319.257 171.51 309.946 180.822C300.634 190.134 285.483 190.134 276.171 180.822ZM308.82 148.174C300.129 139.482 285.988 139.482 277.299 148.174C268.608 156.865 268.608 171.005 277.299 179.695C285.991 188.386 300.131 188.386 308.82 179.695C317.511 171.003 317.511 156.863 308.82 148.174Z" fill="#E3E3E3"/>
            <path d="M309.08 158.869C308.996 158.785 308.928 158.679 308.89 158.561C308.063 156.115 306.713 153.948 304.879 152.114C303.047 150.282 300.878 148.932 298.432 148.103C298.108 147.992 297.891 147.691 297.891 147.349V141.545C297.891 141.301 298.004 141.07 298.196 140.918C298.391 140.766 298.642 140.714 298.878 140.773C303.058 141.819 306.886 143.989 309.943 147.048C313 150.108 315.169 153.932 316.216 158.113C316.275 158.351 316.22 158.602 316.071 158.797C315.919 158.991 315.688 159.102 315.443 159.102H309.639C309.422 159.102 309.223 159.014 309.075 158.867L309.08 158.869ZM306.005 150.988C307.875 152.859 309.286 155.051 310.205 157.51H314.404C313.349 153.996 311.431 150.785 308.82 148.174C306.208 145.563 302.997 143.644 299.485 142.591V146.79C301.944 147.707 304.136 149.118 306.007 150.991L306.005 150.988Z" fill="#E3E3E3"/>
            <path d="M276.173 180.822C273.116 177.765 270.945 173.938 269.898 169.757C269.839 169.52 269.894 169.268 270.043 169.076C270.195 168.881 270.426 168.77 270.671 168.77H276.475C276.817 168.77 277.12 168.987 277.229 169.311C278.055 171.757 279.405 173.924 281.239 175.759C283.071 177.591 285.241 178.94 287.687 179.769C288.01 179.878 288.228 180.181 288.228 180.523V186.327C288.228 186.572 288.115 186.803 287.922 186.955C287.727 187.106 287.476 187.158 287.238 187.1C283.058 186.053 279.233 183.884 276.173 180.827V180.822ZM271.714 170.36C272.77 173.874 274.688 177.086 277.299 179.697C279.91 182.308 283.121 184.226 286.636 185.281V181.083C284.177 180.165 281.984 178.755 280.114 176.884C278.243 175.013 276.832 172.821 275.913 170.362H271.714V170.36Z" fill="#E3E3E3"/>
            <path d="M298.125 186.887C297.976 186.737 297.892 186.536 297.892 186.323V180.519C297.892 180.177 298.109 179.873 298.433 179.764C300.879 178.938 303.046 177.588 304.881 175.754C306.715 173.92 308.062 171.752 308.891 169.307C309 168.983 309.303 168.765 309.645 168.765H315.449C315.694 168.765 315.925 168.879 316.077 169.071C316.228 169.264 316.281 169.517 316.222 169.753C315.173 173.933 313.004 177.758 309.946 180.817C306.889 183.877 303.062 186.046 298.882 187.093C298.644 187.152 298.393 187.097 298.2 186.948C298.175 186.925 298.15 186.905 298.128 186.882L298.125 186.887ZM299.484 181.08V185.279C302.999 184.223 306.21 182.305 308.821 179.694C311.432 177.083 313.348 173.872 314.405 170.357H310.207C309.29 172.817 307.879 175.007 306.006 176.879C304.136 178.75 301.943 180.163 299.484 181.08Z" fill="#E3E3E3"/>
            <path d="M270.106 158.869C270.083 158.847 270.06 158.822 270.042 158.797C269.89 158.604 269.838 158.351 269.897 158.113C270.943 153.933 273.113 150.105 276.172 147.048C279.232 143.991 283.057 141.819 287.237 140.773C287.475 140.714 287.726 140.769 287.919 140.918C288.111 141.07 288.224 141.301 288.224 141.545V147.349C288.224 147.691 288.007 147.995 287.683 148.104C285.237 148.93 283.07 150.28 281.236 152.114C279.404 153.946 278.054 156.116 277.225 158.561C277.117 158.885 276.813 159.103 276.471 159.103H270.667C270.454 159.103 270.25 159.019 270.103 158.872L270.106 158.869ZM286.632 142.592C283.118 143.647 279.907 145.565 277.296 148.176C274.685 150.787 272.769 153.998 271.711 157.513H275.91C276.827 155.054 278.238 152.864 280.11 150.991C281.981 149.12 284.173 147.709 286.632 146.79V142.592Z" fill="#E3E3E3"/>
            <path d="M306.005 150.989C298.867 143.851 287.25 143.849 280.112 150.989C272.971 158.129 272.974 169.744 280.112 176.882C287.25 184.02 298.865 184.022 306.005 176.882C313.145 169.742 313.143 158.127 306.005 150.989Z" fill="#E3E3E3"/>
            <path d="M299.663 170.471L286.511 170.558C285.957 170.561 285.511 171.014 285.514 171.568L285.518 172.036C285.521 172.59 285.973 173.037 286.527 173.033L299.68 172.946C300.234 172.942 300.68 172.49 300.676 171.936L300.673 171.467C300.67 170.913 300.217 170.467 299.663 170.471Z" fill="#110A1D"/>
            <path d="M288.303 162.531C288.16 162.531 288.015 162.5 287.884 162.436L286.858 161.94C286.412 161.723 286.208 161.195 286.394 160.736L286.865 159.563C287.01 159.205 287.352 158.972 287.737 158.969C287.902 158.969 288.065 159.01 288.21 159.094L289.433 159.791C289.662 159.92 289.827 160.145 289.886 160.403C289.945 160.661 289.893 160.933 289.743 161.15L289.073 162.122C288.898 162.375 288.609 162.529 288.301 162.529L288.303 162.531Z" fill="#110A1D"/>
            <path d="M297.77 162.468C297.462 162.468 297.169 162.321 296.993 162.07L296.329 161.134C296.175 160.919 296.121 160.647 296.175 160.389C296.23 160.131 296.393 159.905 296.621 159.771L297.883 159.031C298.025 158.947 298.189 158.901 298.354 158.899C298.739 158.897 299.085 159.126 299.235 159.481L299.71 160.62C299.901 161.078 299.704 161.61 299.262 161.832L298.189 162.369C298.059 162.432 297.914 162.468 297.772 162.468H297.77Z" fill="#110A1D"/>
            <path d="M287.269 169.678C286.692 169.683 286.173 169.321 285.976 168.777L283.782 162.738C283.641 162.805 283.492 162.858 283.34 162.896C283.161 162.941 282.98 162.964 282.797 162.964C282.69 162.964 282.586 162.959 282.484 162.946C281.34 162.801 280.473 161.82 280.466 160.665C280.457 159.388 281.49 158.342 282.767 158.333C284.044 158.324 285.091 159.357 285.097 160.634C285.097 160.928 285.048 161.211 284.943 161.476C284.887 161.621 284.817 161.759 284.735 161.891L288.909 163.911L292.102 159.284C291.968 159.227 291.839 159.157 291.717 159.073C291.486 158.917 291.284 158.722 291.121 158.494C290.845 158.104 290.695 157.645 290.693 157.169C290.684 155.892 291.717 154.845 292.994 154.836C293.051 154.836 293.11 154.836 293.166 154.841C294.31 154.918 295.234 155.835 295.318 156.979C295.356 157.52 295.213 158.039 294.905 158.48C294.742 158.711 294.543 158.908 294.314 159.064C294.194 159.148 294.065 159.218 293.932 159.275L297.181 163.854L301.287 161.8C301.21 161.653 301.149 161.499 301.104 161.338C301.049 161.143 301.02 160.939 301.02 160.733C301.02 160.641 301.024 160.548 301.033 160.457C301.165 159.293 302.147 158.41 303.318 158.403C304.596 158.394 305.642 159.427 305.649 160.704C305.658 161.922 304.711 162.946 303.495 163.03L303.35 163.034C303.114 163.034 302.884 163.003 302.659 162.935C302.514 162.889 302.374 162.833 302.243 162.76L300.182 168.682C299.994 169.228 299.478 169.595 298.9 169.599L287.269 169.676V169.678Z" fill="#110A1D"/>
            <path d="M293.059 127.161C286.942 127.161 280.83 124.835 276.171 120.178C266.86 110.868 266.86 95.7225 276.171 86.4128C280.684 81.9008 286.681 79.4192 293.059 79.4192C299.437 79.4192 305.434 81.9008 309.947 86.4128C319.258 95.7225 319.258 110.868 309.947 120.178C305.293 124.83 299.176 127.161 293.059 127.161ZM277.425 118.924C286.044 127.542 300.069 127.542 308.688 118.924C317.307 110.306 317.307 96.284 308.688 87.6661C304.511 83.49 298.961 81.1939 293.054 81.1939C287.147 81.1939 281.597 83.495 277.42 87.6661C268.801 96.284 268.801 110.306 277.42 118.924H277.425Z" fill="#7DDACF"/>
            <path d="M293.944 98.2693L289.521 104.466H292.174V108.888L296.596 102.696H293.944V98.2693Z" fill="#7DDACF"/>
            <path d="M293.055 94.8252C288.212 94.8252 284.281 98.7556 284.281 103.599C284.281 108.441 288.212 112.362 293.055 112.362C297.899 112.362 301.83 108.431 301.83 103.599C301.83 98.7657 297.899 94.8252 293.055 94.8252ZM293.055 111.279C288.804 111.279 285.354 107.83 285.354 103.578C285.354 99.3272 288.804 95.878 293.055 95.878C297.307 95.878 300.757 99.3272 300.757 103.578C300.757 107.83 297.307 111.279 293.055 111.279Z" fill="#7DDACF"/>
            <path d="M306.619 89.7368C302.999 86.1121 298.18 84.1218 293.056 84.1218C287.932 84.1218 283.118 86.1171 279.493 89.7368C272.017 97.2116 272.017 109.379 279.493 116.859C283.233 120.599 288.142 122.469 293.056 122.469C297.97 122.469 302.879 120.599 306.619 116.859C314.095 109.384 314.095 97.2167 306.619 89.7368ZM293.056 115.5C286.498 115.5 281.157 110.161 281.157 103.604C281.157 100.706 282.195 98.0489 283.92 95.9733L282.466 94.5195C282.05 94.1034 282.05 93.4266 282.466 93.0055C282.882 92.5843 283.559 92.5894 283.98 93.0055L285.435 94.4593C287.24 92.9503 289.511 91.9577 291.988 91.7471V90.7645H291.005C290.138 90.7645 289.421 90.0476 289.421 89.1803V88.3531C289.421 87.4757 290.138 86.7689 291.005 86.7689H295.117C295.984 86.7689 296.701 87.4757 296.701 88.3531V89.1803C296.701 90.0476 295.984 90.7645 295.117 90.7645H294.134V91.7471C296.616 91.9627 298.882 92.9553 300.688 94.4593L302.142 93.0055C302.558 92.5894 303.235 92.5894 303.656 93.0055C304.072 93.4216 304.072 94.0983 303.656 94.5195L302.202 95.9733C303.927 98.0489 304.965 100.701 304.965 103.604C304.965 110.161 299.625 115.5 293.066 115.5H293.056Z" fill="#7DDACF"/>
            <path d="M293.059 66.5159C279.895 66.5159 269.188 55.804 269.188 42.6449C269.188 29.4858 279.9 18.7739 293.059 18.7739C306.218 18.7739 316.93 29.4858 316.93 42.6449C316.93 55.804 306.218 66.5159 293.059 66.5159ZM293.059 20.3636C280.772 20.3636 270.778 30.3584 270.778 42.6449C270.778 54.9314 280.772 64.9261 293.059 64.9261C305.346 64.9261 315.34 54.9314 315.34 42.6449C315.34 30.3584 305.346 20.3636 293.059 20.3636Z" fill="#E3E3E3"/>
            <path d="M308.635 25.6109L301.245 33.001L302.699 34.4549L310.089 27.0648L308.635 25.6109Z" fill="#E3E3E3"/>
            <path d="M283.198 51.0494L275.808 58.4395L277.262 59.8933L284.652 52.5033L283.198 51.0494Z" fill="#E3E3E3"/>
            <path d="M302.924 51.0483L301.47 52.5022L308.86 59.8922L310.314 58.4383L302.924 51.0483Z" fill="#E3E3E3"/>
            <path d="M277.266 25.3869L275.812 26.8408L283.199 34.2273L284.653 32.7734L277.266 25.3869Z" fill="#E3E3E3"/>
            <path d="M298.887 43.2862C299.369 42.8048 299.369 42.0275 298.887 41.5511L297.864 40.533C297.383 40.0516 296.606 40.0516 296.129 40.533L295.578 41.0847L294.941 40.4478C294.459 39.9664 293.682 39.9664 293.206 40.4478L292.654 41.0044L292.017 40.3625C291.536 39.8811 290.758 39.8811 290.282 40.3625L286.897 43.7476C286.872 43.7727 286.872 43.8128 286.897 43.8429C287.348 44.2942 288.085 44.2942 288.542 43.8429L290.723 41.6614C290.959 41.4257 291.34 41.4257 291.576 41.6614L291.736 41.8219C291.766 41.852 291.766 41.8971 291.736 41.9272L289.916 43.7476C289.891 43.7727 289.891 43.8128 289.916 43.8429C290.367 44.2942 291.104 44.2942 291.561 43.8429L293.652 41.7517C293.888 41.516 294.269 41.516 294.504 41.7517L294.665 41.9121C294.69 41.9372 294.69 41.9773 294.665 42.0074L292.91 43.7626C292.885 43.7877 292.885 43.8278 292.91 43.8579C293.361 44.3093 294.098 44.3093 294.555 43.8579L296.576 41.8369C296.811 41.6012 297.192 41.6012 297.428 41.8369L297.774 42.183C297.909 42.3184 297.909 42.544 297.774 42.6794L297.719 42.7346C297.584 42.87 297.358 42.87 297.222 42.7346L296.776 42.2883C296.751 42.2632 296.711 42.2632 296.681 42.2883L295.909 43.0606C295.883 43.0856 295.883 43.1258 295.909 43.1558L296.606 43.8529C297.087 44.3343 297.864 44.3343 298.341 43.8529L298.892 43.3013L298.887 43.2862Z" fill="#E3E3E3"/>
            <path d="M293.06 24.3347C282.95 24.3347 274.756 32.5291 274.756 42.6391C274.756 52.7492 282.95 60.9435 293.06 60.9435C303.17 60.9435 311.365 52.7492 311.365 42.6391C311.365 32.5291 303.17 24.3347 293.06 24.3347ZM293.808 29.9865C296.746 30.157 299.414 31.3305 301.48 33.166L298.837 35.8088C297.458 34.6404 295.718 33.8831 293.808 33.7226V29.9865ZM292.318 29.9865V33.7226C290.407 33.8781 288.667 34.6404 287.288 35.8088L284.645 33.166C286.711 31.3305 289.379 30.157 292.318 29.9865ZM283.592 34.2191L286.235 36.862C285.067 38.2411 284.309 39.9812 284.149 41.8919H280.413C280.583 38.9532 281.757 36.2852 283.592 34.2191ZM280.413 43.3813H284.149C284.304 45.292 285.067 47.0322 286.235 48.4113L283.592 51.0541C281.757 48.988 280.583 46.3201 280.413 43.3813ZM292.318 55.2867C289.379 55.1162 286.711 53.9427 284.645 52.1073L287.288 49.4644C288.667 50.6329 290.407 51.3901 292.318 51.5506V55.2867ZM285.367 42.6341C285.367 38.3865 288.813 34.9412 293.06 34.9412C297.308 34.9412 300.753 38.3865 300.753 42.6341C300.753 46.8817 297.308 50.327 293.06 50.327C288.813 50.327 285.367 46.8817 285.367 42.6341ZM293.808 55.2867V51.5506C295.718 51.3952 297.458 50.6329 298.837 49.4644L301.48 52.1073C299.414 53.9427 296.746 55.1162 293.808 55.2867ZM302.533 51.0541L299.891 48.4113C301.059 47.0322 301.816 45.292 301.977 43.3813H305.713C305.542 46.3201 304.369 48.988 302.533 51.0541ZM301.977 41.8919C301.821 39.9812 301.059 38.2411 299.891 36.862L302.533 34.2191C304.369 36.2852 305.542 38.9532 305.713 41.8919H301.977Z" fill="#E3E3E3"/>
            <path d="M276.171 -1.11313C266.86 -10.4251 266.86 -25.5752 276.171 -34.8871C285.483 -44.1991 300.634 -44.1991 309.946 -34.8871C319.257 -25.5752 319.257 -10.4251 309.946 -1.11313C300.634 8.19883 285.483 8.19883 276.171 -1.11313ZM308.82 -33.7616C300.129 -42.4531 285.988 -42.4531 277.299 -33.7616C268.608 -25.0702 268.608 -10.9301 277.299 -2.24089C285.991 6.45058 300.131 6.45058 308.82 -2.24089C317.511 -10.9324 317.511 -25.0724 308.82 -33.7616Z" fill="#7DDACF"/>
            <path d="M276.173 -1.11317C273.116 -4.17036 270.945 -7.9975 269.898 -12.1779C269.839 -12.4157 269.894 -12.6671 270.043 -12.8596C270.195 -13.0543 270.426 -13.1653 270.671 -13.1653H276.475C276.817 -13.1653 277.12 -12.9479 277.229 -12.624C278.055 -10.1783 279.405 -8.01108 281.239 -6.17677C283.071 -4.34472 285.241 -2.99504 287.687 -2.16621C288.01 -2.05751 288.228 -1.75405 288.228 -1.4121V4.39203C288.228 4.6366 288.115 4.8676 287.922 5.01932C287.727 5.17105 287.476 5.22313 287.238 5.16425C283.058 4.11801 279.233 1.94855 276.173 -1.10864V-1.11317ZM271.714 -11.5755C272.77 -8.06091 274.688 -4.84974 277.299 -2.23867C279.91 0.372389 283.121 2.2905 286.636 3.34579V-0.852751C284.177 -1.76991 281.984 -3.18074 280.114 -5.05128C278.243 -6.92183 276.832 -9.11394 275.913 -11.5733H271.714V-11.5755Z" fill="#7DDACF"/>
            <path d="M298.125 4.95126C297.975 4.8018 297.892 4.60025 297.892 4.38738V-1.41675C297.892 -1.7587 298.109 -2.06214 298.433 -2.17084C300.879 -2.99741 303.046 -4.34711 304.88 -6.18142C306.714 -8.01573 308.062 -10.1829 308.891 -12.6287C308.999 -12.9525 309.303 -13.1699 309.645 -13.1699H315.449C315.694 -13.1699 315.925 -13.0567 316.076 -12.8642C316.228 -12.6717 316.28 -12.4181 316.221 -12.1826C315.173 -8.00215 313.003 -4.17727 309.946 -1.11782C306.889 1.94163 303.062 4.11111 298.881 5.15734C298.643 5.21622 298.392 5.16187 298.2 5.01241C298.175 4.98976 298.15 4.96939 298.127 4.94674L298.125 4.95126ZM299.484 -0.85512V3.34341C302.998 2.28812 306.209 0.370021 308.82 -2.24104C311.432 -4.85211 313.347 -8.06329 314.405 -11.5779H310.206C309.289 -9.11859 307.878 -6.92874 306.006 -5.05593C304.135 -3.18539 301.943 -1.77228 299.484 -0.85512Z" fill="#7DDACF"/>
            <path d="M306.005 -30.9467C298.867 -38.0847 287.25 -38.0869 280.112 -30.9467C272.971 -23.8065 272.974 -12.1914 280.112 -5.05346C287.25 2.0845 298.865 2.08677 306.005 -5.05346C313.145 -12.1937 313.143 -23.8087 306.005 -30.9467Z" fill="#7DDACF"/>
        </g>
        <g opacity="0.1">
            <path d="M264.733 375.866C264.733 376.342 264.347 376.723 263.875 376.723C263.404 376.723 263.018 376.337 263.018 375.866C263.018 363.655 253.083 353.719 240.872 353.719C228.66 353.719 218.725 363.655 218.725 375.866C218.725 376.342 218.339 376.723 217.868 376.723C217.397 376.723 217.011 376.337 217.011 375.866C217.011 362.707 227.718 352 240.877 352C254.035 352 264.743 362.707 264.743 375.866H264.733Z" fill="#478BF9"/>
            <path d="M240.872 339.097C234.755 339.097 228.642 336.771 223.984 332.113C214.673 322.803 214.673 307.658 223.984 298.348C228.497 293.836 234.494 291.355 240.872 291.355C247.25 291.355 253.246 293.836 257.759 298.348C267.07 307.658 267.07 322.803 257.759 332.113C253.106 336.766 246.989 339.097 240.872 339.097ZM225.238 330.86C233.857 339.478 247.881 339.478 256.501 330.86C265.12 322.242 265.12 308.22 256.501 299.602C252.324 295.426 246.773 293.129 240.867 293.129C234.96 293.129 229.41 295.431 225.233 299.602C216.614 308.22 216.614 322.242 225.233 330.86H225.238Z" fill="#9DADF2"/>
            <path d="M240.557 324.162C240.642 324.368 240.842 324.488 241.053 324.488C241.123 324.488 241.193 324.473 241.264 324.448C242.948 323.741 244.483 322.648 245.696 321.284C245.892 321.064 245.872 320.723 245.651 320.528C245.43 320.332 245.089 320.352 244.894 320.573C243.786 321.821 242.387 322.819 240.847 323.46C240.577 323.576 240.446 323.891 240.562 324.162H240.557Z" fill="#9DADF2"/>
            <path d="M249.972 306.976L241.067 303.417C240.936 303.367 240.796 303.367 240.666 303.417L231.761 306.976C231.555 307.057 231.425 307.252 231.425 307.473V313.85C231.435 319.735 235.155 325.055 240.681 327.08C240.741 327.1 240.801 327.11 240.866 327.11C240.931 327.11 240.992 327.1 241.052 327.08C246.577 325.05 250.298 319.735 250.308 313.85V307.473C250.308 307.252 250.177 307.057 249.972 306.976ZM249.235 313.85C249.225 319.204 245.865 324.082 240.871 326.002C235.877 324.082 232.513 319.204 232.503 313.85V307.839L240.871 304.495L249.235 307.839V313.85Z" fill="#9DADF2"/>
            <path d="M237.152 307.814C237.022 307.758 236.876 307.758 236.741 307.814L234.62 308.661C234.415 308.741 234.284 308.937 234.284 309.157V311.418C234.284 311.714 234.525 311.955 234.821 311.955C235.117 311.955 235.357 311.714 235.357 311.418V309.523L237.137 308.811C237.273 308.756 237.373 308.656 237.433 308.52C237.488 308.39 237.488 308.245 237.433 308.109C237.378 307.974 237.278 307.874 237.147 307.814H237.152Z" fill="#9DADF2"/>
            <path d="M254.435 301.672C250.815 298.048 245.997 296.057 240.872 296.057C235.748 296.057 230.934 298.053 227.309 301.672C219.833 309.147 219.833 321.315 227.309 328.794C231.05 332.534 235.958 334.399 240.872 334.399C245.786 334.399 250.695 332.529 254.435 328.794C261.911 321.32 261.911 309.152 254.435 301.672ZM251.783 313.85C251.798 320.653 247.451 326.604 240.967 328.664C240.907 328.684 240.842 328.684 240.777 328.664C234.294 326.604 229.947 320.653 229.962 313.85V306.325C229.962 306.199 230.037 306.084 230.157 306.034L240.757 301.798C240.792 301.783 240.832 301.778 240.872 301.778C240.912 301.778 240.952 301.783 240.988 301.798L251.587 306.039C251.708 306.084 251.783 306.199 251.783 306.33V313.855V313.85Z" fill="#9DADF2"/>
            <path d="M240.872 278.451C227.708 278.451 217.001 267.74 217.001 254.58C217.001 241.421 227.713 230.709 240.872 230.709C254.031 230.709 264.743 241.421 264.743 254.58C264.743 267.74 254.031 278.451 240.872 278.451ZM240.872 232.299C228.585 232.299 218.591 242.294 218.591 254.58C218.591 266.867 228.585 276.862 240.872 276.862C253.159 276.862 263.153 266.867 263.153 254.58C263.153 242.294 253.159 232.299 240.872 232.299Z" fill="#7DDACF"/>
            <path d="M256.449 237.547L249.059 244.937L250.512 246.391L257.903 239.001L256.449 237.547Z" fill="#7DDACF"/>
            <path d="M231.01 262.985L223.62 270.375L225.074 271.829L232.464 264.439L231.01 262.985Z" fill="#7DDACF"/>
            <path d="M250.731 262.989L249.277 264.443L256.667 271.833L258.121 270.379L250.731 262.989Z" fill="#7DDACF"/>
            <path d="M225.072 237.328L223.618 238.782L231.005 246.168L232.459 244.714L225.072 237.328Z" fill="#7DDACF"/>
            <path d="M246.694 255.223C247.175 254.741 247.175 253.964 246.694 253.488L245.671 252.47C245.189 251.988 244.412 251.988 243.935 252.47L243.384 253.021L242.747 252.384C242.265 251.903 241.488 251.903 241.012 252.384L240.46 252.941L239.823 252.299C239.342 251.818 238.564 251.818 238.088 252.299L234.703 255.684C234.678 255.709 234.678 255.749 234.703 255.779C235.154 256.231 235.891 256.231 236.348 255.779L238.529 253.598C238.765 253.362 239.146 253.362 239.382 253.598L239.542 253.758C239.572 253.789 239.572 253.834 239.542 253.864L237.722 255.684C237.697 255.709 237.697 255.749 237.722 255.779C238.173 256.231 238.91 256.231 239.367 255.779L241.458 253.688C241.694 253.453 242.075 253.453 242.311 253.688L242.471 253.849C242.496 253.874 242.496 253.914 242.471 253.944L240.716 255.699C240.691 255.724 240.691 255.764 240.716 255.794C241.167 256.246 241.904 256.246 242.361 255.794L244.382 253.773C244.617 253.538 244.999 253.538 245.234 253.773L245.58 254.119C245.716 254.255 245.716 254.481 245.58 254.616L245.525 254.671C245.39 254.807 245.164 254.807 245.029 254.671L244.582 254.225C244.557 254.2 244.517 254.2 244.487 254.225L243.715 254.997C243.69 255.022 243.69 255.062 243.715 255.092L244.412 255.789C244.893 256.271 245.671 256.271 246.147 255.789L246.699 255.238L246.694 255.223Z" fill="#7DDACF"/>
            <path d="M240.872 236.276C230.762 236.276 222.567 244.47 222.567 254.581C222.567 264.691 230.762 272.885 240.872 272.885C250.982 272.885 259.176 264.691 259.176 254.581C259.176 244.47 250.982 236.276 240.872 236.276ZM241.619 241.928C244.558 242.098 247.226 243.272 249.292 245.107L246.649 247.75C245.27 246.582 243.53 245.825 241.619 245.664V241.928ZM240.13 241.928V245.664C238.219 245.82 236.479 246.582 235.1 247.75L232.457 245.107C234.523 243.272 237.191 242.098 240.13 241.928ZM231.404 246.161L234.047 248.803C232.878 250.182 232.121 251.923 231.96 253.833H228.224C228.395 250.895 229.568 248.227 231.404 246.161ZM228.224 255.323H231.96C232.116 257.233 232.878 258.974 234.047 260.353L231.404 262.996C229.568 260.929 228.395 258.262 228.224 255.323ZM240.13 267.228C237.191 267.058 234.523 265.884 232.457 264.049L235.1 261.406C236.479 262.574 238.219 263.332 240.13 263.492V267.228ZM233.179 254.576C233.179 250.328 236.624 246.883 240.872 246.883C245.119 246.883 248.565 250.328 248.565 254.576C248.565 258.823 245.119 262.268 240.872 262.268C236.624 262.268 233.179 258.823 233.179 254.576ZM241.619 267.228V263.492C243.53 263.337 245.27 262.574 246.649 261.406L249.292 264.049C247.226 265.884 244.558 267.058 241.619 267.228ZM250.345 262.996L247.702 260.353C248.871 258.974 249.628 257.233 249.788 255.323H253.524C253.354 258.262 252.18 260.929 250.345 262.996ZM249.788 253.833C249.633 251.923 248.871 250.182 247.702 248.803L250.345 246.161C252.18 248.227 253.354 250.895 253.524 253.833H249.788Z" fill="#7DDACF"/>
            <path d="M264.733 133.237C264.733 146.396 254.026 157.103 240.867 157.103C227.708 157.103 217.001 146.396 217.001 133.237C217.001 120.079 227.708 109.371 240.867 109.371C254.026 109.371 264.733 120.079 264.733 133.237ZM218.72 133.237C218.72 145.448 228.656 155.384 240.867 155.384C253.078 155.384 263.014 145.448 263.014 133.237C263.014 121.026 253.078 111.091 240.867 111.091C228.656 111.091 218.72 121.026 218.72 133.237Z" fill="#478BF9"/>
            <path d="M264.733 74.8982C264.733 75.3744 264.347 75.7554 263.875 75.7554C263.404 75.7554 263.018 75.3694 263.018 74.8982C263.018 62.687 253.083 52.7516 240.872 52.7516C228.66 52.7516 218.725 62.687 218.725 74.8982C218.725 75.3744 218.339 75.7554 217.868 75.7554C217.397 75.7554 217.011 75.3694 217.011 74.8982C217.011 61.7396 227.718 51.0322 240.877 51.0322C254.035 51.0322 264.743 61.7396 264.743 74.8982H264.733Z" fill="#478BF9"/>
            <path d="M236.27 129.021C236.27 129.899 236.867 130.661 237.719 130.871L239.338 131.277V127.112H238.185C237.132 127.112 236.275 127.969 236.275 129.021H236.27Z" fill="#478BF9"/>
            <path d="M242.396 139.363H243.549C244.601 139.363 245.458 138.505 245.458 137.453C245.458 136.576 244.862 135.814 244.01 135.603L242.391 135.197V139.363H242.396Z" fill="#478BF9"/>
            <path d="M240.867 113.818C230.16 113.818 221.442 122.53 221.442 133.242C221.442 143.955 230.155 152.667 240.867 152.667C251.579 152.667 260.292 143.955 260.292 133.242C260.292 122.53 251.579 113.818 240.867 113.818ZM248.527 130.174H245.464V128.64C245.464 127.798 244.777 127.107 243.93 127.107H242.396V132.039L244.757 132.631C246.973 133.187 248.522 135.167 248.522 137.453C248.522 140.195 246.291 142.426 243.549 142.426H242.396V146.306H239.333V142.426H237.799C235.263 142.426 233.202 140.365 233.202 137.829V136.295H236.265V137.829C236.265 138.671 236.952 139.363 237.799 139.363H239.333V134.43L236.972 133.839C234.756 133.282 233.207 131.302 233.207 129.016C233.207 126.274 235.438 124.044 238.18 124.044H239.333V120.164H242.396V124.044H243.93C246.466 124.044 248.527 126.104 248.527 128.64V130.174Z" fill="#478BF9"/>
            <path d="M264.743 74.5228V132.096C264.743 132.572 264.357 132.953 263.886 132.953C263.415 132.953 263.029 132.567 263.029 132.096V74.5228C263.029 74.0468 263.415 73.666 263.886 73.666C264.357 73.666 264.743 74.0518 264.743 74.5228Z" fill="#478BF9"/>
            <path d="M218.751 74.3973V131.971C218.751 132.447 218.365 132.828 217.894 132.828C217.423 132.828 217.038 132.442 217.038 131.971V74.3973C217.038 73.9213 217.423 73.5405 217.894 73.5405C218.365 73.5405 218.751 73.9263 218.751 74.3973Z" fill="#478BF9"/>
            <path d="M240.869 217.806C227.706 217.806 217.001 207.095 217.001 193.935C217.001 180.776 227.711 170.064 240.869 170.064C254.026 170.064 264.737 180.776 264.737 193.935C264.737 207.095 254.026 217.806 240.869 217.806ZM240.869 171.654C228.584 171.654 218.59 181.649 218.59 193.935C218.59 206.222 228.584 216.217 240.869 216.217C253.154 216.217 263.147 206.222 263.147 193.935C263.147 181.649 253.154 171.654 240.869 171.654Z" fill="#9DADF2"/>
            <path d="M248.611 179.031C248.49 179.031 248.37 179.006 248.26 178.951C245.948 177.807 243.461 177.226 240.869 177.226C238.276 177.226 235.789 177.807 233.478 178.951C233.172 179.101 232.806 179.041 232.565 178.8L228.463 174.698C228.288 174.523 228.208 174.282 228.238 174.036C228.268 173.791 228.408 173.575 228.619 173.45C232.314 171.233 236.551 170.064 240.874 170.064C245.196 170.064 249.433 171.238 253.128 173.45C253.339 173.575 253.479 173.791 253.509 174.036C253.54 174.282 253.454 174.523 253.284 174.698L249.182 178.8C249.027 178.951 248.826 179.031 248.616 179.031H248.611ZM240.869 175.636C243.511 175.636 246.058 176.188 248.445 177.276L251.414 174.307C248.184 172.567 244.559 171.654 240.869 171.654C237.178 171.654 233.553 172.567 230.324 174.307L233.292 177.276C235.679 176.188 238.226 175.636 240.869 175.636Z" fill="#9DADF2"/>
            <path d="M240.869 217.806C236.547 217.806 232.31 216.633 228.614 214.421C228.403 214.296 228.263 214.08 228.233 213.835C228.203 213.589 228.288 213.348 228.459 213.173L232.56 209.07C232.801 208.83 233.172 208.769 233.473 208.92C235.784 210.063 238.272 210.645 240.864 210.645C243.456 210.645 245.943 210.063 248.255 208.92C248.561 208.769 248.927 208.83 249.168 209.07L253.269 213.173C253.445 213.348 253.525 213.589 253.495 213.835C253.465 214.08 253.324 214.296 253.114 214.421C249.418 216.638 245.181 217.806 240.859 217.806H240.869ZM230.324 213.564C233.553 215.304 237.178 216.217 240.869 216.217C244.559 216.217 248.185 215.304 251.414 213.564L248.445 210.595C246.059 211.683 243.511 212.235 240.869 212.235C238.226 212.235 235.679 211.683 233.292 210.595L230.324 213.564Z" fill="#9DADF2"/>
            <path d="M260.671 206.578C260.46 206.578 260.26 206.498 260.109 206.347L256.008 202.245C255.767 202.004 255.707 201.633 255.857 201.332C257.001 199.021 257.582 196.533 257.582 193.941C257.582 191.348 257.001 188.86 255.857 186.549C255.707 186.243 255.767 185.872 256.008 185.636L260.109 181.534C260.285 181.358 260.526 181.278 260.771 181.308C261.017 181.338 261.233 181.478 261.358 181.689C263.574 185.385 264.743 189.623 264.743 193.946C264.743 198.268 263.574 202.506 261.358 206.202C261.233 206.413 261.017 206.553 260.771 206.583C260.736 206.583 260.706 206.583 260.671 206.583V206.578ZM257.527 201.513L260.496 204.482C262.236 201.252 263.148 197.626 263.148 193.935C263.148 190.245 262.236 186.619 260.496 183.389L257.527 186.358C258.615 188.745 259.167 191.293 259.167 193.935C259.167 196.578 258.615 199.126 257.527 201.513Z" fill="#9DADF2"/>
            <path d="M221.068 206.578C221.032 206.578 221.002 206.578 220.972 206.573C220.727 206.543 220.511 206.402 220.386 206.192C218.169 202.496 217.001 198.258 217.001 193.935C217.001 189.612 218.169 185.375 220.386 181.679C220.511 181.468 220.727 181.328 220.972 181.298C221.218 181.268 221.459 181.353 221.634 181.523L225.736 185.626C225.976 185.866 226.037 186.237 225.886 186.538C224.743 188.85 224.161 191.338 224.161 193.93C224.161 196.523 224.743 199.01 225.886 201.322C226.037 201.628 225.976 201.999 225.736 202.235L221.634 206.337C221.484 206.488 221.283 206.573 221.073 206.573L221.068 206.578ZM221.243 183.389C219.503 186.619 218.59 190.244 218.59 193.935C218.59 197.626 219.503 201.252 221.243 204.482L224.211 201.513C223.123 199.126 222.572 196.578 222.572 193.935C222.572 191.292 223.123 188.745 224.211 186.358L221.243 183.389Z" fill="#9DADF2"/>
            <path d="M240.87 175.631C230.781 175.631 222.568 183.84 222.568 193.935C222.568 204.03 230.776 212.24 240.87 212.24C250.964 212.24 259.172 204.03 259.172 193.935C259.172 183.84 250.964 175.631 240.87 175.631ZM251.169 187.922C252.037 189.407 252.563 191.027 252.734 192.747C252.739 192.817 252.709 192.882 252.648 192.917C251.34 193.72 250.166 194.703 249.153 195.851C249.108 195.906 249.033 195.926 248.968 195.901L246.706 195.164C246.641 195.144 246.596 195.089 246.586 195.019C246.33 193.148 245.749 191.358 244.856 189.693C244.826 189.632 244.831 189.562 244.871 189.507L246.27 187.581C246.305 187.536 246.36 187.506 246.416 187.506C246.431 187.506 246.441 187.506 246.456 187.506C247.95 187.837 249.484 187.947 251.009 187.822C251.079 187.817 251.144 187.852 251.179 187.912L251.169 187.922ZM245.353 195.334C245.358 195.385 245.343 195.435 245.313 195.47C244.124 196.839 242.61 197.937 240.94 198.639C240.895 198.659 240.85 198.659 240.805 198.639C239.135 197.932 237.621 196.834 236.432 195.47C236.402 195.435 236.387 195.385 236.392 195.334C236.623 193.519 237.189 191.784 238.067 190.179C238.092 190.134 238.132 190.104 238.182 190.094C239.065 189.908 239.967 189.813 240.875 189.813C241.782 189.813 242.685 189.908 243.568 190.094C243.618 190.104 243.658 190.134 243.683 190.179C244.56 191.784 245.122 193.519 245.358 195.334H245.353ZM245.082 182.887C245.082 182.887 245.142 182.837 245.202 182.837C245.222 182.837 245.247 182.837 245.272 182.852C247.118 183.585 248.767 184.788 250.051 186.328C250.116 186.403 250.091 186.483 250.076 186.513C250.066 186.538 250.021 186.619 249.916 186.619C248.777 186.634 247.644 186.503 246.546 186.242C246.501 186.232 246.461 186.202 246.436 186.162C245.849 185.194 245.378 184.151 245.037 183.068C245.007 182.973 245.062 182.908 245.087 182.887H245.082ZM238.338 182.286C239.997 181.93 241.747 181.93 243.407 182.286C243.472 182.301 243.527 182.351 243.542 182.416C243.899 183.905 244.475 185.33 245.252 186.649C245.287 186.709 245.282 186.784 245.242 186.844L243.853 188.76C243.813 188.815 243.743 188.845 243.678 188.83C241.843 188.459 239.902 188.459 238.067 188.83C238.002 188.845 237.932 188.815 237.891 188.76L236.502 186.844C236.462 186.789 236.457 186.709 236.492 186.649C237.27 185.33 237.846 183.905 238.202 182.416C238.217 182.351 238.273 182.301 238.338 182.286ZM231.694 186.328C232.977 184.783 234.627 183.58 236.472 182.852C236.497 182.842 236.523 182.837 236.543 182.837C236.608 182.837 236.648 182.872 236.663 182.887C236.688 182.913 236.743 182.973 236.713 183.068C236.372 184.156 235.901 185.194 235.314 186.162C235.289 186.202 235.249 186.232 235.204 186.242C234.106 186.503 232.972 186.634 231.834 186.619C231.729 186.619 231.684 186.538 231.674 186.513C231.659 186.483 231.634 186.403 231.699 186.328H231.694ZM230.576 187.922C230.606 187.867 230.666 187.832 230.731 187.832C230.731 187.832 230.741 187.832 230.746 187.832C232.275 187.953 233.81 187.847 235.299 187.516C235.369 187.501 235.439 187.526 235.48 187.586L236.879 189.512C236.919 189.567 236.924 189.643 236.894 189.698C236.001 191.363 235.419 193.153 235.164 195.024C235.154 195.089 235.109 195.144 235.043 195.169L232.782 195.906C232.717 195.926 232.642 195.906 232.596 195.856C231.583 194.708 230.41 193.725 229.101 192.922C229.046 192.887 229.011 192.822 229.016 192.752C229.187 191.032 229.713 189.407 230.581 187.927L230.576 187.922ZM231.122 200.279C231.092 200.374 231.007 200.395 230.972 200.4C230.937 200.4 230.856 200.399 230.801 200.319C229.733 198.639 229.101 196.693 228.976 194.698C228.971 194.597 229.036 194.547 229.066 194.532C229.096 194.517 229.177 194.482 229.257 194.542C230.185 195.199 231.027 195.971 231.764 196.829C231.794 196.864 231.809 196.909 231.804 196.959C231.714 198.088 231.483 199.206 231.117 200.284L231.122 200.279ZM236.076 204.858C234.512 204.171 233.133 203.163 231.98 201.869C231.935 201.819 231.919 201.744 231.945 201.683C232.531 200.269 232.902 198.78 233.048 197.255C233.053 197.185 233.103 197.125 233.168 197.105L235.404 196.378C235.404 196.378 235.439 196.368 235.46 196.368C235.51 196.368 235.555 196.388 235.59 196.428C236.843 197.832 238.413 198.975 240.133 199.733C240.198 199.763 240.238 199.823 240.238 199.893V202.245C240.238 202.315 240.198 202.38 240.133 202.405C238.729 203.012 237.425 203.83 236.257 204.828C236.207 204.873 236.131 204.883 236.071 204.853L236.076 204.858ZM243.964 205.354C243.959 205.389 243.934 205.47 243.833 205.495C241.898 205.986 239.852 205.986 237.916 205.495C237.821 205.47 237.791 205.389 237.786 205.354C237.781 205.319 237.771 205.239 237.856 205.174C238.769 204.497 239.762 203.93 240.81 203.494C240.855 203.474 240.9 203.474 240.945 203.494C241.988 203.93 242.981 204.497 243.899 205.174C243.979 205.234 243.974 205.319 243.969 205.354H243.964ZM249.775 201.874C248.622 203.168 247.243 204.171 245.679 204.858C245.613 204.888 245.543 204.873 245.493 204.833C244.325 203.835 243.026 203.017 241.617 202.411C241.552 202.38 241.512 202.32 241.512 202.25V199.898C241.512 199.828 241.552 199.763 241.617 199.738C243.337 198.98 244.911 197.837 246.16 196.433C246.195 196.393 246.24 196.373 246.29 196.373C246.31 196.373 246.325 196.373 246.345 196.383L248.582 197.11C248.647 197.13 248.697 197.19 248.702 197.26C248.848 198.785 249.219 200.269 249.805 201.688C249.83 201.749 249.82 201.824 249.77 201.874H249.775ZM250.949 200.324C250.893 200.41 250.808 200.41 250.778 200.405C250.743 200.405 250.663 200.379 250.628 200.284C250.267 199.206 250.036 198.088 249.941 196.959C249.941 196.914 249.951 196.864 249.981 196.829C250.718 195.971 251.56 195.204 252.488 194.542C252.523 194.517 252.558 194.507 252.588 194.507C252.628 194.507 252.658 194.522 252.678 194.532C252.709 194.547 252.779 194.597 252.769 194.698C252.643 196.693 252.012 198.639 250.944 200.319L250.949 200.324Z" fill="#9DADF2"/>
            <path d="M240.872 38.1289C234.755 38.1289 228.642 35.8027 223.984 31.1454C214.673 21.8356 214.673 6.69032 223.984 -2.61944C228.497 -7.13143 234.494 -9.61304 240.872 -9.61304C247.25 -9.61304 253.246 -7.13143 257.759 -2.61944C267.07 6.69032 267.07 21.8356 257.759 31.1454C253.106 35.7977 246.989 38.1289 240.872 38.1289ZM225.238 29.892C233.857 38.5099 247.881 38.5099 256.501 29.892C265.12 21.2741 265.12 7.25181 256.501 -1.3661C252.324 -5.54221 246.773 -7.8383 240.867 -7.8383C234.96 -7.8383 229.41 -5.53719 225.233 -1.3661C216.614 7.25181 216.614 21.2741 225.233 29.892H225.238Z" fill="#9DADF2"/>
            <path d="M240.557 23.1944C240.642 23.3999 240.842 23.5202 241.053 23.5202C241.123 23.5202 241.193 23.5052 241.264 23.4801C242.948 22.7733 244.483 21.6803 245.696 20.3167C245.892 20.0961 245.872 19.7553 245.651 19.5597C245.43 19.3642 245.089 19.3843 244.894 19.6048C243.786 20.8532 242.387 21.8508 240.847 22.4925C240.577 22.6078 240.446 22.9237 240.562 23.1944H240.557Z" fill="#9DADF2"/>
            <path d="M249.972 6.0087L241.067 2.44922C240.936 2.39909 240.796 2.39909 240.666 2.44922L231.761 6.0087C231.555 6.08892 231.425 6.28443 231.425 6.50502V12.882C231.435 18.7676 235.155 24.0868 240.681 26.1121C240.741 26.1322 240.801 26.1423 240.866 26.1423C240.931 26.1423 240.992 26.1322 241.052 26.1121C246.577 24.0817 250.298 18.7676 250.308 12.882V6.50502C250.308 6.28443 250.177 6.08892 249.972 6.0087ZM249.235 12.882C249.225 18.2362 245.865 23.1142 240.871 25.0343C235.877 23.1142 232.513 18.2362 232.503 12.882V6.87098L240.871 3.5271L249.235 6.87098V12.882Z" fill="#9DADF2"/>
            <path d="M237.152 6.8458C237.022 6.79066 236.876 6.79066 236.741 6.8458L234.62 7.69309C234.415 7.7733 234.284 7.96882 234.284 8.1894V10.4504C234.284 10.7462 234.525 10.9868 234.821 10.9868C235.117 10.9868 235.357 10.7462 235.357 10.4504V8.55537L237.137 7.84351C237.273 7.78837 237.373 7.68806 237.433 7.5527C237.488 7.42235 237.488 7.27699 237.433 7.14163C237.378 7.00627 237.278 6.90596 237.147 6.8458H237.152Z" fill="#9DADF2"/>
            <path d="M254.435 0.704535C250.815 -2.9201 245.997 -4.9104 240.872 -4.9104C235.748 -4.9104 230.934 -2.91509 227.309 0.704535C219.833 8.17941 219.833 20.3468 227.309 27.8267C231.05 31.5666 235.958 33.4315 240.872 33.4315C245.786 33.4315 250.695 31.5616 254.435 27.8267C261.911 20.3518 261.911 8.18442 254.435 0.704535ZM251.783 12.8819C251.798 19.685 247.451 25.6358 240.967 27.6963C240.907 27.7164 240.842 27.7164 240.777 27.6963C234.294 25.6358 229.947 19.685 229.962 12.8819V5.35689C229.962 5.23155 230.037 5.11627 230.157 5.06614L240.757 0.829868C240.792 0.814828 240.832 0.809825 240.872 0.809825C240.912 0.809825 240.952 0.814828 240.988 0.829868L251.587 5.07116C251.708 5.11628 251.783 5.23156 251.783 5.36191V12.8869V12.8819Z" fill="#9DADF2"/>
        </g>
    </g>
    <mask id="mask1_404_7858" style="mask-type:alpha" maskUnits="userSpaceOnUse" x="-49" y="-28" width="162" height="400">
        <rect width="161.291" height="400" transform="matrix(-1 0 0 1 112.291 -28)" fill="url(#paint1_linear_404_7858)"/>
    </mask>
    <g mask="url(#mask1_404_7858)">
        <g opacity="0.5">
            <path d="M-25.1283 419.419C-19.0111 419.419 -12.8989 417.093 -8.24075 412.436C1.07048 403.126 1.07048 387.981 -8.24075 378.671C-12.7535 374.159 -18.7504 371.677 -25.1283 371.677C-31.5063 371.677 -37.5032 374.159 -42.0159 378.671C-51.3271 387.981 -51.3271 403.126 -42.0159 412.436C-37.3628 417.088 -31.2456 419.419 -25.1283 419.419ZM-9.49428 411.183C-18.1136 419.8 -32.1381 419.8 -40.7574 411.183C-49.3766 402.565 -49.3766 388.542 -40.7574 379.924C-36.5806 375.748 -31.0299 373.452 -25.1233 373.452C-19.2167 373.452 -13.666 375.753 -9.48926 379.924C-0.869978 388.542 -0.869978 402.565 -9.48926 411.183H-9.49428Z" fill="#9DADF2"/>
            <path d="M-25.1288 298.129C-19.0116 298.129 -12.8994 295.803 -8.24124 291.146C1.07 281.836 1.07 266.691 -8.24124 257.381C-12.754 252.869 -18.7508 250.387 -25.1288 250.387C-31.5068 250.387 -37.5037 252.869 -42.0164 257.381C-51.3276 266.691 -51.3276 281.836 -42.0164 291.146C-37.3633 295.798 -31.246 298.129 -25.1288 298.129ZM-9.49477 289.892C-18.1141 298.51 -32.1386 298.51 -40.7578 289.892C-49.3771 281.274 -49.3771 267.252 -40.7578 258.634C-36.5811 254.458 -31.0304 252.162 -25.1238 252.162C-19.2172 252.162 -13.6665 254.463 -9.48975 258.634C-0.870466 267.252 -0.870466 281.274 -9.48975 289.892H-9.49477Z" fill="#9DADF2"/>
            <path d="M-8.2418 169.873C1.07018 160.561 1.07018 145.411 -8.2418 136.099C-17.5538 126.787 -32.7039 126.787 -42.0158 136.099C-51.3278 145.411 -51.3278 160.561 -42.0158 169.873C-32.7039 179.185 -17.5538 179.185 -8.2418 169.873ZM-40.8903 137.224C-32.1989 128.533 -18.0588 128.533 -9.36956 137.224C-0.678074 145.916 -0.678074 160.056 -9.36956 168.745C-18.061 177.437 -32.2011 177.437 -40.8903 168.745C-49.5818 160.054 -49.5818 145.914 -40.8903 137.224Z" fill="#E3E3E3"/>
        </g>
        <g opacity="0.2">
            <path d="M50.8989 349.404C50.8989 336.251 40.1961 325.548 27.043 325.548C13.8899 325.548 3.18709 336.251 3.18709 349.404C3.18709 362.557 13.8899 373.26 27.043 373.26C40.1961 373.26 50.8989 362.557 50.8989 349.404ZM4.90575 349.404C4.90575 337.198 14.8369 327.267 27.043 327.267C39.249 327.267 49.1802 337.198 49.1802 349.404C49.1802 361.61 39.249 371.541 27.043 371.541C14.8369 371.541 4.90575 361.61 4.90575 349.404Z" fill="#478BF9"/>
            <path d="M3.91453 348.828H14.3618V350.887H3.91453V348.828Z" fill="#478BF9"/>
            <path d="M39.8857 348.828H50.333V350.887H39.8857V348.828Z" fill="#478BF9"/>
            <path d="M25.9304 362.777H27.9897V373.225H25.9304V362.777Z" fill="#478BF9"/>
            <path d="M25.9304 326.49H27.9897V336.937H25.9304V326.49Z" fill="#478BF9"/>
            <path d="M14.6767 336.787C21.822 329.642 33.4117 329.642 40.562 336.787C47.7072 343.932 47.7072 355.522 40.562 362.672C33.4167 369.817 21.827 369.817 14.6767 362.672C7.53146 355.527 7.53146 343.937 14.6767 336.787ZM24.0818 338.335C21.9973 338.982 20.1284 340.189 18.6753 341.833L18.3947 342.148L18.8055 342.244C19.8928 342.499 21.0553 342.71 22.2579 342.865L22.4733 342.895L22.5335 342.684C22.7339 341.998 22.9694 341.337 23.24 340.725C23.5757 339.959 23.9515 339.287 24.3624 338.721L24.8134 338.105L24.0818 338.33V338.335ZM32.4446 349.158L32.4346 348.898C32.3845 347.314 32.2091 345.801 31.9085 344.408L31.8634 344.188L31.6379 344.208C29.0023 344.438 26.1863 344.428 23.5657 344.183L23.3402 344.163L23.2901 344.383C22.9844 345.791 22.8091 347.309 22.764 348.898V349.158H32.4396H32.4446ZM22.764 350.321V350.581C22.8191 352.17 22.9945 353.688 23.3001 355.096L23.3502 355.316L23.5757 355.296C26.1963 355.051 29.0123 355.046 31.6479 355.271L31.8734 355.291L31.9185 355.071C32.2192 353.678 32.3945 352.17 32.4446 350.581L32.4547 350.321H22.774H22.764ZM27.6043 337.899C26.1462 337.899 24.663 339.748 23.736 342.73L23.6408 343.03L23.9565 343.055C25.1891 343.161 26.4619 343.216 27.7396 343.216C28.9271 343.216 30.1097 343.171 31.2621 343.075L31.5778 343.05L31.4826 342.745C30.5556 339.753 29.0674 337.894 27.6043 337.894V337.899ZM36.5835 341.888C35.1203 340.219 33.2363 338.992 31.1268 338.34L30.3902 338.115L30.8462 338.736C31.2571 339.297 31.6379 339.974 31.9686 340.735C32.2342 341.337 32.4747 342.008 32.6851 342.73L32.7453 342.935L32.9607 342.91C34.1733 342.76 35.3458 342.559 36.4482 342.304L36.8641 342.208L36.5835 341.888ZM39.5097 348.888C39.3694 346.934 38.7431 345.029 37.6958 343.371L37.5956 343.216L37.4152 343.261C36.1325 343.586 34.7496 343.847 33.2965 344.032L33.0259 344.067L33.081 344.338C33.3816 345.791 33.552 347.329 33.5971 348.913V349.158H39.5247L39.5047 348.888H39.5097ZM37.5956 356.263L37.6958 356.108C38.7431 354.455 39.3694 352.546 39.5097 350.591L39.5298 350.321H33.6071V350.566C33.557 352.15 33.3816 353.693 33.086 355.141L33.0309 355.412L33.3015 355.447C34.7496 355.632 36.1375 355.893 37.4202 356.218L37.6006 356.263H37.5956ZM31.1268 361.144C33.2363 360.492 35.1203 359.265 36.5835 357.596L36.8641 357.276L36.4482 357.18C35.3458 356.93 34.1733 356.724 32.9607 356.574L32.7453 356.549L32.6851 356.755C32.4747 357.476 32.2342 358.147 31.9686 358.749C31.6329 359.515 31.2571 360.187 30.8462 360.753L30.3902 361.374L31.1268 361.149V361.144ZM27.6043 361.58C29.0674 361.58 30.5556 359.721 31.4826 356.729L31.5778 356.424L31.2621 356.399C28.872 356.208 26.3266 356.213 23.9565 356.419L23.6408 356.444L23.736 356.744C24.668 359.721 26.1512 361.575 27.6043 361.575V361.58ZM18.6753 357.646C20.1284 359.29 22.0023 360.497 24.0818 361.144L24.8134 361.369L24.3624 360.753C23.9515 360.192 23.5757 359.515 23.24 358.749C22.9744 358.132 22.7339 357.476 22.5335 356.79L22.4733 356.579L22.2579 356.609C21.0553 356.765 19.8928 356.975 18.8055 357.231L18.3947 357.331L18.6753 357.646ZM15.7039 350.591C15.8442 352.566 16.4805 354.495 17.5528 356.168L17.6531 356.324L17.8334 356.278C19.1011 355.943 20.4791 355.677 21.9222 355.482L22.1927 355.447L22.1376 355.181C21.837 353.728 21.6616 352.18 21.6165 350.571V350.326H15.6889L15.7089 350.596L15.7039 350.591ZM21.6065 349.158V348.913C21.6566 347.304 21.832 345.751 22.1326 344.303L22.1877 344.037L21.9172 344.002C20.4741 343.807 19.1012 343.541 17.8285 343.206L17.648 343.161L17.5479 343.316C16.4756 344.989 15.8342 346.914 15.6989 348.893L15.6788 349.163H21.6015L21.6065 349.158Z" fill="#478BF9"/>
            <path d="M50.9292 408.084V350.511C50.9292 350.035 50.5434 349.654 50.0724 349.654C49.6014 349.654 49.2155 350.04 49.2155 350.511V408.084C49.2155 408.56 49.6014 408.941 50.0724 408.941C50.5434 408.941 50.9292 408.555 50.9292 408.084Z" fill="#478BF9"/>
            <path d="M4.93115 408.215V350.642C4.93115 350.166 4.54535 349.785 4.07434 349.785C3.60334 349.785 3.2175 350.171 3.2175 350.642V408.215C3.2175 408.691 3.60334 409.071 4.07434 409.071C4.54535 409.071 4.93115 408.686 4.93115 408.215Z" fill="#478BF9"/>
            <path d="M43.9452 305.661C53.2572 296.349 53.2572 281.199 43.9452 271.887C34.6332 262.575 19.4832 262.575 10.1712 271.887C0.859215 281.199 0.859215 296.349 10.1712 305.661C19.4832 314.973 34.6332 314.973 43.9452 305.661ZM11.2967 273.013C19.9882 264.321 34.1282 264.321 42.8175 273.013C51.5089 281.704 51.5089 295.844 42.8175 304.533C34.126 313.225 19.9859 313.225 11.2967 304.533C2.60521 295.842 2.60521 281.702 11.2967 273.013Z" fill="#E3E3E3"/>
            <path d="M11.0377 283.708C11.1215 283.625 11.1894 283.518 11.2279 283.4C12.0545 280.955 13.4042 278.787 15.2385 276.953C17.0706 275.121 19.2401 273.771 21.6858 272.942C22.0096 272.832 22.2271 272.53 22.2271 272.188V266.384C22.2271 266.14 22.1138 265.909 21.9213 265.757C21.7266 265.605 21.4752 265.553 21.2397 265.612C17.0593 266.658 13.2321 268.828 10.1749 271.887C7.11774 274.947 4.94825 278.772 3.90201 282.952C3.84313 283.19 3.89748 283.441 4.04695 283.636C4.19867 283.831 4.42966 283.942 4.67424 283.942H10.4784C10.6958 283.942 10.8951 283.853 11.0423 283.706L11.0377 283.708ZM14.113 275.828C12.2425 277.698 10.8317 279.89 9.91223 282.35H5.71368C6.76898 278.835 8.68709 275.624 11.2982 273.013C13.9092 270.402 17.1204 268.484 20.6328 267.43V271.629C18.1734 272.546 15.9813 273.957 14.1108 275.83L14.113 275.828Z" fill="#E3E3E3"/>
            <path d="M43.9442 305.661C47.0014 302.604 49.1731 298.777 50.2194 294.597C50.2783 294.359 50.2239 294.108 50.0744 293.915C49.9227 293.72 49.6917 293.609 49.4472 293.609H43.643C43.3011 293.609 42.9976 293.827 42.8889 294.151C42.0623 296.596 40.7127 298.764 38.8783 300.598C37.0463 302.43 34.8768 303.78 32.431 304.608C32.1072 304.717 31.8898 305.021 31.8898 305.363V311.167C31.8898 311.411 32.0031 311.642 32.1956 311.794C32.3903 311.946 32.6417 311.998 32.8795 311.939C37.0599 310.893 40.8848 308.723 43.9442 305.666V305.661ZM48.4032 295.199C47.3479 298.714 45.4298 301.925 42.8187 304.536C40.2077 307.147 36.9965 309.065 33.4818 310.12V305.922C35.9412 305.005 38.1333 303.594 40.0038 301.723C41.8744 299.853 43.2852 297.661 44.2046 295.201H48.4032V295.199Z" fill="#E3E3E3"/>
            <path d="M21.9923 311.725C22.1418 311.576 22.2256 311.374 22.2256 311.162V305.357C22.2256 305.015 22.0082 304.712 21.6843 304.603C19.2386 303.777 17.0714 302.427 15.2371 300.593C13.4028 298.758 12.0553 296.591 11.2265 294.145C11.1178 293.822 10.8143 293.604 10.4724 293.604H4.66825C4.42367 293.604 4.19268 293.717 4.04095 293.91C3.88923 294.102 3.83714 294.356 3.89602 294.592C4.94452 298.772 7.11401 302.597 10.1712 305.656C13.2284 308.716 17.0555 310.885 21.236 311.932C21.4737 311.99 21.7251 311.936 21.9176 311.787C21.9425 311.764 21.9674 311.744 21.9901 311.721L21.9923 311.725ZM20.6336 305.919V310.118C17.1189 309.062 13.9078 307.144 11.2967 304.533C8.68563 301.922 6.76978 298.711 5.71222 295.196H9.91077C10.8279 297.656 12.2388 299.845 14.1116 301.718C15.9821 303.589 18.1742 305.002 20.6336 305.919Z" fill="#E3E3E3"/>
            <path d="M50.0122 283.708C50.0348 283.686 50.0574 283.661 50.0756 283.636C50.2273 283.443 50.2794 283.19 50.2205 282.952C49.1743 278.772 47.0048 274.945 43.9453 271.887C40.8859 268.83 37.061 266.658 32.8806 265.612C32.6428 265.553 32.3914 265.608 32.1989 265.757C32.0064 265.909 31.8932 266.14 31.8932 266.384V272.189C31.8932 272.53 32.1106 272.834 32.4344 272.943C34.8802 273.769 37.0474 275.119 38.8817 276.953C40.7138 278.785 42.0635 280.955 42.8923 283.4C43.001 283.724 43.3044 283.942 43.6464 283.942H49.4505C49.6634 283.942 49.8672 283.858 50.0144 283.711L50.0122 283.708ZM33.4852 267.431C36.9998 268.486 40.211 270.404 42.8221 273.015C45.4332 275.626 47.349 278.837 48.4066 282.352H44.208C43.2909 279.893 41.88 277.703 40.0072 275.83C38.1367 273.959 35.9445 272.549 33.4852 271.629V267.431Z" fill="#E3E3E3"/>
            <path d="M14.1118 275.827C21.2498 268.689 32.8671 268.687 40.005 275.827C47.1453 282.967 47.143 294.582 40.005 301.72C32.8671 308.858 21.252 308.861 14.1118 301.72C6.97154 294.58 6.9738 282.965 14.1118 275.827Z" fill="#E3E3E3"/>
            <path d="M20.4538 295.309L33.6062 295.396C34.1602 295.4 34.6064 295.852 34.6027 296.406L34.5996 296.875C34.5959 297.429 34.1438 297.875 33.5898 297.872L20.4373 297.784C19.8833 297.781 19.4371 297.329 19.4408 296.774L19.4439 296.306C19.4476 295.752 19.8997 295.306 20.4538 295.309Z" fill="#110A1D"/>
            <path d="M31.8144 287.37C31.9571 287.37 32.102 287.338 32.2333 287.275L33.2592 286.779C33.7053 286.562 33.9092 286.034 33.7235 285.574L33.2524 284.401C33.1075 284.043 32.7655 283.81 32.3805 283.808C32.2152 283.808 32.0522 283.849 31.9073 283.932L30.6844 284.63C30.4556 284.759 30.2903 284.983 30.2315 285.241C30.1726 285.5 30.2247 285.771 30.3741 285.989L31.0444 286.96C31.2188 287.214 31.5087 287.368 31.8167 287.368L31.8144 287.37Z" fill="#110A1D"/>
            <path d="M22.3481 287.307C22.6561 287.307 22.9482 287.16 23.1249 286.908L23.7884 285.973C23.9424 285.758 23.9967 285.486 23.9424 285.228C23.888 284.97 23.725 284.744 23.4962 284.61L22.2349 283.869C22.0922 283.786 21.9291 283.74 21.7638 283.738C21.3789 283.736 21.0324 283.965 20.8829 284.32L20.4073 285.459C20.2171 285.917 20.4141 286.449 20.8557 286.671L21.9291 287.207C22.0582 287.271 22.2032 287.307 22.3458 287.307H22.3481Z" fill="#110A1D"/>
            <path d="M32.848 294.517C33.4255 294.522 33.9441 294.159 34.1411 293.616L36.3355 287.576C36.4759 287.644 36.6253 287.696 36.7771 287.735C36.956 287.78 37.1371 287.803 37.3206 287.803C37.427 287.803 37.5312 287.798 37.6331 287.785C38.7767 287.64 39.644 286.659 39.6508 285.504C39.6599 284.227 38.6272 283.181 37.35 283.172C36.0728 283.163 35.0265 284.195 35.0198 285.472C35.0198 285.767 35.0696 286.05 35.1738 286.315C35.2304 286.46 35.3006 286.598 35.3821 286.729L31.2085 288.749L28.0154 284.123C28.149 284.066 28.2781 283.996 28.4004 283.912C28.6314 283.756 28.8329 283.561 28.996 283.332C29.2722 282.943 29.4217 282.483 29.424 282.008C29.433 280.73 28.4004 279.684 27.1231 279.675C27.0665 279.675 27.0076 279.675 26.951 279.68C25.8074 279.757 24.8835 280.674 24.7997 281.817C24.7612 282.359 24.9038 282.877 25.2118 283.319C25.3749 283.55 25.5742 283.747 25.8029 283.903C25.9229 283.987 26.052 284.057 26.1856 284.114L22.9359 288.693L18.8302 286.639C18.9072 286.491 18.9684 286.337 19.0136 286.177C19.068 285.982 19.0974 285.778 19.0974 285.572C19.0974 285.479 19.0929 285.386 19.0839 285.296C18.9525 284.132 17.9697 283.249 16.7989 283.242C15.5217 283.233 14.4754 284.265 14.4686 285.543C14.4596 286.761 15.4062 287.785 16.6223 287.868L16.7672 287.873C17.0027 287.873 17.2337 287.841 17.4579 287.773C17.6028 287.728 17.7432 287.671 17.8746 287.599L19.9353 293.521C20.1233 294.066 20.6396 294.433 21.2171 294.438L32.848 294.515V294.517Z" fill="#110A1D"/>
            <path d="M27.0582 252C33.1754 252 39.2876 249.674 43.9458 245.016C53.257 235.706 53.257 220.561 43.9458 211.251C39.4331 206.739 33.4362 204.258 27.0582 204.258C20.6802 204.258 14.6833 206.739 10.1706 211.251C0.859383 220.561 0.859383 235.706 10.1706 245.016C14.8237 249.669 20.941 252 27.0582 252ZM42.6922 243.763C34.073 252.381 20.0485 252.381 11.4292 243.763C2.80988 235.145 2.80988 221.123 11.4292 212.505C15.6059 208.329 21.1566 206.033 27.0632 206.033C32.9699 206.033 38.5205 208.334 42.6973 212.505C51.3165 221.123 51.3165 235.145 42.6973 243.763H42.6922Z" fill="#7DDACF"/>
            <path d="M26.1737 223.108L30.5962 229.305H27.9437V233.726L23.5213 227.535H26.1737V223.108Z" fill="#7DDACF"/>
            <path d="M27.0627 219.664C31.9063 219.664 35.8374 223.594 35.8374 228.437C35.8374 233.28 31.9063 237.2 27.0627 237.2C22.219 237.2 18.288 233.27 18.288 228.437C18.288 223.604 22.219 219.664 27.0627 219.664ZM27.0627 236.118C31.3147 236.118 34.7644 232.668 34.7644 228.417C34.7644 224.166 31.3147 220.717 27.0627 220.717C22.8107 220.717 19.361 224.166 19.361 228.417C19.361 232.668 22.8107 236.118 27.0627 236.118Z" fill="#7DDACF"/>
            <path d="M13.4984 214.575C17.1186 210.951 21.9372 208.96 27.0617 208.96C32.1861 208.96 36.9997 210.956 40.6249 214.575C48.1009 222.05 48.1009 234.218 40.6249 241.697C36.8843 245.437 31.9755 247.307 27.0617 247.307C22.1478 247.307 17.239 245.437 13.4984 241.697C6.02237 234.223 6.02237 222.055 13.4984 214.575ZM27.0617 240.339C33.6202 240.339 38.9602 235 38.9602 228.442C38.9602 225.545 37.9223 222.887 36.1974 220.812L37.6515 219.358C38.0677 218.942 38.0677 218.265 37.6515 217.844C37.2353 217.423 36.5584 217.428 36.1372 217.844L34.6831 219.298C32.878 217.789 30.6067 216.796 28.1297 216.586V215.603H29.1124C29.9799 215.603 30.6969 214.886 30.6969 214.019V213.192C30.6969 212.314 29.9799 211.608 29.1124 211.608H25.0008C24.1334 211.608 23.4164 212.314 23.4164 213.192V214.019C23.4164 214.886 24.1334 215.603 25.0008 215.603H25.9836V216.586C23.5016 216.801 21.2352 217.794 19.4302 219.298L17.9761 217.844C17.5599 217.428 16.883 217.428 16.4618 217.844C16.0456 218.26 16.0456 218.937 16.4618 219.358L17.9159 220.812C16.1911 222.887 15.1531 225.54 15.1531 228.442C15.1531 235 20.4932 240.339 27.0516 240.339H27.0617Z" fill="#7DDACF"/>
            <path d="M27.0582 191.355C40.2223 191.355 50.9292 180.643 50.9292 167.484C50.9292 154.325 40.2173 143.613 27.0582 143.613C13.899 143.613 3.18719 154.325 3.18719 167.484C3.18719 180.643 13.899 191.355 27.0582 191.355ZM27.0582 145.203C39.3447 145.203 49.3394 155.197 49.3394 167.484C49.3394 179.77 39.3447 189.765 27.0582 189.765C14.7716 189.765 4.77691 179.77 4.77691 167.484C4.77691 155.197 14.7716 145.203 27.0582 145.203Z" fill="#E3E3E3"/>
            <path d="M11.482 150.45L18.8721 157.84L17.4182 159.294L10.0281 151.904L11.482 150.45Z" fill="#E3E3E3"/>
            <path d="M36.9195 175.889L44.3096 183.279L42.8557 184.732L35.4657 177.342L36.9195 175.889Z" fill="#E3E3E3"/>
            <path d="M17.1931 175.887L18.647 177.341L11.257 184.731L9.80307 183.277L17.1931 175.887Z" fill="#E3E3E3"/>
            <path d="M42.8508 150.226L44.3047 151.68L36.9182 159.066L35.4643 157.613L42.8508 150.226Z" fill="#E3E3E3"/>
            <path d="M21.2303 168.125C20.7488 167.644 20.7488 166.867 21.2303 166.39L22.2533 165.372C22.7348 164.891 23.512 164.891 23.9885 165.372L24.5401 165.924L25.177 165.287C25.6584 164.805 26.4358 164.805 26.9122 165.287L27.4638 165.844L28.1007 165.202C28.5821 164.72 29.3595 164.72 29.8359 165.202L33.2209 168.587C33.246 168.612 33.246 168.652 33.2209 168.682C32.7696 169.133 32.0324 169.133 31.576 168.682L29.3946 166.501C29.1589 166.265 28.7777 166.265 28.542 166.501L28.3815 166.661C28.3514 166.691 28.3514 166.736 28.3815 166.766L30.202 168.587C30.227 168.612 30.227 168.652 30.202 168.682C29.7506 169.133 29.0134 169.133 28.5571 168.682L26.4658 166.591C26.2301 166.355 25.849 166.355 25.6133 166.591L25.4528 166.751C25.4278 166.776 25.4278 166.816 25.4528 166.847L27.2081 168.602C27.2331 168.627 27.2331 168.667 27.2081 168.697C26.7567 169.148 26.0195 169.148 25.5632 168.697L23.5422 166.676C23.3065 166.44 22.9253 166.44 22.6896 166.676L22.3436 167.022C22.2082 167.157 22.2082 167.383 22.3436 167.519L22.3987 167.574C22.5341 167.709 22.7598 167.709 22.8952 167.574L23.3416 167.127C23.3666 167.102 23.4067 167.102 23.4368 167.127L24.2091 167.9C24.2342 167.925 24.2342 167.965 24.2091 167.995L23.512 168.692C23.0306 169.173 22.2533 169.173 21.7769 168.692L21.2252 168.14L21.2303 168.125Z" fill="#E3E3E3"/>
            <path d="M27.0574 149.174C37.1674 149.174 45.3618 157.368 45.3618 167.478C45.3618 177.589 37.1674 185.783 27.0574 185.783C16.9473 185.783 8.75293 177.589 8.75293 167.478C8.75293 157.368 16.9473 149.174 27.0574 149.174ZM26.3102 154.826C23.3714 154.996 20.7035 156.17 18.6373 158.005L21.2802 160.648C22.6593 159.48 24.3995 158.722 26.3102 158.562V154.826ZM27.7996 154.826V158.562C29.7103 158.717 31.4504 159.48 32.8295 160.648L35.4724 158.005C33.4063 156.17 30.7383 154.996 27.7996 154.826ZM36.5255 159.058L33.8827 161.701C35.0512 163.08 35.8084 164.821 35.9689 166.731H39.705C39.5345 163.793 38.361 161.125 36.5255 159.058ZM39.705 168.221H35.9689C35.8134 170.131 35.0512 171.872 33.8827 173.251L36.5255 175.894C38.361 173.827 39.5345 171.159 39.705 168.221ZM27.7996 180.126C30.7383 179.956 33.4063 178.782 35.4724 176.947L32.8295 174.304C31.4504 175.472 29.7103 176.229 27.7996 176.39V180.126ZM34.7503 167.473C34.7503 163.226 31.305 159.781 27.0574 159.781C22.8097 159.781 19.3645 163.226 19.3645 167.473C19.3645 171.721 22.8097 175.166 27.0574 175.166C31.305 175.166 34.7503 171.721 34.7503 167.473ZM26.3102 180.126V176.39C24.3995 176.235 22.6593 175.472 21.2802 174.304L18.6373 176.947C20.7035 178.782 23.3714 179.956 26.3102 180.126ZM17.5842 175.894L20.2271 173.251C19.0586 171.872 18.3013 170.131 18.1409 168.221H14.4047C14.5753 171.159 15.7488 173.827 17.5842 175.894ZM18.1409 166.731C18.2963 164.821 19.0586 163.08 20.2271 161.701L17.5842 159.058C15.7488 161.125 14.5753 163.793 14.4047 166.731H18.1409Z" fill="#E3E3E3"/>
            <path d="M43.9452 123.725C53.2572 114.414 53.2572 99.2635 43.9452 89.9515C34.6332 80.6395 19.4832 80.6395 10.1712 89.9515C0.859215 99.2635 0.859215 114.414 10.1712 123.725C19.4832 133.037 34.6332 133.037 43.9452 123.725ZM11.2967 91.077C19.9882 82.3855 34.1282 82.3855 42.8175 91.077C51.5089 99.7685 51.5089 113.909 42.8175 122.598C34.126 131.289 19.9859 131.289 11.2967 122.598C2.60521 113.906 2.60521 99.7662 11.2967 91.077Z" fill="#7DDACF"/>
            <path d="M11.0377 101.773C11.1215 101.689 11.1894 101.583 11.2279 101.465C12.0545 99.019 13.4042 96.8518 15.2385 95.0175C17.0706 93.1855 19.2401 91.8358 21.6858 91.0069C22.0096 90.896 22.2271 90.5948 22.2271 90.2528V84.4487C22.2271 84.2041 22.1138 83.9731 21.9213 83.8214C21.7266 83.6697 21.4752 83.6176 21.2397 83.6765C17.0593 84.7227 13.2321 86.8922 10.1749 89.9516C7.11774 93.0111 4.94825 96.836 3.90201 101.016C3.84313 101.254 3.89748 101.506 4.04695 101.7C4.19867 101.895 4.42966 102.006 4.67424 102.006H10.4784C10.6958 102.006 10.8951 101.918 11.0423 101.77L11.0377 101.773ZM14.113 93.892C12.2425 95.7626 10.8317 97.9547 9.91223 100.414H5.71368C6.76898 96.8994 8.68709 93.6882 11.2982 91.0771C13.9092 88.4661 17.1204 86.548 20.6328 85.4949V89.6935C18.1734 90.6106 15.9813 92.0215 14.1108 93.8943L14.113 93.892Z" fill="#7DDACF"/>
            <path d="M43.9442 123.726C47.0014 120.669 49.1731 116.841 50.2194 112.661C50.2783 112.423 50.2239 112.172 50.0744 111.979C49.9227 111.785 49.6917 111.674 49.4472 111.674H43.643C43.3011 111.674 42.9976 111.891 42.8889 112.215C42.0623 114.661 40.7127 116.828 38.8783 118.662C37.0463 120.494 34.8768 121.844 32.431 122.673C32.1072 122.781 31.8898 123.085 31.8898 123.427V129.231C31.8898 129.475 32.0031 129.706 32.1956 129.858C32.3903 130.01 32.6417 130.062 32.8795 130.003C37.0599 128.957 40.8848 126.787 43.9442 123.73V123.726ZM48.4032 113.263C47.3479 116.778 45.4298 119.989 42.8187 122.6C40.2077 125.211 36.9965 127.129 33.4818 128.185V123.986C35.9412 123.069 38.1333 121.658 40.0038 119.788C41.8744 117.917 43.2852 115.725 44.2046 113.266H48.4032V113.263Z" fill="#7DDACF"/>
            <path d="M21.9928 129.79C22.1423 129.641 22.2261 129.439 22.2261 129.226V123.422C22.2261 123.08 22.0087 122.777 21.6848 122.668C19.2391 121.841 17.0719 120.492 15.2376 118.657C13.4033 116.823 12.0558 114.656 11.227 112.21C11.1183 111.886 10.8148 111.669 10.4729 111.669H4.66874C4.42416 111.669 4.19317 111.782 4.04144 111.975C3.88972 112.167 3.83763 112.421 3.89651 112.656C4.94501 116.837 7.1145 120.662 10.1717 123.721C13.2289 126.78 17.056 128.95 21.2365 129.996C21.4742 130.055 21.7256 130.001 21.9181 129.851C21.943 129.829 21.9679 129.808 21.9905 129.786L21.9928 129.79ZM20.6341 123.984V128.182C17.1194 127.127 13.9082 125.209 11.2972 122.598C8.68612 119.987 6.77027 116.776 5.71271 113.261H9.91126C10.8284 115.72 12.2393 117.91 14.1121 119.783C15.9826 121.653 18.1747 123.067 20.6341 123.984Z" fill="#7DDACF"/>
            <path d="M50.0122 101.773C50.0348 101.75 50.0574 101.725 50.0756 101.7C50.2273 101.508 50.2794 101.254 50.2205 101.016C49.1743 96.8359 47.0048 93.0087 43.9453 89.9515C40.8859 86.8943 37.061 84.7226 32.8806 83.6764C32.6428 83.6175 32.3914 83.6718 32.1989 83.8213C32.0064 83.973 31.8932 84.204 31.8932 84.4486V90.2527C31.8932 90.5947 32.1106 90.8981 32.4344 91.0068C34.8802 91.8334 37.0474 93.1831 38.8817 95.0174C40.7138 96.8494 42.0635 99.0189 42.8923 101.465C43.001 101.788 43.3044 102.006 43.6464 102.006H49.4505C49.6634 102.006 49.8672 101.922 50.0144 101.775L50.0122 101.773ZM33.4852 85.4948C36.9998 86.5501 40.211 88.4682 42.8221 91.0793C45.4332 93.6904 47.349 96.9015 48.4066 100.416H44.208C43.2909 97.9568 41.88 95.767 40.0072 93.8942C38.1367 92.0236 35.9445 90.6128 33.4852 89.6934V85.4948Z" fill="#7DDACF"/>
            <path d="M14.1118 93.8919C21.2498 86.754 32.8671 86.7517 40.005 93.8919C47.1453 101.032 47.143 112.647 40.005 119.785C32.8671 126.923 21.252 126.925 14.1118 119.785C6.97154 112.645 6.9738 101.03 14.1118 93.8919Z" fill="#7DDACF"/>
            <path d="M20.4538 113.373L33.6062 113.461C34.1602 113.464 34.6064 113.916 34.6027 114.47L34.5996 114.939C34.5959 115.493 34.1438 115.939 33.5898 115.936L20.4373 115.849C19.8833 115.845 19.4371 115.393 19.4408 114.839L19.4439 114.37C19.4476 113.816 19.8997 113.37 20.4538 113.373Z" fill="#110A1D"/>
            <path d="M31.8144 105.434C31.9571 105.434 32.102 105.403 32.2333 105.339L33.2592 104.843C33.7053 104.626 33.9092 104.098 33.7235 103.638L33.2524 102.465C33.1075 102.108 32.7655 101.874 32.3805 101.872C32.2152 101.872 32.0522 101.913 31.9073 101.997L30.6844 102.694C30.4556 102.823 30.2903 103.047 30.2315 103.306C30.1726 103.564 30.2247 103.835 30.3741 104.053L31.0444 105.024C31.2188 105.278 31.5087 105.432 31.8167 105.432L31.8144 105.434Z" fill="#110A1D"/>
            <path d="M22.3481 105.371C22.6561 105.371 22.9482 105.224 23.1249 104.972L23.7884 104.037C23.9424 103.822 23.9967 103.55 23.9424 103.292C23.888 103.034 23.725 102.807 23.4962 102.674L22.2349 101.933C22.0922 101.85 21.9291 101.804 21.7638 101.802C21.3789 101.8 21.0324 102.028 20.8829 102.384L20.4073 103.523C20.2171 103.981 20.4141 104.513 20.8557 104.735L21.9291 105.271C22.0582 105.335 22.2032 105.371 22.3458 105.371H22.3481Z" fill="#110A1D"/>
            <path d="M32.848 112.581C33.4255 112.586 33.9441 112.224 34.1411 111.68L36.3355 105.64C36.4759 105.708 36.6253 105.76 36.7771 105.799C36.956 105.844 37.1371 105.867 37.3206 105.867C37.427 105.867 37.5312 105.862 37.6331 105.849C38.7767 105.704 39.644 104.723 39.6508 103.568C39.6599 102.291 38.6272 101.245 37.35 101.236C36.0728 101.227 35.0265 102.259 35.0198 103.537C35.0198 103.831 35.0696 104.114 35.1738 104.379C35.2304 104.524 35.3006 104.662 35.3821 104.793L31.2085 106.813L28.0154 102.187C28.149 102.13 28.2781 102.06 28.4004 101.976C28.6314 101.82 28.8329 101.625 28.996 101.397C29.2722 101.007 29.4217 100.547 29.424 100.072C29.433 98.7946 28.4004 97.7483 27.1231 97.7393C27.0665 97.7393 27.0076 97.7393 26.951 97.7438C25.8074 97.8208 24.8835 98.7379 24.7997 99.8816C24.7612 100.423 24.9038 100.941 25.2118 101.383C25.3749 101.614 25.5742 101.811 25.8029 101.967C25.9229 102.051 26.052 102.121 26.1856 102.178L22.9359 106.757L18.8302 104.703C18.9072 104.556 18.9684 104.402 19.0136 104.241C19.068 104.046 19.0974 103.842 19.0974 103.636C19.0974 103.543 19.0929 103.451 19.0839 103.36C18.9525 102.196 17.9697 101.313 16.7989 101.306C15.5217 101.297 14.4754 102.33 14.4686 103.607C14.4596 104.825 15.4062 105.849 16.6223 105.933L16.7672 105.937C17.0027 105.937 17.2337 105.905 17.4579 105.837C17.6028 105.792 17.7432 105.735 17.8746 105.663L19.9353 111.585C20.1233 112.131 20.6396 112.498 21.2171 112.502L32.848 112.579V112.581Z" fill="#110A1D"/>
        </g>
        <g opacity="0.1">
            <path d="M79.2447 403.29C92.4089 403.29 103.116 392.578 103.116 379.419C103.116 366.26 92.4039 355.548 79.2447 355.548C66.0856 355.548 55.3737 366.26 55.3737 379.419C55.3737 392.578 66.0856 403.29 79.2447 403.29ZM79.2447 357.138C91.5313 357.138 101.526 367.133 101.526 379.419C101.526 391.706 91.5313 401.701 79.2447 401.701C66.9582 401.701 56.9634 391.706 56.9634 379.419C56.9634 367.133 66.9582 357.138 79.2447 357.138Z" fill="#7DDACF"/>
            <path d="M63.6686 362.386L71.0586 369.776L69.6047 371.23L62.2147 363.84L63.6686 362.386Z" fill="#7DDACF"/>
            <path d="M95.0447 362.167L96.4985 363.621L89.112 371.007L87.6582 369.553L95.0447 362.167Z" fill="#7DDACF"/>
            <path d="M79.2449 361.115C89.3549 361.115 97.5493 369.309 97.5493 379.419C97.5493 389.529 89.3549 397.724 79.2449 397.724C69.1348 397.724 60.9404 389.529 60.9404 379.419C60.9404 369.309 69.1348 361.115 79.2449 361.115ZM78.4976 366.767C75.5589 366.937 72.891 368.111 70.8248 369.946L73.4677 372.589C74.8468 371.421 76.5869 370.663 78.4976 370.503V366.767ZM79.9871 366.767V370.503C81.8978 370.658 83.6379 371.421 85.017 372.589L87.6599 369.946C85.5937 368.111 82.9258 366.937 79.9871 366.767ZM88.713 370.999L86.0702 373.642C87.2386 375.021 87.9959 376.762 88.1564 378.672H91.8925C91.722 375.733 90.5485 373.066 88.713 370.999ZM91.8925 380.162H88.1564C88.0009 382.072 87.2386 383.812 86.0702 385.192L88.713 387.834C90.5485 385.768 91.722 383.1 91.8925 380.162ZM79.9871 392.067C82.9258 391.897 85.5937 390.723 87.6599 388.888L85.017 386.245C83.6379 387.413 81.8978 388.17 79.9871 388.331V392.067ZM86.9377 379.414C86.9377 375.167 83.4925 371.722 79.2449 371.722C74.9972 371.722 71.552 375.167 71.552 379.414C71.552 383.662 74.9972 387.107 79.2449 387.107C83.4925 387.107 86.9377 383.662 86.9377 379.414ZM78.4976 392.067V388.331C76.5869 388.175 74.8468 387.413 73.4677 386.245L70.8248 388.888C72.891 390.723 75.5589 391.897 78.4976 392.067ZM69.7717 387.834L72.4145 385.192C71.2461 383.812 70.4888 382.072 70.3283 380.162H66.5922C66.7627 383.1 67.9362 385.768 69.7717 387.834ZM70.3283 378.672C70.4838 376.762 71.2461 375.021 72.4145 373.642L69.7717 370.999C67.9362 373.066 66.7627 375.733 66.5922 378.672H70.3283Z" fill="#7DDACF"/>
            <path d="M55.3838 258.076C55.3838 271.235 66.0911 281.942 79.2497 281.942C92.4084 281.942 103.116 271.235 103.116 258.076C103.116 244.918 92.4084 234.21 79.2497 234.21C66.0911 234.21 55.3838 244.918 55.3838 258.076ZM101.396 258.076C101.396 270.287 91.4609 280.223 79.2497 280.223C67.0385 280.223 57.1032 270.287 57.1032 258.076C57.1032 245.865 67.0385 235.93 79.2497 235.93C91.4609 235.93 101.396 245.865 101.396 258.076Z" fill="#478BF9"/>
            <path d="M55.3835 199.737C55.3835 200.213 55.7695 200.594 56.2407 200.594C56.7119 200.594 57.0979 200.208 57.0979 199.737C57.0979 187.526 67.0333 177.59 79.2445 177.59C91.4557 177.59 101.391 187.526 101.391 199.737C101.391 200.213 101.777 200.594 102.248 200.594C102.72 200.594 103.105 200.208 103.105 199.737C103.105 186.578 92.3981 175.871 79.2395 175.871C66.0809 175.871 55.3735 186.578 55.3735 199.737H55.3835Z" fill="#478BF9"/>
            <path d="M83.8472 253.86C83.8472 254.737 83.2506 255.499 82.3985 255.71L80.7793 256.116V251.95H81.9323C82.985 251.95 83.8422 252.807 83.8422 253.86H83.8472Z" fill="#478BF9"/>
            <path d="M77.7211 264.202H76.5681C75.5154 264.202 74.6582 263.345 74.6582 262.292C74.6582 261.415 75.2548 260.653 76.1069 260.442L77.7261 260.036V264.202H77.7211Z" fill="#478BF9"/>
            <path d="M79.2497 238.656C89.957 238.656 98.6743 247.369 98.6743 258.081C98.6743 268.793 89.9621 277.506 79.2497 277.506C68.5373 277.506 59.825 268.793 59.825 258.081C59.825 247.369 68.5373 238.656 79.2497 238.656ZM71.5901 255.013H74.6529V253.479C74.6529 252.637 75.3397 251.945 76.1869 251.945H77.7208V256.878L75.3597 257.47C73.1441 258.026 71.5951 260.006 71.5951 262.292C71.5951 265.034 73.8258 267.265 76.5678 267.265H77.7208V271.144H80.7836V267.265H82.3175C84.854 267.265 86.9143 265.204 86.9143 262.668V261.134H83.8514V262.668C83.8514 263.51 83.1647 264.202 82.3175 264.202H80.7836V259.269L83.1446 258.678C85.3603 258.121 86.9092 256.141 86.9092 253.855C86.9092 251.113 84.6785 248.883 81.9365 248.883H80.7836V245.003H77.7208V248.883H76.1869C73.6504 248.883 71.5901 250.943 71.5901 253.479V255.013Z" fill="#478BF9"/>
            <path d="M55.3737 199.361V256.935C55.3737 257.411 55.7595 257.792 56.2306 257.792C56.7016 257.792 57.0874 257.406 57.0874 256.935V199.361C57.0874 198.885 56.7016 198.505 56.2306 198.505C55.7595 198.505 55.3737 198.89 55.3737 199.361Z" fill="#478BF9"/>
            <path d="M101.366 199.236V256.809C101.366 257.285 101.752 257.666 102.223 257.666C102.694 257.666 103.08 257.28 103.08 256.809V199.236C103.08 198.76 102.694 198.379 102.223 198.379C101.752 198.379 101.366 198.765 101.366 199.236Z" fill="#478BF9"/>
            <path d="M79.2479 342.645C92.4103 342.645 103.116 331.933 103.116 318.774C103.116 305.615 92.4053 294.903 79.2479 294.903C66.0905 294.903 55.38 305.615 55.38 318.774C55.38 331.933 66.0905 342.645 79.2479 342.645ZM79.2479 296.493C91.5328 296.493 101.526 306.488 101.526 318.774C101.526 331.061 91.5328 341.056 79.2479 341.056C66.963 341.056 56.9696 331.061 56.9696 318.774C56.9696 306.488 66.963 296.493 79.2479 296.493Z" fill="#9DADF2"/>
            <path d="M71.5057 303.87C71.626 303.87 71.7464 303.845 71.8567 303.79C74.1682 302.646 76.6553 302.065 79.2477 302.065C81.84 302.065 84.3271 302.646 86.6387 303.79C86.9445 303.94 87.3106 303.88 87.5513 303.639L91.6529 299.537C91.8284 299.362 91.9087 299.121 91.8786 298.875C91.8485 298.629 91.7081 298.414 91.4975 298.288C87.802 296.072 83.5649 294.903 79.2427 294.903C74.9204 294.903 70.6833 296.077 66.9878 298.288C66.7772 298.414 66.6368 298.629 66.6067 298.875C66.5767 299.121 66.6619 299.362 66.8324 299.537L70.934 303.639C71.0895 303.79 71.2901 303.87 71.5007 303.87H71.5057ZM79.2477 300.475C76.6052 300.475 74.0579 301.027 71.6711 302.115L68.7027 299.146C71.9319 297.406 75.5572 296.493 79.2477 296.493C82.9382 296.493 86.5635 297.406 89.7926 299.146L86.8242 302.115C84.4374 301.027 81.8902 300.475 79.2477 300.475Z" fill="#9DADF2"/>
            <path d="M79.2478 342.645C83.5701 342.645 87.8071 341.472 91.5026 339.26C91.7132 339.135 91.8536 338.919 91.8837 338.674C91.9138 338.428 91.8285 338.187 91.658 338.012L87.5564 333.909C87.3157 333.669 86.9447 333.609 86.6438 333.759C84.3322 334.902 81.8452 335.484 79.2528 335.484C76.6604 335.484 74.1733 334.902 71.8618 333.759C71.5559 333.609 71.1899 333.669 70.9492 333.909L66.8475 338.012C66.672 338.187 66.5918 338.428 66.6219 338.674C66.652 338.919 66.7924 339.135 67.003 339.26C70.6985 341.477 74.9355 342.645 79.2578 342.645H79.2478ZM89.7927 338.403C86.5636 340.143 82.9383 341.056 79.2478 341.056C75.5573 341.056 71.932 340.143 68.7028 338.403L71.6712 335.434C74.058 336.522 76.6053 337.074 79.2478 337.074C81.8903 337.074 84.4375 336.522 86.8243 335.434L89.7927 338.403Z" fill="#9DADF2"/>
            <path d="M59.4456 331.417C59.6562 331.417 59.8568 331.337 60.0072 331.186L64.1089 327.084C64.3496 326.843 64.4097 326.472 64.2593 326.171C63.116 323.859 62.5344 321.372 62.5344 318.779C62.5344 316.187 63.116 313.699 64.2593 311.387C64.4097 311.081 64.3496 310.71 64.1089 310.475L60.0072 306.372C59.8317 306.197 59.591 306.117 59.3453 306.147C59.0996 306.177 58.884 306.317 58.7587 306.528C56.5424 310.224 55.3741 314.462 55.3741 318.784C55.3741 323.107 56.5424 327.345 58.7587 331.041C58.884 331.251 59.0996 331.392 59.3453 331.422C59.3804 331.422 59.4105 331.422 59.4456 331.422V331.417ZM62.5895 326.352L59.6211 329.321C57.8812 326.091 56.9686 322.465 56.9686 318.774C56.9686 315.083 57.8812 311.458 59.6211 308.228L62.5895 311.197C61.5014 313.584 60.9499 316.132 60.9499 318.774C60.9499 321.417 61.5014 323.965 62.5895 326.352Z" fill="#9DADF2"/>
            <path d="M99.0492 331.417C99.0843 331.417 99.1144 331.417 99.1444 331.412C99.3901 331.382 99.6057 331.241 99.7311 331.031C101.947 327.335 103.116 323.097 103.116 318.774C103.116 314.451 101.947 310.214 99.7311 306.518C99.6057 306.307 99.3901 306.167 99.1444 306.137C98.8987 306.106 98.6581 306.192 98.4826 306.362L94.3809 310.464C94.1402 310.705 94.0801 311.076 94.2305 311.377C95.3737 313.689 95.9554 316.176 95.9554 318.769C95.9554 321.362 95.3737 323.849 94.2305 326.161C94.0801 326.467 94.1402 326.838 94.3809 327.074L98.4826 331.176C98.633 331.326 98.8336 331.412 99.0442 331.412L99.0492 331.417ZM98.8737 308.228C100.614 311.457 101.526 315.083 101.526 318.774C101.526 322.465 100.614 326.091 98.8737 329.321L95.9052 326.352C96.9933 323.965 97.5449 321.417 97.5449 318.774C97.5449 316.131 96.9933 313.584 95.9052 311.197L98.8737 308.228Z" fill="#9DADF2"/>
            <path d="M79.2468 300.47C89.3355 300.47 97.5488 308.679 97.5488 318.774C97.5488 328.869 89.3405 337.079 79.2468 337.079C69.1531 337.079 60.9448 328.869 60.9448 318.774C60.9448 308.679 69.1531 300.47 79.2468 300.47ZM68.9475 312.761C68.0801 314.246 67.5536 315.866 67.3831 317.586C67.3781 317.656 67.4082 317.721 67.4683 317.756C68.7771 318.559 69.9504 319.541 70.9633 320.69C71.0084 320.745 71.0836 320.765 71.1488 320.74L73.4102 320.003C73.4754 319.983 73.5205 319.928 73.5306 319.857C73.7863 317.987 74.3679 316.196 75.2605 314.532C75.2906 314.471 75.2855 314.401 75.2454 314.346L73.8465 312.42C73.8114 312.375 73.7562 312.345 73.701 312.345C73.686 312.345 73.676 312.345 73.6609 312.345C72.1667 312.676 70.6323 312.786 69.108 312.661C69.0378 312.656 68.9726 312.691 68.9375 312.751L68.9475 312.761ZM74.7641 320.173C74.7591 320.223 74.7741 320.274 74.8042 320.309C75.9926 321.678 77.5069 322.776 79.1766 323.478C79.2217 323.498 79.2669 323.498 79.312 323.478C80.9817 322.771 82.496 321.673 83.6844 320.309C83.7145 320.274 83.7295 320.223 83.7245 320.173C83.4939 318.358 82.9273 316.623 82.0498 315.018C82.0247 314.973 81.9846 314.943 81.9344 314.933C81.0519 314.747 80.1494 314.652 79.2418 314.652C78.3342 314.652 77.4316 314.747 76.5491 314.933C76.499 314.943 76.4589 314.973 76.4338 315.018C75.5563 316.623 74.9947 318.358 74.759 320.173H74.7641ZM75.0348 307.726C75.0348 307.726 74.9747 307.676 74.9145 307.676C74.8944 307.676 74.8694 307.676 74.8443 307.691C72.999 308.423 71.3494 309.627 70.0657 311.167C70.0005 311.242 70.0256 311.322 70.0407 311.352C70.0507 311.377 70.0958 311.457 70.2011 311.457C71.3393 311.472 72.4726 311.342 73.5707 311.081C73.6158 311.071 73.6559 311.041 73.681 311.001C74.2676 310.033 74.739 308.99 75.08 307.907C75.1101 307.812 75.0549 307.746 75.0298 307.726H75.0348ZM81.779 307.125C80.1193 306.768 78.3693 306.768 76.7096 307.125C76.6444 307.14 76.5892 307.19 76.5742 307.255C76.2182 308.744 75.6416 310.169 74.8644 311.488C74.8293 311.548 74.8343 311.623 74.8744 311.683L76.2633 313.599C76.3034 313.654 76.3736 313.684 76.4388 313.669C78.274 313.298 80.2145 313.298 82.0498 313.669C82.1149 313.684 82.1852 313.654 82.2253 313.599L83.6142 311.683C83.6543 311.628 83.6593 311.548 83.6242 311.488C82.847 310.169 82.2704 308.744 81.9144 307.255C81.8994 307.19 81.8442 307.14 81.779 307.125ZM88.4229 311.167C87.1392 309.622 85.4895 308.418 83.6443 307.691C83.6192 307.681 83.5942 307.676 83.5741 307.676C83.5089 307.676 83.4688 307.711 83.4538 307.726C83.4287 307.751 83.3735 307.812 83.4036 307.907C83.7446 308.995 84.2159 310.033 84.8026 311.001C84.8277 311.041 84.8678 311.071 84.9129 311.081C86.011 311.342 87.1442 311.472 88.2825 311.457C88.3878 311.457 88.4329 311.377 88.4429 311.352C88.458 311.322 88.4831 311.242 88.4179 311.167H88.4229ZM89.5411 312.761C89.511 312.706 89.4508 312.671 89.3856 312.671C89.3856 312.671 89.3756 312.671 89.3706 312.671C87.8412 312.791 86.3069 312.686 84.8176 312.355C84.7474 312.34 84.6772 312.365 84.6371 312.425L83.2381 314.351C83.198 314.406 83.193 314.481 83.2231 314.537C84.1156 316.201 84.6973 317.992 84.953 319.862C84.9631 319.928 85.0082 319.983 85.0734 320.008L87.3348 320.745C87.4 320.765 87.4752 320.745 87.5203 320.695C88.5332 319.546 89.7065 318.564 91.0152 317.761C91.0704 317.726 91.1055 317.661 91.1005 317.591C90.93 315.871 90.4035 314.246 89.536 312.766L89.5411 312.761ZM88.9945 325.118C89.0246 325.213 89.1098 325.233 89.1449 325.238C89.18 325.238 89.2603 325.238 89.3154 325.158C90.3835 323.478 91.0152 321.532 91.1406 319.536C91.1456 319.436 91.0804 319.386 91.0503 319.371C91.0203 319.356 90.94 319.321 90.8598 319.381C89.9322 320.038 89.0898 320.81 88.3527 321.668C88.3226 321.703 88.3076 321.748 88.3126 321.798C88.4028 322.927 88.6335 324.045 88.9995 325.123L88.9945 325.118ZM84.0404 329.697C85.6049 329.01 86.9838 328.002 88.1371 326.708C88.1822 326.658 88.1972 326.582 88.1722 326.522C87.5855 325.108 87.2144 323.619 87.069 322.094C87.064 322.024 87.0139 321.964 86.9487 321.944L84.7123 321.216C84.7123 321.216 84.6772 321.206 84.6572 321.206C84.607 321.206 84.5619 321.226 84.5268 321.267C83.2732 322.671 81.7038 323.814 79.9839 324.571C79.9187 324.601 79.8786 324.662 79.8786 324.732V327.084C79.8786 327.154 79.9187 327.219 79.9839 327.244C81.3879 327.851 82.6916 328.669 83.8599 329.667C83.9101 329.712 83.9853 329.722 84.0455 329.692L84.0404 329.697ZM76.153 330.193C76.158 330.228 76.1831 330.308 76.2834 330.334C78.2189 330.825 80.2647 330.825 82.2002 330.334C82.2955 330.308 82.3255 330.228 82.3306 330.193C82.3356 330.158 82.3456 330.078 82.2604 330.013C81.3478 329.336 80.355 328.769 79.307 328.333C79.2619 328.313 79.2167 328.313 79.1716 328.333C78.1286 328.769 77.1358 329.336 76.2182 330.013C76.138 330.073 76.143 330.158 76.148 330.193H76.153ZM70.3415 326.713C71.4948 328.007 72.8737 329.01 74.4381 329.697C74.5033 329.727 74.5735 329.712 74.6237 329.672C75.792 328.674 77.0907 327.856 78.4997 327.249C78.5649 327.219 78.605 327.159 78.605 327.089V324.737C78.605 324.667 78.5649 324.601 78.4997 324.576C76.7798 323.819 75.2053 322.676 73.9568 321.272C73.9217 321.231 73.8765 321.211 73.8264 321.211C73.8063 321.211 73.7913 321.211 73.7713 321.221L71.5349 321.949C71.4697 321.969 71.4196 322.029 71.4146 322.099C71.2691 323.624 70.8981 325.108 70.3114 326.527C70.2863 326.587 70.2964 326.663 70.3465 326.713H70.3415ZM69.1681 325.163C69.2233 325.248 69.3086 325.248 69.3386 325.243C69.3737 325.243 69.454 325.218 69.4891 325.123C69.8501 324.045 70.0807 322.927 70.176 321.798C70.176 321.753 70.166 321.703 70.1359 321.668C69.3988 320.81 68.5564 320.043 67.6288 319.381C67.5937 319.356 67.5586 319.346 67.5285 319.346C67.4884 319.346 67.4583 319.361 67.4383 319.371C67.4082 319.386 67.3379 319.436 67.348 319.536C67.4733 321.532 68.1051 323.478 69.1732 325.158L69.1681 325.163Z" fill="#9DADF2"/>
            <path d="M79.245 162.968C85.3622 162.968 91.4743 160.642 96.1324 155.984C105.444 146.674 105.444 131.529 96.1324 122.219C91.6197 117.707 85.6229 115.226 79.245 115.226C72.8671 115.226 66.8703 117.707 62.3576 122.219C53.0465 131.529 53.0465 146.674 62.3576 155.984C67.0107 160.637 73.1279 162.968 79.245 162.968ZM94.8789 154.731C86.2597 163.349 72.2353 163.349 63.6161 154.731C54.997 146.113 54.997 132.091 63.6161 123.473C67.7929 119.297 73.3434 117.001 79.25 117.001C85.1566 117.001 90.7072 119.302 94.8839 123.473C103.503 132.091 103.503 146.113 94.8839 154.731H94.8789Z" fill="#9DADF2"/>
            <path d="M79.5606 148.033C79.4753 148.239 79.2748 148.359 79.0642 148.359C78.994 148.359 78.9238 148.344 78.8536 148.319C77.1689 147.612 75.6346 146.519 74.4212 145.156C74.2256 144.935 74.2457 144.594 74.4663 144.399C74.6869 144.203 75.0279 144.223 75.2234 144.444C76.3315 145.692 77.7305 146.69 79.2698 147.331C79.5405 147.447 79.6709 147.763 79.5556 148.033H79.5606Z" fill="#9DADF2"/>
            <path d="M70.1454 130.848L79.0503 127.288C79.1807 127.238 79.3211 127.238 79.4515 127.288L88.3564 130.848C88.562 130.928 88.6924 131.123 88.6924 131.344V137.721C88.6824 143.606 84.9619 148.926 79.4364 150.951C79.3762 150.971 79.3161 150.981 79.2509 150.981C79.1857 150.981 79.1255 150.971 79.0654 150.951C73.5399 148.921 69.8195 143.606 69.8094 137.721V131.344C69.8094 131.123 69.9398 130.928 70.1454 130.848ZM70.8824 137.721C70.8924 143.075 74.2519 147.953 79.2459 149.873C84.2399 147.953 87.6043 143.075 87.6144 137.721V131.71L79.2459 128.366L70.8824 131.71V137.721Z" fill="#9DADF2"/>
            <path d="M82.965 131.685C83.0953 131.63 83.2408 131.63 83.3761 131.685L85.4971 132.532C85.7027 132.612 85.833 132.808 85.833 133.028V135.289C85.833 135.585 85.5923 135.826 85.2965 135.826C85.0007 135.826 84.76 135.585 84.76 135.289V133.394L82.98 132.682C82.8446 132.627 82.7444 132.527 82.6842 132.392C82.629 132.261 82.629 132.116 82.6842 131.981C82.7393 131.845 82.8396 131.745 82.97 131.685H82.965Z" fill="#9DADF2"/>
            <path d="M65.6819 125.543C69.3021 121.919 74.1206 119.928 79.245 119.928C84.3694 119.928 89.1829 121.924 92.8081 125.543C100.284 133.018 100.284 145.186 92.8081 152.666C89.0676 156.405 84.1588 158.27 79.245 158.27C74.3312 158.27 69.4224 156.4 65.6819 152.666C58.206 145.191 58.206 133.023 65.6819 125.543ZM68.3344 137.721C68.3194 144.524 72.6666 150.475 79.1497 152.535C79.2099 152.555 79.2751 152.555 79.3403 152.535C85.8235 150.475 90.1706 144.524 90.1556 137.721V130.196C90.1556 130.07 90.0804 129.955 89.9601 129.905L79.3603 125.669C79.3252 125.654 79.2851 125.649 79.245 125.649C79.2049 125.649 79.1648 125.654 79.1297 125.669L68.5299 129.91C68.4096 129.955 68.3344 130.07 68.3344 130.201V137.726V137.721Z" fill="#9DADF2"/>
        </g>
    </g>
    <g opacity="0.5" filter="url(#filter0_f_404_7858)">
        <circle cx="160" cy="226" r="75" fill="#478BF9"/>
    </g>
    <defs>
        <filter id="filter0_f_404_7858" x="-15" y="51" width="350" height="350" filterUnits="userSpaceOnUse" color-interpolation-filters="sRGB">
            <feFlood flood-opacity="0" result="BackgroundImageFix"/>
            <feBlend mode="normal" in="SourceGraphic" in2="BackgroundImageFix" result="shape"/>
            <feGaussianBlur stdDeviation="50" result="effect1_foregroundBlur_404_7858"/>
        </filter>
        <linearGradient id="paint0_linear_404_7858" x1="297.646" y1="-28" x2="297.646" y2="372" gradientUnits="userSpaceOnUse">
            <stop offset="0.228081" stop-color="white" stop-opacity="0"/>
            <stop offset="0.504347" stop-color="white"/>
            <stop offset="0.756282" stop-color="white"/>
            <stop offset="1" stop-color="white" stop-opacity="0"/>
        </linearGradient>
        <linearGradient id="paint1_linear_404_7858" x1="80.6453" y1="0" x2="80.6453" y2="400" gradientUnits="userSpaceOnUse">
            <stop offset="0.228081" stop-color="white" stop-opacity="0"/>
            <stop offset="0.504347" stop-color="white"/>
            <stop offset="0.756282" stop-color="white"/>
            <stop offset="1" stop-color="white" stop-opacity="0"/>
        </linearGradient>
    </defs>
</svg>
