<svg width="148" height="893" viewBox="0 0 148 893" fill="none" xmlns="http://www.w3.org/2000/svg">
    <path d="M74.0035 893C55.0403 893 36.0927 885.789 21.6527 871.351C-7.21171 842.491 -7.21171 795.54 21.6527 766.68C35.6419 752.693 54.2321 745 74.0035 745C93.7749 745 112.365 752.693 126.354 766.68C155.219 795.54 155.219 842.491 126.354 871.351C111.93 885.773 92.9667 893 74.0035 893ZM25.5386 867.466C52.258 894.181 95.7335 894.181 122.453 867.466C149.172 840.75 149.172 797.281 122.453 770.565C109.505 757.62 92.2984 750.502 73.988 750.502C55.6777 750.502 38.4709 757.635 25.5231 770.565C-1.19636 797.281 -1.19636 840.75 25.5231 867.466H25.5386Z" fill="#9DADF2"/>
    <path d="M73.0266 846.703C73.2908 847.34 73.9126 847.713 74.5654 847.713C74.783 847.713 75.0006 847.666 75.2182 847.588C80.4408 845.397 85.1972 842.009 88.9588 837.782C89.565 837.098 89.5027 836.041 88.8188 835.435C88.1349 834.829 87.0779 834.891 86.4717 835.575C83.0366 839.445 78.6999 842.537 73.928 844.527C73.0887 844.884 72.6845 845.863 73.042 846.703H73.0266Z" fill="#9DADF2"/>
    <path d="M102.214 793.427L74.6085 782.392C74.2044 782.237 73.7692 782.237 73.3651 782.392L45.7597 793.427C45.1224 793.675 44.7183 794.282 44.7183 794.965V814.734C44.7493 832.979 56.2827 849.469 73.4117 855.748C73.5983 855.81 73.7848 855.841 73.9869 855.841C74.1889 855.841 74.3754 855.81 74.562 855.748C91.691 849.453 103.224 832.979 103.255 814.734V794.965C103.255 794.282 102.851 793.675 102.214 793.427ZM99.9291 814.734C99.898 831.332 89.4837 846.454 74.0023 852.406C58.5209 846.454 48.0912 831.332 48.0601 814.734V796.1L74.0023 785.734L99.9291 796.1V814.734Z" fill="#9DADF2"/>
    <path d="M62.4734 796.023C62.0693 795.852 61.6185 795.852 61.1988 796.023L54.6239 798.649C53.9866 798.898 53.5825 799.504 53.5825 800.188V807.197C53.5825 808.114 54.3286 808.86 55.2457 808.86C56.1628 808.86 56.9088 808.114 56.9088 807.197V801.322L62.4268 799.116C62.8465 798.945 63.1573 798.634 63.3438 798.214C63.5148 797.81 63.5148 797.359 63.3438 796.94C63.1729 796.52 62.862 796.209 62.4578 796.023H62.4734Z" fill="#9DADF2"/>
    <path d="M116.05 776.984C104.828 765.748 89.8902 759.578 74.0046 759.578C58.1191 759.578 43.1973 765.763 31.9592 776.984C8.78377 800.156 8.78377 837.875 31.9592 861.063C43.5548 872.657 58.7719 878.438 74.0046 878.438C89.2373 878.438 104.455 872.641 116.05 861.063C139.226 837.891 139.226 800.172 116.05 776.984ZM107.827 814.734C107.874 835.824 94.3978 854.271 74.3 860.659C74.1134 860.721 73.9114 860.721 73.7093 860.659C53.6114 854.271 40.1352 835.824 40.1819 814.734V791.406C40.1819 791.018 40.4149 790.661 40.788 790.505L73.6472 777.373C73.756 777.326 73.8803 777.311 74.0046 777.311C74.129 777.311 74.2534 777.326 74.3622 777.373L107.221 790.521C107.594 790.661 107.827 791.018 107.827 791.422V814.75V814.734Z" fill="#9DADF2"/>
    <path d="M74.0043 705C33.1955 705 0.00439453 671.793 0.00439453 631C0.00439453 590.207 33.2111 557 74.0043 557C114.798 557 148.004 590.207 148.004 631C148.004 671.793 114.798 705 74.0043 705ZM74.0043 561.928C35.9161 561.928 4.93252 592.912 4.93252 631C4.93252 669.088 35.9161 700.072 74.0043 700.072C112.093 700.072 143.076 669.088 143.076 631C143.076 592.912 112.093 561.928 74.0043 561.928Z" fill="#7DDACF"/>
    <path d="M122.29 578.196L99.3813 601.105L103.888 605.613L126.797 582.704L122.29 578.196Z" fill="#7DDACF"/>
    <path d="M43.43 657.057L20.521 679.966L25.028 684.473L47.9371 661.564L43.43 657.057Z" fill="#7DDACF"/>
    <path d="M104.566 657.068L100.059 661.575L122.968 684.484L127.475 679.977L104.566 657.068Z" fill="#7DDACF"/>
    <path d="M25.0241 577.518L20.5171 582.025L43.4152 604.923L47.9222 600.416L25.0241 577.518Z" fill="#7DDACF"/>
    <path d="M92.0521 632.99C93.5445 631.498 93.5445 629.088 92.0521 627.611L88.8806 624.455C87.3882 622.963 84.9786 622.963 83.5017 624.455L81.7915 626.165L79.8172 624.191C78.3248 622.699 75.9151 622.699 74.4382 624.191L72.7282 625.917L70.7538 623.927C69.2613 622.434 66.8516 622.434 65.3747 623.927L54.8811 634.42C54.8033 634.498 54.8033 634.622 54.8811 634.716C56.2802 636.115 58.5656 636.115 59.9803 634.716L66.7428 627.953C67.4735 627.223 68.655 627.223 69.3857 627.953L69.8832 628.451C69.9765 628.544 69.9765 628.684 69.8832 628.777L64.2399 634.42C64.1622 634.498 64.1622 634.622 64.2399 634.716C65.6391 636.115 67.9243 636.115 69.339 634.716L75.8219 628.233C76.5525 627.502 77.7341 627.502 78.4647 628.233L78.9621 628.731C79.0399 628.808 79.0399 628.933 78.9621 629.026L73.521 634.467C73.4432 634.545 73.4432 634.669 73.521 634.762C74.9201 636.162 77.2055 636.162 78.6202 634.762L84.8852 628.497C85.6159 627.767 86.7974 627.767 87.5281 628.497L88.6008 629.57C89.0205 629.99 89.0205 630.689 88.6008 631.109L88.4298 631.28C88.0101 631.7 87.3105 631.7 86.8908 631.28L85.5071 629.896C85.4294 629.819 85.305 629.819 85.2117 629.896L82.8177 632.291C82.7399 632.368 82.7399 632.493 82.8177 632.586L84.9785 634.747C86.4709 636.239 88.8806 636.239 90.3575 634.747L92.0677 633.037L92.0521 632.99Z" fill="#7DDACF"/>
    <path d="M74.004 574.257C42.6628 574.257 17.2603 599.659 17.2603 631C17.2603 662.341 42.6628 687.744 74.004 687.744C105.345 687.744 130.748 662.341 130.748 631C130.748 599.659 105.345 574.257 74.004 574.257ZM76.3204 591.777C85.4305 592.306 93.7011 595.944 100.106 601.634L91.9132 609.826C87.638 606.204 82.2435 603.857 76.3204 603.359V591.777ZM71.7031 591.777V603.359C65.78 603.841 60.3855 606.204 56.1103 609.826L47.9174 601.634C54.3225 595.944 62.5931 592.306 71.7031 591.777ZM44.6528 604.898L52.8456 613.091C49.2233 617.366 46.8759 622.761 46.3784 628.684H34.7964C35.325 619.574 38.9629 611.303 44.6528 604.898ZM34.7964 633.301H46.3784C46.8603 639.224 49.2233 644.619 52.8456 648.894L44.6528 657.087C38.9629 650.682 35.325 642.411 34.7964 633.301ZM71.7031 670.208C62.5931 669.679 54.3225 666.041 47.9174 660.352L56.1103 652.159C60.3855 655.781 65.78 658.128 71.7031 658.626V670.208ZM50.1561 630.985C50.1561 617.817 60.8363 607.137 74.004 607.137C87.1716 607.137 97.8519 617.817 97.8519 630.985C97.8519 644.152 87.1716 654.833 74.004 654.833C60.8363 654.833 50.1561 644.152 50.1561 630.985ZM76.3204 670.208V658.626C82.2435 658.144 87.638 655.781 91.9132 652.159L100.106 660.352C93.7011 666.041 85.4305 669.679 76.3204 670.208ZM103.371 657.087L95.178 648.894C98.8003 644.619 101.148 639.224 101.645 633.301H113.227C112.699 642.411 109.061 650.682 103.371 657.087ZM101.645 628.684C101.163 622.761 98.8003 617.366 95.178 613.091L103.371 604.898C109.061 611.303 112.699 619.574 113.227 628.684H101.645Z" fill="#7DDACF"/>
    <path d="M147.973 254.836C147.973 295.627 114.78 328.82 73.9888 328.82C33.1971 328.82 0.00439453 295.627 0.00439453 254.836C0.00439453 214.044 33.1971 180.851 73.9888 180.851C114.78 180.851 147.973 214.044 147.973 254.836ZM5.3345 254.836C5.3345 292.69 36.1341 323.49 73.9888 323.49C111.843 323.49 142.643 292.69 142.643 254.836C142.643 216.981 111.843 186.181 73.9888 186.181C36.1341 186.181 5.3345 216.981 5.3345 254.836Z" fill="#478BF9"/>
    <path d="M147.973 73.9844C147.973 75.4607 146.777 76.6418 145.316 76.6418C143.855 76.6418 142.659 75.4452 142.659 73.9844C142.659 36.1297 111.859 5.3301 74.0045 5.3301C36.1498 5.3301 5.35019 36.1297 5.35019 73.9844C5.35019 75.4607 4.1536 76.6418 2.69287 76.6418C1.23214 76.6418 0.0356445 75.4452 0.0356445 73.9844C0.0356445 33.1927 33.2284 0 74.0201 0C114.812 0 148.004 33.1927 148.004 73.9844H147.973Z" fill="#478BF9"/>
    <path d="M59.7378 241.766C59.7378 244.486 61.587 246.848 64.2288 247.5L69.2481 248.759V235.846H65.674C62.4106 235.846 59.7533 238.503 59.7533 241.766H59.7378Z" fill="#478BF9"/>
    <path d="M78.7269 273.825H82.3011C85.5644 273.825 88.2217 271.167 88.2217 267.904C88.2217 265.185 86.3725 262.823 83.7307 262.17L78.7114 260.911V273.825H78.7269Z" fill="#478BF9"/>
    <path d="M73.9892 194.635C40.7965 194.635 13.7729 221.642 13.7729 254.851C13.7729 288.059 40.7809 315.067 73.9892 315.067C107.198 315.067 134.206 288.059 134.206 254.851C134.206 221.642 107.198 194.635 73.9892 194.635ZM97.7339 245.341H88.2391V240.585C88.2391 237.975 86.1102 235.83 83.484 235.83H78.7288V251.121L86.048 252.955C92.9166 254.68 97.7184 260.818 97.7184 267.904C97.7184 276.404 90.8032 283.32 82.303 283.32H78.7288V295.347H69.2341V283.32H64.479C56.6159 283.32 50.2291 276.933 50.2291 269.07V264.315H59.7238V269.07C59.7238 271.68 61.8527 273.825 64.479 273.825H69.2341V258.534L61.9149 256.7C55.0463 254.975 50.2446 248.837 50.2446 241.751C50.2446 233.251 57.1598 226.336 65.66 226.336H69.2341V214.308H78.7288V226.336H83.484C91.347 226.336 97.7339 232.722 97.7339 240.585V245.341Z" fill="#478BF9"/>
    <path d="M148.004 72.8202V251.298C148.004 252.773 146.808 253.954 145.348 253.954C143.888 253.954 142.692 252.758 142.692 251.298V72.8202C142.692 71.3445 143.888 70.1641 145.348 70.1641C146.808 70.1641 148.004 71.3601 148.004 72.8202Z" fill="#478BF9"/>
    <path d="M5.43003 72.4318V250.909C5.43003 252.385 4.23393 253.565 2.77381 253.565C1.31368 253.565 0.117676 252.369 0.117676 250.909V72.4318C0.117676 70.9561 1.31368 69.7756 2.77381 69.7756C4.23393 69.7756 5.43003 70.9716 5.43003 72.4318Z" fill="#478BF9"/>
    <path d="M73.9945 517C33.1911 517 0.00439453 483.793 0.00439453 443C0.00439453 402.207 33.2067 369 73.9945 369C114.782 369 147.985 402.207 147.985 443C147.985 483.793 114.782 517 73.9945 517ZM73.9945 373.928C35.9114 373.928 4.93187 404.912 4.93187 443C4.93187 481.088 35.9114 512.072 73.9945 512.072C112.078 512.072 143.057 481.088 143.057 443C143.057 404.912 112.078 373.928 73.9945 373.928Z" fill="#9DADF2"/>
    <path d="M97.9949 396.797C97.6219 396.797 97.2488 396.719 96.9068 396.548C89.741 393.003 82.0311 391.2 73.9948 391.2C65.9584 391.2 58.2485 393.003 51.0827 396.548C50.1345 397.014 48.9998 396.828 48.2536 396.081L35.5385 383.365C34.9945 382.821 34.7458 382.074 34.839 381.313C34.9323 380.551 35.3675 379.882 36.0204 379.494C47.4764 372.622 60.6113 369 74.0103 369C87.4094 369 100.544 372.638 112 379.494C112.653 379.882 113.088 380.551 113.182 381.313C113.275 382.074 113.011 382.821 112.482 383.365L99.767 396.081C99.2851 396.548 98.6633 396.797 98.0105 396.797H97.9949ZM73.9948 386.272C82.1865 386.272 90.0829 387.982 97.482 391.355L106.684 382.152C96.6737 376.758 85.4353 373.928 73.9948 373.928C62.5543 373.928 51.3159 376.758 41.3054 382.152L50.5076 391.355C57.9066 387.982 65.803 386.272 73.9948 386.272Z" fill="#9DADF2"/>
    <path d="M73.9949 517C60.5959 517 47.4611 513.363 36.005 506.507C35.3522 506.118 34.9169 505.45 34.8236 504.688C34.7304 503.926 34.9946 503.18 35.5231 502.636L48.2383 489.919C48.9844 489.173 50.1347 488.986 51.0673 489.453C58.2332 492.997 65.943 494.8 73.9794 494.8C82.0157 494.8 89.7257 492.997 96.8915 489.453C97.8397 488.986 98.9744 489.173 99.7205 489.919L112.436 502.636C112.98 503.18 113.228 503.926 113.135 504.688C113.042 505.45 112.607 506.118 111.954 506.507C100.498 513.378 87.363 517 73.9639 517H73.9949ZM41.3056 503.848C51.3161 509.243 62.5544 512.072 73.9949 512.072C85.4354 512.072 96.6739 509.243 106.684 503.848L97.4821 494.645C90.0831 498.019 82.1867 499.729 73.9949 499.729C65.8032 499.729 57.9068 498.019 50.5077 494.645L41.3056 503.848Z" fill="#9DADF2"/>
    <path d="M135.382 482.192C134.729 482.192 134.108 481.943 133.641 481.477L120.926 468.76C120.18 468.014 119.993 466.863 120.46 465.931C124.004 458.764 125.807 451.053 125.807 443.016C125.807 434.978 124.004 427.267 120.46 420.1C119.993 419.152 120.18 418.002 120.926 417.271L133.641 404.554C134.185 404.01 134.931 403.761 135.693 403.855C136.455 403.948 137.123 404.383 137.512 405.036C144.382 416.494 148.004 429.63 148.004 443.031C148.004 456.432 144.382 469.569 137.512 481.026C137.123 481.679 136.455 482.114 135.693 482.208C135.584 482.208 135.491 482.208 135.382 482.208V482.192ZM125.636 466.49L134.838 475.694C140.232 465.682 143.061 454.442 143.061 443C143.061 431.558 140.232 420.318 134.838 410.306L125.636 419.51C129.009 426.91 130.719 434.807 130.719 443C130.719 451.193 129.009 459.09 125.636 466.49Z" fill="#9DADF2"/>
    <path d="M12.6107 482.192C12.5019 482.192 12.4086 482.192 12.3153 482.176C11.5537 482.083 10.8853 481.648 10.4967 480.995C3.62618 469.537 0.00439453 456.401 0.00439453 443C0.00439453 429.599 3.62618 416.462 10.4967 405.005C10.8853 404.352 11.5537 403.917 12.3153 403.823C13.077 403.73 13.8231 403.994 14.3672 404.523L27.0823 417.24C27.8284 417.986 28.0149 419.136 27.5486 420.069C24.0045 427.236 22.2014 434.947 22.2014 442.984C22.2014 451.022 24.0045 458.733 27.5486 465.899C28.0149 466.848 27.8284 467.998 27.0823 468.729L14.3672 481.446C13.9009 481.912 13.2791 482.176 12.6262 482.176L12.6107 482.192ZM13.1547 410.306C7.76087 420.318 4.93187 431.558 4.93187 443C4.93187 454.442 7.76087 465.682 13.1547 475.694L22.3569 466.49C18.9838 459.09 17.2739 451.193 17.2739 443C17.2739 434.807 18.9838 426.91 22.3569 419.51L13.1547 410.306Z" fill="#9DADF2"/>
    <path d="M73.9984 386.256C42.7235 386.256 17.2622 411.705 17.2622 443C17.2622 474.294 42.708 499.743 73.9984 499.743C105.289 499.743 130.735 474.294 130.735 443C130.735 411.705 105.289 386.256 73.9984 386.256ZM105.926 424.36C108.615 428.961 110.247 433.983 110.776 439.315C110.791 439.533 110.698 439.735 110.512 439.844C106.455 442.331 102.817 445.378 99.6774 448.938C99.5375 449.109 99.3043 449.171 99.1022 449.094L92.0918 446.808C91.8897 446.746 91.7498 446.575 91.7188 446.358C90.926 440.559 89.1229 435.009 86.356 429.847C86.2627 429.661 86.2783 429.443 86.4027 429.272L90.7395 423.303C90.8483 423.163 91.0192 423.069 91.1902 423.069C91.2369 423.069 91.268 423.069 91.3146 423.069C95.9468 424.095 100.703 424.437 105.429 424.049C105.646 424.033 105.848 424.142 105.957 424.329L105.926 424.36ZM87.8949 447.337C87.9104 447.492 87.8638 447.648 87.7705 447.757C84.0865 452.001 79.3922 455.405 74.216 457.582C74.0761 457.644 73.9362 457.644 73.7963 457.582C68.6201 455.39 63.9258 451.985 60.2418 447.757C60.1486 447.648 60.1019 447.492 60.1175 447.337C60.8325 441.709 62.589 436.33 65.3093 431.355C65.387 431.216 65.5113 431.122 65.6667 431.091C68.4025 430.516 71.2005 430.221 74.0139 430.221C76.8274 430.221 79.6254 430.516 82.3612 431.091C82.5166 431.122 82.6409 431.216 82.7186 431.355C85.4389 436.33 87.1798 441.709 87.9104 447.337H87.8949ZM87.0555 408.751C87.0555 408.751 87.242 408.596 87.4286 408.596C87.4907 408.596 87.5685 408.596 87.6462 408.642C93.3665 410.912 98.4804 414.643 102.46 419.416C102.662 419.649 102.584 419.898 102.537 419.991C102.506 420.069 102.367 420.318 102.04 420.318C98.5116 420.364 94.9986 419.96 91.5944 419.152C91.4545 419.121 91.3302 419.027 91.2525 418.903C89.4338 415.903 87.9726 412.669 86.9156 409.311C86.8223 409.016 86.9934 408.813 87.0711 408.751H87.0555ZM66.1486 406.886C71.2937 405.782 76.7186 405.782 81.8637 406.886C82.0658 406.932 82.2368 407.088 82.2834 407.29C83.3871 411.907 85.1746 416.322 87.584 420.411C87.6928 420.598 87.6773 420.831 87.5529 421.017L83.2472 426.956C83.1228 427.127 82.9052 427.22 82.7032 427.174C77.014 426.023 70.9984 426.023 65.3093 427.174C65.1072 427.22 64.8895 427.127 64.7652 426.956L60.4595 421.017C60.3351 420.846 60.3196 420.598 60.4284 420.411C62.8377 416.322 64.6252 411.907 65.7289 407.29C65.7755 407.088 65.9465 406.932 66.1486 406.886ZM45.5526 419.416C49.5319 414.628 54.646 410.897 60.3662 408.642C60.4439 408.611 60.5216 408.596 60.5838 408.596C60.7858 408.596 60.9102 408.705 60.9568 408.751C61.0345 408.829 61.2056 409.016 61.1123 409.311C60.0553 412.684 58.5941 415.903 56.7754 418.903C56.6977 419.027 56.5734 419.121 56.4335 419.152C53.0293 419.96 49.5164 420.364 45.9879 420.318C45.6614 420.318 45.5215 420.069 45.4905 419.991C45.4438 419.898 45.3661 419.649 45.5682 419.416H45.5526ZM42.0863 424.36C42.1795 424.189 42.3661 424.08 42.5681 424.08C42.5681 424.08 42.5992 424.08 42.6147 424.08C47.3557 424.453 52.1122 424.126 56.7288 423.1C56.9465 423.054 57.1641 423.132 57.2884 423.318L61.6253 429.288C61.7496 429.459 61.7651 429.692 61.6719 429.863C58.905 435.024 57.1019 440.574 56.3091 446.373C56.278 446.575 56.1382 446.746 55.9361 446.824L48.9256 449.109C48.7236 449.171 48.4904 449.109 48.3505 448.954C45.2106 445.394 41.5733 442.347 37.5163 439.859C37.3453 439.75 37.2364 439.548 37.252 439.331C37.7805 433.998 39.4127 428.961 42.1018 424.375L42.0863 424.36ZM43.7805 462.666C43.6873 462.961 43.423 463.023 43.3142 463.039C43.2054 463.039 42.9567 463.039 42.7857 462.79C39.4748 457.582 37.5163 451.55 37.1277 445.363C37.1121 445.052 37.3142 444.896 37.4075 444.85C37.5007 444.803 37.7494 444.694 37.9982 444.881C40.8738 446.917 43.4852 449.311 45.7702 451.97C45.8635 452.079 45.9101 452.219 45.8945 452.374C45.6147 455.872 44.8997 459.339 43.765 462.681L43.7805 462.666ZM59.1382 476.859C54.2884 474.729 50.0138 471.605 46.4386 467.594C46.2987 467.438 46.2521 467.205 46.3298 467.019C48.1485 462.634 49.2988 458.017 49.7495 453.291C49.7651 453.074 49.9205 452.887 50.1226 452.825L57.0553 450.571C57.0553 450.571 57.1641 450.539 57.2263 450.539C57.3817 450.539 57.5216 450.602 57.6304 450.726C61.5165 455.079 66.3818 458.624 71.7134 460.971C71.9155 461.064 72.0398 461.251 72.0398 461.469V468.76C72.0398 468.977 71.9155 469.179 71.7134 469.257C67.3611 471.138 63.3195 473.672 59.6977 476.766C59.5423 476.906 59.3091 476.937 59.1226 476.844L59.1382 476.859ZM83.5891 478.398C83.5736 478.507 83.4959 478.756 83.185 478.834C77.185 480.357 70.8429 480.357 64.8429 478.834C64.5475 478.756 64.4543 478.507 64.4388 478.398C64.4232 478.29 64.3921 478.041 64.6563 477.839C67.4854 475.74 70.5631 473.983 73.8119 472.631C73.9518 472.569 74.0917 472.569 74.2316 472.631C77.4648 473.983 80.5425 475.74 83.3871 477.839C83.6358 478.025 83.6202 478.29 83.6047 478.398H83.5891ZM101.605 467.609C98.0297 471.62 93.7551 474.729 88.9053 476.859C88.7032 476.953 88.4856 476.906 88.3301 476.782C84.7084 473.688 80.6824 471.154 76.3144 469.273C76.1124 469.179 75.9881 468.993 75.9881 468.775V461.484C75.9881 461.266 76.1124 461.064 76.3144 460.987C81.6461 458.639 86.527 455.095 90.3975 450.742C90.5063 450.617 90.6462 450.555 90.8016 450.555C90.8638 450.555 90.9104 450.555 90.9726 450.586L97.9053 452.84C98.1074 452.903 98.2628 453.089 98.2784 453.307C98.7291 458.033 99.8794 462.635 101.698 467.034C101.776 467.221 101.745 467.454 101.589 467.609H101.605ZM105.242 462.805C105.071 463.07 104.807 463.07 104.714 463.054C104.605 463.054 104.356 462.977 104.247 462.681C103.128 459.339 102.413 455.872 102.118 452.374C102.118 452.234 102.149 452.079 102.242 451.97C104.527 449.311 107.139 446.933 110.014 444.881C110.123 444.803 110.232 444.772 110.325 444.772C110.449 444.772 110.543 444.818 110.605 444.85C110.698 444.896 110.916 445.052 110.885 445.363C110.496 451.55 108.538 457.582 105.227 462.79L105.242 462.805Z" fill="#9DADF2"/>
</svg>
