<svg width="148" height="892" viewBox="0 0 148 892" fill="none" xmlns="http://www.w3.org/2000/svg">
    <path d="M74 704C92.9634 704 111.911 696.789 126.351 682.351C155.216 653.491 155.216 606.54 126.351 577.68C112.362 563.693 93.7717 556 74 556C54.2283 556 35.638 563.693 21.6486 577.68C-7.21619 606.54 -7.21619 653.491 21.6486 682.351C36.0732 696.773 55.0366 704 74 704ZM122.465 678.466C95.7457 705.181 52.2698 705.181 25.5501 678.466C-1.16965 651.75 -1.16965 608.281 25.5501 581.565C38.4981 568.62 55.705 561.502 74.0156 561.502C92.3261 561.502 109.533 568.635 122.481 581.565C149.201 608.281 149.201 651.75 122.481 678.466H122.465Z" fill="#9DADF2"/>
    <path d="M74.9801 657.718C74.7159 658.356 74.0941 658.729 73.4413 658.729C73.2237 658.729 73.006 658.682 72.7884 658.604C67.5657 656.413 62.8093 653.025 59.0477 648.798C58.4415 648.114 58.5037 647.057 59.1876 646.451C59.8715 645.845 60.9285 645.907 61.5347 646.591C64.9699 650.461 69.3066 653.553 74.0785 655.543C74.9179 655.9 75.322 656.879 74.9645 657.718H74.9801Z" fill="#9DADF2"/>
    <path d="M45.7889 604.426L73.3947 593.392C73.7988 593.237 74.234 593.237 74.6381 593.392L102.244 604.426C102.881 604.675 103.285 605.281 103.285 605.965V625.733C103.254 643.979 91.7208 660.468 74.5916 666.747C74.405 666.809 74.2185 666.84 74.0164 666.84C73.8144 666.84 73.6279 666.809 73.4413 666.747C56.3121 660.453 44.7786 643.979 44.7475 625.733V605.965C44.7475 605.281 45.1516 604.675 45.7889 604.426ZM48.0739 625.733C48.105 642.332 58.5193 657.453 74.0009 663.406C89.4825 657.453 99.9124 642.332 99.9435 625.733V607.099L74.0009 596.733L48.0739 607.099V625.733Z" fill="#9DADF2"/>
    <path d="M85.5369 607.023C85.941 606.852 86.3918 606.852 86.8115 607.023L93.3865 609.649C94.0238 609.898 94.428 610.504 94.428 611.188V618.197C94.428 619.114 93.6819 619.86 92.7648 619.86C91.8477 619.86 91.1016 619.114 91.1016 618.197V612.322L85.5836 610.115C85.1639 609.945 84.853 609.634 84.6664 609.214C84.4955 608.81 84.4955 608.359 84.6664 607.94C84.8374 607.52 85.1483 607.209 85.5525 607.023H85.5369Z" fill="#9DADF2"/>
    <path d="M31.972 587.984C43.1946 576.748 58.1321 570.578 74.0179 570.578C89.9036 570.578 104.826 576.764 116.064 587.984C139.239 611.157 139.239 648.875 116.064 672.063C104.468 683.657 89.2507 689.438 74.0179 689.438C58.785 689.438 43.5676 683.641 31.972 672.063C8.7962 648.891 8.7962 611.172 31.972 587.984ZM40.1946 625.734C40.148 646.824 53.6244 665.271 73.7225 671.659C73.909 671.721 74.1111 671.721 74.3132 671.659C94.4113 665.271 107.888 646.824 107.841 625.734V602.407C107.841 602.018 107.608 601.661 107.235 601.505L74.3753 588.373C74.2665 588.326 74.1422 588.311 74.0179 588.311C73.8935 588.311 73.7692 588.326 73.6604 588.373L40.8008 601.521C40.4278 601.661 40.1946 602.018 40.1946 602.422V625.75V625.734Z" fill="#9DADF2"/>
    <path d="M74.0076 892C114.812 892 148 858.797 148 818.008C148 777.219 114.797 744.016 74.0076 744.016C33.2186 744.016 0.0153163 777.219 0.0153163 818.008C0.0153163 858.797 33.2186 892 74.0076 892ZM74.0076 748.943C112.092 748.943 143.072 779.924 143.072 818.008C143.072 856.092 112.092 887.073 74.0076 887.073C35.9233 887.073 4.94293 856.092 4.94293 818.008C4.94293 779.924 35.9233 748.943 74.0076 748.943Z" fill="#E3E3E3"/>
    <path d="M50.0067 771.794C50.3797 771.794 50.7528 771.716 51.0948 771.545C58.2609 768.001 65.971 766.198 74.0075 766.198C82.0441 766.198 89.7542 768.001 96.9203 771.545C97.8685 772.011 99.0033 771.825 99.7494 771.079L112.465 758.363C113.009 757.819 113.258 757.073 113.164 756.311C113.071 755.55 112.636 754.881 111.983 754.493C100.527 747.622 87.3914 744 73.992 744C60.5925 744 47.4573 747.637 36.001 754.493C35.3481 754.881 34.9129 755.55 34.8196 756.311C34.7264 757.073 34.9906 757.819 35.5191 758.363L48.2346 771.079C48.7165 771.545 49.3382 771.794 49.9911 771.794H50.0067ZM74.0075 761.27C65.8155 761.27 57.9189 762.98 50.5197 766.353L41.3173 757.151C51.328 751.757 62.5667 748.928 74.0075 748.928C85.4484 748.928 96.6872 751.757 106.698 757.151L97.4954 766.353C90.0962 762.98 82.1995 761.27 74.0075 761.27Z" fill="#E3E3E3"/>
    <path d="M74.0083 892C87.4078 892 100.543 888.362 111.999 881.507C112.652 881.118 113.087 880.45 113.181 879.688C113.274 878.926 113.01 878.18 112.481 877.636L99.7658 864.921C99.0196 864.175 97.8693 863.988 96.9366 864.454C89.7706 867.999 82.0604 869.802 74.0239 869.802C65.9873 869.802 58.2772 867.999 51.1111 864.454C50.1629 863.988 49.0282 864.175 48.282 864.921L35.5665 877.636C35.0225 878.18 34.7737 878.926 34.867 879.688C34.9603 880.45 35.3955 881.118 36.0484 881.507C47.5048 888.378 60.64 892 74.0394 892H74.0083ZM106.699 878.849C96.688 884.243 85.4492 887.072 74.0083 887.072C62.5675 887.072 51.3288 884.243 41.3181 878.849L50.5204 869.646C57.9197 873.02 65.8163 874.729 74.0083 874.729C82.2003 874.729 90.097 873.02 97.4962 869.646L106.699 878.849Z" fill="#E3E3E3"/>
    <path d="M12.6179 857.181C13.2708 857.181 13.8925 856.932 14.3589 856.465L27.0744 843.75C27.8205 843.004 28.007 841.854 27.5407 840.921C23.9965 833.755 22.1934 826.045 22.1934 818.008C22.1934 809.972 23.9965 802.261 27.5407 795.095C28.007 794.147 27.8205 792.997 27.0744 792.266L14.3589 779.551C13.8148 779.007 13.0687 778.758 12.307 778.851C11.5453 778.944 10.8769 779.38 10.4883 780.033C3.61757 791.489 -0.00432414 804.624 -0.00432414 818.024C-0.00432414 831.423 3.61757 844.558 10.4883 856.015C10.8769 856.668 11.5453 857.103 12.307 857.196C12.4158 857.196 12.5091 857.196 12.6179 857.196V857.181ZM22.3644 841.481L13.1619 850.683C7.76793 840.672 4.93885 829.433 4.93885 817.993C4.93885 806.552 7.76793 795.313 13.1619 785.302L22.3644 794.505C18.9912 801.904 17.2813 809.801 17.2813 817.993C17.2813 826.185 18.9912 834.081 22.3644 841.481Z" fill="#E3E3E3"/>
    <path d="M135.393 857.181C135.502 857.181 135.595 857.181 135.689 857.165C136.45 857.072 137.119 856.636 137.507 855.984C144.378 844.527 148 831.392 148 817.993C148 804.593 144.378 791.458 137.507 780.002C137.119 779.349 136.45 778.913 135.689 778.82C134.927 778.727 134.181 778.991 133.637 779.52L120.921 792.235C120.175 792.981 119.989 794.132 120.455 795.064C123.999 802.23 125.802 809.941 125.802 817.977C125.802 826.014 123.999 833.724 120.455 840.89C119.989 841.838 120.175 842.988 120.921 843.719L133.637 856.434C134.103 856.901 134.725 857.165 135.378 857.165L135.393 857.181ZM134.849 785.302C140.243 795.313 143.072 806.552 143.072 817.993C143.072 829.433 140.243 840.672 134.849 850.683L125.647 841.481C129.02 834.081 130.73 826.185 130.73 817.993C130.73 809.801 129.02 801.904 125.647 794.505L134.849 785.302Z" fill="#E3E3E3"/>
    <path d="M74.0073 761.27C105.283 761.27 130.745 786.716 130.745 818.007C130.745 849.299 105.299 874.745 74.0073 874.745C42.716 874.745 17.2695 849.299 17.2695 818.007C17.2695 786.716 42.716 761.27 74.0073 761.27ZM42.0787 799.369C39.3895 803.971 37.7573 808.991 37.2288 814.323C37.2133 814.541 37.3065 814.743 37.493 814.852C41.5502 817.339 45.1877 820.386 48.3277 823.945C48.4676 824.116 48.7007 824.179 48.9028 824.101L55.9134 821.816C56.1154 821.754 56.2554 821.583 56.2865 821.365C57.0793 815.567 58.8824 810.017 61.6493 804.857C61.7426 804.67 61.7271 804.453 61.6027 804.282L57.2658 798.312C57.157 798.172 56.986 798.079 56.815 798.079C56.7683 798.079 56.7372 798.079 56.6906 798.079C52.0583 799.105 47.3017 799.447 42.5761 799.058C42.3585 799.043 42.1564 799.152 42.0476 799.338L42.0787 799.369ZM60.1104 822.344C60.0949 822.5 60.1415 822.655 60.2348 822.764C63.9189 827.008 68.6133 830.412 73.7897 832.588C73.9296 832.65 74.0695 832.65 74.2094 832.588C79.3857 830.396 84.0803 826.992 87.7643 822.764C87.8576 822.655 87.9042 822.5 87.8886 822.344C87.1736 816.717 85.4171 811.339 82.6968 806.364C82.6191 806.225 82.4946 806.131 82.3392 806.1C79.6033 805.525 76.8053 805.23 73.9917 805.23C71.1782 805.23 68.3801 805.525 65.6443 806.1C65.4888 806.131 65.3645 806.225 65.2868 806.364C62.5665 811.339 60.8255 816.717 60.0949 822.344H60.1104ZM60.9499 783.763C60.9499 783.763 60.7633 783.607 60.5767 783.607C60.5146 783.607 60.4369 783.607 60.3592 783.654C54.6388 785.923 49.5245 789.654 45.5451 794.426C45.343 794.659 45.4208 794.908 45.4674 795.001C45.4985 795.079 45.6384 795.328 45.9649 795.328C49.4935 795.374 53.0065 794.97 56.4108 794.162C56.5507 794.131 56.6751 794.038 56.7528 793.913C58.5715 790.913 60.0327 787.68 61.0897 784.322C61.183 784.027 61.012 783.825 60.9343 783.763H60.9499ZM81.8573 781.897C76.712 780.794 71.287 780.794 66.1417 781.897C65.9397 781.944 65.7687 782.099 65.7221 782.301C64.6184 786.918 62.8307 791.333 60.4213 795.421C60.3125 795.608 60.3281 795.841 60.4524 796.027L64.7582 801.965C64.8826 802.136 65.1003 802.23 65.3024 802.183C70.9917 801.033 77.0075 801.033 82.6968 802.183C82.8989 802.23 83.1164 802.136 83.2408 801.965L87.5467 796.027C87.671 795.856 87.6866 795.608 87.5778 795.421C85.1684 791.333 83.3807 786.918 82.277 782.301C82.2304 782.099 82.0594 781.944 81.8573 781.897ZM102.454 794.426C98.4745 789.638 93.3604 785.908 87.64 783.654C87.5622 783.623 87.4845 783.607 87.4223 783.607C87.2202 783.607 87.0959 783.716 87.0492 783.763C86.9715 783.84 86.8006 784.027 86.8938 784.322C87.9509 787.695 89.412 790.913 91.2308 793.913C91.3085 794.038 91.4328 794.131 91.5727 794.162C94.977 794.97 98.4901 795.374 102.019 795.328C102.345 795.328 102.485 795.079 102.516 795.001C102.563 794.908 102.641 794.659 102.438 794.426H102.454ZM105.92 799.369C105.827 799.198 105.641 799.09 105.439 799.09C105.439 799.09 105.407 799.09 105.392 799.09C100.651 799.463 95.8941 799.136 91.2773 798.11C91.0597 798.064 90.8421 798.141 90.7178 798.328L86.3808 804.297C86.2565 804.468 86.2409 804.701 86.3342 804.872C89.1011 810.033 90.9043 815.582 91.6971 821.381C91.7282 821.583 91.868 821.754 92.0701 821.831L99.0808 824.116C99.2828 824.179 99.516 824.116 99.6559 823.961C102.796 820.401 106.433 817.355 110.491 814.867C110.662 814.759 110.77 814.556 110.755 814.339C110.226 809.007 108.594 803.971 105.905 799.385L105.92 799.369ZM104.226 837.671C104.319 837.967 104.584 838.029 104.692 838.044C104.801 838.044 105.05 838.044 105.221 837.796C108.532 832.588 110.491 826.557 110.879 820.37C110.895 820.059 110.693 819.904 110.599 819.857C110.506 819.811 110.257 819.702 110.009 819.888C107.133 821.925 104.521 824.318 102.236 826.977C102.143 827.085 102.096 827.225 102.112 827.381C102.392 830.878 103.107 834.345 104.242 837.687L104.226 837.671ZM88.8679 851.864C93.7179 849.734 97.9927 846.609 101.568 842.599C101.708 842.443 101.754 842.21 101.677 842.024C99.858 837.64 98.7077 833.023 98.2569 828.298C98.2414 828.08 98.0859 827.894 97.8838 827.832L90.951 825.578C90.951 825.578 90.8422 825.547 90.78 825.547C90.6245 825.547 90.4846 825.609 90.3758 825.733C86.4897 830.086 81.6242 833.63 76.2924 835.977C76.0903 836.07 75.9659 836.257 75.9659 836.474V843.765C75.9659 843.982 76.0903 844.184 76.2924 844.262C80.6449 846.143 84.6865 848.677 88.3084 851.77C88.4638 851.91 88.697 851.941 88.8835 851.848L88.8679 851.864ZM64.4163 853.402C64.4318 853.511 64.5096 853.76 64.8205 853.838C70.8207 855.361 77.1629 855.361 83.1631 853.838C83.4584 853.76 83.5517 853.511 83.5673 853.402C83.5828 853.294 83.6139 853.045 83.3496 852.843C80.5205 850.744 77.4426 848.988 74.1938 847.635C74.0539 847.573 73.9141 847.573 73.7742 847.635C70.5409 848.988 67.4631 850.744 64.6184 852.843C64.3697 853.029 64.3852 853.294 64.4007 853.402H64.4163ZM46.4001 842.614C49.9753 846.625 54.2502 849.734 59.1001 851.864C59.3022 851.957 59.5198 851.91 59.6752 851.786C63.2971 848.692 67.3231 846.159 71.6912 844.278C71.8932 844.185 72.0176 843.998 72.0176 843.78V836.49C72.0176 836.272 71.8932 836.07 71.6912 835.992C66.3594 833.645 61.4784 830.101 57.6078 825.749C57.4989 825.624 57.359 825.562 57.2036 825.562C57.1414 825.562 57.0948 825.562 57.0326 825.593L50.0997 827.847C49.8976 827.909 49.7422 828.096 49.7266 828.313C49.2758 833.039 48.1255 837.64 46.3068 842.039C46.2291 842.226 46.2602 842.459 46.4156 842.614H46.4001ZM42.7627 837.811C42.9337 838.075 43.1979 838.075 43.2911 838.06C43.4 838.06 43.6487 837.982 43.7576 837.687C44.8768 834.345 45.5918 830.878 45.8872 827.381C45.8872 827.241 45.856 827.085 45.7628 826.977C43.4777 824.318 40.8662 821.94 37.9905 819.888C37.8817 819.811 37.7728 819.779 37.6796 819.779C37.5552 819.779 37.4619 819.826 37.3998 819.857C37.3065 819.904 37.0889 820.059 37.12 820.37C37.5086 826.557 39.4672 832.588 42.7782 837.796L42.7627 837.811Z" fill="#E3E3E3"/>
    <path d="M74 516C114.809 516 148 482.793 148 442C148 401.207 114.793 368 74 368C33.2067 368 -4.48147e-06 401.207 -4.48147e-06 442C-4.48147e-06 482.793 33.2067 516 74 516ZM74 372.928C112.088 372.928 143.072 403.912 143.072 442C143.072 480.088 112.088 511.072 74 511.072C35.9117 511.072 4.92812 480.088 4.92812 442C4.92812 403.912 35.9117 372.928 74 372.928Z" fill="#478BF9"/>
    <path d="M25.7257 389.206L48.6348 412.115L44.1277 416.622L21.2186 393.713L25.7257 389.206Z" fill="#478BF9"/>
    <path d="M104.578 468.056L127.487 490.965L122.98 495.472L100.071 472.563L104.578 468.056Z" fill="#478BF9"/>
    <path d="M43.4304 468.078L47.9375 472.585L25.0285 495.494L20.5214 490.987L43.4304 468.078Z" fill="#478BF9"/>
    <path d="M122.984 388.517L127.491 393.024L104.593 415.922L100.086 411.415L122.984 388.517Z" fill="#478BF9"/>
    <path d="M55.9481 443.99C54.4557 442.498 54.4557 440.088 55.9481 438.611L59.1196 435.456C60.6121 433.963 63.0217 433.963 64.4986 435.456L66.2087 437.166L68.183 435.191C69.6754 433.699 72.0851 433.699 73.562 435.191L75.2721 436.917L77.2465 434.927C78.7389 433.435 81.1486 433.435 82.6255 434.927L93.1192 445.421C93.1969 445.498 93.1969 445.623 93.1192 445.716C91.72 447.115 89.4347 447.115 88.02 445.716L81.2574 438.953C80.5267 438.223 79.3452 438.223 78.6145 438.953L78.1171 439.451C78.0238 439.544 78.0238 439.684 78.1171 439.777L83.7603 445.421C83.8381 445.498 83.8381 445.623 83.7603 445.716C82.3612 447.115 80.0758 447.115 78.6611 445.716L72.1784 439.233C71.4477 438.503 70.2662 438.503 69.5355 439.233L69.038 439.731C68.9603 439.808 68.9603 439.933 69.038 440.026L74.4792 445.467C74.5569 445.545 74.5569 445.669 74.4792 445.763C73.08 447.162 70.7948 447.162 69.3801 445.763L63.1149 439.498C62.3842 438.767 61.2028 438.767 60.4721 439.498L59.3994 440.57C58.9797 440.99 58.9797 441.69 59.3994 442.109L59.5704 442.28C59.9902 442.7 60.6897 442.7 61.1095 442.28L62.4931 440.897C62.5709 440.819 62.6952 440.819 62.7885 440.897L65.1826 443.291C65.2603 443.369 65.2603 443.493 65.1826 443.586L63.0216 445.747C61.5292 447.24 59.1196 447.24 57.6427 445.747L55.9326 444.037L55.9481 443.99Z" fill="#478BF9"/>
    <path d="M73.9965 385.257C105.338 385.257 130.74 410.659 130.74 442.001C130.74 473.342 105.338 498.744 73.9965 498.744C42.6554 498.744 17.2528 473.342 17.2528 442.001C17.2528 410.659 42.6554 385.257 73.9965 385.257ZM71.6802 402.777C62.5701 403.306 54.2995 406.944 47.8945 412.634L56.0874 420.827C60.3626 417.204 65.7571 414.857 71.6802 414.359V402.777ZM76.2974 402.777V414.359C82.2206 414.841 87.615 417.204 91.8903 420.827L100.083 412.634C93.6781 406.944 85.4075 403.306 76.2974 402.777ZM103.348 415.898L95.155 424.091C98.7773 428.367 101.125 433.761 101.622 439.684H113.204C112.676 430.574 109.038 422.304 103.348 415.898ZM113.204 444.301H101.622C101.14 450.225 98.7773 455.619 95.155 459.894L103.348 468.087C109.038 461.682 112.676 453.412 113.204 444.301ZM76.2974 481.208C85.4075 480.68 93.6781 477.042 100.083 471.352L91.8903 463.159C87.615 466.781 82.2206 469.129 76.2974 469.626V481.208ZM97.8445 441.985C97.8445 428.817 87.1642 418.137 73.9965 418.137C60.8289 418.137 50.1487 428.817 50.1487 441.985C50.1487 455.153 60.8289 465.833 73.9965 465.833C87.1642 465.833 97.8445 455.153 97.8445 441.985ZM71.6802 481.208V469.626C65.7571 469.144 60.3626 466.781 56.0874 463.159L47.8945 471.352C54.2995 477.042 62.5701 480.68 71.6802 481.208ZM44.6298 468.087L52.8226 459.894C49.2003 455.619 46.8529 450.225 46.3554 444.301H34.7735C35.302 453.412 38.9399 461.682 44.6298 468.087ZM46.3554 439.684C46.8373 433.761 49.2003 428.367 52.8226 424.091L44.6298 415.898C38.9399 422.304 35.302 430.574 34.7735 439.684H46.3554Z" fill="#478BF9"/>
    <path d="M126.35 306.406C155.217 277.539 155.217 230.574 126.35 201.707C97.4826 172.84 50.5174 172.84 21.6503 201.707C-7.21678 230.574 -7.21678 277.539 21.6503 306.406C50.5174 335.273 97.4826 335.273 126.35 306.406ZM25.1393 205.196C52.0829 178.252 95.9171 178.252 122.854 205.196C149.797 232.14 149.797 275.974 122.854 302.91C95.9101 329.854 52.0759 329.854 25.1393 302.91C-1.80422 275.967 -1.80422 232.133 25.1393 205.196Z" fill="#E3E3E3"/>
    <path d="M24.3353 238.352C24.5951 238.093 24.8057 237.763 24.925 237.398C27.4874 229.816 31.6715 223.098 37.3579 217.411C43.0372 211.732 49.7626 207.548 57.3444 204.978C58.3483 204.634 59.0222 203.701 59.0222 202.641V184.648C59.0222 183.89 58.6712 183.174 58.0745 182.703C57.4708 182.233 56.6915 182.071 55.9614 182.254C43.0021 185.497 31.138 192.223 21.6607 201.707C12.1834 211.191 5.45799 223.048 2.21465 236.008C2.03213 236.745 2.20062 237.524 2.66395 238.128C3.13431 238.732 3.85038 239.076 4.60857 239.076H22.6014C23.2753 239.076 23.8931 238.802 24.3494 238.345L24.3353 238.352ZM33.8688 213.922C28.0701 219.721 23.6965 226.516 20.8463 234.14H7.83082C11.1022 223.245 17.0484 213.29 25.1427 205.196C33.237 197.102 43.1916 191.156 54.08 187.891V200.907C46.456 203.75 39.6605 208.123 33.8618 213.929L33.8688 213.922Z" fill="#E3E3E3"/>
    <path d="M126.346 306.406C135.823 296.929 142.556 285.065 145.799 272.106C145.981 271.369 145.813 270.589 145.35 269.993C144.879 269.389 144.163 269.045 143.405 269.045H125.412C124.352 269.045 123.411 269.719 123.074 270.723C120.512 278.305 116.328 285.023 110.642 290.709C104.962 296.389 98.2369 300.573 90.6551 303.142C89.6512 303.479 88.9774 304.42 88.9774 305.48V323.473C88.9774 324.231 89.3283 324.947 89.9251 325.417C90.5288 325.888 91.3081 326.049 92.0452 325.866C105.004 322.623 116.862 315.898 126.346 306.421V306.406ZM140.169 273.973C136.897 284.868 130.951 294.823 122.857 302.917C114.763 311.012 104.808 316.958 93.9125 320.229V307.214C101.536 304.371 108.332 299.997 114.131 294.198C119.929 288.4 124.303 281.604 127.153 273.98H140.169V273.973Z" fill="#E3E3E3"/>
    <path d="M58.2952 325.207C58.7585 324.744 59.0183 324.119 59.0183 323.459V305.466C59.0183 304.406 58.3444 303.465 57.3405 303.128C49.7586 300.566 43.0403 296.382 37.354 290.696C31.6676 285.009 27.4906 278.291 24.9212 270.709C24.5842 269.705 23.6435 269.031 22.5834 269.031H4.59062C3.83243 269.031 3.11636 269.382 2.646 269.979C2.17565 270.576 2.01418 271.362 2.1967 272.092C5.44706 285.051 12.1725 296.908 21.6498 306.393C31.127 315.877 42.9912 322.602 55.9505 325.846C56.6876 326.028 57.4669 325.86 58.0636 325.396C58.1408 325.326 58.218 325.263 58.2882 325.193L58.2952 325.207ZM54.0831 307.207V320.223C43.1877 316.951 33.2331 311.005 25.1388 302.911C17.0445 294.816 11.1054 284.862 7.82692 273.966H20.8424C23.6856 281.59 28.0592 288.379 33.8649 294.185C39.6636 299.983 46.4591 304.364 54.0831 307.207Z" fill="#E3E3E3"/>
    <path d="M145.156 238.353C145.226 238.282 145.296 238.205 145.352 238.128C145.823 237.531 145.984 236.745 145.802 236.008C142.558 223.049 135.833 211.184 126.349 201.707C116.864 192.23 105.007 185.497 92.048 182.254C91.3109 182.072 90.5316 182.24 89.9349 182.703C89.3382 183.174 88.9871 183.89 88.9871 184.648V202.641C88.9871 203.701 89.6611 204.642 90.6649 204.979C98.2468 207.541 104.965 211.725 110.652 217.411C116.331 223.091 120.515 229.816 123.084 237.398C123.421 238.402 124.362 239.076 125.422 239.076H143.415C144.075 239.076 144.707 238.816 145.163 238.36L145.156 238.353ZM93.9223 187.891C104.818 191.163 114.772 197.109 122.867 205.203C130.961 213.297 136.9 223.252 140.179 234.147H127.163C124.32 226.524 119.946 219.735 114.141 213.929C108.342 208.131 101.546 203.757 93.9223 200.907V187.891Z" fill="#E3E3E3"/>
    <path d="M33.866 213.923C55.9937 191.795 92.0073 191.788 114.135 213.923C136.27 236.057 136.263 272.064 114.135 294.192C92.0073 316.319 56.0007 316.326 33.866 294.192C11.7312 272.057 11.7383 236.05 33.866 213.923Z" fill="#E3E3E3"/>
    <path d="M53.5376 274.315L94.31 274.586C96.0275 274.597 97.4107 275.999 97.3993 277.716L97.3897 279.169C97.3783 280.887 95.9767 282.27 94.2591 282.259L53.4867 281.988C51.7691 281.977 50.386 280.575 50.3974 278.858L50.407 277.405C50.4184 275.687 51.82 274.304 53.5376 274.315Z" fill="#110A1D"/>
    <path d="M88.7511 249.705C89.1933 249.705 89.6426 249.607 90.0498 249.41L93.2299 247.873C94.6129 247.199 95.2448 245.563 94.6691 244.138L93.2089 240.501C92.7596 239.392 91.6995 238.669 90.5061 238.662C89.9936 238.662 89.4882 238.788 89.0389 239.048L85.248 241.21C84.5389 241.611 84.0265 242.306 83.8439 243.106C83.6614 243.906 83.8229 244.749 84.2862 245.423L86.3642 248.434C86.9047 249.22 87.8033 249.698 88.7581 249.698L88.7511 249.705Z" fill="#110A1D"/>
    <path d="M59.4017 249.507C60.3564 249.507 61.262 249.051 61.8096 248.272L63.8665 245.372C64.3439 244.705 64.5123 243.863 64.3438 243.063C64.1754 242.262 63.6699 241.56 62.9609 241.146L59.0507 238.851C58.6084 238.591 58.1029 238.45 57.5904 238.443C56.397 238.436 55.3229 239.145 54.8595 240.248L53.3853 243.779C52.7956 245.197 53.4063 246.847 54.7753 247.535L58.1029 249.198C58.503 249.395 58.9524 249.507 59.3946 249.507H59.4017Z" fill="#110A1D"/>
    <path d="M91.9561 271.86C93.7462 271.874 95.3538 270.751 95.9646 269.066L102.767 250.343C103.202 250.554 103.666 250.715 104.136 250.835C104.691 250.975 105.252 251.045 105.821 251.045C106.151 251.045 106.474 251.031 106.79 250.989C110.335 250.54 113.024 247.5 113.045 243.92C113.073 239.96 109.872 236.717 105.912 236.689C101.953 236.661 98.7095 239.862 98.6884 243.821C98.6884 244.734 98.8429 245.611 99.1659 246.433C99.3414 246.882 99.5589 247.31 99.8117 247.718L86.8735 253.98L76.9749 239.637C77.3891 239.462 77.7893 239.244 78.1684 238.984C78.8844 238.5 79.5093 237.896 80.0147 237.187C80.8712 235.98 81.3345 234.555 81.3415 233.08C81.3696 229.121 78.1684 225.878 74.209 225.85C74.0335 225.85 73.8509 225.85 73.6754 225.864C70.1302 226.102 67.266 228.946 67.0062 232.491C66.8869 234.169 67.3291 235.776 68.2839 237.145C68.7893 237.861 69.4072 238.472 70.1162 238.956C70.4883 239.216 70.8884 239.434 71.3026 239.609L61.2286 253.804L48.501 247.437C48.7397 246.98 48.9292 246.503 49.0696 246.005C49.2381 245.401 49.3293 244.769 49.3293 244.13C49.3293 243.842 49.3153 243.555 49.2872 243.274C48.8801 239.665 45.8333 236.927 42.2039 236.906C38.2445 236.878 35.0011 240.08 34.98 244.039C34.952 247.816 37.8864 250.989 41.6563 251.249L42.1056 251.263C42.8357 251.263 43.5517 251.164 44.2467 250.954C44.696 250.813 45.1313 250.638 45.5385 250.413L51.9268 268.771C52.5095 270.463 54.1102 271.6 55.9003 271.614L91.9561 271.853V271.86Z" fill="#110A1D"/>
    <path d="M4.86454e-05 74.6303V251.37C4.86454e-05 252.831 1.19336 254 2.6501 254C4.10683 254 5.30005 252.816 5.30005 251.37V74.6303C5.30005 73.169 4.10683 72 2.6501 72C1.19336 72 4.86454e-05 73.1844 4.86454e-05 74.6303Z" fill="#E3E3E3"/>
    <path d="M142.7 74.6303V251.37C142.7 252.831 143.893 254 145.35 254C146.807 254 148 252.816 148 251.37V74.6303C148 73.169 146.807 72 145.35 72C143.893 72 142.7 73.1844 142.7 74.6303Z" fill="#E3E3E3"/>
    <path d="M0.03102 73.9844C0.03102 75.4607 1.22752 76.6418 2.68825 76.6418C4.14898 76.6418 5.34557 75.4452 5.34557 73.9844C5.34557 36.1298 36.1452 5.3301 73.9999 5.3301C111.855 5.3301 142.654 36.1298 142.654 73.9844C142.654 75.4607 143.851 76.6418 145.312 76.6418C146.772 76.6418 147.969 75.4452 147.969 73.9844C147.969 33.1928 114.776 0 73.9843 0C33.1927 0 -8.96879e-05 33.1928 -8.96879e-05 73.9844H0.03102Z" fill="#E3E3E3"/>
</svg>
