<svg width="148" height="1081" viewBox="0 0 148 1081" fill="none" xmlns="http://www.w3.org/2000/svg">
    <path d="M74 1081C55.0366 1081 36.0888 1073.79 21.6486 1059.35C-7.2162 1030.49 -7.2162 983.54 21.6486 954.68C35.638 940.693 54.2283 933 74 933C93.7717 933 112.362 940.693 126.351 954.68C155.216 983.54 155.216 1030.49 126.351 1059.35C111.927 1073.77 92.9634 1081 74 1081ZM25.5345 1055.47C52.2543 1082.18 95.7302 1082.18 122.45 1055.47C149.17 1028.75 149.17 985.281 122.45 958.565C109.502 945.62 92.295 938.502 73.9844 938.502C55.6739 938.502 38.4669 945.635 25.519 958.565C-1.20077 985.281 -1.20077 1028.75 25.519 1055.47H25.5345Z" fill="#E3E3E3"/>
    <path d="M76.7418 991.436L63.0322 1010.64H71.2548V1024.35L84.9645 1005.16H76.7418V991.436Z" fill="#E3E3E3"/>
    <path d="M73.9887 980.759C58.9734 980.759 46.7871 992.943 46.7871 1007.96C46.7871 1022.97 58.9734 1035.12 73.9887 1035.12C89.004 1035.12 101.19 1022.94 101.19 1007.96C101.19 992.974 89.004 980.759 73.9887 980.759ZM73.9887 1031.77C60.8076 1031.77 50.1135 1021.07 50.1135 1007.89C50.1135 994.715 60.8076 984.023 73.9887 984.023C87.1698 984.023 97.864 994.715 97.864 1007.89C97.864 1021.07 87.1698 1031.77 73.9887 1031.77Z" fill="#E3E3E3"/>
    <path d="M116.036 964.984C104.814 953.748 89.8759 947.578 73.9902 947.578C58.1045 947.578 43.1825 953.764 31.9443 964.984C8.76856 988.157 8.76856 1025.88 31.9443 1049.06C43.54 1060.66 58.7573 1066.45 73.9902 1066.45C89.2231 1066.45 104.441 1060.66 116.036 1049.06C139.212 1025.89 139.212 988.172 116.036 964.984ZM73.9902 1044.85C53.659 1044.85 37.1049 1028.3 37.1049 1007.97C37.1049 998.989 40.3224 990.752 45.6695 984.318L41.1618 979.811C39.8716 978.521 39.8716 976.423 41.1618 975.117C42.4519 973.812 44.5503 973.827 45.856 975.117L50.3637 979.624C55.9595 974.946 63.0008 971.869 70.6794 971.217V968.17H67.6329C64.9438 968.17 62.721 965.948 62.721 963.259V960.695C62.721 957.975 64.9438 955.784 67.6329 955.784H80.3788C83.0678 955.784 85.2906 957.975 85.2906 960.695V963.259C85.2906 965.948 83.0678 968.17 80.3788 968.17H77.3322V971.217C85.0263 971.885 92.0521 974.962 97.6479 979.624L102.156 975.117C103.446 973.827 105.544 973.827 106.85 975.117C108.14 976.407 108.14 978.505 106.85 979.811L102.342 984.318C107.689 990.752 110.907 998.973 110.907 1007.97C110.907 1028.3 94.3526 1044.85 74.0213 1044.85H73.9902Z" fill="#E3E3E3"/>
    <path d="M0.09375 637.953C0.09375 597.179 33.2726 564 74.047 564C114.822 564 148 597.179 148 637.953C148 678.728 114.822 711.906 74.047 711.906C33.2726 711.906 0.09375 678.728 0.09375 637.953ZM142.672 637.953C142.672 600.114 111.886 569.328 74.047 569.328C36.2083 569.328 5.4217 600.114 5.4217 637.953C5.4217 675.792 36.2083 706.579 74.047 706.579C111.886 706.579 142.672 675.792 142.672 637.953Z" fill="#478BF9"/>
    <path d="M0.0935018 818.743C0.0935018 817.267 1.28959 816.087 2.7497 816.087C4.20981 816.087 5.4059 817.283 5.4059 818.743C5.4059 856.582 36.1925 887.368 74.0312 887.368C111.87 887.368 142.657 856.582 142.657 818.743C142.657 817.267 143.853 816.087 145.313 816.087C146.773 816.087 147.969 817.283 147.969 818.743C147.969 859.517 114.79 892.696 74.0157 892.696C33.2412 892.696 0.0625 859.517 0.0625 818.743H0.0935018Z" fill="#478BF9"/>
    <path d="M145.746 636.167H113.359V642.551H145.746V636.167Z" fill="#478BF9"/>
    <path d="M34.2353 636.167H1.84863V642.551H34.2353V636.167Z" fill="#478BF9"/>
    <path d="M77.4954 679.411H71.1113V711.798H77.4954V679.411Z" fill="#478BF9"/>
    <path d="M77.4954 566.92H71.1113V599.307H77.4954V566.92Z" fill="#478BF9"/>
    <path d="M112.382 598.84C90.232 576.69 54.3038 576.69 32.1381 598.84C9.98783 620.991 9.98783 656.919 32.1381 679.085C54.2883 701.235 90.2165 701.235 112.382 679.085C134.532 656.934 134.532 621.006 112.382 598.84ZM83.2265 603.64C89.6883 605.644 95.4821 609.387 99.9868 614.482L100.857 615.461L99.583 615.756C96.2123 616.548 92.6086 617.201 88.8806 617.682L88.2127 617.775L88.0263 617.123C87.405 614.995 86.6749 612.945 85.8361 611.049C84.7954 608.673 83.6304 606.591 82.3567 604.836L80.9587 602.926L83.2265 603.625V603.64ZM57.3018 637.192L57.3329 636.384C57.4882 631.476 58.0318 626.785 58.9638 622.466L59.1036 621.783L59.8026 621.845C67.973 622.56 76.7027 622.528 84.8265 621.767L85.5254 621.705L85.6808 622.389C86.6283 626.754 87.172 631.46 87.3118 636.384V637.192H57.3173H57.3018ZM87.3118 640.795V641.603C87.1409 646.527 86.5972 651.234 85.6497 655.598L85.4944 656.282L84.7954 656.22C76.6716 655.459 67.942 655.443 59.7716 656.142L59.0726 656.204L58.9327 655.521C58.0007 651.203 57.4571 646.527 57.3018 641.603L57.2707 640.795H87.2807H87.3118ZM72.3068 602.289C76.8269 602.289 81.4247 608.021 84.2983 617.263L84.5935 618.195L83.6149 618.272C79.7937 618.599 75.8483 618.769 71.8874 618.769C68.206 618.769 64.5402 618.63 60.9675 618.335L59.989 618.257L60.2841 617.309C63.1577 608.036 67.7711 602.273 72.3068 602.273V602.289ZM44.4714 614.653C49.007 609.481 54.8475 605.675 61.387 603.656L63.6704 602.957L62.2568 604.883C60.9831 606.623 59.8026 608.72 58.7774 611.081C57.9542 612.945 57.2086 615.026 56.5562 617.263L56.3698 617.9L55.7019 617.822C51.9429 617.356 48.3081 616.735 44.8908 615.942L43.6015 615.647L44.4714 614.653ZM35.4001 636.353C35.835 630.295 37.7766 624.392 41.0231 619.251L41.3337 618.769L41.8929 618.909C45.8694 619.919 50.1565 620.727 54.6611 621.301L55.5 621.41L55.329 622.249C54.397 626.754 53.8689 631.522 53.7292 636.431V637.192H35.3534L35.4156 636.353H35.4001ZM41.3337 659.218L41.0231 658.736C37.7766 653.61 35.835 647.692 35.4001 641.634L35.3379 640.795H53.6981V641.557C53.8534 646.465 54.3971 651.249 55.3136 655.738L55.4844 656.577L54.6456 656.686C50.1565 657.261 45.8538 658.068 41.8774 659.078L41.3182 659.218H41.3337ZM61.387 674.347C54.8475 672.328 49.007 668.522 44.4714 663.35L43.6015 662.355L44.8908 662.06C48.3081 661.284 51.9429 660.647 55.7019 660.181L56.3698 660.103L56.5562 660.74C57.2086 662.977 57.9542 665.058 58.7774 666.922C59.8181 669.299 60.9831 671.38 62.2568 673.135L63.6704 675.062L61.387 674.363V674.347ZM72.3068 675.698C67.7711 675.698 63.1577 669.936 60.2841 660.662L59.989 659.715L60.9675 659.637C68.3769 659.047 76.2677 659.062 83.6149 659.699L84.5935 659.777L84.2983 660.709C81.4092 669.936 76.8114 675.683 72.3068 675.683V675.698ZM99.9868 663.505C95.4821 668.6 89.6728 672.343 83.2265 674.347L80.9587 675.046L82.3567 673.135C83.6304 671.396 84.7954 669.299 85.8361 666.922C86.6594 665.012 87.405 662.977 88.0263 660.849L88.2127 660.196L88.8806 660.29C92.6086 660.771 96.2123 661.423 99.583 662.216L100.857 662.526L99.9868 663.505ZM109.198 641.634C108.763 647.754 106.79 653.735 103.466 658.923L103.156 659.404L102.596 659.264C98.6665 658.224 94.3949 657.4 89.9213 656.795L89.0826 656.686L89.2534 655.863C90.1854 651.358 90.729 646.558 90.8688 641.572V640.811H109.245L109.182 641.65L109.198 641.634ZM90.8999 637.192V636.431C90.7446 631.445 90.2009 626.629 89.269 622.14L89.0981 621.317L89.9369 621.208C94.4104 620.602 98.6664 619.779 102.612 618.738L103.171 618.599L103.482 619.08C106.806 624.268 108.794 630.233 109.213 636.369L109.276 637.207H90.9155L90.8999 637.192Z" fill="#478BF9"/>
    <path d="M0 819.862V641.386C0 639.911 1.19608 638.73 2.6562 638.73C4.11631 638.73 5.3124 639.926 5.3124 641.386V819.862C5.3124 821.337 4.11631 822.518 2.6562 822.518C1.19608 822.518 0 821.322 0 819.862Z" fill="#478BF9"/>
    <path d="M142.593 820.266V641.79C142.593 640.315 143.789 639.134 145.249 639.134C146.709 639.134 147.905 640.33 147.905 641.79V820.266C147.905 821.741 146.709 822.922 145.249 822.922C143.789 822.922 142.593 821.726 142.593 820.266Z" fill="#478BF9"/>
    <path d="M21.6503 502.35C-7.21677 473.483 -7.21677 426.517 21.6503 397.65C50.5174 368.783 97.4825 368.783 126.35 397.65C155.217 426.517 155.217 473.483 126.35 502.35C97.4825 531.217 50.5174 531.217 21.6503 502.35ZM122.861 401.139C95.9171 374.196 52.0829 374.196 25.1464 401.139C-1.79719 428.083 -1.79719 471.917 25.1464 498.854C52.0899 525.797 95.9241 525.797 122.861 498.854C149.804 471.91 149.804 428.076 122.861 401.139Z" fill="#E3E3E3"/>
    <path d="M123.664 434.296C123.405 434.036 123.194 433.706 123.075 433.341C120.512 425.759 116.328 419.041 110.642 413.355C104.963 407.675 98.2372 403.491 90.6554 400.922C89.6515 400.578 88.9775 399.644 88.9775 398.584V380.591C88.9775 379.833 89.3285 379.117 89.9252 378.647C90.529 378.176 91.3082 378.015 92.0383 378.197C104.998 381.441 116.862 388.166 126.339 397.65C135.816 407.135 142.542 418.992 145.785 431.951C145.968 432.688 145.799 433.467 145.336 434.071C144.865 434.675 144.149 435.019 143.391 435.019H125.398C124.724 435.019 124.107 434.745 123.65 434.289L123.664 434.296ZM114.131 409.865C119.93 415.664 124.303 422.46 127.153 430.084H140.169C136.897 419.188 130.951 409.234 122.857 401.139C114.763 393.045 104.808 387.099 93.9198 383.835V396.85C101.544 399.693 108.339 404.067 114.138 409.872L114.131 409.865Z" fill="#E3E3E3"/>
    <path d="M21.6541 502.349C12.1768 492.872 5.44444 481.008 2.20111 468.049C2.01858 467.312 2.18708 466.532 2.65041 465.936C3.12077 465.332 3.8368 464.988 4.59498 464.988H22.5878C23.6478 464.988 24.5885 465.662 24.9255 466.666C27.4879 474.247 31.6719 480.966 37.3583 486.652C43.0376 492.332 49.763 496.516 57.3449 499.085C58.3488 499.422 59.0226 500.363 59.0226 501.423V519.415C59.0226 520.174 58.6716 520.89 58.0749 521.36C57.4712 521.83 56.6919 521.992 55.9548 521.809C42.9955 518.566 31.1384 511.841 21.6541 502.363V502.349ZM7.83133 469.916C11.1027 480.811 17.0488 490.766 25.1431 498.86C33.2374 506.955 43.1921 512.901 54.0875 516.172V503.157C46.4635 500.313 39.6679 495.94 33.8692 490.141C28.0706 484.343 23.697 477.547 20.8468 469.923H7.83133V469.916Z" fill="#E3E3E3"/>
    <path d="M89.7045 521.15C89.2412 520.686 88.9814 520.062 88.9814 519.402V501.409C88.9814 500.349 89.6554 499.408 90.6593 499.071C98.2411 496.509 104.959 492.325 110.646 486.638C116.332 480.952 120.509 474.234 123.079 466.652C123.416 465.648 124.356 464.974 125.416 464.974H143.409C144.167 464.974 144.883 465.325 145.354 465.922C145.824 466.519 145.986 467.305 145.803 468.035C142.553 480.994 135.827 492.851 126.35 502.336C116.873 511.82 105.009 518.545 92.0493 521.789C91.3122 521.971 90.5329 521.803 89.9362 521.339C89.859 521.269 89.7818 521.206 89.7116 521.136L89.7045 521.15ZM93.9167 503.15V516.165C104.812 512.894 114.767 506.948 122.861 498.854C130.955 490.759 136.894 480.805 140.173 469.909H127.157C124.314 477.533 119.941 484.322 114.135 490.127C108.336 495.926 101.541 500.307 93.9167 503.15Z" fill="#E3E3E3"/>
    <path d="M2.84415 434.296C2.77395 434.225 2.70377 434.148 2.64761 434.071C2.17725 433.474 2.01578 432.688 2.1983 431.951C5.44164 418.992 12.167 407.127 21.6513 397.65C31.1356 388.173 42.9927 381.441 55.952 378.197C56.6891 378.015 57.4684 378.183 58.0651 378.646C58.6618 379.117 59.0129 379.833 59.0129 380.591V398.584C59.0129 399.644 58.3389 400.585 57.335 400.922C49.7532 403.484 43.0348 407.668 37.3484 413.354C31.6691 419.034 27.4851 425.759 24.9157 433.341C24.5787 434.345 23.638 435.019 22.578 435.019H4.58519C3.92529 435.019 3.29344 434.759 2.83712 434.303L2.84415 434.296ZM54.0776 383.834C43.1823 387.106 33.2276 393.052 25.1333 401.146C17.039 409.241 11.0999 419.195 7.8215 430.091H20.8369C23.6801 422.467 28.0537 415.678 33.8594 409.872C39.6581 404.074 46.4537 399.7 54.0776 396.85V383.834Z" fill="#E3E3E3"/>
    <path d="M114.134 409.865C92.0063 387.738 55.9927 387.731 33.865 409.865C11.7303 432 11.7373 468.007 33.865 490.135C55.9927 512.262 91.9993 512.269 114.134 490.135C136.269 468 136.262 431.993 114.134 409.865Z" fill="#E3E3E3"/>
    <path d="M94.4741 470.259L53.7017 470.529C51.9842 470.54 50.601 471.942 50.6124 473.659L50.6221 475.113C50.6335 476.83 52.0351 478.213 53.7526 478.202L94.525 477.931C96.2426 477.92 97.6257 476.518 97.6143 474.801L97.6047 473.348C97.5933 471.63 96.1917 470.247 94.4741 470.259Z" fill="#110A1D"/>
    <path d="M59.2565 445.647C58.8142 445.647 58.365 445.549 57.9578 445.352L54.7776 443.815C53.3946 443.141 52.7628 441.505 53.3384 440.08L54.7987 436.444C55.248 435.335 56.308 434.612 57.5015 434.604C58.0139 434.604 58.5194 434.731 58.9687 434.991L62.7596 437.153C63.4686 437.553 63.9811 438.248 64.1636 439.048C64.3462 439.849 64.1847 440.691 63.7214 441.365L61.6434 444.377C61.1028 445.163 60.2042 445.64 59.2495 445.64L59.2565 445.647Z" fill="#110A1D"/>
    <path d="M88.6025 445.451C87.6477 445.451 86.7422 444.995 86.1946 444.216L84.1376 441.316C83.6603 440.649 83.4918 439.807 83.6603 439.007C83.8288 438.206 84.3342 437.504 85.0433 437.09L88.9535 434.794C89.3958 434.535 89.9013 434.394 90.4137 434.387C91.6072 434.38 92.6813 435.089 93.1446 436.191L94.6188 439.723C95.2085 441.141 94.5978 442.79 93.2289 443.478L89.9013 445.142C89.5011 445.339 89.0518 445.451 88.6095 445.451H88.6025Z" fill="#110A1D"/>
    <path d="M56.0517 467.803C54.2616 467.817 52.654 466.694 52.0432 465.009L45.2407 446.286C44.8054 446.497 44.342 446.659 43.8717 446.778C43.3171 446.918 42.7554 446.988 42.1868 446.988C41.8569 446.988 41.5339 446.974 41.218 446.932C37.6728 446.483 34.9841 443.443 34.9631 439.863C34.935 435.904 38.1361 432.66 42.0955 432.632C46.0549 432.604 49.2983 435.805 49.3194 439.765C49.3194 440.677 49.1649 441.555 48.8419 442.376C48.6664 442.826 48.4489 443.254 48.1961 443.661L61.1343 449.923L71.0329 435.581C70.6187 435.405 70.2185 435.188 69.8394 434.928C69.1233 434.443 68.4985 433.84 67.9931 433.131C67.1366 431.923 66.6733 430.498 66.6663 429.024C66.6382 425.064 69.8394 421.821 73.7988 421.793C73.9743 421.793 74.1569 421.793 74.3324 421.807C77.8776 422.046 80.7418 424.889 81.0016 428.434C81.1209 430.112 80.6787 431.72 79.7239 433.088C79.2185 433.805 78.6006 434.415 77.8916 434.9C77.5195 435.159 77.1194 435.377 76.7052 435.553L86.7792 449.747L99.5068 443.38C99.2681 442.924 99.0786 442.446 98.9382 441.948C98.7697 441.344 98.6785 440.712 98.6785 440.074C98.6785 439.786 98.6925 439.498 98.7205 439.217C99.1277 435.609 102.174 432.871 105.804 432.85C109.763 432.822 113.007 436.023 113.028 439.982C113.056 443.759 110.121 446.932 106.352 447.192L105.902 447.206C105.172 447.206 104.456 447.108 103.761 446.897C103.312 446.757 102.876 446.581 102.469 446.357L96.0809 464.715C95.4983 466.406 93.8976 467.544 92.1075 467.558L56.0517 467.796V467.803Z" fill="#110A1D"/>
    <path d="M74 336C55.0366 336 36.0888 328.789 21.6486 314.351C-7.2162 285.491 -7.2162 238.54 21.6486 209.68C35.638 195.693 54.2283 188 74 188C93.7717 188 112.362 195.693 126.351 209.68C155.216 238.54 155.216 285.491 126.351 314.351C111.927 328.773 92.9634 336 74 336ZM25.5345 310.466C52.2543 337.181 95.7302 337.181 122.45 310.466C149.17 283.75 149.17 240.281 122.45 213.565C109.502 200.62 92.295 193.502 73.9844 193.502C55.6739 193.502 38.4669 200.635 25.519 213.565C-1.20077 240.281 -1.20077 283.75 25.519 310.466H25.5345Z" fill="#7DDACF"/>
    <path d="M76.7418 246.436L63.0322 265.645H71.2548V279.352L84.9645 260.158H76.7418V246.436Z" fill="#7DDACF"/>
    <path d="M73.9887 235.759C58.9734 235.759 46.7871 247.943 46.7871 262.956C46.7871 277.969 58.9734 290.122 73.9887 290.122C89.004 290.122 101.19 277.938 101.19 262.956C101.19 247.974 89.004 235.759 73.9887 235.759ZM73.9887 286.765C60.8076 286.765 50.1135 276.073 50.1135 262.894C50.1135 249.715 60.8076 239.023 73.9887 239.023C87.1698 239.023 97.864 249.715 97.864 262.894C97.864 276.073 87.1698 286.765 73.9887 286.765Z" fill="#7DDACF"/>
    <path d="M116.036 219.984C104.814 208.748 89.8759 202.578 73.9902 202.578C58.1045 202.578 43.1825 208.764 31.9443 219.984C8.76856 243.157 8.76856 280.875 31.9443 304.063C43.54 315.657 58.7573 321.454 73.9902 321.454C89.2231 321.454 104.441 315.657 116.036 304.063C139.212 280.891 139.212 243.172 116.036 219.984ZM73.9902 299.851C53.659 299.851 37.1049 283.3 37.1049 262.972C37.1049 253.989 40.3224 245.752 45.6695 239.318L41.1618 234.811C39.8716 233.521 39.8716 231.423 41.1618 230.117C42.4519 228.812 44.5503 228.827 45.856 230.117L50.3637 234.624C55.9595 229.946 63.0008 226.869 70.6794 226.217V223.17H67.6329C64.9438 223.17 62.721 220.948 62.721 218.259V215.695C62.721 212.975 64.9438 210.784 67.6329 210.784H80.3788C83.0678 210.784 85.2906 212.975 85.2906 215.695V218.259C85.2906 220.948 83.0678 223.17 80.3788 223.17H77.3322V226.217C85.0263 226.885 92.0521 229.962 97.6479 234.624L102.156 230.117C103.446 228.827 105.544 228.827 106.85 230.117C108.14 231.407 108.14 233.505 106.85 234.811L102.342 239.318C107.689 245.752 110.907 253.973 110.907 262.972C110.907 283.3 94.3526 299.851 74.0213 299.851H73.9902Z" fill="#7DDACF"/>
    <path d="M74.0001 148C33.1912 148 0 114.793 0 74C0 33.2067 33.2068 0 74.0001 0C114.793 0 148 33.2067 148 74C148 114.793 114.793 148 74.0001 148ZM74.0001 4.92812C35.9118 4.92812 4.92822 35.9118 4.92822 74C4.92822 112.088 35.9118 143.072 74.0001 143.072C112.088 143.072 143.072 112.088 143.072 74C143.072 35.9118 112.088 4.92812 74.0001 4.92812Z" fill="#E3E3E3"/>
    <path d="M122.286 21.1954L99.377 44.1045L103.884 48.6116L126.793 25.7025L122.286 21.1954Z" fill="#E3E3E3"/>
    <path d="M43.4295 100.055L20.5205 122.964L25.0275 127.471L47.9366 104.562L43.4295 100.055Z" fill="#E3E3E3"/>
    <path d="M104.581 100.051L100.074 104.558L122.983 127.467L127.49 122.96L104.581 100.051Z" fill="#E3E3E3"/>
    <path d="M25.0432 20.5013L20.5361 25.0083L43.4342 47.9064L47.9412 43.3993L25.0432 20.5013Z" fill="#E3E3E3"/>
    <path d="M92.0672 75.9899C93.5597 74.4975 93.5597 72.0878 92.0672 70.6109L88.8958 67.455C87.4033 65.9626 84.9937 65.9626 83.5168 67.455L81.8067 69.1651L79.8324 67.1908C78.3399 65.6983 75.9302 65.6983 74.4534 67.1908L72.7433 68.9164L70.7689 66.9265C69.2765 65.434 66.8668 65.434 65.3899 66.9265L54.8962 77.4202C54.8185 77.4979 54.8185 77.6223 54.8962 77.7155C56.2953 79.1147 58.5807 79.1147 59.9954 77.7155L66.758 70.9529C67.4886 70.2222 68.6702 70.2222 69.4008 70.9529L69.8983 71.4504C69.9916 71.5437 69.9916 71.6836 69.8983 71.7769L64.255 77.4202C64.1773 77.4979 64.1773 77.6223 64.255 77.7155C65.6542 79.1147 67.9394 79.1147 69.3542 77.7155L75.837 71.2328C76.5677 70.5021 77.7492 70.5021 78.4799 71.2328L78.9773 71.7302C79.055 71.808 79.055 71.9323 78.9773 72.0256L73.5361 77.4668C73.4584 77.5445 73.4584 77.6689 73.5361 77.7622C74.9352 79.1613 77.2206 79.1613 78.6353 77.7622L84.9004 71.497C85.631 70.7664 86.8126 70.7664 87.5432 71.497L88.6159 72.5697C89.0357 72.9895 89.0357 73.6891 88.6159 74.1088L88.445 74.2798C88.0252 74.6996 87.3256 74.6996 86.9059 74.2798L85.5223 72.8962C85.4445 72.8185 85.3202 72.8185 85.2269 72.8962L82.8328 75.2903C82.7551 75.3681 82.7551 75.4924 82.8328 75.5857L84.9937 77.7466C86.4862 79.239 88.8958 79.239 90.3727 77.7466L92.0828 76.0366L92.0672 75.9899Z" fill="#E3E3E3"/>
    <path d="M74.0035 17.2407C42.6623 17.2407 17.2598 42.6432 17.2598 73.9844C17.2598 105.326 42.6623 130.728 74.0035 130.728C105.345 130.728 130.747 105.326 130.747 73.9844C130.747 42.6432 105.345 17.2407 74.0035 17.2407ZM76.3198 34.7613C85.4299 35.2899 93.7005 38.9277 100.106 44.6176L91.9126 52.8105C87.6374 49.1882 82.2429 46.8407 76.3198 46.3432V34.7613ZM71.7026 34.7613V46.3432C65.7794 46.8252 60.385 49.1882 56.1097 52.8105L47.9169 44.6176C54.3219 38.9277 62.5925 35.2899 71.7026 34.7613ZM44.6522 47.8823L52.845 56.0752C49.2227 60.3504 46.8753 65.7449 46.3778 71.668H34.7959C35.3244 62.558 38.9623 54.2873 44.6522 47.8823ZM34.7959 76.2853H46.3778C46.8597 82.2084 49.2227 87.6029 52.845 91.8781L44.6522 100.071C38.9623 93.6659 35.3244 85.3953 34.7959 76.2853ZM71.7026 113.192C62.5925 112.663 54.3219 109.026 47.9169 103.336L56.1097 95.1428C60.385 98.7651 65.7794 101.113 71.7026 101.61V113.192ZM50.1555 73.9688C50.1555 60.8012 60.8358 50.121 74.0035 50.121C87.1711 50.121 97.8513 60.8012 97.8513 73.9688C97.8513 87.1365 87.1711 97.8167 74.0035 97.8167C60.8358 97.8167 50.1555 87.1365 50.1555 73.9688ZM76.3198 113.192V101.61C82.2429 101.128 87.6374 98.7651 91.9126 95.1428L100.106 103.336C93.7005 109.026 85.4299 112.663 76.3198 113.192ZM103.37 100.071L95.1774 91.8781C98.7997 87.6029 101.147 82.2084 101.645 76.2853H113.227C112.698 85.3953 109.06 93.6659 103.37 100.071ZM101.645 71.668C101.163 65.7449 98.7997 60.3504 95.1774 56.0752L103.37 47.8823C109.06 54.2873 112.698 62.558 113.227 71.668H101.645Z" fill="#E3E3E3"/>
</svg>
