<svg width="500" height="1240" viewBox="0 0 500 1240" fill="none" xmlns="http://www.w3.org/2000/svg">
    <mask id="mask0_404_8704" style="mask-type:alpha" maskUnits="userSpaceOnUse" x="0" y="0" width="500" height="1240">
        <rect width="500" height="1240" fill="url(#paint0_linear_404_8704)"/>
    </mask>
    <g mask="url(#mask0_404_8704)">
        <g opacity="0.5">
            <path d="M499.969 1301.98C499.969 1303.46 498.772 1304.64 497.312 1304.64C495.851 1304.64 494.654 1303.45 494.654 1301.98C494.654 1264.13 463.855 1233.33 426 1233.33C388.145 1233.33 357.346 1264.13 357.346 1301.98C357.346 1303.46 356.149 1304.64 354.688 1304.64C353.228 1304.64 352.031 1303.45 352.031 1301.98C352.031 1261.19 385.224 1228 426.016 1228C466.807 1228 500 1261.19 500 1301.98H499.969Z" fill="#E3E3E3"/>
            <path d="M426 1188C385.191 1188 352 1154.79 352 1114C352 1073.21 385.207 1040 426 1040C466.793 1040 500 1073.21 500 1114C500 1154.79 466.793 1188 426 1188ZM426 1044.93C387.912 1044.93 356.928 1075.91 356.928 1114C356.928 1152.09 387.912 1183.07 426 1183.07C464.088 1183.07 495.072 1152.09 495.072 1114C495.072 1075.91 464.088 1044.93 426 1044.93Z" fill="#7DDACF"/>
            <path d="M474.274 1061.21L451.365 1084.12L455.872 1088.62L478.782 1065.71L474.274 1061.21Z" fill="#7DDACF"/>
            <path d="M395.422 1140.06L372.513 1162.96L377.02 1167.47L399.929 1144.56L395.422 1140.06Z" fill="#7DDACF"/>
            <path d="M456.57 1140.08L452.063 1144.59L474.972 1167.49L479.479 1162.99L456.57 1140.08Z" fill="#7DDACF"/>
            <path d="M377.016 1060.52L372.509 1065.02L395.407 1087.92L399.914 1083.42L377.016 1060.52Z" fill="#7DDACF"/>
            <path d="M444.052 1115.99C445.544 1114.5 445.544 1112.09 444.052 1110.61L440.88 1107.46C439.388 1105.96 436.978 1105.96 435.501 1107.46L433.791 1109.17L431.817 1107.19C430.325 1105.7 427.915 1105.7 426.438 1107.19L424.728 1108.92L422.753 1106.93C421.261 1105.43 418.851 1105.43 417.374 1106.93L406.881 1117.42C406.803 1117.5 406.803 1117.62 406.881 1117.72C408.28 1119.11 410.565 1119.11 411.98 1117.72L418.743 1110.95C419.473 1110.22 420.655 1110.22 421.385 1110.95L421.883 1111.45C421.976 1111.54 421.976 1111.68 421.883 1111.78L416.24 1117.42C416.162 1117.5 416.162 1117.62 416.24 1117.72C417.639 1119.11 419.924 1119.11 421.339 1117.72L427.822 1111.23C428.552 1110.5 429.734 1110.5 430.464 1111.23L430.962 1111.73C431.04 1111.81 431.04 1111.93 430.962 1112.03L425.521 1117.47C425.443 1117.54 425.443 1117.67 425.521 1117.76C426.92 1119.16 429.205 1119.16 430.62 1117.76L436.885 1111.5C437.616 1110.77 438.797 1110.77 439.528 1111.5L440.6 1112.57C441.02 1112.99 441.02 1113.69 440.6 1114.11L440.43 1114.28C440.01 1114.7 439.31 1114.7 438.89 1114.28L437.507 1112.9C437.429 1112.82 437.305 1112.82 437.211 1112.9L434.817 1115.29C434.74 1115.37 434.74 1115.49 434.817 1115.59L436.978 1117.75C438.471 1119.24 440.88 1119.24 442.357 1117.75L444.067 1116.04L444.052 1115.99Z" fill="#7DDACF"/>
            <path d="M426.003 1057.26C394.662 1057.26 369.26 1082.66 369.26 1114C369.26 1145.34 394.662 1170.74 426.003 1170.74C457.345 1170.74 482.747 1145.34 482.747 1114C482.747 1082.66 457.345 1057.26 426.003 1057.26ZM428.32 1074.78C437.43 1075.31 445.7 1078.94 452.106 1084.63L443.913 1092.83C439.637 1089.2 434.243 1086.86 428.32 1086.36V1074.78ZM423.703 1074.78V1086.36C417.779 1086.84 412.385 1089.2 408.11 1092.83L399.917 1084.63C406.322 1078.94 414.592 1075.31 423.703 1074.78ZM396.652 1087.9L404.845 1096.09C401.223 1100.37 398.875 1105.76 398.378 1111.68H386.796C387.324 1102.57 390.962 1094.3 396.652 1087.9ZM386.796 1116.3H398.378C398.86 1122.22 401.223 1127.62 404.845 1131.89L396.652 1140.09C390.962 1133.68 387.324 1125.41 386.796 1116.3ZM423.703 1153.21C414.592 1152.68 406.322 1149.04 399.917 1143.35L408.11 1135.16C412.385 1138.78 417.779 1141.13 423.703 1141.63V1153.21ZM402.156 1113.98C402.156 1100.82 412.836 1090.14 426.003 1090.14C439.171 1090.14 449.851 1100.82 449.851 1113.98C449.851 1127.15 439.171 1137.83 426.003 1137.83C412.836 1137.83 402.156 1127.15 402.156 1113.98ZM428.32 1153.21V1141.63C434.243 1141.14 439.637 1138.78 443.913 1135.16L452.106 1143.35C445.7 1149.04 437.43 1152.68 428.32 1153.21ZM455.37 1140.09L447.177 1131.89C450.8 1127.62 453.147 1122.22 453.645 1116.3H465.227C464.698 1125.41 461.06 1133.68 455.37 1140.09ZM453.645 1111.68C453.163 1105.76 450.8 1100.37 447.177 1096.09L455.37 1087.9C461.06 1094.3 464.698 1102.57 465.227 1111.68H453.645Z" fill="#7DDACF"/>
            <path d="M426 1000C407.037 1000 388.089 992.789 373.649 978.351C344.784 949.491 344.784 902.54 373.649 873.68C387.638 859.693 406.228 852 426 852C445.772 852 464.362 859.693 478.351 873.68C507.216 902.54 507.216 949.491 478.351 978.351C463.927 992.773 444.963 1000 426 1000ZM377.535 974.466C404.254 1001.18 447.73 1001.18 474.45 974.466C501.17 947.75 501.17 904.281 474.45 877.565C461.502 864.62 444.295 857.502 425.984 857.502C407.674 857.502 390.467 864.635 377.519 877.565C350.799 904.281 350.799 947.75 377.519 974.466H377.535Z" fill="#9DADF2"/>
            <path d="M425.02 953.702C425.284 954.339 425.906 954.712 426.559 954.712C426.776 954.712 426.994 954.665 427.212 954.588C432.434 952.396 437.191 949.008 440.952 944.781C441.559 944.097 441.496 943.04 440.812 942.434C440.129 941.828 439.072 941.89 438.465 942.574C435.03 946.444 430.693 949.537 425.922 951.526C425.082 951.883 424.678 952.863 425.036 953.702H425.02Z" fill="#9DADF2"/>
            <path d="M454.211 900.427L426.605 889.393C426.201 889.238 425.766 889.238 425.362 889.393L397.756 900.427C397.119 900.676 396.715 901.282 396.715 901.966V921.734C396.746 939.98 408.279 956.469 425.409 962.748C425.595 962.81 425.782 962.841 425.984 962.841C426.186 962.841 426.372 962.81 426.559 962.748C443.688 956.454 455.222 939.98 455.253 921.734V901.966C455.253 901.282 454.849 900.676 454.211 900.427ZM451.926 921.734C451.895 938.333 441.481 953.454 425.999 959.407C410.518 953.454 400.088 938.333 400.057 921.734V903.1L425.999 892.734L451.926 903.1V921.734Z" fill="#9DADF2"/>
            <path d="M414.463 903.023C414.059 902.852 413.608 902.852 413.189 903.023L406.614 905.649C405.976 905.898 405.572 906.504 405.572 907.188V914.197C405.572 915.114 406.318 915.86 407.235 915.86C408.152 915.86 408.899 915.114 408.899 914.197V908.322L414.417 906.116C414.836 905.945 415.147 905.634 415.334 905.214C415.505 904.81 415.505 904.359 415.334 903.94C415.163 903.52 414.852 903.209 414.448 903.023H414.463Z" fill="#9DADF2"/>
            <path d="M468.028 883.983C456.806 872.747 441.868 866.577 425.982 866.577C410.097 866.577 395.175 872.763 383.936 883.983C360.761 907.156 360.761 944.874 383.936 968.062C395.532 979.656 410.749 985.437 425.982 985.437C441.215 985.437 456.433 979.64 468.028 968.062C491.204 944.89 491.204 907.171 468.028 883.983ZM459.806 921.733C459.852 942.823 446.376 961.27 426.278 967.658C426.091 967.72 425.889 967.72 425.687 967.658C405.589 961.27 392.112 942.823 392.159 921.733V898.406C392.159 898.017 392.392 897.66 392.765 897.504L425.625 884.372C425.734 884.325 425.858 884.31 425.982 884.31C426.107 884.31 426.231 884.325 426.34 884.372L459.199 897.52C459.572 897.66 459.806 898.017 459.806 898.421V921.749V921.733Z" fill="#9DADF2"/>
            <path d="M426 624C407.037 624 388.089 616.789 373.649 602.351C344.784 573.491 344.784 526.54 373.649 497.68C387.638 483.693 406.228 476 426 476C445.772 476 464.362 483.693 478.351 497.68C507.216 526.54 507.216 573.491 478.351 602.351C463.927 616.773 444.963 624 426 624ZM377.535 598.466C404.254 625.181 447.73 625.181 474.45 598.466C501.17 571.75 501.17 528.281 474.45 501.565C461.502 488.62 444.295 481.502 425.984 481.502C407.674 481.502 390.467 488.635 377.519 501.565C350.799 528.281 350.799 571.75 377.519 598.466H377.535Z" fill="#9DADF2"/>
            <path d="M425.02 577.718C425.284 578.355 425.906 578.728 426.559 578.728C426.776 578.728 426.994 578.681 427.212 578.604C432.434 576.412 437.191 573.024 440.952 568.797C441.559 568.113 441.496 567.057 440.812 566.45C440.129 565.844 439.072 565.907 438.465 566.59C435.03 570.46 430.693 573.553 425.922 575.542C425.082 575.9 424.678 576.879 425.036 577.718H425.02Z" fill="#9DADF2"/>
            <path d="M454.211 524.426L426.605 513.392C426.201 513.237 425.766 513.237 425.362 513.392L397.756 524.426C397.119 524.675 396.715 525.281 396.715 525.965V545.733C396.746 563.979 408.279 580.468 425.409 586.747C425.595 586.809 425.782 586.84 425.984 586.84C426.186 586.84 426.372 586.809 426.559 586.747C443.688 580.453 455.222 563.979 455.253 545.733V525.965C455.253 525.281 454.849 524.675 454.211 524.426ZM451.926 545.733C451.895 562.332 441.481 577.453 425.999 583.406C410.518 577.453 400.088 562.332 400.057 545.733V527.099L425.999 516.733L451.926 527.099V545.733Z" fill="#9DADF2"/>
            <path d="M414.463 527.022C414.059 526.851 413.608 526.851 413.189 527.022L406.614 529.648C405.976 529.897 405.572 530.503 405.572 531.187V538.196C405.572 539.113 406.318 539.859 407.235 539.859C408.152 539.859 408.899 539.113 408.899 538.196V532.321L414.417 530.114C414.836 529.944 415.147 529.633 415.334 529.213C415.505 528.809 415.505 528.358 415.334 527.939C415.163 527.519 414.852 527.208 414.448 527.022H414.463Z" fill="#9DADF2"/>
            <path d="M468.028 507.984C456.806 496.748 441.868 490.578 425.982 490.578C410.097 490.578 395.175 496.763 383.936 507.984C360.761 531.156 360.761 568.875 383.936 592.062C395.532 603.656 410.749 609.438 425.982 609.438C441.215 609.438 456.433 603.641 468.028 592.062C491.204 568.89 491.204 531.172 468.028 507.984ZM459.806 545.734C459.852 566.823 446.376 585.271 426.278 591.658C426.091 591.721 425.889 591.721 425.687 591.658C405.589 585.271 392.112 566.823 392.159 545.734V522.406C392.159 522.018 392.392 521.66 392.765 521.505L425.625 508.372C425.734 508.326 425.858 508.31 425.982 508.31C426.107 508.31 426.231 508.326 426.34 508.372L459.199 521.52C459.572 521.66 459.806 522.018 459.806 522.422V545.749V545.734Z" fill="#9DADF2"/>
            <path d="M425.992 812C385.188 812 352 778.797 352 738.008C352 697.219 385.203 664.015 425.992 664.015C466.781 664.015 499.985 697.219 499.985 738.008C499.985 778.797 466.781 812 425.992 812ZM425.992 668.943C387.908 668.943 356.928 699.923 356.928 738.008C356.928 776.092 387.908 807.072 425.992 807.072C464.077 807.072 495.057 776.092 495.057 738.008C495.057 699.923 464.077 668.943 425.992 668.943Z" fill="#E3E3E3"/>
            <path d="M449.993 691.794C449.62 691.794 449.247 691.716 448.905 691.545C441.739 688.001 434.029 686.198 425.992 686.198C417.956 686.198 410.246 688.001 403.08 691.545C402.132 692.011 400.997 691.825 400.251 691.079L387.535 678.363C386.991 677.819 386.742 677.073 386.836 676.311C386.929 675.55 387.364 674.881 388.017 674.493C399.473 667.622 412.609 664 426.008 664C439.407 664 452.543 667.637 463.999 674.493C464.652 674.881 465.087 675.55 465.18 676.311C465.274 677.073 465.009 677.819 464.481 678.363L451.765 691.079C451.283 691.545 450.662 691.794 450.009 691.794H449.993ZM425.992 681.27C434.184 681.27 442.081 682.98 449.48 686.353L458.683 677.151C448.672 671.757 437.433 668.928 425.992 668.928C414.552 668.928 403.313 671.757 393.302 677.151L402.505 686.353C409.904 682.98 417.8 681.27 425.992 681.27Z" fill="#E3E3E3"/>
            <path d="M425.992 812C412.592 812 399.457 808.362 388.001 801.507C387.348 801.119 386.913 800.45 386.819 799.688C386.726 798.927 386.99 798.181 387.519 797.637L400.234 784.921C400.98 784.175 402.131 783.988 403.063 784.455C410.229 787.999 417.94 789.802 425.976 789.802C434.013 789.802 441.723 787.999 448.889 784.455C449.837 783.988 450.972 784.175 451.718 784.921L464.433 797.637C464.978 798.181 465.226 798.927 465.133 799.688C465.04 800.45 464.604 801.119 463.952 801.507C452.495 808.378 439.36 812 425.961 812H425.992ZM393.301 798.849C403.312 804.243 414.551 807.072 425.992 807.072C437.433 807.072 448.671 804.243 458.682 798.849L449.48 789.647C442.08 793.02 434.184 794.73 425.992 794.73C417.8 794.73 409.903 793.02 402.504 789.647L393.301 798.849Z" fill="#E3E3E3"/>
            <path d="M487.382 777.181C486.729 777.181 486.107 776.932 485.641 776.465L472.926 763.75C472.179 763.004 471.993 761.854 472.459 760.921C476.003 753.755 477.807 746.045 477.807 738.008C477.807 729.972 476.003 722.261 472.459 715.095C471.993 714.147 472.179 712.997 472.926 712.266L485.641 699.551C486.185 699.007 486.931 698.758 487.693 698.851C488.455 698.944 489.123 699.38 489.512 700.033C496.382 711.489 500.004 724.624 500.004 738.024C500.004 751.423 496.382 764.558 489.512 776.015C489.123 776.668 488.455 777.103 487.693 777.196C487.584 777.196 487.491 777.196 487.382 777.196V777.181ZM477.636 761.481L486.838 770.683C492.232 760.672 495.061 749.433 495.061 737.993C495.061 726.552 492.232 715.313 486.838 705.302L477.636 714.505C481.009 721.904 482.719 729.801 482.719 737.993C482.719 746.185 481.009 754.081 477.636 761.481Z" fill="#E3E3E3"/>
            <path d="M364.607 777.18C364.498 777.18 364.405 777.18 364.311 777.165C363.55 777.071 362.881 776.636 362.493 775.983C355.622 764.527 352 751.392 352 737.992C352 724.593 355.622 711.458 362.493 700.001C362.881 699.348 363.55 698.913 364.311 698.82C365.073 698.727 365.819 698.991 366.363 699.519L379.079 712.235C379.825 712.981 380.011 714.131 379.545 715.064C376.001 722.23 374.198 729.94 374.198 737.977C374.198 746.013 376.001 753.723 379.545 760.889C380.011 761.838 379.825 762.988 379.079 763.719L366.363 776.434C365.897 776.9 365.275 777.165 364.622 777.165L364.607 777.18ZM365.151 705.302C359.757 715.313 356.928 726.551 356.928 737.992C356.928 749.433 359.757 760.672 365.151 770.683L374.353 761.48C370.98 754.081 369.27 746.184 369.27 737.992C369.27 729.8 370.98 721.904 374.353 714.504L365.151 705.302Z" fill="#E3E3E3"/>
            <path d="M425.993 681.27C394.717 681.27 369.255 706.717 369.255 738.008C369.255 769.299 394.701 794.746 425.993 794.746C457.284 794.746 482.731 769.299 482.731 738.008C482.731 706.717 457.284 681.27 425.993 681.27ZM457.921 719.37C460.611 723.971 462.243 728.992 462.771 734.324C462.787 734.541 462.694 734.744 462.507 734.852C458.45 737.339 454.812 740.386 451.672 743.946C451.532 744.117 451.299 744.179 451.097 744.101L444.087 741.816C443.885 741.754 443.745 741.583 443.713 741.366C442.921 735.567 441.118 730.018 438.351 724.857C438.257 724.671 438.273 724.453 438.397 724.282L442.734 718.313C442.843 718.173 443.014 718.08 443.185 718.08C443.232 718.08 443.263 718.08 443.309 718.08C447.942 719.106 452.698 719.448 457.424 719.059C457.641 719.043 457.844 719.152 457.952 719.339L457.921 719.37ZM439.89 742.345C439.905 742.5 439.858 742.656 439.765 742.764C436.081 747.008 431.387 750.412 426.21 752.589C426.07 752.651 425.931 752.651 425.791 752.589C420.614 750.397 415.92 746.993 412.236 742.764C412.142 742.656 412.096 742.5 412.111 742.345C412.826 736.718 414.583 731.339 417.303 726.365C417.381 726.225 417.505 726.132 417.661 726.101C420.397 725.526 423.195 725.23 426.008 725.23C428.822 725.23 431.62 725.526 434.356 726.101C434.511 726.132 434.635 726.225 434.713 726.365C437.434 731.339 439.175 736.718 439.905 742.345H439.89ZM439.05 703.763C439.05 703.763 439.237 703.608 439.423 703.608C439.485 703.608 439.563 703.608 439.641 703.654C445.361 705.924 450.475 709.654 454.455 714.427C454.657 714.66 454.579 714.909 454.533 715.002C454.501 715.08 454.362 715.328 454.035 715.328C450.507 715.375 446.993 714.971 443.589 714.162C443.449 714.131 443.325 714.038 443.247 713.914C441.428 710.914 439.967 707.68 438.91 704.323C438.817 704.027 438.988 703.825 439.066 703.763H439.05ZM418.143 701.898C423.288 700.794 428.713 700.794 433.858 701.898C434.06 701.944 434.231 702.1 434.278 702.302C435.382 706.919 437.169 711.333 439.579 715.422C439.687 715.608 439.672 715.841 439.548 716.028L435.242 721.966C435.117 722.137 434.9 722.23 434.698 722.183C429.008 721.033 422.993 721.033 417.303 722.183C417.101 722.23 416.884 722.137 416.759 721.966L412.453 716.028C412.329 715.857 412.313 715.608 412.422 715.422C414.832 711.333 416.619 706.919 417.723 702.302C417.77 702.1 417.941 701.944 418.143 701.898ZM397.546 714.427C401.526 709.639 406.64 705.908 412.36 703.654C412.438 703.623 412.516 703.608 412.578 703.608C412.78 703.608 412.904 703.716 412.951 703.763C413.028 703.841 413.199 704.027 413.106 704.323C412.049 707.696 410.588 710.914 408.769 713.914C408.692 714.038 408.567 714.131 408.427 714.162C405.023 714.971 401.51 715.375 397.981 715.328C397.655 715.328 397.515 715.08 397.484 715.002C397.437 714.909 397.359 714.66 397.562 714.427H397.546ZM394.08 719.37C394.173 719.199 394.359 719.09 394.561 719.09C394.561 719.09 394.593 719.09 394.608 719.09C399.349 719.463 404.106 719.137 408.723 718.111C408.94 718.064 409.158 718.142 409.282 718.328L413.619 724.297C413.744 724.468 413.759 724.702 413.666 724.873C410.899 730.034 409.096 735.583 408.303 741.381C408.272 741.583 408.132 741.754 407.93 741.832L400.919 744.117C400.717 744.179 400.484 744.117 400.344 743.961C397.204 740.402 393.567 737.355 389.509 734.868C389.338 734.759 389.23 734.557 389.245 734.339C389.774 729.008 391.406 723.971 394.095 719.385L394.08 719.37ZM395.774 757.672C395.681 757.967 395.416 758.029 395.308 758.045C395.199 758.045 394.95 758.045 394.779 757.796C391.468 752.589 389.509 746.557 389.121 740.371C389.105 740.06 389.307 739.904 389.401 739.858C389.494 739.811 389.743 739.702 389.991 739.889C392.867 741.925 395.479 744.319 397.764 746.977C397.857 747.086 397.904 747.226 397.888 747.381C397.608 750.879 396.893 754.345 395.758 757.687L395.774 757.672ZM411.132 771.864C406.282 769.734 402.007 766.61 398.432 762.599C398.292 762.444 398.246 762.211 398.323 762.024C400.142 757.641 401.292 753.024 401.743 748.298C401.759 748.081 401.914 747.894 402.116 747.832L409.049 745.578C409.049 745.578 409.158 745.547 409.22 745.547C409.375 745.547 409.515 745.609 409.624 745.734C413.51 750.086 418.376 753.63 423.708 755.977C423.91 756.071 424.034 756.257 424.034 756.475V763.765C424.034 763.983 423.91 764.185 423.708 764.263C419.355 766.144 415.314 768.677 411.692 771.771C411.536 771.911 411.303 771.942 411.117 771.848L411.132 771.864ZM435.584 773.403C435.568 773.512 435.49 773.761 435.18 773.838C429.179 775.362 422.837 775.362 416.837 773.838C416.542 773.761 416.448 773.512 416.433 773.403C416.417 773.294 416.386 773.045 416.65 772.843C419.479 770.745 422.557 768.988 425.806 767.636C425.946 767.574 426.086 767.574 426.226 767.636C429.459 768.988 432.537 770.745 435.382 772.843C435.63 773.03 435.615 773.294 435.599 773.403H435.584ZM453.6 762.615C450.025 766.625 445.75 769.734 440.9 771.864C440.698 771.957 440.48 771.911 440.325 771.786C436.703 768.693 432.677 766.159 428.309 764.278C428.107 764.185 427.982 763.998 427.982 763.781V756.49C427.982 756.273 428.107 756.071 428.309 755.993C433.641 753.646 438.522 750.102 442.392 745.749C442.501 745.625 442.641 745.563 442.796 745.563C442.859 745.563 442.905 745.563 442.967 745.594L449.9 747.848C450.102 747.91 450.258 748.096 450.273 748.314C450.724 753.039 451.874 757.641 453.693 762.04C453.771 762.226 453.74 762.46 453.584 762.615H453.6ZM457.237 757.812C457.066 758.076 456.802 758.076 456.709 758.06C456.6 758.06 456.351 757.983 456.242 757.687C455.123 754.345 454.408 750.879 454.113 747.381C454.113 747.241 454.144 747.086 454.237 746.977C456.522 744.319 459.134 741.941 462.01 739.889C462.118 739.811 462.227 739.78 462.32 739.78C462.445 739.78 462.538 739.827 462.6 739.858C462.693 739.904 462.911 740.06 462.88 740.371C462.491 746.557 460.533 752.589 457.222 757.796L457.237 757.812Z" fill="#E3E3E3"/>
            <path d="M426 436C385.191 436 352 402.793 352 362C352 321.207 385.207 288 426 288C466.793 288 500 321.207 500 362C500 402.793 466.793 436 426 436ZM426 292.928C387.912 292.928 356.928 323.912 356.928 362C356.928 400.088 387.912 431.072 426 431.072C464.088 431.072 495.072 400.088 495.072 362C495.072 323.912 464.088 292.928 426 292.928Z" fill="#478BF9"/>
            <path d="M474.274 309.207L451.365 332.116L455.872 336.623L478.782 313.714L474.274 309.207Z" fill="#478BF9"/>
            <path d="M395.422 388.056L372.513 410.965L377.02 415.472L399.929 392.563L395.422 388.056Z" fill="#478BF9"/>
            <path d="M456.57 388.078L452.063 392.585L474.972 415.494L479.479 410.987L456.57 388.078Z" fill="#478BF9"/>
            <path d="M377.016 308.517L372.509 313.024L395.407 335.922L399.914 331.415L377.016 308.517Z" fill="#478BF9"/>
            <path d="M444.052 363.99C445.544 362.497 445.544 360.088 444.052 358.611L440.88 355.455C439.388 353.963 436.978 353.963 435.501 355.455L433.791 357.165L431.817 355.191C430.325 353.698 427.915 353.698 426.438 355.191L424.728 356.916L422.753 354.926C421.261 353.434 418.851 353.434 417.374 354.926L406.881 365.42C406.803 365.498 406.803 365.622 406.881 365.716C408.28 367.115 410.565 367.115 411.98 365.716L418.743 358.953C419.473 358.222 420.655 358.222 421.385 358.953L421.883 359.45C421.976 359.544 421.976 359.684 421.883 359.777L416.24 365.42C416.162 365.498 416.162 365.622 416.24 365.716C417.639 367.115 419.924 367.115 421.339 365.716L427.822 359.233C428.552 358.502 429.734 358.502 430.464 359.233L430.962 359.73C431.04 359.808 431.04 359.932 430.962 360.026L425.521 365.467C425.443 365.545 425.443 365.669 425.521 365.762C426.92 367.161 429.205 367.161 430.62 365.762L436.885 359.497C437.616 358.766 438.797 358.766 439.528 359.497L440.6 360.57C441.02 360.989 441.02 361.689 440.6 362.109L440.43 362.28C440.01 362.7 439.31 362.7 438.89 362.28L437.507 360.896C437.429 360.819 437.305 360.819 437.211 360.896L434.817 363.29C434.74 363.368 434.74 363.492 434.817 363.586L436.978 365.747C438.471 367.239 440.88 367.239 442.357 365.747L444.067 364.037L444.052 363.99Z" fill="#478BF9"/>
            <path d="M426.003 305.256C394.662 305.256 369.26 330.659 369.26 362C369.26 393.341 394.662 418.744 426.003 418.744C457.345 418.744 482.747 393.341 482.747 362C482.747 330.659 457.345 305.256 426.003 305.256ZM428.32 322.777C437.43 323.306 445.7 326.943 452.106 332.633L443.913 340.826C439.637 337.204 434.243 334.856 428.32 334.359V322.777ZM423.703 322.777V334.359C417.779 334.841 412.385 337.204 408.11 340.826L399.917 332.633C406.322 326.943 414.592 323.306 423.703 322.777ZM396.652 335.898L404.845 344.091C401.223 348.366 398.875 353.761 398.378 359.684H386.796C387.324 350.574 390.962 342.303 396.652 335.898ZM386.796 364.301H398.378C398.86 370.224 401.223 375.619 404.845 379.894L396.652 388.087C390.962 381.682 387.324 373.411 386.796 364.301ZM423.703 401.208C414.592 400.679 406.322 397.041 399.917 391.351L408.11 383.158C412.385 386.781 417.779 389.128 423.703 389.626V401.208ZM402.156 361.984C402.156 348.817 412.836 338.137 426.003 338.137C439.171 338.137 449.851 348.817 449.851 361.984C449.851 375.152 439.171 385.832 426.003 385.832C412.836 385.832 402.156 375.152 402.156 361.984ZM428.32 401.208V389.626C434.243 389.144 439.637 386.781 443.913 383.158L452.106 391.351C445.7 397.041 437.43 400.679 428.32 401.208ZM455.37 388.087L447.177 379.894C450.8 375.619 453.147 370.224 453.645 364.301H465.227C464.698 373.411 461.06 381.682 455.37 388.087ZM453.645 359.684C453.163 353.761 450.8 348.366 447.177 344.091L455.37 335.898C461.06 342.303 464.698 350.574 465.227 359.684H453.645Z" fill="#478BF9"/>
            <path d="M373.65 226.406C344.783 197.539 344.783 150.574 373.65 121.706C402.517 92.8394 449.483 92.8394 478.35 121.706C507.217 150.574 507.217 197.539 478.35 226.406C449.483 255.273 402.517 255.273 373.65 226.406ZM474.861 125.196C447.917 98.252 404.083 98.252 377.146 125.196C350.203 152.139 350.203 195.973 377.146 222.91C404.09 249.853 447.924 249.853 474.861 222.91C501.804 195.966 501.804 152.132 474.861 125.196Z" fill="#E3E3E3"/>
            <path d="M475.665 158.352C475.405 158.092 475.194 157.762 475.075 157.397C472.513 149.815 468.329 143.097 462.642 137.411C456.963 131.731 450.237 127.547 442.656 124.978C441.652 124.634 440.978 123.7 440.978 122.64V104.647C440.978 103.889 441.329 103.173 441.925 102.703C442.529 102.232 443.308 102.071 444.039 102.253C456.998 105.497 468.862 112.222 478.339 121.706C487.817 131.191 494.542 143.048 497.785 156.007C497.968 156.744 497.799 157.524 497.336 158.127C496.866 158.731 496.15 159.075 495.391 159.075H477.399C476.725 159.075 476.107 158.801 475.651 158.345L475.665 158.352ZM466.131 133.922C471.93 139.72 476.303 146.516 479.154 154.14H492.169C488.898 143.244 482.952 133.29 474.857 125.196C466.763 117.101 456.808 111.155 445.92 107.891V120.906C453.544 123.749 460.339 128.123 466.138 133.929L466.131 133.922Z" fill="#E3E3E3"/>
            <path d="M373.654 226.406C364.177 216.928 357.444 205.064 354.201 192.105C354.019 191.368 354.187 190.588 354.65 189.992C355.121 189.388 355.837 189.044 356.595 189.044H374.588C375.648 189.044 376.589 189.718 376.926 190.722C379.488 198.304 383.672 205.022 389.358 210.708C395.038 216.388 401.763 220.572 409.345 223.141C410.349 223.478 411.023 224.419 411.023 225.479V243.472C411.023 244.23 410.672 244.946 410.075 245.416C409.471 245.887 408.692 246.048 407.955 245.866C394.996 242.622 383.138 235.897 373.654 226.42V226.406ZM359.831 193.972C363.103 204.868 369.049 214.822 377.143 222.917C385.237 231.011 395.192 236.957 406.088 240.228V227.213C398.464 224.37 391.668 219.996 385.869 214.197C380.071 208.399 375.697 201.603 372.847 193.979H359.831V193.972Z" fill="#E3E3E3"/>
            <path d="M441.705 245.206C441.241 244.743 440.982 244.118 440.982 243.458V225.465C440.982 224.405 441.656 223.465 442.66 223.128C450.241 220.565 456.96 216.381 462.646 210.695C468.332 205.008 472.509 198.29 475.079 190.708C475.416 189.704 476.357 189.03 477.417 189.03H495.409C496.168 189.03 496.884 189.381 497.354 189.978C497.824 190.575 497.986 191.361 497.803 192.091C494.553 205.05 487.828 216.908 478.35 226.392C468.873 235.876 457.009 242.602 444.05 245.845C443.312 246.027 442.533 245.859 441.936 245.396C441.859 245.325 441.782 245.262 441.712 245.192L441.705 245.206ZM445.917 227.206V240.222C456.812 236.95 466.767 231.004 474.861 222.91C482.956 214.816 488.895 204.861 492.173 193.966H479.158C476.314 201.59 471.941 208.378 466.135 214.184C460.336 219.982 453.541 224.363 445.917 227.206Z" fill="#E3E3E3"/>
            <path d="M354.844 158.352C354.774 158.282 354.704 158.205 354.648 158.127C354.177 157.531 354.016 156.744 354.198 156.007C357.442 143.048 364.167 131.184 373.651 121.706C383.136 112.229 394.993 105.497 407.952 102.253C408.689 102.071 409.468 102.239 410.065 102.703C410.662 103.173 411.013 103.889 411.013 104.647V122.64C411.013 123.7 410.339 124.641 409.335 124.978C401.753 127.54 395.035 131.724 389.349 137.411C383.669 143.09 379.485 149.815 376.916 157.397C376.579 158.401 375.638 159.075 374.578 159.075H356.585C355.925 159.075 355.293 158.815 354.837 158.359L354.844 158.352ZM406.078 107.891C395.182 111.162 385.228 117.108 377.133 125.203C369.039 133.297 363.1 143.252 359.822 154.147H372.837C375.68 146.523 380.054 139.734 385.859 133.929C391.658 128.13 398.454 123.756 406.078 120.906V107.891Z" fill="#E3E3E3"/>
            <path d="M466.134 133.922C444.006 111.794 407.993 111.787 385.865 133.922C363.73 156.056 363.737 192.063 385.865 214.191C407.993 236.318 443.999 236.325 466.134 214.191C488.269 192.056 488.262 156.049 466.134 133.922Z" fill="#E3E3E3"/>
            <path d="M446.463 194.315L405.69 194.585C403.973 194.596 402.589 195.998 402.601 197.716L402.61 199.169C402.622 200.886 404.023 202.269 405.741 202.258L446.513 201.988C448.231 201.976 449.614 200.575 449.603 198.857L449.593 197.404C449.582 195.686 448.18 194.303 446.463 194.315Z" fill="#110A1D"/>
            <path d="M411.249 169.704C410.807 169.704 410.357 169.606 409.95 169.409L406.77 167.872C405.387 167.198 404.755 165.562 405.331 164.137L406.791 160.5C407.24 159.391 408.3 158.668 409.494 158.661C410.006 158.661 410.512 158.787 410.961 159.047L414.752 161.209C415.461 161.61 415.974 162.305 416.156 163.105C416.339 163.905 416.177 164.748 415.714 165.422L413.636 168.433C413.095 169.219 412.197 169.697 411.242 169.697L411.249 169.704Z" fill="#110A1D"/>
            <path d="M440.598 169.507C439.644 169.507 438.738 169.051 438.191 168.272L436.134 165.372C435.656 164.705 435.488 163.863 435.656 163.063C435.825 162.262 436.33 161.56 437.039 161.146L440.949 158.85C441.392 158.591 441.897 158.45 442.41 158.443C443.603 158.436 444.677 159.145 445.141 160.247L446.615 163.779C447.205 165.197 446.594 166.846 445.225 167.534L441.897 169.198C441.497 169.395 441.048 169.507 440.605 169.507H440.598Z" fill="#110A1D"/>
            <path d="M408.044 191.859C406.254 191.874 404.646 190.75 404.036 189.065L397.233 170.343C396.798 170.553 396.334 170.715 395.864 170.834C395.309 170.974 394.748 171.045 394.179 171.045C393.849 171.045 393.526 171.031 393.21 170.988C389.665 170.539 386.976 167.499 386.955 163.919C386.927 159.96 390.128 156.716 394.088 156.688C398.047 156.66 401.291 159.861 401.312 163.821C401.312 164.733 401.157 165.611 400.834 166.432C400.659 166.882 400.441 167.31 400.188 167.717L413.127 173.979L423.025 159.637C422.611 159.461 422.211 159.244 421.832 158.984C421.116 158.499 420.491 157.896 419.985 157.187C419.129 155.979 418.666 154.554 418.659 153.08C418.631 149.12 421.832 145.877 425.791 145.849C425.967 145.849 426.149 145.849 426.325 145.863C429.87 146.102 432.734 148.945 432.994 152.49C433.113 154.168 432.671 155.776 431.716 157.145C431.211 157.861 430.593 158.471 429.884 158.956C429.512 159.216 429.112 159.433 428.698 159.609L438.772 173.804L451.499 167.436C451.26 166.98 451.071 166.503 450.931 166.004C450.762 165.4 450.671 164.769 450.671 164.13C450.671 163.842 450.685 163.554 450.713 163.273C451.12 159.665 454.167 156.927 457.796 156.906C461.756 156.878 464.999 160.079 465.02 164.038C465.048 167.815 462.114 170.988 458.344 171.248L457.895 171.262C457.164 171.262 456.448 171.164 455.753 170.953C455.304 170.813 454.869 170.637 454.462 170.413L448.073 188.771C447.491 190.462 445.89 191.6 444.1 191.614L408.044 191.852V191.859Z" fill="#110A1D"/>
            <path d="M500 -5.36975V171.37C500 172.831 498.807 174 497.35 174C495.893 174 494.7 172.816 494.7 171.37V-5.36975C494.7 -6.83104 495.893 -8.00006 497.35 -8.00006C498.807 -8.00006 500 -6.81566 500 -5.36975Z" fill="#E3E3E3"/>
            <path d="M357.3 -5.36969V171.37C357.3 172.831 356.107 174 354.65 174C353.193 174 352 172.816 352 171.37V-5.36969C352 -6.83098 353.193 -8 354.65 -8C356.107 -8 357.3 -6.8156 357.3 -5.36969Z" fill="#E3E3E3"/>
        </g>
        <g opacity="0.25">
            <path d="M250 1226C231.037 1226 212.089 1218.79 197.649 1204.35C168.784 1175.49 168.784 1128.54 197.649 1099.68C211.638 1085.69 230.228 1078 250 1078C269.772 1078 288.362 1085.69 302.351 1099.68C331.216 1128.54 331.216 1175.49 302.351 1204.35C287.927 1218.77 268.963 1226 250 1226ZM201.535 1200.47C228.254 1227.18 271.73 1227.18 298.45 1200.47C325.17 1173.75 325.17 1130.28 298.45 1103.57C285.502 1090.62 268.295 1083.5 249.984 1083.5C231.674 1083.5 214.467 1090.64 201.519 1103.57C174.799 1130.28 174.799 1173.75 201.519 1200.47H201.535Z" fill="#E3E3E3"/>
            <path d="M252.742 1136.44L239.032 1155.64H247.255V1169.35L260.964 1150.16H252.742V1136.44Z" fill="#E3E3E3"/>
            <path d="M249.989 1125.76C234.973 1125.76 222.787 1137.94 222.787 1152.96C222.787 1167.97 234.973 1180.12 249.989 1180.12C265.004 1180.12 277.19 1167.94 277.19 1152.96C277.19 1137.97 265.004 1125.76 249.989 1125.76ZM249.989 1176.77C236.808 1176.77 226.114 1166.07 226.114 1152.89C226.114 1139.71 236.808 1129.02 249.989 1129.02C263.17 1129.02 273.864 1139.71 273.864 1152.89C273.864 1166.07 263.17 1176.77 249.989 1176.77Z" fill="#E3E3E3"/>
            <path d="M292.036 1109.98C280.813 1098.75 265.876 1092.58 249.99 1092.58C234.104 1092.58 219.182 1098.76 207.944 1109.98C184.768 1133.16 184.768 1170.88 207.944 1194.06C219.54 1205.66 234.757 1211.45 249.99 1211.45C265.223 1211.45 280.44 1205.66 292.036 1194.06C315.212 1170.89 315.212 1133.17 292.036 1109.98ZM249.99 1189.85C229.659 1189.85 213.105 1173.3 213.105 1152.97C213.105 1143.99 216.322 1135.75 221.669 1129.32L217.162 1124.81C215.872 1123.52 215.872 1121.42 217.162 1120.12C218.452 1118.81 220.55 1118.83 221.856 1120.12L226.364 1124.62C231.959 1119.95 239.001 1116.87 246.679 1116.22V1113.17H243.633C240.944 1113.17 238.721 1110.95 238.721 1108.26V1105.7C238.721 1102.98 240.944 1100.78 243.633 1100.78H256.379C259.068 1100.78 261.29 1102.98 261.29 1105.7V1108.26C261.29 1110.95 259.068 1113.17 256.379 1113.17H253.332V1116.22C261.026 1116.88 268.052 1119.96 273.648 1124.62L278.155 1120.12C279.446 1118.83 281.544 1118.83 282.85 1120.12C284.14 1121.41 284.14 1123.51 282.85 1124.81L278.342 1129.32C283.689 1135.75 286.907 1143.97 286.907 1152.97C286.907 1173.3 270.352 1189.85 250.021 1189.85H249.99Z" fill="#E3E3E3"/>
            <path d="M176.094 782.953C176.094 742.179 209.273 709 250.047 709C290.822 709 324 742.179 324 782.953C324 823.728 290.822 856.906 250.047 856.906C209.273 856.906 176.094 823.728 176.094 782.953ZM318.672 782.953C318.672 745.114 287.886 714.328 250.047 714.328C212.208 714.328 181.422 745.114 181.422 782.953C181.422 820.792 212.208 851.579 250.047 851.579C287.886 851.579 318.672 820.792 318.672 782.953Z" fill="#478BF9"/>
            <path d="M176.094 963.743C176.094 962.267 177.29 961.087 178.75 961.087C180.21 961.087 181.406 962.283 181.406 963.743C181.406 1001.58 212.193 1032.37 250.031 1032.37C287.87 1032.37 318.657 1001.58 318.657 963.743C318.657 962.267 319.853 961.087 321.313 961.087C322.773 961.087 323.969 962.283 323.969 963.743C323.969 1004.52 290.79 1037.7 250.016 1037.7C209.241 1037.7 176.062 1004.52 176.062 963.743H176.094Z" fill="#478BF9"/>
            <path d="M321.746 781.167H289.36V787.551H321.746V781.167Z" fill="#478BF9"/>
            <path d="M210.235 781.167H177.849V787.551H210.235V781.167Z" fill="#478BF9"/>
            <path d="M253.496 824.411H247.111V856.798H253.496V824.411Z" fill="#478BF9"/>
            <path d="M253.496 711.92H247.111V744.307H253.496V711.92Z" fill="#478BF9"/>
            <path d="M288.382 743.84C266.232 721.69 230.304 721.69 208.138 743.84C185.988 765.991 185.988 801.919 208.138 824.085C230.288 846.235 266.216 846.235 288.382 824.085C310.532 801.934 310.532 766.006 288.382 743.84ZM259.226 748.64C265.688 750.644 271.482 754.387 275.987 759.482L276.856 760.461L275.583 760.756C272.212 761.548 268.608 762.2 264.88 762.682L264.213 762.775L264.026 762.123C263.405 759.995 262.675 757.944 261.836 756.049C260.795 753.673 259.63 751.591 258.357 749.836L256.958 747.926L259.226 748.625V748.64ZM233.302 782.192L233.333 781.384C233.488 776.475 234.032 771.784 234.964 767.466L235.103 766.783L235.802 766.845C243.973 767.559 252.702 767.528 260.826 766.767L261.525 766.705L261.681 767.389C262.628 771.753 263.172 776.46 263.312 781.384V782.192H233.317H233.302ZM263.312 785.795V786.603C263.141 791.527 262.597 796.234 261.65 800.598L261.494 801.282L260.795 801.22C252.671 800.459 243.942 800.443 235.771 801.142L235.072 801.204L234.933 800.521C234.001 796.202 233.457 791.527 233.302 786.603L233.27 785.795H263.28H263.312ZM248.307 747.289C252.827 747.289 257.425 753.02 260.298 762.263L260.593 763.195L259.615 763.272C255.794 763.598 251.848 763.769 247.887 763.769C244.206 763.769 240.54 763.63 236.967 763.334L235.989 763.257L236.284 762.309C239.158 753.036 243.771 747.273 248.307 747.273V747.289ZM220.471 759.653C225.007 754.481 230.847 750.675 237.387 748.656L239.67 747.957L238.257 749.883C236.983 751.622 235.802 753.719 234.777 756.08C233.954 757.944 233.208 760.026 232.556 762.263L232.37 762.9L231.702 762.822C227.943 762.356 224.308 761.735 220.891 760.942L219.601 760.647L220.471 759.653ZM211.4 781.353C211.835 775.295 213.776 769.392 217.023 764.251L217.334 763.769L217.893 763.909C221.869 764.919 226.156 765.727 230.661 766.301L231.5 766.41L231.329 767.249C230.397 771.753 229.869 776.522 229.729 781.431V782.192H211.353L211.415 781.353H211.4ZM217.334 804.218L217.023 803.736C213.776 798.61 211.835 792.692 211.4 786.634L211.338 785.795H229.698V786.556C229.853 791.465 230.397 796.249 231.313 800.738L231.484 801.577L230.645 801.686C226.156 802.26 221.854 803.068 217.877 804.078L217.318 804.218H217.334ZM237.387 819.347C230.847 817.328 225.007 813.522 220.471 808.349L219.601 807.355L220.891 807.06C224.308 806.284 227.943 805.647 231.702 805.181L232.37 805.103L232.556 805.74C233.208 807.977 233.954 810.058 234.777 811.922C235.818 814.299 236.983 816.38 238.257 818.135L239.67 820.061L237.387 819.362V819.347ZM248.307 820.698C243.771 820.698 239.158 814.935 236.284 805.662L235.989 804.715L236.967 804.637C244.377 804.047 252.268 804.062 259.615 804.699L260.593 804.777L260.298 805.709C257.409 814.935 252.811 820.683 248.307 820.683V820.698ZM275.987 808.505C271.482 813.6 265.673 817.343 259.226 819.347L256.958 820.046L258.357 818.135C259.63 816.396 260.795 814.299 261.836 811.922C262.659 810.011 263.405 807.977 264.026 805.849L264.213 805.196L264.88 805.289C268.608 805.771 272.212 806.423 275.583 807.215L276.856 807.526L275.987 808.505ZM285.198 786.634C284.763 792.754 282.79 798.734 279.466 803.922L279.155 804.404L278.596 804.264C274.666 803.224 270.395 802.4 265.921 801.794L265.082 801.686L265.253 800.862C266.185 796.358 266.729 791.558 266.869 786.572V785.811H285.244L285.182 786.65L285.198 786.634ZM266.9 782.192V781.431C266.744 776.444 266.201 771.629 265.269 767.14L265.098 766.317L265.937 766.208C270.41 765.602 274.666 764.779 278.612 763.738L279.171 763.599L279.482 764.08C282.806 769.268 284.794 775.233 285.213 781.368L285.275 782.207H266.915L266.9 782.192Z" fill="#478BF9"/>
            <path d="M176 964.862V786.386C176 784.91 177.196 783.73 178.656 783.73C180.116 783.73 181.312 784.926 181.312 786.386V964.862C181.312 966.337 180.116 967.518 178.656 967.518C177.196 967.518 176 966.322 176 964.862Z" fill="#478BF9"/>
            <path d="M318.593 965.266V786.79C318.593 785.314 319.789 784.134 321.249 784.134C322.709 784.134 323.905 785.33 323.905 786.79V965.266C323.905 966.741 322.709 967.922 321.249 967.922C319.789 967.922 318.593 966.726 318.593 965.266Z" fill="#478BF9"/>
            <path d="M197.65 647.35C168.783 618.483 168.783 571.517 197.65 542.65C226.517 513.783 273.483 513.783 302.35 542.65C331.217 571.517 331.217 618.483 302.35 647.35C273.483 676.217 226.517 676.217 197.65 647.35ZM298.861 546.139C271.917 519.196 228.083 519.196 201.146 546.139C174.203 573.083 174.203 616.917 201.146 643.854C228.09 670.797 271.924 670.797 298.861 643.854C325.804 616.91 325.804 573.076 298.861 546.139Z" fill="#E3E3E3"/>
            <path d="M299.665 579.296C299.405 579.036 299.194 578.706 299.075 578.341C296.512 570.759 292.328 564.041 286.642 558.355C280.963 552.675 274.237 548.491 266.656 545.922C265.652 545.578 264.978 544.644 264.978 543.584V525.591C264.978 524.833 265.329 524.117 265.925 523.647C266.529 523.176 267.308 523.015 268.038 523.197C280.998 526.441 292.862 533.166 302.339 542.65C311.816 552.135 318.542 563.992 321.785 576.951C321.968 577.688 321.799 578.467 321.336 579.071C320.866 579.675 320.149 580.019 319.391 580.019H301.398C300.725 580.019 300.107 579.745 299.65 579.289L299.665 579.296ZM290.131 554.866C295.93 560.664 300.303 567.46 303.154 575.084H316.169C312.898 564.188 306.951 554.234 298.857 546.139C290.763 538.045 280.808 532.099 269.92 528.835V541.85C277.544 544.693 284.339 549.067 290.138 554.873L290.131 554.866Z" fill="#E3E3E3"/>
            <path d="M197.654 647.349C188.177 637.872 181.444 626.008 178.201 613.049C178.018 612.312 178.187 611.532 178.65 610.936C179.121 610.332 179.837 609.988 180.595 609.988H198.588C199.648 609.988 200.588 610.662 200.925 611.666C203.488 619.248 207.672 625.966 213.358 631.652C219.037 637.332 225.763 641.516 233.345 644.085C234.349 644.422 235.022 645.363 235.022 646.423V664.416C235.022 665.174 234.672 665.89 234.075 666.36C233.471 666.831 232.692 666.992 231.955 666.809C218.995 663.566 207.138 656.841 197.654 647.364V647.349ZM183.831 614.916C187.103 625.811 193.049 635.766 201.143 643.86C209.237 651.955 219.192 657.901 230.087 661.172V648.157C222.463 645.314 215.668 640.94 209.869 635.141C204.07 629.343 199.697 622.547 196.847 614.923H183.831V614.916Z" fill="#E3E3E3"/>
            <path d="M265.705 666.15C265.241 665.687 264.982 665.062 264.982 664.402V646.409C264.982 645.349 265.656 644.408 266.659 644.071C274.241 641.509 280.96 637.325 286.646 631.639C292.332 625.952 296.509 619.234 299.079 611.652C299.416 610.648 300.356 609.974 301.416 609.974H319.409C320.167 609.974 320.883 610.325 321.354 610.922C321.824 611.519 321.986 612.305 321.803 613.035C318.553 625.994 311.827 637.851 302.35 647.336C292.873 656.82 281.009 663.545 268.049 666.789C267.312 666.971 266.533 666.803 265.936 666.339C265.859 666.269 265.782 666.206 265.712 666.136L265.705 666.15ZM269.917 648.15V661.166C280.812 657.894 290.767 651.948 298.861 643.854C306.955 635.759 312.895 625.805 316.173 614.909H303.157C300.314 622.533 295.941 629.322 290.135 635.128C284.336 640.926 277.541 645.307 269.917 648.15Z" fill="#E3E3E3"/>
            <path d="M178.844 579.296C178.774 579.226 178.704 579.148 178.648 579.071C178.177 578.474 178.016 577.688 178.198 576.951C181.442 563.992 188.167 552.128 197.651 542.65C207.136 533.173 218.993 526.441 231.952 523.197C232.689 523.015 233.468 523.183 234.065 523.647C234.662 524.117 235.013 524.833 235.013 525.591V543.584C235.013 544.644 234.339 545.585 233.335 545.922C225.753 548.484 219.035 552.668 213.348 558.355C207.669 564.034 203.485 570.759 200.916 578.341C200.579 579.345 199.638 580.019 198.578 580.019H180.585C179.925 580.019 179.293 579.759 178.837 579.303L178.844 579.296ZM230.078 528.835C219.182 532.106 209.228 538.052 201.133 546.146C193.039 554.241 187.1 564.195 183.821 575.091H196.837C199.68 567.467 204.054 560.678 209.859 554.872C215.658 549.074 222.454 544.7 230.078 541.85V528.835Z" fill="#E3E3E3"/>
            <path d="M290.134 554.865C268.006 532.738 231.993 532.731 209.865 554.865C187.73 577 187.737 613.007 209.865 635.135C231.993 657.262 267.999 657.269 290.134 635.135C312.269 613 312.262 576.993 290.134 554.865Z" fill="#E3E3E3"/>
            <path d="M270.474 615.258L229.702 615.529C227.984 615.54 226.601 616.942 226.612 618.659L226.622 620.112C226.634 621.83 228.035 623.213 229.753 623.202L270.525 622.931C272.243 622.92 273.626 621.518 273.614 619.801L273.605 618.348C273.593 616.63 272.192 615.247 270.474 615.258Z" fill="#110A1D"/>
            <path d="M235.257 590.647C234.814 590.647 234.365 590.549 233.958 590.352L230.778 588.815C229.395 588.141 228.763 586.505 229.339 585.08L230.799 581.444C231.248 580.335 232.308 579.611 233.502 579.604C234.014 579.604 234.52 579.731 234.969 579.991L238.76 582.153C239.469 582.553 239.981 583.248 240.164 584.048C240.346 584.849 240.185 585.691 239.722 586.365L237.644 589.377C237.103 590.163 236.204 590.64 235.25 590.64L235.257 590.647Z" fill="#110A1D"/>
            <path d="M264.602 590.451C263.648 590.451 262.742 589.995 262.194 589.215L260.137 586.316C259.66 585.649 259.492 584.807 259.66 584.006C259.829 583.206 260.334 582.504 261.043 582.09L264.953 579.794C265.396 579.535 265.901 579.394 266.414 579.387C267.607 579.38 268.681 580.089 269.144 581.191L270.619 584.723C271.208 586.141 270.598 587.79 269.229 588.478L265.901 590.142C265.501 590.339 265.052 590.451 264.609 590.451H264.602Z" fill="#110A1D"/>
            <path d="M232.052 612.803C230.262 612.817 228.654 611.694 228.043 610.009L221.241 591.286C220.805 591.497 220.342 591.658 219.872 591.778C219.317 591.918 218.756 591.988 218.187 591.988C217.857 591.988 217.534 591.974 217.218 591.932C213.673 591.483 210.984 588.443 210.963 584.863C210.935 580.903 214.136 577.66 218.096 577.632C222.055 577.604 225.298 580.805 225.319 584.765C225.319 585.677 225.165 586.555 224.842 587.376C224.667 587.825 224.449 588.254 224.196 588.661L237.134 594.923L247.033 580.581C246.619 580.405 246.219 580.187 245.839 579.928C245.123 579.443 244.499 578.84 243.993 578.13C243.137 576.923 242.673 575.498 242.666 574.024C242.638 570.064 245.839 566.821 249.799 566.793C249.974 566.793 250.157 566.793 250.332 566.807C253.878 567.046 256.742 569.889 257.002 573.434C257.121 575.112 256.679 576.719 255.724 578.088C255.219 578.804 254.601 579.415 253.892 579.9C253.52 580.159 253.119 580.377 252.705 580.552L262.779 594.747L275.507 588.38C275.268 587.924 275.079 587.446 274.938 586.948C274.77 586.344 274.679 585.712 274.679 585.073C274.679 584.786 274.693 584.498 274.721 584.217C275.128 580.609 278.175 577.871 281.804 577.85C285.763 577.822 289.007 581.023 289.028 584.982C289.056 588.759 286.121 591.932 282.352 592.192L281.902 592.206C281.172 592.206 280.456 592.108 279.761 591.897C279.312 591.757 278.877 591.581 278.469 591.357L272.081 609.714C271.498 611.406 269.898 612.544 268.108 612.558L232.052 612.796V612.803Z" fill="#110A1D"/>
            <path d="M250 481C231.037 481 212.089 473.789 197.649 459.351C168.784 430.491 168.784 383.54 197.649 354.68C211.638 340.693 230.228 333 250 333C269.772 333 288.362 340.693 302.351 354.68C331.216 383.54 331.216 430.491 302.351 459.351C287.927 473.773 268.963 481 250 481ZM201.535 455.466C228.254 482.181 271.73 482.181 298.45 455.466C325.17 428.75 325.17 385.281 298.45 358.565C285.502 345.62 268.295 338.502 249.984 338.502C231.674 338.502 214.467 345.635 201.519 358.565C174.799 385.281 174.799 428.75 201.519 455.466H201.535Z" fill="#7DDACF"/>
            <path d="M252.742 391.436L239.032 410.645H247.255V424.352L260.964 405.158H252.742V391.436Z" fill="#7DDACF"/>
            <path d="M249.989 380.759C234.974 380.759 222.787 392.943 222.787 407.956C222.787 422.969 234.974 435.122 249.989 435.122C265.004 435.122 277.19 422.938 277.19 407.956C277.19 392.974 265.004 380.759 249.989 380.759ZM249.989 431.765C236.808 431.765 226.114 421.073 226.114 407.894C226.114 394.715 236.808 384.023 249.989 384.023C263.17 384.023 273.864 394.715 273.864 407.894C273.864 421.073 263.17 431.765 249.989 431.765Z" fill="#7DDACF"/>
            <path d="M292.036 364.984C280.814 353.748 265.876 347.578 249.99 347.578C234.104 347.578 219.182 353.764 207.944 364.984C184.769 388.157 184.769 425.875 207.944 449.063C219.54 460.657 234.757 466.454 249.99 466.454C265.223 466.454 280.441 460.657 292.036 449.063C315.212 425.891 315.212 388.172 292.036 364.984ZM249.99 444.851C229.659 444.851 213.105 428.3 213.105 407.972C213.105 398.989 216.322 390.752 221.669 384.318L217.162 379.811C215.872 378.521 215.872 376.423 217.162 375.117C218.452 373.812 220.55 373.827 221.856 375.117L226.364 379.624C231.96 374.946 239.001 371.869 246.679 371.217V368.17H243.633C240.944 368.17 238.721 365.948 238.721 363.259V360.695C238.721 357.975 240.944 355.784 243.633 355.784H256.379C259.068 355.784 261.291 357.975 261.291 360.695V363.259C261.291 365.948 259.068 368.17 256.379 368.17H253.332V371.217C261.026 371.885 268.052 374.962 273.648 379.624L278.156 375.117C279.446 373.827 281.544 373.827 282.85 375.117C284.14 376.407 284.14 378.505 282.85 379.811L278.342 384.318C283.689 390.752 286.907 398.973 286.907 407.972C286.907 428.3 270.353 444.851 250.021 444.851H249.99Z" fill="#7DDACF"/>
            <path d="M250 293C209.191 293 176 259.793 176 219C176 178.207 209.207 145 250 145C290.793 145 324 178.207 324 219C324 259.793 290.793 293 250 293ZM250 149.928C211.912 149.928 180.928 180.912 180.928 219C180.928 257.088 211.912 288.072 250 288.072C288.088 288.072 319.072 257.088 319.072 219C319.072 180.912 288.088 149.928 250 149.928Z" fill="#E3E3E3"/>
            <path d="M298.286 166.196L275.377 189.105L279.884 193.612L302.793 170.703L298.286 166.196Z" fill="#E3E3E3"/>
            <path d="M219.43 245.056L196.521 267.965L201.028 272.472L223.937 249.563L219.43 245.056Z" fill="#E3E3E3"/>
            <path d="M280.581 245.051L276.074 249.558L298.983 272.467L303.49 267.96L280.581 245.051Z" fill="#E3E3E3"/>
            <path d="M201.043 165.501L196.536 170.008L219.434 192.906L223.941 188.399L201.043 165.501Z" fill="#E3E3E3"/>
            <path d="M268.067 220.99C269.56 219.497 269.56 217.088 268.067 215.611L264.896 212.455C263.403 210.963 260.994 210.963 259.517 212.455L257.807 214.165L255.833 212.191C254.34 210.698 251.93 210.698 250.453 212.191L248.743 213.916L246.769 211.926C245.277 210.434 242.867 210.434 241.39 211.926L230.896 222.42C230.819 222.498 230.819 222.622 230.896 222.716C232.295 224.115 234.581 224.115 235.996 222.716L242.758 215.953C243.489 215.222 244.67 215.222 245.401 215.953L245.898 216.45C245.992 216.544 245.992 216.684 245.898 216.777L240.255 222.42C240.177 222.498 240.177 222.622 240.255 222.716C241.654 224.115 243.94 224.115 245.354 222.716L251.837 216.233C252.568 215.502 253.749 215.502 254.48 216.233L254.977 216.73C255.055 216.808 255.055 216.932 254.977 217.026L249.536 222.467C249.458 222.545 249.458 222.669 249.536 222.762C250.935 224.161 253.221 224.161 254.635 222.762L260.9 216.497C261.631 215.766 262.813 215.766 263.543 216.497L264.616 217.57C265.036 217.989 265.036 218.689 264.616 219.109L264.445 219.28C264.025 219.7 263.326 219.7 262.906 219.28L261.522 217.896C261.445 217.818 261.32 217.818 261.227 217.896L258.833 220.29C258.755 220.368 258.755 220.492 258.833 220.586L260.994 222.747C262.486 224.239 264.896 224.239 266.373 222.747L268.083 221.037L268.067 220.99Z" fill="#E3E3E3"/>
            <path d="M250.003 162.241C218.662 162.241 193.26 187.643 193.26 218.984C193.26 250.326 218.662 275.728 250.003 275.728C281.345 275.728 306.747 250.326 306.747 218.984C306.747 187.643 281.345 162.241 250.003 162.241ZM252.32 179.761C261.43 180.29 269.7 183.928 276.106 189.618L267.913 197.81C263.637 194.188 258.243 191.841 252.32 191.343V179.761ZM247.703 179.761V191.343C241.779 191.825 236.385 194.188 232.11 197.81L223.917 189.618C230.322 183.928 238.592 180.29 247.703 179.761ZM220.652 192.882L228.845 201.075C225.223 205.35 222.875 210.745 222.378 216.668H210.796C211.324 207.558 214.962 199.287 220.652 192.882ZM210.796 221.285H222.378C222.86 227.208 225.223 232.603 228.845 236.878L220.652 245.071C214.962 238.666 211.324 230.395 210.796 221.285ZM247.703 258.192C238.592 257.663 230.322 254.026 223.917 248.336L232.11 240.143C236.385 243.765 241.779 246.113 247.703 246.61V258.192ZM226.156 218.969C226.156 205.801 236.836 195.121 250.003 195.121C263.171 195.121 273.851 205.801 273.851 218.969C273.851 232.136 263.171 242.817 250.003 242.817C236.836 242.817 226.156 232.136 226.156 218.969ZM252.32 258.192V246.61C258.243 246.128 263.637 243.765 267.913 240.143L276.106 248.336C269.7 254.026 261.43 257.663 252.32 258.192ZM279.37 245.071L271.177 236.878C274.8 232.603 277.147 227.208 277.645 221.285H289.227C288.698 230.395 285.06 238.666 279.37 245.071ZM277.645 216.668C277.163 210.745 274.8 205.35 271.177 201.075L279.37 192.882C285.06 199.287 288.698 207.558 289.227 216.668H277.645Z" fill="#E3E3E3"/>
            <path d="M197.65 83.3497C168.783 54.4826 168.783 7.51741 197.65 -21.3497C226.517 -50.2168 273.483 -50.2168 302.35 -21.3497C331.217 7.51741 331.217 54.4826 302.35 83.3497C273.483 112.217 226.517 112.217 197.65 83.3497ZM298.861 -17.8606C271.917 -44.8042 228.083 -44.8042 201.146 -17.8606C174.203 9.08291 174.203 52.9171 201.146 79.8536C228.09 106.797 271.924 106.797 298.861 79.8536C325.804 52.9101 325.804 9.07589 298.861 -17.8606Z" fill="#7DDACF"/>
            <path d="M299.665 15.2959C299.405 15.0361 299.194 14.7061 299.075 14.3411C296.512 6.75927 292.328 0.0409355 286.642 -5.64543C280.963 -11.3248 274.237 -15.5088 266.656 -18.0782C265.652 -18.4222 264.978 -19.3559 264.978 -20.4159V-38.4087C264.978 -39.1669 265.329 -39.883 265.925 -40.3533C266.529 -40.8237 267.308 -40.9851 268.038 -40.8026C280.998 -37.5593 292.862 -30.8339 302.339 -21.3496C311.816 -11.8653 318.542 -0.00819016 321.785 12.9511C321.968 13.6882 321.799 14.4675 321.336 15.0712C320.866 15.6749 320.149 16.0189 319.391 16.0189H301.398C300.725 16.0189 300.107 15.7451 299.65 15.2888L299.665 15.2959ZM290.131 -9.13447C295.93 -3.33578 300.303 3.45979 303.154 11.0837H316.169C312.898 0.188374 306.951 -9.76629 298.857 -17.8606C290.763 -25.9549 280.808 -31.901 269.92 -35.1654V-22.1499C277.544 -19.3067 284.339 -14.9332 290.138 -9.12745L290.131 -9.13447Z" fill="#7DDACF"/>
            <path d="M197.654 83.3495C188.177 73.8722 181.444 62.0081 178.201 49.0488C178.018 48.3116 178.187 47.5324 178.65 46.9357C179.121 46.3319 179.837 45.9879 180.595 45.9879H198.588C199.648 45.9879 200.588 46.6619 200.925 47.6658C203.488 55.2476 207.672 61.9659 213.358 67.6523C219.037 73.3316 225.763 77.5157 233.345 80.0851C234.349 80.422 235.022 81.3628 235.022 82.4228V100.416C235.022 101.174 234.672 101.89 234.075 102.36C233.471 102.831 232.692 102.992 231.955 102.809C218.995 99.5661 207.138 92.8408 197.654 83.3635V83.3495ZM183.831 50.9161C187.103 61.8115 193.049 71.7661 201.143 79.8604C209.237 87.9547 219.192 93.9008 230.087 97.1723V84.1568C222.463 81.3136 215.668 76.94 209.869 71.1413C204.07 65.3426 199.697 58.5471 196.847 50.9231H183.831V50.9161Z" fill="#7DDACF"/>
            <path d="M265.705 102.15C265.241 101.687 264.982 101.062 264.982 100.402V82.409C264.982 81.349 265.656 80.4083 266.659 80.0713C274.241 77.509 280.96 73.3249 286.646 67.6385C292.332 61.9522 296.509 55.2338 299.079 47.652C299.416 46.6481 300.356 45.9742 301.416 45.9742H319.409C320.167 45.9742 320.883 46.3252 321.354 46.9219C321.824 47.5186 321.986 48.3049 321.803 49.035C318.553 61.9943 311.827 73.8514 302.35 83.3357C292.873 92.82 281.009 99.5454 268.049 102.789C267.312 102.971 266.533 102.803 265.936 102.339C265.859 102.269 265.782 102.206 265.712 102.136L265.705 102.15ZM269.917 84.1501V97.1655C280.812 93.8941 290.767 87.948 298.861 79.8537C306.955 71.7594 312.895 61.8047 316.173 50.9094H303.157C300.314 58.5333 295.941 65.3218 290.135 71.1275C284.336 76.9262 277.541 81.3069 269.917 84.1501Z" fill="#7DDACF"/>
            <path d="M178.844 15.2958C178.774 15.2256 178.704 15.1484 178.648 15.0711C178.177 14.4744 178.016 13.6882 178.198 12.951C181.442 -0.008255 188.167 -11.8724 197.651 -21.3497C207.136 -30.827 218.993 -37.5593 231.952 -40.8027C232.689 -40.9852 233.468 -40.8167 234.065 -40.3534C234.662 -39.883 235.013 -39.167 235.013 -38.4088V-20.416C235.013 -19.3559 234.339 -18.4152 233.335 -18.0783C225.753 -15.5159 219.035 -11.3319 213.348 -5.64549C207.669 0.0338554 203.485 6.75921 200.916 14.341C200.579 15.3449 199.638 16.0189 198.578 16.0189H180.585C179.925 16.0189 179.293 15.7591 178.837 15.3028L178.844 15.2958ZM230.078 -35.1654C219.182 -31.894 209.228 -25.9479 201.133 -17.8536C193.039 -9.75932 187.1 0.195335 183.821 11.0907H196.837C199.68 3.46675 204.054 -3.3218 209.859 -9.12751C215.658 -14.9262 222.454 -19.2998 230.078 -22.15V-35.1654Z" fill="#7DDACF"/>
            <path d="M290.134 -9.13451C268.006 -31.2622 231.993 -31.2692 209.865 -9.13451C187.73 13.0002 187.737 49.0068 209.865 71.1345C231.993 93.2622 267.999 93.2692 290.134 71.1345C312.269 48.9998 312.262 12.9932 290.134 -9.13451Z" fill="#7DDACF"/>
            <path d="M270.474 51.2584L229.702 51.5288C227.984 51.5402 226.601 52.9418 226.612 54.6593L226.622 56.1125C226.634 57.83 228.035 59.2131 229.753 59.2017L270.525 58.9313C272.243 58.9199 273.626 57.5183 273.614 55.8008L273.605 54.3476C273.593 52.6301 272.192 51.247 270.474 51.2584Z" fill="#110A1D"/>
            <path d="M235.257 26.6472C234.814 26.6472 234.365 26.5489 233.958 26.3524L230.778 24.8149C229.395 24.141 228.763 22.5053 229.339 21.0802L230.799 17.4437C231.248 16.3345 232.308 15.6115 233.502 15.6044C234.014 15.6044 234.52 15.7308 234.969 15.9905L238.76 18.1528C239.469 18.5529 239.981 19.2479 240.164 20.0482C240.346 20.8485 240.185 21.691 239.722 22.3649L237.644 25.3765C237.103 26.1628 236.204 26.6402 235.25 26.6402L235.257 26.6472Z" fill="#110A1D"/>
            <path d="M264.602 26.451C263.648 26.451 262.742 25.9947 262.194 25.2155L260.137 22.3161C259.66 21.6492 259.492 20.8068 259.66 20.0065C259.829 19.2062 260.334 18.5042 261.043 18.09L264.953 15.7944C265.396 15.5346 265.901 15.3942 266.414 15.3872C267.607 15.3802 268.681 16.0892 269.144 17.1914L270.619 20.7225C271.208 22.1406 270.598 23.7904 269.229 24.4784L265.901 26.1421C265.501 26.3387 265.052 26.451 264.609 26.451H264.602Z" fill="#110A1D"/>
            <path d="M232.052 48.8033C230.262 48.8173 228.654 47.6941 228.043 46.0092L221.241 27.2863C220.805 27.4969 220.342 27.6584 219.872 27.7778C219.317 27.9182 218.756 27.9883 218.187 27.9883C217.857 27.9883 217.534 27.9743 217.218 27.9322C213.673 27.4829 210.984 24.4432 210.963 20.8628C210.935 16.9035 214.136 13.6601 218.096 13.632C222.055 13.604 225.298 16.8052 225.319 20.7646C225.319 21.6772 225.165 22.5547 224.842 23.3761C224.667 23.8254 224.449 24.2536 224.196 24.6608L237.134 30.9228L247.033 16.5805C246.619 16.405 246.219 16.1874 245.839 15.9276C245.123 15.4432 244.499 14.8395 243.993 14.1305C243.137 12.923 242.673 11.4979 242.666 10.0236C242.638 6.06425 245.839 2.82093 249.799 2.79285C249.974 2.79285 250.157 2.79284 250.332 2.80688C253.878 3.04557 256.742 5.88875 257.002 9.43395C257.121 11.1118 256.679 12.7194 255.724 14.0884C255.219 14.8044 254.601 15.4152 253.892 15.8996C253.52 16.1593 253.119 16.3769 252.705 16.5525L262.779 30.7473L275.507 24.38C275.268 23.9237 275.079 23.4463 274.938 22.9478C274.77 22.3441 274.679 21.7123 274.679 21.0734C274.679 20.7856 274.693 20.4978 274.721 20.217C275.128 16.6086 278.175 13.8707 281.804 13.8497C285.763 13.8216 289.007 17.0228 289.028 20.9822C289.056 24.7591 286.121 27.9322 282.352 28.1919L281.902 28.206C281.172 28.206 280.456 28.1077 279.761 27.8971C279.312 27.7567 278.877 27.5812 278.469 27.3565L272.081 45.7144C271.498 47.4063 269.898 48.5435 268.108 48.5576L232.052 48.7962V48.8033Z" fill="#110A1D"/>
        </g>
        <g opacity="0.15">
            <path d="M147.969 1251.98C147.969 1253.46 146.772 1254.64 145.312 1254.64C143.851 1254.64 142.654 1253.45 142.654 1251.98C142.654 1214.13 111.855 1183.33 74.0001 1183.33C36.1454 1183.33 5.3458 1214.13 5.3458 1251.98C5.3458 1253.46 4.14921 1254.64 2.68848 1254.64C1.22775 1254.64 0.03125 1253.45 0.03125 1251.98C0.03125 1211.19 33.224 1178 74.0157 1178C114.807 1178 148 1211.19 148 1251.98H147.969Z" fill="#478BF9"/>
            <path d="M73.9991 1138C55.0359 1138 36.0883 1130.79 21.6483 1116.35C-7.21611 1087.49 -7.21611 1040.54 21.6483 1011.68C35.6375 997.693 54.2277 990 73.9991 990C93.7705 990 112.361 997.693 126.35 1011.68C155.214 1040.54 155.214 1087.49 126.35 1116.35C111.926 1130.77 92.9623 1138 73.9991 1138ZM25.5342 1112.47C52.2536 1139.18 95.7291 1139.18 122.449 1112.47C149.168 1085.75 149.168 1042.28 122.449 1015.57C109.501 1002.62 92.294 995.502 73.9836 995.502C55.6733 995.502 38.4665 1002.64 25.5187 1015.57C-1.20076 1042.28 -1.20076 1085.75 25.5187 1112.47H25.5342Z" fill="#9DADF2"/>
            <path d="M73.0222 1091.7C73.2864 1092.34 73.9082 1092.71 74.561 1092.71C74.7786 1092.71 74.9962 1092.67 75.2138 1092.59C80.4364 1090.4 85.1928 1087.01 88.9544 1082.78C89.5606 1082.1 89.4983 1081.04 88.8144 1080.44C88.1305 1079.83 87.0735 1079.89 86.4673 1080.57C83.0322 1084.44 78.6955 1087.54 73.9237 1089.53C73.0843 1089.88 72.6802 1090.86 73.0377 1091.7H73.0222Z" fill="#9DADF2"/>
            <path d="M102.21 1038.43L74.6041 1027.39C74.2 1027.24 73.7648 1027.24 73.3607 1027.39L45.7553 1038.43C45.118 1038.68 44.7139 1039.28 44.7139 1039.97V1059.73C44.745 1077.98 56.2783 1094.47 73.4074 1100.75C73.5939 1100.81 73.7804 1100.84 73.9825 1100.84C74.1845 1100.84 74.371 1100.81 74.5576 1100.75C91.6866 1094.45 103.22 1077.98 103.251 1059.73V1039.97C103.251 1039.28 102.847 1038.68 102.21 1038.43ZM99.9247 1059.73C99.8936 1076.33 89.4793 1091.45 73.9979 1097.41C58.5165 1091.45 48.0868 1076.33 48.0557 1059.73V1041.1L73.9979 1030.73L99.9247 1041.1V1059.73Z" fill="#9DADF2"/>
            <path d="M62.469 1041.02C62.0649 1040.85 61.6141 1040.85 61.1944 1041.02L54.6195 1043.65C53.9822 1043.9 53.5781 1044.5 53.5781 1045.19V1052.2C53.5781 1053.11 54.3242 1053.86 55.2413 1053.86C56.1584 1053.86 56.9044 1053.11 56.9044 1052.2V1046.32L62.4224 1044.12C62.8421 1043.94 63.1529 1043.63 63.3394 1043.21C63.5104 1042.81 63.5104 1042.36 63.3394 1041.94C63.1685 1041.52 62.8576 1041.21 62.4534 1041.02H62.469Z" fill="#9DADF2"/>
            <path d="M116.046 1021.98C104.823 1010.75 89.8858 1004.58 74.0002 1004.58C58.1147 1004.58 43.1929 1010.76 31.9549 1021.98C8.77937 1045.16 8.77937 1082.88 31.9549 1106.06C43.5504 1117.66 58.7675 1123.44 74.0002 1123.44C89.2329 1123.44 104.45 1117.64 116.046 1106.06C139.221 1082.89 139.221 1045.17 116.046 1021.98ZM107.823 1059.73C107.87 1080.82 94.3934 1099.27 74.2956 1105.66C74.109 1105.72 73.907 1105.72 73.7049 1105.66C53.607 1099.27 40.1308 1080.82 40.1775 1059.73V1036.41C40.1775 1036.02 40.4106 1035.66 40.7836 1035.51L73.6428 1022.37C73.7516 1022.33 73.8759 1022.31 74.0002 1022.31C74.1246 1022.31 74.249 1022.33 74.3578 1022.37L107.217 1035.52C107.59 1035.66 107.823 1036.02 107.823 1036.42V1059.75V1059.73Z" fill="#9DADF2"/>
            <path d="M74 950C33.1911 950 0 916.793 0 876C0 835.207 33.2067 802 74 802C114.793 802 148 835.207 148 876C148 916.793 114.793 950 74 950ZM74 806.928C35.9117 806.928 4.92812 837.912 4.92812 876C4.92812 914.088 35.9117 945.072 74 945.072C112.088 945.072 143.072 914.088 143.072 876C143.072 837.912 112.088 806.928 74 806.928Z" fill="#7DDACF"/>
            <path d="M122.286 823.197L99.3771 846.106L103.884 850.613L126.793 827.704L122.286 823.197Z" fill="#7DDACF"/>
            <path d="M43.4258 902.056L20.5168 924.965L25.0238 929.472L47.9328 906.563L43.4258 902.056Z" fill="#7DDACF"/>
            <path d="M104.562 902.068L100.055 906.575L122.964 929.484L127.471 924.977L104.562 902.068Z" fill="#7DDACF"/>
            <path d="M25.0199 822.518L20.5128 827.025L43.4109 849.923L47.918 845.416L25.0199 822.518Z" fill="#7DDACF"/>
            <path d="M92.0479 877.99C93.5403 876.498 93.5403 874.088 92.0479 872.611L88.8764 869.455C87.384 867.963 84.9744 867.963 83.4975 869.455L81.7873 871.165L79.813 869.191C78.3206 867.699 75.9109 867.699 74.434 869.191L72.724 870.917L70.7496 868.927C69.2571 867.434 66.8474 867.434 65.3705 868.927L54.8768 879.42C54.7991 879.498 54.7991 879.622 54.8768 879.716C56.276 881.115 58.5613 881.115 59.976 879.716L66.7386 872.953C67.4693 872.223 68.6508 872.223 69.3815 872.953L69.879 873.451C69.9723 873.544 69.9723 873.684 69.879 873.777L64.2357 879.42C64.158 879.498 64.158 879.622 64.2357 879.716C65.6349 881.115 67.9201 881.115 69.3348 879.716L75.8176 873.233C76.5483 872.502 77.7298 872.502 78.4605 873.233L78.9579 873.731C79.0356 873.808 79.0356 873.933 78.9579 874.026L73.5167 879.467C73.439 879.545 73.439 879.669 73.5167 879.762C74.9159 881.162 77.2012 881.162 78.6159 879.762L84.881 873.497C85.6117 872.767 86.7932 872.767 87.5239 873.497L88.5966 874.57C89.0163 874.99 89.0163 875.689 88.5966 876.109L88.4256 876.28C88.0059 876.7 87.3063 876.7 86.8865 876.28L85.5029 874.896C85.4252 874.819 85.3008 874.819 85.2075 874.896L82.8134 877.291C82.7357 877.368 82.7357 877.493 82.8134 877.586L84.9743 879.747C86.4667 881.239 88.8764 881.239 90.3533 879.747L92.0635 878.037L92.0479 877.99Z" fill="#7DDACF"/>
            <path d="M73.9996 819.257C42.6584 819.257 17.2559 844.659 17.2559 876C17.2559 907.341 42.6584 932.744 73.9996 932.744C105.341 932.744 130.743 907.341 130.743 876C130.743 844.659 105.341 819.257 73.9996 819.257ZM76.316 836.777C85.4261 837.306 93.6967 840.944 100.102 846.634L91.9088 854.826C87.6336 851.204 82.2391 848.857 76.316 848.359V836.777ZM71.6987 836.777V848.359C65.7756 848.841 60.3811 851.204 56.1059 854.826L47.9131 846.634C54.3181 840.944 62.5887 837.306 71.6987 836.777ZM44.6484 849.898L52.8412 858.091C49.2189 862.366 46.8715 867.761 46.374 873.684H34.792C35.3206 864.574 38.9585 856.303 44.6484 849.898ZM34.792 878.301H46.374C46.8559 884.224 49.2189 889.619 52.8412 893.894L44.6484 902.087C38.9585 895.682 35.3206 887.411 34.792 878.301ZM71.6987 915.208C62.5887 914.679 54.3181 911.041 47.9131 905.352L56.1059 897.159C60.3811 900.781 65.7756 903.128 71.6987 903.626V915.208ZM50.1517 875.985C50.1517 862.817 60.8319 852.137 73.9996 852.137C87.1672 852.137 97.8475 862.817 97.8475 875.985C97.8475 889.152 87.1672 899.833 73.9996 899.833C60.8319 899.833 50.1517 889.152 50.1517 875.985ZM76.316 915.208V903.626C82.2391 903.144 87.6336 900.781 91.9088 897.159L100.102 905.352C93.6967 911.041 85.4261 914.679 76.316 915.208ZM103.366 902.087L95.1736 893.894C98.7959 889.619 101.143 884.224 101.641 878.301H113.223C112.694 887.411 109.056 895.682 103.366 902.087ZM101.641 873.684C101.159 867.761 98.7959 862.366 95.1736 858.091L103.366 849.898C109.056 856.303 112.694 864.574 113.223 873.684H101.641Z" fill="#7DDACF"/>
            <path d="M147.969 499.836C147.969 540.627 114.776 573.82 73.9844 573.82C33.1927 573.82 0 540.627 0 499.836C0 459.044 33.1927 425.851 73.9844 425.851C114.776 425.851 147.969 459.044 147.969 499.836ZM5.3301 499.836C5.3301 537.69 36.1297 568.49 73.9844 568.49C111.839 568.49 142.639 537.69 142.639 499.836C142.639 461.981 111.839 431.181 73.9844 431.181C36.1297 431.181 5.3301 461.981 5.3301 499.836Z" fill="#478BF9"/>
            <path d="M147.969 318.984C147.969 320.461 146.772 321.642 145.312 321.642C143.851 321.642 142.654 320.445 142.654 318.984C142.654 281.13 111.855 250.33 74.0001 250.33C36.1454 250.33 5.3458 281.13 5.3458 318.984C5.3458 320.461 4.14921 321.642 2.68848 321.642C1.22775 321.642 0.03125 320.445 0.03125 318.984C0.03125 278.193 33.224 245 74.0157 245C114.807 245 148 278.193 148 318.984H147.969Z" fill="#478BF9"/>
            <path d="M59.7336 486.766C59.7336 489.486 61.5829 491.848 64.2246 492.501L69.2439 493.759V480.846H65.6698C62.4064 480.846 59.7492 483.503 59.7492 486.766H59.7336Z" fill="#478BF9"/>
            <path d="M78.7225 518.825H82.2967C85.56 518.825 88.2173 516.167 88.2173 512.904C88.2173 510.185 86.3681 507.823 83.7263 507.17L78.707 505.911V518.825H78.7225Z" fill="#478BF9"/>
            <path d="M73.9848 439.635C40.7921 439.635 13.7686 466.642 13.7686 499.851C13.7686 533.059 40.7765 560.067 73.9848 560.067C107.193 560.067 134.201 533.059 134.201 499.851C134.201 466.642 107.193 439.635 73.9848 439.635ZM97.7295 490.341H88.2347V485.585C88.2347 482.975 86.1058 480.83 83.4796 480.83H78.7244V496.121L86.0437 497.955C92.9122 499.68 97.714 505.818 97.714 512.904C97.714 521.404 90.7988 528.32 82.2986 528.32H78.7244V540.347H69.2297V528.32H64.4746C56.6115 528.32 50.2247 521.933 50.2247 514.07V509.315H59.7194V514.07C59.7194 516.68 61.8484 518.825 64.4746 518.825H69.2297V503.534L61.9105 501.7C55.0419 499.975 50.2402 493.837 50.2402 486.751C50.2402 478.251 57.1554 471.336 65.6556 471.336H69.2297V459.308H78.7244V471.336H83.4796C91.3427 471.336 97.7295 477.722 97.7295 485.585V490.341Z" fill="#478BF9"/>
            <path d="M148 317.82V496.298C148 497.773 146.804 498.954 145.344 498.954C143.884 498.954 142.688 497.758 142.688 496.298V317.82C142.688 316.345 143.884 315.164 145.344 315.164C146.804 315.164 148 316.36 148 317.82Z" fill="#478BF9"/>
            <path d="M5.42564 317.432V495.909C5.42564 497.385 4.22954 498.565 2.76941 498.565C1.30928 498.565 0.113281 497.369 0.113281 495.909V317.432C0.113281 315.956 1.30928 314.776 2.76941 314.776C4.22954 314.776 5.42564 315.972 5.42564 317.432Z" fill="#478BF9"/>
            <path d="M73.9902 762C33.1867 762 0 728.793 0 688C0 647.207 33.2023 614 73.9902 614C114.778 614 147.98 647.207 147.98 688C147.98 728.793 114.778 762 73.9902 762ZM73.9902 618.928C35.907 618.928 4.92747 649.912 4.92747 688C4.92747 726.088 35.907 757.072 73.9902 757.072C112.073 757.072 143.053 726.088 143.053 688C143.053 649.912 112.073 618.928 73.9902 618.928Z" fill="#9DADF2"/>
            <path d="M97.9905 641.797C97.6175 641.797 97.2444 641.719 96.9024 641.548C89.7366 638.003 82.0267 636.2 73.9904 636.2C65.954 636.2 58.2441 638.003 51.0783 641.548C50.1301 642.014 48.9954 641.828 48.2492 641.081L35.5341 628.365C34.9901 627.821 34.7414 627.074 34.8346 626.313C34.9279 625.551 35.3631 624.882 36.016 624.494C47.472 617.622 60.6069 614 74.0059 614C87.405 614 100.54 617.638 111.996 624.494C112.649 624.882 113.084 625.551 113.177 626.313C113.27 627.074 113.006 627.821 112.478 628.365L99.7626 641.081C99.2807 641.548 98.659 641.797 98.0061 641.797H97.9905ZM73.9904 631.272C82.1821 631.272 90.0785 632.982 97.4776 636.355L106.68 627.152C96.6693 621.758 85.4309 618.928 73.9904 618.928C62.5499 618.928 51.3115 621.758 41.301 627.152L50.5032 636.355C57.9022 632.982 65.7986 631.272 73.9904 631.272Z" fill="#9DADF2"/>
            <path d="M73.9905 762C60.5915 762 47.4567 758.363 36.0006 751.507C35.3478 751.118 34.9125 750.45 34.8192 749.688C34.726 748.926 34.9902 748.18 35.5187 747.636L48.2339 734.919C48.98 734.173 50.1303 733.986 51.0629 734.453C58.2288 737.997 65.9387 739.8 73.975 739.8C82.0113 739.8 89.7213 737.997 96.8872 734.453C97.8353 733.986 98.97 734.173 99.7161 734.919L112.431 747.636C112.975 748.18 113.224 748.926 113.131 749.688C113.037 750.45 112.602 751.118 111.949 751.507C100.493 758.378 87.3586 762 73.9595 762H73.9905ZM41.3012 748.848C51.3117 754.243 62.55 757.072 73.9905 757.072C85.431 757.072 96.6695 754.243 106.68 748.848L97.4777 739.645C90.0787 743.019 82.1823 744.729 73.9905 744.729C65.7988 744.729 57.9024 743.019 50.5033 739.645L41.3012 748.848Z" fill="#9DADF2"/>
            <path d="M135.378 727.192C134.725 727.192 134.103 726.943 133.637 726.477L120.922 713.76C120.176 713.014 119.989 711.863 120.455 710.931C123.999 703.764 125.803 696.053 125.803 688.016C125.803 679.978 123.999 672.267 120.455 665.1C119.989 664.152 120.176 663.002 120.922 662.271L133.637 649.554C134.181 649.01 134.927 648.761 135.689 648.855C136.45 648.948 137.119 649.383 137.507 650.036C144.378 661.494 148 674.63 148 688.031C148 701.432 144.378 714.569 137.507 726.026C137.119 726.679 136.45 727.114 135.689 727.208C135.58 727.208 135.487 727.208 135.378 727.208V727.192ZM125.632 711.49L134.834 720.694C140.228 710.682 143.057 699.442 143.057 688C143.057 676.558 140.228 665.318 134.834 655.306L125.632 664.51C129.005 671.91 130.715 679.807 130.715 688C130.715 696.193 129.005 704.09 125.632 711.49Z" fill="#9DADF2"/>
            <path d="M12.6063 727.192C12.4975 727.192 12.4042 727.192 12.3109 727.176C11.5493 727.083 10.8809 726.648 10.4923 725.995C3.62179 714.537 0 701.401 0 688C0 674.599 3.62179 661.462 10.4923 650.005C10.8809 649.352 11.5493 648.917 12.3109 648.823C13.0726 648.73 13.8187 648.994 14.3628 649.523L27.0779 662.24C27.824 662.986 28.0105 664.136 27.5442 665.069C24.0001 672.236 22.197 679.947 22.197 687.984C22.197 696.022 24.0001 703.733 27.5442 710.899C28.0105 711.848 27.824 712.998 27.0779 713.729L14.3628 726.446C13.8965 726.912 13.2747 727.176 12.6218 727.176L12.6063 727.192ZM13.1503 655.306C7.75647 665.318 4.92747 676.558 4.92747 688C4.92747 699.442 7.75647 710.682 13.1503 720.694L22.3525 711.49C18.9794 704.09 17.2695 696.193 17.2695 688C17.2695 679.807 18.9794 671.91 22.3525 664.51L13.1503 655.306Z" fill="#9DADF2"/>
            <path d="M73.994 631.256C42.7191 631.256 17.2578 656.705 17.2578 688C17.2578 719.294 42.7036 744.743 73.994 744.743C105.284 744.743 130.73 719.294 130.73 688C130.73 656.705 105.284 631.256 73.994 631.256ZM105.922 669.36C108.611 673.961 110.243 678.983 110.772 684.315C110.787 684.533 110.694 684.735 110.507 684.844C106.45 687.331 102.813 690.378 99.673 693.938C99.5331 694.109 99.2999 694.171 99.0978 694.094L92.0874 691.808C91.8853 691.746 91.7455 691.575 91.7144 691.358C90.9216 685.559 89.1185 680.009 86.3516 674.847C86.2583 674.661 86.2739 674.443 86.3983 674.272L90.7351 668.303C90.8439 668.163 91.0148 668.069 91.1858 668.069C91.2325 668.069 91.2636 668.069 91.3102 668.069C95.9424 669.095 100.699 669.437 105.424 669.049C105.642 669.033 105.844 669.142 105.953 669.329L105.922 669.36ZM87.8905 692.337C87.906 692.492 87.8594 692.648 87.7661 692.757C84.0821 697.001 79.3878 700.405 74.2116 702.582C74.0717 702.644 73.9318 702.644 73.7919 702.582C68.6157 700.39 63.9214 696.985 60.2374 692.757C60.1442 692.648 60.0975 692.492 60.1131 692.337C60.8281 686.709 62.5846 681.33 65.3049 676.355C65.3826 676.216 65.5069 676.122 65.6623 676.091C68.3981 675.516 71.1961 675.221 74.0095 675.221C76.823 675.221 79.621 675.516 82.3568 676.091C82.5122 676.122 82.6365 676.216 82.7142 676.355C85.4345 681.33 87.1755 686.709 87.906 692.337H87.8905ZM87.0511 653.751C87.0511 653.751 87.2376 653.596 87.4242 653.596C87.4863 653.596 87.5641 653.596 87.6418 653.642C93.3621 655.912 98.476 659.643 102.455 664.416C102.657 664.649 102.58 664.898 102.533 664.991C102.502 665.069 102.362 665.318 102.036 665.318C98.5072 665.364 94.9942 664.96 91.59 664.152C91.4501 664.121 91.3258 664.027 91.2481 663.903C89.4294 660.903 87.9682 657.669 86.9112 654.311C86.8179 654.016 86.989 653.813 87.0667 653.751H87.0511ZM66.1442 651.886C71.2893 650.782 76.7142 650.782 81.8593 651.886C82.0614 651.932 82.2324 652.088 82.2791 652.29C83.3827 656.907 85.1702 661.322 87.5796 665.411C87.6884 665.598 87.6729 665.831 87.5485 666.017L83.2428 671.956C83.1184 672.127 82.9008 672.22 82.6988 672.174C77.0096 671.023 70.994 671.023 65.3049 672.174C65.1028 672.22 64.8851 672.127 64.7608 671.956L60.4551 666.017C60.3307 665.846 60.3152 665.598 60.424 665.411C62.8333 661.322 64.6208 656.907 65.7245 652.29C65.7711 652.088 65.9421 651.932 66.1442 651.886ZM45.5482 664.416C49.5275 659.628 54.6416 655.897 60.3618 653.642C60.4395 653.611 60.5172 653.596 60.5794 653.596C60.7814 653.596 60.9058 653.705 60.9524 653.751C61.0301 653.829 61.2012 654.016 61.1079 654.311C60.0509 657.684 58.5897 660.903 56.771 663.903C56.6933 664.027 56.569 664.121 56.4291 664.152C53.0249 664.96 49.512 665.364 45.9835 665.318C45.6571 665.318 45.5171 665.069 45.4861 664.991C45.4394 664.898 45.3617 664.649 45.5638 664.416H45.5482ZM42.0819 669.36C42.1751 669.189 42.3617 669.08 42.5637 669.08C42.5637 669.08 42.5948 669.08 42.6103 669.08C47.3513 669.453 52.1078 669.126 56.7245 668.1C56.9421 668.054 57.1597 668.132 57.284 668.318L61.6209 674.288C61.7453 674.459 61.7607 674.692 61.6675 674.863C58.9006 680.024 57.0975 685.574 56.3047 691.373C56.2736 691.575 56.1338 691.746 55.9317 691.824L48.9213 694.109C48.7192 694.171 48.486 694.109 48.3461 693.954C45.2062 690.394 41.5689 687.347 37.5119 684.859C37.3409 684.75 37.232 684.548 37.2476 684.331C37.7761 678.998 39.4083 673.961 42.0974 669.375L42.0819 669.36ZM43.7761 707.666C43.6829 707.961 43.4186 708.023 43.3098 708.039C43.201 708.039 42.9523 708.039 42.7813 707.79C39.4704 702.582 37.5119 696.55 37.1233 690.363C37.1077 690.052 37.3098 689.896 37.4031 689.85C37.4963 689.803 37.7451 689.694 37.9938 689.881C40.8694 691.917 43.4808 694.311 45.7658 696.97C45.8591 697.079 45.9057 697.219 45.8901 697.374C45.6103 700.872 44.8953 704.339 43.7606 707.681L43.7761 707.666ZM59.1338 721.859C54.284 719.729 50.0094 716.605 46.4342 712.594C46.2943 712.438 46.2477 712.205 46.3254 712.019C48.1441 707.634 49.2944 703.017 49.7451 698.291C49.7607 698.074 49.9161 697.887 50.1182 697.825L57.0509 695.571C57.0509 695.571 57.1597 695.539 57.2219 695.539C57.3773 695.539 57.5172 695.602 57.626 695.726C61.5121 700.079 66.3774 703.624 71.709 705.971C71.9111 706.064 72.0354 706.251 72.0354 706.469V713.76C72.0354 713.977 71.9111 714.179 71.709 714.257C67.3567 716.138 63.3151 718.672 59.6933 721.766C59.5379 721.906 59.3047 721.937 59.1182 721.844L59.1338 721.859ZM83.5847 723.398C83.5692 723.507 83.4915 723.756 83.1806 723.834C77.1806 725.357 70.8385 725.357 64.8385 723.834C64.5431 723.756 64.4499 723.507 64.4344 723.398C64.4188 723.29 64.3877 723.041 64.6519 722.839C67.481 720.74 70.5587 718.983 73.8075 717.631C73.9474 717.569 74.0873 717.569 74.2272 717.631C77.4604 718.983 80.5381 720.74 83.3827 722.839C83.6314 723.025 83.6158 723.29 83.6003 723.398H83.5847ZM101.6 712.609C98.0253 716.62 93.7507 719.729 88.9009 721.859C88.6988 721.953 88.4812 721.906 88.3258 721.782C84.704 718.688 80.678 716.154 76.3101 714.273C76.108 714.179 75.9837 713.993 75.9837 713.775V706.484C75.9837 706.266 76.108 706.064 76.3101 705.987C81.6417 703.639 86.5226 700.095 90.3931 695.742C90.5019 695.617 90.6418 695.555 90.7972 695.555C90.8594 695.555 90.906 695.555 90.9682 695.586L97.9009 697.84C98.103 697.903 98.2584 698.089 98.274 698.307C98.7247 703.033 99.875 707.635 101.694 712.034C101.771 712.221 101.74 712.454 101.585 712.609H101.6ZM105.238 707.805C105.067 708.07 104.803 708.07 104.709 708.054C104.6 708.054 104.352 707.977 104.243 707.681C103.124 704.339 102.409 700.872 102.113 697.374C102.113 697.234 102.144 697.079 102.238 696.97C104.523 694.311 107.134 691.933 110.01 689.881C110.119 689.803 110.227 689.772 110.321 689.772C110.445 689.772 110.538 689.818 110.6 689.85C110.694 689.896 110.911 690.052 110.88 690.363C110.492 696.55 108.533 702.582 105.222 707.79L105.238 707.805Z" fill="#9DADF2"/>
            <path d="M73.9991 205C55.0359 205 36.0883 197.789 21.6483 183.351C-7.21611 154.491 -7.21611 107.54 21.6483 78.6802C35.6375 64.693 54.2277 57 73.9991 57C93.7705 57 112.361 64.693 126.35 78.6802C155.214 107.54 155.214 154.491 126.35 183.351C111.926 197.773 92.9623 205 73.9991 205ZM25.5342 179.466C52.2536 206.181 95.7291 206.181 122.449 179.466C149.168 152.75 149.168 109.281 122.449 82.5655C109.501 69.6196 92.294 62.5017 73.9836 62.5017C55.6733 62.5017 38.4665 69.6351 25.5187 82.5655C-1.20076 109.281 -1.20076 152.75 25.5187 179.466H25.5342Z" fill="#9DADF2"/>
            <path d="M73.0222 158.703C73.2864 159.34 73.9082 159.713 74.561 159.713C74.7786 159.713 74.9962 159.666 75.2138 159.588C80.4364 157.397 85.1928 154.009 88.9544 149.782C89.5606 149.098 89.4983 148.041 88.8144 147.435C88.1305 146.829 87.0735 146.891 86.4673 147.575C83.0322 151.445 78.6955 154.537 73.9237 156.527C73.0843 156.884 72.6802 157.863 73.0377 158.703H73.0222Z" fill="#9DADF2"/>
            <path d="M102.21 105.427L74.6041 94.3924C74.2 94.237 73.7648 94.237 73.3607 94.3924L45.7553 105.427C45.118 105.675 44.7139 106.282 44.7139 106.965V126.734C44.745 144.979 56.2783 161.469 73.4074 167.748C73.5939 167.81 73.7804 167.841 73.9825 167.841C74.1845 167.841 74.371 167.81 74.5576 167.748C91.6866 161.453 103.22 144.979 103.251 126.734V106.965C103.251 106.282 102.847 105.675 102.21 105.427ZM99.9247 126.734C99.8936 143.332 89.4793 158.454 73.9979 164.406C58.5165 158.454 48.0868 143.332 48.0557 126.734V108.1L73.9979 97.7339L99.9247 108.1V126.734Z" fill="#9DADF2"/>
            <path d="M62.469 108.023C62.0649 107.852 61.6141 107.852 61.1944 108.023L54.6195 110.649C53.9822 110.898 53.5781 111.504 53.5781 112.188V119.197C53.5781 120.114 54.3242 120.86 55.2413 120.86C56.1584 120.86 56.9044 120.114 56.9044 119.197V113.322L62.4224 111.116C62.8421 110.945 63.1529 110.634 63.3394 110.214C63.5104 109.81 63.5104 109.359 63.3394 108.94C63.1685 108.52 62.8576 108.209 62.4534 108.023H62.469Z" fill="#9DADF2"/>
            <path d="M116.046 88.9842C104.823 77.7478 89.8858 71.5779 74.0002 71.5779C58.1147 71.5779 43.1929 77.7633 31.9549 88.9842C8.77937 112.156 8.77937 149.875 31.9549 173.063C43.5504 184.657 58.7675 190.438 74.0002 190.438C89.2329 190.438 104.45 184.641 116.046 173.063C139.221 149.891 139.221 112.172 116.046 88.9842ZM107.823 126.734C107.87 147.824 94.3934 166.271 74.2956 172.659C74.109 172.721 73.907 172.721 73.7049 172.659C53.607 166.271 40.1308 147.824 40.1775 126.734V103.406C40.1775 103.018 40.4106 102.661 40.7836 102.505L73.6428 89.3727C73.7516 89.3261 73.8759 89.3106 74.0002 89.3106C74.1246 89.3106 74.249 89.3261 74.3578 89.3727L107.217 102.521C107.59 102.661 107.823 103.018 107.823 103.422V126.75V126.734Z" fill="#9DADF2"/>
        </g>
    </g>
    <defs>
        <linearGradient id="paint0_linear_404_8704" x1="250" y1="0" x2="250" y2="1240" gradientUnits="userSpaceOnUse">
            <stop stop-color="white" stop-opacity="0"/>
            <stop offset="0.284327" stop-color="white"/>
            <stop offset="0.756282" stop-color="white"/>
            <stop offset="1" stop-color="white" stop-opacity="0"/>
        </linearGradient>
    </defs>
</svg>
