<svg width="270" height="120" viewBox="0 0 270 120" fill="none" xmlns="http://www.w3.org/2000/svg">
    <rect width="270" height="120" rx="15" fill="white"/>
    <path d="M110 85H160C161 85 161.75 84.5417 162.25 83.625C162.75 82.7083 162.667 81.8333 162 81L148.25 62.625C147.75 61.9583 147.083 61.625 146.25 61.625C145.417 61.625 144.75 61.9583 144.25 62.625L131.25 80L122 67.625C121.5 66.9583 120.833 66.625 120 66.625C119.167 66.625 118.5 66.9583 118 67.625L108 81C107.333 81.8333 107.25 82.7083 107.75 83.625C108.25 84.5417 109 85 110 85ZM100 105C97.25 105 94.895 104.022 92.935 102.065C90.9783 100.105 90 97.75 90 95V25C90 22.25 90.9783 19.895 92.935 17.935C94.895 15.9783 97.25 15 100 15H170C172.75 15 175.105 15.9783 177.065 17.935C179.022 19.895 180 22.25 180 25V95C180 97.75 179.022 100.105 177.065 102.065C175.105 104.022 172.75 105 170 105H100ZM100 95H170V25H100V95Z" fill="#E0E0E0"/>
</svg>
