<svg width="320" height="436" viewBox="0 0 320 436" fill="none" xmlns="http://www.w3.org/2000/svg">
    <g opacity="0.1">
        <path d="M14 239C6.31213 239 -1.36942 236.077 -7.22355 230.223C-18.9255 218.523 -18.9255 199.489 -7.22355 187.789C-1.55217 182.119 5.98446 179 14 179C22.0155 179 29.5522 182.119 35.2235 187.789C46.9255 199.489 46.9255 218.523 35.2235 230.223C29.3757 236.07 21.6879 239 14 239ZM-5.64816 228.648C5.18417 239.479 22.8095 239.479 33.6419 228.648C44.4742 217.818 44.4742 200.195 33.6419 189.364C28.3927 184.116 21.4169 181.23 13.9937 181.23C6.57049 181.23 -0.405296 184.122 -5.65447 189.364C-16.4868 200.195 -16.4868 217.818 -5.65447 228.648H-5.64816Z" fill="#9DADF2"/>
        <path fill-rule="evenodd" clip-rule="evenodd" d="M13.9928 184.91C20.433 184.91 26.4888 187.411 31.0385 191.967C40.434 201.367 40.434 216.658 31.0385 226.052C26.3375 230.746 20.1683 233.096 13.9928 233.096C7.81733 233.096 1.64814 230.753 -3.0528 226.052C-12.4484 216.652 -12.4484 201.361 -3.0528 191.967C1.5032 187.418 7.55266 184.91 13.9928 184.91ZM6.47349 198.258C5.71133 199.401 6.25119 200.973 7.52146 201.513C8.49005 201.91 9.64917 201.624 10.2049 200.719C10.9512 199.56 12.1579 198.591 14.0157 198.591C18.1123 198.591 18.9221 202.418 17.4772 204.466C16.8696 205.335 16.0672 206.075 15.2558 206.824C14.2436 207.757 13.2177 208.703 12.539 209.928C12.0944 210.722 11.9039 211.564 11.8086 212.374C11.6498 213.755 12.7772 214.946 14.1586 214.946C15.3336 214.946 16.2863 214.041 16.4292 212.882C16.5245 212.167 16.6674 211.818 16.9056 211.389C17.3831 210.511 18.0586 209.857 18.8451 209.096C19.6802 208.288 20.6403 207.358 21.6215 205.911C23.3363 203.371 22.6853 199.957 21.5738 198.131C20.2718 196.003 17.7154 194.304 13.984 194.304C10.586 194.304 8.01369 195.971 6.47349 198.258ZM13.9998 224.473C15.7465 224.473 17.1755 223.044 17.1755 221.297C17.1755 219.551 15.7465 218.122 13.9998 218.122C12.2532 218.122 10.8242 219.551 10.8242 221.297C10.8242 223.044 12.2532 224.473 13.9998 224.473Z" fill="#9DADF2"/>
    </g>
    <g opacity="0.1">
        <path d="M76 254C70.106 254 64.2168 251.759 59.7286 247.271C50.7571 238.301 50.7571 223.709 59.7286 214.738C64.0767 210.391 69.8547 208 76 208C82.1453 208 87.9233 210.391 92.2714 214.738C101.243 223.709 101.243 238.301 92.2714 247.271C87.7881 251.754 81.894 254 76 254ZM60.9364 246.064C69.2412 254.367 82.754 254.367 91.0588 246.064C99.3635 237.76 99.3635 224.25 91.0588 215.946C87.0344 211.922 81.6863 209.71 75.9952 209.71C70.304 209.71 64.9559 211.927 60.9316 215.946C52.6268 224.25 52.6268 237.76 60.9316 246.064H60.9364Z" fill="#7DDACF"/>
        <path d="M75.6955 239.615C75.7776 239.813 75.9709 239.929 76.1738 239.929C76.2414 239.929 76.3091 239.915 76.3767 239.89C78 239.209 79.4783 238.156 80.6474 236.842C80.8359 236.63 80.8166 236.301 80.604 236.113C80.3914 235.925 80.0629 235.944 79.8745 236.157C78.8068 237.359 77.4589 238.321 75.9757 238.939C75.7148 239.05 75.5892 239.354 75.7003 239.615H75.6955Z" fill="#7DDACF"/>
        <path d="M84.7686 223.052L76.1884 219.622C76.0628 219.574 75.9276 219.574 75.8019 219.622L67.2218 223.052C67.0237 223.129 66.8981 223.317 66.8981 223.53V229.674C66.9077 235.345 70.4925 240.47 75.8164 242.421C75.8744 242.441 75.9324 242.45 75.9952 242.45C76.058 242.45 76.116 242.441 76.1739 242.421C81.4979 240.465 85.0826 235.345 85.0923 229.674V223.53C85.0923 223.317 84.9667 223.129 84.7686 223.052ZM84.0584 229.674C84.0487 234.833 80.8119 239.533 76 241.383C71.1882 239.533 67.9464 234.833 67.9368 229.674V223.882L76 220.66L84.0584 223.882V229.674Z" fill="#7DDACF"/>
        <path d="M72.4142 223.858C72.2886 223.805 72.1485 223.805 72.018 223.858L69.9745 224.675C69.7764 224.752 69.6508 224.94 69.6508 225.153V227.331C69.6508 227.616 69.8827 227.848 70.1677 227.848C70.4527 227.848 70.6846 227.616 70.6846 227.331V225.505L72.3997 224.819C72.5301 224.766 72.6268 224.67 72.6847 224.539C72.7379 224.414 72.7379 224.274 72.6847 224.143C72.6316 224.013 72.535 223.916 72.4094 223.858H72.4142Z" fill="#7DDACF"/>
        <path d="M89.0629 217.941C85.5748 214.449 80.932 212.531 75.9946 212.531C71.0571 212.531 66.4192 214.454 62.9263 217.941C55.723 225.143 55.723 236.867 62.9263 244.074C66.5303 247.677 71.26 249.474 75.9946 249.474C80.7291 249.474 85.4588 247.672 89.0629 244.074C96.2662 236.871 96.2662 225.148 89.0629 217.941ZM86.5072 229.674C86.5217 236.229 82.3331 241.963 76.0864 243.948C76.0284 243.967 75.9656 243.967 75.9028 243.948C69.6561 241.963 65.4674 236.229 65.4819 229.674V222.424C65.4819 222.303 65.5544 222.192 65.6704 222.144L75.8835 218.062C75.9173 218.047 75.9559 218.043 75.9946 218.043C76.0332 218.043 76.0719 218.047 76.1057 218.062L86.3188 222.148C86.4347 222.192 86.5072 222.303 86.5072 222.429V229.679V229.674Z" fill="#7DDACF"/>
    </g>
    <g opacity="0.1">
        <path d="M25 288C20.8998 288 16.803 286.441 13.6808 283.319C7.43974 277.079 7.43974 266.928 13.6808 260.688C16.7055 257.663 20.725 256 25 256C29.275 256 33.2945 257.663 36.3192 260.688C42.5603 266.928 42.5603 277.079 36.3192 283.319C33.2004 286.437 29.1002 288 25 288ZM14.521 282.479C20.2982 288.255 29.6984 288.255 35.4757 282.479C41.2529 276.703 41.2529 267.304 35.4757 261.528C32.6761 258.729 28.9557 257.19 24.9966 257.19C21.0376 257.19 17.3172 258.732 14.5176 261.528C8.74037 267.304 8.74037 276.703 14.5176 282.479H14.521Z" fill="#478BF9"/>
        <path fill-rule="evenodd" clip-rule="evenodd" d="M24.9962 259.152C28.431 259.152 31.6607 260.486 34.0872 262.915C39.0982 267.929 39.0982 276.084 34.0872 281.095C31.58 283.598 28.2898 284.851 24.9962 284.851C21.7026 284.851 18.4124 283.601 15.9052 281.095C10.8942 276.081 10.8942 267.926 15.9052 262.915C18.3351 260.489 21.5615 259.152 24.9962 259.152ZM20.9863 266.271C20.5798 266.881 20.8677 267.719 21.5452 268.007C22.0618 268.219 22.68 268.066 22.9764 267.583C23.3744 266.965 24.018 266.449 25.0088 266.449C27.1937 266.449 27.6255 268.49 26.8549 269.582C26.5309 270.045 26.1029 270.44 25.6702 270.839C25.1303 271.337 24.5832 271.842 24.2212 272.495C23.9841 272.919 23.8825 273.367 23.8317 273.799C23.747 274.536 24.3482 275.171 25.085 275.171C25.7117 275.171 26.2198 274.689 26.296 274.07C26.3468 273.689 26.423 273.503 26.55 273.274C26.8047 272.806 27.165 272.457 27.5845 272.051C28.0298 271.62 28.5419 271.125 29.0652 270.353C29.9798 268.998 29.6326 267.177 29.0398 266.203C28.3454 265.068 26.9819 264.162 24.9919 264.162C23.1796 264.162 21.8077 265.051 20.9863 266.271ZM25.0003 280.252C25.9319 280.252 26.694 279.49 26.694 278.559C26.694 277.627 25.9319 276.865 25.0003 276.865C24.0688 276.865 23.3066 277.627 23.3066 278.559C23.3066 279.49 24.0688 280.252 25.0003 280.252Z" fill="#478BF9"/>
    </g>
    <g opacity="0.1">
        <path d="M305 290C297.568 290 290.143 287.174 284.484 281.516C273.172 270.206 273.172 251.806 284.484 240.496C289.966 235.015 297.252 232 305 232C312.748 232 320.034 235.015 325.516 240.496C336.828 251.806 336.828 270.206 325.516 281.516C319.863 287.168 312.432 290 305 290ZM286.007 279.993C296.478 290.463 313.516 290.463 323.987 279.993C334.458 269.524 334.458 252.489 323.987 242.019C318.913 236.946 312.17 234.156 304.994 234.156C297.818 234.156 291.075 236.952 286.001 242.019C275.529 252.489 275.529 269.524 286.001 279.993H286.007Z" fill="#7DDACF"/>
        <path fill-rule="evenodd" clip-rule="evenodd" d="M304.993 237.713C311.218 237.713 317.072 240.131 321.47 244.534C330.553 253.621 330.553 268.403 321.47 277.484C316.926 282.021 310.963 284.293 304.993 284.293C299.023 284.293 293.06 282.027 288.516 277.484C279.433 268.397 279.433 253.615 288.516 244.534C292.92 240.137 298.767 237.713 304.993 237.713ZM297.724 250.616C296.988 251.721 297.51 253.241 298.737 253.762C299.674 254.146 300.794 253.87 301.331 252.995C302.053 251.875 303.219 250.938 305.015 250.938C308.975 250.938 309.758 254.637 308.361 256.617C307.774 257.457 306.998 258.173 306.214 258.896C305.236 259.799 304.244 260.713 303.588 261.897C303.158 262.665 302.974 263.478 302.882 264.261C302.728 265.597 303.818 266.748 305.153 266.748C306.289 266.748 307.21 265.873 307.348 264.752C307.44 264.062 307.579 263.724 307.809 263.31C308.27 262.461 308.923 261.829 309.684 261.093C310.491 260.312 311.419 259.413 312.367 258.014C314.025 255.558 313.396 252.258 312.321 250.493C311.063 248.436 308.592 246.794 304.985 246.794C301.7 246.794 299.213 248.406 297.724 250.616ZM305 275.957C306.688 275.957 308.07 274.576 308.07 272.887C308.07 271.199 306.688 269.818 305 269.818C303.311 269.818 301.93 271.199 301.93 272.887C301.93 274.576 303.311 275.957 305 275.957Z" fill="#7DDACF"/>
    </g>
    <g opacity="0.1">
        <path d="M257.5 228C247.298 228 239 219.698 239 209.5C239 199.302 247.302 191 257.5 191C267.698 191 276 199.302 276 209.5C276 219.698 267.698 228 257.5 228ZM257.5 192.232C247.978 192.232 240.232 199.978 240.232 209.5C240.232 219.022 247.978 226.768 257.5 226.768C267.022 226.768 274.768 219.022 274.768 209.5C274.768 199.978 267.022 192.232 257.5 192.232Z" fill="#478BF9"/>
        <path d="M269.572 196.299L263.844 202.026L264.971 203.153L270.698 197.426L269.572 196.299Z" fill="#478BF9"/>
        <path d="M249.857 216.014L244.13 221.741L245.257 222.868L250.984 217.141L249.857 216.014Z" fill="#478BF9"/>
        <path d="M265.145 216.013L264.019 217.14L269.746 222.867L270.873 221.74L265.145 216.013Z" fill="#478BF9"/>
        <path d="M245.261 196.125L244.134 197.252L249.859 202.977L250.985 201.85L245.261 196.125Z" fill="#478BF9"/>
        <path d="M262.017 209.997C262.39 209.624 262.39 209.022 262.017 208.653L261.224 207.864C260.851 207.491 260.248 207.491 259.879 207.864L259.452 208.291L258.958 207.798C258.585 207.425 257.983 207.425 257.613 207.798L257.186 208.229L256.692 207.732C256.319 207.359 255.717 207.359 255.347 207.732L252.724 210.355C252.705 210.374 252.705 210.406 252.724 210.429C253.074 210.779 253.645 210.779 253.999 210.429L255.689 208.738C255.872 208.556 256.168 208.556 256.35 208.738L256.475 208.863C256.498 208.886 256.498 208.921 256.475 208.944L255.064 210.355C255.044 210.374 255.044 210.406 255.064 210.429C255.414 210.779 255.985 210.779 256.339 210.429L257.959 208.808C258.142 208.626 258.437 208.626 258.62 208.808L258.744 208.933C258.764 208.952 258.764 208.983 258.744 209.006L257.384 210.367C257.365 210.386 257.365 210.417 257.384 210.441C257.734 210.79 258.305 210.79 258.659 210.441L260.225 208.874C260.408 208.692 260.703 208.692 260.886 208.874L261.154 209.142C261.259 209.247 261.259 209.422 261.154 209.527L261.111 209.57C261.006 209.675 260.831 209.675 260.726 209.57L260.381 209.224C260.361 209.205 260.33 209.205 260.307 209.224L259.708 209.823C259.689 209.842 259.689 209.873 259.708 209.896L260.248 210.437C260.622 210.81 261.224 210.81 261.593 210.437L262.021 210.009L262.017 209.997Z" fill="#478BF9"/>
        <path d="M257.501 195.31C249.666 195.31 243.315 201.661 243.315 209.496C243.315 217.331 249.666 223.682 257.501 223.682C265.336 223.682 271.687 217.331 271.687 209.496C271.687 201.661 265.336 195.31 257.501 195.31ZM258.08 199.69C260.357 199.822 262.425 200.732 264.026 202.154L261.978 204.203C260.909 203.297 259.561 202.71 258.08 202.586V199.69ZM256.926 199.69V202.586C255.445 202.706 254.096 203.297 253.027 204.203L250.979 202.154C252.58 200.732 254.648 199.822 256.926 199.69ZM250.163 202.971L252.211 205.019C251.306 206.088 250.719 207.436 250.594 208.917H247.699C247.831 206.639 248.741 204.572 250.163 202.971ZM247.699 210.071H250.594C250.715 211.552 251.306 212.901 252.211 213.97L250.163 216.018C248.741 214.416 247.831 212.349 247.699 210.071ZM256.926 219.298C254.648 219.166 252.58 218.256 250.979 216.834L253.027 214.786C254.096 215.691 255.445 216.278 256.926 216.403V219.298ZM251.539 209.492C251.539 206.2 254.209 203.53 257.501 203.53C260.793 203.53 263.463 206.2 263.463 209.492C263.463 212.784 260.793 215.454 257.501 215.454C254.209 215.454 251.539 212.784 251.539 209.492ZM258.08 219.298V216.403C259.561 216.282 260.909 215.691 261.978 214.786L264.026 216.834C262.425 218.256 260.357 219.166 258.08 219.298ZM264.843 216.018L262.794 213.97C263.7 212.901 264.287 211.552 264.411 210.071H267.307C267.174 212.349 266.265 214.416 264.843 216.018ZM264.411 208.917C264.291 207.436 263.7 206.088 262.794 205.019L264.843 202.971C266.265 204.572 267.174 206.639 267.307 208.917H264.411Z" fill="#478BF9"/>
    </g>
    <g opacity="0.5" filter="url(#filter0_f_404_7858)">
        <ellipse cx="8.76926" cy="232.434" rx="36.0009" ry="82.2766" transform="rotate(45.349 8.76926 232.434)" fill="#478BF9"/>
    </g>
    <g opacity="0.5" filter="url(#filter1_f_404_7858)">
        <ellipse cx="318.761" cy="218" rx="40.7609" ry="75" fill="#7DDACF"/>
    </g>
    <defs>
        <filter id="filter0_f_404_7858" x="-155.013" y="69.1772" width="327.564" height="326.513" filterUnits="userSpaceOnUse" color-interpolation-filters="sRGB">
            <feFlood flood-opacity="0" result="BackgroundImageFix"/>
            <feBlend mode="normal" in="SourceGraphic" in2="BackgroundImageFix" result="shape"/>
            <feGaussianBlur stdDeviation="50" result="effect1_foregroundBlur_404_7858"/>
        </filter>
        <filter id="filter1_f_404_7858" x="135.337" y="0.33696" width="366.848" height="435.326" filterUnits="userSpaceOnUse" color-interpolation-filters="sRGB">
            <feFlood flood-opacity="0" result="BackgroundImageFix"/>
            <feBlend mode="normal" in="SourceGraphic" in2="BackgroundImageFix" result="shape"/>
            <feGaussianBlur stdDeviation="71.3315" result="effect1_foregroundBlur_404_7858"/>
        </filter>
    </defs>
</svg>
