<svg width="474" height="1068" viewBox="0 0 474 1068" fill="none" xmlns="http://www.w3.org/2000/svg">
    <g opacity="0.1">
        <path d="M420 664C386.686 664 353.399 651.332 328.031 625.968C277.323 575.267 277.323 492.787 328.031 442.087C352.607 417.515 385.266 404 420 404C454.734 404 487.393 417.515 511.969 442.087C562.677 492.787 562.677 575.267 511.969 625.968C486.628 651.304 453.314 664 420 664ZM334.858 619.142C381.798 666.075 458.175 666.075 505.115 619.142C552.055 572.21 552.055 495.845 505.115 448.912C482.368 426.17 452.14 413.665 419.973 413.665C387.805 413.665 357.577 426.197 334.831 448.912C287.891 495.845 287.891 572.21 334.831 619.142H334.858Z" fill="#7DDACF"/>
        <path fill-rule="evenodd" clip-rule="evenodd" d="M419.968 429.609C447.876 429.609 474.117 440.448 493.833 460.188C534.547 500.923 534.547 567.186 493.833 607.894C473.462 628.234 446.729 638.417 419.968 638.417C393.208 638.417 366.475 628.261 346.104 607.894C305.39 567.158 305.39 500.896 346.104 460.188C365.847 440.476 392.061 429.609 419.968 429.609ZM387.385 487.45C384.082 492.404 386.422 499.216 391.926 501.556C396.124 503.276 401.146 502.037 403.555 498.115C406.788 493.092 412.018 488.895 420.068 488.895C437.82 488.895 441.329 505.478 435.068 514.354C432.435 518.119 428.958 521.326 425.442 524.569C421.056 528.614 416.61 532.714 413.669 538.023C411.743 541.463 410.917 545.11 410.504 548.619C409.816 554.605 414.701 559.766 420.687 559.766C425.779 559.766 429.907 555.844 430.527 550.821C430.939 547.725 431.559 546.211 432.591 544.353C434.66 540.548 437.587 537.715 440.996 534.416C444.614 530.914 448.775 526.886 453.026 520.615C460.457 509.606 457.636 494.813 452.82 486.9C447.178 477.68 436.1 470.318 419.93 470.318C405.206 470.318 394.059 477.542 387.385 487.45ZM419.999 601.05C427.568 601.05 433.761 594.857 433.761 587.288C433.761 579.72 427.568 573.527 419.999 573.527C412.431 573.527 406.238 579.72 406.238 587.288C406.238 594.857 412.431 601.05 419.999 601.05Z" fill="#7DDACF"/>
    </g>
    <g opacity="0.1">
        <path d="M293 368C252.191 368 219 334.793 219 294C219 253.207 252.207 220 293 220C333.793 220 367 253.207 367 294C367 334.793 333.793 368 293 368ZM293 224.928C254.912 224.928 223.928 255.912 223.928 294C223.928 332.088 254.912 363.072 293 363.072C331.088 363.072 362.072 332.088 362.072 294C362.072 255.912 331.088 224.928 293 224.928Z" fill="#478BF9"/>
        <path d="M341.286 241.196L318.377 264.105L322.884 268.612L345.793 245.703L341.286 241.196Z" fill="#478BF9"/>
        <path d="M262.43 320.056L239.521 342.965L244.028 347.472L266.937 324.563L262.43 320.056Z" fill="#478BF9"/>
        <path d="M323.581 320.051L319.074 324.558L341.983 347.467L346.49 342.96L323.581 320.051Z" fill="#478BF9"/>
        <path d="M244.043 240.501L239.536 245.008L262.434 267.906L266.941 263.399L244.043 240.501Z" fill="#478BF9"/>
        <path d="M311.067 295.99C312.56 294.497 312.56 292.088 311.067 290.611L307.896 287.455C306.403 285.963 303.994 285.963 302.517 287.455L300.807 289.165L298.833 287.191C297.34 285.698 294.93 285.698 293.453 287.191L291.743 288.916L289.769 286.926C288.277 285.434 285.867 285.434 284.39 286.926L273.896 297.42C273.819 297.498 273.819 297.622 273.896 297.716C275.295 299.115 277.581 299.115 278.996 297.716L285.758 290.953C286.489 290.222 287.67 290.222 288.401 290.953L288.898 291.45C288.992 291.544 288.992 291.684 288.898 291.777L283.255 297.42C283.177 297.498 283.177 297.622 283.255 297.716C284.654 299.115 286.94 299.115 288.354 297.716L294.837 291.233C295.568 290.502 296.749 290.502 297.48 291.233L297.977 291.73C298.055 291.808 298.055 291.932 297.977 292.026L292.536 297.467C292.458 297.545 292.458 297.669 292.536 297.762C293.935 299.161 296.221 299.161 297.635 297.762L303.9 291.497C304.631 290.766 305.813 290.766 306.543 291.497L307.616 292.57C308.036 292.989 308.036 293.689 307.616 294.109L307.445 294.28C307.025 294.7 306.326 294.7 305.906 294.28L304.522 292.896C304.445 292.818 304.32 292.818 304.227 292.896L301.833 295.29C301.755 295.368 301.755 295.492 301.833 295.586L303.994 297.747C305.486 299.239 307.896 299.239 309.373 297.747L311.083 296.037L311.067 295.99Z" fill="#478BF9"/>
        <path d="M293.003 237.241C261.662 237.241 236.26 262.643 236.26 293.984C236.26 325.326 261.662 350.728 293.003 350.728C324.345 350.728 349.747 325.326 349.747 293.984C349.747 262.643 324.345 237.241 293.003 237.241ZM295.32 254.761C304.43 255.29 312.7 258.928 319.106 264.618L310.913 272.81C306.637 269.188 301.243 266.841 295.32 266.343V254.761ZM290.703 254.761V266.343C284.779 266.825 279.385 269.188 275.11 272.81L266.917 264.618C273.322 258.928 281.592 255.29 290.703 254.761ZM263.652 267.882L271.845 276.075C268.223 280.35 265.875 285.745 265.378 291.668H253.796C254.324 282.558 257.962 274.287 263.652 267.882ZM253.796 296.285H265.378C265.86 302.208 268.223 307.603 271.845 311.878L263.652 320.071C257.962 313.666 254.324 305.395 253.796 296.285ZM290.703 333.192C281.592 332.663 273.322 329.026 266.917 323.336L275.11 315.143C279.385 318.765 284.779 321.113 290.703 321.61V333.192ZM269.156 293.969C269.156 280.801 279.836 270.121 293.003 270.121C306.171 270.121 316.851 280.801 316.851 293.969C316.851 307.136 306.171 317.817 293.003 317.817C279.836 317.817 269.156 307.136 269.156 293.969ZM295.32 333.192V321.61C301.243 321.128 306.637 318.765 310.913 315.143L319.106 323.336C312.7 329.026 304.43 332.663 295.32 333.192ZM322.37 320.071L314.177 311.878C317.8 307.603 320.147 302.208 320.645 296.285H332.227C331.698 305.395 328.06 313.666 322.37 320.071ZM320.645 291.668C320.163 285.745 317.8 280.35 314.177 276.075L322.37 267.882C328.06 274.287 331.698 282.558 332.227 291.668H320.645Z" fill="#478BF9"/>
    </g>
    <g opacity="0.5" filter="url(#filter0_f_404_7858)">
        <ellipse cx="450" cy="534" rx="100" ry="184" fill="#7DDACF"/>
    </g>
    <defs>
        <filter id="filter0_f_404_7858" x="0" y="0" width="900" height="1068" filterUnits="userSpaceOnUse" color-interpolation-filters="sRGB">
            <feFlood flood-opacity="0" result="BackgroundImageFix"/>
            <feBlend mode="normal" in="SourceGraphic" in2="BackgroundImageFix" result="shape"/>
            <feGaussianBlur stdDeviation="175" result="effect1_foregroundBlur_404_7858"/>
        </filter>
    </defs>
</svg>
