<svg width="416" height="884" viewBox="0 0 416 884" fill="none" xmlns="http://www.w3.org/2000/svg">
    <g opacity="0.1">
        <path d="M41 573C15.63 573 -9.7191 563.353 -29.0377 544.037C-67.6541 505.427 -67.6541 442.615 -29.0377 404.005C-10.3222 385.292 14.5487 375 41 375C67.4513 375 92.3222 385.292 111.038 404.005C149.654 442.615 149.654 505.427 111.038 544.037C91.7399 563.332 66.37 573 41 573ZM-23.8389 538.839C11.9078 574.58 70.0714 574.58 105.818 538.839C141.565 503.098 141.565 444.944 105.818 409.202C88.4958 391.883 65.4758 382.36 40.9792 382.36C16.4826 382.36 -6.53748 391.904 -23.8598 409.202C-59.6064 444.944 -59.6064 503.098 -23.8598 538.839H-23.8389Z" fill="#9DADF2"/>
        <path fill-rule="evenodd" clip-rule="evenodd" d="M40.9762 394.503C62.2288 394.503 82.2128 402.757 97.2268 417.789C128.232 448.811 128.232 499.272 97.2268 530.273C81.7137 545.763 61.3554 553.518 40.9762 553.518C20.5971 553.518 0.238781 545.783 -15.2743 530.273C-46.2797 499.251 -46.2797 448.79 -15.2743 417.789C-0.239506 402.778 19.7237 394.503 40.9762 394.503ZM16.1624 438.551C13.6473 442.323 15.4289 447.511 19.6208 449.292C22.8171 450.602 26.6422 449.659 28.4761 446.672C30.9389 442.847 34.9212 439.651 41.0518 439.651C54.5707 439.651 57.243 452.279 52.4747 459.039C50.4697 461.906 47.8215 464.349 45.1441 466.818C41.804 469.898 38.4182 473.021 36.1787 477.064C34.7116 479.684 34.0828 482.461 33.7684 485.133C33.2444 489.692 36.9647 493.622 41.5234 493.622C45.4009 493.622 48.5448 490.635 49.0164 486.81C49.3308 484.452 49.8024 483.299 50.5884 481.884C52.1642 478.987 54.3934 476.829 56.9889 474.317C59.7444 471.65 62.9129 468.583 66.1508 463.807C71.8098 455.423 69.6615 444.157 65.9936 438.131C61.6969 431.11 53.2607 425.503 40.947 425.503C29.7337 425.503 21.2451 431.005 16.1624 438.551ZM40.9994 525.061C46.7633 525.061 51.4791 520.345 51.4791 514.581C51.4791 508.817 46.7633 504.101 40.9994 504.101C35.2356 504.101 30.5197 508.817 30.5197 514.581C30.5197 520.345 35.2356 525.061 40.9994 525.061Z" fill="#9DADF2"/>
    </g>
    <g opacity="0.1">
        <path d="M197.5 687C182.765 687 168.042 681.397 156.822 670.178C134.393 647.753 134.393 611.271 156.822 588.846C167.692 577.978 182.137 572 197.5 572C212.863 572 227.308 577.978 238.178 588.846C260.607 611.271 260.607 647.753 238.178 670.178C226.97 681.385 212.235 687 197.5 687ZM159.841 667.159C180.603 687.918 214.385 687.918 235.147 667.159C255.909 646.4 255.909 612.624 235.147 591.865C225.086 581.806 211.716 576.275 197.488 576.275C183.26 576.275 169.89 581.818 159.829 591.865C139.067 612.624 139.067 646.4 159.829 667.159H159.841Z" fill="#7DDACF"/>
        <path d="M196.739 651.037C196.944 651.533 197.427 651.822 197.934 651.822C198.104 651.822 198.273 651.786 198.442 651.726C202.5 650.023 206.196 647.39 209.119 644.106C209.59 643.574 209.541 642.753 209.01 642.282C208.479 641.811 207.657 641.86 207.186 642.391C204.517 645.398 201.147 647.801 197.439 649.347C196.787 649.625 196.473 650.385 196.751 651.037H196.739Z" fill="#7DDACF"/>
        <path d="M219.421 609.628L197.971 601.054C197.657 600.934 197.319 600.934 197.005 601.054L175.554 609.628C175.059 609.822 174.745 610.293 174.745 610.824V626.185C174.769 640.362 183.731 653.175 197.041 658.053C197.186 658.102 197.331 658.126 197.488 658.126C197.645 658.126 197.79 658.102 197.935 658.053C211.245 653.163 220.206 640.362 220.231 626.185V610.824C220.231 610.293 219.917 609.822 219.421 609.628ZM217.646 626.185C217.622 639.082 209.53 650.832 197.5 655.457C185.47 650.832 177.366 639.082 177.342 626.185V611.706L197.5 603.651L217.646 611.706V626.185Z" fill="#7DDACF"/>
        <path d="M188.536 611.645C188.222 611.512 187.871 611.512 187.545 611.645L182.436 613.686C181.941 613.879 181.627 614.35 181.627 614.881V620.328C181.627 621.04 182.207 621.62 182.919 621.62C183.632 621.62 184.212 621.04 184.212 620.328V615.763L188.499 614.048C188.825 613.915 189.067 613.674 189.212 613.348C189.345 613.034 189.345 612.684 189.212 612.357C189.079 612.031 188.838 611.79 188.523 611.645H188.536Z" fill="#7DDACF"/>
        <path d="M230.157 596.852C221.437 588.121 209.83 583.327 197.487 583.327C185.143 583.327 173.548 588.133 164.816 596.852C146.808 614.858 146.808 644.166 164.816 662.184C173.826 671.192 185.65 675.685 197.487 675.685C209.323 675.685 221.147 671.18 230.157 662.184C248.165 644.178 248.165 614.87 230.157 596.852ZM223.768 626.185C223.804 642.572 213.333 656.906 197.716 661.87C197.571 661.918 197.414 661.918 197.257 661.87C181.64 656.906 171.169 642.572 171.205 626.185V608.059C171.205 607.757 171.386 607.479 171.676 607.358L197.209 597.154C197.293 597.118 197.39 597.106 197.487 597.106C197.583 597.106 197.68 597.118 197.764 597.154L223.297 607.371C223.587 607.479 223.768 607.757 223.768 608.071V626.197V626.185Z" fill="#7DDACF"/>
    </g>
    <g opacity="0.1">
        <path d="M119 791C108.75 791 98.5074 787.102 90.7019 779.298C75.0994 763.698 75.0994 738.319 90.7019 722.719C98.2638 715.158 108.313 711 119 711C129.687 711 139.736 715.158 147.298 722.719C162.901 738.319 162.901 763.698 147.298 779.298C139.501 787.094 129.25 791 119 791ZM92.8025 777.198C107.246 791.638 130.746 791.638 145.189 777.198C159.632 762.757 159.632 739.26 145.189 724.819C138.19 717.821 128.889 713.974 118.992 713.974C109.094 713.974 99.7929 717.83 92.794 724.819C78.3509 739.26 78.3509 762.757 92.794 777.198H92.8025Z" fill="#478BF9"/>
        <path fill-rule="evenodd" clip-rule="evenodd" d="M118.99 718.88C127.577 718.88 135.652 722.215 141.718 728.289C154.245 740.823 154.245 761.211 141.718 773.737C135.45 779.995 127.224 783.129 118.99 783.129C110.756 783.129 102.531 780.003 96.2629 773.737C83.7354 761.203 83.7354 740.814 96.2629 728.289C102.338 722.223 110.404 718.88 118.99 718.88ZM108.966 736.677C107.949 738.202 108.669 740.298 110.363 741.017C111.654 741.547 113.2 741.166 113.941 739.959C114.936 738.413 116.545 737.122 119.022 737.122C124.484 737.122 125.564 742.224 123.637 744.955C122.827 746.114 121.757 747.101 120.675 748.098C119.326 749.343 117.958 750.605 117.053 752.238C116.46 753.297 116.206 754.419 116.079 755.499C115.867 757.34 117.37 758.928 119.212 758.928C120.779 758.928 122.049 757.722 122.24 756.176C122.367 755.223 122.557 754.758 122.875 754.186C123.512 753.015 124.412 752.143 125.461 751.128C126.574 750.051 127.855 748.812 129.163 746.882C131.449 743.495 130.581 738.943 129.099 736.508C127.363 733.671 123.955 731.406 118.98 731.406C114.449 731.406 111.019 733.629 108.966 736.677ZM119.001 771.631C121.33 771.631 123.235 769.726 123.235 767.397C123.235 765.068 121.33 763.163 119.001 763.163C116.672 763.163 114.766 765.068 114.766 767.397C114.766 769.726 116.672 771.631 119.001 771.631Z" fill="#478BF9"/>
    </g>
    <g opacity="0.5" filter="url(#filter0_f_404_7858)">
        <ellipse cx="-27.6304" cy="441.667" rx="80.545" ry="184.078" transform="rotate(45.349 -27.6304 441.667)" fill="#478BF9"/>
    </g>
    <defs>
        <filter id="filter0_f_404_7858" x="-470.331" y="0.142578" width="885.4" height="883.049" filterUnits="userSpaceOnUse" color-interpolation-filters="sRGB">
            <feFlood flood-opacity="0" result="BackgroundImageFix"/>
            <feBlend mode="normal" in="SourceGraphic" in2="BackgroundImageFix" result="shape"/>
            <feGaussianBlur stdDeviation="150" result="effect1_foregroundBlur_404_7858"/>
        </filter>
    </defs>
</svg>
