<svg width="1760" height="1069" viewBox="0 0 1760 1069" fill="none" xmlns="http://www.w3.org/2000/svg">
<g opacity="0.3">
<path d="M1633.65 1037.41C1604.78 1008.54 1604.78 961.574 1633.65 932.707C1662.52 903.84 1709.48 903.84 1738.35 932.707C1767.22 961.574 1767.22 1008.54 1738.35 1037.41C1709.48 1066.27 1662.52 1066.27 1633.65 1037.41ZM1734.86 936.196C1707.92 909.252 1664.08 909.252 1637.15 936.196C1610.2 963.14 1610.2 1006.97 1637.15 1033.91C1664.09 1060.85 1707.92 1060.85 1734.86 1033.91C1761.8 1006.97 1761.8 963.133 1734.86 936.196Z" fill="#E3E3E3"/>
<path d="M1735.67 969.352C1735.41 969.093 1735.2 968.763 1735.08 968.398C1732.51 960.816 1728.33 954.098 1722.64 948.411C1716.96 942.732 1710.24 938.548 1702.66 935.978C1701.65 935.634 1700.98 934.701 1700.98 933.641V915.648C1700.98 914.89 1701.33 914.174 1701.93 913.703C1702.53 913.233 1703.31 913.071 1704.04 913.254C1717 916.497 1728.86 923.223 1738.34 932.707C1747.82 942.191 1754.54 954.048 1757.79 967.008C1757.97 967.745 1757.8 968.524 1757.34 969.128C1756.87 969.732 1756.15 970.076 1755.39 970.076H1737.4C1736.73 970.076 1736.11 969.802 1735.65 969.345L1735.67 969.352ZM1726.13 944.922C1731.93 950.721 1736.3 957.516 1739.15 965.14H1752.17C1748.9 954.245 1742.95 944.29 1734.86 936.196C1726.76 928.102 1716.81 922.156 1705.92 918.891V931.907C1713.54 934.75 1720.34 939.123 1726.14 944.929L1726.13 944.922Z" fill="#E3E3E3"/>
<path d="M1633.65 1037.41C1624.18 1027.93 1617.44 1016.07 1614.2 1003.11C1614.02 1002.37 1614.19 1001.59 1614.65 1000.99C1615.12 1000.39 1615.84 1000.04 1616.59 1000.04H1634.59C1635.65 1000.04 1636.59 1000.72 1636.93 1001.72C1639.49 1009.3 1643.67 1016.02 1649.36 1021.71C1655.04 1027.39 1661.76 1031.57 1669.34 1034.14C1670.35 1034.48 1671.02 1035.42 1671.02 1036.48V1054.47C1671.02 1055.23 1670.67 1055.95 1670.07 1056.42C1669.47 1056.89 1668.69 1057.05 1667.95 1056.87C1655 1053.62 1643.14 1046.9 1633.65 1037.42V1037.41ZM1619.83 1004.97C1623.1 1015.87 1629.05 1025.82 1637.14 1033.92C1645.24 1042.01 1655.19 1047.96 1666.09 1051.23V1038.21C1658.46 1035.37 1651.67 1031 1645.87 1025.2C1640.07 1019.4 1635.7 1012.6 1632.85 1004.98H1619.83V1004.97Z" fill="#E3E3E3"/>
<path d="M1701.71 1056.21C1701.24 1055.74 1700.98 1055.12 1700.98 1054.46V1036.47C1700.98 1035.41 1701.66 1034.47 1702.66 1034.13C1710.24 1031.57 1716.96 1027.38 1722.65 1021.7C1728.33 1016.01 1732.51 1009.29 1735.08 1001.71C1735.42 1000.71 1736.36 1000.03 1737.42 1000.03H1755.41C1756.17 1000.03 1756.88 1000.38 1757.35 1000.98C1757.83 1001.58 1757.99 1002.36 1757.8 1003.09C1754.55 1016.05 1747.83 1027.91 1738.35 1037.39C1728.87 1046.88 1717.01 1053.6 1704.05 1056.85C1703.31 1057.03 1702.53 1056.86 1701.94 1056.4C1701.86 1056.33 1701.78 1056.26 1701.71 1056.19L1701.71 1056.21ZM1705.92 1038.21V1051.22C1716.81 1047.95 1726.77 1042.01 1734.86 1033.91C1742.96 1025.82 1748.9 1015.86 1752.17 1004.97H1739.16C1736.32 1012.59 1731.94 1019.38 1726.14 1025.18C1720.34 1030.98 1713.54 1035.36 1705.92 1038.21Z" fill="#E3E3E3"/>
<path d="M1614.84 969.353C1614.77 969.282 1614.7 969.205 1614.65 969.128C1614.18 968.531 1614.02 967.745 1614.2 967.008C1617.44 954.049 1624.17 942.184 1633.65 932.707C1643.14 923.23 1654.99 916.497 1667.95 913.254C1668.69 913.072 1669.47 913.24 1670.07 913.703C1670.66 914.174 1671.01 914.89 1671.01 915.648V933.641C1671.01 934.701 1670.34 935.642 1669.34 935.979C1661.75 938.541 1655.03 942.725 1649.35 948.411C1643.67 954.091 1639.49 960.816 1636.92 968.398C1636.58 969.402 1635.64 970.076 1634.58 970.076H1616.59C1615.93 970.076 1615.29 969.816 1614.84 969.36L1614.84 969.353ZM1666.08 918.891C1655.18 922.163 1645.23 928.109 1637.13 936.203C1629.04 944.297 1623.1 954.252 1619.82 965.147H1632.84C1635.68 957.524 1640.05 950.735 1645.86 944.929C1651.66 939.131 1658.45 934.757 1666.08 931.907V918.891Z" fill="#E3E3E3"/>
<path d="M1726.13 944.923C1704.01 922.795 1667.99 922.788 1645.86 944.923C1623.73 967.057 1623.74 1003.06 1645.86 1025.19C1667.99 1047.32 1704 1047.33 1726.13 1025.19C1748.27 1003.06 1748.26 967.05 1726.13 944.923Z" fill="#E3E3E3"/>
<path d="M1706.46 1005.32L1665.69 1005.59C1663.97 1005.6 1662.59 1007 1662.6 1008.72L1662.61 1010.17C1662.62 1011.89 1664.02 1013.27 1665.74 1013.26L1706.51 1012.99C1708.23 1012.98 1709.61 1011.58 1709.6 1009.86L1709.59 1008.4C1709.58 1006.69 1708.18 1005.3 1706.46 1005.32Z" fill="#110A1D"/>
<path d="M1671.25 980.705C1670.81 980.705 1670.36 980.607 1669.95 980.41L1666.77 978.873C1665.39 978.199 1664.76 976.563 1665.33 975.138L1666.79 971.501C1667.24 970.392 1668.3 969.669 1669.49 969.662C1670.01 969.662 1670.51 969.788 1670.96 970.048L1674.75 972.21C1675.46 972.611 1675.97 973.306 1676.16 974.106C1676.34 974.906 1676.18 975.749 1675.71 976.423L1673.64 979.434C1673.1 980.22 1672.2 980.698 1671.24 980.698L1671.25 980.705Z" fill="#110A1D"/>
<path d="M1700.6 980.507C1699.64 980.507 1698.74 980.051 1698.19 979.272L1696.13 976.372C1695.66 975.705 1695.49 974.863 1695.66 974.063C1695.82 973.262 1696.33 972.56 1697.04 972.146L1700.95 969.851C1701.39 969.591 1701.9 969.45 1702.41 969.443C1703.6 969.436 1704.68 970.145 1705.14 971.248L1706.61 974.779C1707.2 976.197 1706.59 977.847 1705.22 978.535L1701.9 980.198C1701.5 980.395 1701.05 980.507 1700.6 980.507H1700.6Z" fill="#110A1D"/>
<path d="M1668.04 1002.86C1666.25 1002.87 1664.65 1001.75 1664.04 1000.07L1657.23 981.343C1656.8 981.554 1656.33 981.715 1655.86 981.835C1655.31 981.975 1654.75 982.045 1654.18 982.045C1653.85 982.045 1653.53 982.031 1653.21 981.989C1649.67 981.54 1646.98 978.5 1646.96 974.92C1646.93 970.96 1650.13 967.717 1654.09 967.689C1658.05 967.661 1661.29 970.862 1661.31 974.821C1661.31 975.734 1661.16 976.611 1660.83 977.433C1660.66 977.882 1660.44 978.31 1660.19 978.718L1673.13 984.98L1683.03 970.637C1682.61 970.462 1682.21 970.244 1681.83 969.984C1681.12 969.5 1680.49 968.896 1679.99 968.187C1679.13 966.98 1678.67 965.555 1678.66 964.08C1678.63 960.121 1681.83 956.878 1685.79 956.85C1685.97 956.85 1686.15 956.85 1686.32 956.864C1689.87 957.102 1692.73 959.946 1692.99 963.491C1693.11 965.169 1692.67 966.776 1691.72 968.145C1691.21 968.861 1690.59 969.472 1689.88 969.956C1689.51 970.216 1689.11 970.434 1688.7 970.609L1698.77 984.804L1711.5 978.437C1711.26 977.98 1711.07 977.503 1710.93 977.005C1710.76 976.401 1710.67 975.769 1710.67 975.13C1710.67 974.842 1710.68 974.555 1710.71 974.274C1711.12 970.665 1714.17 967.927 1717.8 967.906C1721.76 967.878 1725 971.08 1725.02 975.039C1725.05 978.816 1722.11 981.989 1718.34 982.249L1717.89 982.263C1717.16 982.263 1716.45 982.164 1715.75 981.954C1715.3 981.813 1714.87 981.638 1714.46 981.413L1708.07 999.771C1707.49 1001.46 1705.89 1002.6 1704.1 1002.61L1668.04 1002.85V1002.86Z" fill="#110A1D"/>
<path d="M1760 805.63V982.37C1760 983.831 1758.81 985 1757.35 985C1755.89 985 1754.7 983.816 1754.7 982.37V805.63C1754.7 804.169 1755.89 803 1757.35 803C1758.81 803 1760 804.184 1760 805.63Z" fill="#E3E3E3"/>
<path d="M1617.3 805.63V982.37C1617.3 983.831 1616.11 985 1614.65 985C1613.19 985 1612 983.816 1612 982.37V805.63C1612 804.169 1613.19 803 1614.65 803C1616.11 803 1617.3 804.184 1617.3 805.63Z" fill="#E3E3E3"/>
<path d="M1759.97 804.984C1759.97 806.461 1758.77 807.642 1757.31 807.642C1755.85 807.642 1754.65 806.445 1754.65 804.984C1754.65 767.13 1723.85 736.33 1686 736.33C1648.15 736.33 1617.35 767.13 1617.35 804.984C1617.35 806.461 1616.15 807.642 1614.69 807.642C1613.23 807.642 1612.03 806.445 1612.03 804.984C1612.03 764.193 1645.22 731 1686.02 731C1726.81 731 1760 764.193 1760 804.984H1759.97Z" fill="#E3E3E3"/>
<path d="M1686 691C1645.19 691 1612 657.793 1612 617C1612 576.207 1645.21 543 1686 543C1726.79 543 1760 576.207 1760 617C1760 657.793 1726.79 691 1686 691ZM1686 547.928C1647.91 547.928 1616.93 578.912 1616.93 617C1616.93 655.088 1647.91 686.072 1686 686.072C1724.09 686.072 1755.07 655.088 1755.07 617C1755.07 578.912 1724.09 547.928 1686 547.928Z" fill="#7DDACF"/>
<path d="M1734.27 564.206L1711.37 587.115L1715.87 591.622L1738.78 568.713L1734.27 564.206Z" fill="#7DDACF"/>
<path d="M1655.42 643.056L1632.51 665.965L1637.02 670.472L1659.93 647.563L1655.42 643.056Z" fill="#7DDACF"/>
<path d="M1716.57 643.078L1712.06 647.585L1734.97 670.494L1739.48 665.987L1716.57 643.078Z" fill="#7DDACF"/>
<path d="M1637.01 563.517L1632.51 568.024L1655.41 590.922L1659.91 586.415L1637.01 563.517Z" fill="#7DDACF"/>
<path d="M1704.05 618.989C1705.54 617.497 1705.54 615.087 1704.05 613.61L1700.88 610.455C1699.39 608.962 1696.98 608.962 1695.5 610.455L1693.79 612.165L1691.82 610.19C1690.32 608.698 1687.91 608.698 1686.44 610.19L1684.73 611.916L1682.75 609.926C1681.26 608.434 1678.85 608.434 1677.37 609.926L1666.88 620.42C1666.8 620.497 1666.8 620.622 1666.88 620.715C1668.28 622.114 1670.57 622.114 1671.98 620.715L1678.74 613.952C1679.47 613.222 1680.65 613.222 1681.39 613.952L1681.88 614.45C1681.98 614.543 1681.98 614.683 1681.88 614.776L1676.24 620.42C1676.16 620.497 1676.16 620.622 1676.24 620.715C1677.64 622.114 1679.92 622.114 1681.34 620.715L1687.82 614.232C1688.55 613.502 1689.73 613.502 1690.46 614.232L1690.96 614.73C1691.04 614.808 1691.04 614.932 1690.96 615.025L1685.52 620.466C1685.44 620.544 1685.44 620.668 1685.52 620.762C1686.92 622.161 1689.2 622.161 1690.62 620.762L1696.88 614.497C1697.62 613.766 1698.8 613.766 1699.53 614.497L1700.6 615.569C1701.02 615.989 1701.02 616.689 1700.6 617.108L1700.43 617.279C1700.01 617.699 1699.31 617.699 1698.89 617.279L1697.51 615.896C1697.43 615.818 1697.3 615.818 1697.21 615.896L1694.82 618.29C1694.74 618.368 1694.74 618.492 1694.82 618.585L1696.98 620.746C1698.47 622.239 1700.88 622.239 1702.36 620.746L1704.07 619.036L1704.05 618.989Z" fill="#7DDACF"/>
<path d="M1686 560.256C1654.66 560.256 1629.26 585.658 1629.26 617C1629.26 648.341 1654.66 673.743 1686 673.743C1717.34 673.743 1742.75 648.341 1742.75 617C1742.75 585.658 1717.34 560.256 1686 560.256ZM1688.32 577.776C1697.43 578.305 1705.7 581.943 1712.11 587.633L1703.91 595.826C1699.64 592.203 1694.24 589.856 1688.32 589.358V577.776ZM1683.7 577.776V589.358C1677.78 589.84 1672.38 592.203 1668.11 595.826L1659.92 587.633C1666.32 581.943 1674.59 578.305 1683.7 577.776ZM1656.65 590.897L1664.84 599.09C1661.22 603.366 1658.88 608.76 1658.38 614.683H1646.8C1647.32 605.573 1650.96 597.303 1656.65 590.897ZM1646.8 619.3H1658.38C1658.86 625.224 1661.22 630.618 1664.84 634.893L1656.65 643.086C1650.96 636.681 1647.32 628.411 1646.8 619.3ZM1683.7 656.207C1674.59 655.679 1666.32 652.041 1659.92 646.351L1668.11 638.158C1672.38 641.78 1677.78 644.128 1683.7 644.625V656.207ZM1662.16 616.984C1662.16 603.816 1672.84 593.136 1686 593.136C1699.17 593.136 1709.85 603.816 1709.85 616.984C1709.85 630.152 1699.17 640.832 1686 640.832C1672.84 640.832 1662.16 630.152 1662.16 616.984ZM1688.32 656.207V644.625C1694.24 644.143 1699.64 641.78 1703.91 638.158L1712.11 646.351C1705.7 652.041 1697.43 655.679 1688.32 656.207ZM1715.37 643.086L1707.18 634.893C1710.8 630.618 1713.15 625.224 1713.64 619.3H1725.23C1724.7 628.411 1721.06 636.681 1715.37 643.086ZM1713.64 614.683C1713.16 608.76 1710.8 603.366 1707.18 599.09L1715.37 590.897C1721.06 597.303 1724.7 605.573 1725.23 614.683H1713.64Z" fill="#7DDACF"/>
<path d="M1686 503C1667.04 503 1648.09 495.789 1633.65 481.351C1604.78 452.491 1604.78 405.54 1633.65 376.68C1647.64 362.693 1666.23 355 1686 355C1705.77 355 1724.36 362.693 1738.35 376.68C1767.22 405.54 1767.22 452.491 1738.35 481.351C1723.93 495.773 1704.96 503 1686 503ZM1637.53 477.466C1664.25 504.181 1707.73 504.181 1734.45 477.466C1761.17 450.75 1761.17 407.281 1734.45 380.565C1721.5 367.62 1704.29 360.502 1685.98 360.502C1667.67 360.502 1650.47 367.635 1637.52 380.565C1610.8 407.281 1610.8 450.75 1637.52 477.466H1637.53Z" fill="#9DADF2"/>
<path d="M1685.02 456.702C1685.28 457.339 1685.91 457.712 1686.56 457.712C1686.78 457.712 1686.99 457.665 1687.21 457.588C1692.43 455.396 1697.19 452.008 1700.95 447.781C1701.56 447.097 1701.5 446.04 1700.81 445.434C1700.13 444.828 1699.07 444.89 1698.46 445.574C1695.03 449.444 1690.69 452.537 1685.92 454.526C1685.08 454.883 1684.68 455.863 1685.03 456.702H1685.02Z" fill="#9DADF2"/>
<path d="M1714.21 403.427L1686.61 392.393C1686.2 392.238 1685.77 392.238 1685.36 392.393L1657.76 403.427C1657.12 403.676 1656.71 404.282 1656.71 404.966V424.734C1656.75 442.98 1668.28 459.469 1685.41 465.748C1685.6 465.81 1685.78 465.841 1685.98 465.841C1686.19 465.841 1686.37 465.81 1686.56 465.748C1703.69 459.454 1715.22 442.98 1715.25 424.734V404.966C1715.25 404.282 1714.85 403.676 1714.21 403.427ZM1711.93 424.734C1711.9 441.333 1701.48 456.454 1686 462.407C1670.52 456.454 1660.09 441.333 1660.06 424.734V406.1L1686 395.734L1711.93 406.1V424.734Z" fill="#9DADF2"/>
<path d="M1674.46 406.023C1674.06 405.852 1673.61 405.852 1673.19 406.023L1666.61 408.649C1665.98 408.898 1665.57 409.504 1665.57 410.188V417.197C1665.57 418.114 1666.32 418.86 1667.24 418.86C1668.15 418.86 1668.9 418.114 1668.9 417.197V411.322L1674.42 409.116C1674.84 408.945 1675.15 408.634 1675.33 408.214C1675.5 407.81 1675.5 407.359 1675.33 406.94C1675.16 406.52 1674.85 406.209 1674.45 406.023H1674.46Z" fill="#9DADF2"/>
<path d="M1728.03 386.983C1716.81 375.747 1701.87 369.577 1685.98 369.577C1670.1 369.577 1655.17 375.763 1643.94 386.983C1620.76 410.156 1620.76 447.874 1643.94 471.062C1655.53 482.656 1670.75 488.437 1685.98 488.437C1701.22 488.437 1716.43 482.64 1728.03 471.062C1751.2 447.89 1751.2 410.171 1728.03 386.983ZM1719.81 424.733C1719.85 445.823 1706.38 464.27 1686.28 470.658C1686.09 470.72 1685.89 470.72 1685.69 470.658C1665.59 464.27 1652.11 445.823 1652.16 424.733V401.406C1652.16 401.017 1652.39 400.66 1652.77 400.504L1685.62 387.372C1685.73 387.325 1685.86 387.31 1685.98 387.31C1686.11 387.31 1686.23 387.325 1686.34 387.372L1719.2 400.52C1719.57 400.66 1719.81 401.017 1719.81 401.421V424.749V424.733Z" fill="#9DADF2"/>
<path d="M1686 127C1667.04 127 1648.09 119.789 1633.65 105.351C1604.78 76.4907 1604.78 29.5404 1633.65 0.680166C1647.64 -13.307 1666.23 -21 1686 -21C1705.77 -21 1724.36 -13.307 1738.35 0.680166C1767.22 29.5404 1767.22 76.4907 1738.35 105.351C1723.93 119.773 1704.96 127 1686 127ZM1637.53 101.466C1664.25 128.181 1707.73 128.181 1734.45 101.466C1761.17 74.7501 1761.17 31.281 1734.45 4.5655C1721.5 -8.38043 1704.29 -15.4983 1685.98 -15.4983C1667.67 -15.4983 1650.47 -8.36488 1637.52 4.5655C1610.8 31.281 1610.8 74.7501 1637.52 101.466H1637.53Z" fill="#9DADF2"/>
<path d="M1685.02 80.7184C1685.28 81.3556 1685.91 81.7286 1686.56 81.7286C1686.78 81.7286 1686.99 81.6819 1687.21 81.6042C1692.43 79.4129 1697.19 76.0249 1700.95 71.7977C1701.56 71.1138 1701.5 70.057 1700.81 69.4509C1700.13 68.8448 1699.07 68.907 1698.46 69.5908C1695.03 73.4606 1690.69 76.5533 1685.92 78.5426C1685.08 78.9 1684.68 79.8791 1685.03 80.7184H1685.02Z" fill="#9DADF2"/>
<path d="M1714.21 27.4263L1686.61 16.392C1686.2 16.2365 1685.77 16.2365 1685.36 16.392L1657.76 27.4263C1657.12 27.675 1656.71 28.2811 1656.71 28.9649V48.7334C1656.75 66.979 1668.28 83.4683 1685.41 89.747C1685.6 89.8092 1685.78 89.8403 1685.98 89.8403C1686.19 89.8403 1686.37 89.8092 1686.56 89.747C1703.69 83.4528 1715.22 66.979 1715.25 48.7334V28.9649C1715.25 28.2811 1714.85 27.675 1714.21 27.4263ZM1711.93 48.7334C1711.9 65.3316 1701.48 80.4533 1686 86.4056C1670.52 80.4533 1660.09 65.3316 1660.06 48.7334V30.0994L1686 19.7334L1711.93 30.0994V48.7334Z" fill="#9DADF2"/>
<path d="M1674.46 30.0227C1674.06 29.8518 1673.61 29.8518 1673.19 30.0227L1666.61 32.6492C1665.98 32.8979 1665.57 33.504 1665.57 34.1878V41.197C1665.57 42.1139 1666.32 42.8599 1667.24 42.8599C1668.15 42.8599 1668.9 42.1139 1668.9 41.197V35.3223L1674.42 33.1155C1674.84 32.9445 1675.15 32.6336 1675.33 32.214C1675.5 31.81 1675.5 31.3592 1675.33 30.9396C1675.16 30.52 1674.85 30.2092 1674.45 30.0227H1674.46Z" fill="#9DADF2"/>
<path d="M1728.03 10.9844C1716.81 -0.251951 1701.87 -6.42188 1685.98 -6.42188C1670.1 -6.42188 1655.17 -0.23641 1643.94 10.9844C1620.76 34.1565 1620.76 71.8753 1643.94 95.0629C1655.53 106.657 1670.75 112.438 1685.98 112.438C1701.22 112.438 1716.43 106.641 1728.03 95.0629C1751.2 71.8908 1751.2 34.1721 1728.03 10.9844ZM1719.81 48.7343C1719.85 69.8238 1706.38 88.2714 1686.28 94.6589C1686.09 94.721 1685.89 94.721 1685.69 94.6589C1665.59 88.2714 1652.11 69.8238 1652.16 48.7343V25.4067C1652.16 25.0182 1652.39 24.6608 1652.77 24.5054L1685.62 11.373C1685.73 11.3263 1685.86 11.3108 1685.98 11.3108C1686.11 11.3108 1686.23 11.3263 1686.34 11.373L1719.2 24.521C1719.57 24.6608 1719.81 25.0182 1719.81 25.4223V48.7498V48.7343Z" fill="#9DADF2"/>
<path d="M1685.99 315C1645.19 315 1612 281.797 1612 241.008C1612 200.219 1645.2 167.016 1685.99 167.016C1726.78 167.016 1759.98 200.219 1759.98 241.008C1759.98 281.797 1726.78 315 1685.99 315ZM1685.99 171.943C1647.91 171.943 1616.93 202.924 1616.93 241.008C1616.93 279.092 1647.91 310.073 1685.99 310.073C1724.08 310.073 1755.06 279.092 1755.06 241.008C1755.06 202.924 1724.08 171.943 1685.99 171.943Z" fill="#E3E3E3"/>
<path d="M1709.99 194.794C1709.62 194.794 1709.25 194.716 1708.91 194.545C1701.74 191.001 1694.03 189.198 1685.99 189.198C1677.96 189.198 1670.25 191.001 1663.08 194.545C1662.13 195.011 1661 194.825 1660.25 194.079L1647.54 181.363C1646.99 180.819 1646.74 180.073 1646.84 179.311C1646.93 178.55 1647.36 177.881 1648.02 177.493C1659.47 170.622 1672.61 167 1686.01 167C1699.41 167 1712.54 170.637 1724 177.493C1724.65 177.881 1725.09 178.55 1725.18 179.311C1725.27 180.073 1725.01 180.819 1724.48 181.363L1711.77 194.079C1711.28 194.545 1710.66 194.794 1710.01 194.794H1709.99ZM1685.99 184.27C1694.18 184.27 1702.08 185.98 1709.48 189.353L1718.68 180.151C1708.67 174.757 1697.43 171.928 1685.99 171.928C1674.55 171.928 1663.31 174.757 1653.3 180.151L1662.5 189.353C1669.9 185.98 1677.8 184.27 1685.99 184.27Z" fill="#E3E3E3"/>
<path d="M1685.99 315C1672.59 315 1659.46 311.362 1648 304.507C1647.35 304.118 1646.91 303.45 1646.82 302.688C1646.73 301.926 1646.99 301.18 1647.52 300.636L1660.23 287.921C1660.98 287.175 1662.13 286.988 1663.06 287.454C1670.23 290.999 1677.94 292.802 1685.98 292.802C1694.01 292.802 1701.72 290.999 1708.89 287.454C1709.84 286.988 1710.97 287.175 1711.72 287.921L1724.43 300.636C1724.98 301.18 1725.23 301.926 1725.13 302.688C1725.04 303.45 1724.6 304.118 1723.95 304.507C1712.5 311.378 1699.36 315 1685.96 315H1685.99ZM1653.3 301.849C1663.31 307.243 1674.55 310.072 1685.99 310.072C1697.43 310.072 1708.67 307.243 1718.68 301.849L1709.48 292.646C1702.08 296.02 1694.18 297.729 1685.99 297.729C1677.8 297.729 1669.9 296.02 1662.5 292.646L1653.3 301.849Z" fill="#E3E3E3"/>
<path d="M1747.38 280.181C1746.73 280.181 1746.11 279.932 1745.64 279.465L1732.93 266.75C1732.18 266.004 1731.99 264.854 1732.46 263.921C1736 256.755 1737.81 249.045 1737.81 241.008C1737.81 232.972 1736 225.261 1732.46 218.095C1731.99 217.147 1732.18 215.997 1732.93 215.266L1745.64 202.551C1746.19 202.007 1746.93 201.758 1747.69 201.851C1748.45 201.944 1749.12 202.38 1749.51 203.033C1756.38 214.489 1760 227.624 1760 241.024C1760 254.423 1756.38 267.558 1749.51 279.015C1749.12 279.668 1748.45 280.103 1747.69 280.196C1747.58 280.196 1747.49 280.196 1747.38 280.196V280.181ZM1737.64 264.481L1746.84 273.683C1752.23 263.672 1755.06 252.433 1755.06 240.993C1755.06 229.552 1752.23 218.313 1746.84 208.302L1737.64 217.505C1741.01 224.904 1742.72 232.801 1742.72 240.993C1742.72 249.185 1741.01 257.081 1737.64 264.481Z" fill="#E3E3E3"/>
<path d="M1624.61 280.181C1624.5 280.181 1624.4 280.181 1624.31 280.165C1623.55 280.072 1622.88 279.636 1622.49 278.984C1615.62 267.527 1612 254.392 1612 240.993C1612 227.593 1615.62 214.458 1622.49 203.002C1622.88 202.349 1623.55 201.913 1624.31 201.82C1625.07 201.727 1625.82 201.991 1626.36 202.52L1639.08 215.235C1639.82 215.981 1640.01 217.132 1639.55 218.064C1636 225.23 1634.2 232.941 1634.2 240.977C1634.2 249.014 1636 256.724 1639.55 263.89C1640.01 264.838 1639.82 265.988 1639.08 266.719L1626.36 279.434C1625.9 279.901 1625.28 280.165 1624.62 280.165L1624.61 280.181ZM1625.15 208.302C1619.76 218.313 1616.93 229.552 1616.93 240.993C1616.93 252.433 1619.76 263.672 1625.15 273.683L1634.35 264.481C1630.98 257.081 1629.27 249.185 1629.27 240.993C1629.27 232.801 1630.98 224.904 1634.35 217.505L1625.15 208.302Z" fill="#E3E3E3"/>
<path d="M1685.99 184.27C1654.72 184.27 1629.25 209.716 1629.25 241.007C1629.25 272.299 1654.7 297.745 1685.99 297.745C1717.28 297.745 1742.73 272.299 1742.73 241.007C1742.73 209.716 1717.28 184.27 1685.99 184.27ZM1717.92 222.369C1720.61 226.971 1722.24 231.991 1722.77 237.323C1722.79 237.541 1722.69 237.743 1722.51 237.852C1718.45 240.339 1714.81 243.386 1711.67 246.945C1711.53 247.116 1711.3 247.179 1711.1 247.101L1704.09 244.816C1703.88 244.754 1703.74 244.583 1703.71 244.365C1702.92 238.567 1701.12 233.017 1698.35 227.857C1698.26 227.67 1698.27 227.453 1698.4 227.282L1702.73 221.312C1702.84 221.172 1703.01 221.079 1703.18 221.079C1703.23 221.079 1703.26 221.079 1703.31 221.079C1707.94 222.105 1712.7 222.447 1717.42 222.058C1717.64 222.043 1717.84 222.152 1717.95 222.338L1717.92 222.369ZM1699.89 245.344C1699.9 245.5 1699.86 245.655 1699.76 245.764C1696.08 250.008 1691.39 253.412 1686.21 255.588C1686.07 255.65 1685.93 255.65 1685.79 255.588C1680.61 253.396 1675.92 249.992 1672.23 245.764C1672.14 245.655 1672.09 245.5 1672.11 245.344C1672.83 239.717 1674.58 234.339 1677.3 229.364C1677.38 229.225 1677.5 229.131 1677.66 229.1C1680.4 228.525 1683.19 228.23 1686.01 228.23C1688.82 228.23 1691.62 228.525 1694.35 229.1C1694.51 229.131 1694.63 229.225 1694.71 229.364C1697.43 234.339 1699.17 239.717 1699.9 245.344H1699.89ZM1699.05 206.763C1699.05 206.763 1699.24 206.607 1699.42 206.607C1699.48 206.607 1699.56 206.607 1699.64 206.654C1705.36 208.923 1710.47 212.654 1714.45 217.426C1714.66 217.659 1714.58 217.908 1714.53 218.001C1714.5 218.079 1714.36 218.328 1714.03 218.328C1710.51 218.374 1706.99 217.97 1703.59 217.162C1703.45 217.131 1703.32 217.038 1703.25 216.913C1701.43 213.913 1699.97 210.68 1698.91 207.322C1698.82 207.027 1698.99 206.825 1699.06 206.763H1699.05ZM1678.14 204.897C1683.29 203.794 1688.71 203.794 1693.86 204.897C1694.06 204.944 1694.23 205.099 1694.28 205.301C1695.38 209.918 1697.17 214.333 1699.58 218.421C1699.69 218.608 1699.67 218.841 1699.55 219.027L1695.24 224.965C1695.12 225.136 1694.9 225.23 1694.7 225.183C1689.01 224.033 1682.99 224.033 1677.3 225.183C1677.1 225.23 1676.88 225.136 1676.76 224.965L1672.45 219.027C1672.33 218.856 1672.31 218.608 1672.42 218.421C1674.83 214.333 1676.62 209.918 1677.72 205.301C1677.77 205.099 1677.94 204.944 1678.14 204.897ZM1657.55 217.426C1661.52 212.638 1666.64 208.908 1672.36 206.654C1672.44 206.623 1672.51 206.607 1672.58 206.607C1672.78 206.607 1672.9 206.716 1672.95 206.763C1673.03 206.84 1673.2 207.027 1673.11 207.322C1672.05 210.695 1670.59 213.913 1668.77 216.913C1668.69 217.038 1668.57 217.131 1668.43 217.162C1665.02 217.97 1661.51 218.374 1657.98 218.328C1657.65 218.328 1657.51 218.079 1657.48 218.001C1657.44 217.908 1657.36 217.659 1657.56 217.426H1657.55ZM1654.08 222.369C1654.17 222.198 1654.36 222.09 1654.56 222.09C1654.56 222.09 1654.59 222.09 1654.61 222.09C1659.35 222.463 1664.1 222.136 1668.72 221.11C1668.94 221.064 1669.16 221.141 1669.28 221.328L1673.62 227.297C1673.74 227.468 1673.76 227.701 1673.66 227.872C1670.9 233.033 1669.09 238.582 1668.3 244.381C1668.27 244.583 1668.13 244.754 1667.93 244.831L1660.92 247.116C1660.72 247.179 1660.48 247.116 1660.34 246.961C1657.2 243.401 1653.57 240.355 1649.51 237.867C1649.34 237.759 1649.23 237.556 1649.24 237.339C1649.77 232.007 1651.4 226.971 1654.09 222.385L1654.08 222.369ZM1655.77 260.671C1655.68 260.967 1655.42 261.029 1655.31 261.044C1655.2 261.044 1654.95 261.044 1654.78 260.796C1651.47 255.588 1649.51 249.557 1649.12 243.37C1649.1 243.059 1649.31 242.904 1649.4 242.857C1649.49 242.811 1649.74 242.702 1649.99 242.888C1652.87 244.925 1655.48 247.318 1657.76 249.977C1657.86 250.085 1657.9 250.225 1657.89 250.381C1657.61 253.878 1656.89 257.345 1655.76 260.687L1655.77 260.671ZM1671.13 274.864C1666.28 272.734 1662.01 269.609 1658.43 265.599C1658.29 265.443 1658.24 265.21 1658.32 265.024C1660.14 260.64 1661.29 256.023 1661.74 251.298C1661.76 251.08 1661.91 250.894 1662.12 250.832L1669.05 248.578C1669.05 248.578 1669.16 248.547 1669.22 248.547C1669.37 248.547 1669.51 248.609 1669.62 248.733C1673.51 253.086 1678.37 256.63 1683.71 258.977C1683.91 259.07 1684.03 259.257 1684.03 259.474V266.765C1684.03 266.982 1683.91 267.184 1683.71 267.262C1679.35 269.143 1675.31 271.677 1671.69 274.77C1671.54 274.91 1671.3 274.941 1671.12 274.848L1671.13 274.864ZM1695.58 276.402C1695.57 276.511 1695.49 276.76 1695.18 276.838C1689.18 278.361 1682.84 278.361 1676.84 276.838C1676.54 276.76 1676.45 276.511 1676.43 276.402C1676.42 276.294 1676.39 276.045 1676.65 275.843C1679.48 273.744 1682.56 271.988 1685.81 270.635C1685.95 270.573 1686.08 270.573 1686.22 270.635C1689.46 271.988 1692.54 273.744 1695.38 275.843C1695.63 276.029 1695.61 276.294 1695.6 276.402H1695.58ZM1713.6 265.614C1710.02 269.625 1705.75 272.734 1700.9 274.864C1700.7 274.957 1700.48 274.91 1700.32 274.786C1696.7 271.692 1692.68 269.159 1688.31 267.278C1688.11 267.185 1687.98 266.998 1687.98 266.78V259.49C1687.98 259.272 1688.11 259.07 1688.31 258.992C1693.64 256.645 1698.52 253.101 1702.39 248.749C1702.5 248.624 1702.64 248.562 1702.8 248.562C1702.86 248.562 1702.9 248.562 1702.97 248.593L1709.9 250.847C1710.1 250.909 1710.26 251.096 1710.27 251.313C1710.72 256.039 1711.87 260.64 1713.69 265.039C1713.77 265.226 1713.74 265.459 1713.58 265.614H1713.6ZM1717.24 260.811C1717.07 261.075 1716.8 261.075 1716.71 261.06C1716.6 261.06 1716.35 260.982 1716.24 260.687C1715.12 257.345 1714.41 253.878 1714.11 250.381C1714.11 250.241 1714.14 250.085 1714.24 249.977C1716.52 247.318 1719.13 244.94 1722.01 242.888C1722.12 242.811 1722.23 242.779 1722.32 242.779C1722.44 242.779 1722.54 242.826 1722.6 242.857C1722.69 242.904 1722.91 243.059 1722.88 243.37C1722.49 249.557 1720.53 255.588 1717.22 260.796L1717.24 260.811Z" fill="#E3E3E3"/>
</g>
<g opacity="0.1">
<path d="M1510 812C1491.04 812 1472.09 804.789 1457.65 790.351C1428.78 761.491 1428.78 714.54 1457.65 685.68C1471.64 671.693 1490.23 664 1510 664C1529.77 664 1548.36 671.693 1562.35 685.68C1591.22 714.54 1591.22 761.491 1562.35 790.351C1547.93 804.773 1528.96 812 1510 812ZM1461.53 786.466C1488.25 813.181 1531.73 813.181 1558.45 786.466C1585.17 759.75 1585.17 716.281 1558.45 689.565C1545.5 676.62 1528.29 669.502 1509.98 669.502C1491.67 669.502 1474.47 676.635 1461.52 689.565C1434.8 716.281 1434.8 759.75 1461.52 786.466H1461.53Z" fill="#E3E3E3"/>
<path d="M1512.74 722.436L1499.03 741.645H1507.25V755.352L1520.96 736.158H1512.74V722.436Z" fill="#E3E3E3"/>
<path d="M1509.99 711.759C1494.97 711.759 1482.79 723.943 1482.79 738.956C1482.79 753.969 1494.97 766.122 1509.99 766.122C1525 766.122 1537.19 753.938 1537.19 738.956C1537.19 723.974 1525 711.759 1509.99 711.759ZM1509.99 762.765C1496.81 762.765 1486.11 752.073 1486.11 738.894C1486.11 725.715 1496.81 715.023 1509.99 715.023C1523.17 715.023 1533.86 725.715 1533.86 738.894C1533.86 752.073 1523.17 762.765 1509.99 762.765Z" fill="#E3E3E3"/>
<path d="M1552.04 695.984C1540.81 684.748 1525.88 678.578 1509.99 678.578C1494.1 678.578 1479.18 684.764 1467.94 695.984C1444.77 719.157 1444.77 756.875 1467.94 780.063C1479.54 791.657 1494.76 797.454 1509.99 797.454C1525.22 797.454 1540.44 791.657 1552.04 780.063C1575.21 756.891 1575.21 719.172 1552.04 695.984ZM1509.99 775.851C1489.66 775.851 1473.1 759.3 1473.1 738.972C1473.1 729.989 1476.32 721.752 1481.67 715.318L1477.16 710.811C1475.87 709.521 1475.87 707.423 1477.16 706.117C1478.45 704.812 1480.55 704.827 1481.86 706.117L1486.36 710.624C1491.96 705.946 1499 702.869 1506.68 702.217V699.17H1503.63C1500.94 699.17 1498.72 696.948 1498.72 694.259V691.695C1498.72 688.975 1500.94 686.784 1503.63 686.784H1516.38C1519.07 686.784 1521.29 688.975 1521.29 691.695V694.259C1521.29 696.948 1519.07 699.17 1516.38 699.17H1513.33V702.217C1521.03 702.885 1528.05 705.962 1533.65 710.624L1538.16 706.117C1539.45 704.827 1541.54 704.827 1542.85 706.117C1544.14 707.407 1544.14 709.505 1542.85 710.811L1538.34 715.318C1543.69 721.752 1546.91 729.973 1546.91 738.972C1546.91 759.3 1530.35 775.851 1510.02 775.851H1509.99Z" fill="#E3E3E3"/>
<path d="M1436.09 368.953C1436.09 328.179 1469.27 295 1510.05 295C1550.82 295 1584 328.179 1584 368.953C1584 409.728 1550.82 442.906 1510.05 442.906C1469.27 442.906 1436.09 409.728 1436.09 368.953ZM1578.67 368.953C1578.67 331.114 1547.89 300.328 1510.05 300.328C1472.21 300.328 1441.42 331.114 1441.42 368.953C1441.42 406.792 1472.21 437.579 1510.05 437.579C1547.89 437.579 1578.67 406.792 1578.67 368.953Z" fill="#478BF9"/>
<path d="M1436.09 549.743C1436.09 548.267 1437.29 547.087 1438.75 547.087C1440.21 547.087 1441.41 548.283 1441.41 549.743C1441.41 587.582 1472.19 618.368 1510.03 618.368C1547.87 618.368 1578.66 587.582 1578.66 549.743C1578.66 548.267 1579.85 547.087 1581.31 547.087C1582.77 547.087 1583.97 548.283 1583.97 549.743C1583.97 590.518 1550.79 623.696 1510.02 623.696C1469.24 623.696 1436.06 590.518 1436.06 549.743H1436.09Z" fill="#478BF9"/>
<path d="M1581.75 367.167H1549.36V373.551H1581.75V367.167Z" fill="#478BF9"/>
<path d="M1470.23 367.167H1437.85V373.551H1470.23V367.167Z" fill="#478BF9"/>
<path d="M1513.5 410.411H1507.11V442.798H1513.5V410.411Z" fill="#478BF9"/>
<path d="M1513.5 297.92H1507.11V330.306H1513.5V297.92Z" fill="#478BF9"/>
<path d="M1548.38 329.84C1526.23 307.69 1490.3 307.69 1468.14 329.84C1445.99 351.99 1445.99 387.919 1468.14 410.084C1490.29 432.235 1526.21 432.235 1548.38 410.084C1570.53 387.934 1570.53 352.006 1548.38 329.84ZM1519.22 334.64C1525.69 336.644 1531.48 340.387 1535.98 345.482L1536.85 346.461L1535.58 346.756C1532.21 347.548 1528.61 348.2 1524.88 348.682L1524.21 348.775L1524.02 348.123C1523.4 345.995 1522.67 343.944 1521.83 342.049C1520.79 339.673 1519.63 337.591 1518.35 335.836L1516.96 333.925L1519.22 334.624V334.64ZM1493.3 368.192L1493.33 367.384C1493.49 362.475 1494.03 357.784 1494.96 353.466L1495.1 352.783L1495.8 352.845C1503.97 353.559 1512.7 353.528 1520.82 352.767L1521.52 352.705L1521.68 353.388C1522.63 357.753 1523.17 362.46 1523.31 367.384V368.192H1493.32H1493.3ZM1523.31 371.795V372.603C1523.14 377.527 1522.6 382.233 1521.65 386.598L1521.49 387.282L1520.79 387.22C1512.67 386.458 1503.94 386.443 1495.77 387.142L1495.07 387.204L1494.93 386.521C1494 382.202 1493.46 377.527 1493.3 372.603L1493.27 371.795H1523.28H1523.31ZM1508.3 333.289C1512.82 333.289 1517.42 339.02 1520.3 348.262L1520.59 349.195L1519.61 349.272C1515.79 349.598 1511.85 349.769 1507.89 349.769C1504.2 349.769 1500.54 349.629 1496.97 349.334L1495.99 349.257L1496.28 348.309C1499.16 339.036 1503.77 333.273 1508.3 333.273V333.289ZM1480.47 345.653C1485.01 340.48 1490.85 336.675 1497.39 334.656L1499.67 333.957L1498.25 335.883C1496.98 337.622 1495.8 339.719 1494.78 342.08C1493.95 343.944 1493.21 346.026 1492.55 348.262L1492.37 348.899L1491.7 348.822C1487.94 348.356 1484.31 347.734 1480.89 346.942L1479.6 346.647L1480.47 345.653ZM1471.4 367.353C1471.83 361.295 1473.77 355.392 1477.02 350.251L1477.33 349.769L1477.89 349.909C1481.87 350.919 1486.15 351.726 1490.66 352.301L1491.5 352.41L1491.33 353.249C1490.4 357.753 1489.87 362.522 1489.73 367.43V368.192H1471.35L1471.41 367.353H1471.4ZM1477.33 390.217L1477.02 389.736C1473.77 384.61 1471.83 378.692 1471.4 372.634L1471.34 371.795H1489.7V372.556C1489.85 377.465 1490.4 382.249 1491.31 386.738L1491.48 387.577L1490.64 387.686C1486.15 388.26 1481.85 389.068 1477.88 390.078L1477.32 390.217H1477.33ZM1497.39 405.347C1490.85 403.327 1485.01 399.522 1480.47 394.349L1479.6 393.355L1480.89 393.06C1484.31 392.283 1487.94 391.647 1491.7 391.181L1492.37 391.103L1492.55 391.74C1493.21 393.977 1493.95 396.058 1494.78 397.922C1495.82 400.299 1496.98 402.38 1498.25 404.135L1499.67 406.061L1497.39 405.362V405.347ZM1508.3 406.698C1503.77 406.698 1499.16 400.935 1496.28 391.662L1495.99 390.715L1496.97 390.637C1504.37 390.047 1512.27 390.062 1519.61 390.699L1520.59 390.777L1520.3 391.709C1517.41 400.935 1512.81 406.683 1508.3 406.683V406.698ZM1535.98 394.505C1531.48 399.599 1525.67 403.343 1519.22 405.347L1516.96 406.046L1518.35 404.135C1519.63 402.395 1520.79 400.299 1521.83 397.922C1522.66 396.011 1523.4 393.976 1524.02 391.848L1524.21 391.196L1524.88 391.289C1528.61 391.771 1532.21 392.423 1535.58 393.215L1536.85 393.526L1535.98 394.505ZM1545.2 372.634C1544.76 378.754 1542.79 384.734 1539.46 389.922L1539.15 390.404L1538.59 390.264C1534.66 389.223 1530.39 388.4 1525.92 387.794L1525.08 387.686L1525.25 386.862C1526.18 382.358 1526.73 377.558 1526.87 372.572V371.811H1545.24L1545.18 372.65L1545.2 372.634ZM1526.9 368.192V367.43C1526.74 362.444 1526.2 357.629 1525.27 353.14L1525.1 352.317L1525.93 352.208C1530.41 351.602 1534.66 350.779 1538.61 349.738L1539.17 349.598L1539.48 350.08C1542.8 355.268 1544.79 361.233 1545.21 367.368L1545.27 368.207H1526.91L1526.9 368.192Z" fill="#478BF9"/>
<path d="M1436 550.861V372.386C1436 370.91 1437.2 369.729 1438.66 369.729C1440.12 369.729 1441.31 370.926 1441.31 372.386V550.861C1441.31 552.337 1440.12 553.517 1438.66 553.517C1437.2 553.517 1436 552.321 1436 550.861Z" fill="#478BF9"/>
<path d="M1578.59 551.266V372.79C1578.59 371.314 1579.79 370.134 1581.25 370.134C1582.71 370.134 1583.91 371.33 1583.91 372.79V551.266C1583.91 552.741 1582.71 553.922 1581.25 553.922C1579.79 553.922 1578.59 552.726 1578.59 551.266Z" fill="#478BF9"/>
<path d="M1457.65 233.35C1428.78 204.483 1428.78 157.517 1457.65 128.65C1486.52 99.7832 1533.48 99.7832 1562.35 128.65C1591.22 157.517 1591.22 204.483 1562.35 233.35C1533.48 262.217 1486.52 262.217 1457.65 233.35ZM1558.86 132.139C1531.92 105.196 1488.08 105.196 1461.15 132.139C1434.2 159.083 1434.2 202.917 1461.15 229.854C1488.09 256.797 1531.92 256.797 1558.86 229.854C1585.8 202.91 1585.8 159.076 1558.86 132.139Z" fill="#E3E3E3"/>
<path d="M1559.67 165.296C1559.41 165.036 1559.2 164.706 1559.08 164.341C1556.51 156.759 1552.33 150.041 1546.64 144.355C1540.96 138.675 1534.24 134.491 1526.66 131.922C1525.65 131.578 1524.98 130.644 1524.98 129.584V111.591C1524.98 110.833 1525.33 110.117 1525.93 109.647C1526.53 109.176 1527.31 109.015 1528.04 109.197C1541 112.441 1552.86 119.166 1562.34 128.65C1571.82 138.135 1578.54 149.992 1581.79 162.951C1581.97 163.688 1581.8 164.467 1581.34 165.071C1580.87 165.675 1580.15 166.019 1579.39 166.019H1561.4C1560.73 166.019 1560.11 165.745 1559.65 165.289L1559.67 165.296ZM1550.13 140.865C1555.93 146.664 1560.3 153.46 1563.15 161.084H1576.17C1572.9 150.188 1566.95 140.234 1558.86 132.139C1550.76 124.045 1540.81 118.099 1529.92 114.835V127.85C1537.54 130.693 1544.34 135.067 1550.14 140.872L1550.13 140.865Z" fill="#E3E3E3"/>
<path d="M1457.65 233.35C1448.18 223.873 1441.44 212.008 1438.2 199.049C1438.02 198.312 1438.19 197.533 1438.65 196.936C1439.12 196.332 1439.84 195.988 1440.59 195.988H1458.59C1459.65 195.988 1460.59 196.662 1460.93 197.666C1463.49 205.248 1467.67 211.966 1473.36 217.653C1479.04 223.332 1485.76 227.516 1493.34 230.085C1494.35 230.422 1495.02 231.363 1495.02 232.423V250.416C1495.02 251.174 1494.67 251.89 1494.07 252.361C1493.47 252.831 1492.69 252.992 1491.95 252.81C1479 249.566 1467.14 242.841 1457.65 233.364V233.35ZM1443.83 200.916C1447.1 211.812 1453.05 221.766 1461.14 229.861C1469.24 237.955 1479.19 243.901 1490.09 247.173V234.157C1482.46 231.314 1475.67 226.94 1469.87 221.142C1464.07 215.343 1459.7 208.547 1456.85 200.924H1443.83V200.916Z" fill="#E3E3E3"/>
<path d="M1525.7 252.149C1525.24 251.686 1524.98 251.061 1524.98 250.401V232.408C1524.98 231.348 1525.65 230.408 1526.66 230.071C1534.24 227.508 1540.96 223.324 1546.64 217.638C1552.33 211.952 1556.51 205.233 1559.08 197.651C1559.41 196.648 1560.36 195.974 1561.42 195.974H1579.41C1580.17 195.974 1580.88 196.325 1581.35 196.921C1581.82 197.518 1581.98 198.304 1581.8 199.034C1578.55 211.994 1571.83 223.851 1562.35 233.335C1552.87 242.819 1541.01 249.545 1528.05 252.788C1527.31 252.971 1526.53 252.802 1525.94 252.339C1525.86 252.269 1525.78 252.205 1525.71 252.135L1525.7 252.149ZM1529.92 234.15V247.165C1540.81 243.894 1550.77 237.947 1558.86 229.853C1566.95 221.759 1572.89 211.804 1576.17 200.909H1563.16C1560.31 208.533 1555.94 215.321 1550.13 221.127C1544.34 226.926 1537.54 231.306 1529.92 234.15Z" fill="#E3E3E3"/>
<path d="M1438.84 165.296C1438.77 165.225 1438.7 165.148 1438.65 165.071C1438.18 164.474 1438.02 163.688 1438.2 162.951C1441.44 149.992 1448.17 138.127 1457.65 128.65C1467.14 119.173 1478.99 112.441 1491.95 109.197C1492.69 109.015 1493.47 109.183 1494.07 109.646C1494.66 110.117 1495.01 110.833 1495.01 111.591V129.584C1495.01 130.644 1494.34 131.585 1493.34 131.922C1485.75 134.484 1479.03 138.668 1473.35 144.354C1467.67 150.034 1463.49 156.759 1460.92 164.341C1460.58 165.345 1459.64 166.019 1458.58 166.019H1440.59C1439.93 166.019 1439.29 165.759 1438.84 165.303L1438.84 165.296ZM1490.08 114.834C1479.18 118.106 1469.23 124.052 1461.13 132.146C1453.04 140.241 1447.1 150.195 1443.82 161.091H1456.84C1459.68 153.467 1464.05 146.678 1469.86 140.872C1475.66 135.074 1482.45 130.7 1490.08 127.85V114.834Z" fill="#E3E3E3"/>
<path d="M1550.13 140.866C1528.01 118.738 1491.99 118.731 1469.86 140.866C1447.73 163.001 1447.74 199.007 1469.86 221.135C1491.99 243.263 1528 243.27 1550.13 221.135C1572.27 199 1572.26 162.994 1550.13 140.866Z" fill="#E3E3E3"/>
<path d="M1530.47 201.259L1489.7 201.529C1487.98 201.541 1486.6 202.942 1486.61 204.66L1486.62 206.113C1486.63 207.83 1488.04 209.213 1489.75 209.202L1530.53 208.932C1532.24 208.92 1533.63 207.519 1533.61 205.801L1533.6 204.348C1533.59 202.63 1532.19 201.247 1530.47 201.259Z" fill="#110A1D"/>
<path d="M1495.26 176.647C1494.82 176.647 1494.37 176.549 1493.96 176.352L1490.78 174.815C1489.4 174.141 1488.76 172.505 1489.34 171.08L1490.8 167.444C1491.25 166.335 1492.31 165.612 1493.5 165.604C1494.01 165.604 1494.52 165.731 1494.97 165.991L1498.76 168.153C1499.47 168.553 1499.98 169.248 1500.16 170.048C1500.35 170.849 1500.19 171.691 1499.72 172.365L1497.64 175.377C1497.1 176.163 1496.21 176.64 1495.25 176.64L1495.26 176.647Z" fill="#110A1D"/>
<path d="M1524.6 176.452C1523.65 176.452 1522.74 175.995 1522.19 175.216L1520.14 172.317C1519.66 171.65 1519.49 170.807 1519.66 170.007C1519.83 169.207 1520.33 168.505 1521.04 168.091L1524.95 165.795C1525.39 165.535 1525.9 165.395 1526.41 165.388C1527.61 165.381 1528.68 166.09 1529.14 167.192L1530.62 170.723C1531.21 172.141 1530.6 173.791 1529.23 174.479L1525.9 176.143C1525.5 176.339 1525.05 176.452 1524.61 176.452H1524.6Z" fill="#110A1D"/>
<path d="M1492.05 198.803C1490.26 198.817 1488.65 197.694 1488.04 196.009L1481.24 177.286C1480.81 177.497 1480.34 177.659 1479.87 177.778C1479.32 177.918 1478.76 177.988 1478.19 177.988C1477.86 177.988 1477.53 177.974 1477.22 177.932C1473.67 177.483 1470.98 174.443 1470.96 170.863C1470.93 166.904 1474.14 163.66 1478.1 163.632C1482.05 163.604 1485.3 166.805 1485.32 170.765C1485.32 171.677 1485.16 172.555 1484.84 173.376C1484.67 173.826 1484.45 174.254 1484.2 174.661L1497.13 180.923L1507.03 166.581C1506.62 166.405 1506.22 166.188 1505.84 165.928C1505.12 165.443 1504.5 164.84 1503.99 164.131C1503.14 162.923 1502.67 161.498 1502.67 160.024C1502.64 156.064 1505.84 152.821 1509.8 152.793C1509.97 152.793 1510.16 152.793 1510.33 152.807C1513.88 153.046 1516.74 155.889 1517 159.434C1517.12 161.112 1516.68 162.72 1515.72 164.088C1515.22 164.805 1514.6 165.415 1513.89 165.9C1513.52 166.159 1513.12 166.377 1512.71 166.553L1522.78 180.747L1535.51 174.38C1535.27 173.924 1535.08 173.446 1534.94 172.948C1534.77 172.344 1534.68 171.712 1534.68 171.074C1534.68 170.786 1534.69 170.498 1534.72 170.217C1535.13 166.609 1538.17 163.871 1541.8 163.85C1545.76 163.822 1549.01 167.023 1549.03 170.982C1549.06 174.759 1546.12 177.932 1542.35 178.192L1541.9 178.206C1541.17 178.206 1540.46 178.108 1539.76 177.897C1539.31 177.757 1538.88 177.581 1538.47 177.357L1532.08 195.715C1531.5 197.406 1529.9 198.544 1528.11 198.558L1492.05 198.796V198.803Z" fill="#110A1D"/>
<path d="M1510 67C1491.04 67 1472.09 59.7888 1457.65 45.351C1428.78 16.4907 1428.78 -30.4596 1457.65 -59.3198C1471.64 -73.307 1490.23 -81 1510 -81C1529.77 -81 1548.36 -73.307 1562.35 -59.3198C1591.22 -30.4596 1591.22 16.4907 1562.35 45.351C1547.93 59.7733 1528.96 67 1510 67ZM1461.53 41.4656C1488.25 68.1812 1531.73 68.1812 1558.45 41.4656C1585.17 14.7501 1585.17 -28.719 1558.45 -55.4345C1545.5 -68.3804 1528.29 -75.4984 1509.98 -75.4984C1491.67 -75.4984 1474.47 -68.3649 1461.52 -55.4345C1434.8 -28.719 1434.8 14.7501 1461.52 41.4656H1461.53Z" fill="#7DDACF"/>
<path d="M1512.74 -22.5645L1499.03 -3.3554H1507.25V10.3521L1520.96 -8.84153H1512.74V-22.5645Z" fill="#7DDACF"/>
<path d="M1509.99 -33.2412C1494.97 -33.2412 1482.79 -21.0568 1482.79 -6.0439C1482.79 8.96902 1494.97 21.1224 1509.99 21.1224C1525 21.1224 1537.19 8.93794 1537.19 -6.0439C1537.19 -21.0257 1525 -33.2412 1509.99 -33.2412ZM1509.99 17.7654C1496.81 17.7654 1486.11 7.07301 1486.11 -6.10603C1486.11 -19.2851 1496.81 -29.9775 1509.99 -29.9775C1523.17 -29.9775 1533.86 -19.2851 1533.86 -6.10603C1533.86 7.07301 1523.17 17.7654 1509.99 17.7654Z" fill="#7DDACF"/>
<path d="M1552.04 -49.0156C1540.81 -60.252 1525.88 -66.4219 1509.99 -66.4219C1494.1 -66.4219 1479.18 -60.2364 1467.94 -49.0156C1444.77 -25.8435 1444.77 11.8753 1467.94 35.063C1479.54 46.6568 1494.76 52.4537 1509.99 52.4537C1525.22 52.4537 1540.44 46.6568 1552.04 35.063C1575.21 11.8908 1575.21 -25.8279 1552.04 -49.0156ZM1509.99 30.8513C1489.66 30.8513 1473.1 14.2997 1473.1 -6.02832C1473.1 -15.0112 1476.32 -23.2481 1481.67 -29.6822L1477.16 -34.1892C1475.87 -35.4791 1475.87 -37.5771 1477.16 -38.8826C1478.45 -40.1881 1480.55 -40.1725 1481.86 -38.8826L1486.36 -34.3757C1491.96 -39.0536 1499 -42.1308 1506.68 -42.7835V-45.8296H1503.63C1500.94 -45.8296 1498.72 -48.052 1498.72 -50.7406V-53.305C1498.72 -56.0247 1500.94 -58.216 1503.63 -58.216H1516.38C1519.07 -58.216 1521.29 -56.0247 1521.29 -53.305V-50.7406C1521.29 -48.052 1519.07 -45.8296 1516.38 -45.8296H1513.33V-42.7835C1521.03 -42.1152 1528.05 -39.0381 1533.65 -34.3757L1538.16 -38.8826C1539.45 -40.1725 1541.54 -40.1725 1542.85 -38.8826C1544.14 -37.5927 1544.14 -35.4947 1542.85 -34.1892L1538.34 -29.6822C1543.69 -23.2481 1546.91 -15.0267 1546.91 -6.02832C1546.91 14.2997 1530.35 30.8513 1510.02 30.8513H1509.99Z" fill="#7DDACF"/>
<path d="M1510 1000C1469.19 1000 1436 966.793 1436 926C1436 885.207 1469.21 852 1510 852C1550.79 852 1584 885.207 1584 926C1584 966.793 1550.79 1000 1510 1000ZM1510 856.928C1471.91 856.928 1440.93 887.912 1440.93 926C1440.93 964.088 1471.91 995.072 1510 995.072C1548.09 995.072 1579.07 964.088 1579.07 926C1579.07 887.912 1548.09 856.928 1510 856.928Z" fill="#7DDACF"/>
<path d="M1558.28 873.195L1535.38 896.104L1539.88 900.612L1562.79 877.702L1558.28 873.195Z" fill="#7DDACF"/>
<path d="M1479.43 952.055L1456.52 974.964L1461.03 979.471L1483.94 956.562L1479.43 952.055Z" fill="#7DDACF"/>
<path d="M1540.58 952.051L1536.07 956.558L1558.98 979.467L1563.49 974.96L1540.58 952.051Z" fill="#7DDACF"/>
<path d="M1461.04 872.501L1456.54 877.008L1479.43 899.906L1483.94 895.399L1461.04 872.501Z" fill="#7DDACF"/>
<path d="M1528.07 927.989C1529.56 926.497 1529.56 924.087 1528.07 922.61L1524.9 919.455C1523.4 917.962 1520.99 917.962 1519.52 919.455L1517.81 921.165L1515.83 919.19C1514.34 917.698 1511.93 917.698 1510.45 919.19L1508.74 920.916L1506.77 918.926C1505.28 917.434 1502.87 917.434 1501.39 918.926L1490.9 929.42C1490.82 929.497 1490.82 929.622 1490.9 929.715C1492.3 931.114 1494.58 931.114 1496 929.715L1502.76 922.952C1503.49 922.222 1504.67 922.222 1505.4 922.952L1505.9 923.45C1505.99 923.543 1505.99 923.683 1505.9 923.776L1500.26 929.42C1500.18 929.497 1500.18 929.622 1500.26 929.715C1501.65 931.114 1503.94 931.114 1505.35 929.715L1511.84 923.232C1512.57 922.502 1513.75 922.502 1514.48 923.232L1514.98 923.73C1515.05 923.807 1515.05 923.932 1514.98 924.025L1509.54 929.466C1509.46 929.544 1509.46 929.668 1509.54 929.762C1510.94 931.161 1513.22 931.161 1514.64 929.762L1520.9 923.497C1521.63 922.766 1522.81 922.766 1523.54 923.497L1524.62 924.569C1525.04 924.989 1525.04 925.689 1524.62 926.108L1524.44 926.279C1524.03 926.699 1523.33 926.699 1522.91 926.279L1521.52 924.896C1521.44 924.818 1521.32 924.818 1521.23 924.896L1518.83 927.29C1518.76 927.368 1518.76 927.492 1518.83 927.585L1520.99 929.746C1522.49 931.239 1524.9 931.239 1526.37 929.746L1528.08 928.036L1528.07 927.989Z" fill="#7DDACF"/>
<path d="M1510 869.24C1478.66 869.24 1453.26 894.643 1453.26 925.984C1453.26 957.325 1478.66 982.728 1510 982.728C1541.34 982.728 1566.75 957.325 1566.75 925.984C1566.75 894.643 1541.34 869.24 1510 869.24ZM1512.32 886.761C1521.43 887.289 1529.7 890.927 1536.11 896.617L1527.91 904.81C1523.64 901.188 1518.24 898.84 1512.32 898.343V886.761ZM1507.7 886.761V898.343C1501.78 898.825 1496.38 901.188 1492.11 904.81L1483.92 896.617C1490.32 890.927 1498.59 887.289 1507.7 886.761ZM1480.65 899.882L1488.84 908.075C1485.22 912.35 1482.88 917.744 1482.38 923.668H1470.8C1471.32 914.557 1474.96 906.287 1480.65 899.882ZM1470.8 928.285H1482.38C1482.86 934.208 1485.22 939.602 1488.84 943.878L1480.65 952.07C1474.96 945.665 1471.32 937.395 1470.8 928.285ZM1507.7 965.191C1498.59 964.663 1490.32 961.025 1483.92 955.335L1492.11 947.142C1496.38 950.765 1501.78 953.112 1507.7 953.61V965.191ZM1486.16 925.968C1486.16 912.801 1496.84 902.12 1510 902.12C1523.17 902.12 1533.85 912.801 1533.85 925.968C1533.85 939.136 1523.17 949.816 1510 949.816C1496.84 949.816 1486.16 939.136 1486.16 925.968ZM1512.32 965.191V953.61C1518.24 953.128 1523.64 950.765 1527.91 947.142L1536.11 955.335C1529.7 961.025 1521.43 964.663 1512.32 965.191ZM1539.37 952.07L1531.18 943.878C1534.8 939.602 1537.15 934.208 1537.64 928.285H1549.23C1548.7 937.395 1545.06 945.665 1539.37 952.07ZM1537.64 923.668C1537.16 917.744 1534.8 912.35 1531.18 908.075L1539.37 899.882C1545.06 906.287 1548.7 914.557 1549.23 923.668H1537.64Z" fill="#7DDACF"/>
</g>
<g opacity="0.3">
<path d="M74 1036C92.9634 1036 111.911 1028.79 126.351 1014.35C155.216 985.491 155.216 938.54 126.351 909.68C112.362 895.693 93.7717 888 74 888C54.2283 888 35.638 895.693 21.6486 909.68C-7.21619 938.54 -7.21619 985.491 21.6486 1014.35C36.0732 1028.77 55.0366 1036 74 1036ZM122.465 1010.47C95.7457 1037.18 52.2698 1037.18 25.5501 1010.47C-1.16965 983.75 -1.16965 940.281 25.5501 913.565C38.4981 900.62 55.705 893.502 74.0156 893.502C92.3261 893.502 109.533 900.635 122.481 913.565C149.201 940.281 149.201 983.75 122.481 1010.47H122.465Z" fill="#9DADF2"/>
<path d="M74.9808 989.702C74.7166 990.339 74.0949 990.712 73.442 990.712C73.2244 990.712 73.0067 990.665 72.7891 990.588C67.5664 988.396 62.8101 985.008 59.0485 980.781C58.4423 980.097 58.5044 979.04 59.1883 978.434C59.8722 977.828 60.9292 977.89 61.5354 978.574C64.9706 982.444 69.3073 985.537 74.0793 987.526C74.9186 987.883 75.3228 988.863 74.9653 989.702H74.9808Z" fill="#9DADF2"/>
<path d="M45.7887 936.427L73.3944 925.393C73.7986 925.238 74.2338 925.238 74.6379 925.393L102.244 936.427C102.881 936.676 103.285 937.282 103.285 937.966V957.734C103.254 975.98 91.7206 992.469 74.5913 998.748C74.4048 998.81 74.2183 998.841 74.0162 998.841C73.8141 998.841 73.6276 998.81 73.4411 998.748C56.3119 992.454 44.7783 975.98 44.7473 957.734V937.966C44.7473 937.282 45.1514 936.676 45.7887 936.427ZM48.0736 957.734C48.1047 974.333 58.519 989.454 74.0006 995.407C89.4822 989.454 99.9121 974.333 99.9432 957.734V939.1L74.0006 928.734L48.0736 939.1V957.734Z" fill="#9DADF2"/>
<path d="M85.5366 939.023C85.9408 938.852 86.3916 938.852 86.8112 939.023L93.3862 941.649C94.0235 941.898 94.4277 942.504 94.4277 943.188V950.197C94.4277 951.114 93.6816 951.86 92.7645 951.86C91.8475 951.86 91.1013 951.114 91.1013 950.197V944.322L85.5833 942.116C85.1636 941.945 84.8527 941.634 84.6662 941.214C84.4952 940.81 84.4952 940.359 84.6662 939.94C84.8372 939.52 85.1481 939.209 85.5522 939.023H85.5366Z" fill="#9DADF2"/>
<path d="M31.9717 919.983C43.1943 908.747 58.1319 902.577 74.0176 902.577C89.9033 902.577 104.825 908.763 116.063 919.983C139.239 943.156 139.239 980.874 116.063 1004.06C104.468 1015.66 89.2505 1021.44 74.0176 1021.44C58.7847 1021.44 43.5674 1015.64 31.9717 1004.06C8.79595 980.89 8.79595 943.171 31.9717 919.983ZM40.1943 957.733C40.1477 978.823 53.6242 997.27 73.7223 1003.66C73.9088 1003.72 74.1109 1003.72 74.3129 1003.66C94.411 997.27 107.888 978.823 107.841 957.733V934.406C107.841 934.017 107.608 933.66 107.235 933.504L74.3751 920.372C74.2663 920.325 74.142 920.31 74.0176 920.31C73.8933 920.31 73.7689 920.325 73.6601 920.372L40.8006 933.52C40.4275 933.66 40.1943 934.017 40.1943 934.421V957.749V957.733Z" fill="#9DADF2"/>
<path d="M74 660C92.9634 660 111.911 652.789 126.351 638.351C155.216 609.491 155.216 562.54 126.351 533.68C112.362 519.693 93.7717 512 74 512C54.2283 512 35.638 519.693 21.6486 533.68C-7.21619 562.54 -7.21619 609.491 21.6486 638.351C36.0732 652.773 55.0366 660 74 660ZM122.465 634.466C95.7457 661.181 52.2698 661.181 25.5501 634.466C-1.16965 607.75 -1.16965 564.281 25.5501 537.565C38.4981 524.62 55.705 517.502 74.0156 517.502C92.3261 517.502 109.533 524.635 122.481 537.565C149.201 564.281 149.201 607.75 122.481 634.466H122.465Z" fill="#9DADF2"/>
<path d="M74.9808 613.718C74.7166 614.356 74.0949 614.729 73.442 614.729C73.2244 614.729 73.0067 614.682 72.7891 614.604C67.5664 612.413 62.8101 609.025 59.0485 604.798C58.4423 604.114 58.5044 603.057 59.1883 602.451C59.8722 601.845 60.9292 601.907 61.5354 602.591C64.9706 606.461 69.3073 609.553 74.0793 611.543C74.9186 611.9 75.3228 612.879 74.9653 613.718H74.9808Z" fill="#9DADF2"/>
<path d="M45.7887 560.426L73.3944 549.392C73.7986 549.237 74.2338 549.237 74.6379 549.392L102.244 560.426C102.881 560.675 103.285 561.281 103.285 561.965V581.733C103.254 599.979 91.7206 616.468 74.5913 622.747C74.4048 622.809 74.2183 622.84 74.0162 622.84C73.8141 622.84 73.6276 622.809 73.4411 622.747C56.3119 616.453 44.7783 599.979 44.7473 581.733V561.965C44.7473 561.281 45.1514 560.675 45.7887 560.426ZM48.0736 581.733C48.1047 598.332 58.519 613.453 74.0006 619.406C89.4822 613.453 99.9121 598.332 99.9432 581.733V563.099L74.0006 552.733L48.0736 563.099V581.733Z" fill="#9DADF2"/>
<path d="M85.5366 563.023C85.9408 562.852 86.3916 562.852 86.8112 563.023L93.3862 565.649C94.0235 565.898 94.4277 566.504 94.4277 567.188V574.197C94.4277 575.114 93.6816 575.86 92.7645 575.86C91.8475 575.86 91.1013 575.114 91.1013 574.197V568.322L85.5833 566.115C85.1636 565.945 84.8527 565.634 84.6662 565.214C84.4952 564.81 84.4952 564.359 84.6662 563.94C84.8372 563.52 85.1481 563.209 85.5522 563.023H85.5366Z" fill="#9DADF2"/>
<path d="M31.9717 543.984C43.1943 532.748 58.1319 526.578 74.0176 526.578C89.9033 526.578 104.825 532.764 116.063 543.984C139.239 567.157 139.239 604.875 116.063 628.063C104.468 639.657 89.2505 645.438 74.0176 645.438C58.7847 645.438 43.5674 639.641 31.9717 628.063C8.79595 604.891 8.79595 567.172 31.9717 543.984ZM40.1943 581.734C40.1477 602.824 53.6242 621.271 73.7223 627.659C73.9088 627.721 74.1109 627.721 74.3129 627.659C94.411 621.271 107.888 602.824 107.841 581.734V558.407C107.841 558.018 107.608 557.661 107.235 557.505L74.3751 544.373C74.2663 544.326 74.142 544.311 74.0176 544.311C73.8933 544.311 73.7689 544.326 73.6601 544.373L40.8006 557.521C40.4275 557.661 40.1943 558.018 40.1943 558.422V581.75V581.734Z" fill="#9DADF2"/>
<path d="M74.0076 848C114.812 848 148 814.797 148 774.008C148 733.219 114.797 700.016 74.0076 700.016C33.2186 700.016 0.0153163 733.219 0.0153163 774.008C0.0153163 814.797 33.2186 848 74.0076 848ZM74.0076 704.943C112.092 704.943 143.072 735.924 143.072 774.008C143.072 812.092 112.092 843.073 74.0076 843.073C35.9233 843.073 4.94293 812.092 4.94293 774.008C4.94293 735.924 35.9233 704.943 74.0076 704.943Z" fill="#E3E3E3"/>
<path d="M50.0067 727.794C50.3797 727.794 50.7528 727.716 51.0948 727.545C58.2609 724.001 65.971 722.198 74.0075 722.198C82.0441 722.198 89.7542 724.001 96.9203 727.545C97.8685 728.011 99.0033 727.825 99.7494 727.079L112.465 714.363C113.009 713.819 113.258 713.073 113.164 712.311C113.071 711.55 112.636 710.881 111.983 710.493C100.527 703.622 87.3914 700 73.992 700C60.5925 700 47.4573 703.637 36.001 710.493C35.3481 710.881 34.9129 711.55 34.8196 712.311C34.7264 713.073 34.9906 713.819 35.5191 714.363L48.2346 727.079C48.7165 727.545 49.3382 727.794 49.9911 727.794H50.0067ZM74.0075 717.27C65.8155 717.27 57.9189 718.98 50.5197 722.353L41.3173 713.151C51.328 707.757 62.5667 704.928 74.0075 704.928C85.4484 704.928 96.6872 707.757 106.698 713.151L97.4954 722.353C90.0962 718.98 82.1995 717.27 74.0075 717.27Z" fill="#E3E3E3"/>
<path d="M74.0083 848C87.4078 848 100.543 844.362 111.999 837.507C112.652 837.118 113.087 836.45 113.181 835.688C113.274 834.926 113.01 834.18 112.481 833.636L99.7658 820.921C99.0196 820.175 97.8693 819.988 96.9366 820.454C89.7706 823.999 82.0604 825.802 74.0239 825.802C65.9873 825.802 58.2772 823.999 51.1111 820.454C50.1629 819.988 49.0282 820.175 48.282 820.921L35.5665 833.636C35.0225 834.18 34.7737 834.926 34.867 835.688C34.9603 836.45 35.3955 837.118 36.0484 837.507C47.5048 844.378 60.64 848 74.0394 848H74.0083ZM106.699 834.849C96.688 840.243 85.4492 843.072 74.0083 843.072C62.5675 843.072 51.3288 840.243 41.3181 834.849L50.5204 825.646C57.9197 829.02 65.8163 830.729 74.0083 830.729C82.2003 830.729 90.097 829.02 97.4962 825.646L106.699 834.849Z" fill="#E3E3E3"/>
<path d="M12.6179 813.181C13.2708 813.181 13.8925 812.932 14.3589 812.465L27.0744 799.75C27.8205 799.004 28.007 797.854 27.5407 796.921C23.9965 789.755 22.1934 782.045 22.1934 774.008C22.1934 765.972 23.9965 758.261 27.5407 751.095C28.007 750.147 27.8205 748.997 27.0744 748.266L14.3589 735.551C13.8148 735.007 13.0687 734.758 12.307 734.851C11.5453 734.944 10.8769 735.38 10.4883 736.033C3.61757 747.489 -0.00432414 760.624 -0.00432414 774.024C-0.00432414 787.423 3.61757 800.558 10.4883 812.015C10.8769 812.668 11.5453 813.103 12.307 813.196C12.4158 813.196 12.5091 813.196 12.6179 813.196V813.181ZM22.3644 797.481L13.1619 806.683C7.76793 796.672 4.93885 785.433 4.93885 773.993C4.93885 762.552 7.76793 751.313 13.1619 741.302L22.3644 750.505C18.9912 757.904 17.2813 765.801 17.2813 773.993C17.2813 782.185 18.9912 790.081 22.3644 797.481Z" fill="#E3E3E3"/>
<path d="M135.393 813.181C135.502 813.181 135.595 813.181 135.689 813.165C136.45 813.072 137.119 812.636 137.507 811.984C144.378 800.527 148 787.392 148 773.993C148 760.593 144.378 747.458 137.507 736.002C137.119 735.349 136.45 734.913 135.689 734.82C134.927 734.727 134.181 734.991 133.637 735.52L120.921 748.235C120.175 748.981 119.989 750.132 120.455 751.064C123.999 758.23 125.802 765.941 125.802 773.977C125.802 782.014 123.999 789.724 120.455 796.89C119.989 797.838 120.175 798.988 120.921 799.719L133.637 812.434C134.103 812.901 134.725 813.165 135.378 813.165L135.393 813.181ZM134.849 741.302C140.243 751.313 143.072 762.552 143.072 773.993C143.072 785.433 140.243 796.672 134.849 806.683L125.647 797.481C129.02 790.081 130.73 782.185 130.73 773.993C130.73 765.801 129.02 757.904 125.647 750.505L134.849 741.302Z" fill="#E3E3E3"/>
<path d="M74.0083 717.27C105.284 717.27 130.746 742.716 130.746 774.007C130.746 805.299 105.3 830.745 74.0083 830.745C42.717 830.745 17.2705 805.299 17.2705 774.007C17.2705 742.716 42.717 717.27 74.0083 717.27ZM42.0797 755.369C39.3905 759.971 37.7583 764.991 37.2298 770.323C37.2142 770.541 37.3075 770.743 37.494 770.852C41.5512 773.339 45.1886 776.386 48.3286 779.945C48.4686 780.116 48.7017 780.179 48.9038 780.101L55.9143 777.816C56.1164 777.754 56.2564 777.583 56.2875 777.365C57.0803 771.567 58.8834 766.017 61.6503 760.857C61.7436 760.67 61.7281 760.453 61.6037 760.282L57.2668 754.312C57.158 754.172 56.9869 754.079 56.8159 754.079C56.7693 754.079 56.7382 754.079 56.6916 754.079C52.0593 755.105 47.3027 755.447 42.5771 755.058C42.3595 755.043 42.1574 755.152 42.0486 755.338L42.0797 755.369ZM60.1114 778.344C60.0958 778.5 60.1425 778.655 60.2358 778.764C63.9198 783.008 68.6143 786.412 73.7906 788.588C73.9305 788.65 74.0705 788.65 74.2104 788.588C79.3867 786.396 84.0812 782.992 87.7653 778.764C87.8586 778.655 87.9051 778.5 87.8896 778.344C87.1745 772.717 85.4181 767.339 82.6978 762.364C82.62 762.225 82.4956 762.131 82.3402 762.1C79.6043 761.525 76.8063 761.23 73.9927 761.23C71.1791 761.23 68.3811 761.525 65.6453 762.1C65.4898 762.131 65.3655 762.225 65.2878 762.364C62.5675 767.339 60.8264 772.717 60.0958 778.344H60.1114ZM60.9509 739.763C60.9509 739.763 60.7642 739.607 60.5777 739.607C60.5155 739.607 60.4379 739.607 60.3602 739.654C54.6397 741.923 49.5255 745.654 45.5461 750.426C45.344 750.659 45.4218 750.908 45.4684 751.001C45.4995 751.079 45.6394 751.328 45.9658 751.328C49.4945 751.374 53.0075 750.97 56.4118 750.162C56.5517 750.131 56.6761 750.038 56.7538 749.913C58.5725 746.913 60.0337 743.68 61.0907 740.322C61.184 740.027 61.013 739.825 60.9353 739.763H60.9509ZM81.8583 737.897C76.713 736.794 71.288 736.794 66.1427 737.897C65.9406 737.944 65.7697 738.099 65.7231 738.301C64.6194 742.918 62.8317 747.333 60.4223 751.421C60.3135 751.608 60.3291 751.841 60.4534 752.027L64.7592 757.965C64.8836 758.136 65.1013 758.23 65.3033 758.183C70.9927 757.033 77.0084 757.033 82.6978 758.183C82.8998 758.23 83.1174 758.136 83.2418 757.965L87.5477 752.027C87.672 751.856 87.6876 751.608 87.5788 751.421C85.1694 747.333 83.3817 742.918 82.278 738.301C82.2314 738.099 82.0604 737.944 81.8583 737.897ZM102.455 750.426C98.4755 745.638 93.3613 741.908 87.6409 739.654C87.5632 739.623 87.4855 739.607 87.4233 739.607C87.2212 739.607 87.0969 739.716 87.0502 739.763C86.9725 739.84 86.8015 740.027 86.8948 740.322C87.9518 743.695 89.413 746.913 91.2317 749.913C91.3095 750.038 91.4338 750.131 91.5737 750.162C94.9779 750.97 98.4911 751.374 102.02 751.328C102.346 751.328 102.486 751.079 102.517 751.001C102.564 750.908 102.642 750.659 102.439 750.426H102.455ZM105.921 755.369C105.828 755.198 105.642 755.09 105.44 755.09C105.44 755.09 105.408 755.09 105.393 755.09C100.652 755.463 95.8951 755.136 91.2783 754.11C91.0607 754.064 90.8431 754.141 90.7187 754.328L86.3818 760.297C86.2575 760.468 86.2419 760.701 86.3351 760.872C89.1021 766.033 90.9053 771.582 91.698 777.381C91.7291 777.583 91.869 777.754 92.0711 777.831L99.0817 780.116C99.2838 780.179 99.517 780.116 99.6569 779.961C102.797 776.401 106.434 773.355 110.492 770.867C110.663 770.759 110.771 770.556 110.756 770.339C110.227 765.007 108.595 759.971 105.906 755.385L105.921 755.369ZM104.227 793.671C104.32 793.967 104.585 794.029 104.693 794.044C104.802 794.044 105.051 794.044 105.222 793.796C108.533 788.588 110.492 782.557 110.88 776.37C110.896 776.059 110.694 775.904 110.6 775.857C110.507 775.811 110.258 775.702 110.01 775.888C107.134 777.925 104.522 780.318 102.237 782.977C102.144 783.085 102.097 783.225 102.113 783.381C102.393 786.878 103.108 790.345 104.243 793.687L104.227 793.671ZM88.8689 807.864C93.7188 805.734 97.9937 802.609 101.569 798.599C101.709 798.443 101.755 798.21 101.678 798.024C99.8589 793.64 98.7087 789.023 98.2579 784.298C98.2424 784.08 98.0869 783.894 97.8848 783.832L90.9519 781.578C90.9519 781.578 90.8431 781.547 90.781 781.547C90.6255 781.547 90.4856 781.609 90.3768 781.733C86.4906 786.086 81.6252 789.63 76.2934 791.977C76.0913 792.07 75.9669 792.257 75.9669 792.474V799.765C75.9669 799.982 76.0913 800.184 76.2934 800.262C80.6459 802.143 84.6874 804.677 88.3093 807.77C88.4648 807.91 88.6979 807.941 88.8845 807.848L88.8689 807.864ZM64.4173 809.402C64.4328 809.511 64.5106 809.76 64.8215 809.838C70.8217 811.361 77.1639 811.361 83.1641 809.838C83.4594 809.76 83.5527 809.511 83.5682 809.402C83.5838 809.294 83.6149 809.045 83.3506 808.843C80.5215 806.744 77.4436 804.988 74.1948 803.635C74.0549 803.573 73.9151 803.573 73.7752 803.635C70.5419 804.988 67.464 806.744 64.6194 808.843C64.3707 809.029 64.3862 809.294 64.4017 809.402H64.4173ZM46.401 798.614C49.9763 802.625 54.2511 805.734 59.1011 807.864C59.3031 807.957 59.5207 807.91 59.6762 807.786C63.2981 804.692 67.3241 802.159 71.6921 800.278C71.8942 800.185 72.0186 799.998 72.0186 799.78V792.49C72.0186 792.272 71.8942 792.07 71.6921 791.992C66.3603 789.645 61.4793 786.101 57.6087 781.749C57.4999 781.624 57.36 781.562 57.2046 781.562C57.1424 781.562 57.0958 781.562 57.0336 781.593L50.1007 783.847C49.8986 783.909 49.7432 784.096 49.7276 784.313C49.2768 789.039 48.1265 793.64 46.3078 798.039C46.2301 798.226 46.2612 798.459 46.4166 798.614H46.401ZM42.7637 793.811C42.9346 794.075 43.1988 794.075 43.2921 794.06C43.4009 794.06 43.6497 793.982 43.7585 793.687C44.8777 790.345 45.5928 786.878 45.8881 783.381C45.8881 783.241 45.857 783.085 45.7638 782.977C43.4787 780.318 40.8672 777.94 37.9914 775.888C37.8826 775.811 37.7738 775.779 37.6805 775.779C37.5562 775.779 37.4629 775.826 37.4007 775.857C37.3075 775.904 37.0899 776.059 37.121 776.37C37.5096 782.557 39.4682 788.588 42.7792 793.796L42.7637 793.811Z" fill="#E3E3E3"/>
<path d="M74 472C114.809 472 148 438.793 148 398C148 357.207 114.793 324 74 324C33.2067 324 -4.48147e-06 357.207 -4.48147e-06 398C-4.48147e-06 438.793 33.2067 472 74 472ZM74 328.928C112.088 328.928 143.072 359.912 143.072 398C143.072 436.088 112.088 467.072 74 467.072C35.9117 467.072 4.92812 436.088 4.92812 398C4.92812 359.912 35.9117 328.928 74 328.928Z" fill="#478BF9"/>
<path d="M25.7257 345.206L48.6348 368.115L44.1277 372.622L21.2186 349.713L25.7257 345.206Z" fill="#478BF9"/>
<path d="M104.579 424.056L127.488 446.965L122.981 451.472L100.072 428.563L104.579 424.056Z" fill="#478BF9"/>
<path d="M43.4304 424.078L47.9375 428.585L25.0285 451.494L20.5214 446.987L43.4304 424.078Z" fill="#478BF9"/>
<path d="M122.985 344.517L127.492 349.024L104.594 371.922L100.087 367.415L122.985 344.517Z" fill="#478BF9"/>
<path d="M55.9484 399.99C54.4559 398.498 54.4559 396.088 55.9484 394.611L59.1199 391.456C60.6123 389.963 63.0219 389.963 64.4988 391.456L66.2089 393.166L68.1832 391.191C69.6757 389.699 72.0854 389.699 73.5623 391.191L75.2723 392.917L77.2467 390.927C78.7392 389.435 81.1488 389.435 82.6257 390.927L93.1194 401.421C93.1972 401.498 93.1972 401.623 93.1194 401.716C91.7203 403.115 89.4349 403.115 88.0202 401.716L81.2577 394.953C80.527 394.223 79.3455 394.223 78.6148 394.953L78.1173 395.451C78.024 395.544 78.024 395.684 78.1173 395.777L83.7606 401.421C83.8383 401.498 83.8383 401.623 83.7606 401.716C82.3614 403.115 80.0761 403.115 78.6614 401.716L72.1786 395.233C71.448 394.503 70.2664 394.503 69.5358 395.233L69.0383 395.731C68.9605 395.808 68.9605 395.933 69.0383 396.026L74.4794 401.467C74.5572 401.545 74.5572 401.669 74.4794 401.763C73.0803 403.162 70.795 403.162 69.3803 401.763L63.1152 395.498C62.3845 394.767 61.2031 394.767 60.4724 395.498L59.3997 396.57C58.9799 396.99 58.9799 397.69 59.3997 398.109L59.5707 398.28C59.9904 398.7 60.69 398.7 61.1097 398.28L62.4934 396.897C62.5711 396.819 62.6955 396.819 62.7888 396.897L65.1828 399.291C65.2606 399.369 65.2606 399.493 65.1828 399.586L63.0219 401.747C61.5295 403.24 59.1198 403.24 57.643 401.747L55.9328 400.037L55.9484 399.99Z" fill="#478BF9"/>
<path d="M73.9965 341.257C105.338 341.257 130.74 366.659 130.74 398.001C130.74 429.342 105.338 454.744 73.9965 454.744C42.6554 454.744 17.2528 429.342 17.2528 398.001C17.2528 366.659 42.6554 341.257 73.9965 341.257ZM71.6802 358.777C62.5701 359.306 54.2995 362.944 47.8945 368.634L56.0874 376.827C60.3626 373.204 65.7571 370.857 71.6802 370.359V358.777ZM76.2974 358.777V370.359C82.2206 370.841 87.615 373.204 91.8903 376.827L100.083 368.634C93.6781 362.944 85.4075 359.306 76.2974 358.777ZM103.348 371.898L95.155 380.091C98.7773 384.367 101.125 389.761 101.622 395.684H113.204C112.676 386.574 109.038 378.304 103.348 371.898ZM113.204 400.301H101.622C101.14 406.225 98.7773 411.619 95.155 415.894L103.348 424.087C109.038 417.682 112.676 409.412 113.204 400.301ZM76.2974 437.208C85.4075 436.68 93.6781 433.042 100.083 427.352L91.8903 419.159C87.615 422.781 82.2206 425.129 76.2974 425.626V437.208ZM97.8445 397.985C97.8445 384.817 87.1642 374.137 73.9965 374.137C60.8289 374.137 50.1487 384.817 50.1487 397.985C50.1487 411.153 60.8289 421.833 73.9965 421.833C87.1642 421.833 97.8445 411.153 97.8445 397.985ZM71.6802 437.208V425.626C65.7571 425.144 60.3626 422.781 56.0874 419.159L47.8945 427.352C54.2995 433.042 62.5701 436.68 71.6802 437.208ZM44.6298 424.087L52.8226 415.894C49.2003 411.619 46.8529 406.225 46.3554 400.301H34.7735C35.302 409.412 38.9399 417.682 44.6298 424.087ZM46.3554 395.684C46.8373 389.761 49.2003 384.367 52.8226 380.091L44.6298 371.898C38.9399 378.304 35.302 386.574 34.7735 395.684H46.3554Z" fill="#478BF9"/>
<path d="M126.35 262.406C155.217 233.539 155.217 186.574 126.35 157.707C97.4826 128.84 50.5174 128.84 21.6503 157.707C-7.21678 186.574 -7.21678 233.539 21.6503 262.406C50.5174 291.273 97.4826 291.273 126.35 262.406ZM25.1393 161.196C52.0829 134.252 95.9171 134.252 122.854 161.196C149.797 188.14 149.797 231.974 122.854 258.91C95.9101 285.854 52.0759 285.854 25.1393 258.91C-1.80422 231.967 -1.80422 188.133 25.1393 161.196Z" fill="#E3E3E3"/>
<path d="M24.3346 194.352C24.5944 194.093 24.8049 193.763 24.9243 193.398C27.4867 185.816 31.6708 179.098 37.3571 173.411C43.0365 167.732 49.7618 163.548 57.3436 160.978C58.3475 160.634 59.0215 159.701 59.0215 158.641V140.648C59.0215 139.89 58.6705 139.174 58.0738 138.703C57.47 138.233 56.6908 138.071 55.9607 138.254C43.0014 141.497 31.1372 148.223 21.66 157.707C12.1827 167.191 5.45726 179.048 2.21392 192.008C2.03139 192.745 2.19989 193.524 2.66322 194.128C3.13358 194.732 3.84965 195.076 4.60783 195.076H22.6006C23.2746 195.076 23.8923 194.802 24.3487 194.345L24.3346 194.352ZM33.8681 169.922C28.0694 175.721 23.6958 182.516 20.8456 190.14H7.83009C11.1015 179.245 17.0476 169.29 25.1419 161.196C33.2362 153.102 43.1909 147.156 54.0792 143.891V156.907C46.4553 159.75 39.6598 164.123 33.8611 169.929L33.8681 169.922Z" fill="#E3E3E3"/>
<path d="M126.346 262.406C135.823 252.929 142.556 241.065 145.799 228.106C145.981 227.369 145.813 226.589 145.35 225.993C144.879 225.389 144.163 225.045 143.405 225.045H125.412C124.352 225.045 123.411 225.719 123.074 226.723C120.512 234.305 116.328 241.023 110.642 246.709C104.962 252.389 98.2369 256.573 90.6551 259.142C89.6512 259.479 88.9774 260.42 88.9774 261.48V279.473C88.9774 280.231 89.3283 280.947 89.9251 281.417C90.5288 281.888 91.3081 282.049 92.0452 281.866C105.004 278.623 116.862 271.898 126.346 262.421V262.406ZM140.169 229.973C136.897 240.868 130.951 250.823 122.857 258.917C114.763 267.012 104.808 272.958 93.9125 276.229V263.214C101.536 260.371 108.332 255.997 114.131 250.198C119.929 244.4 124.303 237.604 127.153 229.98H140.169V229.973Z" fill="#E3E3E3"/>
<path d="M58.2945 281.207C58.7578 280.744 59.0176 280.119 59.0176 279.459V261.466C59.0176 260.406 58.3436 259.465 57.3397 259.128C49.7579 256.566 43.0396 252.382 37.3532 246.696C31.6669 241.009 27.4899 234.291 24.9205 226.709C24.5835 225.705 23.6427 225.031 22.5827 225.031H4.58988C3.8317 225.031 3.11563 225.382 2.64527 225.979C2.17492 226.576 2.01344 227.362 2.19597 228.092C5.44632 241.051 12.1717 252.908 21.649 262.393C31.1263 271.877 42.9904 278.602 55.9498 281.846C56.6869 282.028 57.4661 281.86 58.0628 281.396C58.1401 281.326 58.2172 281.263 58.2874 281.193L58.2945 281.207ZM54.0824 263.207V276.223C43.187 272.951 33.2323 267.005 25.138 258.911C17.0437 250.816 11.1046 240.862 7.82619 229.966H20.8417C23.6849 237.59 28.0585 244.379 33.8642 250.185C39.6629 255.983 46.4584 260.364 54.0824 263.207Z" fill="#E3E3E3"/>
<path d="M145.156 194.353C145.226 194.282 145.296 194.205 145.352 194.128C145.823 193.531 145.984 192.745 145.802 192.008C142.558 179.049 135.833 167.184 126.349 157.707C116.864 148.23 105.007 141.497 92.048 138.254C91.3109 138.072 90.5316 138.24 89.9349 138.703C89.3382 139.174 88.9871 139.89 88.9871 140.648V158.641C88.9871 159.701 89.6611 160.642 90.6649 160.979C98.2468 163.541 104.965 167.725 110.652 173.411C116.331 179.091 120.515 185.816 123.084 193.398C123.421 194.402 124.362 195.076 125.422 195.076H143.415C144.075 195.076 144.707 194.816 145.163 194.36L145.156 194.353ZM93.9223 143.891C104.818 147.163 114.772 153.109 122.867 161.203C130.961 169.297 136.9 179.252 140.179 190.147H127.163C124.32 182.524 119.946 175.735 114.141 169.929C108.342 164.131 101.546 159.757 93.9223 156.907V143.891Z" fill="#E3E3E3"/>
<path d="M33.8669 169.923C55.9946 147.795 92.0083 147.788 114.136 169.923C136.271 192.057 136.264 228.064 114.136 250.192C92.0083 272.319 56.0017 272.326 33.8669 250.192C11.7322 228.057 11.7392 192.05 33.8669 169.923Z" fill="#E3E3E3"/>
<path d="M53.5376 230.315L94.31 230.586C96.0275 230.597 97.4107 231.999 97.3993 233.716L97.3897 235.169C97.3783 236.887 95.9767 238.27 94.2591 238.259L53.4867 237.988C51.7691 237.977 50.386 236.575 50.3974 234.858L50.407 233.405C50.4184 231.687 51.82 230.304 53.5376 230.315Z" fill="#110A1D"/>
<path d="M88.7503 205.705C89.1926 205.705 89.6419 205.607 90.049 205.41L93.2292 203.873C94.6122 203.199 95.2441 201.563 94.6684 200.138L93.2081 196.501C92.7588 195.392 91.6988 194.669 90.5054 194.662C89.9929 194.662 89.4875 194.788 89.0382 195.048L85.2472 197.21C84.5382 197.611 84.0257 198.306 83.8432 199.106C83.6607 199.906 83.8221 200.749 84.2855 201.423L86.3634 204.434C86.904 205.22 87.8026 205.698 88.7573 205.698L88.7503 205.705Z" fill="#110A1D"/>
<path d="M59.4024 205.507C60.3571 205.507 61.2627 205.051 61.8103 204.272L63.8672 201.372C64.3446 200.705 64.5131 199.863 64.3446 199.063C64.1761 198.262 63.6706 197.56 62.9616 197.146L59.0514 194.851C58.6091 194.591 58.1036 194.45 57.5911 194.443C56.3977 194.436 55.3236 195.145 54.8603 196.248L53.386 199.779C52.7963 201.197 53.4071 202.847 54.776 203.535L58.1036 205.198C58.5037 205.395 58.9531 205.507 59.3954 205.507H59.4024Z" fill="#110A1D"/>
<path d="M91.9561 227.86C93.7462 227.874 95.3538 226.751 95.9646 225.066L102.767 206.343C103.202 206.554 103.666 206.715 104.136 206.835C104.691 206.975 105.252 207.045 105.821 207.045C106.151 207.045 106.474 207.031 106.79 206.989C110.335 206.54 113.024 203.5 113.045 199.92C113.073 195.96 109.872 192.717 105.912 192.689C101.953 192.661 98.7095 195.862 98.6884 199.821C98.6884 200.734 98.8429 201.611 99.1659 202.433C99.3414 202.882 99.5589 203.31 99.8117 203.718L86.8735 209.98L76.9749 195.637C77.3891 195.462 77.7893 195.244 78.1684 194.984C78.8844 194.5 79.5093 193.896 80.0147 193.187C80.8712 191.98 81.3345 190.555 81.3415 189.08C81.3696 185.121 78.1684 181.878 74.209 181.85C74.0335 181.85 73.8509 181.85 73.6754 181.864C70.1302 182.102 67.266 184.946 67.0062 188.491C66.8869 190.169 67.3291 191.776 68.2839 193.145C68.7893 193.861 69.4072 194.472 70.1162 194.956C70.4883 195.216 70.8884 195.434 71.3026 195.609L61.2286 209.804L48.501 203.437C48.7397 202.98 48.9292 202.503 49.0696 202.005C49.2381 201.401 49.3293 200.769 49.3293 200.13C49.3293 199.842 49.3153 199.555 49.2872 199.274C48.8801 195.665 45.8333 192.927 42.2039 192.906C38.2445 192.878 35.0011 196.08 34.98 200.039C34.952 203.816 37.8864 206.989 41.6563 207.249L42.1056 207.263C42.8357 207.263 43.5517 207.164 44.2467 206.954C44.696 206.813 45.1313 206.638 45.5385 206.413L51.9268 224.771C52.5095 226.463 54.1102 227.6 55.9003 227.614L91.9561 227.853V227.86Z" fill="#110A1D"/>
<path d="M0.000781067 30.6303V207.37C0.000781067 208.831 1.1941 210 2.65083 210C4.10756 210 5.30078 208.816 5.30078 207.37V30.6303C5.30078 29.169 4.10756 28 2.65083 28C1.1941 28 0.000781067 29.1844 0.000781067 30.6303Z" fill="#E3E3E3"/>
<path d="M142.7 30.6303V207.37C142.7 208.831 143.893 210 145.35 210C146.807 210 148 208.816 148 207.37V30.6303C148 29.169 146.807 28 145.35 28C143.893 28 142.7 29.1844 142.7 30.6303Z" fill="#E3E3E3"/>
<path d="M0.03102 29.9844C0.03102 31.4607 1.22752 32.6418 2.68825 32.6418C4.14898 32.6418 5.34557 31.4452 5.34557 29.9844C5.34557 -7.87025 36.1452 -38.6699 73.9999 -38.6699C111.855 -38.6699 142.654 -7.87025 142.654 29.9844C142.654 31.4607 143.851 32.6418 145.312 32.6418C146.772 32.6418 147.969 31.4452 147.969 29.9844C147.969 -10.8072 114.776 -44 73.9843 -44C33.1927 -44 -8.96879e-05 -10.8072 -8.96879e-05 29.9844H0.03102Z" fill="#E3E3E3"/>
</g>
<g opacity="0.1">
<path d="M323.906 818.953C323.906 778.179 290.727 745 249.953 745C209.178 745 176 778.179 176 818.953C176 859.728 209.178 892.906 249.953 892.906C290.727 892.906 323.906 859.728 323.906 818.953ZM181.328 818.953C181.328 781.114 212.114 750.328 249.953 750.328C287.792 750.328 318.578 781.114 318.578 818.953C318.578 856.792 287.792 887.579 249.953 887.579C212.114 887.579 181.328 856.792 181.328 818.953Z" fill="#478BF9"/>
<path d="M323.906 999.743C323.906 998.267 322.71 997.087 321.25 997.087C319.79 997.087 318.594 998.283 318.594 999.743C318.594 1037.58 287.807 1068.37 249.969 1068.37C212.13 1068.37 181.343 1037.58 181.343 999.743C181.343 998.267 180.147 997.087 178.687 997.087C177.227 997.087 176.031 998.283 176.031 999.743C176.031 1040.52 209.21 1073.7 249.984 1073.7C290.759 1073.7 323.938 1040.52 323.938 999.743H323.906Z" fill="#478BF9"/>
<path d="M178.254 817.167H210.641V823.551H178.254V817.167Z" fill="#478BF9"/>
<path d="M289.766 817.167H322.152V823.551H289.766V817.167Z" fill="#478BF9"/>
<path d="M246.505 860.411H252.889V892.798H246.505V860.411Z" fill="#478BF9"/>
<path d="M246.505 747.92H252.889V780.306H246.505V747.92Z" fill="#478BF9"/>
<path d="M211.62 779.84C233.77 757.69 269.698 757.69 291.864 779.84C314.014 801.99 314.014 837.919 291.864 860.084C269.714 882.235 233.785 882.235 211.62 860.084C189.469 837.934 189.469 802.006 211.62 779.84ZM240.775 784.64C234.314 786.644 228.52 790.387 224.015 795.482L223.145 796.461L224.419 796.756C227.79 797.548 231.393 798.2 235.121 798.682L235.789 798.775L235.976 798.123C236.597 795.995 237.327 793.944 238.166 792.049C239.207 789.673 240.372 787.591 241.645 785.836L243.043 783.925L240.775 784.624V784.64ZM266.7 818.192L266.669 817.384C266.514 812.475 265.97 807.784 265.038 803.466L264.898 802.783L264.199 802.845C256.029 803.559 247.299 803.528 239.175 802.767L238.477 802.705L238.321 803.388C237.374 807.753 236.83 812.46 236.69 817.384V818.192H266.685H266.7ZM236.69 821.795V822.603C236.861 827.527 237.405 832.233 238.352 836.598L238.508 837.282L239.207 837.22C247.33 836.458 256.06 836.443 264.23 837.142L264.929 837.204L265.069 836.521C266.001 832.202 266.545 827.527 266.7 822.603L266.731 821.795H236.721H236.69ZM251.695 783.289C247.175 783.289 242.577 789.02 239.704 798.262L239.408 799.195L240.387 799.272C244.208 799.598 248.154 799.769 252.115 799.769C255.796 799.769 259.462 799.629 263.034 799.334L264.013 799.257L263.718 798.309C260.844 789.036 256.231 783.273 251.695 783.273V783.289ZM279.531 795.653C274.995 790.48 269.154 786.675 262.615 784.656L260.332 783.957L261.745 785.883C263.019 787.622 264.199 789.719 265.225 792.08C266.048 793.944 266.793 796.026 267.446 798.262L267.632 798.899L268.3 798.822C272.059 798.356 275.694 797.734 279.111 796.942L280.4 796.647L279.531 795.653ZM288.602 817.353C288.167 811.295 286.225 805.392 282.979 800.251L282.668 799.769L282.109 799.909C278.133 800.919 273.845 801.726 269.341 802.301L268.502 802.41L268.673 803.249C269.605 807.753 270.133 812.522 270.273 817.43V818.192H288.649L288.586 817.353H288.602ZM282.668 840.217L282.979 839.736C286.225 834.61 288.167 828.692 288.602 822.634L288.664 821.795H270.304V822.556C270.149 827.465 269.605 832.249 268.688 836.738L268.518 837.577L269.356 837.686C273.845 838.26 278.148 839.068 282.125 840.078L282.684 840.217H282.668ZM262.615 855.347C269.154 853.327 274.995 849.522 279.531 844.349L280.4 843.355L279.111 843.06C275.694 842.283 272.059 841.647 268.3 841.181L267.632 841.103L267.446 841.74C266.793 843.977 266.048 846.058 265.225 847.922C264.184 850.299 263.019 852.38 261.745 854.135L260.332 856.061L262.615 855.362V855.347ZM251.695 856.698C256.231 856.698 260.844 850.935 263.718 841.662L264.013 840.715L263.034 840.637C255.625 840.047 247.734 840.062 240.387 840.699L239.408 840.777L239.704 841.709C242.593 850.935 247.191 856.683 251.695 856.683V856.698ZM224.015 844.505C228.52 849.599 234.329 853.343 240.775 855.347L243.043 856.046L241.645 854.135C240.372 852.395 239.207 850.299 238.166 847.922C237.343 846.011 236.597 843.976 235.976 841.848L235.789 841.196L235.121 841.289C231.393 841.771 227.79 842.423 224.419 843.215L223.145 843.526L224.015 844.505ZM214.804 822.634C215.239 828.754 217.212 834.734 220.536 839.922L220.846 840.404L221.406 840.264C225.335 839.223 229.607 838.4 234.081 837.794L234.919 837.686L234.749 836.862C233.817 832.358 233.273 827.558 233.133 822.572V821.811H214.757L214.82 822.65L214.804 822.634ZM233.102 818.192V817.43C233.257 812.444 233.801 807.629 234.733 803.14L234.904 802.317L234.065 802.208C229.592 801.602 225.336 800.779 221.39 799.738L220.831 799.598L220.52 800.08C217.196 805.268 215.208 811.233 214.789 817.368L214.726 818.207H233.086L233.102 818.192Z" fill="#478BF9"/>
<path d="M324 1000.86V822.386C324 820.91 322.804 819.729 321.344 819.729C319.884 819.729 318.688 820.926 318.688 822.386V1000.86C318.688 1002.34 319.884 1003.52 321.344 1003.52C322.804 1003.52 324 1002.32 324 1000.86Z" fill="#478BF9"/>
<path d="M181.406 1001.27V822.79C181.406 821.314 180.21 820.134 178.75 820.134C177.29 820.134 176.094 821.33 176.094 822.79V1001.27C176.094 1002.74 177.29 1003.92 178.75 1003.92C180.21 1003.92 181.406 1002.73 181.406 1001.27Z" fill="#478BF9"/>
<path d="M302.35 683.35C331.217 654.483 331.217 607.517 302.35 578.65C273.483 549.783 226.517 549.783 197.65 578.65C168.783 607.517 168.783 654.483 197.65 683.35C226.517 712.217 273.483 712.217 302.35 683.35ZM201.139 582.139C228.083 555.196 271.917 555.196 298.854 582.139C325.797 609.083 325.797 652.917 298.854 679.854C271.91 706.797 228.076 706.797 201.139 679.854C174.196 652.91 174.196 609.076 201.139 582.139Z" fill="#E3E3E3"/>
<path d="M200.335 615.296C200.594 615.036 200.805 614.706 200.924 614.341C203.487 606.759 207.671 600.041 213.357 594.355C219.036 588.675 225.762 584.491 233.344 581.922C234.348 581.578 235.021 580.644 235.021 579.584V561.591C235.021 560.833 234.67 560.117 234.074 559.647C233.47 559.176 232.691 559.015 231.961 559.197C219.001 562.441 207.137 569.166 197.66 578.65C188.183 588.135 181.457 599.992 178.214 612.951C178.031 613.688 178.2 614.467 178.663 615.071C179.134 615.675 179.85 616.019 180.608 616.019H198.601C199.275 616.019 199.892 615.745 200.349 615.289L200.335 615.296ZM209.868 590.865C204.069 596.664 199.696 603.46 196.846 611.084H183.83C187.102 600.188 193.048 590.234 201.142 582.139C209.236 574.045 219.191 568.099 230.079 564.835V577.85C222.455 580.693 215.66 585.067 209.861 590.872L209.868 590.865Z" fill="#E3E3E3"/>
<path d="M302.346 683.35C311.823 673.873 318.556 662.008 321.799 649.049C321.981 648.312 321.813 647.533 321.35 646.936C320.879 646.332 320.163 645.988 319.405 645.988H301.412C300.352 645.988 299.411 646.662 299.074 647.666C296.512 655.248 292.328 661.966 286.642 667.653C280.962 673.332 274.237 677.516 266.655 680.085C265.651 680.422 264.977 681.363 264.977 682.423V700.416C264.977 701.174 265.328 701.89 265.925 702.361C266.529 702.831 267.308 702.992 268.045 702.81C281.005 699.566 292.862 692.841 302.346 683.364V683.35ZM316.169 650.916C312.897 661.812 306.951 671.766 298.857 679.861C290.763 687.955 280.808 693.901 269.913 697.173V684.157C277.536 681.314 284.332 676.94 290.131 671.142C295.929 665.343 300.303 658.547 303.153 650.924H316.169V650.916Z" fill="#E3E3E3"/>
<path d="M234.296 702.149C234.76 701.686 235.02 701.061 235.02 700.401V682.408C235.02 681.348 234.346 680.408 233.342 680.071C225.76 677.508 219.042 673.324 213.355 667.638C207.669 661.952 203.492 655.233 200.922 647.651C200.585 646.648 199.645 645.974 198.585 645.974H180.592C179.834 645.974 179.118 646.325 178.647 646.921C178.177 647.518 178.015 648.304 178.198 649.034C181.448 661.994 188.174 673.851 197.651 683.335C207.128 692.819 218.992 699.545 231.952 702.788C232.689 702.971 233.468 702.802 234.065 702.339C234.142 702.269 234.219 702.205 234.289 702.135L234.296 702.149ZM230.084 684.15V697.165C219.189 693.894 209.234 687.947 201.14 679.853C193.046 671.759 187.107 661.804 183.828 650.909H196.844C199.687 658.533 204.06 665.321 209.866 671.127C215.665 676.926 222.46 681.306 230.084 684.15Z" fill="#E3E3E3"/>
<path d="M321.156 615.296C321.226 615.225 321.296 615.148 321.352 615.071C321.823 614.474 321.984 613.688 321.802 612.951C318.558 599.992 311.833 588.127 302.349 578.65C292.864 569.173 281.007 562.441 268.048 559.197C267.311 559.015 266.532 559.183 265.935 559.646C265.338 560.117 264.987 560.833 264.987 561.591V579.584C264.987 580.644 265.661 581.585 266.665 581.922C274.247 584.484 280.965 588.668 286.652 594.354C292.331 600.034 296.515 606.759 299.084 614.341C299.421 615.345 300.362 616.019 301.422 616.019H319.415C320.075 616.019 320.707 615.759 321.163 615.303L321.156 615.296ZM269.922 564.834C280.818 568.106 290.772 574.052 298.867 582.146C306.961 590.241 312.9 600.195 316.179 611.091H303.163C300.32 603.467 295.946 596.678 290.141 590.872C284.342 585.074 277.546 580.7 269.922 577.85V564.834Z" fill="#E3E3E3"/>
<path d="M209.867 590.866C231.995 568.738 268.008 568.731 290.136 590.866C312.271 613.001 312.264 649.007 290.136 671.135C268.008 693.263 232.002 693.27 209.867 671.135C187.732 649 187.739 612.994 209.867 590.866Z" fill="#E3E3E3"/>
<path d="M229.526 651.259L270.298 651.529C272.016 651.541 273.399 652.942 273.388 654.66L273.378 656.113C273.367 657.83 271.965 659.213 270.247 659.202L229.475 658.932C227.757 658.92 226.374 657.519 226.386 655.801L226.395 654.348C226.407 652.63 227.808 651.247 229.526 651.259Z" fill="#110A1D"/>
<path d="M264.743 626.647C265.185 626.647 265.634 626.549 266.041 626.352L269.221 624.815C270.604 624.141 271.236 622.505 270.661 621.08L269.2 617.444C268.751 616.335 267.691 615.612 266.498 615.604C265.985 615.604 265.48 615.731 265.03 615.991L261.239 618.153C260.53 618.553 260.018 619.248 259.835 620.048C259.653 620.849 259.814 621.691 260.278 622.365L262.356 625.377C262.896 626.163 263.795 626.64 264.75 626.64L264.743 626.647Z" fill="#110A1D"/>
<path d="M235.398 626.452C236.353 626.452 237.259 625.995 237.806 625.216L239.863 622.317C240.341 621.65 240.509 620.807 240.341 620.007C240.172 619.207 239.667 618.505 238.958 618.091L235.047 615.795C234.605 615.535 234.1 615.395 233.587 615.388C232.394 615.381 231.32 616.09 230.856 617.192L229.382 620.723C228.792 622.141 229.403 623.791 230.772 624.479L234.1 626.143C234.5 626.339 234.949 626.452 235.391 626.452H235.398Z" fill="#110A1D"/>
<path d="M267.948 648.803C269.738 648.817 271.346 647.694 271.957 646.009L278.759 627.286C279.195 627.497 279.658 627.659 280.128 627.778C280.683 627.918 281.245 627.988 281.813 627.988C282.143 627.988 282.466 627.974 282.782 627.932C286.327 627.483 289.016 624.443 289.037 620.863C289.065 616.904 285.864 613.66 281.904 613.632C277.945 613.604 274.702 616.805 274.681 620.765C274.681 621.677 274.835 622.555 275.158 623.376C275.334 623.826 275.551 624.254 275.804 624.661L262.866 630.923L252.967 616.581C253.381 616.405 253.782 616.188 254.161 615.928C254.877 615.443 255.501 614.84 256.007 614.131C256.863 612.923 257.327 611.498 257.334 610.024C257.362 606.064 254.161 602.821 250.201 602.793C250.026 602.793 249.843 602.793 249.668 602.807C246.122 603.046 243.258 605.889 242.998 609.434C242.879 611.112 243.321 612.72 244.276 614.088C244.782 614.805 245.399 615.415 246.108 615.9C246.481 616.159 246.881 616.377 247.295 616.553L237.221 630.747L224.493 624.38C224.732 623.924 224.921 623.446 225.062 622.948C225.23 622.344 225.322 621.712 225.322 621.074C225.322 620.786 225.308 620.498 225.279 620.217C224.872 616.609 221.826 613.871 218.196 613.85C214.237 613.822 210.993 617.023 210.972 620.982C210.944 624.759 213.879 627.932 217.648 628.192L218.098 628.206C218.828 628.206 219.544 628.108 220.239 627.897C220.688 627.757 221.124 627.581 221.531 627.357L227.919 645.715C228.502 647.406 230.102 648.544 231.893 648.558L267.948 648.796V648.803Z" fill="#110A1D"/>
<path d="M250 517C268.963 517 287.911 509.789 302.351 495.351C331.216 466.491 331.216 419.54 302.351 390.68C288.362 376.693 269.772 369 250 369C230.228 369 211.638 376.693 197.649 390.68C168.784 419.54 168.784 466.491 197.649 495.351C212.073 509.773 231.037 517 250 517ZM298.465 491.466C271.746 518.181 228.27 518.181 201.55 491.466C174.83 464.75 174.83 421.281 201.55 394.565C214.498 381.62 231.705 374.502 250.016 374.502C268.326 374.502 285.533 381.635 298.481 394.565C325.201 421.281 325.201 464.75 298.481 491.466H298.465Z" fill="#7DDACF"/>
<path d="M247.259 427.436L260.969 446.645H252.746V460.352L239.037 441.158H247.259V427.436Z" fill="#7DDACF"/>
<path d="M250.011 416.759C265.027 416.759 277.213 428.943 277.213 443.956C277.213 458.969 265.027 471.122 250.011 471.122C234.996 471.122 222.81 458.938 222.81 443.956C222.81 428.974 234.996 416.759 250.011 416.759ZM250.011 467.765C263.192 467.765 273.887 457.073 273.887 443.894C273.887 430.715 263.192 420.023 250.011 420.023C236.83 420.023 226.136 430.715 226.136 443.894C226.136 457.073 236.83 467.765 250.011 467.765Z" fill="#7DDACF"/>
<path d="M207.964 400.984C219.186 389.748 234.124 383.578 250.01 383.578C265.896 383.578 280.818 389.764 292.056 400.984C315.231 424.157 315.231 461.875 292.056 485.063C280.46 496.657 265.243 502.454 250.01 502.454C234.777 502.454 219.559 496.657 207.964 485.063C184.788 461.891 184.788 424.172 207.964 400.984ZM250.01 480.851C270.341 480.851 286.895 464.3 286.895 443.972C286.895 434.989 283.678 426.752 278.331 420.318L282.838 415.811C284.128 414.521 284.128 412.423 282.838 411.117C281.548 409.812 279.45 409.827 278.144 411.117L273.636 415.624C268.04 410.946 260.999 407.869 253.321 407.217V404.17H256.367C259.056 404.17 261.279 401.948 261.279 399.259V396.695C261.279 393.975 259.056 391.784 256.367 391.784H243.621C240.932 391.784 238.709 393.975 238.709 396.695V399.259C238.709 401.948 240.932 404.17 243.621 404.17H246.668V407.217C238.974 407.885 231.948 410.962 226.352 415.624L221.844 411.117C220.554 409.827 218.456 409.827 217.15 411.117C215.86 412.407 215.86 414.505 217.15 415.811L221.658 420.318C216.311 426.752 213.093 434.973 213.093 443.972C213.093 464.3 229.647 480.851 249.979 480.851H250.01Z" fill="#7DDACF"/>
<path d="M250 329C290.809 329 324 295.793 324 255C324 214.207 290.793 181 250 181C209.207 181 176 214.207 176 255C176 295.793 209.207 329 250 329ZM250 185.928C288.088 185.928 319.072 216.912 319.072 255C319.072 293.088 288.088 324.072 250 324.072C211.912 324.072 180.928 293.088 180.928 255C180.928 216.912 211.912 185.928 250 185.928Z" fill="#E3E3E3"/>
<path d="M201.716 202.195L224.625 225.104L220.118 229.612L197.209 206.702L201.716 202.195Z" fill="#E3E3E3"/>
<path d="M280.571 281.055L303.48 303.964L298.973 308.471L276.064 285.562L280.571 281.055Z" fill="#E3E3E3"/>
<path d="M219.419 281.051L223.926 285.558L201.017 308.467L196.51 303.96L219.419 281.051Z" fill="#E3E3E3"/>
<path d="M298.958 201.501L303.465 206.008L280.567 228.906L276.06 224.399L298.958 201.501Z" fill="#E3E3E3"/>
<path d="M231.933 256.989C230.44 255.497 230.44 253.087 231.933 251.61L235.104 248.455C236.597 246.962 239.006 246.962 240.483 248.455L242.193 250.165L244.168 248.19C245.66 246.698 248.07 246.698 249.547 248.19L251.257 249.916L253.231 247.926C254.724 246.434 257.133 246.434 258.61 247.926L269.104 258.42C269.182 258.497 269.182 258.622 269.104 258.715C267.705 260.114 265.419 260.114 264.005 258.715L257.242 251.952C256.511 251.222 255.33 251.222 254.599 251.952L254.102 252.45C254.008 252.543 254.008 252.683 254.102 252.776L259.745 258.42C259.823 258.497 259.823 258.622 259.745 258.715C258.346 260.114 256.061 260.114 254.646 258.715L248.163 252.232C247.432 251.502 246.251 251.502 245.52 252.232L245.023 252.73C244.945 252.807 244.945 252.932 245.023 253.025L250.464 258.466C250.542 258.544 250.542 258.668 250.464 258.762C249.065 260.161 246.779 260.161 245.365 258.762L239.1 252.497C238.369 251.766 237.187 251.766 236.457 252.497L235.384 253.569C234.964 253.989 234.964 254.689 235.384 255.108L235.555 255.279C235.975 255.699 236.674 255.699 237.094 255.279L238.478 253.896C238.555 253.818 238.68 253.818 238.773 253.896L241.167 256.29C241.245 256.368 241.245 256.492 241.167 256.585L239.006 258.746C237.514 260.239 235.104 260.239 233.627 258.746L231.917 257.036L231.933 256.989Z" fill="#E3E3E3"/>
<path d="M249.997 198.24C281.338 198.24 306.74 223.643 306.74 254.984C306.74 286.325 281.338 311.728 249.997 311.728C218.655 311.728 193.253 286.325 193.253 254.984C193.253 223.643 218.655 198.24 249.997 198.24ZM247.68 215.761C238.57 216.289 230.3 219.927 223.894 225.617L232.087 233.81C236.363 230.188 241.757 227.84 247.68 227.343V215.761ZM252.297 215.761V227.343C258.221 227.825 263.615 230.188 267.89 233.81L276.083 225.617C269.678 219.927 261.408 216.289 252.297 215.761ZM279.348 228.882L271.155 237.075C274.777 241.35 277.125 246.744 277.622 252.668H289.204C288.676 243.557 285.038 235.287 279.348 228.882ZM289.204 257.285H277.622C277.14 263.208 274.777 268.602 271.155 272.878L279.348 281.07C285.038 274.665 288.676 266.395 289.204 257.285ZM252.297 294.191C261.408 293.663 269.678 290.025 276.083 284.335L267.89 276.142C263.615 279.765 258.221 282.112 252.297 282.61V294.191ZM273.844 254.968C273.844 241.801 263.164 231.12 249.997 231.12C236.829 231.12 226.149 241.801 226.149 254.968C226.149 268.136 236.829 278.816 249.997 278.816C263.164 278.816 273.844 268.136 273.844 254.968ZM247.68 294.191V282.61C241.757 282.128 236.363 279.765 232.087 276.142L223.894 284.335C230.3 290.025 238.57 293.663 247.68 294.191ZM220.63 281.07L228.823 272.878C225.2 268.602 222.853 263.208 222.355 257.285H210.773C211.302 266.395 214.94 274.665 220.63 281.07ZM222.355 252.668C222.837 246.744 225.2 241.35 228.823 237.075L220.63 228.882C214.94 235.287 211.302 243.557 210.773 252.668H222.355Z" fill="#E3E3E3"/>
<path d="M302.35 119.35C331.217 90.4826 331.217 43.5174 302.35 14.6503C273.483 -14.2168 226.517 -14.2168 197.65 14.6503C168.783 43.5174 168.783 90.4826 197.65 119.35C226.517 148.217 273.483 148.217 302.35 119.35ZM201.139 18.1394C228.083 -8.80419 271.917 -8.80419 298.854 18.1394C325.797 45.0829 325.797 88.9171 298.854 115.854C271.91 142.797 228.076 142.797 201.139 115.854C174.196 88.9101 174.196 45.0759 201.139 18.1394Z" fill="#7DDACF"/>
<path d="M200.335 51.2958C200.594 51.036 200.805 50.7061 200.924 50.341C203.487 42.7592 207.671 36.0409 213.357 30.3545C219.036 24.6752 225.762 20.4911 233.344 17.9217C234.348 17.5777 235.021 16.6441 235.021 15.584V-2.40878C235.021 -3.16696 234.67 -3.88303 234.074 -4.35339C233.47 -4.82374 232.691 -4.98519 231.961 -4.80267C219.001 -1.55933 207.137 5.16602 197.66 14.6503C188.183 24.1346 181.457 35.9917 178.214 48.951C178.031 49.6882 178.2 50.4674 178.663 51.0711C179.134 51.6749 179.85 52.0189 180.608 52.0189H198.601C199.275 52.0189 199.892 51.7451 200.349 51.2888L200.335 51.2958ZM209.868 26.8655C204.069 32.6642 199.696 39.4597 196.846 47.0837H183.83C187.102 36.1883 193.048 26.2337 201.142 18.1394C209.236 10.0451 219.191 4.09895 230.079 0.834556V13.85C222.455 16.6932 215.66 21.0668 209.861 26.8725L209.868 26.8655Z" fill="#7DDACF"/>
<path d="M302.346 119.35C311.823 109.873 318.556 98.0084 321.799 85.0491C321.981 84.312 321.813 83.5328 321.35 82.936C320.879 82.3323 320.163 81.9883 319.405 81.9883H301.412C300.352 81.9883 299.411 82.6622 299.074 83.6661C296.512 91.2479 292.328 97.9663 286.642 103.653C280.962 109.332 274.237 113.516 266.655 116.085C265.651 116.422 264.977 117.363 264.977 118.423V136.416C264.977 137.174 265.328 137.89 265.925 138.361C266.529 138.831 267.308 138.992 268.045 138.81C281.005 135.566 292.862 128.841 302.346 119.364V119.35ZM316.169 86.9165C312.897 97.8118 306.951 107.766 298.857 115.861C290.763 123.955 280.808 129.901 269.913 133.173V120.157C277.536 117.314 284.332 112.94 290.131 107.142C295.929 101.343 300.303 94.5474 303.153 86.9235H316.169V86.9165Z" fill="#7DDACF"/>
<path d="M234.296 138.149C234.76 137.686 235.02 137.061 235.02 136.401V118.408C235.02 117.348 234.346 116.408 233.342 116.071C225.76 113.508 219.042 109.324 213.355 103.638C207.669 97.9516 203.492 91.2333 200.922 83.6514C200.585 82.6475 199.645 81.9736 198.585 81.9736H180.592C179.834 81.9736 179.118 82.3246 178.647 82.9213C178.177 83.5181 178.015 84.3043 178.198 85.0344C181.448 97.9937 188.174 109.851 197.651 119.335C207.128 128.819 218.992 135.545 231.952 138.788C232.689 138.971 233.468 138.802 234.065 138.339C234.142 138.269 234.219 138.205 234.289 138.135L234.296 138.149ZM230.084 120.15V133.165C219.189 129.894 209.234 123.947 201.14 115.853C193.046 107.759 187.107 97.8042 183.828 86.9088H196.844C199.687 94.5328 204.06 101.321 209.866 107.127C215.665 112.926 222.46 117.306 230.084 120.15Z" fill="#7DDACF"/>
<path d="M321.156 51.2957C321.226 51.2255 321.296 51.1482 321.352 51.071C321.823 50.4743 321.984 49.688 321.802 48.9509C318.558 35.9916 311.833 24.1275 302.349 14.6502C292.864 5.17291 281.007 -1.55946 268.048 -4.80279C267.311 -4.98532 266.532 -4.81685 265.935 -4.35351C265.338 -3.88316 264.987 -3.16708 264.987 -2.4089V15.5839C264.987 16.6439 265.661 17.5846 266.665 17.9216C274.247 20.484 280.965 24.668 286.652 30.3544C292.331 36.0337 296.515 42.7591 299.084 50.3409C299.421 51.3448 300.362 52.0187 301.422 52.0187H319.415C320.075 52.0187 320.707 51.759 321.163 51.3027L321.156 51.2957ZM269.922 0.83443C280.818 4.10585 290.772 10.052 298.867 18.1463C306.961 26.2406 312.9 36.1952 316.179 47.0906H303.163C300.32 39.4666 295.946 32.6781 290.141 26.8724C284.342 21.0737 277.546 16.7001 269.922 13.8499V0.83443Z" fill="#7DDACF"/>
<path d="M209.867 26.866C231.995 4.73829 268.008 4.73127 290.136 26.866C312.271 49.0007 312.264 85.0073 290.136 107.135C268.008 129.263 232.002 129.27 209.867 107.135C187.732 85.0003 187.739 48.9937 209.867 26.866Z" fill="#7DDACF"/>
<path d="M229.526 87.2588L270.298 87.5292C272.016 87.5406 273.399 88.9421 273.388 90.6597L273.378 92.1128C273.367 93.8304 271.965 95.2135 270.247 95.2021L229.475 94.9317C227.757 94.9203 226.374 93.5187 226.386 91.8012L226.395 90.348C226.407 88.6305 227.808 87.2474 229.526 87.2588Z" fill="#110A1D"/>
<path d="M264.743 62.6473C265.185 62.6473 265.634 62.549 266.041 62.3524L269.221 60.815C270.604 60.1411 271.236 58.5053 270.661 57.0802L269.2 53.4438C268.751 52.3346 267.691 51.6115 266.498 51.6045C265.985 51.6045 265.48 51.7308 265.03 51.9906L261.239 54.1528C260.53 54.553 260.018 55.248 259.835 56.0483C259.653 56.8486 259.814 57.691 260.278 58.365L262.356 61.3766C262.896 62.1629 263.795 62.6403 264.75 62.6403L264.743 62.6473Z" fill="#110A1D"/>
<path d="M235.398 62.4516C236.353 62.4516 237.259 61.9953 237.806 61.216L239.863 58.3167C240.341 57.6498 240.509 56.8073 240.341 56.007C240.172 55.2067 239.667 54.5047 238.958 54.0905L235.047 51.7949C234.605 51.5352 234.1 51.3948 233.587 51.3877C232.394 51.3807 231.32 52.0898 230.856 53.1919L229.382 56.7231C228.792 58.1412 229.403 59.7909 230.772 60.4789L234.1 62.1427C234.5 62.3393 234.949 62.4516 235.391 62.4516H235.398Z" fill="#110A1D"/>
<path d="M267.948 84.8034C269.738 84.8174 271.346 83.6942 271.957 82.0093L278.759 63.2865C279.195 63.4971 279.658 63.6585 280.128 63.7779C280.683 63.9183 281.245 63.9885 281.813 63.9885C282.143 63.9885 282.466 63.9744 282.782 63.9323C286.327 63.483 289.016 60.4433 289.037 56.863C289.065 52.9036 285.864 49.6602 281.904 49.6322C277.945 49.6041 274.702 52.8053 274.681 56.7647C274.681 57.6773 274.835 58.5549 275.158 59.3762C275.334 59.8255 275.551 60.2537 275.804 60.6609L262.866 66.9229L252.967 52.5806C253.381 52.4051 253.782 52.1875 254.161 51.9278C254.877 51.4434 255.501 50.8396 256.007 50.1306C256.863 48.9231 257.327 47.498 257.334 46.0238C257.362 42.0644 254.161 38.821 250.201 38.793C250.026 38.793 249.843 38.793 249.668 38.807C246.122 39.0457 243.258 41.8889 242.998 45.4341C242.879 47.1119 243.321 48.7195 244.276 50.0885C244.782 50.8045 245.399 51.4153 246.108 51.8997C246.481 52.1594 246.881 52.3771 247.295 52.5526L237.221 66.7474L224.493 60.3801C224.732 59.9238 224.921 59.4464 225.062 58.948C225.23 58.3442 225.322 57.7124 225.322 57.0736C225.322 56.7857 225.308 56.4979 225.279 56.2171C224.872 52.6087 221.826 49.8709 218.196 49.8498C214.237 49.8217 210.993 53.0229 210.972 56.9823C210.944 60.7592 213.879 63.9323 217.648 64.1921L218.098 64.2061C218.828 64.2061 219.544 64.1078 220.239 63.8972C220.688 63.7568 221.124 63.5813 221.531 63.3567L227.919 81.7145C228.502 83.4064 230.102 84.5436 231.893 84.5577L267.948 84.7963V84.8034Z" fill="#110A1D"/>
</g>
</svg>
