<svg width="320" height="165" viewBox="0 0 320 165" fill="none" xmlns="http://www.w3.org/2000/svg">
    <g opacity="0.6">
        <g opacity="0.4">
            <path d="M341.406 49.6169C335.129 49.6169 328.857 47.2296 324.077 42.4498C314.523 32.8953 314.523 17.352 324.077 7.79754C328.708 3.16695 334.861 0.620117 341.406 0.620117C347.95 0.620117 354.104 3.16695 358.734 7.79754C368.289 17.352 368.289 32.8953 358.734 42.4498C353.96 47.2245 347.683 49.6169 341.406 49.6169ZM325.363 41.1635C334.208 50.008 348.599 50.008 357.443 41.1635C366.287 32.3191 366.287 17.9282 357.443 9.08382C353.157 4.79795 347.461 2.4415 341.401 2.4415C335.34 2.4415 329.644 4.80309 325.358 9.08382C316.514 17.9282 316.514 32.3191 325.358 41.1635H325.363Z" fill="#9DADF2"/>
            <path d="M355.317 11.2086C351.602 7.48866 346.658 5.44604 341.4 5.44604C336.141 5.44604 331.202 7.4938 327.482 11.2086C319.811 18.8799 319.811 31.3671 327.482 39.0436C331.32 42.8818 336.357 44.7958 341.4 44.7958C346.442 44.7958 351.479 42.8767 355.317 39.0436C362.988 31.3722 362.988 18.8851 355.317 11.2086ZM352.595 23.706C352.611 30.6879 348.15 36.7951 341.497 38.9098C341.436 38.9304 341.369 38.9304 341.302 38.9098C334.649 36.7951 330.188 30.6879 330.204 23.706V15.9832C330.204 15.8546 330.281 15.7363 330.404 15.6848L341.281 11.3372C341.317 11.3218 341.358 11.3166 341.4 11.3166C341.441 11.3166 341.482 11.3218 341.518 11.3372L352.395 15.69C352.518 15.7363 352.595 15.8546 352.595 15.9884V23.7112V23.706Z" fill="#9DADF2"/>
            <path d="M280.954 49.4045C267.448 49.4045 256.463 38.4145 256.463 24.9138C256.463 11.413 267.453 0.423096 280.954 0.423096C294.454 0.423096 305.444 11.413 305.444 24.9138C305.444 38.4145 294.454 49.4045 280.954 49.4045ZM280.954 2.05408C268.348 2.05408 258.094 12.3083 258.094 24.9138C258.094 37.5193 268.348 47.7735 280.954 47.7735C293.559 47.7735 303.813 37.5193 303.813 24.9138C303.813 12.3083 293.559 2.05408 280.954 2.05408Z" fill="#478BF9"/>
            <path d="M296.93 7.44204L289.348 15.0239L290.839 16.5156L298.421 8.93369L296.93 7.44204Z" fill="#478BF9"/>
            <path d="M270.834 33.5373L263.252 41.1191L264.744 42.6108L272.325 35.0289L270.834 33.5373Z" fill="#478BF9"/>
            <path d="M291.07 33.5445L289.578 35.0361L297.16 42.618L298.652 41.1263L291.07 33.5445Z" fill="#478BF9"/>
            <path d="M264.742 7.21369L263.25 8.70532L270.828 16.2836L272.32 14.7919L264.742 7.21369Z" fill="#478BF9"/>
            <path d="M286.927 25.5727C287.421 25.0788 287.421 24.2813 286.927 23.7925L285.877 22.748C285.383 22.2541 284.586 22.2541 284.097 22.748L283.531 23.314L282.878 22.6605C282.384 22.1666 281.586 22.1666 281.097 22.6605L280.531 23.2317L279.878 22.5731C279.384 22.0792 278.586 22.0792 278.098 22.5731L274.625 26.046C274.599 26.0718 274.599 26.1129 274.625 26.1438C275.088 26.6068 275.844 26.6068 276.312 26.1438L278.55 23.9057C278.792 23.6639 279.183 23.6639 279.425 23.9057L279.59 24.0703C279.621 24.1012 279.621 24.1475 279.59 24.1784L277.722 26.046C277.696 26.0718 277.696 26.1129 277.722 26.1438C278.185 26.6068 278.942 26.6068 279.41 26.1438L281.555 23.9983C281.797 23.7565 282.188 23.7565 282.43 23.9983L282.595 24.1629C282.62 24.1887 282.62 24.2298 282.595 24.2607L280.794 26.0615C280.768 26.0872 280.768 26.1284 280.794 26.1592C281.257 26.6223 282.013 26.6223 282.481 26.1592L284.555 24.0857C284.797 23.8439 285.188 23.8439 285.429 24.0857L285.784 24.4408C285.923 24.5797 285.923 24.8112 285.784 24.9501L285.728 25.0067C285.589 25.1456 285.357 25.1456 285.219 25.0067L284.761 24.5488C284.735 24.5231 284.694 24.5231 284.663 24.5488L283.871 25.3412C283.845 25.3669 283.845 25.408 283.871 25.4389L284.586 26.1541C285.08 26.648 285.877 26.648 286.366 26.1541L286.932 25.5881L286.927 25.5727Z" fill="#478BF9"/>
            <path d="M280.954 6.13428C270.582 6.13428 262.175 14.5414 262.175 24.9139C262.175 35.2864 270.582 43.6935 280.954 43.6935C291.327 43.6935 299.734 35.2864 299.734 24.9139C299.734 14.5414 291.327 6.13428 280.954 6.13428ZM281.721 11.9328C284.736 12.1078 287.473 13.3117 289.593 15.1948L286.882 17.9063C285.467 16.7075 283.681 15.9306 281.721 15.7659V11.9328ZM280.193 11.9328V15.7659C278.233 15.9254 276.447 16.7075 275.032 17.9063L272.321 15.1948C274.441 13.3117 277.178 12.1078 280.193 11.9328ZM271.24 16.2753L273.952 18.9868C272.753 20.4017 271.976 22.187 271.812 24.1473H267.978C268.153 21.1323 269.357 18.3951 271.24 16.2753ZM267.978 25.6754H271.812C271.971 27.6357 272.753 29.421 273.952 30.8359L271.24 33.5474C269.357 31.4276 268.153 28.6904 267.978 25.6754ZM280.193 37.8899C277.178 37.7149 274.441 36.511 272.321 34.6279L275.032 31.9164C276.447 33.1152 278.233 33.8921 280.193 34.0568V37.8899ZM273.062 24.9088C273.062 20.5508 276.597 17.0162 280.954 17.0162C285.312 17.0162 288.847 20.5508 288.847 24.9088C288.847 29.2667 285.312 32.8014 280.954 32.8014C276.597 32.8014 273.062 29.2667 273.062 24.9088ZM281.721 37.8899V34.0568C283.681 33.8973 285.467 33.1152 286.882 31.9164L289.593 34.6279C287.473 36.511 284.736 37.7149 281.721 37.8899ZM290.674 33.5474L287.962 30.8359C289.161 29.421 289.938 27.6357 290.102 25.6754H293.936C293.761 28.6904 292.557 31.4276 290.674 33.5474ZM290.102 24.1473C289.943 22.187 289.161 20.4017 287.962 18.9868L290.674 16.2753C292.557 18.3951 293.761 21.1323 293.936 24.1473H290.102Z" fill="#478BF9"/>
            <path d="M199.143 42.1674C189.509 32.5334 189.509 16.8595 199.143 7.22549C208.777 -2.4085 224.451 -2.4085 234.085 7.22549C243.719 16.8595 243.719 32.5334 234.085 42.1674C224.451 51.8014 208.777 51.8014 199.143 42.1674ZM232.921 8.38991C223.929 -0.602124 209.3 -0.602124 200.31 8.38991C191.318 17.3819 191.318 32.011 200.31 41.0007C209.302 49.9927 223.931 49.9927 232.921 41.0007C241.913 32.0086 241.913 17.3796 232.921 8.38991Z" fill="white"/>
            <path d="M233.187 19.4553C233.1 19.3686 233.03 19.2585 232.99 19.1366C232.135 16.6063 230.738 14.3642 228.841 12.4664C226.945 10.571 224.701 9.17465 222.17 8.31715C221.835 8.20235 221.61 7.89075 221.61 7.53697V1.53213C221.61 1.2791 221.727 1.04012 221.927 0.883148C222.128 0.726174 222.388 0.672291 222.632 0.733206C226.957 1.81562 230.916 4.06011 234.079 7.22536C237.242 10.3906 239.487 14.3478 240.569 18.6728C240.63 18.9188 240.574 19.1788 240.419 19.3803C240.262 19.5818 240.023 19.6966 239.77 19.6966H233.765C233.54 19.6966 233.334 19.6052 233.182 19.4529L233.187 19.4553ZM230.005 11.302C231.94 13.2372 233.4 15.5052 234.351 18.0495H238.695C237.603 14.4134 235.619 11.0911 232.917 8.38978C230.216 5.68843 226.894 3.704 223.26 2.61455V6.95828C225.804 7.90715 228.072 9.36677 230.007 11.3043L230.005 11.302Z" fill="white"/>
            <path d="M199.142 42.1671C195.979 39.0042 193.732 35.0447 192.65 30.7198C192.589 30.4738 192.645 30.2137 192.8 30.0145C192.957 29.8131 193.196 29.6982 193.449 29.6982H199.454C199.808 29.6982 200.122 29.9232 200.234 30.2582C201.089 32.7885 202.486 35.0307 204.383 36.9284C206.279 38.8238 208.523 40.2202 211.054 41.0777C211.389 41.1901 211.613 41.5041 211.613 41.8579V47.8627C211.613 48.1157 211.496 48.3547 211.297 48.5117C211.096 48.6687 210.836 48.7225 210.59 48.6616C206.265 47.5792 202.307 45.3347 199.142 42.1718V42.1671ZM194.529 31.343C195.621 34.9791 197.605 38.3014 200.307 41.0027C203.008 43.7041 206.33 45.6885 209.966 46.7803V42.4366C207.422 41.4877 205.154 40.0281 203.219 38.0928C201.284 36.1576 199.824 33.8897 198.873 31.3453H194.529V31.343Z" fill="white"/>
            <path d="M221.856 48.4417C221.701 48.2871 221.614 48.0785 221.614 47.8583V41.8535C221.614 41.4997 221.839 41.1857 222.174 41.0733C224.705 40.2181 226.947 38.8218 228.844 36.924C230.742 35.0263 232.136 32.7841 232.994 30.2538C233.106 29.9188 233.42 29.6938 233.774 29.6938H239.779C240.032 29.6938 240.271 29.811 240.428 30.0101C240.585 30.2093 240.639 30.4717 240.578 30.7153C239.493 35.0403 237.248 38.9975 234.085 42.1627C230.923 45.328 226.963 47.5725 222.638 48.6549C222.392 48.7158 222.132 48.6596 221.933 48.5049C221.907 48.4815 221.881 48.4604 221.858 48.437L221.856 48.4417ZM223.261 42.4345V46.7782C226.897 45.6864 230.22 43.702 232.921 41.0007C235.622 38.2993 237.605 34.9771 238.699 31.3409H234.355C233.406 33.8853 231.946 36.1509 230.009 38.0884C228.074 40.0237 225.806 41.4856 223.261 42.4345Z" fill="white"/>
            <path d="M192.866 19.4554C192.843 19.432 192.819 19.4062 192.8 19.3804C192.643 19.1813 192.59 18.9189 192.65 18.6729C193.733 14.3479 195.977 10.3884 199.143 7.22549C202.308 4.06258 206.265 1.81574 210.59 0.733326C210.836 0.672411 211.096 0.728637 211.295 0.883268C211.494 1.04024 211.612 1.27922 211.612 1.53225V7.53709C211.612 7.89087 211.387 8.20482 211.052 8.31728C208.521 9.17243 206.279 10.5688 204.381 12.4665C202.486 14.3619 201.09 16.6064 200.232 19.1368C200.12 19.4718 199.806 19.6967 199.452 19.6967H193.447C193.227 19.6967 193.016 19.61 192.864 19.4577L192.866 19.4554ZM209.964 2.61467C206.328 3.70646 203.006 5.69089 200.305 8.39225C197.603 11.0936 195.621 14.4158 194.527 18.052H198.871C199.82 15.5076 201.279 13.242 203.217 11.3045C205.152 9.36924 207.42 7.90961 209.964 6.9584V2.61467Z" fill="white"/>
            <path d="M230.008 11.3022C222.623 3.91737 210.604 3.91503 203.219 11.3022C195.832 18.6893 195.834 30.706 203.219 38.0908C210.604 45.4756 222.621 45.478 230.008 38.0908C237.395 30.7037 237.393 18.687 230.008 11.3022Z" fill="white"/>
            <path d="M223.445 31.4576L209.838 31.5478C209.264 31.5516 208.803 32.0194 208.807 32.5926L208.81 33.0775C208.814 33.6507 209.281 34.1123 209.855 34.1085L223.462 34.0183C224.035 34.0145 224.497 33.5467 224.493 32.9735L224.49 32.4886C224.486 31.9153 224.018 31.4538 223.445 31.4576Z" fill="#110A1D"/>
            <path d="M211.691 23.244C211.544 23.244 211.394 23.2112 211.258 23.1456L210.197 22.6325C209.735 22.4076 209.524 21.8617 209.716 21.386L210.204 20.1724C210.354 19.8023 210.707 19.5609 211.106 19.5586C211.277 19.5586 211.445 19.6008 211.595 19.6875L212.861 20.4091C213.097 20.5426 213.268 20.7746 213.329 21.0416C213.39 21.3087 213.336 21.5899 213.182 21.8148L212.488 22.8199C212.308 23.0823 212.008 23.2416 211.689 23.2416L211.691 23.244Z" fill="#110A1D"/>
            <path d="M221.486 23.1783C221.167 23.1783 220.865 23.026 220.682 22.7659L219.996 21.7983C219.837 21.5757 219.78 21.2946 219.837 21.0275C219.893 20.7604 220.062 20.5261 220.298 20.3879L221.603 19.6217C221.751 19.5351 221.919 19.4882 222.091 19.4859C222.489 19.4835 222.847 19.7201 223.002 20.088L223.494 21.2665C223.691 21.7397 223.487 22.2903 223.03 22.5199L221.92 23.0752C221.786 23.1408 221.636 23.1783 221.488 23.1783H221.486Z" fill="#110A1D"/>
            <path d="M210.622 30.638C210.025 30.6427 209.488 30.2679 209.284 29.7056L207.014 23.4571C206.869 23.5274 206.714 23.5812 206.557 23.6211C206.372 23.6679 206.185 23.6914 205.995 23.6914C205.885 23.6914 205.777 23.6867 205.672 23.6726C204.488 23.5227 203.591 22.5082 203.584 21.3133C203.575 19.9919 204.643 18.9095 205.964 18.9001C207.286 18.8908 208.368 19.9591 208.375 21.2805C208.375 21.5851 208.324 21.878 208.216 22.1521C208.157 22.302 208.085 22.4449 208 22.5808L212.318 24.6707L215.622 19.8842C215.484 19.8256 215.35 19.753 215.224 19.6663C214.985 19.5046 214.776 19.3031 214.607 19.0665C214.322 18.6635 214.167 18.1879 214.165 17.6959C214.155 16.3745 215.224 15.2921 216.545 15.2827C216.603 15.2827 216.664 15.2827 216.723 15.2874C217.906 15.3671 218.862 16.3159 218.949 17.4991C218.989 18.059 218.841 18.5956 218.522 19.0524C218.354 19.2914 218.147 19.4952 217.911 19.6569C217.787 19.7436 217.653 19.8162 217.515 19.8748L220.877 24.6121L225.125 22.4871C225.045 22.3348 224.982 22.1755 224.935 22.0092C224.879 21.8077 224.848 21.5968 224.848 21.3836C224.848 21.2875 224.853 21.1915 224.862 21.0978C224.998 19.8935 226.015 18.9798 227.226 18.9728C228.548 18.9634 229.63 20.0318 229.637 21.3532C229.646 22.6136 228.667 23.6726 227.409 23.7593L227.259 23.764C227.015 23.764 226.776 23.7312 226.544 23.6609C226.394 23.614 226.249 23.5555 226.113 23.4805L223.981 29.6072C223.787 30.1718 223.253 30.5514 222.655 30.556L210.622 30.6357V30.638Z" fill="#110A1D"/>
            <path d="M156.953 49.6169C150.676 49.6169 144.404 47.2296 139.624 42.4498C130.069 32.8954 130.069 17.352 139.624 7.79754C144.254 3.16695 150.408 0.620117 156.953 0.620117C163.497 0.620117 169.651 3.16695 174.281 7.79754C183.836 17.352 183.836 32.8954 174.281 42.4498C169.507 47.2245 163.23 49.6169 156.953 49.6169ZM140.91 41.1636C149.755 50.008 164.145 50.008 172.99 41.1636C181.834 32.3191 181.834 17.9282 172.99 9.08382C168.704 4.79795 163.008 2.4415 156.947 2.4415C150.886 2.4415 145.191 4.80309 140.905 9.08382C132.061 17.9282 132.061 32.3191 140.905 41.1636H140.91Z" fill="#9DADF2"/>
            <path d="M156.628 34.2896C156.715 34.5005 156.921 34.6239 157.137 34.6239C157.209 34.6239 157.281 34.6085 157.353 34.5828C159.082 33.8573 160.656 32.7357 161.902 31.3362C162.102 31.1098 162.082 30.76 161.855 30.5594C161.629 30.3587 161.279 30.3793 161.078 30.6057C159.941 31.8868 158.506 32.9107 156.926 33.5692C156.648 33.6876 156.515 34.0117 156.633 34.2896H156.628Z" fill="#9DADF2"/>
            <path d="M166.29 16.6521L157.152 12.999C157.018 12.9476 156.874 12.9476 156.74 12.999L147.603 16.6521C147.392 16.7344 147.258 16.9351 147.258 17.1614V23.706C147.268 29.7463 151.086 35.2053 156.756 37.2839C156.817 37.3045 156.879 37.3148 156.946 37.3148C157.013 37.3148 157.075 37.3045 157.136 37.2839C162.806 35.2002 166.624 29.7463 166.634 23.706V17.1614C166.634 16.9351 166.501 16.7344 166.29 16.6521ZM165.533 23.706C165.523 29.201 162.076 34.2071 156.951 36.1777C151.827 34.2071 148.374 29.201 148.364 23.706V17.537L156.951 14.1052L165.533 17.537V23.706Z" fill="#9DADF2"/>
            <path d="M153.134 17.5112C153.001 17.4546 152.851 17.4546 152.713 17.5112L150.536 18.3808C150.325 18.4631 150.191 18.6637 150.191 18.8901V21.2106C150.191 21.5141 150.438 21.7611 150.742 21.7611C151.045 21.7611 151.292 21.5141 151.292 21.2106V19.2657L153.119 18.5351C153.258 18.4785 153.361 18.3756 153.423 18.2367C153.479 18.1029 153.479 17.9537 153.423 17.8148C153.366 17.6759 153.263 17.5729 153.129 17.5112H153.134Z" fill="#9DADF2"/>
            <path d="M170.864 11.2086C167.149 7.48866 162.205 5.44604 156.946 5.44604C151.688 5.44604 146.749 7.4938 143.029 11.2086C135.358 18.8799 135.358 31.3671 143.029 39.0436C146.867 42.8818 151.904 44.7958 156.946 44.7958C161.989 44.7958 167.026 42.8767 170.864 39.0436C178.535 31.3722 178.535 18.8851 170.864 11.2086ZM168.142 23.706C168.158 30.6879 163.697 36.7952 157.044 38.9098C156.982 38.9304 156.916 38.9304 156.849 38.9098C150.196 36.7952 145.735 30.6879 145.751 23.706V15.9832C145.751 15.8546 145.828 15.7363 145.951 15.6848L156.828 11.3372C156.864 11.3218 156.905 11.3166 156.946 11.3166C156.988 11.3166 157.029 11.3218 157.065 11.3372L167.941 15.69C168.065 15.7363 168.142 15.8546 168.142 15.9884V23.7112V23.706Z" fill="#9DADF2"/>
            <path d="M94.3696 49.5373C80.8637 49.5373 69.8789 38.5473 69.8789 25.0466C69.8789 11.5458 80.8689 0.555908 94.3696 0.555908C107.87 0.555908 118.86 11.5458 118.86 25.0466C118.86 38.5473 107.87 49.5373 94.3696 49.5373ZM94.3696 2.1869C81.7641 2.1869 71.5099 12.4411 71.5099 25.0466C71.5099 37.6521 81.7641 47.9063 94.3696 47.9063C106.975 47.9063 117.229 37.6521 117.229 25.0466C117.229 12.4411 106.975 2.1869 94.3696 2.1869Z" fill="white"/>
            <path d="M102.313 9.75023C102.19 9.75023 102.066 9.72451 101.953 9.66792C99.5812 8.49483 97.0292 7.898 94.3692 7.898C91.7092 7.898 89.1572 8.49483 86.7853 9.66792C86.4715 9.82227 86.0959 9.7605 85.8489 9.51354L81.6402 5.30485C81.4602 5.12477 81.3778 4.8778 81.4087 4.62569C81.4396 4.37358 81.5836 4.15235 81.7997 4.02372C85.5917 1.74959 89.9393 0.550781 94.3744 0.550781C98.8094 0.550781 103.157 1.75474 106.949 4.02372C107.165 4.15235 107.309 4.37358 107.34 4.62569C107.371 4.8778 107.283 5.12477 107.108 5.30485L102.9 9.51354C102.74 9.66789 102.534 9.75023 102.318 9.75023H102.313ZM94.3692 6.26698C97.0807 6.26698 99.6944 6.83295 102.143 7.94944L105.189 4.90355C101.876 3.1182 98.156 2.18177 94.3692 2.18177C90.5824 2.18177 86.8625 3.1182 83.549 4.90355L86.595 7.94944C89.044 6.83295 91.6577 6.26698 94.3692 6.26698Z" fill="white"/>
            <path d="M94.3683 49.5372C89.9332 49.5372 85.5856 48.3333 81.7936 46.0643C81.5775 45.9357 81.4335 45.7144 81.4026 45.4623C81.3717 45.2102 81.4592 44.9632 81.6341 44.7832L85.8428 40.5744C86.0898 40.3275 86.4705 40.2657 86.7792 40.4201C89.1511 41.5932 91.7031 42.19 94.3631 42.19C97.0231 42.19 99.5751 41.5932 101.947 40.4201C102.261 40.2657 102.636 40.3275 102.883 40.5744L107.092 44.7832C107.272 44.9632 107.354 45.2102 107.324 45.4623C107.293 45.7144 107.149 45.9357 106.933 46.0643C103.141 48.3384 98.793 49.5372 94.358 49.5372H94.3683ZM83.5481 45.1845C86.8615 46.9698 90.5815 47.9062 94.3683 47.9062C98.1551 47.9062 101.875 46.9698 105.188 45.1845L102.143 42.1386C99.6934 43.2551 97.0797 43.821 94.3683 43.821C91.6568 43.821 89.0431 43.2551 86.594 42.1386L83.5481 45.1845Z" fill="white"/>
            <path d="M114.688 38.0124C114.472 38.0124 114.267 37.93 114.112 37.7757L109.904 33.567C109.657 33.32 109.595 32.9393 109.749 32.6306C110.922 30.2587 111.519 27.7067 111.519 25.0467C111.519 22.3867 110.922 19.8347 109.749 17.4628C109.595 17.149 109.657 16.7682 109.904 16.5264L114.112 12.3177C114.292 12.1376 114.539 12.0553 114.791 12.0862C115.043 12.1171 115.265 12.2611 115.393 12.4772C117.667 16.2692 118.866 20.6168 118.866 25.0519C118.866 29.4869 117.667 33.8345 115.393 37.6265C115.265 37.8426 115.043 37.9866 114.791 38.0175C114.755 38.0175 114.724 38.0175 114.688 38.0175V38.0124ZM111.462 32.8158L114.508 35.8617C116.294 32.5483 117.23 28.8283 117.23 25.0416C117.23 21.2548 116.294 17.5349 114.508 14.2214L111.462 17.2673C112.579 19.7164 113.145 22.3301 113.145 25.0416C113.145 27.753 112.579 30.3668 111.462 32.8158Z" fill="white"/>
            <path d="M74.0516 38.0124C74.0156 38.0124 73.9847 38.0124 73.9539 38.0072C73.7017 37.9764 73.4805 37.8323 73.3519 37.6162C71.0777 33.8243 69.8789 29.4766 69.8789 25.0416C69.8789 20.6065 71.0777 16.2589 73.3519 12.467C73.4805 12.2509 73.7017 12.1068 73.9539 12.0759C74.206 12.0451 74.4529 12.1325 74.633 12.3074L78.8417 16.5162C79.0887 16.7631 79.1504 17.1438 78.996 17.4525C77.823 19.8244 77.2261 22.3764 77.2261 25.0364C77.2261 27.6965 77.823 30.2484 78.996 32.6203C79.1504 32.9342 79.0887 33.3149 78.8417 33.5567L74.633 37.7654C74.4787 37.9198 74.2728 38.0072 74.0567 38.0072L74.0516 38.0124ZM74.2317 14.2214C72.4463 17.5349 71.5099 21.2548 71.5099 25.0416C71.5099 28.8284 72.4463 32.5483 74.2317 35.8617L77.2776 32.8158C76.1611 30.3668 75.5951 27.753 75.5951 25.0416C75.5951 22.3301 76.1611 19.7164 77.2776 17.2673L74.2317 14.2214Z" fill="white"/>
            <path d="M94.3704 6.26685C84.0185 6.26685 75.5908 14.6894 75.5908 25.0465C75.5908 35.4036 84.0134 43.8261 94.3704 43.8261C104.728 43.8261 113.15 35.4036 113.15 25.0465C113.15 14.6894 104.728 6.26685 94.3704 6.26685ZM104.938 18.8775C105.829 20.4004 106.369 22.0623 106.544 23.8271C106.549 23.8991 106.518 23.966 106.456 24.002C105.113 24.8252 103.909 25.8337 102.87 27.0119C102.824 27.0685 102.747 27.0891 102.68 27.0634L100.359 26.307C100.292 26.2864 100.246 26.2299 100.236 26.1578C99.9734 24.2387 99.3766 22.4019 98.4608 20.6937C98.4299 20.632 98.4351 20.56 98.4762 20.5034L99.9117 18.5276C99.9477 18.4813 100.004 18.4504 100.061 18.4504C100.076 18.4504 100.087 18.4504 100.102 18.4504C101.635 18.79 103.21 18.9032 104.774 18.7746C104.846 18.7694 104.913 18.8055 104.949 18.8672L104.938 18.8775ZM98.9702 26.482C98.9753 26.5334 98.9599 26.5849 98.929 26.6209C97.7096 28.0255 96.1558 29.1523 94.4425 29.8726C94.3962 29.8932 94.3499 29.8932 94.3036 29.8726C92.5902 29.1471 91.0364 28.0203 89.817 26.6209C89.7861 26.5849 89.7707 26.5334 89.7759 26.482C90.0125 24.6194 90.5939 22.8392 91.4943 21.1928C91.52 21.1465 91.5612 21.1156 91.6127 21.1053C92.5182 20.915 93.4443 20.8172 94.3756 20.8172C95.3069 20.8172 96.233 20.915 97.1385 21.1053C97.19 21.1156 97.2311 21.1465 97.2568 21.1928C98.1572 22.8392 98.7335 24.6194 98.9753 26.482H98.9702ZM98.6923 13.7118C98.6923 13.7118 98.7541 13.6604 98.8158 13.6604C98.8364 13.6604 98.8621 13.6604 98.8878 13.6758C100.781 14.427 102.474 15.6618 103.791 17.2414C103.858 17.3185 103.832 17.4009 103.817 17.4317C103.807 17.4574 103.76 17.5398 103.652 17.5398C102.484 17.5552 101.321 17.4214 100.195 17.1539C100.148 17.1436 100.107 17.1127 100.081 17.0716C99.4795 16.0786 98.9959 15.0084 98.646 13.897C98.6152 13.7993 98.6717 13.7324 98.6975 13.7118H98.6923ZM91.7722 13.0944C93.4752 12.7291 95.2708 12.7291 96.9739 13.0944C97.0407 13.1098 97.0973 13.1613 97.1128 13.2282C97.4781 14.7563 98.0698 16.2175 98.8673 17.5707C98.9033 17.6324 98.8981 17.7096 98.857 17.7713L97.4318 19.7367C97.3906 19.7933 97.3186 19.8242 97.2517 19.8088C95.3686 19.428 93.3774 19.428 91.4943 19.8088C91.4274 19.8242 91.3554 19.7933 91.3143 19.7367L89.889 17.7713C89.8479 17.7147 89.8427 17.6324 89.8787 17.5707C90.6762 16.2175 91.2679 14.7563 91.6332 13.2282C91.6487 13.1613 91.7053 13.1098 91.7722 13.0944ZM84.9549 17.2414C86.2721 15.6567 87.9648 14.4218 89.8582 13.6758C89.8839 13.6655 89.9096 13.6604 89.9302 13.6604C89.9971 13.6604 90.0383 13.6964 90.0537 13.7118C90.0794 13.7376 90.136 13.7993 90.1051 13.897C89.7553 15.0135 89.2716 16.0786 88.6697 17.0716C88.6439 17.1127 88.6028 17.1436 88.5565 17.1539C87.4297 17.4214 86.2669 17.5552 85.099 17.5398C84.9909 17.5398 84.9446 17.4574 84.9343 17.4317C84.9189 17.4009 84.8931 17.3185 84.96 17.2414H84.9549ZM83.8075 18.8775C83.8384 18.8209 83.9001 18.7849 83.967 18.7849C83.967 18.7849 83.9773 18.7849 83.9825 18.7849C85.5517 18.9084 87.1261 18.8003 88.6542 18.4607C88.7263 18.4453 88.7983 18.471 88.8395 18.5328L90.2749 20.5085C90.3161 20.5651 90.3213 20.6423 90.2904 20.6989C89.3746 22.4071 88.7777 24.2439 88.5153 26.163C88.505 26.2299 88.4587 26.2864 88.3918 26.3122L86.0714 27.0685C86.0045 27.0891 85.9273 27.0685 85.881 27.0171C84.8417 25.8388 83.6377 24.8304 82.2949 24.0072C82.2383 23.9712 82.2023 23.9043 82.2074 23.8322C82.3823 22.0675 82.9226 20.4005 83.8127 18.8826L83.8075 18.8775ZM84.3684 31.555C84.3375 31.6528 84.25 31.6734 84.214 31.6785C84.178 31.6785 84.0957 31.6785 84.0391 31.5962C82.9432 29.8726 82.2949 27.8763 82.1662 25.8285C82.1611 25.7256 82.228 25.6742 82.2589 25.6587C82.2897 25.6433 82.372 25.6073 82.4544 25.669C83.4062 26.343 84.2706 27.1354 85.0269 28.0152C85.0578 28.0512 85.0732 28.0975 85.0681 28.149C84.9755 29.3066 84.7388 30.454 84.3632 31.5602L84.3684 31.555ZM89.4517 36.2525C87.8465 35.5476 86.4315 34.5135 85.2482 33.186C85.2018 33.1346 85.1864 33.0574 85.2122 32.9957C85.8141 31.5447 86.1949 30.0166 86.3441 28.4525C86.3492 28.3805 86.4007 28.3188 86.4676 28.2982L88.7623 27.5521C88.7623 27.5521 88.7983 27.5419 88.8189 27.5419C88.8703 27.5419 88.9166 27.5624 88.9526 27.6036C90.2389 29.0442 91.8493 30.2173 93.6141 30.9942C93.681 31.0251 93.7222 31.0868 93.7222 31.1589V33.5719C93.7222 33.6439 93.681 33.7108 93.6141 33.7366C92.1735 34.3591 90.8358 35.1978 89.6369 36.2216C89.5855 36.268 89.5083 36.2782 89.4466 36.2474L89.4517 36.2525ZM97.545 36.7619C97.5398 36.7979 97.5141 36.8802 97.4112 36.906C95.4252 37.4102 93.326 37.4102 91.34 36.906C91.2422 36.8802 91.2113 36.7979 91.2062 36.7619C91.201 36.7259 91.1908 36.6435 91.2782 36.5767C92.2146 35.8821 93.2334 35.3007 94.3087 34.853C94.355 34.8325 94.4013 34.8325 94.4476 34.853C95.5178 35.3007 96.5365 35.8821 97.4781 36.5767C97.5604 36.6384 97.5553 36.7259 97.5501 36.7619H97.545ZM103.508 33.1912C102.325 34.5186 100.91 35.5476 99.3046 36.2525C99.2377 36.2834 99.1657 36.268 99.1142 36.2268C97.9154 35.2029 96.5828 34.3643 95.1371 33.7417C95.0702 33.7108 95.029 33.6491 95.029 33.5771V31.164C95.029 31.092 95.0702 31.0251 95.1371 30.9994C96.9018 30.2224 98.5174 29.0494 99.7985 27.6088C99.8345 27.5676 99.8808 27.547 99.9323 27.547C99.9529 27.547 99.9683 27.547 99.9889 27.5573L102.284 28.3033C102.35 28.3239 102.402 28.3856 102.407 28.4577C102.556 30.0218 102.937 31.5447 103.539 33.0008C103.565 33.0625 103.554 33.1397 103.503 33.1912H103.508ZM104.712 31.6013C104.655 31.6888 104.568 31.6888 104.537 31.6837C104.501 31.6837 104.419 31.6579 104.383 31.5602C104.012 30.454 103.776 29.3066 103.678 28.149C103.678 28.1027 103.688 28.0512 103.719 28.0152C104.475 27.1354 105.34 26.3482 106.292 25.669C106.328 25.6433 106.364 25.633 106.395 25.633C106.436 25.633 106.467 25.6484 106.487 25.6587C106.518 25.6742 106.59 25.7256 106.58 25.8285C106.451 27.8763 105.803 29.8726 104.707 31.5962L104.712 31.6013Z" fill="white"/>
            <path d="M33.3412 49.6169C27.0642 49.6169 20.7923 47.2296 16.0125 42.4498C6.45807 32.8953 6.45807 17.352 16.0125 7.79754C20.6431 3.16695 26.7967 0.620117 33.3412 0.620117C39.8858 0.620117 46.0393 3.16695 50.6699 7.79754C60.2244 17.352 60.2244 32.8953 50.6699 42.4498C45.8953 47.2245 39.6182 49.6169 33.3412 49.6169ZM17.2988 41.1635C26.1432 50.008 40.5341 50.008 49.3785 41.1635C58.2229 32.3191 58.2229 17.9282 49.3785 9.08382C45.0926 4.79795 39.397 2.4415 33.3361 2.4415C27.2751 2.4415 21.5795 4.80309 17.2936 9.08382C8.44922 17.9282 8.44922 32.3191 17.2936 41.1635H17.2988Z" fill="#9DADF2"/>
            <path d="M33.0165 34.2949C33.104 34.5059 33.3098 34.6294 33.5259 34.6294C33.5979 34.6294 33.67 34.6139 33.742 34.5882C35.4708 33.8627 37.0452 32.7411 38.2903 31.3416C38.4909 31.1153 38.4704 30.7654 38.244 30.5647C38.0176 30.3641 37.6677 30.3847 37.4671 30.611C36.33 31.8922 34.8945 32.916 33.315 33.5746C33.0371 33.6929 32.9034 34.0171 33.0217 34.2949H33.0165Z" fill="#9DADF2"/>
            <path d="M42.6782 16.6521L33.5405 12.999C33.4068 12.9476 33.2627 12.9476 33.1289 12.999L23.9912 16.6521C23.7803 16.7344 23.6465 16.9351 23.6465 17.1614V23.706C23.6568 29.7463 27.4745 35.2053 33.1444 37.2839C33.2061 37.3045 33.2678 37.3148 33.3347 37.3148C33.4016 37.3148 33.4633 37.3045 33.5251 37.2839C39.195 35.2002 43.0127 29.7463 43.023 23.706V17.1614C43.023 16.9351 42.8892 16.7344 42.6782 16.6521ZM41.9219 23.706C41.9116 29.201 38.4644 34.2071 33.3399 36.1777C28.2153 34.2071 24.763 29.201 24.7527 23.706V17.537L33.3399 14.1052L41.9219 17.537V23.706Z" fill="#9DADF2"/>
            <path d="M29.5231 17.5114C29.3893 17.4548 29.2401 17.4548 29.1012 17.5114L26.9248 18.381C26.7139 18.4633 26.5801 18.6639 26.5801 18.8903V21.2108C26.5801 21.5143 26.827 21.7613 27.1306 21.7613C27.4342 21.7613 27.6811 21.5143 27.6811 21.2108V19.2659L29.5076 18.5353C29.6466 18.4787 29.7495 18.3758 29.8112 18.2369C29.8678 18.1031 29.8678 17.9539 29.8112 17.815C29.7546 17.6761 29.6517 17.5732 29.5179 17.5114H29.5231Z" fill="#9DADF2"/>
            <path d="M47.2526 11.2086C43.5378 7.48866 38.5934 5.44604 33.3351 5.44604C28.0768 5.44604 23.1375 7.4938 19.4176 11.2086C11.7462 18.8799 11.7462 31.3671 19.4176 39.0436C23.2558 42.8818 28.2929 44.7958 33.3351 44.7958C38.3773 44.7958 43.4143 42.8767 47.2526 39.0436C54.9239 31.3722 54.9239 18.8851 47.2526 11.2086ZM44.5308 23.706C44.5463 30.6879 40.0854 36.7951 33.4328 38.9098C33.3711 38.9304 33.3042 38.9304 33.2373 38.9098C26.5847 36.7951 22.1239 30.6879 22.1393 23.706V15.9832C22.1393 15.8546 22.2165 15.7363 22.34 15.6848L33.2167 11.3372C33.2528 11.3218 33.2939 11.3166 33.3351 11.3166C33.3762 11.3166 33.4174 11.3218 33.4534 11.3372L44.3301 15.69C44.4536 15.7363 44.5308 15.8546 44.5308 15.9884V23.7112V23.706Z" fill="#9DADF2"/>
        </g>
        <g opacity="0.6">
            <path d="M289.697 99.9396C280.063 90.3057 280.063 74.6317 289.697 64.9977C299.331 55.3637 315.005 55.3637 324.639 64.9977C334.273 74.6317 334.273 90.3057 324.639 99.9396C315.005 109.574 299.331 109.574 289.697 99.9396ZM323.475 66.1621C314.483 57.1701 299.854 57.1701 290.864 66.1621C281.872 75.1542 281.872 89.7832 290.864 98.7729C299.856 107.765 314.485 107.765 323.475 98.7729C332.467 89.7809 332.467 75.1518 323.475 66.1621Z" fill="white"/>
            <path d="M323.741 77.2277C323.655 77.1411 323.584 77.0309 323.544 76.9091C322.689 74.3788 321.293 72.1366 319.395 70.2389C317.5 68.3435 315.255 66.9471 312.725 66.0896C312.39 65.9748 312.165 65.6632 312.165 65.3094V59.3046C312.165 59.0516 312.282 58.8126 312.481 58.6556C312.683 58.4986 312.943 58.4448 313.187 58.5057C317.512 59.5881 321.471 61.8326 324.634 64.9978C327.797 68.1631 330.041 72.1202 331.124 76.4452C331.185 76.6912 331.128 76.9513 330.974 77.1528C330.817 77.3543 330.578 77.4691 330.325 77.4691H324.32C324.095 77.4691 323.889 77.3777 323.737 77.2254L323.741 77.2277ZM320.56 69.0745C322.495 71.0097 323.954 73.2776 324.906 75.822H329.249C328.158 72.1858 326.173 68.8636 323.472 66.1622C320.77 63.4609 317.448 61.4765 313.814 60.387V64.7307C316.359 65.6796 318.627 67.1392 320.562 69.0768L320.56 69.0745Z" fill="white"/>
            <path d="M289.697 99.9398C286.534 96.7769 284.287 92.8174 283.205 88.4925C283.144 88.2465 283.2 87.9864 283.355 87.7872C283.512 87.5858 283.751 87.4709 284.004 87.4709H290.009C290.362 87.4709 290.676 87.6959 290.789 88.0309C291.644 90.5612 293.04 92.8034 294.938 94.7011C296.833 96.5965 299.078 97.9929 301.608 98.8504C301.943 98.9628 302.168 99.2768 302.168 99.6306V105.635C302.168 105.888 302.051 106.127 301.852 106.284C301.65 106.441 301.39 106.495 301.144 106.434C296.819 105.352 292.862 103.107 289.697 99.9445V99.9398ZM285.084 89.1157C286.176 92.7518 288.16 96.0741 290.861 98.7754C293.563 101.477 296.885 103.461 300.521 104.553V100.209C297.977 99.2604 295.709 97.8008 293.774 95.8655C291.838 93.9303 290.379 91.6624 289.427 89.118H285.084V89.1157Z" fill="white"/>
            <path d="M312.41 106.214C312.256 106.059 312.169 105.851 312.169 105.631V99.6257C312.169 99.2719 312.394 98.958 312.729 98.8455C315.259 97.9903 317.501 96.594 319.399 94.6962C321.297 92.7985 322.691 90.5563 323.548 88.026C323.661 87.691 323.975 87.4661 324.329 87.4661H330.333C330.586 87.4661 330.825 87.5832 330.982 87.7823C331.139 87.9815 331.193 88.2439 331.132 88.4876C330.048 92.8125 327.803 96.7697 324.64 99.9349C321.477 103.1 317.518 105.345 313.193 106.427C312.947 106.488 312.687 106.432 312.488 106.277C312.462 106.254 312.436 106.233 312.413 106.209L312.41 106.214ZM313.816 100.207V104.55C317.452 103.459 320.774 101.474 323.476 98.7729C326.177 96.0715 328.159 92.7493 329.253 89.1131H324.91C323.961 91.6575 322.501 93.9231 320.564 95.8606C318.628 97.7959 316.36 99.2579 313.816 100.207Z" fill="white"/>
            <path d="M283.421 77.2276C283.397 77.2042 283.374 77.1784 283.355 77.1526C283.198 76.9535 283.144 76.6911 283.205 76.4451C284.288 72.1201 286.532 68.1606 289.697 64.9977C292.863 61.8348 296.82 59.588 301.145 58.5055C301.391 58.4446 301.651 58.5009 301.85 58.6555C302.049 58.8125 302.166 59.0514 302.166 59.3045V65.3093C302.166 65.6631 301.941 65.977 301.606 66.0895C299.076 66.9446 296.834 68.341 294.936 70.2388C293.041 72.1342 291.644 74.3787 290.787 76.909C290.674 77.244 290.36 77.4689 290.007 77.4689H284.002C283.781 77.4689 283.571 77.3822 283.418 77.23L283.421 77.2276ZM300.519 60.3869C296.883 61.4787 293.561 63.4631 290.859 66.1645C288.158 68.8658 286.176 72.1881 285.082 75.8242H289.426C290.374 73.2798 291.834 71.0143 293.772 69.0767C295.707 67.1415 297.975 65.6818 300.519 64.7306V60.3869Z" fill="white"/>
            <path d="M320.562 69.0744C313.177 61.6896 301.158 61.6872 293.773 69.0744C286.386 76.4615 286.388 88.4782 293.773 95.8631C301.158 103.248 313.174 103.25 320.562 95.8631C327.949 88.4759 327.946 76.4592 320.562 69.0744Z" fill="white"/>
            <path d="M314.001 89.2298L300.393 89.32C299.82 89.3238 299.359 89.7916 299.362 90.3648L299.366 90.8498C299.369 91.423 299.837 91.8845 300.41 91.8807L314.018 91.7905C314.591 91.7867 315.052 91.3189 315.049 90.7457L315.045 90.2608C315.042 89.6876 314.574 89.226 314.001 89.2298Z" fill="#110A1D"/>
            <path d="M302.247 81.0162C302.1 81.0162 301.95 80.9834 301.814 80.9178L300.752 80.4047C300.291 80.1798 300.08 79.6339 300.272 79.1583L300.759 77.9446C300.909 77.5745 301.263 77.3332 301.661 77.3308C301.832 77.3308 302.001 77.373 302.151 77.4597L303.416 78.1813C303.653 78.3148 303.824 78.5468 303.885 78.8139C303.946 79.0809 303.892 79.3621 303.737 79.587L303.044 80.5921C302.863 80.8545 302.563 81.0138 302.245 81.0138L302.247 81.0162Z" fill="#110A1D"/>
            <path d="M312.043 80.9507C311.724 80.9507 311.422 80.7984 311.239 80.5384L310.553 79.5708C310.393 79.3482 310.337 79.067 310.393 78.7999C310.45 78.5328 310.618 78.2986 310.855 78.1603L312.16 77.3942C312.307 77.3075 312.476 77.2607 312.647 77.2583C313.045 77.256 313.404 77.4926 313.559 77.8604L314.051 79.0389C314.247 79.5122 314.044 80.0628 313.587 80.2924L312.476 80.8476C312.343 80.9132 312.193 80.9507 312.045 80.9507H312.043Z" fill="#110A1D"/>
            <path d="M301.179 88.4103C300.581 88.4149 300.045 88.0401 299.841 87.4778L297.571 81.2293C297.425 81.2996 297.271 81.3535 297.114 81.3933C296.929 81.4401 296.741 81.4636 296.552 81.4636C296.441 81.4636 296.334 81.4589 296.228 81.4448C295.045 81.2949 294.148 80.2804 294.141 79.0855C294.131 77.7641 295.2 76.6817 296.521 76.6724C297.842 76.663 298.925 77.7314 298.932 79.0527C298.932 79.3573 298.88 79.6502 298.773 79.9243C298.714 80.0742 298.641 80.2172 298.557 80.353L302.875 82.4429L306.178 77.6564C306.04 77.5978 305.907 77.5252 305.78 77.4385C305.541 77.2768 305.333 77.0753 305.164 76.8387C304.878 76.4357 304.724 75.9601 304.721 75.4681C304.712 74.1467 305.78 73.0643 307.102 73.0549C307.16 73.0549 307.221 73.0549 307.28 73.0596C308.463 73.1393 309.419 74.0881 309.505 75.2713C309.545 75.8313 309.398 76.3678 309.079 76.8246C308.91 77.0636 308.704 77.2675 308.467 77.4291C308.343 77.5158 308.21 77.5884 308.072 77.647L311.434 82.3843L315.681 80.2593C315.602 80.107 315.538 79.9477 315.491 79.7814C315.435 79.5799 315.405 79.369 315.405 79.1558C315.405 79.0598 315.409 78.9637 315.419 78.87C315.555 77.6657 316.572 76.752 317.783 76.745C319.104 76.7356 320.187 77.804 320.194 79.1254C320.203 80.3858 319.224 81.4448 317.966 81.5315L317.816 81.5362C317.572 81.5362 317.333 81.5034 317.101 81.4331C316.951 81.3863 316.806 81.3277 316.67 81.2527L314.538 87.3794C314.343 87.944 313.809 88.3236 313.212 88.3283L301.179 88.4079V88.4103Z" fill="#110A1D"/>
            <path d="M244.262 107.169C237.985 107.169 231.713 104.782 226.933 100.002C217.379 90.4476 217.379 74.9042 226.933 65.3498C231.564 60.7192 237.718 58.1724 244.262 58.1724C250.807 58.1724 256.96 60.7192 261.591 65.3498C271.145 74.9042 271.145 90.4476 261.591 100.002C256.816 104.777 250.539 107.169 244.262 107.169ZM228.22 98.7158C237.064 107.56 251.455 107.56 260.299 98.7158C269.144 89.8713 269.144 75.4805 260.299 66.6361C256.014 62.3502 250.318 59.9937 244.257 59.9937C238.196 59.9937 232.5 62.3553 228.215 66.6361C219.37 75.4805 219.37 89.8713 228.215 98.7158H228.22Z" fill="#7DDACF"/>
            <path d="M245.169 77.5181L240.631 83.8774H243.353V88.4154L247.891 82.0612H245.169V77.5181Z" fill="#7DDACF"/>
            <path d="M244.257 73.9832C239.287 73.9832 235.253 78.0169 235.253 82.9871C235.253 87.9573 239.287 91.9807 244.257 91.9807C249.227 91.9807 253.261 87.947 253.261 82.9871C253.261 78.0272 249.227 73.9832 244.257 73.9832ZM244.257 90.8694C239.894 90.8694 236.354 87.3296 236.354 82.9665C236.354 78.6035 239.894 75.0636 244.257 75.0636C248.62 75.0636 252.16 78.6035 252.16 82.9665C252.16 87.3296 248.62 90.8694 244.257 90.8694Z" fill="#7DDACF"/>
            <path d="M258.175 68.7611C254.461 65.0411 249.516 62.9985 244.258 62.9985C239 62.9985 234.06 65.0463 230.34 68.7611C222.669 76.4324 222.669 88.9196 230.34 96.596C234.179 100.434 239.216 102.353 244.258 102.353C249.3 102.353 254.337 100.434 258.175 96.596C265.847 88.9247 265.847 76.4375 258.175 68.7611ZM244.258 95.2017C237.528 95.2017 232.049 89.7222 232.049 82.9924C232.049 80.0185 233.114 77.2916 234.884 75.1616L233.391 73.6695C232.964 73.2424 232.964 72.5479 233.391 72.1157C233.819 71.6835 234.513 71.6886 234.945 72.1157L236.437 73.6077C238.29 72.0591 240.62 71.0403 243.162 70.8242V69.8158H242.154C241.263 69.8158 240.528 69.0801 240.528 68.19V67.341C240.528 66.4406 241.263 65.7152 242.154 65.7152H246.373C247.263 65.7152 247.998 66.4406 247.998 67.341V68.19C247.998 69.0801 247.263 69.8158 246.373 69.8158H245.364V70.8242C247.911 71.0455 250.237 72.0642 252.089 73.6077L253.581 72.1157C254.008 71.6886 254.702 71.6886 255.135 72.1157C255.562 72.5427 255.562 73.2373 255.135 73.6695L253.643 75.1616C255.412 77.2916 256.478 80.0134 256.478 82.9924C256.478 89.7222 250.998 95.2017 244.268 95.2017H244.258Z" fill="#7DDACF"/>
            <path d="M185.8 107.66C172.294 107.66 161.31 96.6697 161.31 83.1689C161.31 69.6682 172.3 58.6782 185.8 58.6782C199.301 58.6782 210.291 69.6682 210.291 83.1689C210.291 96.6697 199.301 107.66 185.8 107.66ZM185.8 60.3092C173.195 60.3092 162.941 70.5634 162.941 83.1689C162.941 95.7744 173.195 106.029 185.8 106.029C198.406 106.029 208.66 95.7744 208.66 83.1689C208.66 70.5634 198.406 60.3092 185.8 60.3092Z" fill="white"/>
            <path d="M201.78 65.6925L194.198 73.2744L195.69 74.7661L203.272 67.1842L201.78 65.6925Z" fill="white"/>
            <path d="M175.682 91.7917L168.101 99.3735L169.592 100.865L177.174 93.2833L175.682 91.7917Z" fill="white"/>
            <path d="M195.92 91.7904L194.429 93.282L202.011 100.864L203.502 99.3722L195.92 91.7904Z" fill="white"/>
            <path d="M169.598 65.4632L168.106 66.9548L175.685 74.5331L177.176 73.0414L169.598 65.4632Z" fill="white"/>
            <path d="M191.78 83.8273C192.274 83.3334 192.274 82.5359 191.78 82.0471L190.731 81.0027C190.237 80.5087 189.439 80.5087 188.95 81.0027L188.384 81.5686L187.731 80.9152C187.237 80.4213 186.44 80.4213 185.951 80.9152L185.385 81.4863L184.731 80.8277C184.238 80.3338 183.44 80.3338 182.951 80.8277L179.478 84.3007C179.453 84.3264 179.453 84.3676 179.478 84.3984C179.941 84.8615 180.698 84.8615 181.166 84.3984L183.404 82.1603C183.646 81.9185 184.037 81.9185 184.279 82.1603L184.443 82.3249C184.474 82.3558 184.474 82.4021 184.443 82.433L182.576 84.3007C182.55 84.3264 182.55 84.3676 182.576 84.3984C183.039 84.8615 183.795 84.8615 184.263 84.3984L186.409 82.2529C186.651 82.0111 187.042 82.0111 187.283 82.2529L187.448 82.4176C187.474 82.4433 187.474 82.4844 187.448 82.5153L185.647 84.3161C185.622 84.3418 185.622 84.383 185.647 84.4139C186.11 84.8769 186.867 84.8769 187.335 84.4139L189.408 82.3404C189.65 82.0986 190.041 82.0986 190.283 82.3404L190.638 82.6954C190.777 82.8343 190.777 83.0658 190.638 83.2048L190.581 83.2614C190.443 83.4003 190.211 83.4003 190.072 83.2614L189.614 82.8034C189.588 82.7777 189.547 82.7777 189.516 82.8034L188.724 83.5958C188.698 83.6215 188.698 83.6627 188.724 83.6935L189.439 84.4087C189.933 84.9026 190.731 84.9026 191.219 84.4087L191.785 83.8428L191.78 83.8273Z" fill="white"/>
            <path d="M185.801 64.384C175.429 64.384 167.021 72.7911 167.021 83.1637C167.021 93.5362 175.429 101.943 185.801 101.943C196.174 101.943 204.581 93.5362 204.581 83.1637C204.581 72.7911 196.174 64.384 185.801 64.384ZM186.568 70.1826C189.583 70.3575 192.32 71.5614 194.44 73.4445L191.728 76.156C190.313 74.9572 188.528 74.1803 186.568 74.0157V70.1826ZM185.04 70.1826V74.0157C183.079 74.1752 181.294 74.9572 179.879 76.156L177.168 73.4445C179.287 71.5614 182.025 70.3575 185.04 70.1826ZM176.087 74.525L178.799 77.2365C177.6 78.6514 176.823 80.4368 176.658 82.397H172.825C173 79.382 174.204 76.6448 176.087 74.525ZM172.825 83.9251H176.658C176.818 85.8854 177.6 87.6708 178.799 89.0857L176.087 91.7971C174.204 89.6774 173 86.9402 172.825 83.9251ZM185.04 96.1396C182.025 95.9647 179.287 94.7607 177.168 92.8776L179.879 90.1661C181.294 91.3649 183.079 92.1419 185.04 92.3065V96.1396ZM177.909 83.1585C177.909 78.8006 181.443 75.2659 185.801 75.2659C190.159 75.2659 193.694 78.8006 193.694 83.1585C193.694 87.5164 190.159 91.0511 185.801 91.0511C181.443 91.0511 177.909 87.5164 177.909 83.1585ZM186.568 96.1396V92.3065C188.528 92.147 190.313 91.3649 191.728 90.1661L194.44 92.8776C192.32 94.7607 189.583 95.9647 186.568 96.1396ZM195.52 91.7971L192.809 89.0857C194.008 87.6708 194.784 85.8854 194.949 83.9251H198.782C198.607 86.9402 197.403 89.6774 195.52 91.7971ZM194.949 82.397C194.79 80.4368 194.008 78.6514 192.809 77.2365L195.52 74.525C197.403 76.6448 198.607 79.382 198.782 82.397H194.949Z" fill="white"/>
            <path d="M59.5847 107.389C46.0788 107.389 35.0889 96.3994 35.0889 82.8935C35.0889 69.3877 46.0788 58.3977 59.5847 58.3977C73.0906 58.3977 84.0805 69.3877 84.0805 82.8935C84.0805 96.3994 73.0906 107.389 59.5847 107.389ZM59.5847 60.1625C47.0512 60.1625 36.8536 70.3601 36.8536 82.8935C36.8536 95.427 47.0512 105.625 59.5847 105.625C72.1182 105.625 82.3157 95.427 82.3157 82.8935C82.3157 70.3601 72.1182 60.1625 59.5847 60.1625Z" fill="#478BF9"/>
            <path d="M119.469 107.39C118.98 107.39 118.589 106.994 118.589 106.511C118.589 106.027 118.985 105.631 119.469 105.631C132.002 105.631 142.2 95.4331 142.2 82.8997C142.2 70.3662 132.002 60.1686 119.469 60.1686C118.98 60.1686 118.589 59.7724 118.589 59.2888C118.589 58.8051 118.985 58.409 119.469 58.409C132.975 58.409 143.965 69.3989 143.965 82.9048C143.965 96.4107 132.975 107.401 119.469 107.401V107.39Z" fill="#478BF9"/>
            <path d="M83.8828 81.9214H73.1553V84.036H83.8828V81.9214Z" fill="#478BF9"/>
            <path d="M46.9463 81.9214H36.2188V84.036H46.9463V81.9214Z" fill="#478BF9"/>
            <path d="M61.2767 96.2454H59.1621V106.973H61.2767V96.2454Z" fill="#478BF9"/>
            <path d="M61.2767 58.9844H59.1621V69.7119H61.2767V58.9844Z" fill="#478BF9"/>
            <path d="M72.8313 69.5576C65.4944 62.2207 53.5938 62.2207 46.2517 69.5576C38.9148 76.8945 38.9148 88.7952 46.2517 96.1372C53.5886 103.474 65.4893 103.474 72.8313 96.1372C80.1682 88.8003 80.1682 76.8997 72.8313 69.5576ZM63.174 71.1475C65.3143 71.8112 67.2334 73.0511 68.7255 74.7387L69.0136 75.0629L68.5918 75.1606C67.4753 75.423 66.2816 75.6391 65.0468 75.7986L64.8255 75.8295L64.7638 75.6134C64.558 74.9085 64.3162 74.2294 64.0383 73.6017C63.6936 72.8145 63.3077 72.125 62.8858 71.5436L62.4228 70.9108L63.174 71.1423V71.1475ZM54.5868 82.2609L54.5971 81.9933C54.6485 80.3675 54.8286 78.8137 55.1373 77.3833L55.1836 77.1569L55.4151 77.1775C58.1215 77.4142 61.013 77.4039 63.7039 77.1518L63.9354 77.1312L63.9869 77.3576C64.3007 78.8034 64.4808 80.3623 64.5271 81.9933V82.2609H54.5919H54.5868ZM64.5271 83.4545V83.7221C64.4705 85.3531 64.2904 86.912 63.9766 88.3578L63.9252 88.5842L63.6936 88.5636C61.0027 88.3115 58.1112 88.3064 55.4049 88.5379L55.1733 88.5585L55.127 88.3321C54.8183 86.9018 54.6382 85.3531 54.5868 83.7221L54.5765 83.4545H64.5168H64.5271ZM59.557 70.6998C61.0542 70.6998 62.5771 72.5984 63.529 75.6597L63.6267 75.9684L63.3026 75.9941C62.0369 76.1022 60.73 76.1588 59.418 76.1588C58.1987 76.1588 56.9844 76.1125 55.801 76.0147L55.4769 75.989L55.5746 75.6752C56.5265 72.6035 58.0546 70.6947 59.557 70.6947V70.6998ZM50.3369 74.7953C51.8393 73.082 53.7739 71.8215 55.9399 71.1526L56.6963 70.9211L56.2281 71.5591C55.8062 72.1353 55.4151 72.8299 55.0756 73.612C54.8029 74.2294 54.5559 74.9188 54.3398 75.6597L54.2781 75.8707L54.0569 75.8449C52.8117 75.6906 51.6078 75.4848 50.4759 75.2224L50.0488 75.1246L50.3369 74.7953ZM47.3322 81.9831C47.4763 79.9765 48.1194 78.0213 49.1947 76.3183L49.2976 76.1588L49.4828 76.2051C50.8 76.5395 52.22 76.8071 53.7121 76.9974L53.99 77.0335L53.9333 77.3113C53.6246 78.8034 53.4497 80.3829 53.4034 82.0088V82.2609H47.3167L47.3374 81.9831H47.3322ZM49.2976 89.5566L49.1947 89.3971C48.1194 87.6992 47.4763 85.739 47.3322 83.7324L47.3116 83.4545H53.3931V83.7066C53.4446 85.3325 53.6247 86.9172 53.9282 88.4041L53.9848 88.682L53.707 88.718C52.22 88.9083 50.7948 89.1759 49.4777 89.5103L49.2925 89.5566H49.2976ZM55.9399 94.568C53.7739 93.8991 51.8393 92.6386 50.3369 90.9252L50.0488 90.5959L50.4759 90.4982C51.6078 90.2409 52.8117 90.03 54.0569 89.8756L54.2781 89.8499L54.3398 90.0609C54.5559 90.8018 54.8029 91.4912 55.0756 92.1086C55.4203 92.8958 55.8062 93.5853 56.2281 94.1667L56.6963 94.8046L55.9399 94.5731V94.568ZM59.557 95.0156C58.0546 95.0156 56.5265 93.1067 55.5746 90.0351L55.4769 89.7213L55.801 89.6956C58.2552 89.5 60.869 89.5052 63.3026 89.7161L63.6267 89.7418L63.529 90.0506C62.572 93.1068 61.049 95.0105 59.557 95.0105V95.0156ZM68.7255 90.9767C67.2334 92.6643 65.3092 93.9042 63.174 94.568L62.4228 94.7995L62.8858 94.1667C63.3077 93.5904 63.6936 92.8958 64.0383 92.1086C64.311 91.4758 64.558 90.8017 64.7638 90.0969L64.8255 89.8808L65.0468 89.9116C66.2816 90.0711 67.4753 90.2872 68.5918 90.5496L69.0136 90.6525L68.7255 90.9767ZM71.7766 83.7324C71.6325 85.7595 70.9791 87.7404 69.878 89.4589L69.7751 89.6184L69.5899 89.5721C68.2882 89.2274 66.8733 88.9547 65.3915 88.754L65.1137 88.718L65.1703 88.4453C65.479 86.9532 65.659 85.3634 65.7053 83.7118V83.4597H71.792L71.7714 83.7375L71.7766 83.7324ZM65.7156 82.2609V82.0088C65.6642 80.3572 65.4841 78.7622 65.1754 77.2753L65.1188 77.0026L65.3966 76.9666C66.8784 76.7659 68.2882 76.4932 69.595 76.1485L69.7803 76.1022L69.8832 76.2617C70.9842 77.9802 71.6428 79.9559 71.7817 81.9882L71.8023 82.266H65.7208L65.7156 82.2609Z" fill="#478BF9"/>
            <path d="M119.839 107.42H60.7216C60.2328 107.42 59.8418 107.024 59.8418 106.54C59.8418 106.057 60.238 105.661 60.7216 105.661H119.839C120.328 105.661 120.719 106.057 120.719 106.54C120.719 107.024 120.322 107.42 119.839 107.42Z" fill="#478BF9"/>
            <path d="M119.973 60.1887H60.8554C60.3666 60.1887 59.9756 59.7926 59.9756 59.3089C59.9756 58.8253 60.3718 58.4291 60.8554 58.4291H119.973C120.461 58.4291 120.852 58.8253 120.852 59.3089C120.852 59.7926 120.456 60.1887 119.973 60.1887Z" fill="#478BF9"/>
            <path d="M-18.3673 100.824C-28.0013 91.1902 -28.0013 75.5162 -18.3673 65.8822C-8.7333 56.2482 6.94065 56.2482 16.5746 65.8822C26.2086 75.5162 26.2086 91.1902 16.5746 100.824C6.94065 110.458 -8.7333 110.458 -18.3673 100.824ZM15.4102 67.0466C6.41819 58.0546 -8.21084 58.0546 -17.2005 67.0466C-26.1926 76.0387 -26.1926 90.6677 -17.2005 99.6574C-8.2085 108.649 6.42054 108.649 15.4102 99.6574C24.4023 90.6654 24.4023 76.0363 15.4102 67.0466Z" fill="white"/>
            <path d="M15.6768 78.112C15.5902 78.0253 15.5199 77.9152 15.48 77.7934C14.6249 75.2631 13.2285 73.0209 11.3308 71.1232C9.43535 69.2278 7.19087 67.8314 4.66054 66.9739C4.32551 66.8591 4.10059 66.5475 4.10059 66.1937V60.1889C4.10059 59.9358 4.21772 59.6969 4.41687 59.5399C4.61836 59.3829 4.87842 59.329 5.12208 59.3899C9.44707 60.4724 13.4066 62.7169 16.5695 65.8821C19.7324 69.0474 21.9769 73.0045 23.0593 77.3295C23.1202 77.5755 23.064 77.8356 22.9094 78.037C22.7524 78.2385 22.5134 78.3533 22.2604 78.3533H16.2555C16.0306 78.3533 15.8244 78.262 15.6721 78.1097L15.6768 78.112ZM12.4952 69.9587C14.4304 71.894 15.89 74.1619 16.8412 76.7063H21.185C20.0932 73.0701 18.1088 69.7479 15.4074 67.0465C12.706 64.3452 9.38382 62.3607 5.74999 61.2713V65.615C8.29438 66.5639 10.5623 68.0235 12.4975 69.9611L12.4952 69.9587Z" fill="white"/>
            <path d="M4.34582 107.098C4.19119 106.944 4.10449 106.735 4.10449 106.515V100.51C4.10449 100.156 4.32941 99.8425 4.66445 99.73C7.19477 98.8749 9.43692 97.4785 11.3347 95.5808C13.2324 93.683 14.6264 91.4409 15.4839 88.9105C15.5964 88.5755 15.9103 88.3506 16.2641 88.3506H22.269C22.522 88.3506 22.761 88.4677 22.9179 88.6669C23.0749 88.866 23.1288 89.1284 23.0679 89.3721C21.9831 93.6971 19.7386 97.6542 16.5757 100.819C13.4128 103.985 9.45332 106.229 5.12834 107.312C4.88233 107.373 4.62227 107.316 4.42312 107.162C4.39735 107.138 4.37159 107.117 4.34816 107.094L4.34582 107.098ZM5.75155 101.091V105.435C9.38773 104.343 12.7099 102.359 15.4113 99.6574C18.1127 96.956 20.0948 93.6338 21.1889 89.9976H16.8452C15.8963 92.542 14.4366 94.8076 12.4991 96.7452C10.5638 98.6804 8.29594 100.142 5.75155 101.091Z" fill="white"/>
            <path d="M12.4971 69.9589C5.11227 62.5741 -6.90677 62.5718 -14.2916 69.9589C-21.6787 77.3461 -21.6764 89.3628 -14.2916 96.7476C-6.90677 104.132 5.10993 104.135 12.4971 96.7476C19.8842 89.3604 19.8819 77.3437 12.4971 69.9589Z" fill="white"/>
            <path d="M5.93613 90.1141L-7.67109 90.2043C-8.2443 90.2081 -8.7059 90.6759 -8.7021 91.2491L-8.69888 91.734C-8.69508 92.3072 -8.22731 92.7688 -7.65411 92.765L5.95311 92.6748C6.52632 92.671 6.98792 92.2032 6.98412 91.63L6.98091 91.145C6.9771 90.5718 6.50934 90.1102 5.93613 90.1141Z" fill="#110A1D"/>
            <path d="M3.97726 81.835C3.65862 81.835 3.35641 81.6827 3.17366 81.4226L2.48718 80.455C2.32786 80.2325 2.27165 79.9513 2.32788 79.6842C2.38411 79.4171 2.55279 79.1828 2.78942 79.0446L4.0944 78.2785C4.242 78.1918 4.41071 78.1449 4.58174 78.1426C4.98003 78.1403 5.3385 78.3769 5.49313 78.7447L5.98513 79.9232C6.18194 80.3965 5.97811 80.947 5.52124 81.1766L4.41071 81.7319C4.27717 81.7975 4.1272 81.835 3.9796 81.835H3.97726Z" fill="#110A1D"/>
            <path d="M-6.88671 89.2948C-7.48415 89.2995 -8.02066 88.9246 -8.22449 88.3623L-10.4947 82.1138C-10.64 82.1841 -10.7946 82.238 -10.9516 82.2778C-11.1367 82.3247 -11.3241 82.3481 -11.5139 82.3481C-11.624 82.3481 -11.7318 82.3434 -11.8372 82.3294C-13.0204 82.1794 -13.9177 81.1649 -13.9247 79.9701C-13.9341 78.6487 -12.8658 77.5663 -11.5444 77.5569C-10.223 77.5475 -9.14056 78.6159 -9.13354 79.9373C-9.13354 80.2418 -9.18509 80.5347 -9.29286 80.8088C-9.35144 80.9588 -9.42405 81.1017 -9.50839 81.2376L-5.19045 83.3274L-1.88695 78.5409C-2.02518 78.4823 -2.15874 78.4097 -2.28526 78.323C-2.52423 78.1613 -2.73275 77.9599 -2.90144 77.7232C-3.18727 77.3202 -3.34191 76.8446 -3.34425 76.3526C-3.35362 75.0312 -2.28526 73.9488 -0.963863 73.9395C-0.905291 73.9395 -0.844373 73.9395 -0.785801 73.9441C0.397361 74.0238 1.35326 74.9727 1.43995 76.1558C1.47978 76.7158 1.33219 77.2523 1.01355 77.7092C0.844866 77.9481 0.638666 78.152 0.402034 78.3136C0.277861 78.4003 0.144329 78.473 0.00609866 78.5315L3.36815 83.2689L7.61582 81.1439C7.53616 80.9916 7.47291 80.8322 7.42606 80.6659C7.36983 80.4644 7.33937 80.2535 7.33937 80.0403C7.33937 79.9443 7.34404 79.8482 7.35341 79.7545C7.4893 78.5503 8.50611 77.6365 9.71739 77.6295C11.0388 77.6201 12.1212 78.6885 12.1282 80.0099C12.1376 81.2704 11.1583 82.3294 9.90014 82.416L9.75019 82.4207C9.50653 82.4207 9.26757 82.3879 9.03562 82.3176C8.88568 82.2708 8.7404 82.2122 8.60451 82.1372L6.47248 88.2639C6.27802 88.8286 5.74383 89.2081 5.1464 89.2128L-6.88671 89.2924V89.2948Z" fill="#110A1D"/>
        </g>
        <g opacity="0.2">
            <path d="M341.411 164.833C327.905 164.833 316.92 153.843 316.92 140.342C316.92 126.841 327.91 115.852 341.411 115.852C354.911 115.852 365.901 126.841 365.901 140.342C365.901 153.843 354.911 164.833 341.411 164.833ZM341.411 117.483C328.805 117.483 318.551 127.737 318.551 140.342C318.551 152.948 328.805 163.202 341.411 163.202C354.016 163.202 364.27 152.948 364.27 140.342C364.27 127.737 354.016 117.483 341.411 117.483Z" fill="#9DADF2"/>
            <path d="M321.093 153.313C321.057 153.313 321.026 153.313 320.995 153.308C320.743 153.277 320.521 153.133 320.393 152.917C318.119 149.125 316.92 144.777 316.92 140.342C316.92 135.907 318.119 131.56 320.393 127.768C320.521 127.552 320.743 127.408 320.995 127.377C321.247 127.346 321.494 127.433 321.674 127.608L325.883 131.817C326.13 132.064 326.191 132.445 326.037 132.753C324.864 135.125 324.267 137.677 324.267 140.337C324.267 142.997 324.864 145.549 326.037 147.921C326.191 148.235 326.13 148.616 325.883 148.858L321.674 153.066C321.52 153.221 321.314 153.308 321.098 153.308L321.093 153.313ZM321.273 129.522C319.487 132.836 318.551 136.556 318.551 140.342C318.551 144.129 319.487 147.849 321.273 151.163L324.319 148.117C323.202 145.668 322.636 143.054 322.636 140.342C322.636 137.631 323.202 135.017 324.319 132.568L321.273 129.522Z" fill="#9DADF2"/>
            <path d="M280.949 116.008C294.455 116.008 305.445 126.998 305.445 140.504C305.445 154.01 294.455 165 280.949 165C267.443 165 256.453 154.01 256.453 140.504C256.453 126.998 267.443 116.008 280.949 116.008ZM280.949 163.235C293.482 163.235 303.68 153.038 303.68 140.504C303.68 127.971 293.482 117.773 280.949 117.773C268.415 117.773 258.218 127.971 258.218 140.504C258.218 153.038 268.415 163.235 280.949 163.235Z" fill="#478BF9"/>
            <path d="M221.07 116.007C221.559 116.007 221.95 116.403 221.95 116.887C221.95 117.37 221.554 117.767 221.07 117.767C208.537 117.767 198.339 127.964 198.339 140.498C198.339 153.031 208.537 163.229 221.07 163.229C221.559 163.229 221.95 163.625 221.95 164.108C221.95 164.592 221.554 164.988 221.07 164.988C207.564 164.988 196.574 153.998 196.574 140.492C196.574 126.987 207.564 115.997 221.07 115.997V116.007Z" fill="#478BF9"/>
            <path d="M276.236 136.171C276.236 137.072 276.849 137.854 277.723 138.07L279.385 138.487V134.211H278.202C277.121 134.211 276.241 135.091 276.241 136.171H276.236Z" fill="#478BF9"/>
            <path d="M282.522 146.786H283.705C284.786 146.786 285.665 145.906 285.665 144.825C285.665 143.925 285.053 143.143 284.178 142.927L282.517 142.51V146.786H282.522Z" fill="#478BF9"/>
            <path d="M280.954 120.566C269.964 120.566 261.017 129.509 261.017 140.504C261.017 151.499 269.959 160.441 280.954 160.441C291.949 160.441 300.891 151.499 300.891 140.504C300.891 129.509 291.949 120.566 280.954 120.566ZM288.816 137.355H285.672V135.78C285.672 134.916 284.967 134.206 284.098 134.206H282.523V139.269L284.946 139.876C287.221 140.447 288.81 142.479 288.81 144.826C288.81 147.64 286.521 149.93 283.707 149.93H282.523V153.912H279.379V149.93H277.805C275.202 149.93 273.087 147.815 273.087 145.211V143.637H276.231V145.211C276.231 146.076 276.936 146.786 277.805 146.786H279.379V141.723L276.956 141.116C274.682 140.545 273.092 138.513 273.092 136.166C273.092 133.352 275.382 131.062 278.196 131.062H279.379V127.08H282.523V131.062H284.098C286.701 131.062 288.816 133.177 288.816 135.78V137.355Z" fill="#478BF9"/>
            <path d="M220.694 115.978H279.811C280.3 115.978 280.691 116.374 280.691 116.857C280.691 117.341 280.295 117.737 279.811 117.737H220.694C220.205 117.737 219.814 117.341 219.814 116.857C219.814 116.374 220.211 115.978 220.694 115.978Z" fill="#478BF9"/>
            <path d="M220.565 163.202H279.683C280.171 163.202 280.562 163.598 280.562 164.082C280.562 164.566 280.166 164.962 279.683 164.962H220.565C220.077 164.962 219.686 164.566 219.686 164.082C219.686 163.598 220.082 163.202 220.565 163.202Z" fill="#478BF9"/>
            <path d="M156.953 164.915C150.676 164.915 144.404 162.528 139.624 157.748C130.069 148.193 130.069 132.65 139.624 123.096C144.254 118.465 150.408 115.918 156.953 115.918C163.497 115.918 169.651 118.465 174.281 123.096C183.836 132.65 183.836 148.193 174.281 157.748C169.507 162.523 163.23 164.915 156.953 164.915ZM140.91 156.462C149.755 165.306 164.145 165.306 172.99 156.462C181.834 147.617 181.834 133.226 172.99 124.382C168.704 120.096 163.008 117.74 156.947 117.74C150.886 117.74 145.191 120.101 140.905 124.382C132.061 133.226 132.061 147.617 140.905 156.462H140.91Z" fill="#9DADF2"/>
            <path d="M156.628 149.588C156.715 149.799 156.921 149.922 157.137 149.922C157.209 149.922 157.281 149.907 157.353 149.881C159.082 149.155 160.657 148.034 161.902 146.634C162.102 146.408 162.082 146.058 161.855 145.857C161.629 145.657 161.279 145.677 161.078 145.904C159.941 147.185 158.506 148.209 156.926 148.867C156.648 148.986 156.515 149.31 156.633 149.588H156.628Z" fill="#9DADF2"/>
            <path d="M166.29 131.95L157.152 128.297C157.018 128.246 156.874 128.246 156.74 128.297L147.603 131.95C147.392 132.033 147.258 132.233 147.258 132.46V139.004C147.268 145.045 151.086 150.504 156.756 152.582C156.817 152.603 156.879 152.613 156.946 152.613C157.013 152.613 157.075 152.603 157.136 152.582C162.806 150.498 166.624 145.045 166.634 139.004V132.46C166.634 132.233 166.5 132.033 166.29 131.95ZM165.533 139.004C165.523 144.499 162.076 149.505 156.951 151.476C151.827 149.505 148.374 144.499 148.364 139.004V132.835L156.951 129.404L165.533 132.835V139.004Z" fill="#9DADF2"/>
            <path d="M153.134 132.81C153.001 132.753 152.851 132.753 152.712 132.81L150.536 133.679C150.325 133.761 150.191 133.962 150.191 134.188V136.509C150.191 136.812 150.438 137.059 150.742 137.059C151.045 137.059 151.292 136.812 151.292 136.509V134.564L153.119 133.833C153.258 133.777 153.361 133.674 153.423 133.535C153.479 133.401 153.479 133.252 153.423 133.113C153.366 132.974 153.263 132.871 153.129 132.81H153.134Z" fill="#9DADF2"/>
            <path d="M170.87 126.507C167.155 122.787 162.211 120.744 156.952 120.744C151.694 120.744 146.755 122.792 143.035 126.507C135.363 134.178 135.363 146.665 143.035 154.342C146.873 158.18 151.91 160.094 156.952 160.094C161.994 160.094 167.032 158.175 170.87 154.342C178.541 146.67 178.541 134.183 170.87 126.507ZM168.148 139.004C168.163 145.986 163.703 152.093 157.05 154.208C156.988 154.228 156.921 154.228 156.854 154.208C150.202 152.093 145.741 145.986 145.757 139.004V131.281C145.757 131.153 145.834 131.034 145.957 130.983L156.834 126.635C156.87 126.62 156.911 126.615 156.952 126.615C156.993 126.615 157.035 126.62 157.071 126.635L167.947 130.988C168.071 131.034 168.148 131.153 168.148 131.286V139.009V139.004Z" fill="#9DADF2"/>
            <path d="M94.3754 164.907C80.8695 164.907 69.8848 153.917 69.8848 140.416C69.8848 126.916 80.8747 115.926 94.3754 115.926C107.876 115.926 118.866 126.916 118.866 140.416C118.866 153.917 107.876 164.907 94.3754 164.907ZM94.3754 117.557C81.7699 117.557 71.5158 127.811 71.5158 140.416C71.5158 153.022 81.7699 163.276 94.3754 163.276C106.981 163.276 117.235 153.022 117.235 140.416C117.235 127.811 106.981 117.557 94.3754 117.557Z" fill="#7DDACF"/>
            <path d="M110.357 122.941L102.775 130.523L104.267 132.015L111.849 124.433L110.357 122.941Z" fill="#7DDACF"/>
            <path d="M84.2576 149.04L76.6758 156.622L78.1674 158.113L85.7493 150.532L84.2576 149.04Z" fill="#7DDACF"/>
            <path d="M104.49 149.044L102.998 150.535L110.58 158.117L112.072 156.626L104.49 149.044Z" fill="#7DDACF"/>
            <path d="M78.1655 122.716L76.6738 124.208L84.2521 131.786L85.7437 130.295L78.1655 122.716Z" fill="#7DDACF"/>
            <path d="M100.349 141.075C100.843 140.581 100.843 139.783 100.349 139.295L99.299 138.25C98.805 137.756 98.0076 137.756 97.5188 138.25L96.9528 138.816L96.2994 138.163C95.8055 137.669 95.008 137.669 94.5192 138.163L93.9532 138.734L93.2998 138.075C92.8059 137.581 92.0084 137.581 91.5196 138.075L88.0466 141.548C88.0209 141.574 88.0209 141.615 88.0466 141.646C88.5097 142.109 89.266 142.109 89.7342 141.646L91.9724 139.408C92.2142 139.166 92.6052 139.166 92.847 139.408L93.0117 139.573C93.0425 139.603 93.0425 139.65 93.0117 139.681L91.144 141.548C91.1183 141.574 91.1183 141.615 91.144 141.646C91.6071 142.109 92.3634 142.109 92.8316 141.646L94.9771 139.5C95.2189 139.259 95.61 139.259 95.8518 139.5L96.0164 139.665C96.0421 139.691 96.0421 139.732 96.0164 139.763L94.2156 141.564C94.1899 141.589 94.1899 141.631 94.2156 141.661C94.6787 142.124 95.435 142.124 95.9032 141.661L97.9767 139.588C98.2185 139.346 98.6095 139.346 98.8514 139.588L99.2064 139.943C99.3453 140.082 99.3453 140.313 99.2064 140.452L99.1498 140.509C99.0109 140.648 98.7793 140.648 98.6404 140.509L98.1825 140.051C98.1568 140.025 98.1156 140.025 98.0847 140.051L97.2924 140.843C97.2667 140.869 97.2667 140.91 97.2924 140.941L98.0075 141.656C98.5015 142.15 99.299 142.15 99.7878 141.656L100.354 141.09L100.349 141.075Z" fill="#7DDACF"/>
            <path d="M94.3763 121.637C84.0038 121.637 75.5967 130.044 75.5967 140.416C75.5967 150.789 84.0038 159.196 94.3763 159.196C104.749 159.196 113.156 150.789 113.156 140.416C113.156 130.044 104.749 121.637 94.3763 121.637ZM95.1429 127.435C98.158 127.61 100.895 128.814 103.015 130.697L100.303 133.409C98.8886 132.21 97.1032 131.433 95.1429 131.268V127.435ZM93.6148 127.435V131.268C91.6546 131.428 89.8692 132.21 88.4543 133.409L85.7428 130.697C87.8626 128.814 90.5998 127.61 93.6148 127.435ZM84.6624 131.778L87.3738 134.489C86.175 135.904 85.3981 137.689 85.2335 139.65H81.4004C81.5753 136.635 82.7793 133.898 84.6624 131.778ZM81.4004 141.178H85.2335C85.393 143.138 86.175 144.923 87.3738 146.338L84.6624 149.05C82.7793 146.93 81.5753 144.193 81.4004 141.178ZM93.6148 153.392C90.5998 153.217 87.8626 152.013 85.7428 150.13L88.4543 147.419C89.8692 148.618 91.6546 149.395 93.6148 149.559V153.392ZM86.4837 140.411C86.4837 136.053 90.0184 132.519 94.3763 132.519C98.7342 132.519 102.269 136.053 102.269 140.411C102.269 144.769 98.7342 148.304 94.3763 148.304C90.0184 148.304 86.4837 144.769 86.4837 140.411ZM95.1429 153.392V149.559C97.1032 149.4 98.8886 148.618 100.303 147.419L103.015 150.13C100.895 152.013 98.158 153.217 95.1429 153.392ZM104.095 149.05L101.384 146.338C102.583 144.923 103.36 143.138 103.524 141.178H107.357C107.182 144.193 105.979 146.93 104.095 149.05ZM103.524 139.65C103.365 137.689 102.583 135.904 101.384 134.489L104.095 131.778C105.979 133.898 107.182 136.635 107.357 139.65H103.524Z" fill="#7DDACF"/>
            <path d="M33.3461 164.833C19.8402 164.833 8.85547 153.843 8.85547 140.342C8.85547 126.841 19.8454 115.852 33.3461 115.852C46.8469 115.852 57.8368 126.841 57.8368 140.342C57.8368 153.843 46.8469 164.833 33.3461 164.833ZM33.3461 117.483C20.7406 117.483 10.4865 127.737 10.4865 140.342C10.4865 152.948 20.7406 163.202 33.3461 163.202C45.9516 163.202 56.2058 152.948 56.2058 140.342C56.2058 127.737 45.9516 117.483 33.3461 117.483Z" fill="#9DADF2"/>
            <path d="M41.2918 125.051C41.1683 125.051 41.0448 125.025 40.9316 124.969C38.5597 123.796 36.0077 123.199 33.3477 123.199C30.6877 123.199 28.1357 123.796 25.7639 124.969C25.45 125.123 25.0744 125.061 24.8274 124.814L20.6187 120.606C20.4387 120.426 20.3563 120.179 20.3872 119.926C20.4181 119.674 20.5622 119.453 20.7782 119.325C24.5702 117.05 28.9178 115.852 33.3529 115.852C37.788 115.852 42.1356 117.056 45.9275 119.325C46.1436 119.453 46.2877 119.674 46.3185 119.926C46.3494 120.179 46.2619 120.426 46.087 120.606L41.8783 124.814C41.7188 124.969 41.513 125.051 41.2969 125.051H41.2918ZM33.3477 121.568C36.0592 121.568 38.6729 122.134 41.122 123.25L44.1679 120.204C40.8544 118.419 37.1345 117.483 33.3477 117.483C29.5609 117.483 25.841 118.419 22.5276 120.204L25.5735 123.25C28.0226 122.134 30.6363 121.568 33.3477 121.568Z" fill="#9DADF2"/>
            <path d="M33.3468 164.833C28.9117 164.833 24.5641 163.629 20.7721 161.36C20.556 161.231 20.412 161.01 20.3811 160.758C20.3502 160.506 20.4377 160.259 20.6126 160.079L24.8213 155.87C25.0683 155.623 25.449 155.561 25.7577 155.716C28.1296 156.889 30.6816 157.486 33.3416 157.486C36.0016 157.486 38.5536 156.889 40.9255 155.716C41.2394 155.561 41.6149 155.623 41.8619 155.87L46.0706 160.079C46.2507 160.259 46.333 160.506 46.3021 160.758C46.2713 161.01 46.1272 161.231 45.9111 161.36C42.1192 163.634 37.7716 164.833 33.3365 164.833H33.3468ZM22.5266 160.48C25.8401 162.265 29.56 163.202 33.3468 163.202C37.1336 163.202 40.8535 162.265 44.1669 160.48L41.121 157.434C38.6719 158.551 36.0582 159.117 33.3468 159.117C30.6353 159.117 28.0216 158.551 25.5725 157.434L22.5266 160.48Z" fill="#9DADF2"/>
            <path d="M53.665 153.313C53.4489 153.313 53.2431 153.231 53.0888 153.076L48.8801 148.868C48.6331 148.621 48.5714 148.24 48.7258 147.931C49.8988 145.559 50.4957 143.008 50.4957 140.347C50.4957 137.687 49.8988 135.135 48.7258 132.764C48.5714 132.45 48.6331 132.069 48.8801 131.827L53.0888 127.619C53.2689 127.438 53.5158 127.356 53.7679 127.387C54.0201 127.418 54.2413 127.562 54.3699 127.778C56.6441 131.57 57.8429 135.918 57.8429 140.353C57.8429 144.788 56.6441 149.135 54.3699 152.927C54.2413 153.143 54.0201 153.287 53.7679 153.318C53.7319 153.318 53.7011 153.318 53.665 153.318V153.313ZM50.4391 148.117L53.485 151.162C55.2703 147.849 56.2067 144.129 56.2067 140.342C56.2067 136.556 55.2703 132.836 53.485 129.522L50.4391 132.568C51.5556 135.017 52.1215 137.631 52.1215 140.342C52.1215 143.054 51.5556 145.668 50.4391 148.117Z" fill="#9DADF2"/>
            <path d="M13.0281 153.313C12.9921 153.313 12.9613 153.313 12.9304 153.308C12.6783 153.277 12.457 153.133 12.3284 152.917C10.0543 149.125 8.85547 144.777 8.85547 140.342C8.85547 135.907 10.0543 131.56 12.3284 127.768C12.457 127.552 12.6783 127.408 12.9304 127.377C13.1825 127.346 13.4295 127.433 13.6095 127.608L17.8182 131.817C18.0652 132.064 18.1269 132.445 17.9726 132.753C16.7995 135.125 16.2027 137.677 16.2027 140.337C16.2027 142.997 16.7995 145.549 17.9726 147.921C18.1269 148.235 18.0652 148.616 17.8182 148.858L13.6095 153.066C13.4552 153.221 13.2494 153.308 13.0333 153.308L13.0281 153.313ZM13.2082 129.522C11.4229 132.836 10.4865 136.556 10.4865 140.342C10.4865 144.129 11.4229 147.849 13.2082 151.163L16.2541 148.117C15.1376 145.668 14.5717 143.054 14.5717 140.342C14.5717 137.631 15.1376 135.017 16.2541 132.568L13.2082 129.522Z" fill="#9DADF2"/>
            <path d="M33.347 121.562C22.9951 121.562 14.5674 129.985 14.5674 140.342C14.5674 150.699 22.9899 159.122 33.347 159.122C43.7041 159.122 52.1266 150.699 52.1266 140.342C52.1266 129.985 43.7041 121.562 33.347 121.562ZM43.9151 134.173C44.8052 135.696 45.3454 137.358 45.5203 139.123C45.5255 139.195 45.4946 139.262 45.4328 139.298C44.09 140.121 42.886 141.129 41.8467 142.308C41.8004 142.364 41.7232 142.385 41.6564 142.359L39.3359 141.603C39.269 141.582 39.2227 141.526 39.2124 141.453C38.95 139.534 38.3532 137.698 37.4374 135.989C37.4065 135.928 37.4117 135.856 37.4528 135.799L38.8883 133.823C38.9243 133.777 38.9809 133.746 39.0375 133.746C39.0529 133.746 39.0632 133.746 39.0787 133.746C40.6119 134.086 42.1863 134.199 43.7504 134.07C43.8224 134.065 43.8893 134.101 43.9253 134.163L43.9151 134.173ZM37.9467 141.778C37.9519 141.829 37.9364 141.881 37.9056 141.917C36.6862 143.321 35.1324 144.448 33.419 145.168C33.3727 145.189 33.3264 145.189 33.2801 145.168C31.5668 144.443 30.013 143.316 28.7936 141.917C28.7627 141.881 28.7473 141.829 28.7524 141.778C28.9891 139.915 29.5705 138.135 30.4709 136.488C30.4966 136.442 30.5378 136.411 30.5892 136.401C31.4948 136.211 32.4209 136.113 33.3522 136.113C34.2834 136.113 35.2095 136.211 36.1151 136.401C36.1665 136.411 36.2077 136.442 36.2334 136.488C37.1338 138.135 37.7101 139.915 37.9519 141.778H37.9467ZM37.6689 129.007C37.6689 129.007 37.7306 128.956 37.7924 128.956C37.813 128.956 37.8387 128.956 37.8644 128.971C39.7578 129.723 41.4505 130.957 42.7677 132.537C42.8346 132.614 42.8088 132.697 42.7934 132.727C42.7831 132.753 42.7368 132.835 42.6288 132.835C41.4609 132.851 40.298 132.717 39.1713 132.45C39.125 132.439 39.0838 132.408 39.0581 132.367C38.4561 131.374 37.9725 130.304 37.6226 129.193C37.5917 129.095 37.6483 129.028 37.6741 129.007H37.6689ZM30.7487 128.39C32.4518 128.025 34.2474 128.025 35.9504 128.39C36.0173 128.405 36.0739 128.457 36.0894 128.524C36.4547 130.052 37.0463 131.513 37.8438 132.866C37.8798 132.928 37.8747 133.005 37.8336 133.067L36.4083 135.032C36.3672 135.089 36.2952 135.12 36.2283 135.104C34.3452 134.724 32.354 134.724 30.4709 135.104C30.404 135.12 30.332 135.089 30.2908 135.032L28.8656 133.067C28.8245 133.01 28.8193 132.928 28.8553 132.866C29.6528 131.513 30.2445 130.052 30.6098 128.524C30.6252 128.457 30.6818 128.405 30.7487 128.39ZM23.9315 132.537C25.2486 130.952 26.9414 129.717 28.8348 128.971C28.8605 128.961 28.8862 128.956 28.9068 128.956C28.9737 128.956 29.0148 128.992 29.0303 129.007C29.056 129.033 29.1126 129.095 29.0817 129.193C28.7319 130.309 28.2482 131.374 27.6462 132.367C27.6205 132.408 27.5794 132.439 27.533 132.45C26.4063 132.717 25.2435 132.851 24.0756 132.835C23.9675 132.835 23.9212 132.753 23.9109 132.727C23.8955 132.697 23.8697 132.614 23.9366 132.537H23.9315ZM22.7841 134.173C22.815 134.117 22.8767 134.081 22.9436 134.081C22.9436 134.081 22.9539 134.081 22.959 134.081C24.5283 134.204 26.1027 134.096 27.6308 133.756C27.7028 133.741 27.7749 133.767 27.816 133.828L29.2515 135.804C29.2927 135.861 29.2978 135.938 29.2669 135.995C28.3511 137.703 27.7543 139.539 27.4919 141.459C27.4816 141.525 27.4353 141.582 27.3684 141.608L25.048 142.364C24.9811 142.385 24.9039 142.364 24.8576 142.313C23.8183 141.134 22.6143 140.126 21.2715 139.303C21.2149 139.267 21.1788 139.2 21.184 139.128C21.3589 137.363 21.8992 135.696 22.7893 134.178L22.7841 134.173ZM23.3449 146.851C23.3141 146.948 23.2266 146.969 23.1906 146.974C23.1546 146.974 23.0722 146.974 23.0156 146.892C21.9197 145.168 21.2715 143.172 21.1428 141.124C21.1377 141.021 21.2046 140.97 21.2354 140.954C21.2663 140.939 21.3486 140.903 21.431 140.965C22.3828 141.639 23.2472 142.431 24.0035 143.311C24.0344 143.347 24.0498 143.393 24.0447 143.445C23.952 144.602 23.7154 145.75 23.3398 146.856L23.3449 146.851ZM28.4283 151.548C26.823 150.843 25.4081 149.809 24.2247 148.482C24.1784 148.43 24.163 148.353 24.1887 148.291C24.7907 146.84 25.1715 145.312 25.3207 143.748C25.3258 143.676 25.3772 143.614 25.4441 143.594L27.7389 142.848C27.7389 142.848 27.7749 142.837 27.7955 142.837C27.8469 142.837 27.8932 142.858 27.9292 142.899C29.2155 144.34 30.8259 145.513 32.5907 146.29C32.6576 146.321 32.6987 146.382 32.6987 146.455V148.868C32.6987 148.94 32.6576 149.006 32.5907 149.032C31.1501 149.655 29.8123 150.493 28.6135 151.517C28.5621 151.564 28.4849 151.574 28.4231 151.543L28.4283 151.548ZM36.5215 152.058C36.5164 152.094 36.4907 152.176 36.3878 152.202C34.4018 152.706 32.3025 152.706 30.3165 152.202C30.2188 152.176 30.1879 152.094 30.1828 152.058C30.1776 152.022 30.1673 151.939 30.2548 151.872C31.1912 151.178 32.2099 150.596 33.2853 150.149C33.3316 150.128 33.3779 150.128 33.4242 150.149C34.4944 150.596 35.5131 151.178 36.4547 151.872C36.537 151.934 36.5318 152.022 36.5267 152.058H36.5215ZM42.4847 148.487C41.3013 149.814 39.8864 150.843 38.2812 151.548C38.2143 151.579 38.1423 151.564 38.0908 151.522C36.892 150.499 35.5594 149.66 34.1136 149.037C34.0467 149.006 34.0056 148.945 34.0056 148.873V146.46C34.0056 146.388 34.0467 146.321 34.1136 146.295C35.8784 145.518 37.494 144.345 38.7751 142.904C38.8111 142.863 38.8574 142.843 38.9089 142.843C38.9294 142.843 38.9449 142.843 38.9654 142.853L41.2602 143.599C41.3271 143.62 41.3785 143.681 41.3837 143.753C41.5329 145.317 41.9136 146.84 42.5156 148.296C42.5413 148.358 42.531 148.435 42.4796 148.487H42.4847ZM43.6887 146.897C43.6321 146.984 43.5446 146.984 43.5137 146.979C43.4777 146.979 43.3954 146.954 43.3594 146.856C42.9889 145.75 42.7523 144.602 42.6545 143.445C42.6545 143.398 42.6648 143.347 42.6956 143.311C43.452 142.431 44.3164 141.644 45.2682 140.965C45.3042 140.939 45.3402 140.929 45.3711 140.929C45.4123 140.929 45.4431 140.944 45.4637 140.954C45.4946 140.97 45.5666 141.021 45.5564 141.124C45.4277 143.172 44.7794 145.168 43.6835 146.892L43.6887 146.897Z" fill="#9DADF2"/>
        </g>
    </g>
</svg>
