<svg width="345" height="1557" viewBox="0 0 345 1557" fill="none" xmlns="http://www.w3.org/2000/svg">
    <mask id="mask0_700_4119" style="mask-type:alpha" maskUnits="userSpaceOnUse" x="-155" y="0" width="500" height="1557">
        <rect width="500" height="1557" transform="matrix(-1 0 0 1 345 0)" fill="url(#paint0_linear_700_4119)"/>
    </mask>
    <g mask="url(#mask0_700_4119)">
        <g opacity="0.5">
            <path d="M-28.6503 1576.41C0.216774 1547.54 0.216774 1500.57 -28.6503 1471.71C-57.5174 1442.84 -104.483 1442.84 -133.35 1471.71C-162.217 1500.57 -162.217 1547.54 -133.35 1576.41C-104.483 1605.27 -57.5174 1605.27 -28.6503 1576.41ZM-129.861 1475.2C-102.917 1448.25 -59.0829 1448.25 -32.1464 1475.2C-5.20281 1502.14 -5.20281 1545.97 -32.1464 1572.91C-59.0899 1599.85 -102.924 1599.85 -129.861 1572.91C-156.804 1545.97 -156.804 1502.13 -129.861 1475.2Z" fill="#E3E3E3"/>
            <path d="M-81 1042C-62.0366 1042 -43.0888 1034.79 -28.6486 1020.35C0.216196 991.491 0.216196 944.54 -28.6486 915.68C-42.638 901.693 -61.2283 894 -81 894C-100.772 894 -119.362 901.693 -133.351 915.68C-162.216 944.54 -162.216 991.491 -133.351 1020.35C-118.927 1034.77 -99.9634 1042 -81 1042ZM-32.5345 1016.47C-59.2543 1043.18 -102.73 1043.18 -129.45 1016.47C-156.17 989.75 -156.17 946.281 -129.45 919.565C-116.502 906.62 -99.295 899.502 -80.9844 899.502C-62.6739 899.502 -45.4669 906.635 -32.519 919.565C-5.79923 946.281 -5.79923 989.75 -32.519 1016.47H-32.5345Z" fill="#9DADF2"/>
            <path d="M-81 666C-62.0366 666 -43.0888 658.789 -28.6486 644.351C0.216196 615.491 0.216196 568.54 -28.6486 539.68C-42.638 525.693 -61.2283 518 -81 518C-100.772 518 -119.362 525.693 -133.351 539.68C-162.216 568.54 -162.216 615.491 -133.351 644.351C-118.927 658.773 -99.9634 666 -81 666ZM-32.5345 640.466C-59.2543 667.181 -102.73 667.181 -129.45 640.466C-156.17 613.75 -156.17 570.281 -129.45 543.565C-116.502 530.62 -99.295 523.502 -80.9844 523.502C-62.6739 523.502 -45.4669 530.635 -32.519 543.565C-5.79923 570.281 -5.79923 613.75 -32.519 640.466H-32.5345Z" fill="#9DADF2"/>
            <path d="M-28.6503 268.406C0.216774 239.539 0.216774 192.574 -28.6503 163.707C-57.5174 134.84 -104.483 134.84 -133.35 163.707C-162.217 192.574 -162.217 239.539 -133.35 268.406C-104.483 297.273 -57.5174 297.273 -28.6503 268.406ZM-129.861 167.196C-102.917 140.252 -59.0829 140.252 -32.1464 167.196C-5.20281 194.14 -5.20281 237.974 -32.1464 264.91C-59.0899 291.854 -102.924 291.854 -129.861 264.91C-156.804 237.967 -156.804 194.133 -129.861 167.196Z" fill="#E3E3E3"/>
        </g>
        <g opacity="0.25">
            <path d="M95 1268C113.963 1268 132.911 1260.79 147.351 1246.35C176.216 1217.49 176.216 1170.54 147.351 1141.68C133.362 1127.69 114.772 1120 95 1120C75.2283 1120 56.638 1127.69 42.6486 1141.68C13.7838 1170.54 13.7838 1217.49 42.6486 1246.35C57.0732 1260.77 76.0366 1268 95 1268ZM143.465 1242.47C116.746 1269.18 73.2698 1269.18 46.5501 1242.47C19.8304 1215.75 19.8304 1172.28 46.5501 1145.57C59.4981 1132.62 76.705 1125.5 95.0156 1125.5C113.326 1125.5 130.533 1132.64 143.481 1145.57C170.201 1172.28 170.201 1215.75 143.481 1242.47H143.465Z" fill="#E3E3E3"/>
            <path d="M92.2582 1178.44L105.968 1197.64H97.7452V1211.35L84.0355 1192.16H92.2582V1178.44Z" fill="#E3E3E3"/>
            <path d="M95.0113 1167.76C110.027 1167.76 122.213 1179.94 122.213 1194.96C122.213 1209.97 110.027 1222.12 95.0113 1222.12C79.996 1222.12 67.8097 1209.94 67.8097 1194.96C67.8097 1179.97 79.996 1167.76 95.0113 1167.76ZM95.0113 1218.77C108.192 1218.77 118.887 1208.07 118.887 1194.89C118.887 1181.71 108.192 1171.02 95.0113 1171.02C81.8302 1171.02 71.136 1181.71 71.136 1194.89C71.136 1208.07 81.8302 1218.77 95.0113 1218.77Z" fill="#E3E3E3"/>
            <path d="M52.9638 1151.98C64.1864 1140.75 79.1241 1134.58 95.0098 1134.58C110.896 1134.58 125.818 1140.76 137.056 1151.98C160.231 1175.16 160.231 1212.88 137.056 1236.06C125.46 1247.66 110.243 1253.45 95.0098 1253.45C79.7769 1253.45 64.5595 1247.66 52.9638 1236.06C29.788 1212.89 29.788 1175.17 52.9638 1151.98ZM95.0098 1231.85C115.341 1231.85 131.895 1215.3 131.895 1194.97C131.895 1185.99 128.678 1177.75 123.331 1171.32L127.838 1166.81C129.128 1165.52 129.128 1163.42 127.838 1162.12C126.548 1160.81 124.45 1160.83 123.144 1162.12L118.636 1166.62C113.04 1161.95 105.999 1158.87 98.3206 1158.22V1155.17H101.367C104.056 1155.17 106.279 1152.95 106.279 1150.26V1147.7C106.279 1144.98 104.056 1142.78 101.367 1142.78H88.6212C85.9322 1142.78 83.7094 1144.98 83.7094 1147.7V1150.26C83.7094 1152.95 85.9322 1155.17 88.6212 1155.17H91.6678V1158.22C83.9737 1158.88 76.9479 1161.96 71.3521 1166.62L66.8445 1162.12C65.5544 1160.83 63.4559 1160.83 62.1502 1162.12C60.8601 1163.41 60.8601 1165.51 62.1502 1166.81L66.658 1171.32C61.3109 1177.75 58.0933 1185.97 58.0933 1194.97C58.0933 1215.3 74.6474 1231.85 94.9787 1231.85H95.0098Z" fill="#E3E3E3"/>
            <path d="M168.906 824.953C168.906 784.179 135.727 751 94.953 751C54.1785 751 20.9998 784.179 20.9998 824.953C20.9998 865.728 54.1785 898.906 94.953 898.906C135.727 898.906 168.906 865.728 168.906 824.953ZM26.3276 824.953C26.3276 787.114 57.1143 756.328 94.953 756.328C132.792 756.328 163.578 787.114 163.578 824.953C163.578 862.792 132.792 893.579 94.953 893.579C57.1143 893.579 26.3276 862.792 26.3276 824.953Z" fill="#478BF9"/>
            <path d="M168.906 1005.74C168.906 1004.27 167.71 1003.09 166.25 1003.09C164.79 1003.09 163.594 1004.28 163.594 1005.74C163.594 1043.58 132.807 1074.37 94.9688 1074.37C57.1301 1074.37 26.3434 1043.58 26.3434 1005.74C26.3434 1004.27 25.1473 1003.09 23.6872 1003.09C22.2271 1003.09 21.0311 1004.28 21.0311 1005.74C21.0311 1046.52 54.2098 1079.7 94.9843 1079.7C135.759 1079.7 168.938 1046.52 168.938 1005.74H168.906Z" fill="#478BF9"/>
            <path d="M23.2541 823.167H55.6406V829.551H23.2541V823.167Z" fill="#478BF9"/>
            <path d="M134.765 823.167H167.151V829.551H134.765V823.167Z" fill="#478BF9"/>
            <path d="M91.5046 866.411H97.8887V898.798H91.5046V866.411Z" fill="#478BF9"/>
            <path d="M91.5046 753.92H97.8887V786.307H91.5046V753.92Z" fill="#478BF9"/>
            <path d="M56.6177 785.84C78.768 763.69 114.696 763.69 136.862 785.84C159.012 807.991 159.012 843.919 136.862 866.084C114.712 888.235 78.7835 888.235 56.6177 866.084C34.4675 843.934 34.4675 808.006 56.6177 785.84ZM85.7735 790.64C79.3117 792.644 73.5179 796.387 69.0132 801.482L68.1434 802.461L69.417 802.756C72.7877 803.548 76.3914 804.2 80.1194 804.682L80.7873 804.775L80.9737 804.123C81.595 801.995 82.3251 799.944 83.1639 798.049C84.2046 795.673 85.3696 793.591 86.6433 791.836L88.0413 789.925L85.7735 790.625V790.64ZM111.698 824.192L111.667 823.384C111.512 818.475 110.968 813.784 110.036 809.466L109.896 808.783L109.197 808.845C101.027 809.559 92.2973 809.528 84.1735 808.767L83.4746 808.705L83.3192 809.389C82.3717 813.753 81.828 818.46 81.6882 823.384V824.192H111.683H111.698ZM81.6882 827.795V828.603C81.8591 833.527 82.4028 838.233 83.3503 842.598L83.5056 843.282L84.2046 843.22C92.3284 842.459 101.058 842.443 109.228 843.142L109.927 843.204L110.067 842.521C110.999 838.202 111.543 833.527 111.698 828.603L111.729 827.795H81.7193H81.6882ZM96.6932 789.289C92.1731 789.289 87.5753 795.02 84.7017 804.263L84.4065 805.195L85.3851 805.272C89.2063 805.598 93.1517 805.769 97.1126 805.769C100.794 805.769 104.46 805.629 108.032 805.334L109.011 805.257L108.716 804.309C105.842 795.036 101.229 789.273 96.6932 789.273V789.289ZM124.529 801.653C119.993 796.48 114.152 792.675 107.613 790.656L105.33 789.957L106.743 791.883C108.017 793.622 109.197 795.719 110.223 798.08C111.046 799.944 111.791 802.026 112.444 804.263L112.63 804.899L113.298 804.822C117.057 804.356 120.692 803.734 124.109 802.942L125.398 802.647L124.529 801.653ZM133.6 823.353C133.165 817.295 131.223 811.392 127.977 806.251L127.666 805.769L127.107 805.909C123.131 806.919 118.844 807.726 114.339 808.301L113.5 808.41L113.671 809.249C114.603 813.753 115.131 818.522 115.271 823.43V824.192H133.647L133.584 823.353H133.6ZM127.666 846.218L127.977 845.736C131.223 840.61 133.165 834.692 133.6 828.634L133.662 827.795H115.302V828.556C115.147 833.465 114.603 838.249 113.686 842.738L113.516 843.577L114.354 843.686C118.844 844.26 123.146 845.068 127.123 846.078L127.682 846.218H127.666ZM107.613 861.347C114.152 859.327 119.993 855.522 124.529 850.349L125.398 849.355L124.109 849.06C120.692 848.283 117.057 847.647 113.298 847.181L112.63 847.103L112.444 847.74C111.791 849.977 111.046 852.058 110.223 853.922C109.182 856.299 108.017 858.38 106.743 860.135L105.33 862.061L107.613 861.362V861.347ZM96.6932 862.698C101.229 862.698 105.842 856.935 108.716 847.662L109.011 846.715L108.032 846.637C100.623 846.047 92.7323 846.062 85.3851 846.699L84.4065 846.777L84.7017 847.709C87.5908 856.935 92.1886 862.683 96.6932 862.683V862.698ZM69.0132 850.505C73.5179 855.6 79.3272 859.343 85.7735 861.347L88.0413 862.046L86.6433 860.135C85.3696 858.396 84.2046 856.299 83.1639 853.922C82.3406 852.011 81.595 849.977 80.9737 847.848L80.7873 847.196L80.1194 847.289C76.3914 847.771 72.7877 848.423 69.417 849.215L68.1434 849.526L69.0132 850.505ZM59.802 828.634C60.2369 834.754 62.2097 840.734 65.5337 845.922L65.8444 846.404L66.4036 846.264C70.3335 845.223 74.6051 844.4 79.0787 843.794L79.9174 843.686L79.7466 842.862C78.8146 838.358 78.271 833.558 78.1312 828.572V827.811H59.7555L59.8176 828.65L59.802 828.634ZM78.1001 824.192V823.43C78.2554 818.444 78.7991 813.629 79.731 809.14L79.9019 808.317L79.0631 808.208C74.5896 807.602 70.3336 806.779 66.3881 805.738L65.8289 805.598L65.5183 806.08C62.1942 811.268 60.206 817.233 59.7866 823.368L59.7244 824.207H78.0845L78.1001 824.192Z" fill="#478BF9"/>
            <path d="M169 1006.86V828.386C169 826.91 167.804 825.729 166.344 825.729C164.884 825.729 163.688 826.926 163.688 828.386V1006.86C163.688 1008.34 164.884 1009.52 166.344 1009.52C167.804 1009.52 169 1008.32 169 1006.86Z" fill="#478BF9"/>
            <path d="M26.4072 1007.27V828.79C26.4072 827.314 25.2112 826.134 23.7511 826.134C22.291 826.134 21.0949 827.33 21.0949 828.79V1007.27C21.0949 1008.74 22.291 1009.92 23.7511 1009.92C25.2112 1009.92 26.4072 1008.73 26.4072 1007.27Z" fill="#478BF9"/>
            <path d="M147.35 689.35C176.217 660.483 176.217 613.517 147.35 584.65C118.483 555.783 71.5175 555.783 42.6504 584.65C13.7833 613.517 13.7833 660.483 42.6504 689.35C71.5175 718.217 118.483 718.217 147.35 689.35ZM46.1394 588.139C73.0829 561.196 116.917 561.196 143.854 588.139C170.797 615.083 170.797 658.917 143.854 685.854C116.91 712.797 73.0759 712.797 46.1394 685.854C19.1958 658.91 19.1958 615.076 46.1394 588.139Z" fill="#E3E3E3"/>
            <path d="M45.3356 621.296C45.5953 621.036 45.8059 620.706 45.9253 620.341C48.4876 612.759 52.6717 606.041 58.3581 600.355C64.0375 594.675 70.7628 590.491 78.3446 587.922C79.3485 587.578 80.0225 586.644 80.0225 585.584V567.591C80.0225 566.833 79.6715 566.117 79.0748 565.647C78.471 565.176 77.6918 565.015 76.9617 565.197C64.0024 568.441 52.1382 575.166 42.6609 584.65C33.1837 594.135 26.4583 605.992 23.2149 618.951C23.0324 619.688 23.2009 620.467 23.6642 621.071C24.1346 621.675 24.8507 622.019 25.6088 622.019H43.6016C44.2756 622.019 44.8933 621.745 45.3497 621.289L45.3356 621.296ZM54.8691 596.866C49.0704 602.664 44.6968 609.46 41.8466 617.084H28.8311C32.1025 606.188 38.0486 596.234 46.1429 588.139C54.2372 580.045 64.1919 574.099 75.0802 570.835V583.85C67.4563 586.693 60.6608 591.067 54.8621 596.873L54.8691 596.866Z" fill="#E3E3E3"/>
            <path d="M147.346 689.35C156.823 679.873 163.556 668.008 166.799 655.049C166.981 654.312 166.813 653.533 166.35 652.936C165.879 652.332 165.163 651.988 164.405 651.988H146.412C145.352 651.988 144.411 652.662 144.074 653.666C141.512 661.248 137.328 667.966 131.642 673.653C125.962 679.332 119.237 683.516 111.655 686.085C110.651 686.422 109.977 687.363 109.977 688.423V706.416C109.977 707.174 110.328 707.89 110.925 708.361C111.529 708.831 112.308 708.992 113.045 708.81C126.005 705.567 137.862 698.841 147.346 689.364V689.35ZM161.169 656.917C157.897 667.812 151.951 677.767 143.857 685.861C135.763 693.955 125.808 699.901 114.913 703.173V690.157C122.536 687.314 129.332 682.94 135.131 677.142C140.929 671.343 145.303 664.548 148.153 656.924H161.169V656.917Z" fill="#E3E3E3"/>
            <path d="M79.2955 708.149C79.7588 707.686 80.0186 707.061 80.0186 706.401V688.409C80.0186 687.348 79.3446 686.408 78.3407 686.071C70.7589 683.508 64.0406 679.324 58.3542 673.638C52.6678 667.952 48.4909 661.233 45.9215 653.651C45.5845 652.648 44.6437 651.974 43.5837 651.974H25.5909C24.8327 651.974 24.1166 652.325 23.6463 652.921C23.1759 653.518 23.0144 654.304 23.197 655.034C26.4473 667.994 33.1727 679.851 42.65 689.335C52.1273 698.82 63.9914 705.545 76.9507 708.788C77.6878 708.971 78.4671 708.802 79.0638 708.339C79.141 708.269 79.2182 708.206 79.2884 708.135L79.2955 708.149ZM75.0833 690.15V703.165C64.188 699.894 54.2333 693.948 46.139 685.853C38.0447 677.759 32.1056 667.804 28.8272 656.909H41.8427C44.6859 664.533 49.0595 671.321 54.8652 677.127C60.6639 682.926 67.4594 687.306 75.0833 690.15Z" fill="#E3E3E3"/>
            <path d="M166.156 621.296C166.226 621.226 166.296 621.148 166.352 621.071C166.823 620.474 166.984 619.688 166.802 618.951C163.558 605.992 156.833 594.128 147.349 584.65C137.864 575.173 126.007 568.441 113.048 565.197C112.311 565.015 111.532 565.183 110.935 565.647C110.338 566.117 109.987 566.833 109.987 567.591V585.584C109.987 586.644 110.661 587.585 111.665 587.922C119.247 590.484 125.965 594.668 131.652 600.355C137.331 606.034 141.515 612.759 144.084 620.341C144.421 621.345 145.362 622.019 146.422 622.019H164.415C165.075 622.019 165.707 621.759 166.163 621.303L166.156 621.296ZM114.922 570.835C125.818 574.106 135.772 580.052 143.867 588.146C151.961 596.241 157.9 606.195 161.179 617.091H148.163C145.32 609.467 140.946 602.678 135.141 596.872C129.342 591.074 122.546 586.7 114.922 583.85V570.835Z" fill="#E3E3E3"/>
            <path d="M54.866 596.866C76.9937 574.738 113.007 574.731 135.135 596.866C157.27 619.001 157.263 655.007 135.135 677.135C113.007 699.263 77.0007 699.27 54.866 677.135C32.7313 655 32.7383 618.994 54.866 596.866Z" fill="#E3E3E3"/>
            <path d="M74.5259 657.259L115.298 657.529C117.016 657.54 118.399 658.942 118.388 660.66L118.378 662.113C118.367 663.83 116.965 665.213 115.247 665.202L74.475 664.932C72.7574 664.92 71.3743 663.519 71.3857 661.801L71.3953 660.348C71.4067 658.63 72.8083 657.247 74.5259 657.259Z" fill="#110A1D"/>
            <path d="M109.743 632.647C110.186 632.647 110.635 632.549 111.042 632.352L114.222 630.815C115.605 630.141 116.237 628.505 115.662 627.08L114.201 623.444C113.752 622.335 112.692 621.611 111.499 621.604C110.986 621.604 110.481 621.731 110.031 621.991L106.24 624.153C105.531 624.553 105.019 625.248 104.836 626.048C104.654 626.849 104.815 627.691 105.279 628.365L107.357 631.377C107.897 632.163 108.796 632.64 109.751 632.64L109.743 632.647Z" fill="#110A1D"/>
            <path d="M80.3975 632.451C81.3523 632.451 82.2578 631.995 82.8054 631.216L84.8624 628.317C85.3397 627.65 85.5082 626.807 85.3397 626.007C85.1712 625.207 84.6658 624.505 83.9567 624.09L80.0465 621.795C79.6042 621.535 79.0987 621.395 78.5863 621.388C77.3928 621.381 76.3187 622.09 75.8554 623.192L74.3812 626.723C73.7915 628.141 74.4022 629.791 75.7711 630.479L79.0987 632.143C79.4989 632.339 79.9482 632.451 80.3905 632.451H80.3975Z" fill="#110A1D"/>
            <path d="M112.948 654.803C114.738 654.817 116.346 653.694 116.957 652.009L123.759 633.286C124.195 633.497 124.658 633.658 125.128 633.778C125.683 633.918 126.245 633.988 126.813 633.988C127.143 633.988 127.466 633.974 127.782 633.932C131.327 633.483 134.016 630.443 134.037 626.863C134.065 622.903 130.864 619.66 126.904 619.632C122.945 619.604 119.702 622.805 119.681 626.765C119.681 627.677 119.835 628.555 120.158 629.376C120.334 629.825 120.551 630.254 120.804 630.661L107.866 636.923L97.9671 622.581C98.3813 622.405 98.7815 622.187 99.1606 621.928C99.8767 621.443 100.501 620.84 101.007 620.13C101.863 618.923 102.327 617.498 102.334 616.024C102.362 612.064 99.1606 608.821 95.2012 608.793C95.0257 608.793 94.8431 608.793 94.6676 608.807C91.1224 609.046 88.2582 611.889 87.9984 615.434C87.8791 617.112 88.3213 618.719 89.2761 620.088C89.7815 620.804 90.3994 621.415 91.1084 621.9C91.4805 622.159 91.8806 622.377 92.2948 622.552L82.2208 636.747L69.4932 630.38C69.7319 629.924 69.9214 629.446 70.0618 628.948C70.2303 628.344 70.3215 627.712 70.3215 627.073C70.3215 626.786 70.3075 626.498 70.2795 626.217C69.8723 622.609 66.8255 619.871 63.1961 619.85C59.2367 619.822 55.9933 623.023 55.9723 626.982C55.9442 630.759 58.8786 633.932 62.6485 634.192L63.0978 634.206C63.8279 634.206 64.5439 634.108 65.2389 633.897C65.6882 633.757 66.1235 633.581 66.5307 633.357L72.9191 651.714C73.5017 653.406 75.1024 654.544 76.8925 654.558L112.948 654.796V654.803Z" fill="#110A1D"/>
            <path d="M95 523C113.963 523 132.911 515.789 147.351 501.351C176.216 472.491 176.216 425.54 147.351 396.68C133.362 382.693 114.772 375 95 375C75.2283 375 56.638 382.693 42.6486 396.68C13.7838 425.54 13.7838 472.491 42.6486 501.351C57.0732 515.773 76.0366 523 95 523ZM143.465 497.466C116.746 524.181 73.2698 524.181 46.5501 497.466C19.8304 470.75 19.8304 427.281 46.5501 400.565C59.4981 387.62 76.705 380.502 95.0156 380.502C113.326 380.502 130.533 387.635 143.481 400.565C170.201 427.281 170.201 470.75 143.481 497.466H143.465Z" fill="#7DDACF"/>
            <path d="M92.2582 433.436L105.968 452.645H97.7452V466.352L84.0355 447.158H92.2582V433.436Z" fill="#7DDACF"/>
            <path d="M95.0113 422.759C110.027 422.759 122.213 434.943 122.213 449.956C122.213 464.969 110.027 477.122 95.0113 477.122C79.996 477.122 67.8097 464.938 67.8097 449.956C67.8097 434.974 79.996 422.759 95.0113 422.759ZM95.0113 473.765C108.192 473.765 118.887 463.073 118.887 449.894C118.887 436.715 108.192 426.023 95.0113 426.023C81.8302 426.023 71.136 436.715 71.136 449.894C71.136 463.073 81.8302 473.765 95.0113 473.765Z" fill="#7DDACF"/>
            <path d="M52.9638 406.984C64.1864 395.748 79.1241 389.578 95.0098 389.578C110.896 389.578 125.818 395.764 137.056 406.984C160.231 430.157 160.231 467.875 137.056 491.063C125.46 502.657 110.243 508.454 95.0098 508.454C79.7769 508.454 64.5595 502.657 52.9638 491.063C29.788 467.891 29.788 430.172 52.9638 406.984ZM95.0098 486.851C115.341 486.851 131.895 470.3 131.895 449.972C131.895 440.989 128.678 432.752 123.331 426.318L127.838 421.811C129.128 420.521 129.128 418.423 127.838 417.117C126.548 415.812 124.45 415.827 123.144 417.117L118.636 421.624C113.04 416.946 105.999 413.869 98.3206 413.217V410.17H101.367C104.056 410.17 106.279 407.948 106.279 405.259V402.695C106.279 399.975 104.056 397.784 101.367 397.784H88.6212C85.9322 397.784 83.7094 399.975 83.7094 402.695V405.259C83.7094 407.948 85.9322 410.17 88.6212 410.17H91.6678V413.217C83.9737 413.885 76.9479 416.962 71.3521 421.624L66.8445 417.117C65.5544 415.827 63.4559 415.827 62.1502 417.117C60.8601 418.407 60.8601 420.505 62.1502 421.811L66.658 426.318C61.3109 432.752 58.0933 440.973 58.0933 449.972C58.0933 470.3 74.6474 486.851 94.9787 486.851H95.0098Z" fill="#7DDACF"/>
            <path d="M94.9999 335C135.809 335 169 301.793 169 261C169 220.207 135.793 187 94.9999 187C54.2067 187 21 220.207 21 261C21 301.793 54.2067 335 94.9999 335ZM94.9999 191.928C133.088 191.928 164.072 222.912 164.072 261C164.072 299.088 133.088 330.072 94.9999 330.072C56.9117 330.072 25.9281 299.088 25.9281 261C25.9281 222.912 56.9117 191.928 94.9999 191.928Z" fill="#E3E3E3"/>
            <path d="M46.7139 208.195L69.623 231.104L65.116 235.611L42.2069 212.702L46.7139 208.195Z" fill="#E3E3E3"/>
            <path d="M125.57 287.055L148.479 309.964L143.972 314.471L121.063 291.562L125.57 287.055Z" fill="#E3E3E3"/>
            <path d="M64.4187 287.051L68.9258 291.558L46.0167 314.467L41.5097 309.96L64.4187 287.051Z" fill="#E3E3E3"/>
            <path d="M143.957 207.501L148.464 212.008L125.566 234.906L121.059 230.399L143.957 207.501Z" fill="#E3E3E3"/>
            <path d="M76.9328 262.989C75.4403 261.497 75.4403 259.087 76.9328 257.61L80.1042 254.455C81.5967 252.962 84.0063 252.962 85.4832 254.455L87.1933 256.165L89.1676 254.19C90.6601 252.698 93.0698 252.698 94.5466 254.19L96.2567 255.916L98.2311 253.926C99.7235 252.434 102.133 252.434 103.61 253.926L114.104 264.42C114.182 264.497 114.182 264.622 114.104 264.715C112.705 266.114 110.419 266.114 109.005 264.715L102.242 257.952C101.511 257.222 100.33 257.222 99.5992 257.952L99.1017 258.45C99.0084 258.543 99.0084 258.683 99.1017 258.776L104.745 264.42C104.823 264.497 104.823 264.622 104.745 264.715C103.346 266.114 101.061 266.114 99.6458 264.715L93.163 258.232C92.4323 257.502 91.2508 257.502 90.5201 258.232L90.0227 258.73C89.945 258.807 89.945 258.932 90.0227 259.025L95.4639 264.466C95.5416 264.544 95.5416 264.668 95.4639 264.762C94.0648 266.161 91.7794 266.161 90.3647 264.762L84.0996 258.497C83.369 257.766 82.1874 257.766 81.4568 258.497L80.3841 259.569C79.9643 259.989 79.9643 260.689 80.3841 261.108L80.555 261.279C80.9748 261.699 81.6744 261.699 82.0941 261.279L83.4777 259.896C83.5555 259.818 83.6798 259.818 83.7731 259.896L86.1672 262.29C86.2449 262.368 86.2449 262.492 86.1672 262.585L84.0063 264.746C82.5138 266.239 80.1042 266.239 78.6273 264.746L76.9172 263.036L76.9328 262.989Z" fill="#E3E3E3"/>
            <path d="M94.9965 204.24C126.338 204.24 151.74 229.643 151.74 260.984C151.74 292.325 126.338 317.728 94.9965 317.728C63.6554 317.728 38.2528 292.325 38.2528 260.984C38.2528 229.643 63.6554 204.24 94.9965 204.24ZM92.6802 221.761C83.5701 222.289 75.2995 225.927 68.8945 231.617L77.0874 239.81C81.3626 236.188 86.7571 233.84 92.6802 233.343V221.761ZM97.2974 221.761V233.343C103.221 233.825 108.615 236.188 112.89 239.81L121.083 231.617C114.678 225.927 106.408 222.289 97.2974 221.761ZM124.348 234.882L116.155 243.075C119.777 247.35 122.125 252.744 122.622 258.668H134.204C133.676 249.557 130.038 241.287 124.348 234.882ZM134.204 263.285H122.622C122.14 269.208 119.777 274.602 116.155 278.878L124.348 287.07C130.038 280.665 133.676 272.395 134.204 263.285ZM97.2974 300.191C106.408 299.663 114.678 296.025 121.083 290.335L112.89 282.142C108.615 285.765 103.221 288.112 97.2974 288.61V300.191ZM118.844 260.968C118.844 247.801 108.164 237.12 94.9965 237.12C81.8289 237.12 71.1487 247.801 71.1487 260.968C71.1487 274.136 81.8289 284.816 94.9965 284.816C108.164 284.816 118.844 274.136 118.844 260.968ZM92.6802 300.191V288.61C86.7571 288.128 81.3626 285.765 77.0874 282.142L68.8945 290.335C75.2995 296.025 83.5701 299.663 92.6802 300.191ZM65.6298 287.07L73.8226 278.878C70.2003 274.602 67.8529 269.208 67.3554 263.285H55.7735C56.302 272.395 59.9399 280.665 65.6298 287.07ZM67.3554 258.668C67.8373 252.744 70.2003 247.35 73.8226 243.075L65.6298 234.882C59.9399 241.287 56.302 249.557 55.7735 258.668H67.3554Z" fill="#E3E3E3"/>
            <path d="M94.9999 1456C135.809 1456 169 1422.79 169 1382C169 1341.21 135.793 1308 94.9999 1308C54.2067 1308 21 1341.21 21 1382C21 1422.79 54.2067 1456 94.9999 1456ZM94.9999 1312.93C133.088 1312.93 164.072 1343.91 164.072 1382C164.072 1420.09 133.088 1451.07 94.9999 1451.07C56.9117 1451.07 25.9281 1420.09 25.9281 1382C25.9281 1343.91 56.9117 1312.93 94.9999 1312.93Z" fill="#7DDACF"/>
            <path d="M46.7139 1329.2L69.623 1352.1L65.116 1356.61L42.2069 1333.7L46.7139 1329.2Z" fill="#7DDACF"/>
            <path d="M125.57 1408.05L148.479 1430.96L143.972 1435.47L121.063 1412.56L125.57 1408.05Z" fill="#7DDACF"/>
            <path d="M64.4187 1408.05L68.9258 1412.56L46.0167 1435.47L41.5097 1430.96L64.4187 1408.05Z" fill="#7DDACF"/>
            <path d="M143.957 1328.5L148.464 1333.01L125.566 1355.91L121.059 1351.4L143.957 1328.5Z" fill="#7DDACF"/>
            <path d="M76.9328 1383.99C75.4403 1382.5 75.4403 1380.09 76.9328 1378.61L80.1042 1375.45C81.5967 1373.96 84.0063 1373.96 85.4832 1375.45L87.1933 1377.16L89.1676 1375.19C90.6601 1373.7 93.0698 1373.7 94.5466 1375.19L96.2567 1376.92L98.2311 1374.93C99.7235 1373.43 102.133 1373.43 103.61 1374.93L114.104 1385.42C114.182 1385.5 114.182 1385.62 114.104 1385.72C112.705 1387.11 110.419 1387.11 109.005 1385.72L102.242 1378.95C101.511 1378.22 100.33 1378.22 99.5992 1378.95L99.1017 1379.45C99.0084 1379.54 99.0084 1379.68 99.1017 1379.78L104.745 1385.42C104.823 1385.5 104.823 1385.62 104.745 1385.72C103.346 1387.11 101.061 1387.11 99.6458 1385.72L93.163 1379.23C92.4323 1378.5 91.2508 1378.5 90.5201 1379.23L90.0227 1379.73C89.945 1379.81 89.945 1379.93 90.0227 1380.03L95.4639 1385.47C95.5416 1385.54 95.5416 1385.67 95.4639 1385.76C94.0648 1387.16 91.7794 1387.16 90.3647 1385.76L84.0996 1379.5C83.369 1378.77 82.1874 1378.77 81.4568 1379.5L80.3841 1380.57C79.9643 1380.99 79.9643 1381.69 80.3841 1382.11L80.555 1382.28C80.9748 1382.7 81.6744 1382.7 82.0941 1382.28L83.4777 1380.9C83.5555 1380.82 83.6798 1380.82 83.7731 1380.9L86.1672 1383.29C86.2449 1383.37 86.2449 1383.49 86.1672 1383.59L84.0063 1385.75C82.5138 1387.24 80.1042 1387.24 78.6273 1385.75L76.9172 1384.04L76.9328 1383.99Z" fill="#7DDACF"/>
            <path d="M94.9965 1325.24C126.338 1325.24 151.74 1350.64 151.74 1381.98C151.74 1413.33 126.338 1438.73 94.9965 1438.73C63.6554 1438.73 38.2528 1413.33 38.2528 1381.98C38.2528 1350.64 63.6554 1325.24 94.9965 1325.24ZM92.6802 1342.76C83.5701 1343.29 75.2995 1346.93 68.8945 1352.62L77.0874 1360.81C81.3626 1357.19 86.7571 1354.84 92.6802 1354.34V1342.76ZM97.2974 1342.76V1354.34C103.221 1354.82 108.615 1357.19 112.89 1360.81L121.083 1352.62C114.678 1346.93 106.408 1343.29 97.2974 1342.76ZM124.348 1355.88L116.155 1364.07C119.777 1368.35 122.125 1373.74 122.622 1379.67H134.204C133.676 1370.56 130.038 1362.29 124.348 1355.88ZM134.204 1384.28H122.622C122.14 1390.21 119.777 1395.6 116.155 1399.88L124.348 1408.07C130.038 1401.67 133.676 1393.39 134.204 1384.28ZM97.2974 1421.19C106.408 1420.66 114.678 1417.03 121.083 1411.34L112.89 1403.14C108.615 1406.76 103.221 1409.11 97.2974 1409.61V1421.19ZM118.844 1381.97C118.844 1368.8 108.164 1358.12 94.9965 1358.12C81.8289 1358.12 71.1487 1368.8 71.1487 1381.97C71.1487 1395.14 81.8289 1405.82 94.9965 1405.82C108.164 1405.82 118.844 1395.14 118.844 1381.97ZM92.6802 1421.19V1409.61C86.7571 1409.13 81.3626 1406.76 77.0874 1403.14L68.8945 1411.34C75.2995 1417.03 83.5701 1420.66 92.6802 1421.19ZM65.6298 1408.07L73.8226 1399.88C70.2003 1395.6 67.8529 1390.21 67.3554 1384.28H55.7735C56.302 1393.39 59.9399 1401.67 65.6298 1408.07ZM67.3554 1379.67C67.8373 1373.74 70.2003 1368.35 73.8226 1364.07L65.6298 1355.88C59.9399 1362.29 56.302 1370.56 55.7735 1379.67H67.3554Z" fill="#7DDACF"/>
            <path d="M147.35 125.35C176.217 96.4826 176.217 49.5174 147.35 20.6503C118.483 -8.21677 71.5175 -8.21677 42.6504 20.6503C13.7833 49.5174 13.7833 96.4826 42.6504 125.35C71.5175 154.217 118.483 154.217 147.35 125.35ZM46.1394 24.1394C73.0829 -2.80419 116.917 -2.80419 143.854 24.1394C170.797 51.0829 170.797 94.9171 143.854 121.854C116.91 148.797 73.0759 148.797 46.1394 121.854C19.1958 94.9101 19.1958 51.0759 46.1394 24.1394Z" fill="#7DDACF"/>
            <path d="M45.3356 57.2959C45.5953 57.0362 45.8059 56.7062 45.9253 56.3412C48.4876 48.7593 52.6717 42.041 58.3581 36.3546C64.0375 30.6753 70.7628 26.4912 78.3446 23.9219C79.3485 23.5779 80.0225 22.6442 80.0225 21.5841V3.59135C80.0225 2.83316 79.6715 2.11709 79.0748 1.64674C78.471 1.17638 77.6918 1.01493 76.9617 1.19745C64.0024 4.44079 52.1382 11.1661 42.6609 20.6504C33.1837 30.1347 26.4583 41.9919 23.2149 54.9512C23.0324 55.6883 23.2009 56.4675 23.6642 57.0713C24.1346 57.675 24.8507 58.019 25.6088 58.019H43.6016C44.2756 58.019 44.8933 57.7452 45.3497 57.2889L45.3356 57.2959ZM54.8691 32.8656C49.0704 38.6643 44.6968 45.4599 41.8466 53.0838H28.8311C32.1025 42.1884 38.0486 32.2338 46.1429 24.1395C54.2372 16.0452 64.1919 10.0991 75.0802 6.83468V19.8501C67.4563 22.6933 60.6608 27.0669 54.8621 32.8726L54.8691 32.8656Z" fill="#7DDACF"/>
            <path d="M147.346 125.35C156.823 115.873 163.556 104.009 166.799 91.0492C166.981 90.3121 166.813 89.5329 166.35 88.9362C165.879 88.3324 165.163 87.9884 164.405 87.9884H146.412C145.352 87.9884 144.411 88.6624 144.074 89.6662C141.512 97.2481 137.328 103.966 131.642 109.653C125.962 115.332 119.237 119.516 111.655 122.086C110.651 122.423 109.977 123.363 109.977 124.423V142.416C109.977 143.174 110.328 143.89 110.925 144.361C111.529 144.831 112.308 144.992 113.045 144.81C126.005 141.567 137.862 134.841 147.346 125.364V125.35ZM161.169 92.9166C157.897 103.812 151.951 113.767 143.857 121.861C135.763 129.955 125.808 135.901 114.913 139.173V126.157C122.536 123.314 129.332 118.941 135.131 113.142C140.929 107.343 145.303 100.548 148.153 92.9236H161.169V92.9166Z" fill="#7DDACF"/>
            <path d="M79.2955 144.149C79.7588 143.686 80.0186 143.061 80.0186 142.401V124.409C80.0186 123.349 79.3446 122.408 78.3407 122.071C70.7589 119.509 64.0406 115.324 58.3542 109.638C52.6678 103.952 48.4909 97.2334 45.9215 89.6516C45.5845 88.6477 44.6437 87.9738 43.5837 87.9738H25.5909C24.8327 87.9738 24.1166 88.3247 23.6463 88.9215C23.1759 89.5182 23.0144 90.3045 23.197 91.0346C26.4473 103.994 33.1727 115.851 42.65 125.335C52.1273 134.82 63.9914 141.545 76.9507 144.788C77.6878 144.971 78.4671 144.802 79.0638 144.339C79.141 144.269 79.2182 144.206 79.2884 144.135L79.2955 144.149ZM75.0833 126.15V139.165C64.188 135.894 54.2333 129.948 46.139 121.853C38.0447 113.759 32.1056 103.804 28.8272 92.9089H41.8427C44.6859 100.533 49.0595 107.321 54.8652 113.127C60.6639 118.926 67.4594 123.306 75.0833 126.15Z" fill="#7DDACF"/>
            <path d="M166.156 57.2958C166.226 57.2256 166.296 57.1484 166.352 57.0711C166.823 56.4744 166.984 55.6882 166.802 54.951C163.558 41.9917 156.833 30.1276 147.349 20.6503C137.864 11.173 126.007 4.44066 113.048 1.19733C112.311 1.0148 111.532 1.18328 110.935 1.64661C110.338 2.11696 109.987 2.83304 109.987 3.59122V21.584C109.987 22.6441 110.661 23.5848 111.665 23.9217C119.247 26.4841 125.965 30.6681 131.652 36.3545C137.331 42.0339 141.515 48.7592 144.084 56.341C144.421 57.3449 145.362 58.0189 146.422 58.0189H164.415C165.075 58.0189 165.707 57.7591 166.163 57.3028L166.156 57.2958ZM114.922 6.83455C125.818 10.106 135.772 16.0521 143.867 24.1464C151.961 32.2407 157.9 42.1953 161.179 53.0907H148.163C145.32 45.4668 140.946 38.6782 135.141 32.8725C129.342 27.0738 122.546 22.7002 114.922 19.85V6.83455Z" fill="#7DDACF"/>
            <path d="M54.866 32.866C76.9937 10.7383 113.007 10.7313 135.135 32.866C157.27 55.0007 157.263 91.0073 135.135 113.135C113.007 135.263 77.0007 135.27 54.866 113.135C32.7313 91.0003 32.7383 54.9937 54.866 32.866Z" fill="#7DDACF"/>
            <path d="M74.5259 93.2586L115.298 93.5291C117.016 93.5404 118.399 94.942 118.388 96.6596L118.378 98.1127C118.367 99.8303 116.965 101.213 115.247 101.202L74.475 100.932C72.7574 100.92 71.3743 99.5186 71.3857 97.801L71.3953 96.3479C71.4067 94.6304 72.8083 93.2472 74.5259 93.2586Z" fill="#110A1D"/>
            <path d="M109.743 68.6471C110.186 68.6471 110.635 68.5489 111.042 68.3523L114.222 66.8149C115.605 66.1409 116.237 64.5052 115.662 63.0801L114.201 59.4437C113.752 58.3345 112.692 57.6114 111.499 57.6044C110.986 57.6044 110.481 57.7307 110.031 57.9905L106.24 60.1527C105.531 60.5529 105.019 61.2478 104.836 62.0482C104.654 62.8485 104.815 63.6909 105.279 64.3648L107.357 67.3765C107.897 68.1627 108.796 68.6401 109.751 68.6401L109.743 68.6471Z" fill="#110A1D"/>
            <path d="M80.3975 68.4515C81.3523 68.4515 82.2578 67.9952 82.8054 67.2159L84.8624 64.3166C85.3397 63.6496 85.5082 62.8072 85.3397 62.0069C85.1712 61.2066 84.6658 60.5046 83.9567 60.0904L80.0465 57.7948C79.6042 57.535 79.0987 57.3946 78.5863 57.3876C77.3928 57.3806 76.3187 58.0896 75.8554 59.1918L74.3812 62.723C73.7915 64.141 74.4022 65.7908 75.7711 66.4788L79.0987 68.1426C79.4989 68.3391 79.9482 68.4515 80.3905 68.4515H80.3975Z" fill="#110A1D"/>
            <path d="M112.948 90.8033C114.738 90.8173 116.346 89.6941 116.957 88.0092L123.759 69.2863C124.195 69.4969 124.658 69.6584 125.128 69.7778C125.683 69.9182 126.245 69.9883 126.813 69.9883C127.143 69.9883 127.466 69.9743 127.782 69.9322C131.327 69.4829 134.016 66.4432 134.037 62.8628C134.065 58.9035 130.864 55.6601 126.904 55.632C122.945 55.604 119.702 58.8052 119.681 62.7646C119.681 63.6772 119.835 64.5547 120.158 65.3761C120.334 65.8254 120.551 66.2536 120.804 66.6608L107.866 72.9228L97.9671 58.5805C98.3813 58.405 98.7815 58.1874 99.1606 57.9276C99.8767 57.4432 100.501 56.8395 101.007 56.1305C101.863 54.923 102.327 53.4979 102.334 52.0236C102.362 48.0643 99.1606 44.8209 95.2012 44.7928C95.0257 44.7928 94.8431 44.7928 94.6676 44.8069C91.1224 45.0456 88.2582 47.8888 87.9984 51.434C87.8791 53.1118 88.3213 54.7194 89.2761 56.0884C89.7815 56.8044 90.3994 57.4152 91.1084 57.8996C91.4805 58.1593 91.8806 58.3769 92.2948 58.5525L82.2208 72.7473L69.4932 66.38C69.7319 65.9237 69.9214 65.4463 70.0618 64.9478C70.2303 64.3441 70.3215 63.7123 70.3215 63.0734C70.3215 62.7856 70.3075 62.4978 70.2795 62.217C69.8723 58.6086 66.8255 55.8707 63.1961 55.8497C59.2367 55.8216 55.9933 59.0228 55.9723 62.9822C55.9442 66.7591 58.8786 69.9322 62.6485 70.1919L63.0978 70.206C63.8279 70.206 64.5439 70.1077 65.2389 69.8971C65.6882 69.7567 66.1235 69.5812 66.5307 69.3565L72.9191 87.7144C73.5017 89.4063 75.1024 90.5435 76.8925 90.5576L112.948 90.7962V90.8033Z" fill="#110A1D"/>
        </g>
        <g opacity="0.15">
            <path d="M197.031 1474.84C197.031 1515.63 230.224 1548.82 271.016 1548.82C311.807 1548.82 345 1515.63 345 1474.84C345 1434.04 311.807 1400.85 271.016 1400.85C230.224 1400.85 197.031 1434.04 197.031 1474.84ZM339.67 1474.84C339.67 1512.69 308.87 1543.49 271.016 1543.49C233.161 1543.49 202.361 1512.69 202.361 1474.84C202.361 1436.98 233.161 1406.18 271.016 1406.18C308.87 1406.18 339.67 1436.98 339.67 1474.84Z" fill="#478BF9"/>
            <path d="M197.031 1293.98C197.031 1295.46 198.228 1296.64 199.688 1296.64C201.149 1296.64 202.346 1295.45 202.346 1293.98C202.346 1256.13 233.145 1225.33 271 1225.33C308.855 1225.33 339.654 1256.13 339.654 1293.98C339.654 1295.46 340.851 1296.64 342.312 1296.64C343.772 1296.64 344.969 1295.45 344.969 1293.98C344.969 1253.19 311.776 1220 270.984 1220C230.193 1220 197 1253.19 197 1293.98H197.031Z" fill="#478BF9"/>
            <path d="M285.267 1461.77C285.267 1464.49 283.417 1466.85 280.776 1467.5L275.756 1468.76V1455.85H279.33C282.594 1455.85 285.251 1458.5 285.251 1461.77H285.267Z" fill="#478BF9"/>
            <path d="M266.278 1493.83H262.703C259.44 1493.83 256.783 1491.17 256.783 1487.9C256.783 1485.19 258.632 1482.82 261.274 1482.17L266.293 1480.91V1493.83H266.278Z" fill="#478BF9"/>
            <path d="M271.015 1414.63C304.208 1414.63 331.231 1441.64 331.231 1474.85C331.231 1508.06 304.223 1535.07 271.015 1535.07C237.807 1535.07 210.799 1508.06 210.799 1474.85C210.799 1441.64 237.807 1414.63 271.015 1414.63ZM247.27 1465.34H256.765V1460.59C256.765 1457.97 258.894 1455.83 261.52 1455.83H266.276V1471.12L258.956 1472.96C252.088 1474.68 247.286 1480.82 247.286 1487.9C247.286 1496.4 254.201 1503.32 262.701 1503.32H266.276V1515.35H275.77V1503.32H280.525C288.389 1503.32 294.775 1496.93 294.775 1489.07V1484.31H285.281V1489.07C285.281 1491.68 283.152 1493.83 280.525 1493.83H275.77V1478.53L283.09 1476.7C289.958 1474.98 294.76 1468.84 294.76 1461.75C294.76 1453.25 287.845 1446.34 279.344 1446.34H275.77V1434.31H266.276V1446.34H261.52C253.657 1446.34 247.27 1452.72 247.27 1460.59V1465.34Z" fill="#478BF9"/>
            <path d="M197 1292.82V1471.3C197 1472.77 198.196 1473.95 199.656 1473.95C201.116 1473.95 202.312 1472.76 202.312 1471.3V1292.82C202.312 1291.34 201.116 1290.16 199.656 1290.16C198.196 1290.16 197 1291.36 197 1292.82Z" fill="#478BF9"/>
            <path d="M339.574 1292.43V1470.91C339.574 1472.38 340.77 1473.57 342.231 1473.57C343.691 1473.57 344.887 1472.37 344.887 1470.91V1292.43C344.887 1290.96 343.691 1289.78 342.231 1289.78C340.77 1289.78 339.574 1290.97 339.574 1292.43Z" fill="#478BF9"/>
            <path d="M271.001 1180C289.964 1180 308.912 1172.79 323.352 1158.35C352.216 1129.49 352.216 1082.54 323.352 1053.68C309.362 1039.69 290.772 1032 271.001 1032C251.229 1032 232.639 1039.69 218.65 1053.68C189.786 1082.54 189.786 1129.49 218.65 1158.35C233.074 1172.77 252.038 1180 271.001 1180ZM319.466 1154.47C292.746 1181.18 249.271 1181.18 222.551 1154.47C195.832 1127.75 195.832 1084.28 222.551 1057.57C235.499 1044.62 252.706 1037.5 271.016 1037.5C289.327 1037.5 306.534 1044.64 319.481 1057.57C346.201 1084.28 346.201 1127.75 319.481 1154.47H319.466Z" fill="#9DADF2"/>
            <path d="M271.978 1133.7C271.714 1134.34 271.092 1134.71 270.439 1134.71C270.221 1134.71 270.004 1134.67 269.786 1134.59C264.564 1132.4 259.807 1129.01 256.046 1124.78C255.439 1124.1 255.502 1123.04 256.186 1122.44C256.869 1121.83 257.926 1121.89 258.533 1122.58C261.968 1126.44 266.304 1129.54 271.076 1131.53C271.916 1131.88 272.32 1132.86 271.962 1133.7H271.978Z" fill="#9DADF2"/>
            <path d="M242.79 1080.43L270.396 1069.39C270.8 1069.24 271.235 1069.24 271.639 1069.39L299.245 1080.43C299.882 1080.68 300.286 1081.28 300.286 1081.97V1101.73C300.255 1119.98 288.722 1136.47 271.593 1142.75C271.406 1142.81 271.22 1142.84 271.018 1142.84C270.815 1142.84 270.629 1142.81 270.442 1142.75C253.313 1136.45 241.78 1119.98 241.749 1101.73V1081.97C241.749 1081.28 242.153 1080.68 242.79 1080.43ZM245.075 1101.73C245.106 1118.33 255.521 1133.45 271.002 1139.41C286.483 1133.45 296.913 1118.33 296.944 1101.73V1083.1L271.002 1072.73L245.075 1083.1V1101.73Z" fill="#9DADF2"/>
            <path d="M282.531 1083.02C282.935 1082.85 283.386 1082.85 283.806 1083.02L290.38 1085.65C291.018 1085.9 291.422 1086.5 291.422 1087.19V1094.2C291.422 1095.11 290.676 1095.86 289.759 1095.86C288.842 1095.86 288.096 1095.11 288.096 1094.2V1088.32L282.578 1086.12C282.158 1085.94 281.847 1085.63 281.661 1085.21C281.49 1084.81 281.49 1084.36 281.661 1083.94C281.832 1083.52 282.142 1083.21 282.547 1083.02H282.531Z" fill="#9DADF2"/>
            <path d="M228.954 1063.98C240.177 1052.75 255.114 1046.58 271 1046.58C286.885 1046.58 301.807 1052.76 313.045 1063.98C336.221 1087.16 336.221 1124.88 313.045 1148.06C301.45 1159.66 286.232 1165.44 271 1165.44C255.767 1165.44 240.55 1159.64 228.954 1148.06C205.779 1124.89 205.779 1087.17 228.954 1063.98ZM237.177 1101.73C237.13 1122.82 250.607 1141.27 270.704 1147.66C270.891 1147.72 271.093 1147.72 271.295 1147.66C291.393 1141.27 304.869 1122.82 304.823 1101.73V1078.41C304.823 1078.02 304.589 1077.66 304.216 1077.51L271.357 1064.37C271.248 1064.33 271.124 1064.31 271 1064.31C270.875 1064.31 270.751 1064.33 270.642 1064.37L237.783 1077.52C237.41 1077.66 237.177 1078.02 237.177 1078.42V1101.75V1101.73Z" fill="#9DADF2"/>
            <path d="M271 992C311.809 992 345 958.793 345 918C345 877.207 311.793 844 271 844C230.207 844 197 877.207 197 918C197 958.793 230.207 992 271 992ZM271 848.928C309.088 848.928 340.072 879.912 340.072 918C340.072 956.088 309.088 987.072 271 987.072C232.912 987.072 201.928 956.088 201.928 918C201.928 879.912 232.912 848.928 271 848.928Z" fill="#7DDACF"/>
            <path d="M222.714 865.196L245.623 888.105L241.116 892.613L218.207 869.704L222.714 865.196Z" fill="#7DDACF"/>
            <path d="M301.574 944.056L324.483 966.965L319.976 971.472L297.067 948.563L301.574 944.056Z" fill="#7DDACF"/>
            <path d="M240.438 944.068L244.945 948.575L222.036 971.484L217.529 966.977L240.438 944.068Z" fill="#7DDACF"/>
            <path d="M319.98 864.518L324.487 869.025L301.589 891.923L297.082 887.416L319.98 864.518Z" fill="#7DDACF"/>
            <path d="M252.952 919.99C251.46 918.498 251.46 916.088 252.952 914.611L256.124 911.456C257.616 909.963 260.026 909.963 261.503 911.456L263.213 913.166L265.187 911.191C266.68 909.699 269.089 909.699 270.566 911.191L272.276 912.917L274.251 910.927C275.743 909.435 278.153 909.435 279.63 910.927L290.123 921.421C290.201 921.498 290.201 921.623 290.123 921.716C288.724 923.115 286.439 923.115 285.024 921.716L278.262 914.953C277.531 914.223 276.349 914.223 275.619 914.953L275.121 915.451C275.028 915.544 275.028 915.684 275.121 915.777L280.764 921.421C280.842 921.498 280.842 921.623 280.764 921.716C279.365 923.115 277.08 923.115 275.665 921.716L269.183 915.233C268.452 914.503 267.27 914.503 266.54 915.233L266.042 915.731C265.965 915.808 265.965 915.933 266.042 916.026L271.483 921.467C271.561 921.545 271.561 921.669 271.483 921.763C270.084 923.162 267.799 923.162 266.384 921.763L260.119 915.498C259.388 914.767 258.207 914.767 257.476 915.498L256.404 916.57C255.984 916.99 255.984 917.69 256.404 918.109L256.575 918.28C256.994 918.7 257.694 918.7 258.114 918.28L259.497 916.897C259.575 916.819 259.699 916.819 259.793 916.897L262.187 919.291C262.264 919.369 262.264 919.493 262.187 919.586L260.026 921.747C258.533 923.24 256.124 923.24 254.647 921.747L252.937 920.037L252.952 919.99Z" fill="#7DDACF"/>
            <path d="M271 861.257C302.342 861.257 327.744 886.659 327.744 918.001C327.744 949.342 302.342 974.744 271 974.744C239.659 974.744 214.257 949.342 214.257 918.001C214.257 886.659 239.659 861.257 271 861.257ZM268.684 878.777C259.574 879.306 251.303 882.944 244.898 888.634L253.091 896.827C257.366 893.204 262.761 890.857 268.684 890.359V878.777ZM273.301 878.777V890.359C279.224 890.841 284.619 893.204 288.894 896.827L297.087 888.634C290.682 882.944 282.411 879.306 273.301 878.777ZM300.352 891.898L292.159 900.091C295.781 904.367 298.129 909.761 298.626 915.684H310.208C309.679 906.574 306.042 898.304 300.352 891.898ZM310.208 920.301H298.626C298.144 926.225 295.781 931.619 292.159 935.894L300.352 944.087C306.042 937.682 309.679 929.412 310.208 920.301ZM273.301 957.208C282.411 956.68 290.682 953.042 297.087 947.352L288.894 939.159C284.619 942.781 279.224 945.129 273.301 945.626V957.208ZM294.848 917.985C294.848 904.817 284.168 894.137 271 894.137C257.833 894.137 247.153 904.817 247.153 917.985C247.153 931.153 257.833 941.833 271 941.833C284.168 941.833 294.848 931.153 294.848 917.985ZM268.684 957.208V945.626C262.761 945.144 257.366 942.781 253.091 939.159L244.898 947.352C251.303 953.042 259.574 956.68 268.684 957.208ZM241.634 944.087L249.826 935.894C246.204 931.619 243.857 926.225 243.359 920.301H231.777C232.306 929.412 235.944 937.682 241.634 944.087ZM243.359 915.684C243.841 909.761 246.204 904.367 249.826 900.091L241.634 891.898C235.944 898.304 232.306 906.574 231.777 915.684H243.359Z" fill="#7DDACF"/>
            <path d="M197.031 541.836C197.031 582.628 230.224 615.821 271.016 615.821C311.807 615.821 345 582.628 345 541.836C345 501.044 311.807 467.852 271.016 467.852C230.224 467.852 197.031 501.044 197.031 541.836ZM339.67 541.836C339.67 579.691 308.87 610.49 271.016 610.49C233.161 610.49 202.361 579.691 202.361 541.836C202.361 503.981 233.161 473.182 271.016 473.182C308.87 473.182 339.67 503.981 339.67 541.836Z" fill="#478BF9"/>
            <path d="M197.031 360.984C197.031 362.461 198.228 363.642 199.688 363.642C201.149 363.642 202.346 362.445 202.346 360.984C202.346 323.13 233.145 292.33 271 292.33C308.855 292.33 339.654 323.13 339.654 360.984C339.654 362.461 340.851 363.642 342.312 363.642C343.772 363.642 344.969 362.445 344.969 360.984C344.969 320.193 311.776 287 270.984 287C230.193 287 197 320.193 197 360.984H197.031Z" fill="#478BF9"/>
            <path d="M285.267 528.766C285.267 531.486 283.417 533.848 280.776 534.5L275.756 535.759V522.846H279.33C282.594 522.846 285.251 525.503 285.251 528.766H285.267Z" fill="#478BF9"/>
            <path d="M266.278 560.825H262.703C259.44 560.825 256.783 558.167 256.783 554.904C256.783 552.185 258.632 549.823 261.274 549.17L266.293 547.911V560.825H266.278Z" fill="#478BF9"/>
            <path d="M271.015 481.635C304.208 481.635 331.231 508.643 331.231 541.851C331.231 575.059 304.223 602.067 271.015 602.067C237.807 602.067 210.799 575.059 210.799 541.851C210.799 508.643 237.807 481.635 271.015 481.635ZM247.27 532.341H256.765V527.586C256.765 524.975 258.894 522.83 261.52 522.83H266.276V538.122L258.956 539.955C252.088 541.68 247.286 547.818 247.286 554.904C247.286 563.405 254.201 570.32 262.701 570.32H266.276V582.347H275.77V570.32H280.525C288.389 570.32 294.775 563.933 294.775 556.07V551.315H285.281V556.07C285.281 558.681 283.152 560.825 280.525 560.825H275.77V545.534L283.09 543.7C289.958 541.975 294.76 535.837 294.76 528.751C294.76 520.251 287.845 513.336 279.344 513.336H275.77V501.308H266.276V513.336H261.52C253.657 513.336 247.27 519.723 247.27 527.586V532.341Z" fill="#478BF9"/>
            <path d="M197 359.82V538.298C197 539.773 198.196 540.954 199.656 540.954C201.116 540.954 202.312 539.758 202.312 538.298V359.82C202.312 358.345 201.116 357.164 199.656 357.164C198.196 357.164 197 358.36 197 359.82Z" fill="#478BF9"/>
            <path d="M339.574 359.432V537.909C339.574 539.385 340.77 540.565 342.231 540.565C343.691 540.565 344.887 539.369 344.887 537.909V359.432C344.887 357.956 343.691 356.775 342.231 356.775C340.77 356.775 339.574 357.971 339.574 359.432Z" fill="#478BF9"/>
            <path d="M271.01 804C311.813 804 345 770.793 345 730C345 689.207 311.798 656 271.01 656C230.222 656 197.02 689.207 197.02 730C197.02 770.793 230.222 804 271.01 804ZM271.01 660.928C309.093 660.928 340.073 691.912 340.073 730C340.073 768.088 309.093 799.072 271.01 799.072C232.927 799.072 201.947 768.088 201.947 730C201.947 691.912 232.927 660.928 271.01 660.928Z" fill="#9DADF2"/>
            <path d="M247.009 683.797C247.383 683.797 247.756 683.719 248.098 683.548C255.263 680.003 262.973 678.2 271.01 678.2C279.046 678.2 286.756 680.003 293.922 683.548C294.87 684.014 296.005 683.828 296.751 683.081L309.466 670.365C310.01 669.821 310.259 669.074 310.165 668.313C310.072 667.551 309.637 666.882 308.984 666.494C297.528 659.622 284.393 656 270.994 656C257.595 656 244.46 659.638 233.004 666.494C232.351 666.882 231.916 667.551 231.823 668.313C231.73 669.074 231.994 669.821 232.522 670.365L245.237 683.081C245.719 683.548 246.341 683.797 246.994 683.797H247.009ZM271.01 673.272C262.818 673.272 254.921 674.982 247.522 678.355L238.32 669.152C248.331 663.758 259.569 660.928 271.01 660.928C282.45 660.928 293.689 663.758 303.699 669.152L294.497 678.355C287.098 674.982 279.201 673.272 271.01 673.272Z" fill="#9DADF2"/>
            <path d="M271.009 804C284.409 804 297.543 800.363 308.999 793.507C309.652 793.118 310.087 792.45 310.181 791.688C310.274 790.926 310.01 790.18 309.481 789.636L296.766 776.919C296.02 776.173 294.87 775.986 293.937 776.453C286.771 779.997 279.061 781.8 271.025 781.8C262.989 781.8 255.279 779.997 248.113 776.453C247.165 775.986 246.03 776.173 245.284 776.919L232.569 789.636C232.025 790.18 231.776 790.926 231.869 791.688C231.963 792.45 232.398 793.118 233.051 793.507C244.507 800.378 257.641 804 271.04 804H271.009ZM303.699 790.848C293.688 796.243 282.45 799.072 271.009 799.072C259.569 799.072 248.33 796.243 238.32 790.848L247.522 781.645C254.921 785.019 262.818 786.729 271.009 786.729C279.201 786.729 287.098 785.019 294.497 781.645L303.699 790.848Z" fill="#9DADF2"/>
            <path d="M209.622 769.193C210.275 769.193 210.897 768.944 211.363 768.477L224.078 755.761C224.824 755.014 225.011 753.864 224.545 752.931C221.001 745.764 219.197 738.053 219.197 730.016C219.197 721.979 221.001 714.268 224.545 707.101C225.011 706.153 224.824 705.002 224.078 704.272L211.363 691.555C210.819 691.011 210.073 690.762 209.311 690.855C208.55 690.948 207.881 691.384 207.493 692.037C200.622 703.494 197 716.631 197 730.032C197 743.432 200.622 756.569 207.493 768.027C207.881 768.68 208.55 769.115 209.311 769.208C209.42 769.208 209.513 769.208 209.622 769.208V769.193ZM219.368 753.491L210.166 762.694C204.772 752.683 201.943 741.443 201.943 730.001C201.943 718.559 204.772 707.319 210.166 697.307L219.368 706.51C215.995 713.91 214.285 721.808 214.285 730.001C214.285 738.193 215.995 746.091 219.368 753.491Z" fill="#9DADF2"/>
            <path d="M332.394 769.192C332.503 769.192 332.596 769.192 332.689 769.176C333.451 769.083 334.119 768.648 334.508 767.995C341.378 756.537 345 743.401 345 730C345 716.599 341.378 703.462 334.508 692.005C334.119 691.352 333.451 690.917 332.689 690.823C331.927 690.73 331.181 690.994 330.637 691.523L317.922 704.24C317.176 704.986 316.989 706.136 317.456 707.069C321 714.236 322.803 721.947 322.803 729.984C322.803 738.022 321 745.733 317.456 752.899C316.989 753.848 317.176 754.998 317.922 755.729L330.637 768.446C331.104 768.912 331.725 769.176 332.378 769.176L332.394 769.192ZM331.85 697.306C337.244 707.318 340.073 718.558 340.073 730C340.073 741.442 337.244 752.682 331.85 762.694L322.647 753.49C326.021 746.09 327.73 738.193 327.73 730C327.73 721.807 326.021 713.91 322.647 706.51L331.85 697.306Z" fill="#9DADF2"/>
            <path d="M271.006 673.256C302.281 673.256 327.742 698.705 327.742 730C327.742 761.294 302.296 786.743 271.006 786.743C239.716 786.743 214.27 761.294 214.27 730C214.27 698.705 239.716 673.256 271.006 673.256ZM239.078 711.36C236.389 715.961 234.757 720.983 234.228 726.315C234.213 726.533 234.306 726.735 234.493 726.844C238.55 729.331 242.187 732.378 245.327 735.938C245.467 736.109 245.7 736.171 245.902 736.094L252.913 733.808C253.115 733.746 253.255 733.575 253.286 733.358C254.078 727.559 255.882 722.009 258.648 716.847C258.742 716.661 258.726 716.443 258.602 716.272L254.265 710.303C254.156 710.163 253.985 710.069 253.814 710.069C253.768 710.069 253.736 710.069 253.69 710.069C249.058 711.095 244.301 711.437 239.576 711.049C239.358 711.033 239.156 711.142 239.047 711.329L239.078 711.36ZM257.11 734.337C257.094 734.492 257.141 734.648 257.234 734.757C260.918 739.001 265.612 742.405 270.788 744.582C270.928 744.644 271.068 744.644 271.208 744.582C276.384 742.39 281.079 738.985 284.763 734.757C284.856 734.648 284.902 734.492 284.887 734.337C284.172 728.709 282.415 723.33 279.695 718.355C279.617 718.216 279.493 718.122 279.338 718.091C276.602 717.516 273.804 717.221 270.99 717.221C268.177 717.221 265.379 717.516 262.643 718.091C262.488 718.122 262.363 718.216 262.286 718.355C259.566 723.33 257.825 728.709 257.094 734.337H257.11ZM257.949 695.751C257.949 695.751 257.762 695.596 257.576 695.596C257.514 695.596 257.436 695.596 257.358 695.642C251.638 697.912 246.524 701.643 242.545 706.416C242.343 706.649 242.42 706.898 242.467 706.991C242.498 707.069 242.638 707.318 242.964 707.318C246.493 707.364 250.006 706.96 253.41 706.152C253.55 706.121 253.674 706.027 253.752 705.903C255.571 702.903 257.032 699.669 258.089 696.311C258.182 696.016 258.011 695.813 257.933 695.751H257.949ZM278.856 693.886C273.711 692.782 268.286 692.782 263.141 693.886C262.939 693.932 262.768 694.088 262.721 694.29C261.617 698.907 259.83 703.322 257.42 707.411C257.312 707.598 257.327 707.831 257.451 708.017L261.757 713.956C261.882 714.127 262.099 714.22 262.301 714.174C267.99 713.023 274.006 713.023 279.695 714.174C279.897 714.22 280.115 714.127 280.239 713.956L284.545 708.017C284.669 707.846 284.685 707.598 284.576 707.411C282.167 703.322 280.379 698.907 279.276 694.29C279.229 694.088 279.058 693.932 278.856 693.886ZM299.452 706.416C295.472 701.628 290.358 697.897 284.638 695.642C284.56 695.611 284.483 695.596 284.421 695.596C284.219 695.596 284.094 695.705 284.048 695.751C283.97 695.829 283.799 696.016 283.892 696.311C284.949 699.684 286.41 702.903 288.229 705.903C288.307 706.027 288.431 706.121 288.571 706.152C291.975 706.96 295.488 707.364 299.017 707.318C299.343 707.318 299.483 707.069 299.514 706.991C299.561 706.898 299.638 706.649 299.436 706.416H299.452ZM302.918 711.36C302.825 711.189 302.638 711.08 302.436 711.08C302.436 711.08 302.405 711.08 302.39 711.08C297.649 711.453 292.892 711.126 288.276 710.1C288.058 710.054 287.84 710.132 287.716 710.318L283.379 716.288C283.255 716.459 283.239 716.692 283.333 716.863C286.099 722.024 287.903 727.574 288.695 733.373C288.726 733.575 288.866 733.746 289.068 733.824L296.079 736.109C296.281 736.171 296.514 736.109 296.654 735.954C299.794 732.394 303.431 729.347 307.488 726.859C307.659 726.75 307.768 726.548 307.752 726.331C307.224 720.998 305.592 715.961 302.903 711.375L302.918 711.36ZM301.224 749.666C301.317 749.961 301.581 750.023 301.69 750.039C301.799 750.039 302.048 750.039 302.219 749.79C305.53 744.582 307.488 738.55 307.877 732.363C307.892 732.052 307.69 731.896 307.597 731.85C307.504 731.803 307.255 731.694 307.006 731.881C304.131 733.917 301.519 736.311 299.234 738.97C299.141 739.079 299.094 739.219 299.11 739.374C299.39 742.872 300.105 746.339 301.239 749.681L301.224 749.666ZM285.866 763.859C290.716 761.729 294.991 758.605 298.566 754.594C298.706 754.438 298.752 754.205 298.675 754.019C296.856 749.634 295.706 745.017 295.255 740.291C295.239 740.074 295.084 739.887 294.882 739.825L287.949 737.571C287.949 737.571 287.84 737.539 287.778 737.539C287.623 737.539 287.483 737.602 287.374 737.726C283.488 742.079 278.623 745.624 273.291 747.971C273.089 748.064 272.965 748.251 272.965 748.469V755.76C272.965 755.977 273.089 756.179 273.291 756.257C277.643 758.138 281.685 760.672 285.307 763.766C285.462 763.906 285.695 763.937 285.882 763.844L285.866 763.859ZM261.415 765.398C261.431 765.507 261.508 765.756 261.819 765.834C267.819 767.357 274.161 767.357 280.162 765.834C280.457 765.756 280.55 765.507 280.566 765.398C280.581 765.29 280.612 765.041 280.348 764.839C277.519 762.74 274.441 760.983 271.193 759.631C271.053 759.569 270.913 759.569 270.773 759.631C267.54 760.983 264.462 762.74 261.617 764.839C261.369 765.025 261.384 765.29 261.4 765.398H261.415ZM243.4 754.609C246.975 758.62 251.249 761.729 256.099 763.859C256.301 763.953 256.519 763.906 256.674 763.782C260.296 760.688 264.322 758.154 268.69 756.273C268.892 756.179 269.016 755.993 269.016 755.775V748.484C269.016 748.266 268.892 748.064 268.69 747.987C263.358 745.639 258.477 742.095 254.607 737.742C254.498 737.617 254.358 737.555 254.203 737.555C254.141 737.555 254.094 737.555 254.032 737.586L247.099 739.84C246.897 739.903 246.742 740.089 246.726 740.307C246.275 745.033 245.125 749.635 243.306 754.034C243.229 754.221 243.26 754.454 243.415 754.609H243.4ZM239.762 749.805C239.933 750.07 240.197 750.07 240.291 750.054C240.4 750.054 240.648 749.977 240.757 749.681C241.876 746.339 242.591 742.872 242.887 739.374C242.887 739.234 242.856 739.079 242.762 738.97C240.477 736.311 237.866 733.933 234.99 731.881C234.881 731.803 234.773 731.772 234.679 731.772C234.555 731.772 234.462 731.818 234.4 731.85C234.306 731.896 234.089 732.052 234.12 732.363C234.508 738.55 236.467 744.582 239.778 749.79L239.762 749.805Z" fill="#9DADF2"/>
            <path d="M271.001 247C289.964 247 308.912 239.789 323.352 225.351C352.216 196.491 352.216 149.54 323.352 120.68C309.362 106.693 290.772 99 271.001 99C251.229 99 232.639 106.693 218.65 120.68C189.786 149.54 189.786 196.491 218.65 225.351C233.074 239.773 252.038 247 271.001 247ZM319.466 221.466C292.746 248.181 249.271 248.181 222.551 221.466C195.832 194.75 195.832 151.281 222.551 124.565C235.499 111.62 252.706 104.502 271.016 104.502C289.327 104.502 306.534 111.635 319.481 124.565C346.201 151.281 346.201 194.75 319.481 221.466H319.466Z" fill="#9DADF2"/>
            <path d="M271.978 200.703C271.714 201.34 271.092 201.713 270.439 201.713C270.221 201.713 270.004 201.666 269.786 201.589C264.564 199.397 259.807 196.009 256.046 191.782C255.439 191.098 255.502 190.041 256.186 189.435C256.869 188.829 257.926 188.891 258.533 189.575C261.968 193.445 266.304 196.538 271.076 198.527C271.916 198.884 272.32 199.864 271.962 200.703H271.978Z" fill="#9DADF2"/>
            <path d="M242.79 147.427L270.396 136.393C270.8 136.238 271.235 136.238 271.639 136.393L299.245 147.427C299.882 147.676 300.286 148.282 300.286 148.966V168.734C300.255 186.98 288.722 203.469 271.593 209.748C271.406 209.81 271.22 209.841 271.018 209.841C270.815 209.841 270.629 209.81 270.442 209.748C253.313 203.454 241.78 186.98 241.749 168.734V148.966C241.749 148.282 242.153 147.676 242.79 147.427ZM245.075 168.734C245.106 185.333 255.521 200.454 271.002 206.407C286.483 200.454 296.913 185.333 296.944 168.734V150.1L271.002 139.734L245.075 150.1V168.734Z" fill="#9DADF2"/>
            <path d="M282.531 150.023C282.935 149.852 283.386 149.852 283.806 150.023L290.38 152.649C291.018 152.898 291.422 153.504 291.422 154.188V161.197C291.422 162.114 290.676 162.86 289.759 162.86C288.842 162.86 288.096 162.114 288.096 161.197V155.322L282.578 153.116C282.158 152.945 281.847 152.634 281.661 152.214C281.49 151.81 281.49 151.359 281.661 150.94C281.832 150.52 282.142 150.209 282.547 150.023H282.531Z" fill="#9DADF2"/>
            <path d="M228.954 130.984C240.177 119.748 255.114 113.578 271 113.578C286.885 113.578 301.807 119.764 313.045 130.984C336.221 154.157 336.221 191.875 313.045 215.063C301.45 226.657 286.232 232.438 271 232.438C255.767 232.438 240.55 226.641 228.954 215.063C205.779 191.891 205.779 154.172 228.954 130.984ZM237.177 168.734C237.13 189.824 250.607 208.271 270.704 214.659C270.891 214.721 271.093 214.721 271.295 214.659C291.393 208.271 304.869 189.824 304.823 168.734V145.407C304.823 145.018 304.589 144.661 304.216 144.505L271.357 131.373C271.248 131.326 271.124 131.311 271 131.311C270.875 131.311 270.751 131.326 270.642 131.373L237.783 144.521C237.41 144.661 237.177 145.018 237.177 145.422V168.75V168.734Z" fill="#9DADF2"/>
        </g>
    </g>
    <defs>
        <linearGradient id="paint0_linear_700_4119" x1="250" y1="0" x2="250" y2="1557" gradientUnits="userSpaceOnUse">
            <stop stop-color="white" stop-opacity="0"/>
            <stop offset="0.284327" stop-color="white"/>
            <stop offset="0.756282" stop-color="white"/>
            <stop offset="1" stop-color="white" stop-opacity="0"/>
        </linearGradient>
    </defs>
</svg>
