<svg width="320" height="165" viewBox="0 0 320 165" fill="none" xmlns="http://www.w3.org/2000/svg">
    <g opacity="0.6">
        <g opacity="0.4">
            <path d="M344.406 49.6171C338.129 49.6171 331.857 47.2298 327.078 42.45C317.523 32.8955 317.523 17.3522 327.078 7.79772C331.708 3.16713 337.862 0.6203 344.406 0.6203C350.951 0.6203 357.104 3.16713 361.735 7.79772C371.289 17.3522 371.289 32.8955 361.735 42.45C356.96 47.2246 350.683 49.6171 344.406 49.6171ZM328.364 41.1637C337.208 50.0081 351.599 50.0081 360.444 41.1637C369.288 32.3193 369.288 17.9284 360.444 9.084C356.158 4.79813 350.462 2.44169 344.401 2.44169C338.34 2.44169 332.645 4.80328 328.359 9.084C319.514 17.9284 319.514 32.3193 328.359 41.1637H328.364Z" fill="#9DADF2"/>
            <path d="M283.954 49.4045C270.448 49.4045 259.463 38.4145 259.463 24.9138C259.463 11.413 270.453 0.423096 283.954 0.423096C297.455 0.423096 308.445 11.413 308.445 24.9138C308.445 38.4145 297.455 49.4045 283.954 49.4045ZM283.954 2.05408C271.348 2.05408 261.094 12.3083 261.094 24.9138C261.094 37.5193 271.348 47.7735 283.954 47.7735C296.559 47.7735 306.814 37.5193 306.814 24.9138C306.814 12.3083 296.559 2.05408 283.954 2.05408Z" fill="#478BF9"/>
            <path d="M299.931 7.44155L292.349 15.0234L293.84 16.5151L301.422 8.9332L299.931 7.44155Z" fill="#478BF9"/>
            <path d="M273.834 33.537L266.252 41.1189L267.744 42.6105L275.326 35.0287L273.834 33.537Z" fill="#478BF9"/>
            <path d="M294.07 33.5442L292.578 35.0359L300.16 42.6178L301.652 41.1261L294.07 33.5442Z" fill="#478BF9"/>
            <path d="M267.742 7.21308L266.25 8.70471L273.829 16.283L275.32 14.7913L267.742 7.21308Z" fill="#478BF9"/>
            <path d="M289.927 25.5723C290.421 25.0784 290.421 24.2809 289.927 23.7921L288.878 22.7477C288.384 22.2537 287.586 22.2537 287.097 22.7477L286.531 23.3136L285.878 22.6602C285.384 22.1662 284.587 22.1662 284.098 22.6602L283.532 23.2313L282.878 22.5727C282.384 22.0788 281.587 22.0788 281.098 22.5727L277.625 26.0457C277.6 26.0714 277.6 26.1125 277.625 26.1434C278.088 26.6065 278.845 26.6065 279.313 26.1434L281.551 23.9053C281.793 23.6635 282.184 23.6635 282.426 23.9053L282.59 24.0699C282.621 24.1008 282.621 24.1471 282.59 24.178L280.723 26.0457C280.697 26.0714 280.697 26.1125 280.723 26.1434C281.186 26.6065 281.942 26.6065 282.41 26.1434L284.556 23.9979C284.798 23.7561 285.189 23.7561 285.43 23.9979L285.595 24.1626C285.621 24.1883 285.621 24.2295 285.595 24.2603L283.794 26.0611C283.769 26.0868 283.769 26.128 283.794 26.1589C284.257 26.6219 285.014 26.6219 285.482 26.1589L287.555 24.0854C287.797 23.8436 288.188 23.8436 288.43 24.0854L288.785 24.4404C288.924 24.5793 288.924 24.8108 288.785 24.9498L288.728 25.0063C288.589 25.1453 288.358 25.1453 288.219 25.0063L287.761 24.5485C287.735 24.5227 287.694 24.5227 287.663 24.5485L286.871 25.3408C286.845 25.3665 286.845 25.4077 286.871 25.4385L287.586 26.1537C288.08 26.6476 288.878 26.6476 289.366 26.1537L289.932 25.5877L289.927 25.5723Z" fill="#478BF9"/>
            <path d="M283.954 6.13391C273.582 6.13391 265.175 14.541 265.175 24.9135C265.175 35.2861 273.582 43.6932 283.954 43.6932C294.327 43.6932 302.734 35.2861 302.734 24.9135C302.734 14.541 294.327 6.13391 283.954 6.13391ZM284.721 11.9325C287.736 12.1074 290.473 13.3113 292.593 15.1944L289.882 17.9059C288.467 16.7071 286.681 15.9302 284.721 15.7656V11.9325ZM283.193 11.9325V15.7656C281.233 15.9251 279.447 16.7071 278.032 17.9059L275.321 15.1944C277.441 13.3113 280.178 12.1074 283.193 11.9325ZM274.24 16.2749L276.952 18.9864C275.753 20.4013 274.976 22.1866 274.812 24.1469H270.978C271.153 21.1319 272.357 18.3947 274.24 16.2749ZM270.978 25.675H274.812C274.971 27.6353 275.753 29.4206 276.952 30.8356L274.24 33.547C272.357 31.4272 271.153 28.6901 270.978 25.675ZM283.193 37.8895C280.178 37.7146 277.441 36.5106 275.321 34.6275L278.032 31.916C279.447 33.1148 281.233 33.8917 283.193 34.0564V37.8895ZM276.062 24.9084C276.062 20.5505 279.597 17.0158 283.954 17.0158C288.312 17.0158 291.847 20.5505 291.847 24.9084C291.847 29.2663 288.312 32.801 283.954 32.801C279.597 32.801 276.062 29.2663 276.062 24.9084ZM284.721 37.8895V34.0564C286.681 33.8969 288.467 33.1148 289.882 31.916L292.593 34.6275C290.473 36.5106 287.736 37.7146 284.721 37.8895ZM293.674 33.547L290.962 30.8356C292.161 29.4206 292.938 27.6353 293.102 25.675H296.936C296.761 28.6901 295.557 31.4272 293.674 33.547ZM293.102 24.1469C292.943 22.1866 292.161 20.4013 290.962 18.9864L293.674 16.2749C295.557 18.3947 296.761 21.1319 296.936 24.1469H293.102Z" fill="#478BF9"/>
            <path d="M202.143 42.1674C192.509 32.5334 192.509 16.8595 202.143 7.22549C211.777 -2.4085 227.451 -2.4085 237.085 7.22549C246.719 16.8595 246.719 32.5334 237.085 42.1674C227.451 51.8014 211.777 51.8014 202.143 42.1674ZM235.921 8.38991C226.929 -0.602124 212.3 -0.602124 203.31 8.38991C194.318 17.3819 194.318 32.011 203.31 41.0007C212.302 49.9927 226.931 49.9927 235.921 41.0007C244.913 32.0086 244.913 17.3796 235.921 8.38991Z" fill="white"/>
            <path d="M236.187 19.4553C236.101 19.3686 236.03 19.2585 235.991 19.1366C235.135 16.6063 233.739 14.3642 231.841 12.4664C229.946 10.571 227.701 9.17465 225.171 8.31715C224.836 8.20235 224.611 7.89075 224.611 7.53697V1.53213C224.611 1.2791 224.728 1.04012 224.927 0.883148C225.129 0.726174 225.389 0.672291 225.633 0.733206C229.958 1.81562 233.917 4.06011 237.08 7.22536C240.243 10.3906 242.487 14.3478 243.57 18.6728C243.631 18.9188 243.574 19.1788 243.42 19.3803C243.263 19.5818 243.024 19.6966 242.771 19.6966H236.766C236.541 19.6966 236.335 19.6052 236.183 19.4529L236.187 19.4553ZM233.006 11.302C234.941 13.2372 236.401 15.5052 237.352 18.0495H241.695C240.604 14.4134 238.619 11.0911 235.918 8.38978C233.217 5.68843 229.894 3.704 226.26 2.61455V6.95828C228.805 7.90715 231.073 9.36677 233.008 11.3043L233.006 11.302Z" fill="white"/>
            <path d="M202.142 42.1672C198.98 39.0043 196.733 35.0448 195.65 30.7198C195.589 30.4738 195.646 30.2137 195.8 30.0146C195.957 29.8131 196.196 29.6983 196.449 29.6983H202.454C202.808 29.6983 203.122 29.9232 203.234 30.2583C204.089 32.7886 205.486 35.0307 207.384 36.9285C209.279 38.8239 211.523 40.2202 214.054 41.0777C214.389 41.1902 214.614 41.5042 214.614 41.8579V47.8628C214.614 48.1158 214.497 48.3548 214.297 48.5118C214.096 48.6687 213.836 48.7226 213.59 48.6617C209.265 47.5793 205.308 45.3348 202.142 42.1719V42.1672ZM197.529 31.343C198.621 34.9792 200.606 38.3014 203.307 41.0028C206.008 43.7041 209.33 45.6886 212.967 46.7804V42.4366C210.422 41.4877 208.154 40.0281 206.219 38.0929C204.284 36.1577 202.824 33.8897 201.873 31.3454H197.529V31.343Z" fill="white"/>
            <path d="M224.856 48.4416C224.702 48.287 224.615 48.0785 224.615 47.8582V41.8534C224.615 41.4996 224.84 41.1857 225.175 41.0732C227.705 40.2181 229.947 38.8217 231.845 36.924C233.743 35.0262 235.137 32.7841 235.994 30.2537C236.107 29.9187 236.421 29.6938 236.774 29.6938H242.779C243.032 29.6938 243.271 29.8109 243.428 30.0101C243.585 30.2092 243.639 30.4716 243.578 30.7153C242.494 35.0403 240.249 38.9974 237.086 42.1627C233.923 45.3279 229.964 47.5724 225.639 48.6548C225.393 48.7157 225.133 48.6595 224.933 48.5049C224.908 48.4815 224.882 48.4604 224.859 48.4369L224.856 48.4416ZM226.262 42.4344V46.7782C229.898 45.6864 233.22 43.702 235.922 41.0006C238.623 38.2992 240.605 34.977 241.699 31.3408H237.356C236.407 33.8852 234.947 36.1508 233.009 38.0884C231.074 40.0236 228.806 41.4856 226.262 42.4344Z" fill="white"/>
            <path d="M195.866 19.4554C195.843 19.432 195.82 19.4062 195.801 19.3804C195.644 19.1813 195.59 18.9189 195.651 18.6729C196.733 14.3479 198.978 10.3884 202.143 7.22549C205.308 4.06258 209.265 1.81574 213.59 0.733326C213.836 0.672411 214.097 0.728637 214.296 0.883268C214.495 1.04024 214.612 1.27922 214.612 1.53225V7.53709C214.612 7.89087 214.387 8.20482 214.052 8.31728C211.522 9.17243 209.28 10.5688 207.382 12.4665C205.486 14.3619 204.09 16.6064 203.233 19.1368C203.12 19.4718 202.806 19.6967 202.452 19.6967H196.448C196.227 19.6967 196.016 19.61 195.864 19.4577L195.866 19.4554ZM212.965 2.61467C209.329 3.70646 206.007 5.69089 203.305 8.39225C200.604 11.0936 198.622 14.4158 197.528 18.052H201.871C202.82 15.5076 204.28 13.242 206.217 11.3045C208.153 9.36924 210.421 7.90961 212.965 6.9584V2.61467Z" fill="white"/>
            <path d="M233.008 11.3021C225.623 3.91731 213.604 3.91497 206.219 11.3021C198.832 18.6893 198.834 30.706 206.219 38.0908C213.604 45.4756 225.621 45.4779 233.008 38.0908C240.395 30.7036 240.393 18.6869 233.008 11.3021Z" fill="white"/>
            <path d="M226.445 31.4574L212.838 31.5477C212.264 31.5515 211.803 32.0192 211.807 32.5924L211.81 33.0774C211.814 33.6506 212.281 34.1122 212.855 34.1084L226.462 34.0182C227.035 34.0144 227.497 33.5466 227.493 32.9734L227.49 32.4884C227.486 31.9152 227.018 31.4536 226.445 31.4574Z" fill="#110A1D"/>
            <path d="M214.692 23.2438C214.544 23.2438 214.394 23.211 214.258 23.1454L213.197 22.6323C212.735 22.4074 212.524 21.8615 212.717 21.3859L213.204 20.1723C213.354 19.8021 213.708 19.5608 214.106 19.5585C214.277 19.5585 214.446 19.6006 214.596 19.6873L215.861 20.4089C216.097 20.5425 216.268 20.7744 216.329 21.0415C216.39 21.3086 216.336 21.5898 216.182 21.8147L215.488 22.8198C215.308 23.0822 215.008 23.2415 214.689 23.2415L214.692 23.2438Z" fill="#110A1D"/>
            <path d="M224.486 23.1783C224.168 23.1783 223.865 23.026 223.683 22.766L222.996 21.7984C222.837 21.5758 222.781 21.2946 222.837 21.0275C222.893 20.7604 223.062 20.5262 223.298 20.3879L224.603 19.6218C224.751 19.5351 224.92 19.4883 225.091 19.4859C225.489 19.4836 225.848 19.7202 226.002 20.088L226.494 21.2665C226.691 21.7398 226.487 22.2904 226.03 22.52L224.92 23.0752C224.786 23.1408 224.636 23.1783 224.489 23.1783H224.486Z" fill="#110A1D"/>
            <path d="M213.622 30.638C213.025 30.6427 212.488 30.2679 212.285 29.7056L210.014 23.4571C209.869 23.5274 209.715 23.5812 209.558 23.6211C209.372 23.6679 209.185 23.6914 208.995 23.6914C208.885 23.6914 208.777 23.6867 208.672 23.6726C207.489 23.5227 206.591 22.5082 206.584 21.3133C206.575 19.9919 207.643 18.9095 208.965 18.9001C210.286 18.8908 211.369 19.9591 211.376 21.2805C211.376 21.5851 211.324 21.878 211.216 22.1521C211.158 22.302 211.085 22.4449 211.001 22.5808L215.319 24.6707L218.622 19.8842C218.484 19.8256 218.35 19.753 218.224 19.6663C217.985 19.5046 217.776 19.3031 217.608 19.0665C217.322 18.6635 217.167 18.1879 217.165 17.6959C217.156 16.3745 218.224 15.2921 219.545 15.2827C219.604 15.2827 219.665 15.2827 219.723 15.2874C220.907 15.3671 221.862 16.3159 221.949 17.4991C221.989 18.059 221.841 18.5956 221.523 19.0524C221.354 19.2914 221.148 19.4952 220.911 19.6569C220.787 19.7436 220.653 19.8162 220.515 19.8748L223.877 24.6121L228.125 22.4871C228.045 22.3348 227.982 22.1755 227.935 22.0092C227.879 21.8077 227.849 21.5968 227.849 21.3836C227.849 21.2875 227.853 21.1915 227.863 21.0978C227.998 19.8935 229.015 18.9798 230.227 18.9728C231.548 18.9634 232.63 20.0318 232.637 21.3532C232.647 22.6136 231.667 23.6726 230.409 23.7593L230.259 23.764C230.016 23.764 229.777 23.7312 229.545 23.6609C229.395 23.614 229.25 23.5555 229.114 23.4805L226.982 29.6072C226.787 30.1718 226.253 30.5514 225.656 30.556L213.622 30.6357V30.638Z" fill="#110A1D"/>
            <path d="M159.953 49.6171C153.676 49.6171 147.404 47.2298 142.624 42.45C133.07 32.8956 133.07 17.3522 142.624 7.79772C147.255 3.16713 153.408 0.6203 159.953 0.6203C166.497 0.6203 172.651 3.16713 177.281 7.79772C186.836 17.3522 186.836 32.8956 177.281 42.45C172.507 47.2247 166.23 49.6171 159.953 49.6171ZM143.91 41.1637C152.755 50.0082 167.146 50.0082 175.99 41.1637C184.835 32.3193 184.835 17.9284 175.99 9.084C171.704 4.79813 166.009 2.44169 159.948 2.44169C153.887 2.44169 148.191 4.80328 143.905 9.084C135.061 17.9284 135.061 32.3193 143.905 41.1637H143.91Z" fill="#9DADF2"/>
            <path d="M159.629 34.2898C159.716 34.5008 159.922 34.6242 160.138 34.6242C160.21 34.6242 160.282 34.6088 160.354 34.5831C162.083 33.8576 163.657 32.7359 164.902 31.3365C165.103 31.1101 165.082 30.7603 164.856 30.5596C164.63 30.3589 164.28 30.3795 164.079 30.6059C162.942 31.887 161.507 32.9109 159.927 33.5695C159.649 33.6878 159.515 34.012 159.634 34.2898H159.629Z" fill="#9DADF2"/>
            <path d="M169.29 16.6524L160.153 12.9994C160.019 12.948 159.875 12.948 159.741 12.9994L150.603 16.6524C150.392 16.7348 150.259 16.9354 150.259 17.1618V23.7064C150.269 29.7467 154.087 35.2057 159.757 37.2843C159.818 37.3049 159.88 37.3152 159.947 37.3152C160.014 37.3152 160.076 37.3049 160.137 37.2843C165.807 35.2005 169.625 29.7467 169.635 23.7064V17.1618C169.635 16.9354 169.501 16.7348 169.29 16.6524ZM168.534 23.7064C168.524 29.2013 165.077 34.2075 159.952 36.1781C154.828 34.2075 151.375 29.2013 151.365 23.7064V17.5374L159.952 14.1056L168.534 17.5374V23.7064Z" fill="#9DADF2"/>
            <path d="M156.135 17.5117C156.001 17.4551 155.852 17.4551 155.713 17.5117L153.536 18.3812C153.325 18.4636 153.192 18.6642 153.192 18.8906V21.211C153.192 21.5146 153.439 21.7615 153.742 21.7615C154.046 21.7615 154.293 21.5146 154.293 21.211V19.2662L156.119 18.5356C156.258 18.479 156.361 18.3761 156.423 18.2372C156.479 18.1034 156.479 17.9542 156.423 17.8153C156.366 17.6764 156.263 17.5734 156.13 17.5117H156.135Z" fill="#9DADF2"/>
            <path d="M173.864 11.2088C170.15 7.4889 165.205 5.44629 159.947 5.44629C154.689 5.44629 149.749 7.49405 146.029 11.2088C138.358 18.8802 138.358 31.3673 146.029 39.0438C149.868 42.8821 154.905 44.796 159.947 44.796C164.989 44.796 170.026 42.8769 173.864 39.0438C181.536 31.3725 181.536 18.8853 173.864 11.2088ZM171.143 23.7063C171.158 30.6882 166.697 36.7954 160.045 38.9101C159.983 38.9306 159.916 38.9306 159.849 38.9101C153.197 36.7954 148.736 30.6882 148.751 23.7063V15.9834C148.751 15.8548 148.828 15.7365 148.952 15.6851L159.829 11.3374C159.865 11.322 159.906 11.3169 159.947 11.3169C159.988 11.3169 160.029 11.322 160.065 11.3374L170.942 15.6902C171.065 15.7365 171.143 15.8548 171.143 15.9886V23.7114V23.7063Z" fill="#9DADF2"/>
            <path d="M97.37 49.5374C83.8641 49.5374 72.8793 38.5475 72.8793 25.0467C72.8793 11.546 83.8692 0.55603 97.37 0.55603C110.871 0.55603 121.861 11.546 121.861 25.0467C121.861 38.5475 110.871 49.5374 97.37 49.5374ZM97.37 2.18702C84.7645 2.18702 74.5103 12.4412 74.5103 25.0467C74.5103 37.6522 84.7645 47.9064 97.37 47.9064C109.975 47.9064 120.23 37.6522 120.23 25.0467C120.23 12.4412 109.975 2.18702 97.37 2.18702Z" fill="white"/>
            <path d="M105.313 9.75029C105.19 9.75029 105.067 9.72458 104.953 9.66798C102.581 8.4949 100.029 7.89806 97.3695 7.89806C94.7094 7.89806 92.1575 8.4949 89.7856 9.66798C89.4717 9.82233 89.0961 9.76056 88.8492 9.5136L84.6405 5.30491C84.4604 5.12483 84.3781 4.87786 84.4089 4.62575C84.4398 4.37364 84.5839 4.15241 84.8 4.02379C88.5919 1.74965 92.9395 0.550842 97.3746 0.550842C101.81 0.550842 106.157 1.7548 109.949 4.02379C110.165 4.15241 110.309 4.37364 110.34 4.62575C110.371 4.87786 110.284 5.12483 110.109 5.30491L105.9 9.5136C105.741 9.66795 105.535 9.75029 105.319 9.75029H105.313ZM97.3695 6.26704C100.081 6.26704 102.695 6.83301 105.144 7.9495L108.19 4.90361C104.876 3.11826 101.156 2.18183 97.3695 2.18183C93.5827 2.18183 89.8627 3.11826 86.5493 4.90361L89.5952 7.9495C92.0443 6.83301 94.658 6.26704 97.3695 6.26704Z" fill="white"/>
            <path d="M97.3685 49.5374C92.9334 49.5374 88.5858 48.3334 84.7939 46.0644C84.5778 45.9358 84.4337 45.7145 84.4028 45.4624C84.372 45.2103 84.4594 44.9634 84.6344 44.7833L88.8431 40.5746C89.09 40.3276 89.4708 40.2659 89.7795 40.4202C92.1514 41.5933 94.7033 42.1901 97.3634 42.1901C100.023 42.1901 102.575 41.5933 104.947 40.4202C105.261 40.2659 105.637 40.3276 105.884 40.5746L110.092 44.7833C110.272 44.9634 110.355 45.2103 110.324 45.4624C110.293 45.7145 110.149 45.9358 109.933 46.0644C106.141 48.3385 101.793 49.5374 97.3582 49.5374H97.3685ZM86.5483 45.1846C89.8618 46.9699 93.5817 47.9063 97.3685 47.9063C101.155 47.9063 104.875 46.9699 108.189 45.1846L105.143 42.1387C102.694 43.2552 100.08 43.8211 97.3685 43.8211C94.657 43.8211 92.0433 43.2552 89.5943 42.1387L86.5483 45.1846Z" fill="white"/>
            <path d="M117.689 38.0124C117.473 38.0124 117.267 37.93 117.112 37.7757L112.904 33.567C112.657 33.32 112.595 32.9393 112.749 32.6306C113.922 30.2587 114.519 27.7067 114.519 25.0467C114.519 22.3867 113.922 19.8347 112.749 17.4628C112.595 17.149 112.657 16.7682 112.904 16.5264L117.112 12.3177C117.292 12.1376 117.539 12.0553 117.792 12.0862C118.044 12.1171 118.265 12.2611 118.393 12.4772C120.668 16.2692 121.866 20.6168 121.866 25.0519C121.866 29.4869 120.668 33.8345 118.393 37.6265C118.265 37.8426 118.044 37.9866 117.792 38.0175C117.755 38.0175 117.725 38.0175 117.689 38.0175V38.0124ZM114.463 32.8158L117.509 35.8617C119.294 32.5483 120.23 28.8283 120.23 25.0416C120.23 21.2548 119.294 17.5349 117.509 14.2214L114.463 17.2673C115.579 19.7164 116.145 22.3301 116.145 25.0416C116.145 27.753 115.579 30.3668 114.463 32.8158Z" fill="white"/>
            <path d="M77.0516 38.0124C77.0156 38.0124 76.9847 38.0124 76.9539 38.0072C76.7017 37.9764 76.4805 37.8323 76.3519 37.6162C74.0777 33.8243 72.8789 29.4766 72.8789 25.0416C72.8789 20.6065 74.0777 16.2589 76.3519 12.467C76.4805 12.2509 76.7017 12.1068 76.9539 12.0759C77.206 12.0451 77.4529 12.1325 77.633 12.3074L81.8417 16.5162C82.0887 16.7631 82.1504 17.1438 81.996 17.4525C80.823 19.8244 80.2261 22.3764 80.2261 25.0364C80.2261 27.6965 80.823 30.2484 81.996 32.6203C82.1504 32.9342 82.0887 33.3149 81.8417 33.5567L77.633 37.7654C77.4787 37.9198 77.2728 38.0072 77.0567 38.0072L77.0516 38.0124ZM77.2317 14.2214C75.4463 17.5349 74.5099 21.2548 74.5099 25.0416C74.5099 28.8284 75.4463 32.5483 77.2317 35.8617L80.2776 32.8158C79.1611 30.3668 78.5951 27.753 78.5951 25.0416C78.5951 22.3301 79.1611 19.7164 80.2776 17.2673L77.2317 14.2214Z" fill="white"/>
            <path d="M97.3703 6.26697C87.0184 6.26697 78.5907 14.6895 78.5907 25.0466C78.5907 35.4037 87.0132 43.8262 97.3703 43.8262C107.727 43.8262 116.15 35.4037 116.15 25.0466C116.15 14.6895 107.727 6.26697 97.3703 6.26697ZM107.938 18.8776C108.828 20.4006 109.369 22.0624 109.544 23.8272C109.549 23.8992 109.518 23.9661 109.456 24.0022C108.113 24.8254 106.909 25.8338 105.87 27.012C105.824 27.0686 105.747 27.0892 105.68 27.0635L103.359 26.3071C103.292 26.2866 103.246 26.23 103.236 26.1579C102.973 24.2388 102.377 22.402 101.461 20.6939C101.43 20.6321 101.435 20.5601 101.476 20.5035L102.912 18.5278C102.948 18.4814 103.004 18.4506 103.061 18.4506C103.076 18.4506 103.087 18.4506 103.102 18.4506C104.635 18.7901 106.21 18.9033 107.774 18.7747C107.846 18.7696 107.913 18.8056 107.949 18.8673L107.938 18.8776ZM101.97 26.4821C101.975 26.5335 101.96 26.585 101.929 26.621C100.709 28.0256 99.1557 29.1524 97.4424 29.8727C97.3961 29.8933 97.3497 29.8933 97.3034 29.8727C95.5901 29.1472 94.0363 28.0205 92.8169 26.621C92.786 26.585 92.7706 26.5335 92.7757 26.4821C93.0124 24.6196 93.5938 22.8393 94.4942 21.1929C94.5199 21.1466 94.5611 21.1157 94.6126 21.1055C95.5181 20.9151 96.4442 20.8173 97.3755 20.8173C98.3067 20.8173 99.2329 20.9151 100.138 21.1055C100.19 21.1157 100.231 21.1466 100.257 21.1929C101.157 22.8393 101.733 24.6196 101.975 26.4821H101.97ZM101.692 13.7119C101.692 13.7119 101.754 13.6605 101.816 13.6605C101.836 13.6605 101.862 13.6605 101.888 13.6759C103.781 14.4271 105.474 15.6619 106.791 17.2415C106.858 17.3187 106.832 17.401 106.817 17.4318C106.806 17.4576 106.76 17.5399 106.652 17.5399C105.484 17.5553 104.321 17.4216 103.195 17.154C103.148 17.1437 103.107 17.1128 103.081 17.0717C102.479 16.0787 101.996 15.0085 101.646 13.8972C101.615 13.7994 101.672 13.7325 101.697 13.7119H101.692ZM94.7721 13.0945C96.4751 12.7292 98.2707 12.7292 99.9737 13.0945C100.041 13.11 100.097 13.1614 100.113 13.2283C100.478 14.7564 101.07 16.2176 101.867 17.5708C101.903 17.6325 101.898 17.7097 101.857 17.7714L100.432 19.7368C100.391 19.7934 100.318 19.8243 100.252 19.8089C98.3685 19.4281 96.3773 19.4281 94.4942 19.8089C94.4273 19.8243 94.3553 19.7934 94.3141 19.7368L92.8889 17.7714C92.8478 17.7148 92.8426 17.6325 92.8786 17.5708C93.6761 16.2176 94.2678 14.7564 94.6331 13.2283C94.6486 13.1614 94.7052 13.11 94.7721 13.0945ZM87.9548 17.2415C89.2719 15.6568 90.9647 14.422 92.8581 13.6759C92.8838 13.6656 92.9095 13.6605 92.9301 13.6605C92.997 13.6605 93.0381 13.6965 93.0536 13.7119C93.0793 13.7377 93.1359 13.7994 93.105 13.8972C92.7551 15.0136 92.2715 16.0787 91.6695 17.0717C91.6438 17.1128 91.6027 17.1437 91.5564 17.154C90.4296 17.4216 89.2668 17.5553 88.0988 17.5399C87.9908 17.5399 87.9445 17.4576 87.9342 17.4318C87.9188 17.401 87.893 17.3187 87.9599 17.2415H87.9548ZM86.8074 18.8776C86.8383 18.821 86.9 18.785 86.9669 18.785C86.9669 18.785 86.9772 18.785 86.9824 18.785C88.5516 18.9085 90.126 18.8004 91.6541 18.4609C91.7262 18.4454 91.7982 18.4712 91.8393 18.5329L93.2748 20.5086C93.316 20.5652 93.3211 20.6424 93.2903 20.699C92.3744 22.4072 91.7776 24.244 91.5152 26.1631C91.5049 26.23 91.4586 26.2866 91.3917 26.3123L89.0713 27.0686C89.0044 27.0892 88.9272 27.0686 88.8809 27.0172C87.8416 25.8389 86.6376 24.8305 85.2948 24.0073C85.2382 23.9713 85.2021 23.9044 85.2073 23.8324C85.3822 22.0676 85.9225 20.4006 86.8126 18.8828L86.8074 18.8776ZM87.3682 31.5552C87.3374 31.6529 87.2499 31.6735 87.2139 31.6786C87.1779 31.6786 87.0955 31.6786 87.0389 31.5963C85.943 29.8727 85.2948 27.8764 85.1661 25.8287C85.161 25.7258 85.2279 25.6743 85.2587 25.6589C85.2896 25.6434 85.3719 25.6074 85.4542 25.6692C86.4061 26.3432 87.2705 27.1355 88.0268 28.0153C88.0577 28.0513 88.0731 28.0977 88.068 28.1491C87.9754 29.3067 87.7387 30.4541 87.3631 31.5603L87.3682 31.5552ZM92.4516 36.2526C90.8463 35.5478 89.4314 34.5136 88.248 33.1861C88.2017 33.1347 88.1863 33.0575 88.212 32.9958C88.814 31.5449 89.1947 30.0168 89.3439 28.4526C89.3491 28.3806 89.4006 28.3189 89.4675 28.2983L91.7621 27.5523C91.7621 27.5523 91.7982 27.542 91.8187 27.542C91.8702 27.542 91.9165 27.5626 91.9525 27.6037C93.2388 29.0444 94.8492 30.2174 96.614 30.9943C96.6809 31.0252 96.722 31.0869 96.722 31.159V33.572C96.722 33.6441 96.6809 33.711 96.614 33.7367C95.1733 34.3592 93.8356 35.1979 92.6368 36.2218C92.5854 36.2681 92.5082 36.2784 92.4465 36.2475L92.4516 36.2526ZM100.545 36.762C100.54 36.798 100.514 36.8804 100.411 36.9061C98.4251 37.4103 96.3259 37.4103 94.3398 36.9061C94.2421 36.8804 94.2112 36.798 94.2061 36.762C94.2009 36.726 94.1906 36.6437 94.2781 36.5768C95.2145 35.8822 96.2333 35.3008 97.3086 34.8532C97.3549 34.8326 97.4012 34.8326 97.4475 34.8532C98.5177 35.3008 99.5364 35.8822 100.478 36.5768C100.56 36.6385 100.555 36.726 100.55 36.762H100.545ZM106.508 33.1913C105.325 34.5187 103.91 35.5478 102.304 36.2526C102.238 36.2835 102.166 36.2681 102.114 36.2269C100.915 35.203 99.5827 34.3644 98.1369 33.7418C98.07 33.711 98.0289 33.6492 98.0289 33.5772V31.1641C98.0289 31.0921 98.07 31.0252 98.1369 30.9995C99.9017 30.2226 101.517 29.0495 102.798 27.6089C102.834 27.5677 102.881 27.5471 102.932 27.5471C102.953 27.5471 102.968 27.5471 102.989 27.5574L105.283 28.3034C105.35 28.324 105.402 28.3858 105.407 28.4578C105.556 30.0219 105.937 31.5449 106.539 33.0009C106.565 33.0627 106.554 33.1398 106.503 33.1913H106.508ZM107.712 31.6014C107.655 31.6889 107.568 31.6889 107.537 31.6838C107.501 31.6838 107.419 31.6581 107.383 31.5603C107.012 30.4541 106.776 29.3067 106.678 28.1491C106.678 28.1028 106.688 28.0513 106.719 28.0153C107.475 27.1355 108.34 26.3483 109.292 25.6692C109.328 25.6434 109.364 25.6331 109.394 25.6331C109.436 25.6331 109.466 25.6486 109.487 25.6589C109.518 25.6743 109.59 25.7258 109.58 25.8287C109.451 27.8764 108.803 29.8727 107.707 31.5963L107.712 31.6014Z" fill="white"/>
            <path d="M36.3417 49.6171C30.0647 49.6171 23.7928 47.2298 19.013 42.45C9.45855 32.8955 9.45855 17.3522 19.013 7.79772C23.6436 3.16713 29.7971 0.6203 36.3417 0.6203C42.8863 0.6203 49.0398 3.16713 53.6704 7.79772C63.2249 17.3522 63.2249 32.8955 53.6704 42.45C48.8958 47.2246 42.6187 49.6171 36.3417 49.6171ZM20.2993 41.1637C29.1437 50.0081 43.5346 50.0081 52.379 41.1637C61.2234 32.3193 61.2234 17.9284 52.379 9.084C48.0931 4.79813 42.3975 2.44169 36.3366 2.44169C30.2756 2.44169 24.58 4.80328 20.2941 9.084C11.4497 17.9284 11.4497 32.3193 20.2941 41.1637H20.2993Z" fill="#9DADF2"/>
            <path d="M36.0176 34.2951C36.1051 34.5061 36.3109 34.6295 36.527 34.6295C36.599 34.6295 36.6711 34.6141 36.7431 34.5884C38.4719 33.8629 40.0463 32.7413 41.2914 31.3418C41.492 31.1154 41.4715 30.7656 41.2451 30.5649C41.0187 30.3642 40.6688 30.3848 40.4682 30.6112C39.3311 31.8924 37.8956 32.9162 36.3161 33.5748C36.0382 33.6931 35.9045 34.0173 36.0228 34.2951H36.0176Z" fill="#9DADF2"/>
            <path d="M45.6795 16.6524L36.5418 12.9994C36.408 12.948 36.2639 12.948 36.1302 12.9994L26.9924 16.6524C26.7815 16.7348 26.6477 16.9354 26.6477 17.1618V23.7064C26.658 29.7467 30.4757 35.2057 36.1456 37.2843C36.2073 37.3049 36.2691 37.3152 36.3359 37.3152C36.4028 37.3152 36.4646 37.3049 36.5263 37.2843C42.1962 35.2005 46.0139 29.7467 46.0242 23.7064V17.1618C46.0242 16.9354 45.8904 16.7348 45.6795 16.6524ZM44.9231 23.7064C44.9128 29.2013 41.4656 34.2075 36.3411 36.1781C31.2166 34.2075 27.7642 29.2013 27.7539 23.7064V17.5374L36.3411 14.1056L44.9231 17.5374V23.7064Z" fill="#9DADF2"/>
            <path d="M32.5236 17.5117C32.3898 17.4551 32.2406 17.4551 32.1017 17.5117L29.9253 18.3812C29.7144 18.4635 29.5806 18.6642 29.5806 18.8906V21.211C29.5806 21.5146 29.8275 21.7615 30.1311 21.7615C30.4347 21.7615 30.6816 21.5146 30.6816 21.211V19.2662L32.5081 18.5356C32.647 18.479 32.75 18.376 32.8117 18.2371C32.8683 18.1034 32.8683 17.9541 32.8117 17.8152C32.7551 17.6763 32.6522 17.5734 32.5184 17.5117H32.5236Z" fill="#9DADF2"/>
            <path d="M50.2533 11.2088C46.5385 7.4889 41.5941 5.44629 36.3358 5.44629C31.0775 5.44629 26.1382 7.49405 22.4183 11.2088C14.747 18.8802 14.747 31.3673 22.4183 39.0438C26.2566 42.882 31.2936 44.796 36.3358 44.796C41.378 44.796 46.4151 42.8769 50.2533 39.0438C57.9246 31.3725 57.9246 18.8853 50.2533 11.2088ZM47.5315 23.7063C47.547 30.6882 43.0862 36.7954 36.4336 38.91C36.3718 38.9306 36.3049 38.9306 36.238 38.91C29.5854 36.7954 25.1246 30.6882 25.1401 23.7063V15.9834C25.1401 15.8548 25.2172 15.7365 25.3407 15.6851L36.2175 11.3374C36.2535 11.322 36.2946 11.3169 36.3358 11.3169C36.377 11.3169 36.4181 11.322 36.4541 11.3374L47.3309 15.6902C47.4544 15.7365 47.5315 15.8548 47.5315 15.9886V23.7114V23.7063Z" fill="#9DADF2"/>
            <path d="M-24.1106 49.4047C-37.6165 49.4047 -48.6013 38.4148 -48.6013 24.914C-48.6013 11.4133 -37.6114 0.42334 -24.1106 0.42334C-10.6099 0.42334 0.380062 11.4133 0.380062 24.914C0.380062 38.4148 -10.6099 49.4047 -24.1106 49.4047ZM-24.1106 2.05433C-36.7161 2.05433 -46.9703 12.3085 -46.9703 24.914C-46.9703 37.5195 -36.7161 47.7737 -24.1106 47.7737C-11.5051 47.7737 -1.25093 37.5195 -1.25093 24.914C-1.25093 12.3085 -11.5051 2.05433 -24.1106 2.05433Z" fill="#478BF9"/>
        </g>
        <g opacity="0.6">
            <path d="M292.697 99.9399C283.063 90.306 283.063 74.632 292.697 64.998C302.331 55.364 318.005 55.364 327.639 64.998C337.273 74.632 337.273 90.306 327.639 99.9399C318.005 109.574 302.331 109.574 292.697 99.9399ZM326.475 66.1624C317.483 57.1704 302.854 57.1704 293.864 66.1624C284.872 75.1545 284.872 89.7835 293.864 98.7732C302.856 107.765 317.485 107.765 326.475 98.7732C335.467 89.7812 335.467 75.1521 326.475 66.1624Z" fill="white"/>
            <path d="M326.742 77.2282C326.655 77.1415 326.585 77.0314 326.545 76.9095C325.69 74.3792 324.293 72.1371 322.395 70.2393C320.5 68.3439 318.256 66.9475 315.725 66.09C315.39 65.9752 315.165 65.6636 315.165 65.3099V59.305C315.165 59.052 315.282 58.813 315.482 58.656C315.683 58.4991 315.943 58.4452 316.187 58.5061C320.512 59.5885 324.471 61.833 327.634 64.9983C330.797 68.1635 333.042 72.1207 334.124 76.4456C334.185 76.6916 334.129 76.9517 333.974 77.1532C333.817 77.3547 333.578 77.4695 333.325 77.4695H327.32C327.095 77.4695 326.889 77.3781 326.737 77.2258L326.742 77.2282ZM323.56 69.0749C325.495 71.0101 326.955 73.278 327.906 75.8224H332.25C331.158 72.1863 329.173 68.864 326.472 66.1627C323.771 63.4613 320.449 61.4769 316.815 60.3874V64.7312C319.359 65.68 321.627 67.1397 323.562 69.0772L323.56 69.0749Z" fill="white"/>
            <path d="M292.697 99.9401C289.534 96.7772 287.287 92.8177 286.205 88.4927C286.144 88.2467 286.2 87.9866 286.354 87.7875C286.511 87.586 286.75 87.4712 287.003 87.4712H293.008C293.362 87.4712 293.676 87.6961 293.788 88.0311C294.644 90.5615 296.04 92.8036 297.938 94.7014C299.833 96.5968 302.078 97.9931 304.608 98.8506C304.943 98.9631 305.168 99.277 305.168 99.6308V105.636C305.168 105.889 305.051 106.128 304.852 106.285C304.65 106.442 304.39 106.495 304.144 106.435C299.819 105.352 295.862 103.108 292.697 99.9448V99.9401ZM288.084 89.1159C289.175 92.7521 291.16 96.0743 293.861 98.7757C296.562 101.477 299.885 103.461 303.521 104.553V100.21C300.976 99.2606 298.709 97.801 296.773 95.8658C294.838 93.9306 293.378 91.6626 292.427 89.1183H288.084V89.1159Z" fill="white"/>
            <path d="M315.41 106.214C315.256 106.06 315.169 105.851 315.169 105.631V99.626C315.169 99.2723 315.394 98.9583 315.729 98.8459C318.259 97.9907 320.501 96.5943 322.399 94.6966C324.297 92.7989 325.691 90.5567 326.548 88.0264C326.661 87.6913 326.975 87.4664 327.329 87.4664H333.334C333.587 87.4664 333.826 87.5836 333.983 87.7827C334.139 87.9819 334.193 88.2443 334.132 88.4879C333.048 92.8129 330.803 96.7701 327.64 99.9353C324.477 103.101 320.518 105.345 316.193 106.427C315.947 106.488 315.687 106.432 315.488 106.278C315.462 106.254 315.436 106.233 315.413 106.21L315.41 106.214ZM316.816 100.207V104.551C320.452 103.459 323.775 101.475 326.476 98.7732C329.177 96.0719 331.159 92.7497 332.253 89.1135H327.91C326.961 91.6579 325.501 93.9234 323.564 95.861C321.628 97.7962 319.361 99.2582 316.816 100.207Z" fill="white"/>
            <path d="M286.421 77.228C286.397 77.2046 286.374 77.1788 286.355 77.1531C286.198 76.9539 286.144 76.6915 286.205 76.4455C287.288 72.1205 289.532 68.161 292.697 64.9981C295.863 61.8352 299.82 59.5884 304.145 58.506C304.391 58.4451 304.651 58.5013 304.85 58.6559C305.049 58.8129 305.166 59.0519 305.166 59.3049V65.3097C305.166 65.6635 304.941 65.9775 304.606 66.0899C302.076 66.9451 299.834 68.3414 297.936 70.2392C296.041 72.1346 294.644 74.3791 293.787 76.9094C293.674 77.2444 293.36 77.4694 293.007 77.4694H287.002C286.781 77.4694 286.571 77.3827 286.418 77.2304L286.421 77.228ZM303.519 60.3873C299.883 61.4791 296.561 63.4635 293.859 66.1649C291.158 68.8663 289.176 72.1885 288.082 75.8247H292.426C293.374 73.2803 294.834 71.0147 296.772 69.0771C298.707 67.1419 300.975 65.6823 303.519 64.731V60.3873Z" fill="white"/>
            <path d="M323.562 69.0747C316.177 61.6899 304.158 61.6876 296.773 69.0747C289.386 76.4618 289.388 88.4786 296.773 95.8634C304.158 103.248 316.175 103.251 323.562 95.8634C330.949 88.4762 330.947 76.4595 323.562 69.0747Z" fill="white"/>
            <path d="M317.001 89.2301L303.393 89.3204C302.82 89.3242 302.359 89.7919 302.362 90.3651L302.366 90.8501C302.369 91.4233 302.837 91.8849 303.41 91.8811L317.018 91.7909C317.591 91.7871 318.052 91.3193 318.049 90.7461L318.045 90.2611C318.042 89.6879 317.574 89.2263 317.001 89.2301Z" fill="#110A1D"/>
            <path d="M305.247 81.0165C305.1 81.0165 304.95 80.9837 304.814 80.9181L303.753 80.405C303.291 80.1801 303.08 79.6342 303.272 79.1586L303.76 77.945C303.91 77.5748 304.263 77.3335 304.662 77.3311C304.833 77.3311 305.001 77.3733 305.151 77.46L306.416 78.1816C306.653 78.3151 306.824 78.5471 306.885 78.8142C306.946 79.0813 306.892 79.3624 306.737 79.5873L306.044 80.5924C305.864 80.8548 305.564 81.0141 305.245 81.0141L305.247 81.0165Z" fill="#110A1D"/>
            <path d="M315.042 80.951C314.723 80.951 314.421 80.7987 314.238 80.5386L313.552 79.571C313.393 79.3484 313.336 79.0673 313.393 78.8002C313.449 78.5331 313.618 78.2988 313.854 78.1606L315.159 77.3944C315.307 77.3078 315.476 77.2609 315.647 77.2586C316.045 77.2562 316.403 77.4928 316.558 77.8607L317.05 79.0392C317.247 79.5124 317.043 80.063 316.586 80.2926L315.476 80.8479C315.342 80.9135 315.192 80.951 315.044 80.951H315.042Z" fill="#110A1D"/>
            <path d="M304.178 88.4106C303.581 88.4153 303.045 88.0405 302.841 87.4782L300.57 81.2297C300.425 81.2999 300.271 81.3538 300.114 81.3937C299.928 81.4405 299.741 81.4639 299.551 81.4639C299.441 81.4639 299.333 81.4593 299.228 81.4452C298.045 81.2953 297.147 80.2808 297.14 79.0859C297.131 77.7645 298.199 76.6821 299.521 76.6727C300.842 76.6634 301.925 77.7317 301.932 79.0531C301.932 79.3577 301.88 79.6505 301.772 79.9247C301.714 80.0746 301.641 80.2175 301.557 80.3534L305.875 82.4433L309.178 77.6567C309.04 77.5982 308.906 77.5255 308.78 77.4389C308.541 77.2772 308.332 77.0757 308.164 76.8391C307.878 76.4361 307.723 75.9605 307.721 75.4685C307.712 74.1471 308.78 73.0647 310.101 73.0553C310.16 73.0553 310.221 73.0553 310.279 73.06C311.463 73.1396 312.418 74.0885 312.505 75.2717C312.545 75.8316 312.397 76.3681 312.079 76.825C311.91 77.064 311.704 77.2678 311.467 77.4295C311.343 77.5162 311.21 77.5888 311.071 77.6474L314.433 82.3847L318.681 80.2597C318.601 80.1074 318.538 79.9481 318.491 79.7817C318.435 79.5803 318.405 79.3694 318.405 79.1562C318.405 79.0601 318.409 78.9641 318.419 78.8704C318.554 77.6661 319.571 76.7524 320.783 76.7454C322.104 76.736 323.186 77.8043 323.193 79.1257C323.203 80.3862 322.223 81.4452 320.965 81.5319L320.815 81.5366C320.572 81.5366 320.333 81.5038 320.101 81.4335C319.951 81.3866 319.806 81.3281 319.67 81.2531L317.538 87.3798C317.343 87.9444 316.809 88.3239 316.212 88.3286L304.178 88.4083V88.4106Z" fill="#110A1D"/>
            <path d="M247.262 107.169C240.985 107.169 234.713 104.782 229.933 100.002C220.378 90.4478 220.378 74.9045 229.933 65.35C234.564 60.7194 240.717 58.1726 247.262 58.1726C253.806 58.1726 259.96 60.7194 264.59 65.35C274.145 74.9045 274.145 90.4478 264.59 100.002C259.816 104.777 253.539 107.169 247.262 107.169ZM231.219 98.716C240.064 107.56 254.454 107.56 263.299 98.716C272.143 89.8716 272.143 75.4807 263.299 66.6363C259.013 62.3504 253.317 59.994 247.256 59.994C241.196 59.994 235.5 62.3556 231.214 66.6363C222.37 75.4807 222.37 89.8716 231.214 98.716H231.219Z" fill="#7DDACF"/>
            <path d="M248.168 77.5184L243.63 83.8777H246.352V88.4157L250.89 82.0615H248.168V77.5184Z" fill="#7DDACF"/>
            <path d="M247.257 73.9835C242.287 73.9835 238.253 78.0172 238.253 82.9874C238.253 87.9576 242.287 91.981 247.257 91.981C252.227 91.981 256.261 87.9473 256.261 82.9874C256.261 78.0275 252.227 73.9835 247.257 73.9835ZM247.257 90.8697C242.894 90.8697 239.354 87.3299 239.354 82.9668C239.354 78.6038 242.894 75.0639 247.257 75.0639C251.62 75.0639 255.16 78.6038 255.16 82.9668C255.16 87.3299 251.62 90.8697 247.257 90.8697Z" fill="#7DDACF"/>
            <path d="M261.175 68.7612C257.46 65.0413 252.516 62.9987 247.258 62.9987C241.999 62.9987 237.06 65.0465 233.34 68.7612C225.669 76.4326 225.669 88.9197 233.34 96.5962C237.178 100.434 242.215 102.354 247.258 102.354C252.3 102.354 257.337 100.434 261.175 96.5962C268.846 88.9249 268.846 76.4377 261.175 68.7612ZM247.258 95.2019C240.528 95.2019 235.048 89.7224 235.048 82.9926C235.048 80.0187 236.113 77.2918 237.883 75.1617L236.391 73.6697C235.964 73.2426 235.964 72.548 236.391 72.1159C236.818 71.6837 237.513 71.6888 237.945 72.1159L239.437 73.6079C241.289 72.0592 243.62 71.0405 246.162 70.8244V69.816H245.153C244.263 69.816 243.527 69.0802 243.527 68.1901V67.3412C243.527 66.4408 244.263 65.7153 245.153 65.7153H249.372C250.262 65.7153 250.998 66.4408 250.998 67.3412V68.1901C250.998 69.0802 250.262 69.816 249.372 69.816H248.364V70.8244C250.911 71.0457 253.236 72.0644 255.088 73.6079L256.58 72.1159C257.008 71.6888 257.702 71.6888 258.134 72.1159C258.561 72.5429 258.561 73.2375 258.134 73.6697L256.642 75.1617C258.412 77.2918 259.477 80.0136 259.477 82.9926C259.477 89.7224 253.998 95.2019 247.268 95.2019H247.258Z" fill="#7DDACF"/>
            <path d="M188.801 107.66C175.295 107.66 164.31 96.67 164.31 83.1692C164.31 69.6685 175.3 58.6785 188.801 58.6785C202.301 58.6785 213.291 69.6685 213.291 83.1692C213.291 96.67 202.301 107.66 188.801 107.66ZM188.801 60.3095C176.195 60.3095 165.941 70.5637 165.941 83.1692C165.941 95.7747 176.195 106.029 188.801 106.029C201.406 106.029 211.66 95.7747 211.66 83.1692C211.66 70.5637 201.406 60.3095 188.801 60.3095Z" fill="white"/>
            <path d="M204.781 65.6932L197.199 73.2751L198.69 74.7667L206.272 67.1848L204.781 65.6932Z" fill="white"/>
            <path d="M178.683 91.7925L171.101 99.3743L172.592 100.866L180.174 93.2841L178.683 91.7925Z" fill="white"/>
            <path d="M198.92 91.7909L197.428 93.2825L205.01 100.864L206.502 99.3728L198.92 91.7909Z" fill="white"/>
            <path d="M172.598 65.4635L171.106 66.9551L178.685 74.5334L180.176 73.0417L172.598 65.4635Z" fill="white"/>
            <path d="M194.78 83.8278C195.274 83.3338 195.274 82.5363 194.78 82.0475L193.73 81.0031C193.236 80.5092 192.439 80.5092 191.95 81.0031L191.384 81.569L190.731 80.9156C190.237 80.4217 189.439 80.4217 188.95 80.9156L188.385 81.4867L187.731 80.8282C187.237 80.3342 186.44 80.3342 185.951 80.8282L182.478 84.3011C182.452 84.3268 182.452 84.368 182.478 84.3989C182.941 84.8619 183.697 84.8619 184.166 84.3989L186.404 82.1607C186.645 81.9189 187.036 81.9189 187.278 82.1607L187.443 82.3254C187.474 82.3562 187.474 82.4025 187.443 82.4334L185.575 84.3011C185.55 84.3268 185.55 84.368 185.575 84.3989C186.038 84.8619 186.795 84.8619 187.263 84.3989L189.408 82.2534C189.65 82.0115 190.041 82.0115 190.283 82.2534L190.448 82.418C190.473 82.4437 190.473 82.4849 190.448 82.5157L188.647 84.3165C188.621 84.3423 188.621 84.3834 188.647 84.4143C189.11 84.8773 189.866 84.8773 190.334 84.4143L192.408 82.3408C192.65 82.099 193.041 82.099 193.283 82.3408L193.638 82.6958C193.777 82.8347 193.777 83.0663 193.638 83.2052L193.581 83.2618C193.442 83.4007 193.211 83.4007 193.072 83.2618L192.614 82.8039C192.588 82.7781 192.547 82.7781 192.516 82.8039L191.724 83.5962C191.698 83.6219 191.698 83.6631 191.724 83.694L192.439 84.4091C192.933 84.9031 193.73 84.9031 194.219 84.4091L194.785 83.8432L194.78 83.8278Z" fill="white"/>
            <path d="M188.801 64.3844C178.429 64.3844 170.021 72.7915 170.021 83.164C170.021 93.5365 178.429 101.944 188.801 101.944C199.174 101.944 207.581 93.5365 207.581 83.164C207.581 72.7915 199.174 64.3844 188.801 64.3844ZM189.568 70.1829C192.583 70.3579 195.32 71.5618 197.44 73.4449L194.728 76.1564C193.313 74.9576 191.528 74.1807 189.568 74.016V70.1829ZM188.04 70.1829V74.016C186.079 74.1755 184.294 74.9576 182.879 76.1564L180.168 73.4449C182.287 71.5618 185.025 70.3579 188.04 70.1829ZM179.087 74.5254L181.799 77.2369C180.6 78.6518 179.823 80.4371 179.658 82.3974H175.825C176 79.3824 177.204 76.6452 179.087 74.5254ZM175.825 83.9255H179.658C179.818 85.8858 180.6 87.6711 181.799 89.086L179.087 91.7975C177.204 89.6777 176 86.9405 175.825 83.9255ZM188.04 96.14C185.025 95.965 182.287 94.7611 180.168 92.878L182.879 90.1665C184.294 91.3653 186.079 92.1422 188.04 92.3069V96.14ZM180.909 83.1589C180.909 78.801 184.443 75.2663 188.801 75.2663C193.159 75.2663 196.694 78.801 196.694 83.1589C196.694 87.5168 193.159 91.0515 188.801 91.0515C184.443 91.0515 180.909 87.5168 180.909 83.1589ZM189.568 96.14V92.3069C191.528 92.1474 193.313 91.3653 194.728 90.1665L197.44 92.878C195.32 94.7611 192.583 95.965 189.568 96.14ZM198.52 91.7975L195.809 89.086C197.008 87.6711 197.784 85.8858 197.949 83.9255H201.782C201.607 86.9405 200.403 89.6777 198.52 91.7975ZM197.949 82.3974C197.79 80.4371 197.008 78.6518 195.809 77.2369L198.52 74.5254C200.403 76.6452 201.607 79.3824 201.782 82.3974H197.949Z" fill="white"/>
            <path d="M62.5842 107.39C49.0783 107.39 38.0884 96.3998 38.0884 82.8939C38.0884 69.388 49.0783 58.3981 62.5842 58.3981C76.0901 58.3981 87.08 69.388 87.08 82.8939C87.08 96.3998 76.0901 107.39 62.5842 107.39ZM62.5842 60.1629C50.0507 60.1629 39.8531 70.3604 39.8531 82.8939C39.8531 95.4274 50.0507 105.625 62.5842 105.625C75.1177 105.625 85.3153 95.4274 85.3153 82.8939C85.3153 70.3604 75.1177 60.1629 62.5842 60.1629Z" fill="#478BF9"/>
            <path d="M122.468 107.391C121.979 107.391 121.588 106.995 121.588 106.511C121.588 106.028 121.984 105.631 122.468 105.631C135.002 105.631 145.199 95.4338 145.199 82.9003C145.199 70.3669 135.002 60.1693 122.468 60.1693C121.979 60.1693 121.588 59.7731 121.588 59.2895C121.588 58.8058 121.984 58.4097 122.468 58.4097C135.974 58.4097 146.964 69.3996 146.964 82.9055C146.964 96.4114 135.974 107.401 122.468 107.401V107.391Z" fill="#478BF9"/>
            <path d="M86.8818 81.9213H76.1543V84.036H86.8818V81.9213Z" fill="#478BF9"/>
            <path d="M49.9456 81.9213H39.218V84.036H49.9456V81.9213Z" fill="#478BF9"/>
            <path d="M64.2756 96.2454H62.161V106.973H64.2756V96.2454Z" fill="#478BF9"/>
            <path d="M64.2756 58.9844H62.161V69.712H64.2756V58.9844Z" fill="#478BF9"/>
            <path d="M75.8302 69.5576C68.4933 62.2206 56.5927 62.2206 49.2506 69.5576C41.9137 76.8945 41.9137 88.7951 49.2506 96.1372C56.5875 103.474 68.4882 103.474 75.8302 96.1372C83.1671 88.8003 83.1671 76.8996 75.8302 69.5576ZM66.1729 71.1474C68.3132 71.8111 70.2323 73.0511 71.7244 74.7387L72.0125 75.0628L71.5907 75.1606C70.4742 75.423 69.2805 75.6391 68.0457 75.7986L67.8244 75.8294L67.7627 75.6134C67.5569 74.9085 67.3151 74.2293 67.0372 73.6016C66.6925 72.8144 66.3066 72.125 65.8847 71.5436L65.4217 70.9107L66.1729 71.1423V71.1474ZM57.5857 82.2608L57.596 81.9933C57.6474 80.3674 57.8275 78.8136 58.1362 77.3833L58.1825 77.1569L58.414 77.1775C61.1204 77.4141 64.0119 77.4038 66.7028 77.1517L66.9343 77.1312L66.9858 77.3575C67.2996 78.8033 67.4797 80.3623 67.526 81.9933V82.2608H57.5908H57.5857ZM67.526 83.4545V83.722C67.4694 85.353 67.2893 86.912 66.9755 88.3577L66.9241 88.5841L66.6925 88.5636C64.0016 88.3115 61.1101 88.3063 58.4038 88.5378L58.1722 88.5584L58.1259 88.332C57.8172 86.9017 57.6371 85.353 57.5857 83.722L57.5754 83.4545H67.5157H67.526ZM62.5559 70.6998C64.0531 70.6998 65.576 72.5983 66.5279 75.6596L66.6256 75.9684L66.3015 75.9941C65.0358 76.1021 63.7289 76.1587 62.4169 76.1587C61.1976 76.1587 59.9833 76.1124 58.7999 76.0147L58.4758 75.9889L58.5735 75.6751C59.5254 72.6035 61.0535 70.6946 62.5559 70.6946V70.6998ZM53.3358 74.7953C54.8382 73.0819 56.7728 71.8214 58.9388 71.1526L59.6952 70.921L59.227 71.559C58.8051 72.1353 58.4141 72.8298 58.0745 73.6119C57.8018 74.2293 57.5548 74.9187 57.3387 75.6596L57.277 75.8706L57.0558 75.8449C55.8106 75.6905 54.6067 75.4847 53.4748 75.2223L53.0477 75.1246L53.3358 74.7953ZM50.3311 81.983C50.4752 79.9764 51.1183 78.0213 52.1936 76.3182L52.2965 76.1587L52.4818 76.205C53.7989 76.5395 55.2189 76.807 56.711 76.9974L56.9889 77.0334L56.9322 77.3112C56.6235 78.8033 56.4486 80.3829 56.4023 82.0087V82.2608H50.3157L50.3363 81.983H50.3311ZM52.2965 89.5566L52.1936 89.3971C51.1183 87.6992 50.4752 85.7389 50.3311 83.7323L50.3105 83.4545H56.392V83.7066C56.4435 85.3324 56.6236 86.9171 56.9271 88.4041L56.9837 88.6819L56.7059 88.7179C55.2189 88.9083 53.7937 89.1758 52.4766 89.5103L52.2914 89.5566H52.2965ZM58.9388 94.5679C56.7728 93.899 54.8382 92.6385 53.3358 90.9252L53.0477 90.5959L53.4748 90.4981C54.6067 90.2409 55.8106 90.0299 57.0558 89.8756L57.277 89.8498L57.3387 90.0608C57.5548 90.8017 57.8018 91.4911 58.0745 92.1085C58.4192 92.8958 58.8051 93.5852 59.227 94.1666L59.6952 94.8046L58.9388 94.573V94.5679ZM62.5559 95.0155C61.0535 95.0155 59.5254 93.1067 58.5735 90.0351L58.4758 89.7212L58.7999 89.6955C61.2541 89.5 63.8679 89.5051 66.3015 89.7161L66.6256 89.7418L66.5279 90.0505C65.5709 93.1067 64.0479 95.0104 62.5559 95.0104V95.0155ZM71.7244 90.9766C70.2323 92.6642 68.3081 93.9042 66.1729 94.5679L65.4217 94.7994L65.8847 94.1666C66.3066 93.5903 66.6925 92.8958 67.0372 92.1085C67.3099 91.4757 67.5569 90.8017 67.7627 90.0968L67.8244 89.8807L68.0457 89.9116C69.2805 90.0711 70.4742 90.2872 71.5907 90.5496L72.0125 90.6525L71.7244 90.9766ZM74.7755 83.7323C74.6314 85.7595 73.978 87.7403 72.8769 89.4588L72.774 89.6183L72.5888 89.572C71.2871 89.2273 69.8722 88.9546 68.3904 88.7539L68.1126 88.7179L68.1692 88.4452C68.4779 86.9532 68.6579 85.3633 68.7042 83.7117V83.4596H74.7909L74.7703 83.7375L74.7755 83.7323ZM68.7145 82.2608V82.0087C68.6631 80.3571 68.483 78.7621 68.1743 77.2752L68.1177 77.0025L68.3955 76.9665C69.8773 76.7659 71.2871 76.4932 72.5939 76.1484L72.7792 76.1021L72.8821 76.2616C73.9831 77.9801 74.6417 79.9558 74.7806 81.9881L74.8012 82.266H68.7197L68.7145 82.2608Z" fill="#478BF9"/>
            <path d="M122.839 107.42H63.7215C63.2327 107.42 62.8417 107.024 62.8417 106.541C62.8417 106.057 63.2379 105.661 63.7215 105.661H122.839C123.327 105.661 123.719 106.057 123.719 106.541C123.719 107.024 123.322 107.42 122.839 107.42Z" fill="#478BF9"/>
            <path d="M122.973 60.1888L63.8554 60.1888C63.3666 60.1888 62.9756 59.7927 62.9756 59.3091C62.9756 58.8254 63.3718 58.4292 63.8554 58.4292L122.973 58.4292C123.461 58.4292 123.852 58.8254 123.852 59.3091C123.852 59.7927 123.456 60.1888 122.973 60.1888Z" fill="#478BF9"/>
            <path d="M-15.3673 100.824C-25.0013 91.1904 -25.0013 75.5165 -15.3673 65.8825C-5.7333 56.2485 9.94065 56.2485 19.5746 65.8825C29.2086 75.5165 29.2086 91.1904 19.5746 100.824C9.94065 110.458 -5.7333 110.458 -15.3673 100.824ZM18.4102 67.0469C9.41819 58.0549 -5.21084 58.0549 -14.2005 67.0469C-23.1926 76.0389 -23.1926 90.668 -14.2005 99.6576C-5.2085 108.65 9.42054 108.65 18.4102 99.6576C27.4023 90.6656 27.4023 76.0366 18.4102 67.0469Z" fill="white"/>
            <path d="M18.6768 78.1123C18.5901 78.0256 18.5199 77.9155 18.48 77.7936C17.6249 75.2633 16.2285 73.0211 14.3308 71.1234C12.4354 69.228 10.1909 67.8316 7.66054 66.9741C7.32551 66.8593 7.10059 66.5477 7.10059 66.194V60.1891C7.10059 59.9361 7.21772 59.6971 7.41687 59.5401C7.61836 59.3832 7.87842 59.3293 8.12208 59.3902C12.4471 60.4726 16.4066 62.7171 19.5695 65.8823C22.7324 69.0476 24.9769 73.0048 26.0593 77.3297C26.1202 77.5757 26.064 77.8358 25.9094 78.0373C25.7524 78.2388 25.5134 78.3536 25.2604 78.3536H19.2555C19.0306 78.3536 18.8244 78.2622 18.6721 78.1099L18.6768 78.1123ZM15.4952 69.959C17.4304 71.8942 18.89 74.1621 19.8412 76.7065H24.185C23.0932 73.0703 21.1088 69.7481 18.4074 67.0468C15.706 64.3454 12.3838 62.361 8.74999 61.2715V65.6153C11.2944 66.5641 13.5623 68.0238 15.4975 69.9613L15.4952 69.959Z" fill="white"/>
            <path d="M7.34582 107.099C7.19119 106.944 7.10449 106.736 7.10449 106.515V100.51C7.10449 100.157 7.32941 99.8427 7.66445 99.7303C10.1948 98.8751 12.4369 97.4787 14.3347 95.581C16.2324 93.6833 17.6264 91.4411 18.4839 88.9108C18.5964 88.5757 18.9103 88.3508 19.2641 88.3508H25.269C25.522 88.3508 25.761 88.468 25.9179 88.6671C26.0749 88.8663 26.1288 89.1287 26.0679 89.3723C24.9831 93.6973 22.7386 97.6545 19.5757 100.82C16.4128 103.985 12.4533 106.229 8.12834 107.312C7.88233 107.373 7.62227 107.317 7.42312 107.162C7.39735 107.138 7.37159 107.117 7.34816 107.094L7.34582 107.099ZM8.75155 101.091V105.435C12.3877 104.343 15.7099 102.359 18.4113 99.6576C21.1127 96.9563 23.0948 93.6341 24.1889 89.9979H19.8452C18.8963 92.5423 17.4366 94.8078 15.4991 96.7454C13.5638 98.6806 11.2959 100.143 8.75155 101.091Z" fill="white"/>
            <path d="M15.4972 69.9591C8.11239 62.5743 -3.90665 62.572 -11.2915 69.9591C-18.6786 77.3462 -18.6763 89.363 -11.2915 96.7478C-3.90665 104.133 8.11005 104.135 15.4972 96.7478C22.8843 89.3606 22.882 77.3439 15.4972 69.9591Z" fill="white"/>
            <path d="M8.93601 90.1142L-4.67121 90.2045C-5.24442 90.2083 -5.70602 90.676 -5.70222 91.2492L-5.69901 91.7342C-5.6952 92.3074 -5.22744 92.769 -4.65423 92.7652L8.95299 92.675C9.5262 92.6712 9.9878 92.2034 9.984 91.6302L9.98078 91.1452C9.97698 90.572 9.50921 90.1104 8.93601 90.1142Z" fill="#110A1D"/>
            <path d="M6.9775 81.8354C6.65887 81.8354 6.35665 81.6831 6.1739 81.423L5.48742 80.4554C5.32811 80.2328 5.27189 79.9517 5.32812 79.6846C5.38435 79.4175 5.55303 79.1832 5.78967 79.045L7.09465 78.2788C7.24225 78.1922 7.41095 78.1453 7.58199 78.143C7.98028 78.1406 8.33874 78.3772 8.49338 78.7451L8.98538 79.9236C9.18218 80.3968 8.97835 80.9474 8.52149 81.177L7.41096 81.7323C7.27741 81.7979 7.12745 81.8354 6.97985 81.8354H6.9775Z" fill="#110A1D"/>
            <path d="M-3.88634 89.295C-4.48378 89.2997 -5.02029 88.9248 -5.22412 88.3626L-7.49438 82.1141C-7.63964 82.1843 -7.79428 82.2382 -7.95126 82.2781C-8.13635 82.3249 -8.32378 82.3483 -8.51356 82.3483C-8.62367 82.3483 -8.73145 82.3437 -8.83688 82.3296C-10.02 82.1797 -10.9173 81.1652 -10.9244 79.9703C-10.9337 78.6489 -9.86541 77.5665 -8.54402 77.5571C-7.22262 77.5478 -6.1402 78.6161 -6.13317 79.9375C-6.13317 80.2421 -6.18473 80.5349 -6.2925 80.8091C-6.35107 80.959 -6.42368 81.1019 -6.50803 81.2378L-2.19009 83.3277L1.11342 78.5411C0.975185 78.4826 0.841623 78.4099 0.715107 78.3233C0.476131 78.1616 0.267613 77.9601 0.0989246 77.7235C-0.186909 77.3205 -0.341543 76.8449 -0.343886 76.3529C-0.353257 75.0315 0.715111 73.9491 2.0365 73.9397C2.09508 73.9397 2.15599 73.9397 2.21457 73.9444C3.39773 74.024 4.35363 74.9729 4.44032 76.1561C4.48014 76.716 4.33255 77.2525 4.01392 77.7094C3.84523 77.9484 3.63903 78.1522 3.4024 78.3139C3.27823 78.4006 3.1447 78.4732 3.00646 78.5318L6.36851 83.2691L10.6162 81.1441C10.5365 80.9918 10.4733 80.8325 10.4264 80.6661C10.3702 80.4647 10.3397 80.2538 10.3397 80.0406C10.3397 79.9445 10.3444 79.8485 10.3538 79.7548C10.4897 78.5505 11.5065 77.6368 12.7178 77.6298C14.0391 77.6204 15.1216 78.6887 15.1286 80.0101C15.138 81.2706 14.1586 82.3296 12.9005 82.4163L12.7506 82.421C12.5069 82.421 12.2679 82.3882 12.036 82.3179C11.886 82.271 11.7408 82.2125 11.6049 82.1375L9.47285 88.2642C9.27839 88.8288 8.7442 89.2083 8.14676 89.213L-3.88634 89.2927V89.295Z" fill="#110A1D"/>
        </g>
        <g opacity="0.2">
            <path d="M344.411 164.833C330.905 164.833 319.92 153.843 319.92 140.342C319.92 126.842 330.91 115.852 344.411 115.852C357.912 115.852 368.902 126.842 368.902 140.342C368.902 153.843 357.912 164.833 344.411 164.833ZM344.411 117.483C331.805 117.483 321.551 127.737 321.551 140.342C321.551 152.948 331.805 163.202 344.411 163.202C357.016 163.202 367.271 152.948 367.271 140.342C367.271 127.737 357.016 117.483 344.411 117.483Z" fill="#9DADF2"/>
            <path d="M324.093 153.313C324.057 153.313 324.026 153.313 323.995 153.308C323.743 153.277 323.521 153.133 323.393 152.917C321.119 149.125 319.92 144.778 319.92 140.343C319.92 135.907 321.119 131.56 323.393 127.768C323.521 127.552 323.743 127.408 323.995 127.377C324.247 127.346 324.494 127.434 324.674 127.608L328.883 131.817C329.13 132.064 329.191 132.445 329.037 132.754C327.864 135.125 327.267 137.677 327.267 140.337C327.267 142.997 327.864 145.549 329.037 147.921C329.191 148.235 329.13 148.616 328.883 148.858L324.674 153.066C324.52 153.221 324.314 153.308 324.098 153.308L324.093 153.313ZM324.273 129.522C322.487 132.836 321.551 136.556 321.551 140.343C321.551 144.129 322.487 147.849 324.273 151.163L327.319 148.117C326.202 145.668 325.636 143.054 325.636 140.343C325.636 137.631 326.202 135.017 327.319 132.568L324.273 129.522Z" fill="#9DADF2"/>
            <path d="M283.949 116.009C297.455 116.009 308.445 126.999 308.445 140.504C308.445 154.01 297.455 165 283.949 165C270.443 165 259.453 154.01 259.453 140.504C259.453 126.999 270.443 116.009 283.949 116.009ZM283.949 163.235C296.482 163.235 306.68 153.038 306.68 140.504C306.68 127.971 296.482 117.773 283.949 117.773C271.415 117.773 261.218 127.971 261.218 140.504C261.218 153.038 271.415 163.235 283.949 163.235Z" fill="#478BF9"/>
            <path d="M224.07 116.007C224.559 116.007 224.95 116.403 224.95 116.887C224.95 117.371 224.554 117.767 224.07 117.767C211.536 117.767 201.339 127.964 201.339 140.498C201.339 153.031 211.536 163.229 224.07 163.229C224.559 163.229 224.95 163.625 224.95 164.109C224.95 164.592 224.554 164.988 224.07 164.988C210.564 164.988 199.574 153.999 199.574 140.493C199.574 126.987 210.564 115.997 224.07 115.997V116.007Z" fill="#478BF9"/>
            <path d="M279.236 136.172C279.236 137.072 279.848 137.854 280.723 138.07L282.385 138.487V134.211H281.201C280.121 134.211 279.241 135.091 279.241 136.172H279.236Z" fill="#478BF9"/>
            <path d="M285.522 146.786H286.705C287.786 146.786 288.666 145.906 288.666 144.826C288.666 143.925 288.053 143.143 287.179 142.927L285.517 142.51V146.786H285.522Z" fill="#478BF9"/>
            <path d="M283.954 120.567C272.964 120.567 264.016 129.509 264.016 140.504C264.016 151.499 272.959 160.441 283.954 160.441C294.949 160.441 303.891 151.499 303.891 140.504C303.891 129.509 294.949 120.567 283.954 120.567ZM291.815 137.355H288.672V135.781C288.672 134.916 287.967 134.206 287.097 134.206H285.523V139.269L287.946 139.876C290.22 140.447 291.81 142.48 291.81 144.826C291.81 147.64 289.521 149.93 286.706 149.93H285.523V153.912H282.379V149.93H280.805C278.202 149.93 276.087 147.815 276.087 145.212V143.637H279.231V145.212C279.231 146.076 279.935 146.786 280.805 146.786H282.379V141.723L279.956 141.116C277.682 140.545 276.092 138.513 276.092 136.167C276.092 133.352 278.382 131.063 281.196 131.063H282.379V127.08H285.523V131.063H287.097C289.701 131.063 291.815 133.177 291.815 135.781V137.355Z" fill="#478BF9"/>
            <path d="M223.694 115.978H282.812C283.301 115.978 283.692 116.374 283.692 116.858C283.692 117.341 283.295 117.738 282.812 117.738H223.694C223.206 117.738 222.815 117.341 222.815 116.858C222.815 116.374 223.211 115.978 223.694 115.978Z" fill="#478BF9"/>
            <path d="M223.566 163.202H282.683C283.172 163.202 283.563 163.598 283.563 164.082C283.563 164.566 283.167 164.962 282.683 164.962H223.566C223.077 164.962 222.686 164.566 222.686 164.082C222.686 163.598 223.082 163.202 223.566 163.202Z" fill="#478BF9"/>
            <path d="M159.953 164.915C153.676 164.915 147.404 162.528 142.624 157.748C133.07 148.194 133.07 132.65 142.624 123.096C147.255 118.465 153.408 115.918 159.953 115.918C166.497 115.918 172.651 118.465 177.282 123.096C186.836 132.65 186.836 148.194 177.282 157.748C172.507 162.523 166.23 164.915 159.953 164.915ZM143.91 156.462C152.755 165.306 167.146 165.306 175.99 156.462C184.835 147.617 184.835 133.227 175.99 124.382C171.704 120.096 166.009 117.74 159.948 117.74C153.887 117.74 148.191 120.101 143.905 124.382C135.061 133.227 135.061 147.617 143.905 156.462H143.91Z" fill="#9DADF2"/>
            <path d="M159.629 149.588C159.716 149.799 159.922 149.922 160.138 149.922C160.21 149.922 160.282 149.907 160.354 149.881C162.083 149.156 163.657 148.034 164.902 146.635C165.103 146.408 165.083 146.058 164.856 145.858C164.63 145.657 164.28 145.678 164.079 145.904C162.942 147.185 161.507 148.209 159.927 148.868C159.649 148.986 159.516 149.31 159.634 149.588H159.629Z" fill="#9DADF2"/>
            <path d="M169.29 131.951L160.153 128.298C160.019 128.246 159.875 128.246 159.741 128.298L150.603 131.951C150.392 132.033 150.259 132.234 150.259 132.46V139.005C150.269 145.045 154.087 150.504 159.757 152.583C159.818 152.603 159.88 152.614 159.947 152.614C160.014 152.614 160.076 152.603 160.137 152.583C165.807 150.499 169.625 145.045 169.635 139.005V132.46C169.635 132.234 169.501 132.033 169.29 131.951ZM168.534 139.005C168.524 144.5 165.077 149.506 159.952 151.476C154.827 149.506 151.375 144.5 151.365 139.005V132.836L159.952 129.404L168.534 132.836V139.005Z" fill="#9DADF2"/>
            <path d="M156.135 132.81C156.001 132.753 155.852 132.753 155.713 132.81L153.536 133.679C153.326 133.762 153.192 133.962 153.192 134.189V136.509C153.192 136.813 153.439 137.06 153.742 137.06C154.046 137.06 154.293 136.813 154.293 136.509V134.564L156.119 133.834C156.258 133.777 156.361 133.674 156.423 133.535C156.479 133.402 156.479 133.252 156.423 133.113C156.366 132.975 156.263 132.872 156.13 132.81H156.135Z" fill="#9DADF2"/>
            <path d="M173.87 126.507C170.156 122.787 165.211 120.744 159.953 120.744C154.694 120.744 149.755 122.792 146.035 126.507C138.364 134.178 138.364 146.665 146.035 154.342C149.873 158.18 154.911 160.094 159.953 160.094C164.995 160.094 170.032 158.175 173.87 154.342C181.542 146.671 181.542 134.183 173.87 126.507ZM171.148 139.004C171.164 145.986 166.703 152.094 160.051 154.208C159.989 154.229 159.922 154.229 159.855 154.208C153.202 152.094 148.742 145.986 148.757 139.004V131.282C148.757 131.153 148.834 131.035 148.958 130.983L159.834 126.636C159.87 126.62 159.912 126.615 159.953 126.615C159.994 126.615 160.035 126.62 160.071 126.636L170.948 130.988C171.071 131.035 171.148 131.153 171.148 131.287V139.01V139.004Z" fill="#9DADF2"/>
            <path d="M97.3756 164.907C83.8697 164.907 72.8849 153.917 72.8849 140.417C72.8849 126.916 83.8748 115.926 97.3756 115.926C110.876 115.926 121.866 126.916 121.866 140.417C121.866 153.917 110.876 164.907 97.3756 164.907ZM97.3756 117.557C84.7701 117.557 74.5159 127.811 74.5159 140.417C74.5159 153.022 84.7701 163.276 97.3756 163.276C109.981 163.276 120.235 153.022 120.235 140.417C120.235 127.811 109.981 117.557 97.3756 117.557Z" fill="#7DDACF"/>
            <path d="M113.358 122.941L105.776 130.523L107.268 132.015L114.85 124.433L113.358 122.941Z" fill="#7DDACF"/>
            <path d="M87.2578 149.04L79.6759 156.622L81.1675 158.114L88.7494 150.532L87.2578 149.04Z" fill="#7DDACF"/>
            <path d="M107.49 149.044L105.998 150.535L113.58 158.117L115.072 156.626L107.49 149.044Z" fill="#7DDACF"/>
            <path d="M81.1657 122.716L79.6741 124.208L87.2523 131.786L88.7439 130.295L81.1657 122.716Z" fill="#7DDACF"/>
            <path d="M103.349 141.075C103.843 140.581 103.843 139.784 103.349 139.295L102.299 138.25C101.805 137.757 101.008 137.757 100.519 138.25L99.9532 138.816L99.2998 138.163C98.8058 137.669 98.0083 137.669 97.5196 138.163L96.9536 138.734L96.3002 138.076C95.8062 137.582 95.0087 137.582 94.5199 138.076L91.047 141.548C91.0213 141.574 91.0213 141.615 91.047 141.646C91.5101 142.109 92.2664 142.109 92.7346 141.646L94.9727 139.408C95.2145 139.166 95.6056 139.166 95.8474 139.408L96.012 139.573C96.0429 139.604 96.0429 139.65 96.012 139.681L94.1444 141.548C94.1186 141.574 94.1186 141.615 94.1444 141.646C94.6074 142.109 95.3637 142.109 95.8319 141.646L97.9775 139.501C98.2193 139.259 98.6103 139.259 98.8521 139.501L99.0168 139.665C99.0425 139.691 99.0425 139.732 99.0168 139.763L97.216 141.564C97.1903 141.59 97.1903 141.631 97.216 141.662C97.679 142.125 98.4354 142.125 98.9036 141.662L100.977 139.588C101.219 139.346 101.61 139.346 101.852 139.588L102.207 139.943C102.346 140.082 102.346 140.314 102.207 140.453L102.15 140.509C102.011 140.648 101.78 140.648 101.641 140.509L101.183 140.051C101.157 140.026 101.116 140.026 101.085 140.051L100.293 140.844C100.267 140.869 100.267 140.91 100.293 140.941L101.008 141.657C101.502 142.15 102.299 142.15 102.788 141.657L103.354 141.091L103.349 141.075Z" fill="#7DDACF"/>
            <path d="M97.3763 121.637C87.0038 121.637 78.5967 130.044 78.5967 140.417C78.5967 150.789 87.0038 159.196 97.3763 159.196C107.749 159.196 116.156 150.789 116.156 140.417C116.156 130.044 107.749 121.637 97.3763 121.637ZM98.143 127.435C101.158 127.61 103.895 128.814 106.015 130.697L103.303 133.409C101.889 132.21 100.103 131.433 98.143 131.269V127.435ZM96.6148 127.435V131.269C94.6546 131.428 92.8692 132.21 91.4543 133.409L88.7428 130.697C90.8626 128.814 93.5998 127.61 96.6148 127.435ZM87.6624 131.778L90.3738 134.489C89.175 135.904 88.3981 137.69 88.2335 139.65H84.4004C84.5753 136.635 85.7793 133.898 87.6624 131.778ZM84.4004 141.178H88.2335C88.393 143.138 89.175 144.924 90.3738 146.339L87.6624 149.05C85.7793 146.93 84.5753 144.193 84.4004 141.178ZM96.6148 153.392C93.5998 153.218 90.8626 152.014 88.7428 150.13L91.4543 147.419C92.8692 148.618 94.6546 149.395 96.6148 149.559V153.392ZM89.4837 140.411C89.4837 136.053 93.0184 132.519 97.3763 132.519C101.734 132.519 105.269 136.053 105.269 140.411C105.269 144.769 101.734 148.304 97.3763 148.304C93.0184 148.304 89.4837 144.769 89.4837 140.411ZM98.143 153.392V149.559C100.103 149.4 101.889 148.618 103.303 147.419L106.015 150.13C103.895 152.014 101.158 153.218 98.143 153.392ZM107.095 149.05L104.384 146.339C105.583 144.924 106.36 143.138 106.524 141.178H110.357C110.182 144.193 108.979 146.93 107.095 149.05ZM106.524 139.65C106.365 137.69 105.583 135.904 104.384 134.489L107.095 131.778C108.979 133.898 110.182 136.635 110.357 139.65H106.524Z" fill="#7DDACF"/>
            <path d="M36.3463 164.833C22.8404 164.833 11.8556 153.843 11.8556 140.342C11.8556 126.842 22.8455 115.852 36.3463 115.852C49.847 115.852 60.837 126.842 60.837 140.342C60.837 153.843 49.847 164.833 36.3463 164.833ZM36.3463 117.483C23.7408 117.483 13.4866 127.737 13.4866 140.342C13.4866 152.948 23.7408 163.202 36.3463 163.202C48.9518 163.202 59.2059 152.948 59.2059 140.342C59.2059 127.737 48.9518 117.483 36.3463 117.483Z" fill="#9DADF2"/>
            <path d="M44.2919 125.051C44.1684 125.051 44.0449 125.026 43.9317 124.969C41.5598 123.796 39.0079 123.199 36.3478 123.199C33.6878 123.199 31.1359 123.796 28.764 124.969C28.4501 125.123 28.0745 125.062 27.8276 124.815L23.6189 120.606C23.4388 120.426 23.3565 120.179 23.3873 119.927C23.4182 119.675 23.5623 119.453 23.7784 119.325C27.5703 117.051 31.9179 115.852 36.353 115.852C40.7881 115.852 45.1357 117.056 48.9276 119.325C49.1437 119.453 49.2878 119.675 49.3187 119.927C49.3495 120.179 49.2621 120.426 49.0871 120.606L44.8784 124.815C44.7189 124.969 44.5131 125.051 44.297 125.051H44.2919ZM36.3478 121.568C39.0593 121.568 41.673 122.134 44.1221 123.25L47.168 120.205C43.8546 118.419 40.1346 117.483 36.3478 117.483C32.5611 117.483 28.8412 118.419 25.5277 120.205L28.5736 123.25C31.0227 122.134 33.6364 121.568 36.3478 121.568Z" fill="#9DADF2"/>
            <path d="M36.347 164.833C31.9119 164.833 27.5643 163.629 23.7724 161.36C23.5563 161.231 23.4122 161.01 23.3814 160.758C23.3505 160.506 23.438 160.259 23.6129 160.079L27.8216 155.87C28.0685 155.623 28.4493 155.562 28.758 155.716C31.1299 156.889 33.6819 157.486 36.3419 157.486C39.0019 157.486 41.5539 156.889 43.9258 155.716C44.2396 155.562 44.6152 155.623 44.8622 155.87L49.0709 160.079C49.251 160.259 49.3333 160.506 49.3024 160.758C49.2715 161.01 49.1274 161.231 48.9114 161.36C45.1194 163.634 40.7718 164.833 36.3368 164.833H36.347ZM25.5269 160.48C28.8403 162.266 32.5602 163.202 36.347 163.202C40.1338 163.202 43.8537 162.266 47.1672 160.48L44.1213 157.434C41.6722 158.551 39.0585 159.117 36.347 159.117C33.6356 159.117 31.0218 158.551 28.5728 157.434L25.5269 160.48Z" fill="#9DADF2"/>
            <path d="M56.6652 153.313C56.4491 153.313 56.2433 153.231 56.0889 153.077L51.8802 148.868C51.6333 148.621 51.5715 148.24 51.7259 147.932C52.899 145.56 53.4958 143.008 53.4958 140.348C53.4958 137.688 52.899 135.136 51.7259 132.764C51.5715 132.45 51.6333 132.069 51.8802 131.827L56.0889 127.619C56.269 127.439 56.516 127.356 56.7681 127.387C57.0202 127.418 57.2414 127.562 57.37 127.778C59.6442 131.57 60.843 135.918 60.843 140.353C60.843 144.788 59.6442 149.136 57.37 152.927C57.2414 153.144 57.0202 153.288 56.7681 153.318C56.7321 153.318 56.7012 153.318 56.6652 153.318V153.313ZM53.4392 148.117L56.4851 151.163C58.2704 147.849 59.2068 144.129 59.2068 140.343C59.2068 136.556 58.2704 132.836 56.4851 129.522L53.4392 132.568C54.5557 135.017 55.1216 137.631 55.1216 140.343C55.1216 143.054 54.5557 145.668 53.4392 148.117Z" fill="#9DADF2"/>
            <path d="M16.0281 153.313C15.9921 153.313 15.9613 153.313 15.9304 153.308C15.6783 153.277 15.457 153.133 15.3284 152.917C13.0543 149.125 11.8555 144.778 11.8555 140.343C11.8555 135.907 13.0543 131.56 15.3284 127.768C15.457 127.552 15.6783 127.408 15.9304 127.377C16.1825 127.346 16.4295 127.434 16.6095 127.608L20.8182 131.817C21.0652 132.064 21.1269 132.445 20.9726 132.754C19.7995 135.125 19.2027 137.677 19.2027 140.337C19.2027 142.997 19.7995 145.549 20.9726 147.921C21.1269 148.235 21.0652 148.616 20.8182 148.858L16.6095 153.066C16.4552 153.221 16.2494 153.308 16.0333 153.308L16.0281 153.313ZM16.2082 129.522C14.4229 132.836 13.4865 136.556 13.4865 140.343C13.4865 144.129 14.4229 147.849 16.2082 151.163L19.2541 148.117C18.1376 145.668 17.5717 143.054 17.5717 140.343C17.5717 137.631 18.1376 135.017 19.2541 132.568L16.2082 129.522Z" fill="#9DADF2"/>
            <path d="M36.3468 121.563C25.9948 121.563 17.5671 129.985 17.5671 140.342C17.5671 150.699 25.9897 159.122 36.3468 159.122C46.7039 159.122 55.1264 150.699 55.1264 140.342C55.1264 129.985 46.7039 121.563 36.3468 121.563ZM46.9148 134.173C47.8049 135.696 48.3452 137.358 48.5201 139.123C48.5252 139.195 48.4943 139.262 48.4326 139.298C47.0897 140.121 45.8858 141.13 44.8465 142.308C44.8002 142.364 44.723 142.385 44.6561 142.359L42.3357 141.603C42.2688 141.582 42.2225 141.526 42.2122 141.454C41.9498 139.535 41.353 137.698 40.4371 135.99C40.4063 135.928 40.4114 135.856 40.4526 135.799L41.888 133.824C41.9241 133.777 41.9806 133.746 42.0372 133.746C42.0527 133.746 42.063 133.746 42.0784 133.746C43.6117 134.086 45.1861 134.199 46.7502 134.07C46.8222 134.065 46.8891 134.101 46.9251 134.163L46.9148 134.173ZM40.9465 141.778C40.9516 141.829 40.9362 141.881 40.9053 141.917C39.6859 143.321 38.1321 144.448 36.4188 145.168C36.3725 145.189 36.3262 145.189 36.2799 145.168C34.5666 144.443 33.0127 143.316 31.7934 141.917C31.7625 141.881 31.747 141.829 31.7522 141.778C31.9889 139.915 32.5703 138.135 33.4707 136.489C33.4964 136.442 33.5375 136.412 33.589 136.401C34.4945 136.211 35.4206 136.113 36.3519 136.113C37.2832 136.113 38.2093 136.211 39.1148 136.401C39.1663 136.412 39.2074 136.442 39.2332 136.489C40.1335 138.135 40.7098 139.915 40.9516 141.778H40.9465ZM40.6687 129.008C40.6687 129.008 40.7304 128.956 40.7921 128.956C40.8127 128.956 40.8385 128.956 40.8642 128.972C42.7576 129.723 44.4503 130.958 45.7674 132.537C45.8343 132.614 45.8086 132.697 45.7932 132.728C45.7829 132.753 45.7366 132.836 45.6285 132.836C44.4606 132.851 43.2978 132.717 42.171 132.45C42.1247 132.44 42.0836 132.409 42.0578 132.367C41.4559 131.374 40.9722 130.304 40.6223 129.193C40.5915 129.095 40.6481 129.028 40.6738 129.008H40.6687ZM33.7485 128.39C35.4515 128.025 37.2472 128.025 38.9502 128.39C39.0171 128.406 39.0737 128.457 39.0891 128.524C39.4544 130.052 40.0461 131.513 40.8436 132.867C40.8796 132.928 40.8745 133.005 40.8333 133.067L39.4081 135.033C39.3669 135.089 39.2949 135.12 39.228 135.105C37.3449 134.724 35.3538 134.724 33.4707 135.105C33.4038 135.12 33.3317 135.089 33.2906 135.033L31.8654 133.067C31.8242 133.011 31.8191 132.928 31.8551 132.867C32.6526 131.513 33.2443 130.052 33.6096 128.524C33.625 128.457 33.6816 128.406 33.7485 128.39ZM26.9312 132.537C28.2484 130.953 29.9411 129.718 31.8345 128.972C31.8603 128.961 31.886 128.956 31.9065 128.956C31.9734 128.956 32.0146 128.992 32.03 129.008C32.0557 129.033 32.1124 129.095 32.0815 129.193C31.7316 130.309 31.248 131.374 30.646 132.367C30.6203 132.409 30.5791 132.44 30.5328 132.45C29.406 132.717 28.2432 132.851 27.0753 132.836C26.9673 132.836 26.921 132.753 26.9107 132.728C26.8952 132.697 26.8695 132.614 26.9364 132.537H26.9312ZM25.7839 134.173C25.8148 134.117 25.8765 134.081 25.9434 134.081C25.9434 134.081 25.9537 134.081 25.9588 134.081C27.5281 134.204 29.1025 134.096 30.6306 133.757C30.7026 133.741 30.7746 133.767 30.8158 133.829L32.2513 135.804C32.2924 135.861 32.2976 135.938 32.2667 135.995C31.3509 137.703 30.754 139.54 30.4916 141.459C30.4813 141.526 30.435 141.582 30.3682 141.608L28.0477 142.364C27.9808 142.385 27.9036 142.364 27.8573 142.313C26.818 141.135 25.6141 140.126 24.2712 139.303C24.2146 139.267 24.1786 139.2 24.1837 139.128C24.3587 137.363 24.8989 135.696 25.789 134.179L25.7839 134.173ZM26.3447 146.851C26.3138 146.949 26.2264 146.969 26.1903 146.974C26.1543 146.974 26.072 146.974 26.0154 146.892C24.9195 145.168 24.2712 143.172 24.1426 141.124C24.1374 141.022 24.2043 140.97 24.2352 140.955C24.2661 140.939 24.3484 140.903 24.4307 140.965C25.3826 141.639 26.2469 142.431 27.0033 143.311C27.0341 143.347 27.0496 143.393 27.0444 143.445C26.9518 144.603 26.7151 145.75 26.3395 146.856L26.3447 146.851ZM31.428 151.548C29.8228 150.844 28.4079 149.809 27.2245 148.482C27.1782 148.43 27.1628 148.353 27.1885 148.292C27.7905 146.841 28.1712 145.313 28.3204 143.748C28.3256 143.676 28.377 143.615 28.4439 143.594L30.7386 142.848C30.7386 142.848 30.7746 142.838 30.7952 142.838C30.8467 142.838 30.893 142.858 30.929 142.899C32.2153 144.34 33.8257 145.513 35.5904 146.29C35.6573 146.321 35.6985 146.383 35.6985 146.455V148.868C35.6985 148.94 35.6573 149.007 35.5904 149.032C34.1498 149.655 32.8121 150.494 31.6133 151.518C31.5618 151.564 31.4846 151.574 31.4229 151.543L31.428 151.548ZM39.5213 152.058C39.5161 152.094 39.4904 152.176 39.3875 152.202C37.4015 152.706 35.3023 152.706 33.3163 152.202C33.2185 152.176 33.1877 152.094 33.1825 152.058C33.1774 152.022 33.1671 151.939 33.2545 151.873C34.191 151.178 35.2097 150.597 36.285 150.149C36.3313 150.128 36.3776 150.128 36.424 150.149C37.4941 150.597 38.5129 151.178 39.4544 151.873C39.5367 151.934 39.5316 152.022 39.5264 152.058H39.5213ZM45.4845 148.487C44.3011 149.815 42.8862 150.844 41.2809 151.548C41.214 151.579 41.142 151.564 41.0906 151.523C39.8918 150.499 38.5592 149.66 37.1134 149.038C37.0465 149.007 37.0054 148.945 37.0054 148.873V146.46C37.0054 146.388 37.0465 146.321 37.1134 146.295C38.8781 145.518 40.4937 144.345 41.7748 142.905C41.8109 142.863 41.8572 142.843 41.9086 142.843C41.9292 142.843 41.9446 142.843 41.9652 142.853L44.2599 143.599C44.3268 143.62 44.3783 143.682 44.3834 143.754C44.5326 145.318 44.9134 146.841 45.5153 148.297C45.5411 148.358 45.5308 148.436 45.4793 148.487H45.4845ZM46.6884 146.897C46.6318 146.985 46.5444 146.985 46.5135 146.98C46.4775 146.98 46.3952 146.954 46.3591 146.856C45.9887 145.75 45.752 144.603 45.6543 143.445C45.6543 143.399 45.6645 143.347 45.6954 143.311C46.4517 142.431 47.3161 141.644 48.268 140.965C48.304 140.939 48.34 140.929 48.3709 140.929C48.412 140.929 48.4429 140.944 48.4635 140.955C48.4943 140.97 48.5664 141.022 48.5561 141.124C48.4275 143.172 47.7792 145.168 46.6833 146.892L46.6884 146.897Z" fill="#9DADF2"/>
            <path d="M-24.1157 116.009C-10.6099 116.009 0.380108 126.999 0.380108 140.504C0.380108 154.01 -10.6099 165 -24.1157 165C-37.6216 165 -48.6116 154.01 -48.6116 140.504C-48.6116 126.999 -37.6216 116.009 -24.1157 116.009ZM-24.1157 163.235C-11.5823 163.235 -1.38466 153.038 -1.38466 140.504C-1.38466 127.971 -11.5823 117.773 -24.1157 117.773C-36.6492 117.773 -46.8468 127.971 -46.8468 140.504C-46.8468 153.038 -36.6492 163.235 -24.1157 163.235Z" fill="#478BF9"/>
        </g>
    </g>
</svg>
