<svg width="320" height="141" viewBox="0 0 320 141" fill="none" xmlns="http://www.w3.org/2000/svg">
    <g opacity="0.2">
        <mask id="mask0_472_7050" style="mask-type:alpha" maskUnits="userSpaceOnUse" x="0" y="0" width="320" height="141">
            <rect width="320" height="141" fill="url(#paint0_linear_472_7050)"/>
        </mask>
        <g mask="url(#mask0_472_7050)">
            <path fill-rule="evenodd" clip-rule="evenodd" d="M34.4518 61.074C28.985 66.5358 28.985 75.422 34.4518 80.8839C39.9185 86.3458 48.8126 86.3458 54.2794 80.8839C59.7462 75.422 59.7462 66.5358 54.2794 61.074C48.8126 55.6121 39.9185 55.6121 34.4518 61.074ZM35.1138 61.7341C40.215 56.6362 48.5162 56.6362 53.6187 61.7341C58.7211 66.8307 58.7211 75.1245 53.6187 80.2225C48.5175 85.3204 40.2163 85.3204 35.1138 80.2225C30.0113 75.1258 30.0113 66.8321 35.1138 61.7341ZM55.7102 70.9789C55.7102 77.2388 50.631 82.3134 44.3656 82.3134C38.1002 82.3134 33.021 77.2388 33.021 70.9789C33.021 64.7191 38.1002 59.6445 44.3656 59.6445C50.631 59.6445 55.7102 64.7191 55.7102 70.9789ZM49.6005 67.8221L48.8908 68.5307V68.5325C49.7323 69.5429 50.2382 70.8374 50.2382 72.2495C50.2382 75.4455 47.6331 78.0469 44.4324 78.0469C41.2318 78.0469 38.6267 75.4455 38.6267 72.2495C38.6267 70.8357 39.1326 69.5429 39.9758 68.5307L39.2661 67.8221C39.0623 67.6186 39.0623 67.2888 39.2661 67.0853C39.4699 66.8819 39.8001 66.8819 40.0039 67.0853L40.7136 67.794C41.5954 67.059 42.7004 66.5749 43.9107 66.4714V65.9925H43.4311C43.0078 65.9925 42.6582 65.6435 42.6582 65.2207V64.8173C42.6582 64.3893 43.0078 64.0454 43.4311 64.0454H45.4355C45.8588 64.0454 46.2084 64.3893 46.2084 64.8173V65.2207C46.2084 65.6435 45.8588 65.9925 45.4355 65.9925H44.9559V66.4714C46.1645 66.5766 47.2712 67.0608 48.153 67.794L48.8627 67.0853C49.0665 66.8819 49.3968 66.8819 49.6005 67.0853C49.8043 67.2888 49.8043 67.6186 49.6005 67.8221ZM40.1515 72.2495C40.1515 74.6035 42.0697 76.519 44.4324 76.519C46.7951 76.519 48.7134 74.6088 48.7134 72.2495C48.7134 69.8902 46.7951 67.9747 44.4324 67.9747C42.0697 67.9747 40.1515 69.8954 40.1515 72.2495ZM40.9069 72.2389C40.9069 70.2936 42.4861 68.7184 44.4325 68.7184C46.3806 68.7184 47.9581 70.2936 47.9581 72.2389C47.9581 74.1843 46.3806 75.7595 44.4325 75.7595C42.4843 75.7595 40.9069 74.1843 40.9069 72.2389ZM44.0003 72.6687V74.8245L46.1593 71.8074H44.8646V69.6516L42.7057 72.6687H44.0003Z" fill="#9DADF2"/>
            <path fill-rule="evenodd" clip-rule="evenodd" d="M-13.7713 60.7727C-19.238 66.2346 -19.238 75.1208 -13.7713 80.5827C-8.3045 86.0446 0.589622 86.0446 6.05639 80.5827C11.5231 75.1208 11.5231 66.2346 6.05639 60.7727C0.589622 55.3108 -8.3045 55.3108 -13.7713 60.7727ZM3.20018 59.6662C3.97871 60.1645 4.71558 60.7534 5.39563 61.4328C6.07577 62.1122 6.66525 62.8484 7.16408 63.6262L5.89888 64.8903C4.92966 63.2628 3.56408 61.8984 1.93516 60.9301L3.20018 59.6662ZM2.36889 59.1767C-1.5023 57.0869 -6.21294 57.087 -10.0835 59.1769L-8.79102 60.4683C-7.2993 59.7474 -5.62561 59.3432 -3.85743 59.3432C-2.08926 59.3432 -0.415571 59.7474 1.07615 60.4683L2.36889 59.1767ZM-10.9147 59.6665C-11.6929 60.1648 -12.4295 60.7536 -13.1092 61.4328C-13.7895 62.1125 -14.3791 62.849 -14.878 63.6272L-13.6138 64.8903C-12.6445 63.2628 -11.279 61.8984 -9.65003 60.9301L-10.9147 59.6665ZM-15.3679 64.4578C-17.4589 68.3251 -17.4588 73.0307 -15.3676 76.8973L-14.076 75.6069C-14.7975 74.1165 -15.202 72.4443 -15.202 70.6777C-15.202 68.9111 -14.7975 67.2389 -14.076 65.7485L-15.3679 64.4578ZM-14.8776 77.7279C-14.3788 78.5057 -13.7893 79.2418 -13.1092 79.9212C-12.4291 80.6006 -11.6923 81.1895 -10.9137 81.6879L-9.65 80.4253C-11.2789 79.4569 -12.6445 78.0926 -13.6137 76.4651L-14.8776 77.7279ZM-10.0824 82.1774C-6.21181 84.2668 -1.50204 84.2671 2.3682 82.1781L1.07611 80.8871C-0.4156 81.608 -2.08928 82.0121 -3.85743 82.0121C-5.62559 82.0121 -7.29927 81.608 -8.79098 80.8871L-10.0824 82.1774ZM3.19952 81.6886C3.97834 81.1901 4.71543 80.601 5.39563 79.9212C6.07545 79.242 6.66469 78.506 7.16336 77.7285L5.89886 76.4651C4.92963 78.0926 3.56405 79.4569 1.93512 80.4253L3.19952 81.6886ZM7.65336 76.898C9.74531 73.0304 9.74554 68.324 7.65406 64.4567L6.36111 65.7485C7.08263 67.2389 7.48714 68.9111 7.48714 70.6777C7.48714 72.4443 7.08263 74.1165 6.36109 75.6069L7.65336 76.898ZM-1.3428 66.3316C-1.80147 65.5578 -2.14014 64.7216 -2.35081 63.8454C-2.36014 63.8069 -2.39214 63.7763 -2.4308 63.7683C-3.40814 63.5583 -4.44147 63.5583 -5.41748 63.7683C-5.45748 63.7763 -5.48947 63.8069 -5.49881 63.8454C-5.70947 64.7216 -6.04814 65.5578 -6.50681 66.3316C-6.52814 66.3675 -6.52548 66.4114 -6.50148 66.446L-5.68281 67.5694C-5.65881 67.6026 -5.61748 67.6199 -5.57881 67.6106C-4.49748 67.3939 -3.35614 67.3939 -2.2748 67.6106C-2.2348 67.6186 -2.19481 67.6026 -2.17081 67.5694L-1.35214 66.446C-1.32814 66.4127 -1.32547 66.3675 -1.34681 66.3316H-1.3428ZM-9.3308 66.1429C-8.5748 65.2361 -7.6028 64.5302 -6.51613 64.1007H-6.51479C-6.50013 64.0954 -6.4868 64.0928 -6.4748 64.0928C-6.43746 64.0928 -6.41213 64.114 -6.4028 64.122C-6.38813 64.1353 -6.35746 64.1739 -6.3748 64.2297C-6.57613 64.8665 -6.85346 65.4781 -7.20013 66.0471C-7.21346 66.0697 -7.23746 66.087 -7.26413 66.0937C-7.91213 66.2466 -8.5788 66.3224 -9.24947 66.3144C-9.3108 66.3144 -9.33747 66.2678 -9.34414 66.2532C-9.35347 66.2346 -9.36813 66.1881 -9.3308 66.1429ZM-1.57881 68.1211C-1.05348 69.0983 -0.710806 70.1513 -0.558805 71.2495C-0.553473 71.288 -0.525475 71.3213 -0.486809 71.3332L0.845192 71.7653C0.885191 71.7786 0.92786 71.7653 0.95586 71.7361C1.55186 71.0633 2.24386 70.4837 3.01453 70.013C3.04786 69.9917 3.06786 69.9532 3.06386 69.9133C2.96386 68.9029 2.65453 67.9496 2.14253 67.0788C2.12253 67.0442 2.08387 67.0229 2.04387 67.0269C1.14387 67.0987 0.239857 67.0349 -0.638811 66.8395L-0.641735 66.839C-0.648487 66.8378 -0.654469 66.8368 -0.661474 66.8368C-0.694809 66.8368 -0.725475 66.8528 -0.745476 66.8807L-1.56948 68.0108C-1.59348 68.0427 -1.59614 68.0865 -1.57748 68.1211H-1.57881ZM-7.20813 66.8409C-8.08813 67.0364 -8.99079 67.0989 -9.89079 67.0284H-9.89879C-9.93479 67.0284 -9.97079 67.0483 -9.98946 67.0816C-10.5015 67.9524 -10.8108 68.9057 -10.9108 69.9161C-10.9148 69.956 -10.8961 69.9959 -10.8615 70.0158C-10.0908 70.4864 -9.3988 71.0648 -8.8028 71.7388C-8.7748 71.7694 -8.73213 71.7814 -8.69213 71.7681L-7.36013 71.336C-7.32146 71.324 -7.29346 71.2908 -7.28813 71.2522C-7.13613 70.1541 -6.79346 69.1011 -6.26813 68.1239C-6.24946 68.0893 -6.25213 68.0455 -6.27612 68.0136L-7.10013 66.8835C-7.12413 66.8502 -7.16679 66.8343 -7.20679 66.8423L-7.20813 66.8409ZM-1.30813 71.5129C-1.28946 71.4916 -1.28013 71.4624 -1.28413 71.4331C-1.42013 70.3669 -1.75213 69.3485 -2.26947 68.4058C-2.28414 68.3793 -2.30814 68.3606 -2.33747 68.3553C-2.85614 68.245 -3.38947 68.1905 -3.9228 68.1905C-4.45613 68.1905 -4.98947 68.245 -5.50814 68.3553C-5.53747 68.362 -5.5628 68.3806 -5.57614 68.4058C-6.09347 69.3485 -6.42547 70.3669 -6.56147 71.4331C-6.56547 71.4624 -6.55614 71.4916 -6.53748 71.5129C-5.83614 72.3173 -4.94547 72.9607 -3.96147 73.3756C-3.93614 73.3862 -3.9068 73.3862 -3.88147 73.3756C-2.89746 72.9607 -2.0068 72.3173 -1.30547 71.5129H-1.30813ZM-2.10545 77.3149C-2.10945 77.3348 -2.12411 77.3814 -2.18145 77.396H-2.18278C-3.32278 77.6845 -4.52678 77.6845 -5.66678 77.396C-5.72412 77.3814 -5.73879 77.3348 -5.74279 77.3149C-5.74679 77.2949 -5.75079 77.2457 -5.70279 77.2099C-5.16412 76.811 -4.57878 76.48 -3.96411 76.2234C-3.93878 76.2127 -3.90945 76.2127 -3.88412 76.2234C-3.26812 76.48 -2.68412 76.8123 -2.14545 77.2099C-2.09745 77.2457 -2.10145 77.2949 -2.10545 77.3149ZM-8.4628 72.4711C-8.5028 72.4844 -8.53079 72.519 -8.53479 72.5602C-8.62013 73.4537 -8.83879 74.3285 -9.18413 75.1607C-9.19879 75.1966 -9.19212 75.2405 -9.16412 75.2711C-8.48412 76.0302 -7.67212 76.6206 -6.74946 77.0247C-6.71212 77.0407 -6.66946 77.0353 -6.63879 77.0088C-5.95213 76.4224 -5.18412 75.9438 -4.35612 75.5862C-4.31745 75.5702 -4.29346 75.5317 -4.29346 75.4905V74.1091C-4.29346 74.0679 -4.31746 74.0307 -4.35479 74.0134C-5.36813 73.568 -6.29479 72.8979 -7.03212 72.0736C-7.05212 72.051 -7.08012 72.0391 -7.10946 72.0391C-7.12012 72.0391 -7.13079 72.0404 -7.14279 72.0444L-8.46146 72.4711H-8.4628ZM-3.55213 74.1091C-3.55213 74.0678 -3.52813 74.0293 -3.49079 74.0133L-3.48813 74.0147C-2.4748 73.5693 -1.54813 72.8992 -0.810795 72.0749C-0.790794 72.0523 -0.762793 72.0403 -0.733459 72.0403C-0.722792 72.0403 -0.712126 72.0417 -0.70146 72.0457L0.61721 72.4724C0.657211 72.4857 0.685207 72.5203 0.689207 72.5615C0.774542 73.4549 0.993208 74.3298 1.33854 75.1607C1.35321 75.1979 1.34521 75.2405 1.31855 75.2711C0.637211 76.0302 -0.174795 76.6205 -1.09613 77.0247C-1.13346 77.0406 -1.17612 77.034 -1.20679 77.0087C-1.89479 76.4224 -2.66146 75.9438 -3.48946 75.5861C-3.52813 75.5702 -3.55213 75.5316 -3.55213 75.4904V74.1091ZM-1.37212 64.0928C-1.36012 64.0928 -1.34678 64.0954 -1.33212 64.1007H-1.33078C-0.244112 64.5302 0.729219 65.2361 1.48389 66.1429C1.52122 66.1881 1.50522 66.2346 1.49722 66.2532C1.49055 66.2678 1.46389 66.3144 1.40256 66.3144C0.731888 66.3224 0.065218 66.2466 -0.582783 66.0937C-0.609449 66.087 -0.63212 66.0711 -0.646788 66.0471C-0.993454 65.4794 -1.27079 64.8679 -1.47212 64.2297C-1.49079 64.1725 -1.45879 64.1353 -1.44412 64.122C-1.43612 64.114 -1.40946 64.0928 -1.37212 64.0928ZM-9.75613 74.4073C-9.73613 74.4046 -9.68814 74.3926 -9.66947 74.3368C-9.45614 73.7039 -9.32013 73.0472 -9.26547 72.3837C-9.2628 72.3571 -9.27213 72.3292 -9.28946 72.308C-9.72413 71.8041 -10.2201 71.3534 -10.7655 70.9652C-10.8135 70.9306 -10.8601 70.9492 -10.8775 70.9598C-10.8948 70.9691 -10.9348 70.9984 -10.9308 71.0569C-10.8575 72.2308 -10.4855 73.3729 -9.85613 74.3594C-9.82413 74.4099 -9.77481 74.4086 -9.75481 74.4073H-9.75613ZM2.91721 70.9651C2.93854 70.9505 2.95988 70.9452 2.97721 70.9452V70.9465C2.99988 70.9465 3.01987 70.9545 3.0292 70.9598C3.04654 70.9691 3.08654 70.9984 3.08254 71.0569C3.00921 72.2308 2.63721 73.3729 2.00787 74.3594C1.97587 74.4099 1.92654 74.4086 1.90654 74.4072C1.88654 74.4046 1.83853 74.3926 1.81987 74.3368C1.60787 73.7039 1.47187 73.0458 1.41721 72.3837C1.41454 72.3558 1.42387 72.3292 1.4412 72.3079C1.87587 71.8041 2.37187 71.352 2.91721 70.9651Z" fill="white"/>
            <path fill-rule="evenodd" clip-rule="evenodd" d="M130.898 12.5925C125.431 18.0544 125.431 26.9406 130.898 32.4025C136.364 37.8644 145.259 37.8644 150.725 32.4025C156.192 26.9406 156.192 18.0544 150.725 12.5925C145.259 7.13062 136.364 7.13062 130.898 12.5925ZM141.345 9.43999C144.516 9.56817 147.649 10.8391 150.065 13.2527C152.514 15.6998 153.788 18.8839 153.885 22.0975H152.149C151.944 16.2002 147.23 11.4477 141.345 11.1754V9.43999ZM140.411 9.43528C137.195 9.53282 134.009 10.8053 131.56 13.2527C129.11 15.7001 127.836 18.8842 127.739 22.0975H129.474C129.68 16.1557 134.464 11.3761 140.411 11.17V9.43528ZM127.744 23.0309C127.872 26.1986 129.144 29.3281 131.56 31.741C134.009 34.1881 137.195 35.4606 140.411 35.5584V33.825C134.509 33.6205 129.752 28.9107 129.479 23.0309H127.744ZM141.345 35.5537C144.516 35.4258 147.649 34.1549 150.065 31.741C152.48 29.3277 153.752 26.1983 153.881 23.0309H152.144C151.873 28.8663 147.186 33.5493 141.345 33.8196V35.5537ZM138.732 18.6259L138.546 18.6111L138.544 18.6098L138.6 18.4305C139.144 16.6626 140.022 15.5638 140.879 15.5638C141.735 15.5638 142.607 16.6572 143.153 18.4184L143.209 18.5964L143.024 18.6125C142.301 18.6754 141.553 18.7075 140.8 18.7075C140.103 18.7075 139.407 18.6807 138.732 18.6259ZM138.347 25.7162C138.17 24.8932 138.067 23.9992 138.039 23.0624H138.04L138.035 22.9071H143.724L143.72 23.061C143.693 24.0005 143.588 24.8972 143.41 25.7296L143.382 25.8594L143.251 25.8474C141.71 25.7042 140.057 25.6988 138.507 25.834L138.375 25.8461L138.347 25.7162ZM143.445 17.238C143.602 17.6021 143.741 17.9915 143.858 18.3984L143.894 18.5215L144.021 18.5054C144.727 18.4131 145.409 18.29 146.049 18.1374L146.293 18.0798L146.128 17.8925C145.272 16.9209 144.174 16.2062 142.95 15.8248L142.52 15.691L142.785 16.0563C143.026 16.3896 143.248 16.787 143.445 17.2394V17.238ZM144.095 19.3499L144.062 19.192L144.063 19.1906L144.222 19.1692C145.069 19.0555 145.878 18.8962 146.624 18.6995L146.729 18.6714L146.788 18.7637C147.417 19.7527 147.793 20.8916 147.874 22.06L147.885 22.2206H144.405L144.401 22.0747C144.376 21.1245 144.272 20.2078 144.095 19.3499ZM137.734 18.5242L137.86 18.5402L137.896 18.4171C138.02 17.9915 138.161 17.594 138.317 17.238C138.512 16.7857 138.734 16.3869 138.977 16.055L139.244 15.6883L138.813 15.8221C137.574 16.2075 136.465 16.9329 135.607 17.9206L135.442 18.1093L135.686 18.1655C136.333 18.314 137.024 18.4345 137.735 18.5228L137.734 18.5242ZM143.409 19.3981C143.588 20.2305 143.692 21.1285 143.719 22.0667H143.717L143.721 22.2206H138.032L138.037 22.0653C138.065 21.1285 138.169 20.2359 138.346 19.4115L138.374 19.2816L138.506 19.2937C140.054 19.4302 141.71 19.4248 143.249 19.2803L143.381 19.2683L143.409 19.3981ZM144.021 26.6236L143.894 26.6076L143.858 26.7307C143.74 27.1362 143.602 27.527 143.445 27.8897C143.248 28.3433 143.026 28.7408 142.785 29.0741L142.52 29.4394L142.95 29.3056C144.174 28.9242 145.272 28.2095 146.128 27.2379L146.293 27.0505L146.049 26.993C145.409 26.8404 144.727 26.716 144.021 26.625V26.6236ZM143.024 26.5166L143.209 26.5326H143.211L143.155 26.7106C142.608 28.4718 141.741 29.5652 140.88 29.5652C140.019 29.5652 139.147 28.4665 138.601 26.6972L138.546 26.5179L138.732 26.5032C140.136 26.3907 141.633 26.3948 143.024 26.5166ZM144.401 23.053C144.376 24.0032 144.272 24.9213 144.095 25.7791L144.062 25.9371L144.22 25.9585C145.068 26.0736 145.875 26.2315 146.623 26.4282L146.728 26.4563L146.786 26.364C147.415 25.375 147.792 24.2361 147.873 23.0677L147.884 22.9071H144.404L144.4 23.053H144.401ZM137.895 26.7119C138.019 27.1375 138.16 27.5337 138.315 27.8897H138.314C138.51 28.342 138.732 28.7408 138.974 29.0727L139.241 29.4394L138.81 29.3056C137.572 28.9202 136.464 28.1948 135.604 27.2071L135.439 27.0184L135.683 26.9622C136.331 26.8123 137.021 26.6932 137.733 26.6049L137.859 26.5888L137.895 26.7119ZM137.358 22.076C137.383 21.1392 137.485 20.2278 137.661 19.37L137.693 19.2107L137.533 19.1906C136.682 19.0809 135.868 18.9283 135.114 18.7356L135.008 18.7088L134.95 18.8012C134.334 19.7795 133.966 20.9063 133.883 22.0613L133.871 22.2219H137.351L137.355 22.076H137.358ZM137.662 25.7591L137.694 25.9183H137.697L137.537 25.9384C136.685 26.0481 135.87 26.2007 135.118 26.3934L135.012 26.4202L134.954 26.3278C134.338 25.3509 133.968 24.2227 133.887 23.0677L133.875 22.9071H137.355L137.359 23.053C137.384 23.9912 137.487 24.9012 137.662 25.7591Z" fill="#9DADF2"/>
            <path fill-rule="evenodd" clip-rule="evenodd" d="M82.6748 12.5925C77.208 18.0544 77.208 26.9406 82.6748 32.4025C88.1415 37.8644 97.0357 37.8644 102.502 32.4025C107.969 26.9406 107.969 18.0544 102.502 12.5925C97.0357 7.13062 88.1415 7.13062 82.6748 12.5925ZM96.3256 9.96966C98.3461 10.5677 100.25 11.662 101.842 13.2527C103.434 14.8431 104.529 16.7449 105.128 18.7638H103.303C102.167 15.5075 99.5849 12.928 96.3256 11.7924V9.96966ZM95.3914 9.73017C93.5464 9.32886 91.6307 9.32889 89.7858 9.73025V11.5116C90.6823 11.284 91.6213 11.163 92.5886 11.163C93.5559 11.163 94.495 11.284 95.3914 11.5116V9.73017ZM88.8516 9.9698C86.8314 10.5679 84.9284 11.6621 83.3368 13.2527C81.7448 14.8433 80.6495 16.7451 80.0509 18.7638H81.8739C83.0106 15.5075 85.5923 12.928 88.8516 11.7924V9.9698ZM79.8112 19.6972C79.4095 21.5406 79.4096 23.4545 79.8113 25.2978H81.5929C81.3651 24.4021 81.244 23.4639 81.244 22.4975C81.244 21.5311 81.3651 20.5929 81.5929 19.6972H79.8112ZM80.0511 26.2312C80.6496 28.2496 81.7449 30.1509 83.3368 31.741C84.9286 33.3313 86.8316 34.4255 88.8516 35.0236V33.2026C85.5923 32.067 83.0106 29.4875 81.8739 26.2312H80.0511ZM89.7858 35.2632C91.6308 35.6647 93.5464 35.6649 95.3914 35.2637V33.4834C94.495 33.711 93.5559 33.832 92.5886 33.832C91.6213 33.832 90.6823 33.711 89.7858 33.4834V35.2632ZM96.3256 35.0243C98.3463 34.4263 100.25 33.3319 101.842 31.741C103.433 30.1507 104.529 28.2494 105.127 26.2312H103.303C102.167 29.4875 99.5849 32.067 96.3256 33.2026V35.0243ZM105.367 25.2978C105.769 23.4544 105.769 21.5405 105.368 19.6972H103.584C103.812 20.5929 103.933 21.5311 103.933 22.4975C103.933 23.4639 103.812 24.4021 103.584 25.2978H105.367ZM88.4601 25.3337C88.575 25.6522 88.8773 25.8645 89.214 25.8619V25.8605L95.9947 25.8154C96.3314 25.8128 96.6324 25.5978 96.742 25.2779L97.9434 21.8075C98.02 21.8499 98.1019 21.8831 98.1864 21.9097C98.3171 21.9495 98.4517 21.9681 98.589 21.9681L98.6735 21.9654C99.3825 21.9163 99.9344 21.3164 99.9291 20.6024C99.9251 19.8539 99.3152 19.2487 98.5706 19.2541C97.888 19.258 97.315 19.7756 97.2384 20.4578C97.2331 20.5109 97.2305 20.5653 97.2305 20.6197C97.2305 20.7404 97.2477 20.8599 97.2794 20.974C97.3058 21.0683 97.3414 21.1585 97.3863 21.2448L94.9927 22.4485L93.0981 19.765C93.176 19.7318 93.2513 19.6907 93.3212 19.6416C93.4546 19.55 93.5708 19.4345 93.6658 19.2992C93.8454 19.0404 93.9286 18.7365 93.9061 18.4193C93.8573 17.7491 93.3186 17.2116 92.6519 17.1665C92.6189 17.1638 92.5846 17.1638 92.5516 17.1638H92.5515C91.8069 17.1691 91.2049 17.7823 91.2102 18.5308C91.2115 18.8095 91.2986 19.0789 91.4597 19.3071C91.5548 19.4412 91.6723 19.5553 91.8069 19.6469C91.8782 19.696 91.9535 19.7371 92.0314 19.7703L90.1698 22.4817L87.7366 21.2978C87.7841 21.2209 87.825 21.1399 87.8581 21.055C87.9188 20.8997 87.9478 20.7338 87.9478 20.5613C87.9439 19.8128 87.3339 19.2076 86.5893 19.2129C85.8447 19.2182 85.2427 19.8314 85.2479 20.5799C85.2519 21.2567 85.7575 21.8314 86.4243 21.9163C86.4837 21.9243 86.5444 21.9269 86.6065 21.9269C86.7134 21.9269 86.819 21.9136 86.9233 21.8871C87.0118 21.8645 87.0989 21.834 87.1808 21.7942L88.4601 25.3337ZM95.3359 21.6363C95.1564 21.6363 94.9861 21.55 94.8831 21.4027L94.4963 20.8546C94.4065 20.7285 94.3748 20.5693 94.4065 20.418C94.4382 20.2667 94.5332 20.1339 94.6666 20.0556L95.4019 19.6217C95.4851 19.5726 95.5802 19.546 95.6766 19.5447C95.901 19.5434 96.103 19.6774 96.1901 19.8858L96.4674 20.5533C96.5783 20.8214 96.4634 21.1333 96.206 21.2633L95.5802 21.5779C95.5049 21.615 95.4204 21.6363 95.3373 21.6363H95.3359ZM89.5718 21.6177C89.6483 21.6548 89.7328 21.6734 89.816 21.6734L89.8147 21.6721C89.9942 21.6721 90.1632 21.5819 90.2649 21.4332L90.6557 20.8639C90.7428 20.7365 90.7732 20.5772 90.7389 20.4259C90.7045 20.2746 90.6082 20.1432 90.4748 20.0676L89.7619 19.6588C89.6774 19.6097 89.5823 19.5858 89.4859 19.5858C89.2615 19.5872 89.0622 19.7239 88.9777 19.9336L88.703 20.621C88.5948 20.8904 88.7136 21.1996 88.9737 21.327L89.5718 21.6177ZM88.7715 26.3771L96.4394 26.326C96.7624 26.3238 97.026 26.5853 97.0281 26.91L97.0299 27.1847C97.0321 27.5094 96.7719 27.7744 96.4489 27.7765L88.7811 27.8277C88.4581 27.8298 88.1945 27.5683 88.1924 27.2436L88.1906 26.9689C88.1884 26.6442 88.4485 26.3793 88.7715 26.3771Z" fill="#478BF9"/>
            <path fill-rule="evenodd" clip-rule="evenodd" d="M34.4518 12.5925C28.985 18.0544 28.985 26.9406 34.4518 32.4025C39.9185 37.8644 48.8126 37.8644 54.2794 32.4025C59.7462 26.9406 59.7462 18.0544 54.2794 12.5925C48.8126 7.13062 39.9185 7.13062 34.4518 12.5925ZM53.3366 12.9791C48.3096 8.24572 40.4207 8.24592 35.3952 12.9797L36.6265 14.2099C38.6534 12.3197 41.3743 11.163 44.3656 11.163C47.3569 11.163 50.0778 12.3197 52.1047 14.2099L53.3366 12.9791ZM34.7383 13.6435C30.1029 18.6702 30.1367 26.4743 34.84 31.4592L36.0706 30.2297C34.1787 28.2046 33.021 25.4861 33.021 22.4975C33.021 19.5621 34.1379 16.8873 35.9702 14.8742L34.7383 13.6435ZM35.5043 32.1155C40.499 36.7139 48.2338 36.7141 53.2275 32.1162L51.9957 30.8854C49.9808 32.7161 47.3036 33.832 44.3656 33.832C41.4276 33.832 38.7504 32.7161 36.7355 30.8854L35.5043 32.1155ZM53.8919 31.4599C58.5959 26.4735 58.6298 18.6685 53.9936 13.6428L52.761 14.8742C54.5933 16.8873 55.7102 19.5621 55.7102 22.4975C55.7102 25.4862 54.5524 28.2046 52.6606 30.2297L53.8919 31.4599ZM48.9614 17.3224C47.818 16.3066 46.3386 15.6578 44.7113 15.5638V17.6318C45.7694 17.7195 46.7335 18.1379 47.4983 18.7855L48.9614 17.3237V17.3224ZM40.5151 19.3679L39.0521 17.9062C38.0353 19.0485 37.3859 20.5266 37.2919 22.1524H39.3617C39.4495 21.0952 39.8682 20.132 40.5164 19.3679H40.5151ZM51.3058 22.1524H49.2372C49.1494 21.0952 48.7294 20.132 48.0825 19.3679L49.5456 17.9062C50.5623 19.0498 51.2117 20.5266 51.3058 22.1524ZM39.3605 22.9766H37.2919C37.3859 24.6025 38.0353 26.0793 39.0521 27.2229L40.5151 25.7611C39.8682 24.997 39.4482 24.0338 39.3605 22.9766ZM43.8864 15.5638V17.6306C42.8282 17.7183 41.8641 18.1379 41.0994 18.7842L39.6363 17.3224C40.7809 16.3066 42.259 15.6578 43.8864 15.5638ZM49.5443 27.2229C50.5611 26.0805 51.2105 24.6025 51.3045 22.9766H49.2346C49.1469 24.0338 48.7282 24.997 48.08 25.7599L49.5443 27.2229ZM44.7113 29.5652V27.4985C45.7694 27.4108 46.7335 26.9912 47.4983 26.3448L48.9614 27.8066C47.8167 28.8224 46.3386 29.4713 44.7113 29.5652ZM39.6363 27.8066C40.7797 28.8224 42.259 29.4713 43.8864 29.5652V27.4972C42.8282 27.4095 41.8641 26.9911 41.0994 26.3436L39.6363 27.8053V27.8066ZM44.2988 18.307C46.652 18.307 48.5601 20.2134 48.5601 22.5645C48.5601 24.9156 46.652 26.8221 44.2988 26.8221C41.9456 26.8221 40.0374 24.9156 40.0374 22.5645C40.0374 20.2134 41.9456 18.307 44.2988 18.307ZM45.8722 22.8413L46.2571 23.2259L46.2546 23.2309C46.5204 23.4964 46.9504 23.4964 47.2162 23.2309L47.5221 22.9253C47.7878 22.6597 47.7878 22.2288 47.5221 21.9645L46.9566 21.3996C46.6909 21.1341 46.2608 21.1341 45.995 21.3996L45.6891 21.7052L45.3369 21.3533C45.0711 21.0877 44.641 21.0877 44.3753 21.3533L44.0694 21.6589L43.7183 21.3044C43.4525 21.0389 43.0225 21.0389 42.7567 21.3044L40.8824 23.177C40.8687 23.1908 40.8687 23.2146 40.8824 23.2284C41.1344 23.4789 41.5419 23.4789 41.7926 23.2284L43 22.0222C43.1303 21.8919 43.3422 21.8919 43.4726 22.0222L43.5604 22.1098C43.5767 22.1261 43.5767 22.1512 43.5604 22.1674L42.5511 23.1758C42.5373 23.1896 42.5373 23.2134 42.5511 23.2271C42.8031 23.4777 43.2106 23.4777 43.4613 23.2271L44.621 22.0685C44.7514 21.9382 44.9633 21.9382 45.0936 22.0685L45.1826 22.1574C45.1964 22.1712 45.1964 22.195 45.1826 22.2088L44.211 23.1795C44.1972 23.1933 44.1972 23.2171 44.211 23.2309C44.463 23.4814 44.8705 23.4814 45.1212 23.2309L46.2408 22.1123C46.3712 21.9821 46.583 21.9821 46.7134 22.1123L46.904 22.3027C46.9805 22.3791 46.9805 22.5019 46.904 22.5783L46.8751 22.6084C46.7987 22.6848 46.6758 22.6848 46.5993 22.6084L46.3524 22.3616C46.3386 22.3478 46.3147 22.3478 46.301 22.3616L45.8722 22.79C45.8584 22.8038 45.8584 22.8276 45.8722 22.8413Z" fill="#7DDACF"/>
            <path fill-rule="evenodd" clip-rule="evenodd" d="M-13.771 12.5925C-19.2378 18.0544 -19.2378 26.9406 -13.771 32.4025C-8.30426 37.8644 0.589867 37.8644 6.05663 32.4025C11.5234 26.9406 11.5234 18.0544 6.05663 12.5925C0.589867 7.13062 -8.30426 7.13062 -13.771 12.5925ZM-3.32333 9.43999C-0.152645 9.56817 2.98011 10.8391 5.39587 13.2527C7.84578 15.6998 9.11939 18.8839 9.2167 22.0975H7.48046C7.27571 16.2002 2.56174 11.4477 -3.32333 11.1754V9.43999ZM-4.25759 9.43528C-7.47358 9.53282 -10.66 10.8053 -13.109 13.2527C-15.5586 15.7001 -16.8322 18.8842 -16.9297 22.0975H-15.1948C-14.9886 16.1557 -10.2047 11.3761 -4.25759 11.17V9.43528ZM-16.925 23.0309C-16.7966 26.1986 -15.5246 29.3281 -13.109 31.741C-10.6596 34.1881 -7.47326 35.4606 -4.25759 35.5584V33.825C-10.1601 33.6205 -14.9168 28.9107 -15.1894 23.0309H-16.925ZM-3.32333 35.5537C-0.152338 35.4258 2.98049 34.1549 5.39587 31.741C7.8113 29.3277 9.08331 26.1983 9.21189 23.0309H7.47505C7.20448 28.8663 2.51731 33.5493 -3.32333 33.8196V35.5537ZM-7.99505 24.8921V24.0717H-6.34007V24.8921C-6.34007 25.3441 -5.9685 25.7125 -5.51259 25.7125H-4.6851V23.072L-5.95994 22.7557C-7.15778 22.4588 -7.99505 21.396 -7.99505 20.1721C-7.99505 18.7033 -6.78987 17.5085 -5.30846 17.5085H-4.6851V15.4302H-3.03012V17.5085H-2.20263C-0.833675 17.5085 0.279827 18.6125 0.279827 19.9697V20.7901H-1.37514V19.9697C-1.37514 19.5177 -1.74672 19.1493 -2.20263 19.1493H-3.03012V21.7899L-1.75527 22.1061C-0.557434 22.403 0.279827 23.4658 0.279827 24.6898C0.279827 26.1585 -0.925344 27.3533 -2.40675 27.3533H-3.03012V29.4316H-4.6851V27.3533H-5.51259C-6.88155 27.3533 -7.99505 26.2494 -7.99505 24.8921ZM-2.15619 23.6985L-3.03012 23.4816V25.7125H-2.40675C-1.83717 25.7125 -1.37514 25.2533 -1.37514 24.6898C-1.37514 24.2196 -1.69538 23.8124 -2.15619 23.6985ZM-6.34007 20.1721C-6.34007 20.6423 -6.01983 21.0494 -5.55903 21.1633L-4.6851 21.3803V19.1493H-5.30846C-5.87804 19.1493 -6.34007 19.6086 -6.34007 20.1721Z" fill="#478BF9"/>
            <path d="M82.6748 80.5827C77.208 75.1208 77.208 66.2346 82.6748 60.7727C88.1415 55.3108 97.0357 55.3108 102.502 60.7727C107.969 66.2346 107.969 75.1208 102.502 80.5827C97.0357 86.0446 88.1415 86.0446 82.6748 80.5827ZM101.842 61.4328C96.7392 56.3349 88.438 56.3349 83.3369 61.4328C78.2344 66.5308 78.2344 74.8246 83.3369 79.9212C88.4393 85.0191 96.7405 85.0191 101.842 79.9212C106.944 74.8232 106.944 66.5295 101.842 61.4328Z" fill="#7DDACF"/>
            <path fill-rule="evenodd" clip-rule="evenodd" d="M103.933 70.6777C103.933 76.9376 98.8543 82.0122 92.5889 82.0122C86.3234 82.0122 81.2443 76.9376 81.2443 70.6777C81.2443 64.4179 86.3234 59.3433 92.5889 59.3433C98.8543 59.3433 103.933 64.4179 103.933 70.6777ZM92.5822 63.6224L98.0933 65.8282C98.1545 65.8529 98.1945 65.913 98.1945 65.9789V69.8948C98.2027 73.435 95.9432 76.5335 92.5716 77.604C92.5387 77.6146 92.5046 77.6146 92.4728 77.604C89.1012 76.5335 86.8417 73.435 86.8499 69.8948V65.9789C86.8499 65.9118 86.89 65.8529 86.9512 65.8282L92.4622 63.6224C92.481 63.6141 92.5022 63.6106 92.5222 63.6106C92.5422 63.6106 92.5634 63.6153 92.5822 63.6224ZM92.6175 76.7796C95.4913 75.7244 97.4248 72.958 97.4307 69.8948V66.5772C97.4307 66.463 97.3625 66.3605 97.2554 66.3181L92.6258 64.4644C92.5587 64.4373 92.4857 64.4373 92.4187 64.4644L87.789 66.3169C87.682 66.3593 87.6137 66.4606 87.6137 66.576V69.8948C87.6196 72.9568 89.5531 75.7244 92.4269 76.7796C92.4575 76.7902 92.4904 76.7961 92.5222 76.7961C92.554 76.7961 92.5869 76.7914 92.6175 76.7796ZM96.8729 69.8948C96.8682 72.6812 95.1206 75.2192 92.5234 76.2191C89.9262 75.2204 88.1786 72.6812 88.1739 69.8948V66.7656L92.5234 65.0238L96.8729 66.7656V69.8948ZM94.6111 73.3926C94.0344 74.0403 93.3071 74.5609 92.5069 74.8953C92.3657 74.9554 92.2986 75.1191 92.3586 75.2616C92.4034 75.3688 92.5081 75.4324 92.6164 75.4324C92.6528 75.4324 92.6893 75.4253 92.7246 75.41C93.6002 75.0437 94.3969 74.4737 95.0288 73.7636C95.1312 73.6481 95.1206 73.4715 95.0053 73.369C94.89 73.2666 94.7134 73.2772 94.6111 73.3926ZM89.3778 68.9067C89.5319 68.9067 89.6567 68.7819 89.6567 68.6276L89.6578 68.6288V67.6419L90.584 67.2709H90.5852C90.6546 67.2438 90.7087 67.1896 90.7382 67.1213C90.7676 67.0518 90.7688 66.9765 90.7405 66.907C90.7135 66.8375 90.6605 66.7833 90.5911 66.7539C90.5216 66.7244 90.4463 66.7232 90.3769 66.7515L89.2742 67.1931C89.1683 67.2355 89.0988 67.3368 89.0988 67.4522V68.6276C89.0988 68.7819 89.2236 68.9067 89.3778 68.9067Z" fill="#7DDACF"/>
            <path fill-rule="evenodd" clip-rule="evenodd" d="M140.63 84.6792C144.22 84.6792 147.81 83.3137 150.544 80.5828C156.01 75.1209 156.01 66.2347 150.544 60.7728C147.81 58.0419 144.22 56.6764 140.63 56.6764L140.63 57.6108C143.98 57.6111 147.331 58.8856 149.882 61.4343C154.984 66.5309 154.984 74.8247 149.882 79.9226C147.331 82.4716 143.981 83.746 140.63 83.7461L140.63 84.6792Z" fill="#7DDACF"/>
            <path d="M92.238 56.6763L140.63 56.6763V57.6097L92.238 57.6097V56.6763Z" fill="#7DDACF"/>
            <path d="M91.1129 83.7454H140.63V84.6788H91.1129V83.7454Z" fill="#7DDACF"/>
            <path fill-rule="evenodd" clip-rule="evenodd" d="M130.898 109.274C125.431 114.736 125.431 123.622 130.898 129.084C136.364 134.546 145.258 134.546 150.725 129.084C156.192 123.622 156.192 114.736 150.725 109.274C145.258 103.812 136.364 103.812 130.898 109.274ZM141.345 106.121C144.516 106.25 147.649 107.52 150.064 109.934C152.514 112.381 153.788 115.565 153.885 118.779H152.149C151.944 112.882 147.23 108.129 141.345 107.857V106.121ZM140.411 106.117C137.195 106.214 134.009 107.487 131.56 109.934C129.11 112.382 127.836 115.566 127.739 118.779H129.474C129.68 112.837 134.464 108.057 140.411 107.851V106.117ZM127.744 119.712C127.872 122.88 129.144 126.01 131.56 128.422C134.009 130.87 137.195 132.142 140.411 132.24V130.506C134.508 130.302 129.752 125.592 129.479 119.712H127.744ZM141.345 132.235C144.516 132.107 147.649 130.836 150.064 128.422C152.48 126.009 153.752 122.88 153.88 119.712H152.144C151.873 125.548 147.186 130.231 141.345 130.501V132.235ZM138.732 115.307L138.546 115.293L138.544 115.291L138.6 115.112C139.144 113.344 140.022 112.245 140.879 112.245C141.735 112.245 142.607 113.339 143.153 115.1L143.209 115.278L143.024 115.294C142.301 115.357 141.553 115.389 140.8 115.389C140.103 115.389 139.408 115.362 138.732 115.307ZM138.347 122.398C138.17 121.575 138.067 120.681 138.039 119.744H138.04L138.035 119.589H143.724L143.72 119.742C143.693 120.682 143.588 121.579 143.41 122.411L143.382 122.541L143.251 122.529C141.71 122.386 140.057 122.38 138.507 122.515L138.375 122.528L138.347 122.398ZM143.445 113.92C143.602 114.284 143.741 114.673 143.858 115.08L143.894 115.203L144.021 115.187C144.727 115.095 145.41 114.971 146.049 114.819L146.293 114.761L146.128 114.574C145.272 113.602 144.174 112.888 142.95 112.506L142.52 112.372L142.785 112.738C143.026 113.071 143.248 113.468 143.445 113.921V113.92ZM144.095 116.031L144.062 115.873L144.063 115.872L144.222 115.851C145.069 115.737 145.878 115.578 146.624 115.381L146.729 115.353L146.788 115.445C147.417 116.434 147.793 117.573 147.874 118.741L147.885 118.902H144.405L144.401 118.756C144.376 117.806 144.272 116.889 144.095 116.031ZM137.734 115.206L137.861 115.222L137.896 115.099C138.02 114.673 138.161 114.275 138.317 113.92C138.512 113.467 138.734 113.068 138.977 112.736L139.244 112.37L138.813 112.504C137.574 112.889 136.465 113.614 135.607 114.602L135.442 114.791L135.686 114.847C136.333 114.996 137.024 115.116 137.735 115.204L137.734 115.206ZM143.409 116.08C143.588 116.912 143.692 117.81 143.719 118.748H143.717L143.721 118.902H138.032L138.037 118.747C138.065 117.81 138.169 116.917 138.346 116.093L138.374 115.963L138.506 115.975C140.054 116.112 141.71 116.106 143.249 115.962L143.381 115.95L143.409 116.08ZM144.021 123.305L143.894 123.289L143.858 123.412C143.74 123.818 143.602 124.208 143.445 124.571C143.248 125.025 143.026 125.422 142.785 125.756L142.52 126.121L142.95 125.987C144.174 125.606 145.272 124.891 146.128 123.919L146.293 123.732L146.049 123.674C145.41 123.522 144.727 123.397 144.021 123.306V123.305ZM143.024 123.198L143.209 123.214H143.211L143.155 123.392C142.608 125.153 141.741 126.247 140.88 126.247C140.019 126.247 139.147 125.148 138.601 123.379L138.546 123.199L138.732 123.185C140.136 123.072 141.633 123.076 143.024 123.198ZM144.401 119.734C144.376 120.685 144.272 121.603 144.095 122.461L144.062 122.619L144.22 122.64C145.068 122.755 145.875 122.913 146.623 123.11L146.728 123.138L146.786 123.045C147.415 122.056 147.792 120.918 147.873 119.749L147.884 119.589H144.404L144.4 119.734H144.401ZM137.895 123.393C138.019 123.819 138.16 124.215 138.315 124.571H138.314C138.51 125.023 138.732 125.422 138.974 125.754L139.241 126.121L138.81 125.987C137.572 125.602 136.464 124.876 135.604 123.889L135.439 123.7L135.683 123.644C136.331 123.494 137.021 123.375 137.733 123.286L137.859 123.27L137.895 123.393ZM137.358 118.757C137.383 117.821 137.485 116.909 137.661 116.051L137.693 115.892L137.533 115.872C136.682 115.762 135.868 115.61 135.114 115.417L135.008 115.39L134.95 115.483C134.334 116.461 133.966 117.588 133.883 118.743L133.871 118.903H137.351L137.355 118.757H137.358ZM137.662 122.441L137.694 122.6H137.697L137.537 122.62C136.685 122.73 135.87 122.882 135.118 123.075L135.012 123.102L134.954 123.009C134.338 122.032 133.968 120.904 133.887 119.749L133.875 119.589H137.355L137.359 119.734C137.384 120.673 137.487 121.583 137.662 122.441Z" fill="#9DADF2"/>
            <path fill-rule="evenodd" clip-rule="evenodd" d="M82.7331 109.274C77.2664 114.736 77.2664 123.622 82.7331 129.084C88.1999 134.546 97.094 134.546 102.561 129.084C108.028 123.622 108.028 114.736 102.561 109.274C97.094 103.812 88.1999 103.812 82.7331 109.274ZM96.384 106.651C98.4045 107.249 100.308 108.343 101.9 109.934C103.492 111.525 104.588 113.426 105.186 115.445H103.362C102.225 112.189 99.6432 109.609 96.384 108.474V106.651ZM95.4497 106.412C93.6047 106.01 91.6891 106.01 89.8442 106.412V108.193C90.7406 107.965 91.6796 107.844 92.647 107.844C93.6143 107.844 94.5533 107.965 95.4497 108.193V106.412ZM88.9099 106.651C86.8897 107.249 84.9867 108.344 83.3952 109.934C81.8031 111.525 80.7078 113.426 80.1093 115.445H81.9323C83.0689 112.189 85.6507 109.609 88.9099 108.474V106.651ZM79.8696 116.379C79.4679 118.222 79.4679 120.136 79.8696 121.979H81.6512C81.4234 121.084 81.3024 120.145 81.3024 119.179C81.3024 118.212 81.4234 117.274 81.6512 116.379H79.8696ZM80.1094 122.913C80.708 124.931 81.8033 126.832 83.3952 128.422C84.9869 130.013 86.8899 131.107 88.9099 131.705V129.884C85.6507 128.748 83.0689 126.169 81.9323 122.913H80.1094ZM89.8442 131.945C91.6892 132.346 93.6048 132.346 95.4497 131.945V130.165C94.5533 130.392 93.6143 130.513 92.647 130.513C91.6796 130.513 90.7406 130.392 89.8442 130.165V131.945ZM96.384 131.706C98.4047 131.108 100.308 130.013 101.9 128.422C103.492 126.832 104.587 124.931 105.186 122.913H103.362C102.225 126.169 99.6432 128.748 96.384 129.884V131.706ZM105.425 121.979C105.827 120.136 105.827 118.222 105.426 116.379H103.643C103.87 117.274 103.992 118.212 103.992 119.179C103.992 120.145 103.87 121.084 103.643 121.979H105.425ZM88.5186 122.015C88.6334 122.333 88.9358 122.546 89.2724 122.543V122.542L96.0532 122.497C96.3899 122.494 96.6909 122.279 96.8005 121.959L98.0019 118.489C98.0785 118.531 98.1604 118.564 98.2449 118.591C98.3756 118.631 98.5102 118.649 98.6475 118.649L98.732 118.647C99.441 118.598 99.9929 117.998 99.9876 117.284C99.9836 116.535 99.3737 115.93 98.629 115.935C97.9465 115.939 97.3735 116.457 97.2969 117.139C97.2916 117.192 97.289 117.247 97.289 117.301C97.289 117.422 97.3062 117.541 97.3379 117.655C97.3643 117.75 97.3999 117.84 97.4448 117.926L95.0512 119.13L93.1566 116.446C93.2345 116.413 93.3098 116.372 93.3797 116.323C93.5131 116.231 93.6293 116.116 93.7243 115.98C93.9039 115.722 93.9871 115.418 93.9646 115.101C93.9158 114.43 93.3771 113.893 92.7104 113.848C92.6774 113.845 92.6431 113.845 92.6101 113.845H92.61C91.8654 113.85 91.2634 114.464 91.2687 115.212C91.27 115.491 91.3571 115.76 91.5182 115.988C91.6132 116.122 91.7307 116.237 91.8654 116.328C91.9367 116.377 92.012 116.418 92.0899 116.452L90.2283 119.163L87.7951 117.979C87.8426 117.902 87.8835 117.821 87.9165 117.736C87.9773 117.581 88.0063 117.415 88.0063 117.243C88.0024 116.494 87.3924 115.889 86.6478 115.894C85.9032 115.899 85.3011 116.513 85.3064 117.261C85.3104 117.938 85.816 118.513 86.4828 118.598C86.5422 118.606 86.6029 118.608 86.665 118.608C86.7719 118.608 86.8775 118.595 86.9818 118.568C87.0703 118.546 87.1574 118.515 87.2393 118.475L88.5186 122.015ZM95.3944 118.318C95.2149 118.318 95.0446 118.231 94.9416 118.084L94.5547 117.536C94.465 117.41 94.4333 117.251 94.465 117.099C94.4967 116.948 94.5917 116.815 94.7251 116.737L95.4604 116.303C95.5436 116.254 95.6387 116.227 95.7351 116.226C95.9595 116.225 96.1615 116.359 96.2486 116.567L96.5259 117.235C96.6368 117.503 96.5219 117.815 96.2645 117.945L95.6387 118.259C95.5634 118.296 95.4789 118.318 95.3957 118.318H95.3944ZM89.6303 118.299C89.7068 118.336 89.7913 118.355 89.8745 118.355L89.8732 118.353C90.0527 118.353 90.2217 118.263 90.3234 118.114L90.7142 117.545C90.8013 117.418 90.8317 117.258 90.7974 117.107C90.763 116.956 90.6666 116.825 90.5333 116.749L89.8204 116.34C89.7359 116.291 89.6408 116.267 89.5444 116.267C89.32 116.268 89.1206 116.405 89.0361 116.615L88.7615 117.302C88.6533 117.572 88.7721 117.881 89.0322 118.008L89.6303 118.299ZM88.83 123.058L96.4979 123.007C96.8209 123.005 97.0845 123.267 97.0866 123.591L97.0884 123.866C97.0906 124.191 96.8304 124.456 96.5074 124.458L88.8396 124.509C88.5166 124.511 88.253 124.25 88.2509 123.925L88.249 123.65C88.2469 123.325 88.507 123.061 88.83 123.058Z" fill="#478BF9"/>
            <path fill-rule="evenodd" clip-rule="evenodd" d="M34.4518 109.274C28.985 114.736 28.985 123.622 34.4518 129.084C39.9185 134.546 48.8126 134.546 54.2794 129.084C59.7462 123.622 59.7462 114.736 54.2794 109.274C48.8126 103.812 39.9185 103.812 34.4518 109.274ZM53.3366 109.66C48.3096 104.927 40.4207 104.927 35.3952 109.661L36.6265 110.891C38.6534 109.001 41.3743 107.844 44.3656 107.844C47.3569 107.844 50.0778 109.001 52.1047 110.891L53.3366 109.66ZM34.7383 110.325C30.1029 115.352 30.1368 123.156 34.84 128.141L36.0706 126.911C34.1787 124.886 33.021 122.168 33.021 119.179C33.021 116.243 34.1379 113.569 35.9702 111.556L34.7383 110.325ZM35.5043 128.797C40.499 133.395 48.2338 133.396 53.2275 128.798L51.9957 127.567C49.9808 129.398 47.3036 130.513 44.3656 130.513C41.4276 130.513 38.7504 129.398 36.7355 127.567L35.5043 128.797ZM53.8919 128.141C58.5959 123.155 58.6298 115.35 53.9936 110.324L52.761 111.556C54.5933 113.569 55.7102 116.243 55.7102 119.179C55.7102 122.168 54.5524 124.886 52.6606 126.911L53.8919 128.141ZM48.9614 114.004C47.818 112.988 46.3386 112.339 44.7113 112.245V114.313C45.7694 114.401 46.7335 114.819 47.4983 115.467L48.9614 114.005V114.004ZM40.5151 116.049L39.0521 114.588C38.0353 115.73 37.3859 117.208 37.2919 118.834H39.3617C39.4495 117.777 39.8682 116.813 40.5164 116.049H40.5151ZM51.3058 118.834H49.2372C49.1494 117.777 48.7294 116.813 48.0825 116.049L49.5456 114.588C50.5623 115.731 51.2117 117.208 51.3058 118.834ZM39.3605 119.658H37.2919C37.3859 121.284 38.0353 122.761 39.0521 123.904L40.5151 122.443C39.8682 121.679 39.4482 120.715 39.3605 119.658ZM43.8864 112.245V114.312C42.8282 114.4 41.8641 114.819 41.0994 115.466L39.6363 114.004C40.7809 112.988 42.259 112.339 43.8864 112.245ZM49.5443 123.904C50.5611 122.762 51.2105 121.284 51.3045 119.658H49.2346C49.1469 120.715 48.7282 121.679 48.08 122.441L49.5443 123.904ZM44.7113 126.247V124.18C45.7694 124.092 46.7335 123.673 47.4983 123.026L48.9614 124.488C47.8167 125.504 46.3386 126.153 44.7113 126.247ZM39.6363 124.488C40.7797 125.504 42.259 126.153 43.8864 126.247V124.179C42.8282 124.091 41.8641 123.673 41.0994 123.025L39.6363 124.487V124.488ZM44.2988 114.988C46.652 114.988 48.5601 116.895 48.5601 119.246C48.5601 121.597 46.652 123.504 44.2988 123.504C41.9456 123.504 40.0374 121.597 40.0374 119.246C40.0374 116.895 41.9456 114.988 44.2988 114.988ZM45.8722 119.523L46.2571 119.907L46.2546 119.912C46.5204 120.178 46.9504 120.178 47.2162 119.912L47.5221 119.607C47.7878 119.341 47.7878 118.91 47.5221 118.646L46.9566 118.081C46.6909 117.816 46.2608 117.816 45.995 118.081L45.6891 118.387L45.3369 118.035C45.0711 117.769 44.641 117.769 44.3753 118.035L44.0694 118.34L43.7183 117.986C43.4525 117.72 43.0225 117.72 42.7567 117.986L40.8824 119.858C40.8687 119.872 40.8687 119.896 40.8824 119.91C41.1344 120.16 41.5419 120.16 41.7926 119.91L43 118.704C43.1303 118.573 43.3422 118.573 43.4726 118.704L43.5604 118.791C43.5767 118.808 43.5767 118.833 43.5604 118.849L42.5511 119.857C42.5373 119.871 42.5373 119.895 42.5511 119.909C42.8031 120.159 43.2106 120.159 43.4613 119.909L44.621 118.75C44.7514 118.62 44.9633 118.62 45.0936 118.75L45.1826 118.839C45.1964 118.853 45.1964 118.876 45.1826 118.89L44.211 119.861C44.1972 119.875 44.1972 119.899 44.211 119.912C44.463 120.163 44.8705 120.163 45.1212 119.912L46.2408 118.794C46.3712 118.664 46.583 118.664 46.7134 118.794L46.904 118.984C46.9805 119.061 46.9805 119.183 46.904 119.26L46.8751 119.29C46.7987 119.366 46.6758 119.366 46.5993 119.29L46.3524 119.043C46.3386 119.029 46.3147 119.029 46.301 119.043L45.8722 119.471C45.8584 119.485 45.8584 119.509 45.8722 119.523Z" fill="white"/>
            <path fill-rule="evenodd" clip-rule="evenodd" d="M-13.7709 109.274C-19.2377 114.736 -19.2377 123.622 -13.7709 129.084C-8.30414 134.546 0.589989 134.546 6.05675 129.084C11.5235 123.622 11.5235 114.736 6.05675 109.274C0.589989 103.812 -8.30414 103.812 -13.7709 109.274ZM-3.32321 106.121C-0.152521 106.25 2.98023 107.52 5.39599 109.934C7.8459 112.381 9.11951 115.565 9.21682 118.779H7.48058C7.27583 112.882 2.56186 108.129 -3.32321 107.857V106.121ZM-4.25747 106.117C-7.47345 106.214 -10.6599 107.487 -13.1088 109.934C-15.5585 112.382 -16.8321 115.566 -16.9296 118.779H-15.1947C-14.9884 112.837 -10.2046 108.057 -4.25747 107.851V106.117ZM-16.9249 119.712C-16.7965 122.88 -15.5245 126.01 -13.1088 128.422C-10.6595 130.87 -7.47314 132.142 -4.25747 132.24V130.506C-10.16 130.302 -14.9167 125.592 -15.1893 119.712H-16.9249ZM-3.32321 132.235C-0.152216 132.107 2.98061 130.836 5.39599 128.422C7.81142 126.009 9.08343 122.88 9.21202 119.712H7.47517C7.2046 125.548 2.51744 130.231 -3.32321 130.501V132.235ZM-7.99515 121.574V120.753H-6.34017V121.574C-6.34017 122.026 -5.9686 122.394 -5.51269 122.394H-4.6852V119.753L-5.96004 119.437C-7.15788 119.14 -7.99515 118.077 -7.99515 116.854C-7.99515 115.385 -6.78997 114.19 -5.30856 114.19H-4.6852V112.112H-3.03022V114.19H-2.20273C-0.833776 114.19 0.279726 115.294 0.279726 116.651V117.472H-1.37525V116.651C-1.37525 116.199 -1.74682 115.831 -2.20273 115.831H-3.03022V118.471L-1.75537 118.788C-0.557535 119.085 0.279726 120.147 0.279726 121.371C0.279726 122.84 -0.925446 124.035 -2.40685 124.035H-3.03022V126.113H-4.6852V124.035H-5.51269C-6.88165 124.035 -7.99515 122.931 -7.99515 121.574ZM-2.15629 120.38L-3.03022 120.163V122.394H-2.40685C-1.83727 122.394 -1.37525 121.935 -1.37525 121.371C-1.37525 120.901 -1.69549 120.494 -2.15629 120.38ZM-6.34017 116.854C-6.34017 117.324 -6.01994 117.731 -5.55913 117.845L-4.6852 118.062V115.831H-5.30856C-5.87814 115.831 -6.34017 116.29 -6.34017 116.854Z" fill="#478BF9"/>
            <path fill-rule="evenodd" clip-rule="evenodd" d="M227.274 61.074C221.808 66.5358 221.808 75.422 227.274 80.8839C232.741 86.3458 241.635 86.3458 247.102 80.8839C252.569 75.422 252.569 66.5358 247.102 61.074C241.635 55.6121 232.741 55.6121 227.274 61.074ZM227.936 61.7341C233.037 56.6362 241.339 56.6362 246.441 61.7341C251.544 66.8307 251.544 75.1245 246.441 80.2225C241.34 85.3204 233.039 85.3204 227.936 80.2225C222.834 75.1258 222.834 66.8321 227.936 61.7341ZM248.533 70.9789C248.533 77.2388 243.454 82.3134 237.188 82.3134C230.923 82.3134 225.844 77.2388 225.844 70.9789C225.844 64.7191 230.923 59.6445 237.188 59.6445C243.454 59.6445 248.533 64.7191 248.533 70.9789ZM242.423 67.8221L241.713 68.5307V68.5325C242.555 69.5429 243.061 70.8374 243.061 72.2495C243.061 75.4455 240.455 78.0469 237.255 78.0469C234.054 78.0469 231.449 75.4455 231.449 72.2495C231.449 70.8357 231.955 69.5429 232.798 68.5307L232.088 67.8221C231.885 67.6186 231.885 67.2888 232.088 67.0853C232.292 66.8819 232.622 66.8819 232.826 67.0853L233.536 67.794C234.418 67.059 235.523 66.5749 236.733 66.4714V65.9925H236.253C235.83 65.9925 235.481 65.6435 235.481 65.2207V64.8173C235.481 64.3893 235.83 64.0454 236.253 64.0454H238.258C238.681 64.0454 239.031 64.3893 239.031 64.8173V65.2207C239.031 65.6435 238.681 65.9925 238.258 65.9925H237.778V66.4714C238.987 66.5766 240.094 67.0608 240.975 67.794L241.685 67.0853C241.889 66.8819 242.219 66.8819 242.423 67.0853C242.627 67.2888 242.627 67.6186 242.423 67.8221ZM232.974 72.2495C232.974 74.6035 234.892 76.519 237.255 76.519C239.617 76.519 241.536 74.6088 241.536 72.2495C241.536 69.8902 239.617 67.9747 237.255 67.9747C234.892 67.9747 232.974 69.8954 232.974 72.2495ZM233.729 72.2389C233.729 70.2936 235.308 68.7184 237.255 68.7184C239.203 68.7184 240.78 70.2936 240.78 72.2389C240.78 74.1843 239.203 75.7595 237.255 75.7595C235.307 75.7595 233.729 74.1843 233.729 72.2389ZM236.823 72.6687V74.8245L238.982 71.8074H237.687V69.6516L235.528 72.6687H236.823Z" fill="#9DADF2"/>
            <path fill-rule="evenodd" clip-rule="evenodd" d="M179.051 60.7727C173.584 66.2346 173.584 75.1208 179.051 80.5827C184.518 86.0446 193.412 86.0446 198.879 80.5827C204.346 75.1208 204.346 66.2346 198.879 60.7727C193.412 55.3108 184.518 55.3108 179.051 60.7727ZM196.023 59.6662C196.801 60.1645 197.538 60.7534 198.218 61.4328C198.898 62.1122 199.488 62.8484 199.987 63.6262L198.721 64.8903C197.752 63.2628 196.387 61.8984 194.758 60.9301L196.023 59.6662ZM195.191 59.1767C191.32 57.0869 186.61 57.087 182.739 59.1769L184.031 60.4683C185.523 59.7474 187.197 59.3432 188.965 59.3432C190.733 59.3432 192.407 59.7474 193.899 60.4683L195.191 59.1767ZM181.908 59.6665C181.13 60.1648 180.393 60.7536 179.713 61.4328C179.033 62.1125 178.443 62.849 177.945 63.6272L179.209 64.8903C180.178 63.2628 181.544 61.8984 183.172 60.9301L181.908 59.6665ZM177.455 64.4578C175.364 68.3251 175.364 73.0307 177.455 76.8973L178.747 75.6069C178.025 74.1165 177.62 72.4443 177.62 70.6777C177.62 68.9111 178.025 67.2389 178.747 65.7485L177.455 64.4578ZM177.945 77.7279C178.444 78.5057 179.033 79.2418 179.713 79.9212C180.393 80.6006 181.13 81.1895 181.909 81.6879L183.173 80.4253C181.544 79.4569 180.178 78.0926 179.209 76.4651L177.945 77.7279ZM182.74 82.1774C186.611 84.2668 191.32 84.2671 195.191 82.1781L193.899 80.8871C192.407 81.608 190.733 82.0121 188.965 82.0121C187.197 82.0121 185.523 81.608 184.032 80.8871L182.74 82.1774ZM196.022 81.6886C196.801 81.1901 197.538 80.601 198.218 79.9212C198.898 79.242 199.487 78.506 199.986 77.7285L198.721 76.4651C197.752 78.0926 196.387 79.4569 194.758 80.4253L196.022 81.6886ZM200.476 76.898C202.568 73.0304 202.568 68.324 200.477 64.4567L199.184 65.7485C199.905 67.2389 200.31 68.9111 200.31 70.6777C200.31 72.4443 199.905 74.1165 199.184 75.6069L200.476 76.898ZM191.48 66.3316C191.021 65.5578 190.682 64.7216 190.472 63.8454C190.462 63.8069 190.43 63.7763 190.392 63.7683C189.414 63.5583 188.381 63.5583 187.405 63.7683C187.365 63.7763 187.333 63.8069 187.324 63.8454C187.113 64.7216 186.774 65.5578 186.316 66.3316C186.294 66.3675 186.297 66.4114 186.321 66.446L187.14 67.5694C187.164 67.6026 187.205 67.6199 187.244 67.6106C188.325 67.3939 189.466 67.3939 190.548 67.6106C190.588 67.6186 190.628 67.6026 190.652 67.5694L191.47 66.446C191.494 66.4127 191.497 66.3675 191.476 66.3316H191.48ZM183.492 66.1429C184.248 65.2361 185.22 64.5302 186.306 64.1007H186.308C186.322 64.0954 186.336 64.0928 186.348 64.0928C186.385 64.0928 186.41 64.114 186.42 64.122C186.434 64.1353 186.465 64.1739 186.448 64.2297C186.246 64.8665 185.969 65.4781 185.622 66.0471C185.609 66.0697 185.585 66.087 185.558 66.0937C184.91 66.2466 184.244 66.3224 183.573 66.3144C183.512 66.3144 183.485 66.2678 183.478 66.2532C183.469 66.2346 183.454 66.1881 183.492 66.1429ZM191.244 68.1211C191.769 69.0983 192.112 70.1513 192.264 71.2495C192.269 71.288 192.297 71.3213 192.336 71.3332L193.668 71.7653C193.708 71.7786 193.75 71.7653 193.778 71.7361C194.374 71.0633 195.066 70.4837 195.837 70.013C195.87 69.9917 195.89 69.9532 195.886 69.9133C195.786 68.9029 195.477 67.9496 194.965 67.0788C194.945 67.0442 194.906 67.0229 194.866 67.0269C193.966 67.0987 193.062 67.0349 192.184 66.8395C192.176 66.8381 192.169 66.8368 192.161 66.8368C192.128 66.8368 192.097 66.8528 192.077 66.8807L191.253 68.0108C191.229 68.0427 191.226 68.0865 191.245 68.1211H191.244ZM185.614 66.8409C184.734 67.0364 183.832 67.0989 182.932 67.0284H182.924C182.888 67.0284 182.852 67.0483 182.833 67.0816C182.321 67.9524 182.012 68.9057 181.912 69.9161C181.908 69.956 181.926 69.9959 181.961 70.0158C182.732 70.4864 183.424 71.0648 184.02 71.7388C184.048 71.7694 184.09 71.7814 184.13 71.7681L185.462 71.336C185.501 71.324 185.529 71.2908 185.534 71.2522C185.686 70.1541 186.029 69.1011 186.554 68.1239C186.573 68.0893 186.57 68.0455 186.546 68.0136L185.722 66.8835C185.698 66.8502 185.656 66.8343 185.616 66.8423L185.614 66.8409ZM191.514 71.5129C191.533 71.4916 191.542 71.4624 191.538 71.4331C191.402 70.3669 191.07 69.3485 190.553 68.4058C190.538 68.3793 190.514 68.3606 190.485 68.3553C189.966 68.245 189.433 68.1905 188.9 68.1905C188.366 68.1905 187.833 68.245 187.314 68.3553C187.285 68.362 187.26 68.3806 187.246 68.4058C186.729 69.3485 186.397 70.3669 186.261 71.4331C186.257 71.4624 186.266 71.4916 186.285 71.5129C186.986 72.3173 187.877 72.9607 188.861 73.3756C188.886 73.3862 188.916 73.3862 188.941 73.3756C189.925 72.9607 190.816 72.3173 191.517 71.5129H191.514ZM190.717 77.3149C190.713 77.3348 190.698 77.3814 190.641 77.396H190.64C189.5 77.6845 188.296 77.6845 187.156 77.396C187.098 77.3814 187.084 77.3348 187.08 77.3149C187.076 77.2949 187.072 77.2457 187.12 77.2099C187.658 76.811 188.244 76.48 188.858 76.2234C188.884 76.2127 188.913 76.2127 188.938 76.2234C189.554 76.48 190.138 76.8123 190.677 77.2099C190.725 77.2457 190.721 77.2949 190.717 77.3149ZM184.36 72.4711C184.32 72.4844 184.292 72.519 184.288 72.5602C184.202 73.4537 183.984 74.3285 183.638 75.1607C183.624 75.1966 183.63 75.2405 183.658 75.2711C184.338 76.0302 185.15 76.6206 186.073 77.0247C186.11 77.0407 186.153 77.0353 186.184 77.0088C186.87 76.4224 187.638 75.9438 188.466 75.5862C188.505 75.5702 188.529 75.5317 188.529 75.4905V74.1091C188.529 74.0679 188.505 74.0307 188.468 74.0134C187.454 73.568 186.528 72.8979 185.79 72.0736C185.77 72.051 185.742 72.0391 185.713 72.0391C185.702 72.0391 185.692 72.0404 185.68 72.0444L184.361 72.4711H184.36ZM189.27 74.1091C189.27 74.0678 189.294 74.0293 189.332 74.0133L189.334 74.0147C190.348 73.5693 191.274 72.8992 192.012 72.0749C192.032 72.0523 192.06 72.0403 192.089 72.0403C192.1 72.0403 192.11 72.0417 192.121 72.0457L193.44 72.4724C193.48 72.4857 193.508 72.5203 193.512 72.5615C193.597 73.4549 193.816 74.3298 194.161 75.1607C194.176 75.1979 194.168 75.2405 194.141 75.2711C193.46 76.0302 192.648 76.6205 191.726 77.0247C191.689 77.0406 191.646 77.034 191.616 77.0087C190.928 76.4224 190.161 75.9438 189.333 75.5861C189.294 75.5702 189.27 75.5316 189.27 75.4904V74.1091ZM191.45 64.0928C191.462 64.0928 191.476 64.0954 191.49 64.1007H191.492C192.578 64.5302 193.552 65.2361 194.306 66.1429C194.344 66.1881 194.328 66.2346 194.32 66.2532C194.313 66.2678 194.286 66.3144 194.225 66.3144C193.554 66.3224 192.888 66.2466 192.24 66.0937C192.213 66.087 192.19 66.0711 192.176 66.0471C191.829 65.4794 191.552 64.8679 191.35 64.2297C191.332 64.1725 191.364 64.1353 191.378 64.122C191.386 64.114 191.413 64.0928 191.45 64.0928ZM183.066 74.4073C183.086 74.4046 183.134 74.3926 183.153 74.3368C183.366 73.7039 183.502 73.0472 183.557 72.3837C183.56 72.3571 183.55 72.3292 183.533 72.308C183.098 71.8041 182.602 71.3534 182.057 70.9652C182.009 70.9306 181.962 70.9492 181.945 70.9598C181.928 70.9691 181.888 70.9984 181.892 71.0569C181.965 72.2308 182.337 73.3729 182.966 74.3594C182.998 74.4099 183.048 74.4086 183.068 74.4073H183.066ZM195.74 70.9651C195.761 70.9505 195.782 70.9452 195.8 70.9452V70.9465C195.822 70.9465 195.842 70.9545 195.852 70.9598C195.869 70.9691 195.909 70.9984 195.905 71.0569C195.832 72.2308 195.46 73.3729 194.83 74.3594C194.798 74.4099 194.749 74.4086 194.729 74.4072C194.709 74.4046 194.661 74.3926 194.642 74.3368C194.43 73.7039 194.294 73.0458 194.24 72.3837C194.237 72.3558 194.246 72.3292 194.264 72.3079C194.698 71.8041 195.194 71.352 195.74 70.9651Z" fill="white"/>
            <path fill-rule="evenodd" clip-rule="evenodd" d="M323.72 12.5925C318.254 18.0544 318.254 26.9406 323.72 32.4025C329.187 37.8644 338.081 37.8644 343.548 32.4025C349.015 26.9406 349.015 18.0544 343.548 12.5925C338.081 7.13062 329.187 7.13062 323.72 12.5925ZM334.168 9.43999C337.339 9.56817 340.471 10.8391 342.887 13.2527C345.337 15.6998 346.611 18.8839 346.708 22.0975H344.972C344.767 16.2002 340.053 11.4477 334.168 11.1754V9.43999ZM333.234 9.43528C330.018 9.53282 326.831 10.8053 324.382 13.2527C321.933 15.7001 320.659 18.8842 320.562 22.0975H322.296C322.503 16.1557 327.287 11.3761 333.234 11.17V9.43528ZM320.566 23.0309C320.695 26.1986 321.967 29.3281 324.382 31.741C326.832 34.1881 330.018 35.4606 333.234 35.5584V33.825C327.331 33.6205 322.575 28.9107 322.302 23.0309H320.566ZM334.168 35.5537C337.339 35.4258 340.472 34.1549 342.887 31.741C345.303 29.3277 346.575 26.1983 346.703 23.0309H344.966C344.696 28.8663 340.009 33.5493 334.168 33.8196V35.5537ZM331.555 18.6259L331.368 18.6111L331.367 18.6098L331.423 18.4305C331.967 16.6626 332.845 15.5638 333.701 15.5638C334.558 15.5638 335.429 16.6572 335.976 18.4184L336.032 18.5964L335.847 18.6125C335.124 18.6754 334.376 18.7075 333.623 18.7075C332.926 18.7075 332.23 18.6807 331.555 18.6259ZM331.17 25.7162C330.993 24.8932 330.889 23.9992 330.861 23.0624H330.863L330.857 22.9071H336.547L336.543 23.061C336.516 24.0005 336.411 24.8972 336.233 25.7296L336.205 25.8594L336.073 25.8474C334.533 25.7042 332.879 25.6988 331.33 25.834L331.198 25.8461L331.17 25.7162ZM336.268 17.238C336.424 17.6021 336.564 17.9915 336.681 18.3984L336.717 18.5215L336.844 18.5054C337.55 18.4131 338.232 18.29 338.872 18.1374L339.116 18.0798L338.951 17.8925C338.095 16.9209 336.997 16.2062 335.773 15.8248L335.343 15.691L335.608 16.0563C335.849 16.3896 336.071 16.787 336.268 17.2394V17.238ZM336.918 19.3499L336.885 19.192L336.886 19.1906L337.044 19.1692C337.892 19.0555 338.7 18.8962 339.447 18.6995L339.552 18.6714L339.61 18.7637C340.24 19.7527 340.616 20.8916 340.697 22.06L340.708 22.2206H337.228L337.224 22.0747C337.199 21.1245 337.095 20.2078 336.918 19.3499ZM330.557 18.5242L330.683 18.5402L330.719 18.4171C330.843 17.9915 330.984 17.594 331.14 17.238C331.335 16.7857 331.557 16.3869 331.799 16.055L332.067 15.6883L331.636 15.8221C330.397 16.2075 329.288 16.9329 328.43 17.9206L328.265 18.1093L328.508 18.1655C329.156 18.314 329.847 18.4345 330.558 18.5228L330.557 18.5242ZM336.232 19.3981C336.411 20.2305 336.515 21.1285 336.542 22.0667H336.54L336.544 22.2206H330.855L330.86 22.0653C330.888 21.1285 330.992 20.2359 331.169 19.4115L331.197 19.2816L331.328 19.2937C332.877 19.4302 334.533 19.4248 336.072 19.2803L336.204 19.2683L336.232 19.3981ZM336.844 26.6236L336.717 26.6076L336.681 26.7307C336.563 27.1362 336.424 27.527 336.268 27.8897C336.071 28.3433 335.849 28.7408 335.608 29.0741L335.343 29.4394L335.773 29.3056C336.997 28.9242 338.095 28.2095 338.951 27.2379L339.116 27.0505L338.872 26.993C338.232 26.8404 337.55 26.716 336.844 26.625V26.6236ZM335.847 26.5166L336.032 26.5326H336.033L335.978 26.7106C335.431 28.4718 334.563 29.5652 333.703 29.5652C332.842 29.5652 331.97 28.4665 331.424 26.6972L331.368 26.5179L331.555 26.5032C332.959 26.3907 334.456 26.3948 335.847 26.5166ZM337.224 23.053C337.199 24.0032 337.095 24.9213 336.918 25.7791L336.885 25.9371L337.043 25.9585C337.89 26.0736 338.698 26.2315 339.445 26.4282L339.55 26.4563L339.609 26.364C340.238 25.375 340.615 24.2361 340.696 23.0677L340.706 22.9071H337.227L337.223 23.053H337.224ZM330.718 26.7119C330.842 27.1375 330.983 27.5337 331.138 27.8897H331.137C331.332 28.342 331.555 28.7408 331.797 29.0727L332.064 29.4394L331.633 29.3056C330.395 28.9202 329.287 28.1948 328.427 27.2071L328.262 27.0184L328.506 26.9622C329.154 26.8123 329.844 26.6932 330.556 26.6049L330.682 26.5888L330.718 26.7119ZM330.18 22.076C330.206 21.1392 330.308 20.2278 330.484 19.37L330.516 19.2107L330.356 19.1906C329.505 19.0809 328.691 18.9283 327.936 18.7356L327.831 18.7088L327.773 18.8012C327.157 19.7795 326.788 20.9063 326.706 22.0613L326.694 22.2219H330.174L330.178 22.076H330.18ZM330.485 25.7591L330.517 25.9183H330.52L330.36 25.9384C329.507 26.0481 328.693 26.2007 327.94 26.3934L327.835 26.4202L327.777 26.3278C327.161 25.3509 326.791 24.2227 326.71 23.0677L326.698 22.9071H330.178L330.182 23.053C330.207 23.9912 330.309 24.9012 330.485 25.7591Z" fill="#9DADF2"/>
            <path fill-rule="evenodd" clip-rule="evenodd" d="M275.497 12.5925C270.031 18.0544 270.031 26.9406 275.497 32.4025C280.964 37.8644 289.858 37.8644 295.325 32.4025C300.792 26.9406 300.792 18.0544 295.325 12.5925C289.858 7.13062 280.964 7.13062 275.497 12.5925ZM289.148 9.96966C291.169 10.5677 293.072 11.662 294.664 13.2527C296.256 14.8431 297.352 16.7449 297.95 18.7638H296.126C294.989 15.5075 292.407 12.928 289.148 11.7924V9.96966ZM288.214 9.73017C286.369 9.32886 284.453 9.32889 282.608 9.73025V11.5116C283.505 11.284 284.444 11.163 285.411 11.163C286.378 11.163 287.317 11.284 288.214 11.5116V9.73017ZM281.674 9.9698C279.654 10.5679 277.751 11.6621 276.159 13.2527C274.567 14.8433 273.472 16.7451 272.873 18.7638H274.696C275.833 15.5075 278.415 12.928 281.674 11.7924V9.9698ZM272.634 19.6972C272.232 21.5406 272.232 23.4545 272.634 25.2978H274.415C274.188 24.4021 274.067 23.4639 274.067 22.4975C274.067 21.5311 274.188 20.5929 274.415 19.6972H272.634ZM272.874 26.2312C273.472 28.2496 274.567 30.1509 276.159 31.741C277.751 33.3313 279.654 34.4255 281.674 35.0236V33.2026C278.415 32.067 275.833 29.4875 274.696 26.2312H272.874ZM282.608 35.2632C284.453 35.6647 286.369 35.6649 288.214 35.2637V33.4834C287.317 33.711 286.378 33.832 285.411 33.832C284.444 33.832 283.505 33.711 282.608 33.4834V35.2632ZM289.148 35.0243C291.169 34.4263 293.072 33.3319 294.664 31.741C296.256 30.1507 297.351 28.2494 297.95 26.2312H296.126C294.989 29.4875 292.407 32.067 289.148 33.2026V35.0243ZM298.19 25.2978C298.591 23.4544 298.592 21.5405 298.19 19.6972H296.407C296.635 20.5929 296.756 21.5311 296.756 22.4975C296.756 23.4639 296.635 24.4021 296.407 25.2978H298.19ZM281.283 25.3337C281.398 25.6522 281.7 25.8645 282.037 25.8619V25.8605L288.817 25.8154C289.154 25.8128 289.455 25.5978 289.565 25.2779L290.766 21.8075C290.843 21.8499 290.925 21.8831 291.009 21.9097C291.14 21.9495 291.274 21.9681 291.412 21.9681L291.496 21.9654C292.205 21.9163 292.757 21.3164 292.752 20.6024C292.748 19.8539 292.138 19.2487 291.393 19.2541C290.711 19.258 290.138 19.7756 290.061 20.4578C290.056 20.5109 290.053 20.5653 290.053 20.6197C290.053 20.7404 290.07 20.8599 290.102 20.974C290.128 21.0683 290.164 21.1585 290.209 21.2448L287.815 22.4485L285.921 19.765C285.999 19.7318 286.074 19.6907 286.144 19.6416C286.277 19.55 286.393 19.4345 286.488 19.2992C286.668 19.0404 286.751 18.7365 286.729 18.4193C286.68 17.7491 286.141 17.2116 285.475 17.1665C285.442 17.1638 285.407 17.1638 285.374 17.1638H285.374C284.63 17.1691 284.028 17.7823 284.033 18.5308C284.034 18.8095 284.121 19.0789 284.282 19.3071C284.377 19.4412 284.495 19.5553 284.63 19.6469C284.701 19.696 284.776 19.7371 284.854 19.7703L282.992 22.4817L280.559 21.2978C280.607 21.2209 280.648 21.1399 280.681 21.055C280.741 20.8997 280.77 20.7338 280.77 20.5613C280.767 19.8128 280.157 19.2076 279.412 19.2129C278.667 19.2182 278.065 19.8314 278.071 20.5799C278.075 21.2567 278.58 21.8314 279.247 21.9163C279.306 21.9243 279.367 21.9269 279.429 21.9269C279.536 21.9269 279.642 21.9136 279.746 21.8871C279.834 21.8645 279.922 21.834 280.003 21.7942L281.283 25.3337ZM288.159 21.6363C287.979 21.6363 287.809 21.55 287.706 21.4027L287.319 20.8546C287.229 20.7285 287.197 20.5693 287.229 20.418C287.261 20.2667 287.356 20.1339 287.489 20.0556L288.225 19.6217C288.308 19.5726 288.403 19.546 288.499 19.5447C288.724 19.5434 288.926 19.6774 289.013 19.8858L289.29 20.5533C289.401 20.8214 289.286 21.1333 289.029 21.2633L288.403 21.5779C288.328 21.615 288.243 21.6363 288.16 21.6363H288.159ZM282.394 21.6177C282.471 21.6548 282.555 21.6734 282.639 21.6734L282.637 21.6721C282.817 21.6721 282.986 21.5819 283.088 21.4332L283.478 20.8639C283.565 20.7365 283.596 20.5772 283.562 20.4259C283.527 20.2746 283.431 20.1432 283.297 20.0676L282.585 19.6588C282.5 19.6097 282.405 19.5858 282.309 19.5858C282.084 19.5872 281.885 19.7239 281.8 19.9336L281.526 20.621C281.417 20.8904 281.536 21.1996 281.796 21.327L282.394 21.6177ZM281.594 26.3771L289.262 26.326C289.585 26.3238 289.849 26.5853 289.851 26.91L289.853 27.1847C289.855 27.5094 289.595 27.7744 289.272 27.7765L281.604 27.8277C281.281 27.8298 281.017 27.5683 281.015 27.2436L281.013 26.9689C281.011 26.6442 281.271 26.3793 281.594 26.3771Z" fill="#478BF9"/>
            <path fill-rule="evenodd" clip-rule="evenodd" d="M227.274 12.5925C221.808 18.0544 221.808 26.9406 227.274 32.4025C232.741 37.8644 241.635 37.8644 247.102 32.4025C252.569 26.9406 252.569 18.0544 247.102 12.5925C241.635 7.13062 232.741 7.13062 227.274 12.5925ZM246.159 12.9791C241.132 8.24572 233.243 8.24592 228.218 12.9797L229.449 14.2099C231.476 12.3197 234.197 11.163 237.188 11.163C240.179 11.163 242.9 12.3197 244.927 14.2099L246.159 12.9791ZM227.561 13.6435C222.925 18.6702 222.959 26.4743 227.662 31.4592L228.893 30.2297C227.001 28.2046 225.844 25.4861 225.844 22.4975C225.844 19.5621 226.96 16.8873 228.793 14.8742L227.561 13.6435ZM228.327 32.1155C233.322 36.7139 241.056 36.7141 246.05 32.1162L244.818 30.8854C242.803 32.7161 240.126 33.832 237.188 33.832C234.25 33.832 231.573 32.7161 229.558 30.8854L228.327 32.1155ZM246.714 31.4599C251.418 26.4735 251.452 18.6685 246.816 13.6428L245.584 14.8742C247.416 16.8873 248.533 19.5621 248.533 22.4975C248.533 25.4862 247.375 28.2046 245.483 30.2297L246.714 31.4599ZM241.784 17.3224C240.64 16.3066 239.161 15.6578 237.534 15.5638V17.6318C238.592 17.7195 239.556 18.1379 240.321 18.7855L241.784 17.3237V17.3224ZM233.338 19.3679L231.875 17.9062C230.858 19.0485 230.208 20.5266 230.114 22.1524H232.184C232.272 21.0952 232.691 20.132 233.339 19.3679H233.338ZM244.128 22.1524H242.06C241.972 21.0952 241.552 20.132 240.905 19.3679L242.368 17.9062C243.385 19.0498 244.034 20.5266 244.128 22.1524ZM232.183 22.9766H230.114C230.208 24.6025 230.858 26.0793 231.875 27.2229L233.338 25.7611C232.691 24.997 232.271 24.0338 232.183 22.9766ZM236.709 15.5638V17.6306C235.651 17.7183 234.687 18.1379 233.922 18.7842L232.459 17.3224C233.603 16.3066 235.081 15.6578 236.709 15.5638ZM242.367 27.2229C243.384 26.0805 244.033 24.6025 244.127 22.9766H242.057C241.969 24.0338 241.551 24.997 240.902 25.7599L242.367 27.2229ZM237.534 29.5652V27.4985C238.592 27.4108 239.556 26.9912 240.321 26.3448L241.784 27.8066C240.639 28.8224 239.161 29.4713 237.534 29.5652ZM232.459 27.8066C233.602 28.8224 235.081 29.4713 236.709 29.5652V27.4972C235.651 27.4095 234.687 26.9911 233.922 26.3436L232.459 27.8053V27.8066ZM237.121 18.307C239.474 18.307 241.383 20.2134 241.383 22.5645C241.383 24.9156 239.474 26.8221 237.121 26.8221C234.768 26.8221 232.86 24.9156 232.86 22.5645C232.86 20.2134 234.768 18.307 237.121 18.307ZM238.695 22.8413L239.08 23.2259L239.077 23.2309C239.343 23.4964 239.773 23.4964 240.039 23.2309L240.345 22.9253C240.61 22.6597 240.61 22.2288 240.345 21.9645L239.779 21.3996C239.513 21.1341 239.083 21.1341 238.818 21.3996L238.512 21.7052L238.159 21.3533C237.894 21.0877 237.463 21.0877 237.198 21.3533L236.892 21.6589L236.541 21.3044C236.275 21.0389 235.845 21.0389 235.579 21.3044L233.705 23.177C233.691 23.1908 233.691 23.2146 233.705 23.2284C233.957 23.4789 234.364 23.4789 234.615 23.2284L235.822 22.0222C235.953 21.8919 236.165 21.8919 236.295 22.0222L236.383 22.1098C236.399 22.1261 236.399 22.1512 236.383 22.1674L235.374 23.1758C235.36 23.1896 235.36 23.2134 235.374 23.2271C235.626 23.4777 236.033 23.4777 236.284 23.2271L237.443 22.0685C237.574 21.9382 237.786 21.9382 237.916 22.0685L238.005 22.1574C238.019 22.1712 238.019 22.195 238.005 22.2088L237.033 23.1795C237.02 23.1933 237.02 23.2171 237.033 23.2309C237.285 23.4814 237.693 23.4814 237.944 23.2309L239.063 22.1123C239.194 21.9821 239.405 21.9821 239.536 22.1123L239.726 22.3027C239.803 22.3791 239.803 22.5019 239.726 22.5783L239.698 22.6084C239.621 22.6848 239.498 22.6848 239.422 22.6084L239.175 22.3616C239.161 22.3478 239.137 22.3478 239.123 22.3616L238.695 22.79C238.681 22.8038 238.681 22.8276 238.695 22.8413Z" fill="#7DDACF"/>
            <path fill-rule="evenodd" clip-rule="evenodd" d="M179.052 12.5925C173.585 18.0544 173.585 26.9406 179.052 32.4025C184.518 37.8644 193.412 37.8644 198.879 32.4025C204.346 26.9406 204.346 18.0544 198.879 12.5925C193.412 7.13062 184.518 7.13062 179.052 12.5925ZM189.499 9.43999C192.67 9.56817 195.803 10.8391 198.219 13.2527C200.668 15.6998 201.942 18.8839 202.039 22.0975H200.303C200.098 16.2002 195.384 11.4477 189.499 11.1754V9.43999ZM188.565 9.43528C185.349 9.53282 182.163 10.8053 179.714 13.2527C177.264 15.7001 175.99 18.8842 175.893 22.0975H177.628C177.834 16.1557 182.618 11.3761 188.565 11.17V9.43528ZM175.898 23.0309C176.026 26.1986 177.298 29.3281 179.714 31.741C182.163 34.1881 185.349 35.4606 188.565 35.5584V33.825C182.662 33.6205 177.906 28.9107 177.633 23.0309H175.898ZM189.499 35.5537C192.67 35.4258 195.803 34.1549 198.219 31.741C200.634 29.3277 201.906 26.1983 202.035 23.0309H200.298C200.027 28.8663 195.34 33.5493 189.499 33.8196V35.5537ZM184.828 24.8921V24.0717H186.482V24.8921C186.482 25.3441 186.854 25.7125 187.31 25.7125H188.137V23.072L186.863 22.7557C185.665 22.4588 184.828 21.396 184.828 20.1721C184.828 18.7033 186.033 17.5085 187.514 17.5085H188.137V15.4302H189.792V17.5085H190.62C191.989 17.5085 193.102 18.6125 193.102 19.9697V20.7901H191.447V19.9697C191.447 19.5177 191.076 19.1493 190.62 19.1493H189.792V21.7899L191.067 22.1061C192.265 22.403 193.102 23.4658 193.102 24.6898C193.102 26.1585 191.897 27.3533 190.416 27.3533H189.792V29.4316H188.137V27.3533H187.31C185.941 27.3533 184.828 26.2494 184.828 24.8921ZM190.666 23.6985L189.792 23.4816V25.7125H190.416C190.985 25.7125 191.447 25.2533 191.447 24.6898C191.447 24.2196 191.127 23.8124 190.666 23.6985ZM186.482 20.1721C186.482 20.6423 186.803 21.0494 187.264 21.1633L188.137 21.3803V19.1493H187.514C186.945 19.1493 186.482 19.6086 186.482 20.1721Z" fill="#478BF9"/>
            <path d="M275.497 80.5827C270.031 75.1208 270.031 66.2346 275.497 60.7727C280.964 55.3108 289.858 55.3108 295.325 60.7727C300.792 66.2346 300.792 75.1208 295.325 80.5827C289.858 86.0446 280.964 86.0446 275.497 80.5827ZM294.664 61.4328C289.562 56.3349 281.261 56.3349 276.159 61.4328C271.057 66.5308 271.057 74.8246 276.159 79.9212C281.262 85.0191 289.563 85.0191 294.664 79.9212C299.767 74.8232 299.767 66.5295 294.664 61.4328Z" fill="#7DDACF"/>
            <path fill-rule="evenodd" clip-rule="evenodd" d="M296.756 70.6777C296.756 76.9376 291.677 82.0122 285.411 82.0122C279.146 82.0122 274.067 76.9376 274.067 70.6777C274.067 64.4179 279.146 59.3433 285.411 59.3433C291.677 59.3433 296.756 64.4179 296.756 70.6777ZM285.405 63.6224L290.916 65.8282C290.977 65.8529 291.017 65.913 291.017 65.9789V69.8948C291.025 73.435 288.766 76.5335 285.394 77.604C285.361 77.6146 285.327 77.6146 285.295 77.604C281.924 76.5335 279.664 73.435 279.672 69.8948V65.9789C279.672 65.9118 279.712 65.8529 279.774 65.8282L285.285 63.6224C285.303 63.6141 285.325 63.6106 285.345 63.6106C285.365 63.6106 285.386 63.6153 285.405 63.6224ZM285.44 76.7796C288.314 75.7244 290.247 72.958 290.253 69.8948V66.5772C290.253 66.463 290.185 66.3605 290.078 66.3181L285.448 64.4644C285.381 64.4373 285.308 64.4373 285.241 64.4644L280.612 66.3169C280.504 66.3593 280.436 66.4606 280.436 66.576V69.8948C280.442 72.9568 282.376 75.7244 285.249 76.7796C285.28 76.7902 285.313 76.7961 285.345 76.7961C285.376 76.7961 285.409 76.7914 285.44 76.7796ZM289.695 69.8948C289.691 72.6812 287.943 75.2192 285.346 76.2191C282.749 75.2204 281.001 72.6812 280.996 69.8948V66.7656L285.346 65.0238L289.695 66.7656V69.8948ZM287.434 73.3926C286.857 74.0403 286.13 74.5609 285.329 74.8953C285.188 74.9554 285.121 75.1191 285.181 75.2616C285.226 75.3688 285.331 75.4324 285.439 75.4324C285.475 75.4324 285.512 75.4253 285.547 75.41C286.423 75.0437 287.219 74.4737 287.851 73.7636C287.954 73.6481 287.943 73.4715 287.828 73.369C287.712 73.2666 287.536 73.2772 287.434 73.3926ZM282.2 68.9067C282.354 68.9067 282.479 68.7819 282.479 68.6276L282.48 68.6288V67.6419L283.406 67.2709H283.408C283.477 67.2438 283.531 67.1896 283.561 67.1213C283.59 67.0518 283.591 66.9765 283.563 66.907C283.536 66.8375 283.483 66.7833 283.414 66.7539C283.344 66.7244 283.269 66.7232 283.199 66.7515L282.097 67.1931C281.991 67.2355 281.921 67.3368 281.921 67.4522V68.6276C281.921 68.7819 282.046 68.9067 282.2 68.9067Z" fill="#7DDACF"/>
            <path d="M285.061 56.6763L333.452 56.6763V57.6097L285.061 57.6097V56.6763Z" fill="#7DDACF"/>
            <path d="M283.935 83.7454H333.452V84.6788H283.935V83.7454Z" fill="#7DDACF"/>
            <path fill-rule="evenodd" clip-rule="evenodd" d="M323.72 109.274C318.253 114.736 318.253 123.622 323.72 129.084C329.187 134.546 338.081 134.546 343.548 129.084C349.015 123.622 349.015 114.736 343.548 109.274C338.081 103.812 329.187 103.812 323.72 109.274ZM334.168 106.121C337.339 106.25 340.471 107.52 342.887 109.934C345.337 112.381 346.611 115.565 346.708 118.779H344.972C344.767 112.882 340.053 108.129 334.168 107.857V106.121ZM333.234 106.117C330.018 106.214 326.831 107.487 324.382 109.934C321.933 112.382 320.659 115.566 320.561 118.779H322.296C322.503 112.837 327.287 108.057 333.234 107.851V106.117ZM320.566 119.712C320.695 122.88 321.967 126.01 324.382 128.422C326.832 130.87 330.018 132.142 333.234 132.24V130.506C327.331 130.302 322.574 125.592 322.302 119.712H320.566ZM334.168 132.235C337.339 132.107 340.472 130.836 342.887 128.422C345.303 126.009 346.575 122.88 346.703 119.712H344.966C344.696 125.548 340.009 130.231 334.168 130.501V132.235ZM331.554 115.307L331.368 115.293L331.367 115.291L331.423 115.112C331.967 113.344 332.845 112.245 333.701 112.245C334.558 112.245 335.429 113.339 335.976 115.1L336.032 115.278L335.847 115.294C335.123 115.357 334.376 115.389 333.623 115.389C332.926 115.389 332.23 115.362 331.554 115.307ZM331.17 122.398C330.993 121.575 330.889 120.681 330.861 119.744H330.863L330.857 119.589H336.547L336.543 119.742C336.516 120.682 336.411 121.579 336.233 122.411L336.205 122.541L336.073 122.529C334.533 122.386 332.879 122.38 331.33 122.515L331.198 122.528L331.17 122.398ZM336.267 113.92C336.424 114.284 336.564 114.673 336.681 115.08L336.717 115.203L336.843 115.187C337.55 115.095 338.232 114.971 338.872 114.819L339.115 114.761L338.95 114.574C338.095 113.602 336.996 112.888 335.773 112.506L335.343 112.372L335.608 112.738C335.848 113.071 336.071 113.468 336.267 113.921V113.92ZM336.918 116.031L336.885 115.873L336.886 115.872L337.044 115.851C337.892 115.737 338.7 115.578 339.447 115.381L339.552 115.353L339.61 115.445C340.239 116.434 340.616 117.573 340.697 118.741L340.708 118.902H337.228L337.224 118.756C337.199 117.806 337.095 116.889 336.918 116.031ZM330.557 115.206L330.683 115.222L330.719 115.099C330.843 114.673 330.984 114.275 331.139 113.92C331.335 113.467 331.557 113.068 331.799 112.736L332.067 112.37L331.636 112.504C330.397 112.889 329.288 113.614 328.43 114.602L328.265 114.791L328.508 114.847C329.156 114.996 329.846 115.116 330.558 115.204L330.557 115.206ZM336.231 116.08C336.411 116.912 336.515 117.81 336.541 118.748H336.54L336.544 118.902H330.855L330.86 118.747C330.888 117.81 330.992 116.917 331.169 116.093L331.197 115.963L331.328 115.975C332.877 116.112 334.533 116.106 336.072 115.962L336.204 115.95L336.231 116.08ZM336.843 123.305L336.717 123.289L336.681 123.412C336.563 123.818 336.424 124.208 336.267 124.571C336.071 125.025 335.848 125.422 335.608 125.756L335.343 126.121L335.773 125.987C336.996 125.606 338.095 124.891 338.95 123.919L339.115 123.732L338.872 123.674C338.232 123.522 337.55 123.397 336.843 123.306V123.305ZM335.847 123.198L336.032 123.214H336.033L335.977 123.392C335.431 125.153 334.563 126.247 333.703 126.247C332.842 126.247 331.969 125.148 331.424 123.379L331.368 123.199L331.554 123.185C332.959 123.072 334.456 123.076 335.847 123.198ZM337.224 119.734C337.199 120.685 337.095 121.603 336.918 122.461L336.885 122.619L337.043 122.64C337.89 122.755 338.698 122.913 339.445 123.11L339.55 123.138L339.609 123.045C340.238 122.056 340.615 120.918 340.696 119.749L340.706 119.589H337.226L337.222 119.734H337.224ZM330.718 123.393C330.841 123.819 330.982 124.215 331.138 124.571H331.137C331.332 125.023 331.554 125.422 331.797 125.754L332.064 126.121L331.633 125.987C330.394 125.602 329.286 124.876 328.427 123.889L328.262 123.7L328.506 123.644C329.153 123.494 329.844 123.375 330.555 123.286L330.682 123.27L330.718 123.393ZM330.18 118.757C330.206 117.821 330.308 116.909 330.484 116.051L330.516 115.892L330.356 115.872C329.505 115.762 328.69 115.61 327.936 115.417L327.831 115.39L327.773 115.483C327.157 116.461 326.788 117.588 326.706 118.743L326.694 118.903H330.174L330.178 118.757H330.18ZM330.485 122.441L330.517 122.6H330.52L330.36 122.62C329.507 122.73 328.693 122.882 327.94 123.075L327.835 123.102L327.777 123.009C327.161 122.032 326.791 120.904 326.71 119.749L326.698 119.589H330.178L330.182 119.734C330.207 120.673 330.309 121.583 330.485 122.441Z" fill="#9DADF2"/>
            <path fill-rule="evenodd" clip-rule="evenodd" d="M275.556 109.274C270.089 114.736 270.089 123.622 275.556 129.084C281.023 134.546 289.917 134.546 295.384 129.084C300.85 123.622 300.85 114.736 295.384 109.274C289.917 103.812 281.023 103.812 275.556 109.274ZM289.207 106.651C291.227 107.249 293.131 108.343 294.723 109.934C296.315 111.525 297.41 113.426 298.009 115.445H296.184C295.048 112.189 292.466 109.609 289.207 108.474V106.651ZM288.272 106.412C286.427 106.01 284.512 106.01 282.667 106.412V108.193C283.563 107.965 284.502 107.844 285.47 107.844C286.437 107.844 287.376 107.965 288.272 108.193V106.412ZM281.733 106.651C279.712 107.249 277.809 108.344 276.218 109.934C274.626 111.525 273.531 113.426 272.932 115.445H274.755C275.892 112.189 278.473 109.609 281.733 108.474V106.651ZM272.692 116.379C272.291 118.222 272.291 120.136 272.692 121.979H274.474C274.246 121.084 274.125 120.145 274.125 119.179C274.125 118.212 274.246 117.274 274.474 116.379H272.692ZM272.932 122.913C273.531 124.931 274.626 126.832 276.218 128.422C277.81 130.013 279.713 131.107 281.733 131.705V129.884C278.473 128.748 275.892 126.169 274.755 122.913H272.932ZM282.667 131.945C284.512 132.346 286.428 132.346 288.272 131.945V130.165C287.376 130.392 286.437 130.513 285.47 130.513C284.502 130.513 283.563 130.392 282.667 130.165V131.945ZM289.207 131.706C291.227 131.108 293.131 130.013 294.723 128.422C296.314 126.832 297.41 124.931 298.008 122.913H296.184C295.048 126.169 292.466 128.748 289.207 129.884V131.706ZM298.248 121.979C298.65 120.136 298.65 118.222 298.249 116.379H296.465C296.693 117.274 296.814 118.212 296.814 119.179C296.814 120.145 296.693 121.084 296.465 121.979H298.248ZM281.341 122.015C281.456 122.333 281.758 122.546 282.095 122.543V122.542L288.876 122.497C289.213 122.494 289.514 122.279 289.623 121.959L290.825 118.489C290.901 118.531 290.983 118.564 291.068 118.591C291.198 118.631 291.333 118.649 291.47 118.649L291.555 118.647C292.264 118.598 292.816 117.998 292.81 117.284C292.806 116.535 292.196 115.93 291.452 115.935C290.769 115.939 290.196 116.457 290.12 117.139C290.114 117.192 290.112 117.247 290.112 117.301C290.112 117.422 290.129 117.541 290.161 117.655C290.187 117.75 290.223 117.84 290.267 117.926L287.874 119.13L285.979 116.446C286.057 116.413 286.132 116.372 286.202 116.323C286.336 116.231 286.452 116.116 286.547 115.98C286.727 115.722 286.81 115.418 286.787 115.101C286.738 114.43 286.2 113.893 285.533 113.848C285.5 113.845 285.466 113.845 285.433 113.845H285.433C284.688 113.85 284.086 114.464 284.091 115.212C284.093 115.491 284.18 115.76 284.341 115.988C284.436 116.122 284.553 116.237 284.688 116.328C284.759 116.377 284.835 116.418 284.913 116.452L283.051 119.163L280.618 117.979C280.665 117.902 280.706 117.821 280.739 117.736C280.8 117.581 280.829 117.415 280.829 117.243C280.825 116.494 280.215 115.889 279.47 115.894C278.726 115.899 278.124 116.513 278.129 117.261C278.133 117.938 278.639 118.513 279.305 118.598C279.365 118.606 279.426 118.608 279.488 118.608C279.595 118.608 279.7 118.595 279.804 118.568C279.893 118.546 279.98 118.515 280.062 118.475L281.341 122.015ZM288.217 118.318C288.038 118.318 287.867 118.231 287.764 118.084L287.377 117.536C287.288 117.41 287.256 117.251 287.288 117.099C287.319 116.948 287.414 116.815 287.548 116.737L288.283 116.303C288.366 116.254 288.461 116.227 288.558 116.226C288.782 116.225 288.984 116.359 289.071 116.567L289.349 117.235C289.459 117.503 289.345 117.815 289.087 117.945L288.461 118.259C288.386 118.296 288.302 118.318 288.218 118.318H288.217ZM282.453 118.299C282.529 118.336 282.614 118.355 282.697 118.355L282.696 118.353C282.875 118.353 283.044 118.263 283.146 118.114L283.537 117.545C283.624 117.418 283.654 117.258 283.62 117.107C283.586 116.956 283.489 116.825 283.356 116.749L282.643 116.34C282.559 116.291 282.463 116.267 282.367 116.267C282.143 116.268 281.943 116.405 281.859 116.615L281.584 117.302C281.476 117.572 281.595 117.881 281.855 118.008L282.453 118.299ZM281.653 123.058L289.321 123.007C289.644 123.005 289.907 123.267 289.909 123.591L289.911 123.866C289.913 124.191 289.653 124.456 289.33 124.458L281.662 124.509C281.339 124.511 281.076 124.25 281.074 123.925L281.072 123.65C281.07 123.325 281.33 123.061 281.653 123.058Z" fill="#478BF9"/>
            <path fill-rule="evenodd" clip-rule="evenodd" d="M227.274 109.274C221.808 114.736 221.808 123.622 227.274 129.084C232.741 134.546 241.635 134.546 247.102 129.084C252.569 123.622 252.569 114.736 247.102 109.274C241.635 103.812 232.741 103.812 227.274 109.274ZM246.159 109.66C241.132 104.927 233.243 104.927 228.218 109.661L229.449 110.891C231.476 109.001 234.197 107.844 237.188 107.844C240.179 107.844 242.9 109.001 244.927 110.891L246.159 109.66ZM227.561 110.325C222.925 115.352 222.959 123.156 227.662 128.141L228.893 126.911C227.001 124.886 225.844 122.168 225.844 119.179C225.844 116.243 226.96 113.569 228.793 111.556L227.561 110.325ZM228.327 128.797C233.322 133.395 241.056 133.396 246.05 128.798L244.818 127.567C242.803 129.398 240.126 130.513 237.188 130.513C234.25 130.513 231.573 129.398 229.558 127.567L228.327 128.797ZM246.714 128.141C251.418 123.155 251.452 115.35 246.816 110.324L245.584 111.556C247.416 113.569 248.533 116.243 248.533 119.179C248.533 122.168 247.375 124.886 245.483 126.911L246.714 128.141ZM241.784 114.004C240.64 112.988 239.161 112.339 237.534 112.245V114.313C238.592 114.401 239.556 114.819 240.321 115.467L241.784 114.005V114.004ZM233.338 116.049L231.875 114.588C230.858 115.73 230.208 117.208 230.114 118.834H232.184C232.272 117.777 232.691 116.813 233.339 116.049H233.338ZM244.128 118.834H242.06C241.972 117.777 241.552 116.813 240.905 116.049L242.368 114.588C243.385 115.731 244.034 117.208 244.128 118.834ZM232.183 119.658H230.114C230.208 121.284 230.858 122.761 231.875 123.904L233.338 122.443C232.691 121.679 232.271 120.715 232.183 119.658ZM236.709 112.245V114.312C235.651 114.4 234.687 114.819 233.922 115.466L232.459 114.004C233.603 112.988 235.081 112.339 236.709 112.245ZM242.367 123.904C243.384 122.762 244.033 121.284 244.127 119.658H242.057C241.969 120.715 241.551 121.679 240.902 122.441L242.367 123.904ZM237.534 126.247V124.18C238.592 124.092 239.556 123.673 240.321 123.026L241.784 124.488C240.639 125.504 239.161 126.153 237.534 126.247ZM232.459 124.488C233.602 125.504 235.081 126.153 236.709 126.247V124.179C235.651 124.091 234.687 123.673 233.922 123.025L232.459 124.487V124.488ZM237.121 114.988C239.474 114.988 241.383 116.895 241.383 119.246C241.383 121.597 239.474 123.504 237.121 123.504C234.768 123.504 232.86 121.597 232.86 119.246C232.86 116.895 234.768 114.988 237.121 114.988ZM238.695 119.523L239.08 119.907L239.077 119.912C239.343 120.178 239.773 120.178 240.039 119.912L240.345 119.607C240.61 119.341 240.61 118.91 240.345 118.646L239.779 118.081C239.513 117.816 239.083 117.816 238.818 118.081L238.512 118.387L238.159 118.035C237.894 117.769 237.463 117.769 237.198 118.035L236.892 118.34L236.541 117.986C236.275 117.72 235.845 117.72 235.579 117.986L233.705 119.858C233.691 119.872 233.691 119.896 233.705 119.91C233.957 120.16 234.364 120.16 234.615 119.91L235.822 118.704C235.953 118.573 236.165 118.573 236.295 118.704L236.383 118.791C236.399 118.808 236.399 118.833 236.383 118.849L235.374 119.857C235.36 119.871 235.36 119.895 235.374 119.909C235.626 120.159 236.033 120.159 236.284 119.909L237.443 118.75C237.574 118.62 237.786 118.62 237.916 118.75L238.005 118.839C238.019 118.853 238.019 118.876 238.005 118.89L237.033 119.861C237.02 119.875 237.02 119.899 237.033 119.912C237.285 120.163 237.693 120.163 237.944 119.912L239.063 118.794C239.194 118.664 239.405 118.664 239.536 118.794L239.726 118.984C239.803 119.061 239.803 119.183 239.726 119.26L239.698 119.29C239.621 119.366 239.498 119.366 239.422 119.29L239.175 119.043C239.161 119.029 239.137 119.029 239.123 119.043L238.695 119.471C238.681 119.485 238.681 119.509 238.695 119.523Z" fill="white"/>
            <path fill-rule="evenodd" clip-rule="evenodd" d="M179.051 109.274C173.585 114.736 173.585 123.622 179.051 129.084C184.518 134.546 193.412 134.546 198.879 129.084C204.346 123.622 204.346 114.736 198.879 109.274C193.412 103.812 184.518 103.812 179.051 109.274ZM189.499 106.121C192.67 106.25 195.803 107.52 198.218 109.934C200.668 112.381 201.942 115.565 202.039 118.779H200.303C200.098 112.882 195.384 108.129 189.499 107.857V106.121ZM188.565 106.117C185.349 106.214 182.162 107.487 179.714 109.934C177.264 112.382 175.99 115.566 175.893 118.779H177.628C177.834 112.837 182.618 108.057 188.565 107.851V106.117ZM175.897 119.712C176.026 122.88 177.298 126.01 179.714 128.422C182.163 130.87 185.349 132.142 188.565 132.24V130.506C182.662 130.302 177.906 125.592 177.633 119.712H175.897ZM189.499 132.235C192.67 132.107 195.803 130.836 198.218 128.422C200.634 126.009 201.906 122.88 202.034 119.712H200.298C200.027 125.548 195.34 130.231 189.499 130.501V132.235ZM184.828 121.574V120.753H186.482V121.574C186.482 122.026 186.854 122.394 187.31 122.394H188.137V119.753L186.863 119.437C185.665 119.14 184.828 118.077 184.828 116.854C184.828 115.385 186.033 114.19 187.514 114.19H188.137V112.112H189.792V114.19H190.62C191.989 114.19 193.102 115.294 193.102 116.651V117.472H191.447V116.651C191.447 116.199 191.076 115.831 190.62 115.831H189.792V118.471L191.067 118.788C192.265 119.085 193.102 120.147 193.102 121.371C193.102 122.84 191.897 124.035 190.416 124.035H189.792V126.113H188.137V124.035H187.31C185.941 124.035 184.828 122.931 184.828 121.574ZM190.666 120.38L189.792 120.163V122.394H190.416C190.985 122.394 191.447 121.935 191.447 121.371C191.447 120.901 191.127 120.494 190.666 120.38ZM186.482 116.854C186.482 117.324 186.803 117.731 187.264 117.845L188.137 118.062V115.831H187.514C186.945 115.831 186.482 116.29 186.482 116.854Z" fill="#478BF9"/>
        </g>
    </g>
    <defs>
        <linearGradient id="paint0_linear_472_7050" x1="160" y1="0" x2="160" y2="141" gradientUnits="userSpaceOnUse">
            <stop stop-color="white"/>
            <stop offset="1" stop-color="white" stop-opacity="0"/>
        </linearGradient>
    </defs>
</svg>
