<svg width="1012" height="1605" viewBox="0 0 1012 1605" fill="none" xmlns="http://www.w3.org/2000/svg">
    <g opacity="0.55" filter="url(#filter0_f_404_7858)">
        <path d="M973.154 145.401C1261.99 352.864 1404.63 521.479 1374.06 564.035C1343.49 606.591 1057.82 485.036 768.985 277.573C480.148 70.1105 285.303 -152.79 301.346 -175.126C317.389 -197.462 684.318 -62.0612 973.154 145.401Z" fill="url(#paint0_linear_404_7858)"/>
    </g>
    <mask id="mask0_404_7858" style="mask-type:alpha" maskUnits="userSpaceOnUse" x="509" y="738" width="363" height="810">
        <rect x="509" y="739" width="363" height="809" fill="url(#paint1_linear_404_7858)"/>
    </mask>
    <g mask="url(#mask0_404_7858)">
        <g opacity="0.5">
            <path d="M818.275 1532.08C804.507 1532.08 790.751 1526.85 780.268 1516.36C759.312 1495.41 759.312 1461.32 780.268 1440.37C790.424 1430.22 803.921 1424.63 818.275 1424.63C832.629 1424.63 846.126 1430.22 856.282 1440.37C877.238 1461.32 877.238 1495.41 856.282 1516.36C845.81 1526.83 832.042 1532.08 818.275 1532.08ZM783.089 1513.54C802.487 1532.94 834.051 1532.94 853.449 1513.54C872.848 1494.15 872.848 1462.59 853.449 1443.19C844.049 1433.79 831.557 1428.63 818.263 1428.63C804.97 1428.63 792.478 1433.81 783.078 1443.19C763.679 1462.59 763.679 1494.15 783.078 1513.54H783.089Z" fill="#9DADF2"/>
            <path d="M817.564 1498.47C817.756 1498.93 818.207 1499.2 818.681 1499.2C818.839 1499.2 818.997 1499.17 819.155 1499.11C822.947 1497.52 826.4 1495.06 829.131 1491.99C829.571 1491.49 829.526 1490.73 829.029 1490.29C828.533 1489.85 827.765 1489.89 827.325 1490.39C824.831 1493.2 821.683 1495.44 818.218 1496.89C817.609 1497.15 817.316 1497.86 817.575 1498.47H817.564Z" fill="#9DADF2"/>
            <path d="M838.758 1459.79L818.716 1451.78C818.423 1451.67 818.107 1451.67 817.814 1451.78L797.772 1459.79C797.309 1459.97 797.016 1460.41 797.016 1460.91V1475.26C797.038 1488.51 805.412 1500.48 817.847 1505.04C817.983 1505.08 818.118 1505.1 818.265 1505.1C818.412 1505.1 818.547 1505.08 818.682 1505.04C831.118 1500.47 839.492 1488.51 839.514 1475.26V1460.91C839.514 1460.41 839.221 1459.97 838.758 1459.79ZM837.099 1475.26C837.077 1487.31 829.516 1498.29 818.276 1502.61C807.037 1498.29 799.464 1487.31 799.442 1475.26V1461.73L818.276 1454.21L837.099 1461.73V1475.26Z" fill="#9DADF2"/>
            <path d="M809.902 1461.67C809.609 1461.55 809.282 1461.55 808.977 1461.67L804.203 1463.58C803.741 1463.76 803.447 1464.2 803.447 1464.7V1469.79C803.447 1470.45 803.989 1470.99 804.655 1470.99C805.321 1470.99 805.862 1470.45 805.862 1469.79V1465.52L809.868 1463.92C810.173 1463.8 810.399 1463.57 810.534 1463.27C810.658 1462.97 810.658 1462.65 810.534 1462.34C810.41 1462.04 810.184 1461.81 809.891 1461.67H809.902Z" fill="#9DADF2"/>
            <path d="M848.789 1447.85C840.641 1439.69 829.797 1435.22 818.264 1435.22C806.731 1435.22 795.897 1439.71 787.738 1447.85C770.913 1464.68 770.913 1492.06 787.738 1508.89C796.157 1517.31 807.205 1521.51 818.264 1521.51C829.323 1521.51 840.371 1517.3 848.789 1508.89C865.615 1492.07 865.615 1464.69 848.789 1447.85ZM842.819 1475.26C842.853 1490.57 833.069 1503.96 818.478 1508.6C818.343 1508.65 818.196 1508.65 818.049 1508.6C803.458 1503.96 793.674 1490.57 793.708 1475.26V1458.32C793.708 1458.04 793.877 1457.78 794.148 1457.67L818.004 1448.13C818.083 1448.1 818.173 1448.09 818.264 1448.09C818.354 1448.09 818.444 1448.1 818.523 1448.13L842.379 1457.68C842.65 1457.78 842.819 1458.04 842.819 1458.33V1475.27V1475.26Z" fill="#9DADF2"/>
            <path d="M818.275 1259.1C804.507 1259.1 790.751 1253.87 780.268 1243.39C759.312 1222.43 759.312 1188.35 780.268 1167.4C790.424 1157.24 803.921 1151.66 818.275 1151.66C832.629 1151.66 846.126 1157.24 856.282 1167.4C877.238 1188.35 877.238 1222.43 856.282 1243.39C845.81 1253.86 832.042 1259.1 818.275 1259.1ZM783.089 1240.57C802.487 1259.96 834.051 1259.96 853.449 1240.57C872.848 1221.17 872.848 1189.61 853.449 1170.22C844.049 1160.82 831.557 1155.65 818.263 1155.65C804.97 1155.65 792.478 1160.83 783.078 1170.22C763.679 1189.61 763.679 1221.17 783.078 1240.57H783.089Z" fill="#9DADF2"/>
            <path d="M817.564 1225.5C817.756 1225.97 818.207 1226.24 818.681 1226.24C818.839 1226.24 818.997 1226.2 819.155 1226.15C822.947 1224.55 826.4 1222.1 829.131 1219.03C829.571 1218.53 829.526 1217.76 829.029 1217.32C828.533 1216.88 827.765 1216.93 827.325 1217.42C824.831 1220.23 821.683 1222.48 818.218 1223.92C817.609 1224.18 817.316 1224.89 817.575 1225.5H817.564Z" fill="#9DADF2"/>
            <path d="M838.758 1186.81L818.716 1178.8C818.423 1178.69 818.107 1178.69 817.814 1178.8L797.772 1186.81C797.309 1186.99 797.016 1187.43 797.016 1187.93V1202.28C797.038 1215.53 805.412 1227.5 817.847 1232.06C817.983 1232.1 818.118 1232.13 818.265 1232.13C818.412 1232.13 818.547 1232.1 818.682 1232.06C831.118 1227.49 839.492 1215.53 839.514 1202.28V1187.93C839.514 1187.43 839.221 1186.99 838.758 1186.81ZM837.099 1202.28C837.077 1214.33 829.516 1225.31 818.276 1229.63C807.037 1225.31 799.464 1214.33 799.442 1202.28V1188.75L818.276 1181.23L837.099 1188.75V1202.28Z" fill="#9DADF2"/>
            <path d="M809.902 1188.7C809.609 1188.57 809.282 1188.57 808.977 1188.7L804.203 1190.6C803.741 1190.78 803.447 1191.22 803.447 1191.72V1196.81C803.447 1197.48 803.989 1198.02 804.655 1198.02C805.321 1198.02 805.862 1197.48 805.862 1196.81V1192.54L809.868 1190.94C810.173 1190.82 810.399 1190.59 810.534 1190.29C810.658 1189.99 810.658 1189.67 810.534 1189.36C810.41 1189.06 810.184 1188.83 809.891 1188.7H809.902Z" fill="#9DADF2"/>
            <path d="M848.789 1174.88C840.641 1166.72 829.797 1162.24 818.264 1162.24C806.731 1162.24 795.897 1166.73 787.738 1174.88C770.913 1191.7 770.913 1219.08 787.738 1235.92C796.157 1244.33 807.205 1248.53 818.264 1248.53C829.323 1248.53 840.371 1244.32 848.789 1235.92C865.615 1219.09 865.615 1191.71 848.789 1174.88ZM842.819 1202.28C842.853 1217.59 833.069 1230.99 818.478 1235.62C818.343 1235.67 818.196 1235.67 818.049 1235.62C803.458 1230.99 793.674 1217.59 793.708 1202.28V1185.35C793.708 1185.06 793.877 1184.8 794.148 1184.69L818.004 1175.16C818.083 1175.12 818.173 1175.11 818.264 1175.11C818.354 1175.11 818.444 1175.12 818.523 1175.16L842.379 1184.7C842.65 1184.8 842.819 1185.06 842.819 1185.36V1202.29V1202.28Z" fill="#9DADF2"/>
            <path d="M818.269 1395.59C788.645 1395.59 764.551 1371.49 764.551 1341.87C764.551 1312.26 788.656 1288.16 818.269 1288.16C847.882 1288.16 871.988 1312.26 871.988 1341.87C871.988 1371.49 847.882 1395.59 818.269 1395.59ZM818.269 1291.73C790.62 1291.73 768.128 1314.22 768.128 1341.87C768.128 1369.52 790.62 1392.01 818.269 1392.01C845.918 1392.01 868.41 1369.52 868.41 1341.87C868.41 1314.22 845.918 1291.73 818.269 1291.73Z" fill="#E3E3E3"/>
            <path d="M835.693 1308.32C835.422 1308.32 835.151 1308.27 834.903 1308.14C829.7 1305.57 824.103 1304.26 818.268 1304.26C812.433 1304.26 806.836 1305.57 801.633 1308.14C800.945 1308.48 800.121 1308.35 799.579 1307.8L790.348 1298.57C789.953 1298.18 789.772 1297.64 789.84 1297.08C789.908 1296.53 790.224 1296.04 790.698 1295.76C799.015 1290.77 808.551 1288.14 818.279 1288.14C828.007 1288.14 837.543 1290.79 845.861 1295.76C846.335 1296.04 846.651 1296.53 846.718 1297.08C846.786 1297.64 846.594 1298.18 846.211 1298.57L836.979 1307.8C836.629 1308.14 836.178 1308.32 835.704 1308.32H835.693ZM818.268 1300.68C824.215 1300.68 829.948 1301.92 835.32 1304.37L842.001 1297.69C834.733 1293.78 826.574 1291.72 818.268 1291.72C809.962 1291.72 801.803 1293.78 794.535 1297.69L801.216 1304.37C806.588 1301.92 812.321 1300.68 818.268 1300.68Z" fill="#E3E3E3"/>
            <path d="M818.269 1395.59C808.541 1395.59 799.005 1392.95 790.688 1387.97C790.214 1387.69 789.898 1387.21 789.83 1386.65C789.762 1386.1 789.954 1385.56 790.338 1385.16L799.569 1375.93C800.111 1375.39 800.946 1375.26 801.623 1375.59C806.826 1378.17 812.423 1379.48 818.258 1379.48C824.092 1379.48 829.69 1378.17 834.892 1375.59C835.581 1375.26 836.405 1375.39 836.946 1375.93L846.178 1385.16C846.573 1385.56 846.753 1386.1 846.686 1386.65C846.618 1387.21 846.302 1387.69 845.828 1387.97C837.511 1392.96 827.974 1395.59 818.246 1395.59H818.269ZM794.536 1386.04C801.804 1389.96 809.963 1392.01 818.269 1392.01C826.575 1392.01 834.734 1389.96 842.002 1386.04L835.321 1379.36C829.949 1381.81 824.216 1383.05 818.269 1383.05C812.322 1383.05 806.589 1381.81 801.217 1379.36L794.536 1386.04Z" fill="#E3E3E3"/>
            <path d="M862.839 1370.31C862.365 1370.31 861.913 1370.13 861.575 1369.79L852.343 1360.56C851.802 1360.02 851.666 1359.19 852.005 1358.51C854.578 1353.31 855.887 1347.71 855.887 1341.87C855.887 1336.04 854.578 1330.44 852.005 1325.24C851.666 1324.55 851.802 1323.72 852.343 1323.19L861.575 1313.95C861.97 1313.56 862.512 1313.38 863.065 1313.45C863.618 1313.51 864.103 1313.83 864.385 1314.3C869.373 1322.62 872.003 1332.16 872.003 1341.89C872.003 1351.61 869.373 1361.15 864.385 1369.47C864.103 1369.94 863.618 1370.26 863.065 1370.32C862.986 1370.32 862.918 1370.32 862.839 1370.32V1370.31ZM855.763 1358.92L862.444 1365.6C866.36 1358.33 868.414 1350.17 868.414 1341.86C868.414 1333.56 866.36 1325.4 862.444 1318.13L855.763 1324.81C858.212 1330.18 859.453 1335.92 859.453 1341.86C859.453 1347.81 858.212 1353.54 855.763 1358.92Z" fill="#E3E3E3"/>
            <path d="M773.703 1370.31C773.624 1370.31 773.557 1370.31 773.489 1370.3C772.936 1370.23 772.451 1369.92 772.168 1369.44C767.18 1361.13 764.551 1351.59 764.551 1341.86C764.551 1332.13 767.18 1322.6 772.168 1314.28C772.451 1313.81 772.936 1313.49 773.489 1313.42C774.042 1313.36 774.584 1313.55 774.979 1313.93L784.21 1323.16C784.752 1323.7 784.887 1324.54 784.549 1325.22C781.975 1330.42 780.666 1336.02 780.666 1341.85C780.666 1347.69 781.975 1353.28 784.549 1358.49C784.887 1359.17 784.752 1360.01 784.21 1360.54L774.979 1369.77C774.64 1370.11 774.188 1370.3 773.715 1370.3L773.703 1370.31ZM774.098 1318.13C770.182 1325.4 768.128 1333.56 768.128 1341.86C768.128 1350.17 770.182 1358.33 774.098 1365.6L780.779 1358.91C778.33 1353.54 777.089 1347.81 777.089 1341.86C777.089 1335.92 778.33 1330.18 780.779 1324.81L774.098 1318.13Z" fill="#E3E3E3"/>
            <path d="M818.27 1300.68C795.564 1300.68 777.078 1319.16 777.078 1341.87C777.078 1364.59 795.552 1383.06 818.27 1383.06C840.987 1383.06 859.461 1364.59 859.461 1341.87C859.461 1319.16 840.987 1300.68 818.27 1300.68ZM841.45 1328.34C843.402 1331.68 844.587 1335.33 844.971 1339.2C844.982 1339.36 844.915 1339.5 844.779 1339.58C841.834 1341.39 839.193 1343.6 836.913 1346.18C836.812 1346.31 836.642 1346.35 836.496 1346.3L831.406 1344.64C831.259 1344.59 831.158 1344.47 831.135 1344.31C830.56 1340.1 829.25 1336.07 827.242 1332.33C827.174 1332.19 827.185 1332.03 827.276 1331.91L830.424 1327.57C830.503 1327.47 830.627 1327.41 830.751 1327.41C830.785 1327.41 830.808 1327.41 830.842 1327.41C834.205 1328.15 837.658 1328.4 841.089 1328.12C841.247 1328.1 841.394 1328.18 841.473 1328.32L841.45 1328.34ZM828.359 1345.02C828.37 1345.13 828.336 1345.25 828.269 1345.33C825.594 1348.41 822.186 1350.88 818.428 1352.46C818.326 1352.5 818.225 1352.5 818.123 1352.46C814.365 1350.87 810.957 1348.4 808.282 1345.33C808.214 1345.25 808.181 1345.13 808.192 1345.02C808.711 1340.94 809.986 1337.03 811.961 1333.42C812.018 1333.32 812.108 1333.25 812.221 1333.23C814.207 1332.81 816.238 1332.6 818.281 1332.6C820.324 1332.6 822.355 1332.81 824.341 1333.23C824.454 1333.25 824.544 1333.32 824.601 1333.42C826.576 1337.03 827.84 1340.94 828.37 1345.02H828.359ZM827.749 1317.01C827.749 1317.01 827.885 1316.9 828.02 1316.9C828.066 1316.9 828.122 1316.9 828.178 1316.93C832.331 1318.58 836.044 1321.29 838.933 1324.75C839.08 1324.92 839.024 1325.1 838.99 1325.17C838.967 1325.23 838.866 1325.41 838.629 1325.41C836.067 1325.44 833.516 1325.15 831.045 1324.56C830.943 1324.54 830.853 1324.47 830.797 1324.38C829.476 1322.2 828.415 1319.86 827.648 1317.42C827.58 1317.2 827.704 1317.06 827.761 1317.01H827.749ZM812.571 1315.66C816.306 1314.86 820.245 1314.86 823.98 1315.66C824.127 1315.69 824.251 1315.8 824.285 1315.95C825.086 1319.3 826.384 1322.51 828.133 1325.48C828.212 1325.61 828.201 1325.78 828.111 1325.92L824.985 1330.23C824.894 1330.35 824.736 1330.42 824.59 1330.38C820.459 1329.55 816.092 1329.55 811.961 1330.38C811.815 1330.42 811.657 1330.35 811.566 1330.23L808.44 1325.92C808.35 1325.79 808.339 1325.61 808.418 1325.48C810.167 1322.51 811.465 1319.3 812.266 1315.95C812.3 1315.8 812.424 1315.69 812.571 1315.66ZM797.618 1324.75C800.507 1321.28 804.219 1318.57 808.372 1316.93C808.429 1316.91 808.485 1316.9 808.53 1316.9C808.677 1316.9 808.767 1316.98 808.801 1317.01C808.858 1317.07 808.982 1317.2 808.914 1317.42C808.147 1319.87 807.086 1322.2 805.766 1324.38C805.709 1324.47 805.619 1324.54 805.517 1324.56C803.046 1325.15 800.495 1325.44 797.933 1325.41C797.697 1325.41 797.595 1325.23 797.572 1325.17C797.538 1325.1 797.482 1324.92 797.629 1324.75H797.618ZM795.101 1328.34C795.169 1328.22 795.304 1328.14 795.451 1328.14C795.451 1328.14 795.473 1328.14 795.485 1328.14C798.927 1328.41 802.38 1328.17 805.732 1327.43C805.89 1327.39 806.048 1327.45 806.138 1327.59L809.287 1331.92C809.377 1332.04 809.388 1332.21 809.32 1332.34C807.312 1336.08 806.003 1340.11 805.427 1344.32C805.404 1344.47 805.303 1344.59 805.156 1344.65L800.066 1346.31C799.92 1346.35 799.75 1346.31 799.649 1346.2C797.369 1343.61 794.728 1341.4 791.783 1339.59C791.659 1339.51 791.58 1339.37 791.591 1339.21C791.975 1335.34 793.16 1331.68 795.112 1328.35L795.101 1328.34ZM796.331 1356.15C796.263 1356.36 796.071 1356.41 795.992 1356.42C795.913 1356.42 795.733 1356.42 795.609 1356.24C793.205 1352.46 791.783 1348.08 791.501 1343.59C791.49 1343.36 791.636 1343.25 791.704 1343.22C791.772 1343.18 791.952 1343.1 792.133 1343.24C794.221 1344.72 796.117 1346.45 797.775 1348.38C797.843 1348.46 797.877 1348.57 797.866 1348.68C797.663 1351.22 797.144 1353.73 796.32 1356.16L796.331 1356.15ZM807.481 1366.45C803.96 1364.91 800.856 1362.64 798.261 1359.73C798.159 1359.61 798.125 1359.44 798.182 1359.31C799.502 1356.13 800.337 1352.77 800.665 1349.34C800.676 1349.19 800.789 1349.05 800.935 1349.01L805.969 1347.37C805.969 1347.37 806.048 1347.35 806.093 1347.35C806.206 1347.35 806.307 1347.39 806.386 1347.48C809.208 1350.64 812.74 1353.21 816.611 1354.92C816.758 1354.99 816.848 1355.12 816.848 1355.28V1360.57C816.848 1360.73 816.758 1360.88 816.611 1360.93C813.451 1362.3 810.517 1364.14 807.887 1366.38C807.774 1366.49 807.605 1366.51 807.47 1366.44L807.481 1366.45ZM825.233 1367.57C825.222 1367.65 825.165 1367.83 824.939 1367.89C820.583 1368.99 815.979 1368.99 811.623 1367.89C811.408 1367.83 811.341 1367.65 811.329 1367.57C811.318 1367.49 811.295 1367.31 811.487 1367.16C813.541 1365.64 815.776 1364.36 818.134 1363.38C818.236 1363.34 818.337 1363.34 818.439 1363.38C820.786 1364.36 823.021 1365.64 825.086 1367.16C825.267 1367.3 825.255 1367.49 825.244 1367.57H825.233ZM838.313 1359.74C835.717 1362.65 832.613 1364.91 829.092 1366.45C828.946 1366.52 828.788 1366.49 828.675 1366.4C826.045 1364.15 823.122 1362.31 819.951 1360.95C819.805 1360.88 819.714 1360.74 819.714 1360.58V1355.29C819.714 1355.13 819.805 1354.99 819.951 1354.93C823.822 1353.23 827.366 1350.65 830.176 1347.49C830.255 1347.4 830.356 1347.36 830.469 1347.36C830.514 1347.36 830.548 1347.36 830.593 1347.38L835.627 1349.02C835.773 1349.06 835.886 1349.2 835.898 1349.36C836.225 1352.79 837.06 1356.13 838.38 1359.32C838.437 1359.46 838.414 1359.62 838.301 1359.74H838.313ZM840.953 1356.25C840.829 1356.44 840.637 1356.44 840.57 1356.43C840.491 1356.43 840.31 1356.37 840.231 1356.16C839.419 1353.73 838.899 1351.22 838.685 1348.68C838.685 1348.58 838.708 1348.46 838.775 1348.38C840.434 1346.45 842.33 1344.73 844.418 1343.24C844.497 1343.18 844.576 1343.16 844.644 1343.16C844.734 1343.16 844.802 1343.19 844.847 1343.22C844.915 1343.25 845.073 1343.36 845.05 1343.59C844.768 1348.08 843.346 1352.46 840.942 1356.24L840.953 1356.25Z" fill="#E3E3E3"/>
            <path d="M818.275 1122.62C788.648 1122.62 764.551 1098.51 764.551 1068.89C764.551 1039.28 788.659 1015.17 818.275 1015.17C847.891 1015.17 871.999 1039.28 871.999 1068.89C871.999 1098.51 847.891 1122.62 818.275 1122.62ZM818.275 1018.75C790.623 1018.75 768.129 1041.24 768.129 1068.89C768.129 1096.54 790.623 1119.04 818.275 1119.04C845.927 1119.04 868.421 1096.54 868.421 1068.89C868.421 1041.24 845.927 1018.75 818.275 1018.75Z" fill="#478BF9"/>
            <path d="M853.321 1030.56L836.689 1047.2L839.962 1050.47L856.594 1033.84L853.321 1030.56Z" fill="#478BF9"/>
            <path d="M796.075 1087.81L779.443 1104.44L782.715 1107.71L799.347 1091.08L796.075 1087.81Z" fill="#478BF9"/>
            <path d="M840.466 1087.83L837.193 1091.1L853.825 1107.73L857.097 1104.46L840.466 1087.83Z" fill="#478BF9"/>
            <path d="M782.712 1030.06L779.439 1033.34L796.063 1049.96L799.336 1046.69L782.712 1030.06Z" fill="#478BF9"/>
            <path d="M831.378 1070.34C832.462 1069.25 832.462 1067.5 831.378 1066.43L829.076 1064.14C827.992 1063.06 826.243 1063.06 825.171 1064.14L823.929 1065.38L822.496 1063.95C821.412 1062.87 819.663 1062.87 818.59 1063.95L817.349 1065.2L815.916 1063.76C814.832 1062.67 813.083 1062.67 812.01 1063.76L804.392 1071.38C804.336 1071.43 804.336 1071.52 804.392 1071.59C805.408 1072.61 807.067 1072.61 808.094 1071.59L813.004 1066.68C813.534 1066.15 814.392 1066.15 814.922 1066.68L815.283 1067.04C815.351 1067.11 815.351 1067.21 815.283 1067.28L811.186 1071.38C811.13 1071.43 811.13 1071.52 811.186 1071.59C812.202 1072.61 813.861 1072.61 814.888 1071.59L819.595 1066.88C820.125 1066.35 820.983 1066.35 821.514 1066.88L821.875 1067.24C821.931 1067.3 821.931 1067.39 821.875 1067.46L817.925 1071.41C817.868 1071.47 817.868 1071.56 817.925 1071.62C818.94 1072.64 820.599 1072.64 821.627 1071.62L826.175 1067.08C826.706 1066.54 827.563 1066.54 828.094 1067.08L828.872 1067.85C829.177 1068.16 829.177 1068.67 828.872 1068.97L828.748 1069.1C828.444 1069.4 827.936 1069.4 827.631 1069.1L826.626 1068.09C826.57 1068.03 826.48 1068.03 826.412 1068.09L824.674 1069.83C824.617 1069.89 824.617 1069.98 824.674 1070.04L826.243 1071.61C827.326 1072.7 829.076 1072.7 830.148 1071.61L831.389 1070.37L831.378 1070.34Z" fill="#478BF9"/>
            <path d="M818.276 1027.7C795.522 1027.7 777.08 1046.14 777.08 1068.89C777.08 1091.65 795.522 1110.09 818.276 1110.09C841.03 1110.09 859.472 1091.65 859.472 1068.89C859.472 1046.14 841.03 1027.7 818.276 1027.7ZM819.958 1040.42C826.572 1040.8 832.576 1043.44 837.226 1047.57L831.278 1053.52C828.174 1050.89 824.258 1049.19 819.958 1048.82V1040.42ZM816.606 1040.42V1048.82C812.305 1049.17 808.389 1050.89 805.285 1053.52L799.337 1047.57C803.987 1043.44 809.992 1040.8 816.606 1040.42ZM796.967 1049.94L802.915 1055.89C800.285 1058.99 798.581 1062.91 798.22 1067.21H789.811C790.195 1060.6 792.836 1054.59 796.967 1049.94ZM789.811 1070.56H798.22C798.57 1074.86 800.285 1078.78 802.915 1081.88L796.967 1087.83C792.836 1083.18 790.195 1077.18 789.811 1070.56ZM816.606 1097.36C809.992 1096.97 803.987 1094.33 799.337 1090.2L805.285 1084.25C808.389 1086.88 812.305 1088.59 816.606 1088.95V1097.36ZM800.962 1068.88C800.962 1059.32 808.716 1051.57 818.276 1051.57C827.836 1051.57 835.59 1059.32 835.59 1068.88C835.59 1078.44 827.836 1086.19 818.276 1086.19C808.716 1086.19 800.962 1078.44 800.962 1068.88ZM819.958 1097.36V1088.95C824.258 1088.6 828.174 1086.88 831.278 1084.25L837.226 1090.2C832.576 1094.33 826.572 1096.97 819.958 1097.36ZM839.596 1087.83L833.648 1081.88C836.278 1078.78 837.982 1074.86 838.343 1070.56H846.752C846.368 1077.18 843.727 1083.18 839.596 1087.83ZM838.343 1067.21C837.994 1062.91 836.278 1058.99 833.648 1055.89L839.596 1049.94C843.727 1054.59 846.368 1060.6 846.752 1067.21H838.343Z" fill="#478BF9"/>
            <path d="M780.269 970.45C759.311 949.493 759.311 915.396 780.269 894.439C801.226 873.481 835.323 873.481 856.281 894.439C877.238 915.396 877.238 949.493 856.281 970.45C835.323 991.408 801.226 991.408 780.269 970.45ZM853.748 896.972C834.187 877.411 802.363 877.411 782.807 896.972C763.246 916.533 763.246 948.356 782.807 967.912C802.368 987.473 834.192 987.473 853.748 967.912C873.309 948.351 873.309 916.528 853.748 896.972Z" fill="#E3E3E3"/>
            <path d="M854.329 921.042C854.141 920.854 853.988 920.614 853.901 920.349C852.041 914.845 849.003 909.967 844.875 905.839C840.752 901.716 835.869 898.678 830.365 896.813C829.636 896.563 829.146 895.885 829.146 895.115V882.053C829.146 881.502 829.401 880.982 829.835 880.641C830.273 880.299 830.839 880.182 831.369 880.315C840.777 882.669 849.39 887.552 856.271 894.438C863.151 901.323 868.034 909.931 870.389 919.34C870.521 919.875 870.399 920.441 870.063 920.879C869.721 921.317 869.201 921.567 868.651 921.567H855.588C855.099 921.567 854.65 921.368 854.319 921.037L854.329 921.042ZM847.408 903.306C851.618 907.516 854.793 912.449 856.862 917.984H866.311C863.936 910.074 859.619 902.847 853.743 896.971C847.867 891.094 840.64 886.777 832.735 884.407V893.857C838.27 895.921 843.203 899.096 847.413 903.311L847.408 903.306Z" fill="#E3E3E3"/>
            <path d="M780.271 970.448C773.391 963.568 768.503 954.955 766.148 945.546C766.016 945.011 766.138 944.445 766.474 944.012C766.816 943.574 767.336 943.324 767.886 943.324H780.949C781.718 943.324 782.401 943.813 782.646 944.542C784.506 950.046 787.544 954.924 791.672 959.052C795.795 963.176 800.678 966.213 806.183 968.079C806.911 968.323 807.401 969.006 807.401 969.776V982.838C807.401 983.389 807.146 983.909 806.713 984.25C806.274 984.592 805.708 984.709 805.173 984.576C795.765 982.222 787.157 977.339 780.271 970.459V970.448ZM770.236 946.902C772.611 954.812 776.928 962.039 782.804 967.915C788.681 973.792 795.908 978.109 803.818 980.484V971.035C798.283 968.97 793.349 965.795 789.139 961.585C784.929 957.376 781.754 952.442 779.685 946.907H770.236V946.902Z" fill="#E3E3E3"/>
            <path d="M829.675 984.098C829.339 983.762 829.15 983.308 829.15 982.829V969.766C829.15 968.997 829.64 968.314 830.369 968.069C835.873 966.209 840.75 963.171 844.879 959.043C849.007 954.914 852.04 950.037 853.905 944.533C854.15 943.804 854.833 943.314 855.602 943.314H868.665C869.215 943.314 869.735 943.569 870.077 944.002C870.418 944.436 870.535 945.007 870.403 945.537C868.043 954.945 863.16 963.553 856.28 970.439C849.399 977.325 840.786 982.207 831.378 984.562C830.842 984.694 830.277 984.572 829.844 984.236C829.787 984.185 829.731 984.139 829.68 984.088L829.675 984.098ZM832.733 971.03V980.479C840.643 978.104 847.87 973.787 853.747 967.911C859.623 962.035 863.935 954.807 866.315 946.897H856.866C854.802 952.432 851.627 957.361 847.412 961.576C843.202 965.786 838.268 968.966 832.733 971.03Z" fill="#E3E3E3"/>
            <path d="M766.614 921.042C766.563 920.991 766.512 920.935 766.471 920.879C766.13 920.446 766.013 919.875 766.145 919.34C768.5 909.932 773.382 901.318 780.268 894.438C787.154 887.557 795.762 882.67 805.17 880.315C805.705 880.182 806.271 880.305 806.704 880.641C807.138 880.983 807.392 881.502 807.392 882.053V895.116C807.392 895.885 806.903 896.568 806.174 896.813C800.67 898.673 795.792 901.711 791.664 905.839C787.541 909.962 784.503 914.845 782.638 920.349C782.393 921.078 781.71 921.567 780.941 921.567H767.878C767.399 921.567 766.94 921.379 766.609 921.047L766.614 921.042ZM803.809 884.407C795.899 886.783 788.672 891.099 782.796 896.976C776.919 902.852 772.608 910.079 770.227 917.989H779.677C781.741 912.454 784.916 907.526 789.131 903.311C793.341 899.101 798.274 895.926 803.809 893.857V884.407Z" fill="#E3E3E3"/>
            <path d="M847.41 903.307C831.345 887.242 805.199 887.237 789.134 903.307C773.065 919.377 773.07 945.518 789.134 961.582C805.199 977.647 831.34 977.652 847.41 961.582C863.48 945.513 863.474 919.372 847.41 903.307Z" fill="#E3E3E3"/>
            <path d="M833.13 947.152L803.529 947.349C802.282 947.357 801.278 948.375 801.286 949.622L801.293 950.677C801.302 951.923 802.319 952.928 803.566 952.919L833.167 952.723C834.414 952.715 835.418 951.697 835.41 950.45L835.403 949.395C835.395 948.148 834.377 947.144 833.13 947.152Z" fill="#110A1D"/>
            <path d="M807.564 929.285C807.243 929.285 806.917 929.214 806.621 929.071L804.312 927.955C803.308 927.466 802.85 926.278 803.268 925.244L804.328 922.604C804.654 921.798 805.423 921.273 806.29 921.268C806.662 921.268 807.029 921.36 807.355 921.549L810.107 923.118C810.622 923.409 810.994 923.913 811.127 924.494C811.259 925.076 811.142 925.687 810.806 926.176L809.297 928.363C808.904 928.934 808.252 929.28 807.559 929.28L807.564 929.285Z" fill="#110A1D"/>
            <path d="M828.872 929.142C828.179 929.142 827.522 928.811 827.124 928.245L825.631 926.141C825.284 925.656 825.162 925.045 825.284 924.464C825.407 923.883 825.774 923.373 826.289 923.072L829.127 921.406C829.448 921.217 829.815 921.115 830.187 921.11C831.054 921.105 831.834 921.62 832.17 922.42L833.24 924.984C833.668 926.013 833.225 927.211 832.231 927.71L829.815 928.918C829.525 929.061 829.199 929.142 828.878 929.142H828.872Z" fill="#110A1D"/>
            <path d="M805.238 945.37C803.939 945.38 802.771 944.565 802.328 943.342L797.389 929.749C797.073 929.902 796.737 930.019 796.396 930.106C795.993 930.208 795.585 930.258 795.172 930.258C794.933 930.258 794.698 930.248 794.469 930.218C791.895 929.892 789.943 927.685 789.928 925.085C789.907 922.211 792.232 919.856 795.106 919.836C797.981 919.815 800.335 922.14 800.351 925.014C800.351 925.677 800.238 926.314 800.004 926.91C799.877 927.236 799.719 927.547 799.535 927.843L808.928 932.389L816.115 921.976C815.814 921.849 815.523 921.691 815.248 921.502C814.728 921.151 814.275 920.712 813.908 920.198C813.286 919.321 812.949 918.286 812.944 917.216C812.924 914.342 815.248 911.987 818.123 911.967C818.25 911.967 818.383 911.967 818.51 911.977C821.084 912.15 823.163 914.214 823.352 916.788C823.438 918.006 823.117 919.173 822.424 920.167C822.057 920.687 821.609 921.13 821.094 921.482C820.824 921.671 820.533 921.829 820.233 921.956L827.546 932.261L836.787 927.639C836.613 927.308 836.476 926.961 836.374 926.599C836.252 926.161 836.185 925.702 836.185 925.238C836.185 925.029 836.195 924.82 836.216 924.616C836.511 921.997 838.723 920.009 841.358 919.994C844.233 919.973 846.588 922.298 846.603 925.172C846.623 927.914 844.493 930.218 841.756 930.406L841.43 930.416C840.9 930.416 840.38 930.345 839.875 930.192C839.549 930.09 839.233 929.963 838.937 929.8L834.299 943.128C833.876 944.356 832.714 945.182 831.415 945.192L805.238 945.365V945.37Z" fill="#110A1D"/>
            <path d="M872 802.182V930.495C872 931.556 871.134 932.404 870.076 932.404C869.019 932.404 868.152 931.544 868.152 930.495V802.182C868.152 801.121 869.019 800.272 870.076 800.272C871.134 800.272 872 801.132 872 802.182Z" fill="#E3E3E3"/>
            <path d="M768.399 802.182V930.495C768.399 931.556 767.532 932.404 766.475 932.404C765.417 932.404 764.551 931.544 764.551 930.495V802.182C764.551 801.121 765.417 800.272 766.475 800.272C767.532 800.272 768.399 801.132 768.399 802.182Z" fill="#E3E3E3"/>
            <path d="M871.977 801.712C871.977 802.784 871.108 803.642 870.048 803.642C868.987 803.642 868.119 802.773 868.119 801.712C868.119 774.23 845.758 751.869 818.276 751.869C790.793 751.869 768.433 774.23 768.433 801.712C768.433 802.784 767.564 803.642 766.503 803.642C765.443 803.642 764.574 802.773 764.574 801.712C764.574 772.098 788.672 748 818.287 748C847.902 748 872 772.098 872 801.712H871.977Z" fill="#E3E3E3"/>
        </g>
        <g opacity="0.25">
            <path d="M636.844 1272.43C636.844 1242.82 660.932 1218.74 690.534 1218.74C720.136 1218.74 744.224 1242.82 744.224 1272.43C744.224 1302.03 720.136 1326.12 690.534 1326.12C660.932 1326.12 636.844 1302.03 636.844 1272.43ZM740.356 1272.43C740.356 1244.95 718.005 1222.6 690.534 1222.6C663.063 1222.6 640.712 1244.95 640.712 1272.43C640.712 1299.9 663.063 1322.25 690.534 1322.25C718.005 1322.25 740.356 1299.9 740.356 1272.43Z" fill="#478BF9"/>
            <path d="M636.843 1403.68C636.843 1402.61 637.711 1401.75 638.771 1401.75C639.831 1401.75 640.7 1402.62 640.7 1403.68C640.7 1431.15 663.051 1453.5 690.522 1453.5C717.993 1453.5 740.344 1431.15 740.344 1403.68C740.344 1402.61 741.212 1401.75 742.272 1401.75C743.332 1401.75 744.2 1402.62 744.2 1403.68C744.2 1433.28 720.113 1457.37 690.51 1457.37C660.908 1457.37 636.82 1433.28 636.82 1403.68H636.843Z" fill="#478BF9"/>
            <path d="M742.587 1271.13H719.074V1275.76H742.587V1271.13Z" fill="#478BF9"/>
            <path d="M661.63 1271.13H638.117V1275.76H661.63V1271.13Z" fill="#478BF9"/>
            <path d="M693.036 1302.52H688.401V1326.04H693.036V1302.52Z" fill="#478BF9"/>
            <path d="M693.036 1220.86H688.401V1244.37H693.036V1220.86Z" fill="#478BF9"/>
            <path d="M718.365 1244.03C702.284 1227.95 676.2 1227.95 660.108 1244.03C644.027 1260.11 644.027 1286.19 660.108 1302.29C676.189 1318.37 702.273 1318.37 718.365 1302.29C734.446 1286.21 734.446 1260.12 718.365 1244.03ZM697.198 1247.51C701.889 1248.97 706.095 1251.69 709.366 1255.39L709.997 1256.1L709.073 1256.31C706.626 1256.89 704.009 1257.36 701.303 1257.71L700.818 1257.78L700.683 1257.3C700.231 1255.76 699.701 1254.27 699.092 1252.89C698.337 1251.17 697.491 1249.66 696.566 1248.38L695.551 1247L697.198 1247.5V1247.51ZM678.377 1271.87L678.399 1271.29C678.512 1267.72 678.907 1264.32 679.583 1261.18L679.685 1260.69L680.192 1260.73C686.124 1261.25 692.462 1261.23 698.359 1260.67L698.867 1260.63L698.98 1261.13C699.668 1264.29 700.062 1267.71 700.164 1271.29V1271.87H678.388H678.377ZM700.164 1274.49V1275.08C700.04 1278.65 699.645 1282.07 698.957 1285.24L698.844 1285.73L698.337 1285.69C692.439 1285.13 686.101 1285.12 680.17 1285.63L679.662 1285.68L679.561 1285.18C678.884 1282.04 678.489 1278.65 678.377 1275.08L678.354 1274.49H700.141H700.164ZM689.27 1246.53C692.552 1246.53 695.89 1250.69 697.976 1257.4L698.19 1258.08L697.48 1258.14C694.706 1258.37 691.841 1258.5 688.966 1258.5C686.293 1258.5 683.632 1258.4 681.038 1258.18L680.327 1258.13L680.542 1257.44C682.628 1250.71 685.977 1246.52 689.27 1246.52V1246.53ZM669.062 1255.51C672.355 1251.75 676.595 1248.99 681.342 1247.53L683 1247.02L681.974 1248.42C681.049 1249.68 680.192 1251.2 679.448 1252.92C678.85 1254.27 678.309 1255.78 677.835 1257.4L677.7 1257.87L677.215 1257.81C674.486 1257.47 671.847 1257.02 669.366 1256.45L668.43 1256.23L669.062 1255.51ZM662.476 1271.26C662.792 1266.87 664.201 1262.58 666.558 1258.85L666.784 1258.5L667.19 1258.6C670.077 1259.33 673.189 1259.92 676.459 1260.34L677.068 1260.41L676.944 1261.02C676.268 1264.29 675.884 1267.76 675.783 1271.32V1271.87H662.442L662.487 1271.26H662.476ZM666.784 1287.86L666.558 1287.51C664.201 1283.79 662.792 1279.5 662.476 1275.1L662.431 1274.49H675.76V1275.04C675.873 1278.6 676.268 1282.08 676.933 1285.34L677.057 1285.95L676.448 1286.03C673.189 1286.44 670.065 1287.03 667.178 1287.76L666.772 1287.86H666.784ZM681.342 1298.85C676.595 1297.38 672.355 1294.62 669.062 1290.86L668.43 1290.14L669.366 1289.93C671.847 1289.36 674.486 1288.9 677.215 1288.56L677.7 1288.51L677.835 1288.97C678.309 1290.59 678.85 1292.1 679.448 1293.46C680.203 1295.18 681.049 1296.69 681.974 1297.97L683 1299.37L681.342 1298.86V1298.85ZM689.27 1299.83C685.977 1299.83 682.628 1295.64 680.542 1288.91L680.327 1288.22L681.038 1288.17C686.417 1287.74 692.146 1287.75 697.48 1288.21L698.19 1288.27L697.976 1288.95C695.879 1295.64 692.541 1299.82 689.27 1299.82V1299.83ZM709.366 1290.98C706.095 1294.67 701.878 1297.39 697.198 1298.85L695.551 1299.35L696.566 1297.97C697.491 1296.7 698.337 1295.18 699.092 1293.46C699.69 1292.07 700.231 1290.59 700.683 1289.05L700.818 1288.57L701.303 1288.64C704.009 1288.99 706.626 1289.46 709.073 1290.04L709.997 1290.27L709.366 1290.98ZM716.053 1275.1C715.737 1279.54 714.305 1283.88 711.892 1287.65L711.666 1288L711.26 1287.9C708.407 1287.14 705.306 1286.54 702.058 1286.1L701.449 1286.03L701.573 1285.43C702.25 1282.16 702.645 1278.67 702.746 1275.05V1274.5H716.087L716.042 1275.11L716.053 1275.1ZM702.769 1271.87V1271.32C702.656 1267.7 702.261 1264.2 701.585 1260.94L701.461 1260.35L702.07 1260.27C705.317 1259.83 708.407 1259.23 711.272 1258.48L711.678 1258.37L711.903 1258.72C714.316 1262.49 715.76 1266.82 716.064 1271.27L716.11 1271.88H702.78L702.769 1271.87Z" fill="#478BF9"/>
            <path d="M636.776 1404.49V1274.92C636.776 1273.85 637.645 1272.99 638.705 1272.99C639.765 1272.99 640.633 1273.86 640.633 1274.92V1404.49C640.633 1405.56 639.765 1406.42 638.705 1406.42C637.645 1406.42 636.776 1405.55 636.776 1404.49Z" fill="#478BF9"/>
            <path d="M740.3 1404.78V1275.21C740.3 1274.14 741.168 1273.28 742.228 1273.28C743.288 1273.28 744.157 1274.15 744.157 1275.21V1404.78C744.157 1405.85 743.288 1406.71 742.228 1406.71C741.168 1406.71 740.3 1405.84 740.3 1404.78Z" fill="#478BF9"/>
            <path d="M652.494 1173.98C631.537 1153.02 631.537 1118.92 652.494 1097.96C673.452 1077.01 707.549 1077.01 728.506 1097.96C749.464 1118.92 749.464 1153.02 728.506 1173.98C707.549 1194.93 673.452 1194.93 652.494 1173.98ZM725.973 1100.5C706.412 1080.94 674.589 1080.94 655.033 1100.5C635.472 1120.06 635.472 1151.88 655.033 1171.44C674.594 1191 706.417 1191 725.973 1171.44C745.534 1151.88 745.534 1120.05 725.973 1100.5Z" fill="#E3E3E3"/>
            <path d="M726.556 1124.57C726.367 1124.38 726.214 1124.14 726.128 1123.88C724.267 1118.37 721.23 1113.49 717.101 1109.37C712.978 1105.24 708.096 1102.21 702.591 1100.34C701.862 1100.09 701.373 1099.41 701.373 1098.64V1085.58C701.373 1085.03 701.628 1084.51 702.061 1084.17C702.499 1083.83 703.065 1083.71 703.595 1083.84C713.004 1086.2 721.617 1091.08 728.498 1097.96C735.378 1104.85 740.261 1113.46 742.615 1122.87C742.748 1123.4 742.626 1123.97 742.289 1124.41C741.948 1124.84 741.428 1125.09 740.877 1125.09H727.815C727.325 1125.09 726.877 1124.9 726.546 1124.56L726.556 1124.57ZM719.634 1106.83C723.844 1111.04 727.019 1115.98 729.089 1121.51H738.538C736.163 1113.6 731.846 1106.37 725.97 1100.5C720.093 1094.62 712.866 1090.3 704.961 1087.93V1097.38C710.496 1099.45 715.43 1102.62 719.639 1106.84L719.634 1106.83Z" fill="#E3E3E3"/>
            <path d="M652.497 1173.98C645.616 1167.1 640.728 1158.48 638.374 1149.07C638.241 1148.54 638.364 1147.97 638.7 1147.54C639.041 1147.1 639.561 1146.85 640.112 1146.85H653.174C653.944 1146.85 654.627 1147.34 654.872 1148.07C656.732 1153.57 659.77 1158.45 663.898 1162.58C668.021 1166.7 672.904 1169.74 678.408 1171.61C679.137 1171.85 679.626 1172.53 679.626 1173.3V1186.37C679.626 1186.92 679.371 1187.44 678.938 1187.78C678.5 1188.12 677.934 1188.24 677.399 1188.1C667.99 1185.75 659.382 1180.87 652.497 1173.99V1173.98ZM642.461 1150.43C644.836 1158.34 649.153 1165.57 655.03 1171.44C660.906 1177.32 668.133 1181.64 676.043 1184.01V1174.56C670.508 1172.5 665.575 1169.32 661.365 1165.11C657.155 1160.9 653.98 1155.97 651.91 1150.44H642.461V1150.43Z" fill="#E3E3E3"/>
            <path d="M701.901 1187.63C701.565 1187.29 701.376 1186.84 701.376 1186.36V1173.29C701.376 1172.52 701.865 1171.84 702.594 1171.6C708.098 1169.74 712.976 1166.7 717.104 1162.57C721.233 1158.44 724.265 1153.56 726.13 1148.06C726.375 1147.33 727.058 1146.84 727.828 1146.84H740.89C741.441 1146.84 741.961 1147.1 742.302 1147.53C742.644 1147.96 742.761 1148.53 742.628 1149.06C740.269 1158.47 735.386 1167.08 728.506 1173.97C721.625 1180.85 713.012 1185.73 703.603 1188.09C703.068 1188.22 702.502 1188.1 702.069 1187.76C702.013 1187.71 701.957 1187.67 701.906 1187.62L701.901 1187.63ZM704.959 1174.56V1184.01C712.869 1181.63 720.096 1177.31 725.973 1171.44C731.849 1165.56 736.161 1158.33 738.541 1150.42H729.092C727.028 1155.96 723.852 1160.89 719.637 1165.1C715.427 1169.31 710.494 1172.49 704.959 1174.56Z" fill="#E3E3E3"/>
            <path d="M638.839 1124.57C638.789 1124.52 638.738 1124.46 638.697 1124.41C638.355 1123.97 638.238 1123.4 638.371 1122.87C640.725 1113.46 645.608 1104.85 652.493 1097.97C659.379 1091.08 667.987 1086.2 677.396 1083.84C677.931 1083.71 678.497 1083.83 678.93 1084.17C679.363 1084.51 679.618 1085.03 679.618 1085.58V1098.64C679.618 1099.41 679.129 1100.1 678.4 1100.34C672.895 1102.2 668.018 1105.24 663.89 1109.37C659.766 1113.49 656.729 1118.37 654.863 1123.88C654.619 1124.61 653.936 1125.09 653.166 1125.09H640.103C639.624 1125.09 639.166 1124.91 638.834 1124.57L638.839 1124.57ZM676.035 1087.93C668.125 1090.31 660.898 1094.63 655.021 1100.5C649.145 1106.38 644.833 1113.61 642.453 1121.52H651.902C653.966 1115.98 657.142 1111.05 661.357 1106.84C665.566 1102.63 670.5 1099.45 676.035 1097.38V1087.93Z" fill="#E3E3E3"/>
            <path d="M719.636 1106.83C703.572 1090.77 677.426 1090.76 661.361 1106.83C645.291 1122.9 645.296 1149.04 661.361 1165.11C677.426 1181.17 703.566 1181.18 719.636 1165.11C735.706 1149.04 735.701 1122.9 719.636 1106.83Z" fill="#E3E3E3"/>
            <path d="M705.365 1150.68L675.765 1150.87C674.518 1150.88 673.514 1151.9 673.522 1153.15L673.529 1154.2C673.537 1155.45 674.555 1156.45 675.802 1156.44L705.402 1156.25C706.649 1156.24 707.653 1155.22 707.645 1153.98L707.638 1152.92C707.63 1151.67 706.612 1150.67 705.365 1150.68Z" fill="#110A1D"/>
            <path d="M679.796 1132.81C679.475 1132.81 679.149 1132.74 678.854 1132.6L676.545 1131.48C675.541 1130.99 675.082 1129.8 675.5 1128.77L676.56 1126.13C676.886 1125.32 677.656 1124.8 678.522 1124.79C678.894 1124.79 679.261 1124.88 679.587 1125.07L682.34 1126.64C682.854 1126.93 683.227 1127.44 683.359 1128.02C683.492 1128.6 683.374 1129.21 683.038 1129.7L681.529 1131.89C681.137 1132.46 680.485 1132.8 679.791 1132.8L679.796 1132.81Z" fill="#110A1D"/>
            <path d="M701.1 1132.67C700.407 1132.67 699.749 1132.34 699.352 1131.77L697.859 1129.67C697.512 1129.18 697.39 1128.57 697.512 1127.99C697.634 1127.41 698.001 1126.9 698.516 1126.6L701.355 1124.93C701.676 1124.74 702.043 1124.64 702.415 1124.64C703.281 1124.63 704.061 1125.15 704.398 1125.95L705.468 1128.51C705.896 1129.54 705.453 1130.74 704.459 1131.24L702.043 1132.44C701.752 1132.59 701.426 1132.67 701.105 1132.67H701.1Z" fill="#110A1D"/>
            <path d="M677.47 1148.9C676.17 1148.91 675.003 1148.09 674.559 1146.87L669.621 1133.27C669.305 1133.43 668.968 1133.54 668.627 1133.63C668.224 1133.73 667.817 1133.78 667.404 1133.78C667.164 1133.78 666.93 1133.77 666.7 1133.74C664.127 1133.42 662.175 1131.21 662.159 1128.61C662.139 1125.74 664.463 1123.38 667.337 1123.36C670.212 1123.34 672.567 1125.66 672.582 1128.54C672.582 1129.2 672.47 1129.84 672.235 1130.44C672.108 1130.76 671.95 1131.07 671.767 1131.37L681.16 1135.91L688.346 1125.5C688.045 1125.37 687.755 1125.22 687.48 1125.03C686.96 1124.68 686.506 1124.24 686.139 1123.72C685.517 1122.85 685.181 1121.81 685.176 1120.74C685.155 1117.87 687.48 1115.51 690.354 1115.49C690.481 1115.49 690.614 1115.49 690.741 1115.5C693.315 1115.68 695.395 1117.74 695.583 1120.31C695.67 1121.53 695.349 1122.7 694.656 1123.69C694.289 1124.21 693.84 1124.66 693.325 1125.01C693.055 1125.2 692.765 1125.35 692.464 1125.48L699.778 1135.79L709.018 1131.16C708.845 1130.83 708.707 1130.49 708.605 1130.12C708.483 1129.69 708.417 1129.23 708.417 1128.76C708.417 1128.55 708.427 1128.35 708.447 1128.14C708.743 1125.52 710.955 1123.53 713.59 1123.52C716.464 1123.5 718.819 1125.82 718.834 1128.7C718.855 1131.44 716.724 1133.74 713.987 1133.93L713.661 1133.94C713.131 1133.94 712.611 1133.87 712.107 1133.72C711.78 1133.62 711.464 1133.49 711.169 1133.33L706.531 1146.65C706.108 1147.88 704.946 1148.71 703.646 1148.72L677.47 1148.89V1148.9Z" fill="#110A1D"/>
            <path d="M690.5 1053.21C676.733 1053.21 662.977 1047.97 652.493 1037.49C631.537 1016.54 631.537 982.451 652.493 961.498C662.65 951.344 676.146 945.759 690.5 945.759C704.855 945.759 718.351 951.344 728.507 961.498C749.463 982.451 749.463 1016.54 728.507 1037.49C718.035 1047.96 704.268 1053.21 690.5 1053.21ZM655.314 1034.67C674.713 1054.06 706.276 1054.06 725.675 1034.67C745.074 1015.27 745.074 983.715 725.675 964.319C716.275 954.92 703.783 949.753 690.489 949.753C677.196 949.753 664.703 954.932 655.303 964.319C635.905 983.715 635.905 1015.27 655.303 1034.67H655.314Z" fill="#7DDACF"/>
            <path d="M692.49 988.183L682.537 1002.13H688.507V1012.08L698.46 998.146H692.49V988.183Z" fill="#7DDACF"/>
            <path d="M690.492 980.431C679.59 980.431 670.743 989.277 670.743 1000.18C670.743 1011.08 679.59 1019.9 690.492 1019.9C701.393 1019.9 710.24 1011.05 710.24 1000.18C710.24 989.3 701.393 980.431 690.492 980.431ZM690.492 1017.46C680.922 1017.46 673.158 1009.7 673.158 1000.13C673.158 990.564 680.922 982.801 690.492 982.801C700.061 982.801 707.825 990.564 707.825 1000.13C707.825 1009.7 700.061 1017.46 690.492 1017.46Z" fill="#7DDACF"/>
            <path d="M721.019 968.98C712.871 960.822 702.026 956.343 690.493 956.343C678.96 956.343 668.127 960.833 659.968 968.98C643.142 985.802 643.142 1013.19 659.968 1030.02C668.386 1038.44 679.434 1042.65 690.493 1042.65C701.552 1042.65 712.6 1038.44 721.019 1030.02C737.844 1013.2 737.844 985.814 721.019 968.98ZM690.493 1026.96C675.733 1026.96 663.714 1014.95 663.714 1000.19C663.714 993.667 666.05 987.687 669.932 983.016L666.66 979.743C665.723 978.807 665.723 977.284 666.66 976.336C667.596 975.388 669.12 975.4 670.068 976.336L673.34 979.608C677.403 976.212 682.515 973.978 688.089 973.504V971.293H685.878C683.925 971.293 682.312 969.679 682.312 967.727V965.865C682.312 963.891 683.925 962.3 685.878 962.3H695.131C697.084 962.3 698.697 963.891 698.697 965.865V967.727C698.697 969.679 697.084 971.293 695.131 971.293H692.919V973.504C698.505 973.989 703.606 976.223 707.669 979.608L710.941 976.336C711.878 975.4 713.401 975.4 714.349 976.336C715.286 977.273 715.286 978.796 714.349 979.743L711.077 983.016C714.959 987.687 717.295 993.655 717.295 1000.19C717.295 1014.95 705.276 1026.96 690.516 1026.96H690.493Z" fill="#7DDACF"/>
            <path d="M690.5 916.718C660.873 916.718 636.776 892.61 636.776 862.994C636.776 833.378 660.884 809.27 690.5 809.27C720.116 809.27 744.224 833.378 744.224 862.994C744.224 892.61 720.116 916.718 690.5 916.718ZM690.5 812.848C662.848 812.848 640.354 835.342 640.354 862.994C640.354 890.646 662.848 913.14 690.5 913.14C718.152 913.14 740.647 890.646 740.647 862.994C740.647 835.342 718.152 812.848 690.5 812.848Z" fill="#E3E3E3"/>
            <path d="M725.556 824.659L708.924 841.291L712.196 844.563L728.828 827.931L725.556 824.659Z" fill="#E3E3E3"/>
            <path d="M668.308 881.911L651.676 898.543L654.948 901.815L671.58 885.183L668.308 881.911Z" fill="#E3E3E3"/>
            <path d="M712.703 881.907L709.431 885.179L726.063 901.811L729.335 898.539L712.703 881.907Z" fill="#E3E3E3"/>
            <path d="M654.959 824.154L651.687 827.427L668.311 844.051L671.583 840.778L654.959 824.154Z" fill="#E3E3E3"/>
            <path d="M703.616 864.438C704.7 863.355 704.7 861.605 703.616 860.533L701.314 858.242C700.23 857.159 698.481 857.159 697.409 858.242L696.167 859.484L694.734 858.05C693.65 856.967 691.901 856.967 690.829 858.05L689.587 859.303L688.154 857.858C687.07 856.775 685.321 856.775 684.249 857.858L676.63 865.477C676.574 865.533 676.574 865.623 676.63 865.691C677.646 866.707 679.305 866.707 680.332 865.691L685.242 860.781C685.772 860.251 686.63 860.251 687.161 860.781L687.522 861.143C687.589 861.21 687.589 861.312 687.522 861.38L683.425 865.477C683.368 865.533 683.368 865.623 683.425 865.691C684.441 866.707 686.1 866.707 687.127 865.691L691.833 860.985C692.364 860.454 693.221 860.454 693.752 860.985L694.113 861.346C694.17 861.402 694.17 861.493 694.113 861.56L690.163 865.511C690.106 865.567 690.106 865.657 690.163 865.725C691.179 866.741 692.838 866.741 693.865 865.725L698.413 861.177C698.944 860.646 699.802 860.646 700.332 861.177L701.111 861.955C701.415 862.26 701.415 862.768 701.111 863.073L700.987 863.197C700.682 863.502 700.174 863.502 699.869 863.197L698.865 862.192C698.808 862.136 698.718 862.136 698.65 862.192L696.912 863.93C696.856 863.987 696.856 864.077 696.912 864.145L698.481 865.714C699.565 866.797 701.314 866.797 702.386 865.714L703.628 864.472L703.616 864.438Z" fill="#E3E3E3"/>
            <path d="M690.502 821.787C667.748 821.787 649.306 840.229 649.306 862.983C649.306 885.736 667.748 904.179 690.502 904.179C713.255 904.179 731.698 885.736 731.698 862.983C731.698 840.229 713.255 821.787 690.502 821.787ZM692.183 834.507C698.797 834.891 704.802 837.532 709.452 841.662L703.504 847.611C700.4 844.981 696.483 843.276 692.183 842.915V834.507ZM688.831 834.507V842.915C684.531 843.265 680.615 844.981 677.511 847.611L671.563 841.662C676.213 837.532 682.217 834.891 688.831 834.507ZM669.193 844.033L675.141 849.981C672.511 853.084 670.807 857.001 670.445 861.301H662.037C662.421 854.687 665.062 848.683 669.193 844.033ZM662.037 864.653H670.445C670.795 868.953 672.511 872.87 675.141 875.974L669.193 881.922C665.062 877.272 662.421 871.267 662.037 864.653ZM688.831 891.447C682.217 891.064 676.213 888.423 671.563 884.292L677.511 878.344C680.615 880.974 684.531 882.678 688.831 883.039V891.447ZM673.188 862.971C673.188 853.412 680.942 845.658 690.502 845.658C700.061 845.658 707.815 853.412 707.815 862.971C707.815 872.531 700.061 880.285 690.502 880.285C680.942 880.285 673.188 872.531 673.188 862.971ZM692.183 891.447V883.039C696.483 882.689 700.4 880.974 703.504 878.344L709.452 884.292C704.802 888.423 698.797 891.064 692.183 891.447ZM711.822 881.922L705.874 875.974C708.504 872.87 710.208 868.953 710.569 864.653H718.978C718.594 871.267 715.953 877.272 711.822 881.922ZM710.569 861.301C710.219 857.001 708.504 853.084 705.874 849.981L711.822 844.033C715.953 848.683 718.594 854.687 718.978 861.301H710.569Z" fill="#E3E3E3"/>
        </g>
        <g opacity="0.15">
            <path d="M562.723 1530.19C548.956 1530.19 535.2 1524.95 524.717 1514.47C503.761 1493.52 503.761 1459.43 524.717 1438.48C534.873 1428.32 548.369 1422.74 562.723 1422.74C577.077 1422.74 590.574 1428.32 600.73 1438.48C621.686 1459.43 621.686 1493.52 600.73 1514.47C590.258 1524.94 576.491 1530.19 562.723 1530.19ZM527.538 1511.65C546.936 1531.04 578.499 1531.04 597.898 1511.65C617.296 1492.25 617.296 1460.7 597.898 1441.3C588.498 1431.9 576.005 1426.73 562.712 1426.73C549.419 1426.73 536.927 1431.91 527.527 1441.3C508.128 1460.7 508.128 1492.25 527.527 1511.65H527.538Z" fill="#9DADF2"/>
            <path d="M562.013 1496.58C562.205 1497.04 562.656 1497.31 563.13 1497.31C563.288 1497.31 563.446 1497.28 563.604 1497.22C567.396 1495.63 570.849 1493.17 573.58 1490.1C574.02 1489.6 573.975 1488.84 573.478 1488.4C572.982 1487.96 572.214 1488 571.774 1488.5C569.28 1491.31 566.132 1493.55 562.668 1495C562.058 1495.26 561.765 1495.97 562.024 1496.58H562.013Z" fill="#9DADF2"/>
            <path d="M583.204 1457.9L563.162 1449.89C562.869 1449.77 562.553 1449.77 562.259 1449.89L542.218 1457.9C541.755 1458.08 541.462 1458.52 541.462 1459.01V1473.37C541.484 1486.61 549.858 1498.58 562.293 1503.14C562.429 1503.19 562.564 1503.21 562.711 1503.21C562.858 1503.21 562.993 1503.19 563.128 1503.14C575.564 1498.57 583.937 1486.61 583.96 1473.37V1459.01C583.96 1458.52 583.666 1458.08 583.204 1457.9ZM581.545 1473.37C581.522 1485.42 573.962 1496.39 562.722 1500.72C551.483 1496.39 543.911 1485.42 543.888 1473.37V1459.84L562.722 1452.31L581.545 1459.84V1473.37Z" fill="#9DADF2"/>
            <path d="M554.35 1459.78C554.057 1459.66 553.73 1459.66 553.425 1459.78L548.652 1461.69C548.189 1461.87 547.896 1462.31 547.896 1462.81V1467.89C547.896 1468.56 548.437 1469.1 549.103 1469.1C549.769 1469.1 550.31 1468.56 550.31 1467.89V1463.63L554.316 1462.03C554.621 1461.9 554.847 1461.68 554.982 1461.37C555.106 1461.08 555.106 1460.75 554.982 1460.45C554.858 1460.14 554.632 1459.92 554.339 1459.78H554.35Z" fill="#9DADF2"/>
            <path d="M593.248 1445.96C585.101 1437.8 574.256 1433.32 562.723 1433.32C551.19 1433.32 540.357 1437.81 532.198 1445.96C515.373 1462.78 515.373 1490.17 532.198 1507C540.616 1515.42 551.664 1519.62 562.723 1519.62C573.782 1519.62 584.83 1515.41 593.248 1507C610.074 1490.18 610.074 1462.79 593.248 1445.96ZM587.278 1473.37C587.312 1488.68 577.529 1502.07 562.938 1506.71C562.802 1506.75 562.655 1506.75 562.509 1506.71C547.918 1502.07 538.134 1488.68 538.168 1473.37V1456.43C538.168 1456.15 538.337 1455.89 538.608 1455.78L562.464 1446.24C562.543 1446.21 562.633 1446.2 562.723 1446.2C562.813 1446.2 562.904 1446.21 562.983 1446.24L586.838 1455.79C587.109 1455.89 587.278 1456.15 587.278 1456.44V1473.38V1473.37Z" fill="#9DADF2"/>
            <path d="M562.724 1393.7C533.097 1393.7 509 1369.59 509 1339.98C509 1310.36 533.108 1286.25 562.724 1286.25C592.34 1286.25 616.448 1310.36 616.448 1339.98C616.448 1369.59 592.34 1393.7 562.724 1393.7ZM562.724 1289.83C535.072 1289.83 512.578 1312.32 512.578 1339.98C512.578 1367.63 535.072 1390.12 562.724 1390.12C590.376 1390.12 612.87 1367.63 612.87 1339.98C612.87 1312.32 590.376 1289.83 562.724 1289.83Z" fill="#7DDACF"/>
            <path d="M597.781 1301.64L581.149 1318.27L584.422 1321.54L601.054 1304.91L597.781 1301.64Z" fill="#7DDACF"/>
            <path d="M540.529 1358.89L523.897 1375.53L527.17 1378.8L543.802 1362.17L540.529 1358.89Z" fill="#7DDACF"/>
            <path d="M584.914 1358.9L581.642 1362.17L598.274 1378.81L601.546 1375.53L584.914 1358.9Z" fill="#7DDACF"/>
            <path d="M527.166 1301.15L523.894 1304.42L540.518 1321.04L543.79 1317.77L527.166 1301.15Z" fill="#7DDACF"/>
            <path d="M575.827 1341.42C576.911 1340.34 576.911 1338.59 575.827 1337.52L573.525 1335.22C572.441 1334.14 570.692 1334.14 569.62 1335.22L568.378 1336.47L566.945 1335.03C565.861 1333.95 564.112 1333.95 563.04 1335.03L561.798 1336.29L560.365 1334.84C559.281 1333.76 557.532 1333.76 556.46 1334.84L548.841 1342.46C548.785 1342.52 548.785 1342.61 548.841 1342.67C549.857 1343.69 551.516 1343.69 552.543 1342.67L557.453 1337.76C557.983 1337.23 558.841 1337.23 559.372 1337.76L559.733 1338.13C559.8 1338.19 559.8 1338.29 559.733 1338.36L555.636 1342.46C555.579 1342.52 555.579 1342.61 555.636 1342.67C556.651 1343.69 558.311 1343.69 559.338 1342.67L564.044 1337.97C564.575 1337.44 565.432 1337.44 565.963 1337.97L566.324 1338.33C566.38 1338.38 566.38 1338.48 566.324 1338.54L562.374 1342.49C562.317 1342.55 562.317 1342.64 562.374 1342.71C563.39 1343.72 565.049 1343.72 566.076 1342.71L570.624 1338.16C571.155 1337.63 572.012 1337.63 572.543 1338.16L573.322 1338.94C573.626 1339.24 573.626 1339.75 573.322 1340.06L573.198 1340.18C572.893 1340.48 572.385 1340.48 572.08 1340.18L571.076 1339.17C571.019 1339.12 570.929 1339.12 570.861 1339.17L569.123 1340.91C569.067 1340.97 569.067 1341.06 569.123 1341.13L570.692 1342.7C571.775 1343.78 573.525 1343.78 574.597 1342.7L575.839 1341.45L575.827 1341.42Z" fill="#7DDACF"/>
            <path d="M562.724 1298.78C539.971 1298.78 521.528 1317.22 521.528 1339.98C521.528 1362.73 539.971 1381.17 562.724 1381.17C585.478 1381.17 603.92 1362.73 603.92 1339.98C603.92 1317.22 585.478 1298.78 562.724 1298.78ZM564.406 1311.5C571.02 1311.88 577.024 1314.52 581.674 1318.66L575.726 1324.6C572.623 1321.97 568.706 1320.27 564.406 1319.91V1311.5ZM561.054 1311.5V1319.91C556.754 1320.26 552.837 1321.97 549.733 1324.6L543.785 1318.66C548.436 1314.52 554.44 1311.88 561.054 1311.5ZM541.415 1321.03L547.363 1326.97C544.733 1330.08 543.029 1333.99 542.668 1338.29H534.26C534.643 1331.68 537.284 1325.68 541.415 1321.03ZM534.26 1341.65H542.668C543.018 1345.95 544.733 1349.86 547.363 1352.97L541.415 1358.91C537.284 1354.26 534.643 1348.26 534.26 1341.65ZM561.054 1368.44C554.44 1368.06 548.436 1365.42 543.785 1361.28L549.733 1355.34C552.837 1357.97 556.754 1359.67 561.054 1360.03V1368.44ZM545.411 1339.96C545.411 1330.4 553.165 1322.65 562.724 1322.65C572.284 1322.65 580.038 1330.4 580.038 1339.96C580.038 1349.52 572.284 1357.28 562.724 1357.28C553.165 1357.28 545.411 1349.52 545.411 1339.96ZM564.406 1368.44V1360.03C568.706 1359.68 572.623 1357.97 575.726 1355.34L581.674 1361.28C577.024 1365.42 571.02 1368.06 564.406 1368.44ZM584.045 1358.91L578.097 1352.97C580.726 1349.86 582.431 1345.95 582.792 1341.65H591.2C590.817 1348.26 588.175 1354.26 584.045 1358.91ZM582.792 1338.29C582.442 1333.99 580.726 1330.08 578.097 1326.97L584.045 1321.03C588.175 1325.68 590.817 1331.68 591.2 1338.29H582.792Z" fill="#7DDACF"/>
            <path d="M616.425 1066.88C616.425 1096.5 592.327 1120.59 562.713 1120.59C533.098 1120.59 509 1096.5 509 1066.88C509 1037.27 533.098 1013.17 562.713 1013.17C592.327 1013.17 616.425 1037.27 616.425 1066.88ZM512.87 1066.88C512.87 1094.36 535.23 1116.72 562.713 1116.72C590.195 1116.72 612.556 1094.36 612.556 1066.88C612.556 1039.4 590.195 1017.04 562.713 1017.04C535.23 1017.04 512.87 1039.4 512.87 1066.88Z" fill="#478BF9"/>
            <path d="M616.426 935.583C616.426 936.654 615.558 937.512 614.497 937.512C613.437 937.512 612.568 936.643 612.568 935.583C612.568 908.1 590.207 885.74 562.725 885.74C535.242 885.74 512.882 908.1 512.882 935.583C512.882 936.654 512.013 937.512 510.953 937.512C509.892 937.512 509.023 936.643 509.023 935.583C509.023 905.968 533.121 881.87 562.736 881.87C592.351 881.87 616.449 905.968 616.449 935.583H616.426Z" fill="#478BF9"/>
            <path d="M552.368 1057.39C552.368 1059.37 553.711 1061.08 555.629 1061.56L559.273 1062.47V1053.09H556.678C554.309 1053.09 552.379 1055.02 552.379 1057.39H552.368Z" fill="#478BF9"/>
            <path d="M566.154 1080.67H568.749C571.118 1080.67 573.047 1078.74 573.047 1076.37C573.047 1074.39 571.704 1072.68 569.787 1072.21L566.143 1071.29V1080.67H566.154Z" fill="#478BF9"/>
            <path d="M562.715 1023.17C538.617 1023.17 518.998 1042.78 518.998 1066.89C518.998 1091 538.606 1110.61 562.715 1110.61C586.824 1110.61 606.432 1091 606.432 1066.89C606.432 1042.78 586.824 1023.17 562.715 1023.17ZM579.954 1059.99H573.06V1056.53C573.06 1054.64 571.515 1053.08 569.608 1053.08H566.156V1064.18L571.47 1065.52C576.456 1066.77 579.942 1071.22 579.942 1076.37C579.942 1082.54 574.922 1087.56 568.751 1087.56H566.156V1096.29H559.263V1087.56H555.811C550.102 1087.56 545.465 1082.92 545.465 1077.21V1073.76H552.358V1077.21C552.358 1079.11 553.904 1080.67 555.811 1080.67H559.263V1069.57L553.949 1068.23C548.963 1066.98 545.476 1062.53 545.476 1057.38C545.476 1051.21 550.497 1046.19 556.668 1046.19H559.263V1037.46H566.156V1046.19H569.608C575.317 1046.19 579.954 1050.83 579.954 1056.53V1059.99Z" fill="#478BF9"/>
            <path d="M616.447 934.738V1064.31C616.447 1065.38 615.578 1066.24 614.518 1066.24C613.458 1066.24 612.59 1065.37 612.59 1064.31V934.738C612.59 933.666 613.458 932.809 614.518 932.809C615.578 932.809 616.447 933.678 616.447 934.738Z" fill="#478BF9"/>
            <path d="M512.94 934.455V1064.03C512.94 1065.1 512.071 1065.96 511.011 1065.96C509.951 1065.96 509.083 1065.09 509.083 1064.03V934.455C509.083 933.384 509.951 932.527 511.011 932.527C512.071 932.527 512.94 933.395 512.94 934.455Z" fill="#478BF9"/>
            <path d="M562.717 1257.21C533.094 1257.21 509 1233.1 509 1203.49C509 1173.87 533.105 1149.76 562.717 1149.76C592.329 1149.76 616.434 1173.87 616.434 1203.49C616.434 1233.1 592.329 1257.21 562.717 1257.21ZM562.717 1153.34C535.068 1153.34 512.577 1175.84 512.577 1203.49C512.577 1231.14 535.068 1253.63 562.717 1253.63C590.365 1253.63 612.856 1231.14 612.856 1203.49C612.856 1175.84 590.365 1153.34 562.717 1153.34Z" fill="#9DADF2"/>
            <path d="M580.141 1169.94C579.871 1169.94 579.6 1169.89 579.352 1169.76C574.149 1167.19 568.552 1165.88 562.717 1165.88C556.883 1165.88 551.286 1167.19 546.083 1169.76C545.395 1170.1 544.571 1169.97 544.029 1169.42L534.798 1160.19C534.403 1159.8 534.223 1159.26 534.29 1158.7C534.358 1158.15 534.674 1157.66 535.148 1157.38C543.465 1152.39 553.001 1149.76 562.729 1149.76C572.456 1149.76 581.992 1152.4 590.309 1157.38C590.783 1157.66 591.099 1158.15 591.167 1158.7C591.235 1159.26 591.043 1159.8 590.659 1160.19L581.428 1169.42C581.078 1169.76 580.627 1169.94 580.153 1169.94H580.141ZM562.717 1162.3C568.665 1162.3 574.397 1163.54 579.769 1165.99L586.45 1159.31C579.182 1155.4 571.023 1153.34 562.717 1153.34C554.412 1153.34 546.253 1155.4 538.985 1159.31L545.666 1165.99C551.037 1163.54 556.77 1162.3 562.717 1162.3Z" fill="#9DADF2"/>
            <path d="M562.717 1257.21C552.99 1257.21 543.454 1254.57 535.137 1249.59C534.663 1249.31 534.347 1248.83 534.279 1248.27C534.211 1247.72 534.403 1247.18 534.787 1246.78L544.018 1237.55C544.56 1237.01 545.395 1236.87 546.072 1237.21C551.274 1239.79 556.872 1241.09 562.706 1241.09C568.54 1241.09 574.138 1239.79 579.34 1237.21C580.029 1236.87 580.852 1237.01 581.394 1237.55L590.625 1246.78C591.02 1247.18 591.201 1247.72 591.133 1248.27C591.065 1248.83 590.749 1249.31 590.275 1249.59C581.958 1254.58 572.423 1257.21 562.695 1257.21H562.717ZM538.985 1247.66C546.253 1251.58 554.412 1253.63 562.717 1253.63C571.023 1253.63 579.182 1251.58 586.45 1247.66L579.769 1240.98C574.397 1243.43 568.665 1244.67 562.717 1244.67C556.77 1244.67 551.037 1243.43 545.666 1240.98L538.985 1247.66Z" fill="#9DADF2"/>
            <path d="M607.284 1231.94C606.81 1231.94 606.358 1231.76 606.02 1231.42L596.789 1222.19C596.247 1221.65 596.112 1220.81 596.45 1220.14C599.023 1214.93 600.332 1209.33 600.332 1203.5C600.332 1197.66 599.023 1192.07 596.45 1186.86C596.112 1186.17 596.247 1185.34 596.789 1184.81L606.02 1175.58C606.415 1175.18 606.957 1175 607.51 1175.07C608.063 1175.14 608.548 1175.45 608.83 1175.93C613.818 1184.24 616.447 1193.78 616.447 1203.51C616.447 1213.24 613.818 1222.78 608.83 1231.09C608.548 1231.57 608.063 1231.88 607.51 1231.95C607.431 1231.95 607.363 1231.95 607.284 1231.95V1231.94ZM600.208 1220.54L606.889 1227.22C610.805 1219.96 612.859 1211.79 612.859 1203.49C612.859 1195.18 610.805 1187.02 606.889 1179.75L600.208 1186.43C602.657 1191.81 603.898 1197.54 603.898 1203.49C603.898 1209.44 602.657 1215.17 600.208 1220.54Z" fill="#9DADF2"/>
            <path d="M518.152 1231.94C518.073 1231.94 518.005 1231.94 517.938 1231.93C517.385 1231.86 516.9 1231.55 516.617 1231.07C511.629 1222.75 509 1213.22 509 1203.49C509 1193.76 511.629 1184.22 516.617 1175.9C516.9 1175.43 517.385 1175.11 517.938 1175.05C518.491 1174.98 519.032 1175.17 519.427 1175.55L528.659 1184.79C529.2 1185.33 529.336 1186.16 528.997 1186.84C526.424 1192.04 525.115 1197.64 525.115 1203.48C525.115 1209.31 526.424 1214.91 528.997 1220.11C529.336 1220.8 529.2 1221.64 528.659 1222.17L519.427 1231.4C519.089 1231.74 518.637 1231.93 518.163 1231.93L518.152 1231.94ZM518.547 1179.75C514.631 1187.02 512.577 1195.18 512.577 1203.49C512.577 1211.79 514.631 1219.95 518.547 1227.22L525.228 1220.54C522.779 1215.17 521.538 1209.44 521.538 1203.49C521.538 1197.54 522.779 1191.81 525.228 1186.43L518.547 1179.75Z" fill="#9DADF2"/>
            <path d="M562.72 1162.29C540.014 1162.29 521.529 1180.77 521.529 1203.49C521.529 1226.21 540.003 1244.68 562.72 1244.68C585.437 1244.68 603.91 1226.21 603.91 1203.49C603.91 1180.77 585.437 1162.29 562.72 1162.29ZM585.899 1189.95C587.852 1193.29 589.037 1196.94 589.42 1200.81C589.432 1200.97 589.364 1201.12 589.228 1201.2C586.283 1203 583.642 1205.21 581.363 1207.8C581.261 1207.92 581.092 1207.97 580.945 1207.91L575.856 1206.25C575.709 1206.21 575.607 1206.08 575.585 1205.92C575.009 1201.71 573.7 1197.69 571.691 1193.94C571.624 1193.8 571.635 1193.64 571.725 1193.52L574.874 1189.19C574.953 1189.09 575.077 1189.02 575.201 1189.02C575.235 1189.02 575.257 1189.02 575.291 1189.02C578.654 1189.76 582.108 1190.01 585.538 1189.73C585.696 1189.72 585.843 1189.8 585.922 1189.93L585.899 1189.95ZM572.809 1206.64C572.82 1206.75 572.786 1206.86 572.718 1206.94C570.044 1210.02 566.636 1212.49 562.878 1214.07C562.776 1214.12 562.675 1214.12 562.573 1214.07C558.815 1212.48 555.407 1210.01 552.733 1206.94C552.665 1206.86 552.631 1206.75 552.642 1206.64C553.161 1202.55 554.437 1198.64 556.411 1195.03C556.468 1194.93 556.558 1194.86 556.671 1194.84C558.657 1194.42 560.688 1194.21 562.731 1194.21C564.774 1194.21 566.805 1194.42 568.791 1194.84C568.904 1194.86 568.994 1194.93 569.051 1195.03C571.026 1198.64 572.29 1202.55 572.82 1206.64H572.809ZM572.199 1178.62C572.199 1178.62 572.335 1178.51 572.47 1178.51C572.515 1178.51 572.572 1178.51 572.628 1178.54C576.781 1180.19 580.494 1182.9 583.383 1186.37C583.529 1186.53 583.473 1186.71 583.439 1186.78C583.417 1186.84 583.315 1187.02 583.078 1187.02C580.516 1187.05 577.966 1186.76 575.494 1186.17C575.393 1186.15 575.303 1186.08 575.246 1185.99C573.926 1183.81 572.865 1181.47 572.098 1179.03C572.03 1178.81 572.154 1178.67 572.211 1178.62H572.199ZM557.021 1177.27C560.756 1176.47 564.695 1176.47 568.43 1177.27C568.577 1177.3 568.701 1177.41 568.735 1177.56C569.536 1180.91 570.834 1184.12 572.583 1187.09C572.662 1187.22 572.651 1187.39 572.56 1187.53L569.434 1191.84C569.344 1191.96 569.186 1192.03 569.039 1192C564.909 1191.16 560.542 1191.16 556.411 1192C556.265 1192.03 556.107 1191.96 556.016 1191.84L552.891 1187.53C552.8 1187.4 552.789 1187.22 552.868 1187.09C554.617 1184.12 555.915 1180.91 556.716 1177.56C556.75 1177.41 556.874 1177.3 557.021 1177.27ZM542.068 1186.37C544.957 1182.89 548.67 1180.18 552.823 1178.54C552.879 1178.52 552.936 1178.51 552.981 1178.51C553.127 1178.51 553.218 1178.59 553.252 1178.62C553.308 1178.68 553.432 1178.81 553.364 1179.03C552.597 1181.48 551.536 1183.81 550.216 1185.99C550.159 1186.08 550.069 1186.15 549.968 1186.17C547.496 1186.76 544.946 1187.05 542.384 1187.02C542.147 1187.02 542.046 1186.84 542.023 1186.78C541.989 1186.71 541.933 1186.53 542.079 1186.37H542.068ZM539.552 1189.95C539.619 1189.83 539.755 1189.75 539.901 1189.75C539.901 1189.75 539.924 1189.75 539.935 1189.75C543.377 1190.02 546.83 1189.78 550.182 1189.04C550.34 1189.01 550.498 1189.06 550.588 1189.2L553.737 1193.53C553.827 1193.66 553.838 1193.83 553.771 1193.95C551.762 1197.7 550.453 1201.73 549.877 1205.94C549.855 1206.08 549.753 1206.21 549.607 1206.26L544.517 1207.92C544.37 1207.97 544.201 1207.92 544.099 1207.81C541.82 1205.22 539.179 1203.01 536.234 1201.21C536.11 1201.13 536.031 1200.98 536.042 1200.82C536.426 1196.95 537.611 1193.29 539.563 1189.97L539.552 1189.95ZM540.782 1217.76C540.714 1217.98 540.522 1218.02 540.443 1218.04C540.364 1218.04 540.183 1218.04 540.059 1217.85C537.656 1214.07 536.234 1209.69 535.952 1205.2C535.94 1204.98 536.087 1204.86 536.155 1204.83C536.222 1204.8 536.403 1204.72 536.584 1204.85C538.671 1206.33 540.567 1208.07 542.226 1210C542.294 1210.08 542.328 1210.18 542.316 1210.29C542.113 1212.83 541.594 1215.35 540.77 1217.78L540.782 1217.76ZM551.931 1228.07C548.41 1226.52 545.307 1224.25 542.711 1221.34C542.61 1221.23 542.576 1221.06 542.632 1220.92C543.953 1217.74 544.788 1214.39 545.115 1210.96C545.126 1210.8 545.239 1210.66 545.386 1210.62L550.419 1208.98C550.419 1208.98 550.498 1208.96 550.543 1208.96C550.656 1208.96 550.758 1209.01 550.837 1209.1C553.658 1212.26 557.19 1214.83 561.061 1216.53C561.208 1216.6 561.298 1216.74 561.298 1216.9V1222.19C561.298 1222.35 561.208 1222.49 561.061 1222.55C557.901 1223.92 554.967 1225.76 552.337 1228C552.225 1228.1 552.055 1228.13 551.92 1228.06L551.931 1228.07ZM569.683 1229.19C569.671 1229.27 569.615 1229.45 569.389 1229.5C565.033 1230.61 560.429 1230.61 556.073 1229.5C555.858 1229.45 555.791 1229.27 555.779 1229.19C555.768 1229.11 555.746 1228.93 555.937 1228.78C557.991 1227.26 560.226 1225.98 562.584 1225C562.686 1224.95 562.787 1224.95 562.889 1225C565.236 1225.98 567.471 1227.26 569.536 1228.78C569.717 1228.92 569.705 1229.11 569.694 1229.19H569.683ZM582.762 1221.35C580.166 1224.27 577.063 1226.52 573.542 1228.07C573.395 1228.14 573.237 1228.1 573.125 1228.01C570.495 1225.77 567.572 1223.93 564.401 1222.56C564.255 1222.49 564.164 1222.36 564.164 1222.2V1216.91C564.164 1216.75 564.255 1216.6 564.401 1216.55C568.272 1214.84 571.816 1212.27 574.625 1209.11C574.704 1209.02 574.806 1208.97 574.919 1208.97C574.964 1208.97 574.998 1208.97 575.043 1208.99L580.076 1210.63C580.223 1210.68 580.336 1210.81 580.347 1210.97C580.674 1214.4 581.509 1217.74 582.83 1220.94C582.886 1221.07 582.864 1221.24 582.751 1221.35H582.762ZM585.403 1217.87C585.279 1218.06 585.087 1218.06 585.019 1218.05C584.94 1218.05 584.76 1217.99 584.681 1217.78C583.868 1215.35 583.349 1212.83 583.134 1210.29C583.134 1210.19 583.157 1210.08 583.225 1210C584.884 1208.07 586.779 1206.34 588.867 1204.85C588.946 1204.8 589.025 1204.77 589.093 1204.77C589.183 1204.77 589.251 1204.81 589.296 1204.83C589.364 1204.86 589.522 1204.98 589.499 1205.2C589.217 1209.69 587.795 1214.07 585.391 1217.85L585.403 1217.87Z" fill="#9DADF2"/>
            <path d="M562.723 852.83C548.956 852.83 535.2 847.594 524.717 837.112C503.761 816.16 503.761 782.074 524.717 761.121C534.873 750.967 548.369 745.382 562.723 745.382C577.077 745.382 590.574 750.967 600.73 761.121C621.686 782.074 621.686 816.16 600.73 837.112C590.258 847.583 576.491 852.83 562.723 852.83ZM527.538 834.292C546.936 853.687 578.499 853.687 597.898 834.292C617.296 814.896 617.296 783.338 597.898 763.942C588.498 754.543 576.005 749.376 562.712 749.376C549.419 749.376 536.927 754.555 527.527 763.942C508.128 783.338 508.128 814.896 527.527 834.292H527.538Z" fill="#9DADF2"/>
            <path d="M562.013 819.218C562.205 819.68 562.656 819.951 563.13 819.951C563.288 819.951 563.446 819.917 563.604 819.861C567.396 818.27 570.849 815.81 573.58 812.741C574.02 812.245 573.975 811.478 573.478 811.038C572.982 810.598 572.214 810.643 571.774 811.139C569.28 813.949 566.132 816.194 562.668 817.638C562.058 817.898 561.765 818.609 562.024 819.218H562.013Z" fill="#9DADF2"/>
            <path d="M583.204 780.54L563.162 772.529C562.869 772.416 562.553 772.416 562.259 772.529L542.218 780.54C541.755 780.72 541.462 781.16 541.462 781.657V796.009C541.484 809.255 549.858 821.226 562.293 825.784C562.429 825.83 562.564 825.852 562.711 825.852C562.858 825.852 562.993 825.83 563.128 825.784C575.564 821.215 583.937 809.255 583.96 796.009V781.657C583.96 781.16 583.666 780.72 583.204 780.54ZM581.545 796.009C581.522 808.059 573.962 819.037 562.722 823.359C551.483 819.037 543.911 808.059 543.888 796.009V782.48L562.722 774.955L581.545 782.48V796.009Z" fill="#9DADF2"/>
            <path d="M554.35 782.424C554.057 782.3 553.73 782.3 553.425 782.424L548.652 784.331C548.189 784.511 547.896 784.951 547.896 785.448V790.536C547.896 791.202 548.437 791.744 549.103 791.744C549.769 791.744 550.31 791.202 550.31 790.536V786.271L554.316 784.669C554.621 784.545 554.847 784.319 554.982 784.015C555.106 783.721 555.106 783.394 554.982 783.09C554.858 782.785 554.632 782.559 554.339 782.424H554.35Z" fill="#9DADF2"/>
            <path d="M593.248 768.603C585.101 760.445 574.256 755.966 562.723 755.966C551.19 755.966 540.357 760.456 532.198 768.603C515.373 785.426 515.373 812.809 532.198 829.644C540.616 838.061 551.664 842.258 562.723 842.258C573.782 842.258 584.83 838.049 593.248 829.644C610.074 812.821 610.074 785.437 593.248 768.603ZM587.278 796.009C587.312 811.32 577.529 824.713 562.938 829.35C562.802 829.395 562.655 829.395 562.509 829.35C547.918 824.713 538.134 811.32 538.168 796.009V779.073C538.168 778.791 538.337 778.532 538.608 778.419L562.464 768.885C562.543 768.851 562.633 768.84 562.723 768.84C562.813 768.84 562.904 768.851 562.983 768.885L586.838 778.43C587.109 778.532 587.278 778.791 587.278 779.084V796.02V796.009Z" fill="#9DADF2"/>
        </g>
    </g>
    <defs>
        <filter id="filter0_f_404_7858" x="0.423828" y="-477.529" width="1677.7" height="1350.02" filterUnits="userSpaceOnUse" color-interpolation-filters="sRGB">
            <feFlood flood-opacity="0" result="BackgroundImageFix"/>
            <feBlend mode="normal" in="SourceGraphic" in2="BackgroundImageFix" result="shape"/>
            <feGaussianBlur stdDeviation="150" result="effect1_foregroundBlur_404_7858"/>
        </filter>
        <linearGradient id="paint0_linear_404_7858" x1="312.055" y1="-190.036" x2="1369.92" y2="569.797" gradientUnits="userSpaceOnUse">
            <stop stop-color="#478BF9"/>
            <stop offset="1" stop-color="#478BF9" stop-opacity="0.4"/>
        </linearGradient>
        <linearGradient id="paint1_linear_404_7858" x1="690.5" y1="739" x2="690.5" y2="1548" gradientUnits="userSpaceOnUse">
            <stop stop-color="white" stop-opacity="0"/>
            <stop offset="0.284327" stop-color="white"/>
            <stop offset="0.756282" stop-color="white"/>
            <stop offset="1" stop-color="white" stop-opacity="0"/>
        </linearGradient>
    </defs>
</svg>
