<svg width="32" height="32" viewBox="0 0 32 32" fill="none" xmlns="http://www.w3.org/2000/svg">
    <g clip-path="url(#clip0_616_642)">
        <path fill-rule="evenodd" clip-rule="evenodd" d="M0 16C0 24.8202 7.17648 32 16 32C24.8202 32 32 24.8202 32 16C32 7.17982 24.8202 0 16 0C7.17984 0 0 7.17982 0 16ZM5.94191 4.96936C8.59784 2.54552 12.1292 1.06554 16 1.06554C19.8696 1.06554 23.4 2.54462 26.0557 4.96715L24.8681 6.1547C22.5199 4.03823 19.4105 2.75 16 2.75C12.5883 2.75 9.47794 4.03912 7.12944 6.15689L5.94191 4.96936ZM4.96751 5.94395C2.54476 8.59964 1.06554 12.1302 1.06554 16C1.06554 19.8694 2.54451 23.3997 4.96688 26.0553L6.15441 24.8678C4.03812 22.5196 2.75 19.4104 2.75 16C2.75 12.5893 4.03837 9.47974 6.15505 7.13149L4.96751 5.94395ZM5.94122 27.03C8.59723 29.4542 12.1289 30.9344 16 30.9344C19.8692 30.9344 23.3992 29.4557 26.0548 27.0337L24.8672 25.8461C22.5191 27.9621 19.4101 29.25 16 29.25C12.5879 29.25 9.47731 27.9606 7.12874 25.8425L5.94122 27.03ZM30.9345 16C30.9345 19.8714 29.454 23.4033 27.0295 26.0593L25.842 24.8718C27.9604 22.5232 29.25 19.4123 29.25 16C29.25 12.5881 27.9607 9.47761 25.8428 7.12907L27.0303 5.94154C29.4543 8.5975 30.9345 12.129 30.9345 16Z" fill="#478BF9"/>
        <path d="M21.3114 13.5384V13.9126C21.3114 17.6811 18.5582 21.9998 13.5204 21.9998C12.0332 22.0032 10.5775 21.5543 9.33301 20.7087C9.54914 20.7392 9.76716 20.7529 9.98526 20.7499C11.2181 20.7534 12.4162 20.3263 13.3871 19.5374C12.8143 19.5286 12.2588 19.3326 11.7995 18.9772C11.3402 18.6218 11.0004 18.1251 10.8285 17.5576C10.9991 17.5952 11.173 17.614 11.3474 17.6138C11.5909 17.6138 11.8334 17.5798 12.0681 17.5127C11.4478 17.3843 10.8897 17.036 10.4894 16.5274C10.0891 16.0188 9.87137 15.3816 9.87355 14.7247V14.6873C10.2531 14.9074 10.6786 15.0282 11.1132 15.039C10.5347 14.6437 10.1233 14.0338 9.96327 13.3341C9.80319 12.6344 9.90644 11.8976 10.2519 11.2742C10.9403 12.1535 11.7992 12.8725 12.7727 13.3844C13.7462 13.8963 14.8125 14.1898 15.9024 14.2457C15.8484 14.0333 15.823 13.8141 15.8267 13.5945C15.8064 13.014 15.9589 12.4412 16.2634 11.9539C16.5678 11.4666 17.0095 11.0887 17.5282 10.8715C18.047 10.6543 18.6176 10.6084 19.1624 10.7401C19.7071 10.8717 20.1996 11.1745 20.5726 11.6073C21.1859 11.4788 21.7742 11.2448 22.3132 10.915C22.1088 11.5854 21.6739 12.1542 21.0916 12.5129C21.6356 12.4351 22.1659 12.2763 22.6663 12.0414C22.3037 12.6198 21.8449 13.1267 21.3114 13.5384Z" fill="#110A1D"/>
    </g>
    <defs>
        <clipPath id="clip0_616_642">
            <rect width="32" height="32" fill="white"/>
        </clipPath>
    </defs>
</svg>
