<svg width="32" height="32" viewBox="0 0 32 32" fill="none" xmlns="http://www.w3.org/2000/svg">
    <path fill-rule="evenodd" clip-rule="evenodd" d="M0 16C0 24.8202 7.17648 32 16 32C24.8202 32 32 24.8202 32 16C32 7.17982 24.8202 0 16 0C7.17984 0 0 7.17982 0 16ZM5.94191 4.96936C8.59784 2.54552 12.1292 1.06554 16 1.06554C19.8696 1.06554 23.4 2.54462 26.0557 4.96715L24.8681 6.1547C22.5199 4.03823 19.4105 2.75 16 2.75C12.5883 2.75 9.47794 4.03912 7.12944 6.15689L5.94191 4.96936ZM4.96751 5.94395C2.54476 8.59964 1.06554 12.1302 1.06554 16C1.06554 19.8694 2.54451 23.3997 4.96688 26.0553L6.15441 24.8678C4.03812 22.5196 2.75 19.4104 2.75 16C2.75 12.5893 4.03837 9.47974 6.15505 7.13149L4.96751 5.94395ZM5.94122 27.03C8.59723 29.4542 12.1289 30.9344 16 30.9344C19.8692 30.9344 23.3992 29.4557 26.0548 27.0337L24.8672 25.8461C22.5191 27.9621 19.4101 29.25 16 29.25C12.5879 29.25 9.47731 27.9606 7.12874 25.8425L5.94122 27.03ZM30.9345 16C30.9345 19.8714 29.454 23.4033 27.0295 26.0593L25.842 24.8718C27.9604 22.5232 29.25 19.4123 29.25 16C29.25 12.5881 27.9607 9.47761 25.8428 7.12907L27.0303 5.94154C29.4543 8.5975 30.9345 12.129 30.9345 16Z" fill="#478BF9"/>
    <path d="M14.6663 18.0002L18.1263 16.0002L14.6663 14.0002V18.0002ZM22.373 12.7802C22.4597 13.0935 22.5197 13.5135 22.5597 14.0468C22.6063 14.5802 22.6263 15.0402 22.6263 15.4402L22.6663 16.0002C22.6663 17.4602 22.5597 18.5335 22.373 19.2202C22.2063 19.8202 21.8197 20.2068 21.2197 20.3735C20.9063 20.4602 20.333 20.5202 19.453 20.5602C18.5863 20.6068 17.793 20.6268 17.0597 20.6268L15.9997 20.6668C13.2063 20.6668 11.4663 20.5602 10.7797 20.3735C10.1797 20.2068 9.79301 19.8202 9.62634 19.2202C9.53967 18.9068 9.47967 18.4868 9.43967 17.9535C9.39301 17.4202 9.37301 16.9602 9.37301 16.5602L9.33301 16.0002C9.33301 14.5402 9.43967 13.4668 9.62634 12.7802C9.79301 12.1802 10.1797 11.7935 10.7797 11.6268C11.093 11.5402 11.6663 11.4802 12.5463 11.4402C13.413 11.3935 14.2063 11.3735 14.9397 11.3735L15.9997 11.3335C18.793 11.3335 20.533 11.4402 21.2197 11.6268C21.8197 11.7935 22.2063 12.1802 22.373 12.7802Z" fill="#1E1231"/>
</svg>
