<svg width="80" height="80" viewBox="0 0 80 80" fill="none" xmlns="http://www.w3.org/2000/svg">
<path d="M47.9936 95.9996C21.5266 95.9996 0 74.4623 0 48.0047C0 21.547 21.5367 0.00976562 47.9936 0.00976562C74.4506 0.00976562 95.9872 21.547 95.9872 48.0047C95.9872 74.4623 74.4506 95.9996 47.9936 95.9996ZM47.9936 3.20605C23.291 3.20605 3.19626 23.3014 3.19626 48.0047C3.19626 72.7079 23.291 92.8032 47.9936 92.8032C72.6962 92.8032 92.791 72.7079 92.791 48.0047C92.791 23.3014 72.6962 3.20605 47.9936 3.20605Z" fill="#478BF9"/>
<path d="M63.5614 18.0283C63.3194 18.0283 63.0774 17.978 62.8556 17.867C58.2075 15.5681 53.2065 14.3985 47.9937 14.3985C42.781 14.3985 37.78 15.5681 33.1319 17.867C32.5168 18.1695 31.7808 18.0485 31.2968 17.5645L23.0492 9.31665C22.6963 8.96375 22.535 8.47976 22.5955 7.98569C22.656 7.49162 22.9383 7.05807 23.3618 6.806C30.7927 2.34933 39.3126 0 48.0038 0C56.6951 0 65.215 2.35941 72.6459 6.806C73.0694 7.05807 73.3517 7.49162 73.4121 7.98569C73.4726 8.47976 73.3013 8.96375 72.9585 9.31665L64.7108 17.5645C64.3982 17.867 63.995 18.0283 63.5715 18.0283H63.5614ZM47.9937 11.2022C53.3073 11.2022 58.4293 12.3113 63.2287 14.4993L69.1976 8.53021C62.7043 5.03142 55.4146 3.19628 47.9937 3.19628C40.5729 3.19628 33.2831 5.03142 26.7898 8.53021L32.7588 14.4993C37.5582 12.3113 42.6802 11.2022 47.9937 11.2022Z" fill="#478BF9"/>
<path d="M47.9926 95.9997C39.3013 95.9997 30.7815 93.6403 23.3505 89.1937C22.9271 88.9417 22.6447 88.508 22.5842 88.014C22.5237 87.5199 22.6952 87.036 23.038 86.6831L31.2856 78.4352C31.7696 77.9512 32.5157 77.8302 33.1207 78.1327C37.7688 80.4316 42.7698 81.6012 47.9825 81.6012C53.1953 81.6012 58.1963 80.4316 62.8444 78.1327C63.4594 77.8302 64.1955 77.9512 64.6795 78.4352L72.9271 86.6831C73.28 87.036 73.4413 87.5199 73.3808 88.014C73.3203 88.508 73.038 88.9417 72.6145 89.1937C65.1836 93.6504 56.6637 95.9997 47.9724 95.9997H47.9926ZM26.7887 87.4695C33.282 90.9683 40.5718 92.8034 47.9926 92.8034C55.4135 92.8034 62.7032 90.9683 69.1965 87.4695L63.2275 81.5004C58.4282 83.6884 53.3062 84.7975 47.9926 84.7975C42.679 84.7975 37.5571 83.6884 32.7577 81.5004L26.7887 87.4695Z" fill="#478BF9"/>
<path d="M87.8125 73.4152C87.3891 73.4152 86.9858 73.2539 86.6833 72.9514L78.4356 64.7036C77.9517 64.2196 77.8307 63.4734 78.1332 62.8684C80.432 58.2202 81.6016 53.2191 81.6016 48.0062C81.6016 42.7933 80.432 37.7921 78.1332 33.1439C77.8307 32.5288 77.9517 31.7827 78.4356 31.3088L86.6833 23.0609C87.0362 22.708 87.5201 22.5467 88.0142 22.6072C88.5082 22.6677 88.9418 22.95 89.1939 23.3735C93.6504 30.8046 95.9997 39.3247 95.9997 48.0163C95.9997 56.7078 93.6504 65.2279 89.1939 72.659C88.9418 73.0825 88.5082 73.3648 88.0142 73.4253C87.9436 73.4253 87.8831 73.4253 87.8125 73.4253V73.4152ZM81.4907 63.2315L87.4597 69.2006C90.9583 62.7071 92.7934 55.4171 92.7934 47.9961C92.7934 40.575 90.9583 33.2851 87.4597 26.7916L81.4907 32.7607C83.6786 37.5602 84.7877 42.6824 84.7877 47.9961C84.7877 53.3098 83.6786 58.432 81.4907 63.2315Z" fill="#478BF9"/>
<path d="M8.1771 73.4144C8.10653 73.4144 8.04603 73.4144 7.98553 73.4043C7.49148 73.3438 7.05788 73.0615 6.80581 72.638C2.34927 65.2068 0 56.6867 0 47.9952C0 39.3037 2.34927 30.7837 6.80581 23.3525C7.05788 22.929 7.49148 22.6467 7.98553 22.5862C8.47958 22.5257 8.96356 22.6971 9.31645 23.0399L17.5641 31.2878C18.048 31.7718 18.169 32.5179 17.8665 33.1228C15.5677 37.7711 14.3981 42.7723 14.3981 47.9852C14.3981 53.1981 15.5677 58.1992 17.8665 62.8475C18.169 63.4625 18.048 64.2087 17.5641 64.6826L9.31645 72.9304C9.01397 73.2329 8.61061 73.4043 8.18713 73.4043L8.1771 73.4144ZM8.52997 26.7908C5.03128 33.2842 3.19626 40.5742 3.19626 47.9952C3.19626 55.4163 5.03128 62.7063 8.52997 69.1997L14.4989 63.2306C12.311 58.4311 11.2019 53.3089 11.2019 47.9952C11.2019 42.6815 12.311 37.5594 14.4989 32.7599L8.52997 26.7908Z" fill="#478BF9"/>
<path d="M47.9937 11.2021C27.7073 11.2021 11.1919 27.708 11.1919 48.005C11.1919 68.302 27.6973 84.8078 47.9937 84.8078C68.2901 84.8078 84.7955 68.302 84.7955 48.005C84.7955 27.708 68.2901 11.2021 47.9937 11.2021ZM68.7035 35.9155C70.4478 38.9001 71.5065 42.1569 71.8493 45.6153C71.8594 45.7565 71.7989 45.8876 71.6779 45.9582C69.0463 47.5714 66.687 49.5477 64.6502 51.8567C64.5595 51.9676 64.4083 52.0079 64.2772 51.9575L59.73 50.4753C59.5989 50.435 59.5081 50.3241 59.4879 50.1829C58.9737 46.422 57.8042 42.8224 56.0094 39.4748C55.9489 39.3538 55.959 39.2127 56.0397 39.1018L58.8527 35.2299C58.9233 35.1391 59.0342 35.0786 59.1451 35.0786C59.1754 35.0786 59.1956 35.0786 59.2258 35.0786C62.2305 35.7441 65.3157 35.9659 68.3809 35.7138C68.522 35.7037 68.6531 35.7743 68.7237 35.8953L68.7035 35.9155ZM57.0076 50.8182C57.0177 50.919 56.9874 51.0198 56.9269 51.0904C54.5373 53.843 51.4924 56.0512 48.1349 57.4628C48.0441 57.5031 47.9534 57.5031 47.8626 57.4628C44.5051 56.0411 41.4601 53.8329 39.0705 51.0904C39.01 51.0198 38.9798 50.919 38.9899 50.8182C39.4537 47.1681 40.593 43.6794 42.3574 40.4528C42.4079 40.3621 42.4886 40.3016 42.5894 40.2814C44.3639 39.9084 46.1788 39.7168 48.0038 39.7168C49.8288 39.7168 51.6436 39.9084 53.4182 40.2814C53.519 40.3016 53.5997 40.3621 53.6501 40.4528C55.4145 43.6794 56.5438 47.1681 57.0177 50.8182H57.0076ZM56.4631 25.7922C56.4631 25.7922 56.5842 25.6914 56.7051 25.6914C56.7455 25.6914 56.7958 25.6914 56.8463 25.7216C60.5567 27.1938 63.8739 29.6137 66.4551 32.7091C66.5862 32.8604 66.5357 33.0217 66.5055 33.0822C66.4853 33.1326 66.3946 33.294 66.1828 33.294C63.8941 33.3242 61.6154 33.062 59.4073 32.5377C59.3166 32.5176 59.2359 32.457 59.1854 32.3764C58.0058 30.4304 57.058 28.3331 56.3724 26.1552C56.3119 25.9636 56.4228 25.8326 56.4732 25.7922H56.4631ZM42.902 24.5823C46.2393 23.8664 49.7582 23.8664 53.0955 24.5823C53.2266 24.6125 53.3375 24.7133 53.3677 24.8444C54.0836 27.8391 55.2431 30.7026 56.806 33.3545C56.8765 33.4754 56.8664 33.6267 56.7858 33.7477L53.9929 37.5993C53.9122 37.7103 53.771 37.7708 53.64 37.7405C49.9497 36.9944 46.0477 36.9944 42.3574 37.7405C42.2264 37.7708 42.0852 37.7103 42.0046 37.5993L39.2117 33.7477C39.131 33.6368 39.1209 33.4754 39.1915 33.3545C40.7543 30.7026 41.9138 27.8391 42.6297 24.8444C42.6599 24.7133 42.7709 24.6125 42.902 24.5823ZM29.5424 32.7091C32.1236 29.6036 35.4407 27.1837 39.1512 25.7216C39.2016 25.7015 39.252 25.6914 39.2923 25.6914C39.4234 25.6914 39.5041 25.762 39.5343 25.7922C39.5847 25.8426 39.6956 25.9636 39.6351 26.1552C38.9495 28.3432 38.0017 30.4304 36.8221 32.3764C36.7716 32.457 36.691 32.5176 36.6003 32.5377C34.3922 33.062 32.1134 33.3242 29.8247 33.294C29.6129 33.294 29.5222 33.1326 29.502 33.0822C29.4718 33.0217 29.4213 32.8604 29.5524 32.7091H29.5424ZM27.2939 35.9155C27.3544 35.8046 27.4754 35.734 27.6065 35.734C27.6065 35.734 27.6267 35.734 27.6368 35.734C30.712 35.976 33.7973 35.7643 36.7918 35.0988C36.933 35.0685 37.0741 35.119 37.1548 35.24L39.9679 39.1118C40.0485 39.2227 40.0586 39.374 39.9981 39.4849C38.2034 42.8325 37.0338 46.4321 36.5196 50.193C36.4994 50.3241 36.4087 50.435 36.2776 50.4854L31.7303 51.9676C31.5992 52.0079 31.448 51.9676 31.3573 51.8668C29.3206 49.5578 26.9612 47.5815 24.3296 45.9683C24.2187 45.8977 24.1481 45.7666 24.1582 45.6254C24.501 42.1669 25.5597 38.9001 27.304 35.9256L27.2939 35.9155ZM28.393 60.7599C28.3325 60.9515 28.1611 60.9918 28.0905 61.0019C28.0199 61.0019 27.8586 61.0019 27.7476 60.8406C25.6 57.4628 24.3296 53.5506 24.0775 49.5376C24.0675 49.3359 24.1985 49.2351 24.259 49.2048C24.3195 49.1746 24.4808 49.104 24.6422 49.225C26.5075 50.5459 28.2013 52.0987 29.6835 53.8229C29.744 53.8934 29.7743 53.9842 29.7642 54.085C29.5827 56.3537 29.1189 58.6022 28.3829 60.77L28.393 60.7599ZM38.3547 69.9657C35.2089 68.5843 32.4361 66.5576 30.1171 63.9562C30.0263 63.8554 29.9961 63.7042 30.0465 63.5832C31.2262 60.7398 31.9723 57.7451 32.2647 54.6799C32.2748 54.5387 32.3756 54.4177 32.5067 54.3774L37.0035 52.9154C37.0035 52.9154 37.0741 52.8952 37.1144 52.8952C37.2153 52.8952 37.306 52.9356 37.3766 53.0162C39.8973 55.8395 43.0531 58.1383 46.5115 59.6609C46.6426 59.7214 46.7233 59.8424 46.7233 59.9835V64.7124C46.7233 64.8536 46.6426 64.9847 46.5115 65.0351C43.6884 66.2551 41.0669 67.8987 38.7176 69.9052C38.6168 69.9959 38.4655 70.0161 38.3446 69.9556L38.3547 69.9657ZM54.2147 70.9639C54.2046 71.0345 54.1542 71.1958 53.9525 71.2462C50.0606 72.2344 45.9469 72.2344 42.055 71.2462C41.8634 71.1958 41.8029 71.0345 41.7928 70.9639C41.7827 70.8933 41.7626 70.732 41.934 70.6009C43.769 69.2397 45.7654 68.1003 47.8727 67.2231C47.9635 67.1828 48.0542 67.1828 48.1449 67.2231C50.2421 68.1003 52.2385 69.2397 54.0836 70.6009C54.2449 70.7219 54.2349 70.8933 54.2248 70.9639H54.2147ZM65.9006 63.9663C63.5815 66.5677 60.8088 68.5843 57.663 69.9657C57.5319 70.0262 57.3907 69.996 57.2899 69.9153C54.9406 67.9088 52.3292 66.2652 49.496 65.0452C49.3649 64.9847 49.2842 64.8637 49.2842 64.7225V59.9936C49.2842 59.8525 49.3649 59.7214 49.496 59.671C52.9544 58.1484 56.1203 55.8496 58.6309 53.0263C58.7015 52.9457 58.7922 52.9053 58.8931 52.9053C58.9334 52.9053 58.9636 52.9053 59.004 52.9255L63.5009 54.3875C63.6319 54.4278 63.7328 54.5488 63.7428 54.69C64.0352 57.7552 64.7814 60.7398 65.961 63.5933C66.0115 63.7142 65.9913 63.8655 65.8905 63.9663H65.9006ZM68.2599 60.8507C68.149 61.0221 67.9776 61.0221 67.9171 61.012C67.8465 61.012 67.6851 60.9616 67.6146 60.77C66.8886 58.6022 66.4248 56.3537 66.2332 54.085C66.2332 53.9943 66.2534 53.8934 66.3139 53.8229C67.7961 52.0987 69.49 50.556 71.3553 49.225C71.4258 49.1746 71.4964 49.1544 71.5569 49.1544C71.6376 49.1544 71.6981 49.1847 71.7384 49.2048C71.7989 49.2351 71.9401 49.3359 71.9199 49.5376C71.6678 53.5506 70.3974 57.4628 68.2498 60.8406L68.2599 60.8507Z" fill="#478BF9"/>
</svg>
