<svg width="136" height="136" viewBox="0 0 136 136" fill="none" xmlns="http://www.w3.org/2000/svg">
<g opacity="0.08">
<path d="M75.9899 152C34.0838 152 0 117.899 0 76.0076C0 34.1162 34.0997 0.015625 75.9899 0.015625C117.88 0.015625 151.98 34.1162 151.98 76.0076C151.98 117.899 117.88 152 75.9899 152ZM75.9899 5.07641C36.8775 5.07641 5.06074 36.8941 5.06074 76.0076C5.06074 115.121 36.8775 146.939 75.9899 146.939C115.102 146.939 146.919 115.121 146.919 76.0076C146.919 36.8941 115.102 5.07641 75.9899 5.07641Z" fill="#478BF9"/>
<path d="M100.639 28.5449C100.256 28.5449 99.873 28.4651 99.5218 28.2895C92.1623 24.6496 84.244 22.7976 75.9905 22.7976C67.737 22.7976 59.8187 24.6496 52.4592 28.2895C51.4854 28.7684 50.32 28.5768 49.5537 27.8105L36.495 14.7514C35.9362 14.1926 35.6808 13.4263 35.7766 12.644C35.8723 11.8617 36.3194 11.1753 36.9898 10.7762C48.7555 3.71978 62.2453 0 76.0065 0C89.7677 0 103.257 3.73574 115.023 10.7762C115.694 11.1753 116.141 11.8617 116.236 12.644C116.332 13.4263 116.061 14.1926 115.518 14.7514L102.459 27.8105C101.964 28.2894 101.326 28.5449 100.655 28.5449H100.639ZM75.9905 17.7368C84.4037 17.7368 92.5135 19.4929 100.112 22.9573L109.563 13.5062C99.2823 7.96642 87.7402 5.06078 75.9905 5.06078C64.2408 5.06078 52.6986 7.96642 42.4176 13.5062L51.8686 22.9573C59.4675 19.4929 67.5774 17.7368 75.9905 17.7368Z" fill="#478BF9"/>
<path d="M75.9887 152C62.2275 152 48.7377 148.264 36.972 141.224C36.3015 140.825 35.8545 140.138 35.7587 139.356C35.6629 138.573 35.9343 137.807 36.4771 137.248L49.5359 124.189C50.3022 123.423 51.4835 123.231 52.4414 123.71C59.8009 127.35 67.7192 129.202 75.9727 129.202C84.2262 129.202 92.1445 127.35 99.504 123.71C100.478 123.231 101.643 123.423 102.41 124.189L115.468 137.248C116.027 137.807 116.282 138.573 116.187 139.356C116.091 140.138 115.644 140.825 114.973 141.224C103.208 148.28 89.7179 152 75.9567 152H75.9887ZM42.4158 138.494C52.6968 144.033 64.239 146.939 75.9887 146.939C87.7384 146.939 99.2805 144.033 109.561 138.494L100.111 129.043C92.5117 132.507 84.4018 134.263 75.9887 134.263C67.5755 134.263 59.4657 132.507 51.8667 129.043L42.4158 138.494Z" fill="#478BF9"/>
<path d="M139.037 116.24C138.366 116.24 137.728 115.985 137.249 115.506L124.19 102.447C123.424 101.68 123.232 100.499 123.711 99.5412C127.351 92.1814 129.203 84.263 129.203 76.0092C129.203 67.7555 127.351 59.837 123.711 52.4773C123.232 51.5034 123.424 50.322 124.19 49.5717L137.249 36.5126C137.808 35.9538 138.574 35.6983 139.356 35.7941C140.139 35.8899 140.825 36.3369 141.224 37.0075C148.28 48.7734 152 62.2636 152 76.0252C152 89.7868 148.28 103.277 141.224 115.043C140.825 115.713 140.139 116.16 139.356 116.256C139.245 116.256 139.149 116.256 139.037 116.256V116.24ZM129.027 100.116L138.478 109.567C144.018 99.2858 146.923 87.7433 146.923 75.9932C146.923 64.2432 144.018 52.7008 138.478 42.4195L129.027 51.8706C132.492 59.4698 134.248 67.5798 134.248 75.9932C134.248 84.4066 132.492 92.5168 129.027 100.116Z" fill="#478BF9"/>
<path d="M12.9471 116.239C12.8353 116.239 12.7396 116.239 12.6438 116.223C11.8615 116.127 11.175 115.68 10.7759 115.01C3.71967 103.244 0 89.7537 0 75.9921C0 62.2306 3.71967 48.7405 10.7759 36.9745C11.175 36.304 11.8615 35.8569 12.6438 35.7612C13.426 35.6654 14.1923 35.9367 14.7511 36.4795L27.8098 49.5387C28.5761 50.305 28.7677 51.4863 28.2887 52.4442C24.6489 59.8039 22.797 67.7225 22.797 75.9762C22.797 84.23 24.6489 92.1485 28.2887 99.5082C28.7677 100.482 28.5761 101.663 27.8098 102.414L14.7511 115.473C14.2721 115.952 13.6335 116.223 12.963 116.223L12.9471 116.239ZM13.5058 42.4184C7.9662 52.6997 5.06074 64.2421 5.06074 75.9921C5.06074 87.7421 7.9662 99.2847 13.5058 109.566L22.9566 100.115C19.4924 92.5157 17.7364 84.4055 17.7364 75.9921C17.7364 67.5787 19.4924 59.4687 22.9566 51.8695L13.5058 42.4184Z" fill="#478BF9"/>
<path d="M75.9903 17.7363C43.8702 17.7363 17.7207 43.8705 17.7207 76.0075C17.7207 108.144 43.8542 134.279 75.9903 134.279C108.126 134.279 134.26 108.144 134.26 76.0075C134.26 43.8705 108.126 17.7363 75.9903 17.7363ZM108.781 56.8658C111.543 61.5914 113.219 66.748 113.762 72.2239C113.778 72.4474 113.682 72.655 113.49 72.7667C109.324 75.3211 105.588 78.4501 102.363 82.106C102.219 82.2816 101.98 82.3456 101.772 82.2657L94.5727 79.9189C94.3651 79.855 94.2214 79.6794 94.1895 79.4559C93.3753 73.5011 91.5235 67.8017 88.6819 62.5014C88.5861 62.3098 88.602 62.0863 88.7297 61.9107L93.1837 55.7802C93.2954 55.6366 93.4711 55.5407 93.6467 55.5407C93.6946 55.5407 93.7266 55.5407 93.7745 55.5407C98.5318 56.5944 103.417 56.9456 108.27 56.5465C108.493 56.5306 108.701 56.6423 108.813 56.8339L108.781 56.8658ZM90.2623 80.4617C90.2783 80.6214 90.2304 80.7809 90.1346 80.8927C86.351 85.2511 81.5299 88.7473 76.2138 90.9824C76.0701 91.0463 75.9264 91.0463 75.7827 90.9824C70.4666 88.7314 65.6454 85.2351 61.8618 80.8927C61.766 80.7809 61.7182 80.6214 61.7342 80.4617C62.4685 74.6825 64.2724 69.1587 67.0662 64.0499C67.146 63.9063 67.2738 63.8105 67.4334 63.7786C70.2431 63.1879 73.1167 62.8846 76.0062 62.8846C78.8958 62.8846 81.7693 63.1879 84.579 63.7786C84.7387 63.8105 84.8664 63.9063 84.9462 64.0499C87.7399 69.1587 89.528 74.6825 90.2783 80.4617H90.2623ZM89.4002 40.8373C89.4002 40.8373 89.5918 40.6776 89.7834 40.6776C89.8473 40.6776 89.927 40.6776 90.0068 40.7255C95.8817 43.0564 101.134 46.8879 105.221 51.7891C105.428 52.0285 105.349 52.284 105.301 52.3798C105.269 52.4596 105.125 52.715 104.79 52.715C101.166 52.7629 97.558 52.3479 94.0618 51.5177C93.9181 51.4858 93.7904 51.3899 93.7105 51.2622C91.8427 48.181 90.3421 44.8604 89.2566 41.412C89.1608 41.1087 89.3363 40.9012 89.4162 40.8373H89.4002ZM67.9283 38.9215C73.2125 37.788 78.784 37.788 84.0682 38.9215C84.2757 38.9694 84.4512 39.1291 84.4991 39.3366C85.6326 44.0781 87.4685 48.6121 89.943 52.8108C90.0548 53.0024 90.0388 53.2419 89.911 53.4335L85.489 59.5319C85.3613 59.7075 85.1377 59.8033 84.9302 59.7554C79.0873 58.5741 72.9091 58.5741 67.0662 59.7554C66.8587 59.8033 66.6352 59.7075 66.5075 59.5319L62.0854 53.4335C61.9576 53.2579 61.9416 53.0024 62.0534 52.8108C64.5279 48.6121 66.3638 44.0781 67.4973 39.3366C67.5452 39.1291 67.7208 38.9694 67.9283 38.9215ZM46.7757 51.7891C50.8625 46.8719 56.1147 43.0404 61.9896 40.7255C62.0694 40.6936 62.1492 40.6776 62.2131 40.6776C62.4206 40.6776 62.5483 40.7894 62.5962 40.8373C62.676 40.9171 62.8516 41.1087 62.7558 41.412C61.6703 44.8764 60.1696 48.181 58.3018 51.2622C58.222 51.3899 58.0943 51.4858 57.9507 51.5177C54.4545 52.3479 50.8465 52.7629 47.2226 52.715C46.8874 52.715 46.7437 52.4596 46.7118 52.3798C46.6639 52.284 46.584 52.0285 46.7916 51.7891H46.7757ZM43.2156 56.8658C43.3114 56.6902 43.5029 56.5785 43.7105 56.5785C43.7105 56.5785 43.7424 56.5785 43.7584 56.5785C48.6275 56.9616 53.5126 56.6264 58.254 55.5727C58.4775 55.5248 58.701 55.6046 58.8287 55.7962L63.2827 61.9266C63.4104 62.1022 63.4264 62.3418 63.3306 62.5174C60.489 67.8177 58.6371 73.5171 57.8229 79.4719C57.791 79.6794 57.6473 79.855 57.4398 79.9348L50.2399 82.2816C50.0324 82.3455 49.7929 82.2817 49.6492 82.122C46.4244 78.4661 42.6888 75.337 38.5221 72.7827C38.3465 72.6709 38.2348 72.4634 38.2507 72.2398C38.7935 66.764 40.4697 61.5914 43.2316 56.8818L43.2156 56.8658ZM44.9557 96.2029C44.8599 96.5062 44.5886 96.5701 44.4768 96.586C44.3651 96.586 44.1096 96.5861 43.934 96.3306C40.5336 90.9825 38.5221 84.7881 38.123 78.4342C38.107 78.1149 38.3145 77.9552 38.4103 77.9073C38.5061 77.8594 38.7615 77.7477 39.017 77.9393C41.9704 80.0306 44.6524 82.4892 46.9991 85.2192C47.0949 85.3309 47.1428 85.4746 47.1268 85.6343C46.8395 89.2263 46.1051 92.7865 44.9397 96.2189L44.9557 96.2029ZM60.7284 110.779C55.7476 108.591 51.3573 105.383 47.6856 101.264C47.5419 101.104 47.4941 100.865 47.5739 100.673C49.4417 96.1709 50.623 91.4294 51.0859 86.5761C51.1019 86.3526 51.2616 86.1611 51.4692 86.0972L58.5892 83.7823C58.5892 83.7823 58.7009 83.7504 58.7648 83.7504C58.9244 83.7504 59.0681 83.8143 59.1798 83.942C63.1709 88.4121 68.1677 92.052 73.6435 94.4627C73.851 94.5585 73.9787 94.7501 73.9787 94.9736V102.461C73.9787 102.685 73.851 102.892 73.6435 102.972C69.1735 104.904 65.0228 107.506 61.3031 110.683C61.1435 110.827 60.904 110.858 60.7124 110.763L60.7284 110.779ZM85.8402 112.359C85.8242 112.471 85.7444 112.726 85.4251 112.806C79.2629 114.371 72.7495 114.371 66.5873 112.806C66.284 112.726 66.1882 112.471 66.1722 112.359C66.1562 112.247 66.1243 111.992 66.3957 111.784C69.3012 109.629 72.4622 107.825 75.7987 106.436C75.9424 106.372 76.086 106.372 76.2297 106.436C79.5502 107.825 82.7112 109.629 85.6326 111.784C85.8881 111.976 85.8721 112.247 85.8562 112.359H85.8402ZM104.343 101.28C100.671 105.399 96.2808 108.591 91.2999 110.779C91.0924 110.874 90.8689 110.827 90.7093 110.699C86.9896 107.522 82.8549 104.92 78.3689 102.988C78.1614 102.892 78.0336 102.701 78.0336 102.477V94.9896C78.0336 94.766 78.1614 94.5585 78.3689 94.4787C83.8447 92.068 88.8574 88.4281 92.8325 83.958C92.9443 83.8303 93.088 83.7664 93.2476 83.7664C93.3115 83.7664 93.3593 83.7663 93.4232 83.7983L100.543 86.1132C100.751 86.177 100.91 86.3686 100.926 86.5921C101.389 91.4454 102.571 96.171 104.439 100.689C104.518 100.881 104.486 101.12 104.327 101.28H104.343ZM108.078 96.3465C107.903 96.6179 107.631 96.618 107.536 96.602C107.424 96.602 107.168 96.5222 107.057 96.2189C105.907 92.7865 105.173 89.2263 104.87 85.6343C104.87 85.4906 104.902 85.3309 104.997 85.2192C107.344 82.4892 110.026 80.0466 112.979 77.9393C113.091 77.8594 113.203 77.8275 113.299 77.8275C113.426 77.8275 113.522 77.8754 113.586 77.9073C113.682 77.9552 113.905 78.1149 113.873 78.4342C113.474 84.7881 111.463 90.9825 108.062 96.3306L108.078 96.3465Z" fill="#478BF9"/>
</g>
</svg>
