<svg width="17" height="20" viewBox="0 0 17 20" fill="none" xmlns="http://www.w3.org/2000/svg">
    <path d="M8.5 10C9.05 10 9.521 9.804 9.913 9.412C10.3043 9.02067 10.5 8.55 10.5 8C10.5 7.45 10.3043 6.979 9.913 6.587C9.521 6.19567 9.05 6 8.5 6C7.95 6 7.47933 6.19567 7.088 6.587C6.696 6.979 6.5 7.45 6.5 8C6.5 8.55 6.696 9.02067 7.088 9.412C7.47933 9.804 7.95 10 8.5 10ZM8.5 17.35C10.5333 15.4833 12.0417 13.7873 13.025 12.262C14.0083 10.7373 14.5 9.38333 14.5 8.2C14.5 6.38333 13.9207 4.89567 12.762 3.737C11.604 2.579 10.1833 2 8.5 2C6.81667 2 5.39567 2.579 4.237 3.737C3.079 4.89567 2.5 6.38333 2.5 8.2C2.5 9.38333 2.99167 10.7373 3.975 12.262C4.95833 13.7873 6.46667 15.4833 8.5 17.35ZM8.5 20C5.81667 17.7167 3.81267 15.5957 2.488 13.637C1.16267 11.679 0.5 9.86667 0.5 8.2C0.5 5.7 1.30433 3.70833 2.913 2.225C4.521 0.741667 6.38333 0 8.5 0C10.6167 0 12.479 0.741667 14.087 2.225C15.6957 3.70833 16.5 5.7 16.5 8.2C16.5 9.86667 15.8377 11.679 14.513 13.637C13.1877 15.5957 11.1833 17.7167 8.5 20Z" fill="white"/>
</svg>
