<svg width="568" height="65" viewBox="0 0 568 65" fill="none" xmlns="http://www.w3.org/2000/svg">
    <path d="M221.883 46.7913V18.8114H227.987L238.228 35.3995L233.85 35.3595L244.212 18.8114H250.075V46.7913H243.449V38.0775C243.449 35.6793 243.502 33.5208 243.609 31.6022C243.743 29.6836 243.957 27.7783 244.252 25.8863L245.015 27.9648L237.224 39.9962H234.573L226.943 28.0448L227.706 25.8863C228 27.6717 228.201 29.5104 228.308 31.4024C228.442 33.2677 228.509 35.4927 228.509 38.0775V46.7913H221.883Z" fill="#FF0909"/>
    <path d="M257.943 46.7913V18.8114H277.541V24.6072H264.57V40.9954H277.943V46.7913H257.943ZM261.156 35.3195V29.8035H275.734V35.3195H261.156Z" fill="#FF0909"/>
    <path d="M297.683 47.191C295.434 47.191 293.399 46.8312 291.579 46.1118C289.758 45.3923 288.192 44.3797 286.88 43.074C285.568 41.7682 284.564 40.236 283.868 38.4773C283.172 36.6919 282.824 34.7599 282.824 32.6814C282.824 30.6029 283.185 28.6976 283.908 26.9655C284.658 25.2068 285.715 23.6746 287.081 22.3689C288.446 21.0631 290.052 20.0505 291.9 19.331C293.774 18.6116 295.809 18.2518 298.004 18.2518C299.557 18.2518 301.016 18.4517 302.382 18.8514C303.774 19.2511 305.032 19.7974 306.157 20.4902C307.281 21.183 308.231 21.9825 309.008 22.8885L304.871 27.2453C304.202 26.6058 303.506 26.0729 302.783 25.6465C302.087 25.2201 301.337 24.887 300.534 24.6472C299.731 24.3807 298.874 24.2475 297.964 24.2475C296.786 24.2475 295.702 24.4607 294.711 24.887C293.747 25.3134 292.89 25.913 292.141 26.6857C291.418 27.4319 290.856 28.3246 290.454 29.3638C290.052 30.3764 289.852 31.4823 289.852 32.6814C289.852 33.8806 290.066 34.9998 290.494 36.039C290.923 37.0783 291.512 37.9843 292.261 38.7571C293.011 39.5032 293.894 40.1028 294.912 40.5558C295.956 40.9821 297.067 41.1953 298.245 41.1953C299.075 41.1953 299.851 41.0621 300.574 40.7956C301.324 40.5291 301.967 40.1694 302.502 39.7164C303.037 39.2634 303.466 38.7304 303.787 38.1175C304.108 37.478 304.269 36.7985 304.269 36.079V35.0397L305.153 36.3988H297.402V31.0826H310.614C310.668 31.3757 310.708 31.7754 310.735 32.2817C310.762 32.788 310.775 33.281 310.775 33.7607C310.802 34.2403 310.815 34.6 310.815 34.8399C310.815 36.6519 310.48 38.3174 309.811 39.8363C309.169 41.3285 308.258 42.6209 307.08 43.7135C305.902 44.806 304.51 45.6588 302.904 46.2717C301.297 46.8845 299.557 47.191 297.683 47.191Z" fill="#FF0909"/>
    <path d="M312.882 46.7913L324.006 18.8114H329.789L340.833 46.7913H333.925L328.624 32.6015C328.41 32.0419 328.196 31.4423 327.982 30.8028C327.768 30.1632 327.553 29.5104 327.339 28.8442C327.125 28.1514 326.911 27.4852 326.697 26.8456C326.509 26.1794 326.349 25.5666 326.215 25.007L327.42 24.967C327.259 25.6332 327.072 26.286 326.857 26.9256C326.67 27.5651 326.469 28.2047 326.255 28.8442C326.068 29.4571 325.853 30.0833 325.612 30.7228C325.371 31.3357 325.144 31.9753 324.93 32.6415L319.629 46.7913H312.882ZM318.183 41.4351L320.311 36.3188H333.243L335.331 41.4351H318.183Z" fill="#FF0909"/>
    <path d="M345.144 46.7913V18.8114H357.272C359.039 18.8114 360.605 19.2111 361.97 20.0106C363.363 20.81 364.46 21.9025 365.264 23.2882C366.094 24.6739 366.509 26.2327 366.509 27.9648C366.509 29.7769 366.094 31.4024 365.264 32.8413C364.46 34.2536 363.363 35.3728 361.97 36.1989C360.605 37.025 359.039 37.438 357.272 37.438H351.971V46.7913H345.144ZM351.85 31.4823H356.308C356.897 31.4823 357.432 31.3357 357.914 31.0426C358.396 30.7495 358.784 30.3498 359.079 29.8435C359.373 29.3372 359.521 28.7509 359.521 28.0847C359.521 27.3919 359.373 26.8057 359.079 26.326C358.784 25.8464 358.396 25.4733 357.914 25.2068C357.432 24.9403 356.897 24.8071 356.308 24.8071H351.85V31.4823Z" fill="#FF0909"/>
    <path d="M366.335 46.7913L377.459 18.8114H383.242L394.286 46.7913H387.379L382.078 32.6015C381.863 32.0419 381.649 31.4423 381.435 30.8028C381.221 30.1632 381.007 29.5104 380.793 28.8442C380.578 28.1514 380.364 27.4852 380.15 26.8456C379.963 26.1794 379.802 25.5666 379.668 25.007L380.873 24.967C380.712 25.6332 380.525 26.286 380.311 26.9256C380.123 27.5651 379.922 28.2047 379.708 28.8442C379.521 29.4571 379.307 30.0833 379.066 30.7228C378.825 31.3357 378.597 31.9753 378.383 32.6415L373.082 46.7913H366.335ZM371.636 41.4351L373.765 36.3188H386.696L388.784 41.4351H371.636Z" fill="#FF0909"/>
    <path d="M398.597 46.7913V18.8114H411.247C413.041 18.8114 414.661 19.1978 416.106 19.9706C417.579 20.7434 418.73 21.8093 419.56 23.1683C420.39 24.5007 420.805 26.0196 420.805 27.725C420.805 29.4837 420.39 31.0693 419.56 32.4816C418.73 33.8672 417.592 34.9598 416.147 35.7592C414.701 36.5586 413.068 36.9584 411.247 36.9584H405.103V46.7913H398.597ZM414.179 46.7913L407.03 34.1604L414.018 33.1611L421.97 46.7913H414.179ZM405.103 31.7621H410.645C411.341 31.7621 411.943 31.6155 412.452 31.3224C412.987 31.0026 413.389 30.563 413.657 30.0034C413.951 29.4438 414.098 28.8042 414.098 28.0847C414.098 27.3653 413.938 26.739 413.617 26.2061C413.295 25.6465 412.827 25.2201 412.211 24.927C411.622 24.6339 410.899 24.4873 410.042 24.4873H405.103V31.7621Z" fill="#FF0909"/>
    <path d="M432.918 46.7913V24.8071H424.565V18.8114H448.299V24.8071H439.745V46.7913H432.918Z" fill="#FF0909"/>
    <path d="M453.933 46.7913V18.8114H460.037L474.775 38.797L473.45 38.5972C473.316 37.7178 473.209 36.8784 473.129 36.079C473.049 35.2796 472.968 34.4935 472.888 33.7207C472.834 32.9479 472.781 32.1618 472.727 31.3624C472.701 30.563 472.674 29.6969 472.647 28.7643C472.647 27.8316 472.647 26.819 472.647 25.7264V18.8114H479.273V46.7913H473.089L457.708 26.1661L459.756 26.4459C459.89 27.725 459.997 28.8175 460.077 29.7236C460.184 30.6029 460.264 31.389 460.318 32.0819C460.398 32.7747 460.452 33.4009 460.479 33.9605C460.505 34.5201 460.519 35.0797 460.519 35.6393C460.546 36.1723 460.559 36.7718 460.559 37.438V46.7913H453.933Z" fill="#FF0909"/>
    <path d="M487.13 46.7913V18.8114H506.728V24.6072H493.757V40.9954H507.13V46.7913H487.13ZM490.343 35.3195V29.8035H504.921V35.3195H490.343Z" fill="#FF0909"/>
    <path d="M513.818 46.7913V18.8114H526.468C528.262 18.8114 529.882 19.1978 531.327 19.9706C532.8 20.7434 533.951 21.8093 534.781 23.1683C535.611 24.5007 536.026 26.0196 536.026 27.725C536.026 29.4837 535.611 31.0693 534.781 32.4816C533.951 33.8672 532.813 34.9598 531.368 35.7592C529.922 36.5586 528.289 36.9584 526.468 36.9584H520.324V46.7913H513.818ZM529.4 46.7913L522.251 34.1604L529.239 33.1611L537.191 46.7913H529.4ZM520.324 31.7621H525.866C526.562 31.7621 527.164 31.6155 527.673 31.3224C528.208 31.0026 528.61 30.563 528.878 30.0034C529.172 29.4438 529.319 28.8042 529.319 28.0847C529.319 27.3653 529.159 26.739 528.837 26.2061C528.516 25.6465 528.048 25.2201 527.432 24.927C526.843 24.6339 526.12 24.4873 525.263 24.4873H520.324V31.7621Z" fill="#FF0909"/>
    <path d="M552.136 47.191C550.289 47.191 548.615 46.9778 547.116 46.5515C545.644 46.0984 544.332 45.4589 543.18 44.6328C542.029 43.7801 540.998 42.7808 540.088 41.635L544.225 36.9584C545.563 38.7437 546.902 39.9429 548.241 40.5558C549.606 41.1687 551.012 41.4751 552.457 41.4751C553.18 41.4751 553.836 41.3818 554.425 41.1953C555.014 41.0088 555.469 40.7423 555.791 40.3959C556.112 40.0228 556.273 39.5698 556.273 39.0369C556.273 38.6371 556.165 38.2774 555.951 37.9576C555.764 37.6379 555.496 37.3581 555.148 37.1182C554.8 36.8784 554.385 36.6652 553.903 36.4787C553.421 36.2655 552.913 36.0923 552.377 35.9591C551.842 35.7992 551.293 35.666 550.73 35.5594C549.178 35.2129 547.826 34.7866 546.674 34.2803C545.523 33.774 544.559 33.1611 543.783 32.4416C543.033 31.6955 542.471 30.8561 542.096 29.9234C541.721 28.9641 541.534 27.8982 541.534 26.7257C541.534 25.4733 541.815 24.3274 542.377 23.2882C542.966 22.2223 543.743 21.3163 544.707 20.5701C545.697 19.7974 546.835 19.2111 548.12 18.8114C549.405 18.3851 550.744 18.1719 552.136 18.1719C553.983 18.1719 555.563 18.3717 556.875 18.7714C558.214 19.1445 559.352 19.6908 560.289 20.4103C561.252 21.1297 562.069 21.9958 562.738 23.0084L558.522 27.0455C557.959 26.3527 557.344 25.7797 556.674 25.3267C556.032 24.8737 555.336 24.5273 554.586 24.2875C553.863 24.0476 553.113 23.9277 552.337 23.9277C551.534 23.9277 550.838 24.0343 550.249 24.2475C549.686 24.434 549.245 24.7138 548.923 25.0869C548.602 25.4333 548.441 25.8597 548.441 26.366C548.441 26.819 548.575 27.2054 548.843 27.5251C549.111 27.8449 549.472 28.138 549.927 28.4045C550.382 28.6443 550.905 28.8575 551.494 29.044C552.083 29.2039 552.698 29.3372 553.341 29.4438C554.813 29.7369 556.139 30.1233 557.317 30.6029C558.522 31.0826 559.552 31.6688 560.409 32.3617C561.293 33.0545 561.962 33.8806 562.417 34.8399C562.899 35.7725 563.14 36.8651 563.14 38.1175C563.14 40.0628 562.658 41.7149 561.694 43.074C560.757 44.4063 559.459 45.4323 557.799 46.1517C556.165 46.8446 554.278 47.191 552.136 47.191Z" fill="#FF0909"/>
    <path d="M187.377 23.4434L187.364 23.456L171.652 7.82346C164.273 0.479153 152.309 0.482289 144.934 7.82346L136.424 16.2936L123.065 29.5898L118.515 34.1181L95.3446 57.1796C94.9476 57.5747 94.9476 58.2176 95.3446 58.6127C98.8356 62.0842 103.41 63.8215 107.985 63.8215C112.56 63.8215 117.135 62.0842 120.626 58.6127L151.733 27.6518C155.359 24.0424 161.238 24.0424 164.865 27.6518L170.171 32.9327C172.288 35.0432 172.288 38.4613 170.171 40.5687L169.352 41.384C167.234 43.4913 163.8 43.4913 161.683 41.3809L154.808 34.5414C154.411 34.1463 153.768 34.1463 153.371 34.5414L141.449 46.4077C141.052 46.8029 141.052 47.4426 141.449 47.8377L152.158 58.4967C155.848 62.1688 160.684 64.0034 165.517 64.0034C170.35 64.0034 175.19 62.1688 178.879 58.4967L187.38 50.036C194.759 42.6917 194.759 30.7846 187.38 23.4403L187.377 23.4434Z" fill="white"/>
    <path d="M158.421 5.44883C162.624 5.44883 166.578 7.0795 169.552 10.0367L185.265 25.6692L185.797 26.196C191.412 32.3393 191.238 41.8819 185.277 47.815L176.777 56.2757C173.802 59.2329 169.851 60.8635 165.642 60.8635C161.433 60.8635 157.485 59.2329 154.511 56.2757L145.311 47.1188L154.215 38.2567L159.577 43.5909C161.196 45.2059 163.352 46.0934 165.642 46.0934C167.933 46.0934 170.085 45.2059 171.704 43.5941L172.523 42.7787C175.863 39.4547 175.866 34.0389 172.523 30.7086L167.217 25.4277C164.867 23.0883 161.745 21.8026 158.424 21.8026C155.103 21.8026 151.978 23.0915 149.63 25.4277L118.523 56.3886C115.741 59.1545 112.042 60.6785 108.11 60.6785C104.897 60.6785 101.84 59.6625 99.3135 57.7809L120.867 36.3282L125.417 31.7999L138.776 18.5036L147.286 10.0335C150.26 7.07323 154.211 5.44569 158.418 5.44569M158.418 2.30978C153.581 2.30978 148.748 4.14429 145.059 7.81644L136.549 16.2865L123.19 29.5828L118.64 34.1111L95.4696 57.1726C95.0726 57.5677 95.0726 58.2106 95.4696 58.6057C98.9606 62.0771 103.535 63.8144 108.11 63.8144C112.685 63.8144 117.26 62.0771 120.751 58.6057L151.858 27.6448C153.669 25.8417 156.048 24.9385 158.424 24.9385C160.8 24.9385 163.175 25.8417 164.99 27.6448L170.296 32.9257C172.413 35.0362 172.413 38.4543 170.296 40.5616L169.477 41.377C168.418 42.4306 167.032 42.9575 165.642 42.9575C164.253 42.9575 162.866 42.4306 161.805 41.3738L154.93 34.5344C154.731 34.3369 154.47 34.2396 154.211 34.2396C153.953 34.2396 153.692 34.3369 153.493 34.5344L141.571 46.4007C141.174 46.7958 141.174 47.4356 141.571 47.8307L152.28 58.4897C155.969 62.1618 160.806 63.9963 165.639 63.9963C170.472 63.9963 175.312 62.1618 179.001 58.4897L187.502 50.029C194.881 42.6847 194.881 30.7776 187.502 23.4333L187.489 23.4458L171.777 7.8133C168.087 4.14115 163.254 2.30664 158.418 2.30664V2.30978Z" fill="#FF0909"/>
    <path d="M119.998 26.6756L123.193 29.8492L136.552 16.5529L126.772 6.81904C119.393 -0.525265 107.43 -0.525265 100.051 6.81904L100.073 6.84099L91.5658 15.3111L81.7986 5.50823C74.4197 -1.83608 62.4564 -1.83608 55.0775 5.50823L2.97743 57.3606C2.58044 57.7588 2.58044 58.3985 2.97743 58.7937C6.46841 62.2683 11.0432 64.0056 15.6212 64.0056C20.1992 64.0056 24.7709 62.2683 28.2618 58.7937L61.8232 25.3899C65.4465 21.7805 71.3257 21.7805 74.9521 25.3899L77.3971 27.8234C77.8382 28.2624 77.8382 28.9743 77.3971 29.4102L49.3653 57.3135C48.9683 57.7086 48.9683 58.3484 49.3653 58.7435C52.8562 62.2181 57.4311 63.9554 62.0059 63.9554C66.5807 63.9554 71.1587 62.2181 74.6497 58.7435L106.866 26.6788C110.492 23.0693 116.371 23.0693 119.995 26.6788L119.998 26.6756Z" fill="#FF0909"/>
</svg>
