<svg width="209" height="71" viewBox="0 0 209 71" fill="none" xmlns="http://www.w3.org/2000/svg">
    <path d="M170.535 6.02787C175.136 6.02787 179.465 7.82323 182.72 11.079L199.921 28.2903L200.504 28.8703C206.65 35.634 206.46 46.1403 199.935 52.6726L190.629 61.9877C187.373 65.2436 183.048 67.0389 178.44 67.0389C173.832 67.0389 169.511 65.2436 166.255 61.9877L156.183 51.9061L165.93 42.1491L171.801 48.0219C173.574 49.8 175.933 50.7771 178.44 50.7771C180.948 50.7771 183.303 49.8 185.076 48.0254L185.973 47.1277C189.629 43.468 189.632 37.5053 185.973 33.8386L180.165 28.0244C177.592 25.4488 174.174 24.0332 170.538 24.0332C166.903 24.0332 163.482 25.4522 160.912 28.0244L126.86 62.112C123.814 65.1572 119.765 66.8352 115.46 66.8352C111.942 66.8352 108.597 65.7166 105.831 63.645L129.426 40.0257L134.406 35.0401L149.03 20.4011L158.346 11.0756C161.602 7.81632 165.927 6.02442 170.531 6.02442M170.531 2.57181C165.237 2.57181 159.946 4.59159 155.907 8.63459L146.592 17.9601L131.968 32.5991L126.987 37.5847L101.623 62.9752C101.188 63.4102 101.188 64.118 101.623 64.553C105.444 68.3751 110.452 70.2878 115.46 70.2878C120.468 70.2878 125.476 68.3751 129.298 64.553L163.351 30.4654C165.334 28.4802 167.938 27.4858 170.538 27.4858C173.139 27.4858 175.74 28.4802 177.726 30.4654L183.534 36.2796C185.852 38.6032 185.852 42.3666 183.534 44.6867L182.638 45.5844C181.479 46.7445 179.961 47.3245 178.44 47.3245C176.919 47.3245 175.402 46.7445 174.239 45.581L166.713 38.0508C166.496 37.8333 166.21 37.7263 165.927 37.7263C165.644 37.7263 165.358 37.8333 165.141 38.0508L152.089 51.1155C151.655 51.5505 151.655 52.2548 152.089 52.6899L163.813 64.4253C167.852 68.4683 173.146 70.4881 178.437 70.4881C183.728 70.4881 189.025 68.4683 193.064 64.4253L202.37 55.1101C210.447 47.0241 210.447 33.9146 202.37 25.8286L202.356 25.8424L185.155 8.63114C181.117 4.58814 175.826 2.56836 170.531 2.56836V2.57181Z" fill="white"/>
    <path d="M128.451 29.377L131.949 32.8719L146.576 18.2292L135.868 7.50958C127.789 -0.578457 114.69 -0.578457 106.611 7.50958L106.635 7.53375L97.3211 16.8616L86.627 6.06603C78.5479 -2.02201 65.4494 -2.02201 57.3702 6.06603L0.325996 63.1692C-0.108665 63.6078 -0.108665 64.3123 0.325996 64.7474C4.14826 68.5739 9.15722 70.4871 14.1696 70.4871C19.182 70.4871 24.1875 68.5739 28.0098 64.7474L64.756 27.961C68.7231 23.9861 75.1603 23.9861 79.1309 27.961L81.8078 30.6409C82.2908 31.1244 82.2908 31.9084 81.8078 32.3884L51.1159 63.1174C50.6812 63.5525 50.6812 64.2571 51.1159 64.6922C54.9381 68.5186 59.9471 70.4319 64.956 70.4319C69.965 70.4319 74.9774 68.5186 78.7997 64.6922L114.073 29.3804C118.043 25.4055 124.481 25.4055 128.448 29.3804L128.451 29.377Z" fill="white"/>
</svg>
