<svg width="136" height="136" viewBox="0 0 136 136" fill="none" xmlns="http://www.w3.org/2000/svg">
<g opacity="0.08">
<path d="M60 136C18.0883 136 -16 101.896 -16 60C-16 18.1042 18.1043 -16 60 -16C101.896 -16 136 18.1042 136 60C136 101.896 101.896 136 60 136ZM60 -10.9387C20.8824 -10.9387 -10.9387 20.8823 -10.9387 60C-10.9387 99.1176 20.8824 130.939 60 130.939C99.1177 130.939 130.939 99.1176 130.939 60C130.939 20.8823 99.1177 -10.9387 60 -10.9387Z" fill="#478BF9"/>
<path d="M109.58 5.77935L86.0513 29.3076L90.6802 33.9365L114.208 10.4083L109.58 5.77935Z" fill="#478BF9"/>
<path d="M28.5956 86.7599L5.06738 110.288L9.69623 114.917L33.2244 91.3887L28.5956 86.7599Z" fill="#478BF9"/>
<path d="M91.3955 86.7832L86.7666 91.4121L110.295 114.94L114.924 110.311L91.3955 86.7832Z" fill="#478BF9"/>
<path d="M9.69232 5.07232L5.06348 9.70117L28.5804 33.2181L33.2093 28.5893L9.69232 5.07232Z" fill="#478BF9"/>
<path d="M78.5393 62.0439C80.072 60.5112 80.072 58.0363 78.5393 56.5195L75.2821 53.2784C73.7493 51.7456 71.2746 51.7456 69.7578 53.2784L68.0014 55.0347L65.9737 53.0069C64.441 51.4741 61.9661 51.4741 60.4493 53.0069L58.6931 54.7793L56.6653 52.7355C55.1325 51.2027 52.6577 51.2027 51.1409 52.7355L40.3636 63.5128C40.2838 63.5927 40.2838 63.7204 40.3636 63.8162C41.8006 65.2532 44.1477 65.2532 45.6006 63.8162L52.5459 56.8709C53.2964 56.1204 54.5098 56.1204 55.2603 56.8709L55.7712 57.3817C55.867 57.4775 55.867 57.6212 55.7712 57.717L49.9754 63.5128C49.8955 63.5927 49.8955 63.7204 49.9754 63.8162C51.4124 65.2532 53.7595 65.2532 55.2124 63.8162L61.8704 57.1582C62.6208 56.4078 63.8342 56.4078 64.5847 57.1582L65.0956 57.6692C65.1754 57.749 65.1754 57.8767 65.0956 57.9725L59.5074 63.5608C59.4275 63.6406 59.4275 63.7683 59.5074 63.8641C60.9443 65.3011 63.2913 65.3011 64.7443 63.8641L71.1788 57.4296C71.9292 56.6792 73.1426 56.6792 73.893 57.4296L74.9947 58.5313C75.4258 58.9624 75.4258 59.6809 74.9947 60.112L74.8191 60.2876C74.388 60.7187 73.6695 60.7187 73.2384 60.2876L71.8174 58.8667C71.7376 58.7868 71.6098 58.7868 71.514 58.8667L69.0552 61.3254C68.9754 61.4053 68.9754 61.533 69.0552 61.6288L71.2746 63.8482C72.8074 65.3809 75.2821 65.3809 76.7989 63.8482L78.5553 62.0918L78.5393 62.0439Z" fill="#478BF9"/>
<path d="M60.0036 1.72363C27.8154 1.72363 1.72632 27.8127 1.72632 60.0009C1.72632 92.1892 27.8154 118.278 60.0036 118.278C92.1919 118.278 118.281 92.1892 118.281 60.0009C118.281 27.8127 92.1919 1.72363 60.0036 1.72363ZM62.3826 19.7178C71.7389 20.2606 80.233 23.9967 86.8112 29.8404L78.3968 38.2547C74.0061 34.5346 68.4658 32.1237 62.3826 31.6128V19.7178ZM57.6405 19.7178V31.6128C51.5573 32.1077 46.0171 34.5346 41.6263 38.2547L33.212 29.8404C39.7901 23.9967 48.2842 20.2606 57.6405 19.7178ZM29.8591 33.1934L38.2733 41.6077C34.5531 45.9985 32.1423 51.5388 31.6313 57.622H19.7364C20.2792 48.2657 24.0154 39.7716 29.8591 33.1934ZM19.7364 62.364H31.6313C32.1263 68.4472 34.5531 73.9875 38.2733 78.3783L29.8591 86.7926C24.0154 80.2144 20.2792 71.7203 19.7364 62.364ZM57.6405 100.268C48.2842 99.7254 39.7901 95.9892 33.212 90.1455L41.6263 81.7312C46.0171 85.4513 51.5573 87.8623 57.6405 88.3732V100.268ZM35.5111 59.985C35.5111 46.4614 46.4801 35.4926 60.0036 35.4926C73.5272 35.4926 84.496 46.4614 84.496 59.985C84.496 73.5085 73.5272 84.4774 60.0036 84.4774C46.4801 84.4774 35.5111 73.5085 35.5111 59.985ZM62.3826 100.268V88.3732C68.4658 87.8783 74.0061 85.4513 78.3968 81.7312L86.8112 90.1455C80.233 95.9892 71.7389 99.7254 62.3826 100.268ZM90.1641 86.7926L81.7498 78.3783C85.47 73.9875 87.8809 68.4472 88.3918 62.364H100.287C99.7439 71.7203 96.0078 80.2144 90.1641 86.7926ZM88.3918 57.622C87.8969 51.5388 85.47 45.9985 81.7498 41.6077L90.1641 33.1934C96.0078 39.7716 99.7439 48.2657 100.287 57.622H88.3918Z" fill="#478BF9"/>
</g>
</svg>
