<svg width="40" height="40" viewBox="0 0 40 40" fill="none" xmlns="http://www.w3.org/2000/svg">
    <rect width="40" height="40" rx="20" fill="#478BF9"/>
    <g clip-path="url(#clip0_506_8776)">
        <path fill-rule="evenodd" clip-rule="evenodd" d="M19.9996 22.1206L25.3026 27.4246C25.584 27.706 25.9657 27.8641 26.3636 27.8641C26.7616 27.8641 27.1432 27.706 27.4246 27.4246C27.706 27.1432 27.8641 26.7616 27.8641 26.3636C27.8641 25.9657 27.706 25.584 27.4246 25.3026L22.1196 19.9996L27.4236 14.6966C27.5629 14.5573 27.6733 14.3919 27.7487 14.2099C27.824 14.0278 27.8628 13.8328 27.8627 13.6358C27.8627 13.4388 27.8238 13.2437 27.7484 13.0617C27.673 12.8797 27.5624 12.7144 27.4231 12.5751C27.2838 12.4359 27.1184 12.3254 26.9364 12.2501C26.7543 12.1747 26.5592 12.1359 26.3623 12.136C26.1653 12.136 25.9702 12.1749 25.7882 12.2503C25.6062 12.3258 25.4409 12.4363 25.3016 12.5756L19.9996 17.8786L14.6966 12.5756C14.5583 12.4323 14.3928 12.3179 14.2099 12.2392C14.0269 12.1605 13.8301 12.1191 13.6309 12.1173C13.4318 12.1154 13.2342 12.1533 13.0498 12.2286C12.8655 12.304 12.6979 12.4153 12.557 12.556C12.4161 12.6968 12.3047 12.8642 12.2292 13.0485C12.1536 13.2328 12.1156 13.4303 12.1172 13.6295C12.1189 13.8287 12.1602 14.0255 12.2387 14.2086C12.3172 14.3916 12.4314 14.5572 12.5746 14.6956L17.8796 19.9996L12.5756 25.3026C12.2942 25.584 12.1361 25.9657 12.1361 26.3636C12.1361 26.7616 12.2942 27.1432 12.5756 27.4246C12.857 27.706 13.2387 27.8641 13.6366 27.8641C14.0346 27.8641 14.4162 27.706 14.6976 27.4246L19.9996 22.1196V22.1206Z" fill="white"/>
    </g>
    <defs>
        <clipPath id="clip0_506_8776">
            <rect width="24" height="24" fill="white" transform="translate(8 8)"/>
        </clipPath>
    </defs>
</svg>
