<svg width="18" height="18" viewBox="0 0 18 18" fill="none" xmlns="http://www.w3.org/2000/svg">
    <path fill-rule="evenodd" clip-rule="evenodd" d="M7.74854 0.0114041C8.12162 -0.0225415 8.4977 0.0194849 8.85408 0.134945C9.21046 0.250406 9.53974 0.436904 9.82203 0.683176L9.96064 0.812541L17.1883 8.04125C17.6857 8.53877 17.9753 9.20681 17.9985 9.90996C18.0217 10.6131 17.7766 11.2988 17.313 11.8279L17.1883 11.961L11.9611 17.1883C11.4636 17.6857 10.7956 17.9753 10.0925 17.9985C9.38932 18.0217 8.70368 17.7766 8.17452 17.313L8.04146 17.1883L0.811968 9.95955C0.547216 9.69481 0.338837 9.37917 0.199403 9.03169C0.0599685 8.68421 -0.00763063 8.31208 0.000683622 7.93776L0.0108479 7.74834L0.446983 2.95722C0.502976 2.33977 0.764337 1.75891 1.18929 1.30748C1.61425 0.856044 2.17827 0.560104 2.79121 0.466953L2.95661 0.447548L7.74854 0.0114041ZM5.4265 5.42716C5.25486 5.59881 5.1187 5.80258 5.02581 6.02684C4.93292 6.2511 4.88511 6.49147 4.88511 6.73421C4.88511 6.97695 4.93292 7.21731 5.02581 7.44158C5.1187 7.66584 5.25486 7.86961 5.4265 8.04125C5.59814 8.2129 5.8019 8.34905 6.02616 8.44195C6.25042 8.53484 6.49078 8.58265 6.73352 8.58265C6.97625 8.58265 7.21661 8.53484 7.44087 8.44195C7.66513 8.34905 7.86889 8.2129 8.04053 8.04125C8.38718 7.6946 8.58192 7.22445 8.58192 6.73421C8.58192 6.24397 8.38718 5.77381 8.04053 5.42716C7.69389 5.08051 7.22374 4.88577 6.73352 4.88577C6.24329 4.88577 5.77314 5.08051 5.4265 5.42716Z" fill="white"/>
</svg>
