<svg width="186" height="74" viewBox="0 0 186 74" fill="none" xmlns="http://www.w3.org/2000/svg">
<g clip-path="url(#clip0_4_25280)">
<path d="M102.876 50.9466C102.051 50.9466 101.226 50.7633 100.493 50.4426C99.714 50.1218 99.0725 49.6636 98.4768 49.1137C97.9269 48.5638 97.4686 47.8764 97.1479 47.0974C96.8271 46.3184 96.6438 45.5394 96.6438 44.6687V36.4204C96.6438 36.1913 96.6896 35.9622 96.7813 35.7789C96.8729 35.5497 97.0104 35.3665 97.1479 35.229C97.2853 35.0915 97.4686 34.954 97.6978 34.8624C97.9269 34.7707 98.1102 34.7249 98.3393 34.7249C98.5684 34.7249 98.7975 34.7707 99.0267 34.8624C99.2558 34.954 99.4391 35.0915 99.5765 35.229C99.7598 35.4123 99.8515 35.5956 99.9431 35.7789C100.035 36.008 100.081 36.1913 100.081 36.4204V38.0701H103.976C104.205 38.0701 104.434 38.1159 104.617 38.2075C104.846 38.2992 105.03 38.4367 105.167 38.5741C105.305 38.7574 105.442 38.9407 105.534 39.124C105.625 39.3531 105.671 39.5364 105.671 39.7656C105.671 40.2238 105.488 40.5904 105.167 40.9112C104.984 41.0486 104.8 41.1861 104.617 41.2778C104.388 41.3694 104.205 41.4152 103.976 41.4152H100.081V44.7146C100.081 45.0812 100.126 45.4478 100.264 45.8143C100.401 46.1809 100.585 46.4559 100.86 46.7308C101.135 47.0058 101.41 47.1891 101.73 47.3265C102.051 47.464 102.418 47.5557 102.784 47.5557C103.517 47.5557 104.113 47.3724 104.571 46.9599C104.984 46.5934 105.396 46.3642 105.854 46.3642C106.038 46.3642 106.221 46.4101 106.404 46.5017C106.588 46.5934 106.771 46.685 106.908 46.8225C107.229 47.1432 107.367 47.5098 107.367 47.9681C107.367 48.243 107.321 48.4721 107.229 48.7471C107.138 49.022 106.954 49.2512 106.771 49.4344C106.221 49.9385 105.625 50.3051 104.984 50.58C104.342 50.8092 103.655 50.9466 102.876 50.9466Z" fill="white"/>
<path d="M88.6699 50.9008C87.8451 50.9008 87.0202 50.7175 86.2412 50.3967C85.4622 50.076 84.8207 49.6177 84.225 49.0678C83.6293 48.4721 83.171 47.8306 82.8503 47.0516C82.5295 46.3184 82.3462 45.4936 82.3462 44.6687C82.3462 43.7981 82.5295 43.0191 82.8503 42.24C83.171 41.461 83.6293 40.8195 84.225 40.2238C84.8207 39.6739 85.4622 39.2157 86.2412 38.8949C87.0202 38.5741 87.7993 38.4366 88.6699 38.4366C89.4947 38.4366 90.3196 38.5741 91.0528 38.8949C91.8318 39.2157 92.4733 39.6281 93.069 40.2238C93.6189 40.7737 94.0772 41.461 94.4438 42.1942C94.7645 42.9274 94.9478 43.7522 94.9478 44.5771C94.9478 45.0811 94.8103 45.4477 94.4896 45.7227C94.1688 45.9976 93.7564 46.1809 93.2982 46.1809H86.1954C86.4704 46.6392 86.8369 46.9599 87.2494 47.2349C87.7076 47.5098 88.1659 47.6015 88.6699 47.6015C88.9907 47.6015 89.2656 47.5556 89.4489 47.5098C89.6322 47.464 89.8613 47.3723 89.9988 47.2807C90.3196 47.0974 90.6404 46.9599 90.9611 46.9599C91.4194 46.9599 91.8318 47.1432 92.1525 47.464C92.29 47.6473 92.4275 47.8306 92.5191 48.0139C92.6108 48.243 92.6566 48.4263 92.6566 48.6554C92.6566 48.9304 92.565 49.2511 92.4275 49.4803C92.2442 49.7552 92.0151 49.9385 91.6943 50.1676C90.9153 50.7175 89.9072 50.9008 88.6699 50.9008ZM91.4652 43.3856C91.2361 42.8816 90.8695 42.4692 90.3654 42.1484C89.9072 41.8276 89.3573 41.6902 88.7157 41.6902C88.12 41.6902 87.5701 41.8276 87.1119 42.1484C86.6537 42.4692 86.2871 42.8816 86.0579 43.3856H91.4652Z" fill="white"/>
<path d="M75.0594 50.9003C74.2346 50.9003 73.4097 50.7628 72.6765 50.4421C71.8975 50.1213 71.256 49.663 70.6603 49.1132C70.0646 48.5633 69.6063 47.8759 69.2856 47.1427C68.9648 46.3637 68.7815 45.5847 68.7815 44.7599V35.6867C68.7815 35.4576 68.8273 35.2284 68.919 34.9993C69.0106 34.7702 69.1481 34.5869 69.2856 34.4494C69.423 34.312 69.6063 34.1745 69.8354 34.0828C70.0646 33.9912 70.2937 33.9454 70.477 33.9454C70.7061 33.9454 70.9352 33.9912 71.1643 34.0828C71.3935 34.1745 71.5768 34.312 71.7142 34.4494C71.8517 34.6327 71.9892 34.816 72.0808 34.9993C72.1725 35.2284 72.2183 35.4576 72.2183 35.6867V39.6276C72.4932 39.3068 72.9057 39.0318 73.4556 38.8027C74.0054 38.5736 74.5553 38.482 75.0594 38.482C75.8842 38.482 76.7091 38.6653 77.4422 38.986C78.2213 39.3068 78.8628 39.765 79.4585 40.3149C80.0084 40.9106 80.4666 41.5522 80.7874 42.3312C81.1082 43.1102 81.2915 43.8892 81.2915 44.714C81.2915 45.5389 81.154 46.3637 80.8332 47.0969C80.5125 47.8301 80.0542 48.5174 79.5043 49.1132C78.9544 49.663 78.2671 50.1213 77.4881 50.4421C76.6632 50.7628 75.8842 50.9003 75.0594 50.9003ZM75.0594 47.5093C75.426 47.5093 75.7926 47.4177 76.1592 47.2802C76.5258 47.1427 76.8007 46.9136 77.0757 46.6845C77.3506 46.4095 77.5339 46.1346 77.6714 45.768C77.8088 45.4472 77.9005 45.0806 77.9005 44.6682C77.9005 44.3016 77.8088 43.935 77.6714 43.5684C77.5339 43.2477 77.3048 42.9269 77.0757 42.652C76.8007 42.377 76.5258 42.1937 76.1592 42.0562C75.7926 41.9188 75.4718 41.8271 75.0594 41.8271C74.6928 41.8271 74.3262 41.9188 73.9596 42.0562C73.593 42.1937 73.3181 42.4228 73.0431 42.652C72.7682 42.9269 72.5849 43.2018 72.4016 43.5684C72.2641 43.935 72.1725 44.2558 72.1725 44.6682C72.1725 45.0348 72.2641 45.4014 72.4016 45.768C72.5391 46.1346 72.7682 46.4095 73.0431 46.6845C73.3181 46.9594 73.593 47.1427 73.9596 47.2802C74.3262 47.4177 74.647 47.5093 75.0594 47.5093Z" fill="white"/>
<path d="M109.931 50.7633C109.472 50.7633 109.106 50.58 108.831 50.2593C108.556 49.9385 108.373 49.5261 108.373 49.022C108.373 48.5179 108.51 48.1055 108.785 47.8306C109.06 47.5098 109.427 47.3723 109.931 47.3723H114.513C114.696 47.3723 114.88 47.3265 114.971 47.2349C115.155 47.1432 115.2 46.9599 115.2 46.7766C115.2 46.5475 115.109 46.41 114.971 46.3184C114.88 46.2726 114.696 46.2267 114.467 46.2267H112.405C111.855 46.2267 111.351 46.1351 110.893 45.906C110.435 45.6769 110.022 45.4019 109.656 44.9895C109.335 44.6229 109.06 44.1647 108.877 43.7064C108.693 43.2024 108.602 42.6983 108.602 42.1942C108.602 41.6902 108.693 41.2319 108.922 40.7278C109.106 40.2696 109.381 39.8572 109.747 39.5364C110.114 39.1698 110.526 38.8949 110.985 38.7116C111.443 38.5283 111.947 38.4366 112.451 38.4366H116.392C116.896 38.4366 117.262 38.5741 117.583 38.8491C117.904 39.1698 118.087 39.5823 118.087 40.0863C118.087 40.5904 117.95 41.0028 117.629 41.3236C117.492 41.5069 117.308 41.5985 117.125 41.6902C116.942 41.7818 116.713 41.8276 116.483 41.8276H112.497C112.359 41.8276 112.268 41.8735 112.176 41.9651C112.084 42.0568 112.038 42.1942 112.038 42.3317C112.038 42.515 112.084 42.6525 112.176 42.6983C112.268 42.7899 112.359 42.8358 112.497 42.8358H114.834C115.384 42.8358 115.888 42.9274 116.346 43.1565C116.804 43.3856 117.217 43.6606 117.583 44.0272C117.904 44.3938 118.179 44.852 118.362 45.3103C118.545 45.8143 118.637 46.3184 118.637 46.8225C118.637 47.3265 118.545 47.8306 118.362 48.2888C118.179 48.7471 117.904 49.1595 117.583 49.5261C117.262 49.8927 116.85 50.1676 116.392 50.3967C115.934 50.6259 115.429 50.7175 114.88 50.7175H109.931V50.7633Z" fill="#FF0000"/>
<path d="M125.833 47.5096C126.199 47.5096 126.566 47.418 126.932 47.2805C127.299 47.143 127.574 46.9139 127.849 46.6848C128.124 46.4098 128.307 46.1349 128.445 45.7683C128.582 45.4475 128.674 45.0809 128.674 44.6685C128.674 44.3019 128.582 43.9353 128.445 43.5687C128.307 43.248 128.078 42.9272 127.849 42.6523C127.574 42.3773 127.299 42.194 126.932 42.0565C126.566 41.9191 126.199 41.8274 125.833 41.8274C125.466 41.8274 125.1 41.9191 124.733 42.0565C124.412 42.194 124.091 42.4231 123.816 42.6523C123.541 42.9272 123.358 43.2021 123.175 43.5687C123.037 43.9353 122.946 44.2561 122.946 44.6685C122.946 45.0351 123.037 45.4017 123.175 45.7683C123.312 46.1349 123.541 46.4098 123.816 46.6848C124.091 46.9597 124.366 47.143 124.733 47.2805C125.1 47.418 125.466 47.5096 125.833 47.5096ZM123.45 50.4424C121.938 49.8008 120.746 48.6094 120.105 47.0972C119.463 45.585 119.463 43.7979 120.105 42.2857C120.746 40.7735 121.938 39.582 123.45 38.9405C124.962 38.299 126.749 38.299 128.261 38.9405C129.774 39.582 130.965 40.7735 131.607 42.2857C132.248 43.7979 132.248 45.585 131.607 47.0972C130.965 48.6094 129.774 49.8008 128.261 50.4424C126.749 51.0839 124.962 51.0839 123.45 50.4424Z" fill="#FF0000"/>
<path d="M152.271 50.7633C152.042 50.7633 151.813 50.7175 151.63 50.6259C151.401 50.5342 151.217 50.4426 151.08 50.2593C150.713 49.9385 150.576 49.5261 150.576 49.0678V44.5313C150.576 43.7064 150.713 42.9274 151.034 42.1942C151.355 41.461 151.767 40.8195 152.363 40.2238C152.959 39.6281 153.554 39.2157 154.288 38.8949C155.021 38.5741 155.8 38.4366 156.625 38.4366C157.45 38.4366 158.229 38.5741 159.008 38.8949C159.741 39.2157 160.428 39.6281 161.024 40.2238C161.62 40.7737 162.032 41.4152 162.399 42.1942C162.719 42.9274 162.903 43.7064 162.903 44.5313V49.1137C162.903 49.5719 162.765 49.9843 162.444 50.3051C162.307 50.4426 162.124 50.58 161.894 50.6717C161.711 50.7633 161.482 50.8091 161.253 50.8091C161.024 50.8091 160.795 50.7633 160.566 50.6717C160.336 50.58 160.153 50.4884 160.016 50.3051C159.695 49.9843 159.512 49.6177 159.512 49.1137V44.5313C159.512 44.1647 159.42 43.8439 159.283 43.5231C159.145 43.2024 158.916 42.9274 158.641 42.6525C158.366 42.4233 158.091 42.1942 157.724 42.0567C157.404 41.9193 157.037 41.8735 156.671 41.8735C156.304 41.8735 155.983 41.9193 155.662 42.0567C155.342 42.1942 155.067 42.3775 154.838 42.6066C154.608 42.8358 154.425 43.1107 154.288 43.4315C154.15 43.7522 154.059 44.073 154.059 44.4396V49.1137C154.059 49.5719 153.875 49.9843 153.554 50.3051C153.142 50.6259 152.775 50.7633 152.271 50.7633Z" fill="#FF0000"/>
<path d="M166.754 50.9004C166.525 50.9004 166.296 50.8546 166.113 50.763C165.93 50.6713 165.746 50.5338 165.563 50.3964C165.38 50.2589 165.288 50.0756 165.196 49.8465C165.105 49.6632 165.059 49.4341 165.059 49.2049V40.1318C165.059 39.9027 165.105 39.6735 165.196 39.4902C165.288 39.2611 165.425 39.0778 165.563 38.9403C165.7 38.8029 165.884 38.6654 166.113 38.5738C166.342 38.4821 166.571 38.4363 166.8 38.4363C167.029 38.4363 167.258 38.4821 167.442 38.5738C167.671 38.6654 167.854 38.8029 167.992 38.9403C168.129 39.0778 168.267 39.2611 168.358 39.4902C168.45 39.6735 168.496 39.9027 168.496 40.1318V49.2049C168.496 49.4341 168.45 49.6632 168.358 49.8465C168.267 50.0756 168.129 50.2589 167.992 50.3964C167.854 50.5338 167.671 50.6713 167.442 50.763C167.213 50.8546 166.983 50.9004 166.754 50.9004ZM166.754 37.4281C166.25 37.4281 165.838 37.2449 165.471 36.8783C165.288 36.695 165.151 36.5117 165.059 36.2825C164.967 36.0534 164.921 35.8243 164.921 35.5952C164.921 35.0911 165.105 34.6787 165.471 34.3121C165.838 33.9455 166.25 33.808 166.754 33.808C166.983 33.808 167.258 33.8539 167.442 33.9455C167.671 34.0372 167.854 34.1746 168.037 34.3579C168.404 34.7245 168.587 35.1369 168.587 35.641C168.587 36.1451 168.404 36.5575 168.037 36.9241C167.854 37.1074 167.671 37.2449 167.442 37.3365C167.258 37.3823 166.983 37.4281 166.754 37.4281Z" fill="#FF0000"/>
<path d="M176.557 47.5098C177.29 47.5098 178.024 47.2349 178.574 46.685C179.123 46.1351 179.398 45.4477 179.398 44.7145C179.398 43.9355 179.078 43.2482 178.574 42.7441C178.024 42.24 177.336 41.9193 176.557 41.9193C175.824 41.9193 175.091 42.1942 174.587 42.7441C174.037 43.294 173.762 43.9814 173.762 44.7145C173.762 45.4936 174.083 46.1809 174.587 46.685C175.091 47.2349 175.824 47.5098 176.557 47.5098ZM176.557 50.9008C174.908 50.9008 173.35 50.2593 172.158 49.0678C170.967 47.9222 170.325 46.3184 170.325 44.6687C170.325 43.0191 170.967 41.4152 172.158 40.2696C173.35 39.0782 174.862 38.4366 176.557 38.4366C177.657 38.4366 178.711 38.7116 179.627 39.2615C179.948 38.7574 180.452 38.4366 181.094 38.4366C182.056 38.4366 182.789 39.2157 182.789 40.1321V49.1595C182.789 50.1218 182.01 50.855 181.094 50.855C180.498 50.855 179.948 50.5342 179.627 50.0301C178.711 50.6259 177.657 50.9008 176.557 50.9008Z" fill="#FF0000"/>
<path d="M135.455 50.7632C134.492 50.7632 133.759 49.9842 133.759 49.0677V42.6524C133.759 38.9864 138.067 36.6036 141.228 39.1239C144.436 36.5577 148.835 39.0322 148.835 42.6524C148.835 43.7063 148.973 49.1594 148.698 49.7551C147.965 51.4506 145.444 50.9007 145.444 49.1135C145.444 48.1512 145.582 42.7898 145.353 42.2858C144.803 41.2318 142.97 41.2776 142.97 42.7898V48.9761C142.97 51.2215 139.579 51.2215 139.579 48.9761C139.579 48.0138 139.67 42.8356 139.441 42.2858C138.937 41.1402 137.15 41.3235 137.104 42.744C137.104 43.798 137.196 49.1136 136.921 49.7551C136.738 50.3966 136.142 50.7632 135.455 50.7632Z" fill="#FF0000"/>
<path d="M35.6946 71.4747C34.824 71.4747 34.045 71.1998 33.4492 70.6957C32.8535 71.1998 32.0745 71.4747 31.2039 71.4747C30.3332 71.4747 29.5542 71.1998 28.9585 70.6957C28.3628 71.1998 27.5838 71.4747 26.7131 71.4747C24.7885 71.4747 23.2305 69.9625 23.2305 68.0379V60.6144C23.2305 58.6898 24.7885 57.1318 26.7131 57.1318C27.5838 57.1318 28.3628 57.4525 28.9585 57.9566C29.5542 57.4525 30.3332 57.1318 31.2039 57.1318C32.0745 57.1318 32.8535 57.4525 33.4492 57.9566C34.045 57.4525 34.824 57.1318 35.6946 57.1318C37.6192 57.1318 39.1773 58.6898 39.1773 60.6144V68.0379C39.1314 69.9625 37.6192 71.4747 35.6946 71.4747Z" fill="black"/>
<path fill-rule="evenodd" clip-rule="evenodd" d="M31.2509 59.332C31.9382 59.332 32.534 59.9277 32.534 60.6151V68.0386C32.534 69.7341 29.9678 69.7341 29.9678 68.0386V60.6151C29.922 59.9277 30.5177 59.332 31.2509 59.332ZM35.6958 59.332C36.3832 59.332 36.9789 59.9277 36.9789 60.6151V68.0386C36.9789 69.7341 34.4128 69.7341 34.4128 68.0386V60.6151C34.4128 59.9277 34.9626 59.332 35.6958 59.332ZM26.7601 59.332C27.4475 59.332 28.0432 59.9277 28.0432 60.6151V68.0386C28.0432 69.7341 25.4771 69.7341 25.4771 68.0386V60.6151C25.4771 59.9277 26.0728 59.332 26.7601 59.332Z" fill="#FF0000"/>
<path d="M47.2873 61.3484C42.9798 61.3484 38.9014 59.6529 35.8312 56.5827C33.1276 53.8791 31.4321 50.259 31.1572 46.4556L30.9739 44.1185H63.6465L63.4632 46.4556C63.1424 50.259 61.4927 53.8791 58.7891 56.5827C55.6731 59.6987 51.5947 61.3484 47.2873 61.3484Z" fill="black"/>
<mask id="mask0_4_25280" style="mask-type:luminance" maskUnits="userSpaceOnUse" x="33" y="46" width="29" height="14">
<path d="M47.295 46.3182H40.9712C41.2003 47.6471 41.8419 48.8385 42.7584 49.755C43.904 50.9006 45.5536 51.6338 47.295 51.6338C49.0821 51.6338 50.6859 50.9006 51.8315 49.755C52.748 48.8385 53.3896 47.6471 53.6187 46.3182H47.295ZM47.295 59.1947C51.19 59.1947 54.6726 57.6367 57.2388 55.0706C59.53 52.7794 61.0422 49.7091 61.3171 46.2723H56.0015C55.7266 48.2428 54.8559 49.9841 53.527 51.313C51.969 52.871 49.7695 53.8791 47.3866 53.8791C44.9579 53.8791 42.8042 52.9168 41.2462 51.313C39.9173 49.9841 39.0008 48.2428 38.7717 46.2723H33.3186C33.5935 49.7091 35.1057 52.7794 37.3969 55.0706C39.9173 57.6367 43.3999 59.1947 47.295 59.1947Z" fill="white"/>
</mask>
<g mask="url(#mask0_4_25280)">
<path d="M67.6376 51.8173L45.2754 32.4795L26.9458 53.6961L49.308 73.0338L67.6376 51.8173Z" fill="url(#paint0_linear_4_25280)"/>
</g>
<path d="M53.6116 46.3177H47.2878H40.9641C41.1932 47.6466 41.8348 48.838 42.7513 49.7545C43.8969 50.9001 45.5465 51.6333 47.2878 51.6333C49.075 51.6333 50.6788 50.9001 51.8244 49.7545C52.7409 48.838 53.3824 47.6466 53.6116 46.3177Z" fill="#FF0000"/>
<path d="M30.47 65.7925C22.9091 65.7925 16.8145 58.369 16.8145 49.25C16.8145 48.6085 16.8603 47.9211 16.9061 47.2796L17.2269 44.2094L20.0221 45.4924C23.4131 47.0504 27.3082 47.9211 31.2949 47.9211C34.7775 47.9211 38.1227 47.3254 41.1929 46.0881L43.9881 44.9884L44.1714 47.9669C44.2173 48.3793 44.2173 48.7918 44.2173 49.25C44.1256 58.369 37.9852 65.7925 30.47 65.7925Z" fill="black"/>
<mask id="mask1_4_25280" style="mask-type:luminance" maskUnits="userSpaceOnUse" x="18" y="47" width="24" height="17">
<path d="M18.9685 49.2502C18.9685 57.2236 24.1008 63.639 30.4704 63.639C36.8399 63.639 41.9722 57.2236 41.9722 49.2502C41.9722 48.8836 41.9722 48.4712 41.9264 48.1046C38.7187 49.3877 35.0528 50.075 31.2035 50.075C26.7586 50.075 22.5886 49.1127 19.0143 47.4631C18.9685 48.0588 18.9685 48.6545 18.9685 49.2502Z" fill="white"/>
</mask>
<g mask="url(#mask1_4_25280)">
<path d="M49.7156 57.7282L33.5396 36.42L11.1775 53.3749L27.3534 74.7289L49.7156 57.7282Z" fill="url(#paint1_linear_4_25280)"/>
</g>
<path d="M11.363 65.289C8.93429 65.289 6.64308 64.785 4.44353 63.731L2.28979 62.7229L6.00155 56.3075L14.9372 40.8648L18.649 34.4494L20.5736 35.7783C23.7355 37.932 26.0267 41.1855 26.989 44.8973C28.0888 49.0673 27.5389 53.4206 25.3851 57.1782C23.2314 60.9357 19.7488 63.5935 15.533 64.7391C14.1582 65.1057 12.7377 65.289 11.363 65.289Z" fill="black"/>
<mask id="mask2_4_25280" style="mask-type:luminance" maskUnits="userSpaceOnUse" x="5" y="37" width="21" height="27">
<path d="M12.3207 49.6632L9.15887 55.1621C10.4419 55.6204 11.7708 55.6662 13.0081 55.3454C14.6119 54.933 16.0325 53.8791 16.9031 52.321C17.7738 50.763 17.9571 49.0217 17.5447 47.4179C17.2239 46.1806 16.4907 45.035 15.4826 44.1643L12.3207 49.6632ZM5.35547 61.7608C8.47151 63.2272 11.8625 63.4563 14.9785 62.6315C18.4612 61.715 21.5772 59.4696 23.5018 56.0786C25.4264 52.7334 25.8388 48.8842 24.9224 45.4474C24.0975 42.3314 22.1729 39.4903 19.3318 37.5657L16.674 42.1939C18.232 43.3853 19.286 45.035 19.7901 46.868C20.3858 49.0217 20.1108 51.4046 18.9194 53.4666C17.728 55.5287 15.8034 56.9493 13.6496 57.545C11.8625 58.049 9.89205 57.9574 8.05909 57.1784L5.35547 61.7608Z" fill="white"/>
</mask>
<g mask="url(#mask2_4_25280)">
<path d="M38.6247 48.4262L13.9256 27.4846L-7.42847 52.642L17.2249 73.5836L38.6247 48.4262Z" fill="url(#paint2_linear_4_25280)"/>
</g>
<path d="M15.4856 44.1639L12.3237 49.6628L9.16187 55.1617C10.4449 55.62 11.7738 55.6658 13.0111 55.345C14.6149 54.9326 16.0355 53.8787 16.9061 52.3665C17.7768 50.8084 17.9601 49.0671 17.5477 47.4633C17.2269 46.1802 16.5395 45.0346 15.4856 44.1639Z" fill="#FF0000"/>
<path d="M31.25 52.2748C16.6321 52.2748 4.76367 42.5601 4.76367 30.6458C4.76367 24.7804 7.69641 19.0982 12.8745 15.0657C12.0039 14.3325 11.2249 13.5535 10.4917 12.7286L8.97949 10.9873L10.7666 9.56677C12.3246 8.32952 14.1576 7.50468 16.0822 7.18391L18.236 6.81732L19.0608 11.4456C22.8184 9.84171 26.9425 9.01688 31.25 9.01688C35.5116 9.01688 39.6816 9.84171 43.4392 11.4456L44.264 6.81732L46.4178 7.18391C48.3424 7.50468 50.1754 8.32952 51.7334 9.56677L53.5205 10.9873L52.0083 12.7286C51.2751 13.5535 50.4961 14.3325 49.6255 15.0657C54.8036 19.144 57.7363 24.7804 57.7363 30.6458C57.6905 42.6059 45.8221 52.2748 31.25 52.2748Z" fill="black"/>
<mask id="mask3_4_25280" style="mask-type:luminance" maskUnits="userSpaceOnUse" x="6" y="9" width="50" height="42">
<path d="M6.91357 30.6459C6.91357 41.4145 17.8197 50.1211 31.2003 50.1211C44.6268 50.1211 55.4871 41.4145 55.4871 30.6917C55.4871 25.0553 52.5085 20.0147 47.7428 16.4404C43.2979 19.5106 37.5241 21.3894 31.2003 21.3894C24.8766 21.3894 19.1028 19.5106 14.6578 16.4404C9.89214 19.9688 6.91357 25.0095 6.91357 30.6459ZM45.0392 14.6532C41.0984 12.4995 36.3326 11.2164 31.2003 11.2164C26.068 11.2164 21.3023 12.4995 17.3615 14.6532L16.445 9.33765C14.8411 9.61259 13.3748 10.3 12.0917 11.3081C16.8116 16.6695 24.1893 19.2357 31.2003 19.2357C38.2114 19.2357 45.5891 16.6695 50.309 11.3081C49.0717 10.3 47.5595 9.65842 45.9557 9.33765L45.0392 14.6532Z" fill="white"/>
</mask>
<g mask="url(#mask3_4_25280)">
<path d="M72.441 41.0484L44.7632 -10.8245L-9.99658 18.3655L17.6812 70.2842L72.441 41.0484Z" fill="url(#paint3_linear_4_25280)"/>
</g>
<mask id="mask4_4_25280" style="mask-type:luminance" maskUnits="userSpaceOnUse" x="27" y="37" width="9" height="11">
<path d="M31.3345 47.738C32.4343 47.738 35.0462 41.5059 35.0004 40.8644C34.9546 40.2229 32.0218 37.1985 31.3345 37.1985C30.6471 37.1985 27.7144 40.2229 27.6686 40.8644C27.6227 41.5059 30.2805 47.738 31.3345 47.738Z" fill="white"/>
</mask>
<g mask="url(#mask4_4_25280)">
<path d="M35.277 47.7377L35.0937 37.0148L27.3953 37.1981L27.6244 47.8751L35.277 47.7377Z" fill="url(#paint4_linear_4_25280)"/>
</g>
<path fill-rule="evenodd" clip-rule="evenodd" d="M14.5249 23.7265C10.7215 27.5299 10.7215 33.7619 14.5249 37.5653C18.3283 41.3687 24.5604 41.3687 28.3638 37.5653C32.1672 33.7619 32.1672 27.5299 28.3638 23.7265C24.5604 19.9231 18.3283 19.9231 14.5249 23.7265Z" fill="black"/>
<path fill-rule="evenodd" clip-rule="evenodd" d="M47.9292 23.7265C51.7326 27.5299 51.7326 33.7619 47.9292 37.5653C44.1258 41.3687 37.8937 41.3687 34.0903 37.5653C30.2869 33.7619 30.2869 27.5299 34.0903 23.7265C37.8937 19.9231 44.1258 19.9231 47.9292 23.7265Z" fill="black"/>
<path fill-rule="evenodd" clip-rule="evenodd" d="M16.0384 25.2843C13.0598 28.2628 13.0598 33.0744 16.0384 36.0529C19.0169 39.0315 23.8285 39.0315 26.807 36.0529C29.7856 33.0744 29.7856 28.2628 26.807 25.2843C23.8285 22.3057 19.0169 22.3057 16.0384 25.2843Z" fill="#FF0000"/>
<path fill-rule="evenodd" clip-rule="evenodd" d="M35.6492 25.2843C32.6706 28.2628 32.6706 33.0744 35.6492 36.0529C38.6278 39.0315 43.4393 39.0315 46.4179 36.0529C49.3964 33.0744 49.3964 28.2628 46.4179 25.2843C43.4393 22.3057 38.6278 22.3057 35.6492 25.2843Z" fill="#FF0000"/>
<path fill-rule="evenodd" clip-rule="evenodd" d="M16.8147 26.0639C14.2486 28.63 14.2486 32.7542 16.8147 35.2745C19.3809 37.8407 23.5051 37.8407 26.0254 35.2745C28.5915 32.7084 28.5915 28.5842 26.0254 26.0639C23.4592 23.5436 19.3809 23.4978 16.8147 26.0639Z" fill="white"/>
<path fill-rule="evenodd" clip-rule="evenodd" d="M36.3821 26.0638C33.816 28.6299 33.816 32.7541 36.3821 35.2744C38.9483 37.8406 43.0724 37.8406 45.5928 35.2744C48.1589 32.7083 48.1589 28.5841 45.5928 26.0638C43.0724 23.4976 38.9483 23.4976 36.3821 26.0638Z" fill="white"/>
<path fill-rule="evenodd" clip-rule="evenodd" d="M21.4434 31.6536C21.2601 33.4407 20.252 34.7238 20.252 34.7238H21.4434H22.6349C22.6349 34.678 21.6267 33.4407 21.4434 31.6536C22.3141 33.5782 24.4678 33.1199 25.0177 32.1118C25.5676 31.1495 25.201 29.8206 23.6888 28.7666C22.1766 27.7585 21.4434 26.6587 21.4434 26.6129C21.4434 26.6587 20.8019 27.5752 19.5188 28.5375C19.8854 28.6292 20.2062 28.9499 20.2062 29.3624C20.2062 29.8206 19.8396 30.233 19.3355 30.233C18.8773 30.233 18.4649 29.8664 18.4649 29.4082C17.5942 30.3247 17.4567 31.287 17.915 32.1118C18.4191 33.0741 20.5728 33.5782 21.4434 31.6536Z" fill="black"/>
<path fill-rule="evenodd" clip-rule="evenodd" d="M41.0108 31.6536C40.8275 33.4407 39.8194 34.7238 39.8194 34.7238H41.0108H42.2022C42.2022 34.678 41.1941 33.4407 41.0108 31.6536C41.8815 33.5782 44.0352 33.1199 44.5851 32.1118C45.135 31.1495 44.7684 29.8206 43.2562 28.7666C41.744 27.7585 41.0108 26.6587 41.0108 26.6129C41.0108 26.6587 40.3693 27.5752 39.0862 28.5375C39.4528 28.6292 39.7736 28.9499 39.7736 29.3624C39.7736 29.8206 39.407 30.233 38.9029 30.233C38.4447 30.233 38.0323 29.8664 38.0323 29.4082C37.1616 30.3247 37.0241 31.287 37.4824 32.1118C37.9864 33.0741 40.1402 33.5782 41.0108 31.6536Z" fill="black"/>
<path d="M17.5969 15.753C15.5348 14.5615 13.7018 13.0952 12.1438 11.308C13.381 10.2999 14.8932 9.65835 16.4971 9.33759L17.5969 15.753Z" fill="#FF0000"/>
<path d="M44.8586 15.753C46.9207 14.5615 48.7537 13.0952 50.3117 11.308C49.0745 10.2999 47.5623 9.65835 45.9584 9.33759L44.8586 15.753Z" fill="#FF0000"/>
</g>
<defs>
<linearGradient id="paint0_linear_4_25280" x1="48.5932" y1="53.8784" x2="40.1203" y2="46.5484" gradientUnits="userSpaceOnUse">
<stop stop-color="#FF6600"/>
<stop offset="1" stop-color="#FFCC00"/>
</linearGradient>
<linearGradient id="paint1_linear_4_25280" x1="31.5385" y1="56.9895" x2="24.9231" y2="48.2776" gradientUnits="userSpaceOnUse">
<stop stop-color="#FF6600"/>
<stop offset="1" stop-color="#FFCC00"/>
</linearGradient>
<linearGradient id="paint2_linear_4_25280" x1="21.7563" y1="55.7711" x2="9.2871" y2="45.1833" gradientUnits="userSpaceOnUse">
<stop stop-color="#FF6600"/>
<stop offset="1" stop-color="#FFCC00"/>
</linearGradient>
<linearGradient id="paint3_linear_4_25280" x1="36.4718" y1="39.5654" x2="25.9418" y2="19.8383" gradientUnits="userSpaceOnUse">
<stop stop-color="#FF6600"/>
<stop offset="1" stop-color="#FFCC00"/>
</linearGradient>
<linearGradient id="paint4_linear_4_25280" x1="31.4497" y1="47.8872" x2="31.0999" y2="30.1343" gradientUnits="userSpaceOnUse">
<stop stop-color="#993366"/>
<stop offset="1" stop-color="#CC3300"/>
</linearGradient>
<clipPath id="clip0_4_25280">
<rect width="186" height="73" fill="white" transform="translate(0 0.081543)"/>
</clipPath>
</defs>
</svg>
