<svg width="332" height="73" viewBox="0 0 332 73" fill="none" xmlns="http://www.w3.org/2000/svg">
<g clip-path="url(#clip0_1_81)">
<path d="M331.632 16H108.407L93.5615 55.625H317.32L331.632 16Z" fill="url(#paint0_linear_1_81)"/>
<path fill-rule="evenodd" clip-rule="evenodd" d="M45.1739 26.3763L50.0562 33.1282L58.7122 27.1319L51.2871 47.2942H37.2751L45.1739 26.3763Z" fill="white"/>
<path d="M50.4736 30.9418L45.5538 24.382H59.9488L50.4736 30.9418Z" fill="url(#paint1_linear_1_81)"/>
<path d="M66.8605 47.2942L73.8669 29.4874H61.8406L63.6679 24.4377H80.9112H101.572L99.6922 29.4874H87.2121L80.5085 47.2942L66.8605 47.2942Z" fill="white"/>
<path fill-rule="evenodd" clip-rule="evenodd" d="M20.0437 22.3015L19.1892 24.4378H8.8649L8.75809 24.6514L0 47.1875H12.4946L11.6618 49.2693H15.4884L16.217 47.1875H19.7832L18.9504 49.2693H22.777L23.5056 47.1875H27.2355C30.2973 46.9739 36.549 45.1368 37.0617 39.4974C37.0617 38.3226 36.4208 35.8233 33.8575 35.2252C36.4921 34.5132 41.6543 32.1278 41.2271 28.2828C41.1203 27.1791 40.1377 24.865 37.0617 24.4378H30.2289L30.9766 22.3015H27.3323L26.4778 24.4378H22.9403L23.688 22.3015H20.0437ZM18.7974 33.6225L20.5063 29.0299C25.3767 28.6881 26.5943 30.1691 26.5943 30.9524C26.3379 33.7721 21.2896 33.9074 18.7974 33.6225ZM17.4794 36.4622L15.7003 42.0434C18.2948 42.3895 23.5507 42.2251 23.8175 38.7985C23.8175 37.8467 22.5499 36.0468 17.4794 36.4622Z" fill="white"/>
<g filter="url(#filter0_d_1_81)">
<path d="M219.752 47.2942L228.383 24.4377H242.181L233.764 47.2942H219.752Z" fill="white"/>
<path d="M122.293 24.4379H144.722L142.265 29.351H125.817C124.642 29.351 123.788 29.8867 123.681 31.2735C123.591 32.4484 124.215 33.3028 125.817 33.4096H133.721C141.09 33.4096 140.236 37.5751 140.236 39.1772C139.061 44.6243 135.003 47.2944 132.119 47.2944H104.776L108.942 41.9541H126.672C127.348 41.8473 128.701 41.3133 128.701 40.0316C128.701 38.7499 127.348 38.2871 126.672 38.2159H116.205C113.535 38.2159 110.864 35.1185 112.039 30.7395C113.227 26.3126 119.231 24.4735 122.293 24.4379Z" fill="white"/>
<path d="M181.249 47.2943L185.561 35.8661L189.873 24.4378H203.129C207.586 24.4378 218.311 23.8123 220.234 25.1854C223.224 27.3215 222.3 30.9474 221.622 32.9823C221.088 34.5843 218.845 37.1477 217.563 37.7885C216.068 38.5361 213.398 38.1089 212.01 37.4681C208.378 35.792 198.445 30.3121 197.591 29.6908L216.872 47.2943H201.941L197.163 41.7404L196.843 42.5949L195.039 47.2943H181.249Z" fill="white"/>
<path d="M278.871 47.2944L287.486 24.4379H316.466L314.744 29.3938H299.114L297.869 32.9896H311.343L309.435 37.9455H295.961L294.451 42.2604H310.081L308.279 47.2944H278.871Z" fill="white"/>
<path d="M238.712 47.2944L247.34 24.4379H260.494L257.83 32.4484L260.494 30.6327L269.253 24.4379H283.571L266.811 34.975L275.258 47.2944H260.857L255.053 38.8567L254.946 39.1336L252.08 47.2944H238.712Z" fill="white"/>
<path d="M151.665 47.2944L158.671 29.4876H146.645L148.472 24.4379H165.716H186.377L184.497 29.4876H172.017L165.313 47.2944L151.665 47.2944Z" fill="white"/>
</g>
</g>
<defs>
<filter id="filter0_d_1_81" x="104.563" y="23.6548" width="215.962" height="27.271" filterUnits="userSpaceOnUse" color-interpolation-filters="sRGB">
<feFlood flood-opacity="0" result="BackgroundImageFix"/>
<feColorMatrix in="SourceAlpha" type="matrix" values="0 0 0 0 0 0 0 0 0 0 0 0 0 0 0 0 0 0 127 0" result="hardAlpha"/>
<feOffset dx="1.92251" dy="1.49528"/>
<feGaussianBlur stdDeviation="1.06806"/>
<feComposite in2="hardAlpha" operator="out"/>
<feColorMatrix type="matrix" values="0 0 0 0 0 0 0 0 0 0 0 0 0 0 0 0 0 0 0.25 0"/>
<feBlend mode="normal" in2="BackgroundImageFix" result="effect1_dropShadow_1_81"/>
<feBlend mode="normal" in="SourceGraphic" in2="effect1_dropShadow_1_81" result="shape"/>
</filter>
<linearGradient id="paint0_linear_1_81" x1="188.085" y1="35.8659" x2="327.573" y2="32.2345" gradientUnits="userSpaceOnUse">
<stop offset="0.0794971" stop-color="#5C0094"/>
<stop offset="0.901654" stop-color="#C8102E"/>
</linearGradient>
<linearGradient id="paint1_linear_1_81" x1="50.4736" y1="25.3693" x2="57.914" y2="30.1233" gradientUnits="userSpaceOnUse">
<stop stop-color="#5C0194"/>
<stop offset="1" stop-color="#C8102E"/>
</linearGradient>
<clipPath id="clip0_1_81">
<rect width="331.632" height="39.625" fill="white" transform="translate(0 15.9999)"/>
</clipPath>
</defs>
</svg>
