<svg width="351" height="80" viewBox="0 0 351 80" fill="none" xmlns="http://www.w3.org/2000/svg">
    <path d="M166.961 12.864H164.513V22H162.881V12.864H160.433V11.328H166.961V12.864ZM167.301 25.664L169.781 20.944L166.901 15.264H168.789L170.709 19.2L172.661 15.264H174.421L169.061 25.664H167.301ZM177.083 21.216V25.664H175.515V15.264H177.083V16C177.595 15.392 178.262 15.088 179.083 15.088C180.001 15.088 180.774 15.4133 181.403 16.064C182.043 16.704 182.363 17.5467 182.363 18.592C182.363 19.6693 182.033 20.544 181.371 21.216C180.71 21.8773 179.953 22.208 179.099 22.208C178.299 22.208 177.627 21.8773 177.083 21.216ZM178.891 16.496C178.358 16.496 177.905 16.688 177.531 17.072C177.169 17.4453 176.987 17.9787 176.987 18.672C176.987 19.344 177.169 19.8667 177.531 20.24C177.905 20.6133 178.358 20.8 178.891 20.8C179.446 20.8 179.894 20.592 180.235 20.176C180.587 19.76 180.763 19.2533 180.763 18.656C180.763 18.048 180.587 17.536 180.235 17.12C179.894 16.704 179.446 16.496 178.891 16.496ZM188.72 19.728L190.032 20.464C189.733 20.9973 189.354 21.408 188.896 21.696C188.373 22.0373 187.712 22.208 186.912 22.208C185.973 22.208 185.216 21.92 184.64 21.344C183.978 20.6827 183.648 19.824 183.648 18.768C183.648 17.6587 184.005 16.736 184.72 16C185.328 15.392 186.08 15.088 186.976 15.088C187.85 15.088 188.57 15.3813 189.136 15.968C189.765 16.6187 190.08 17.568 190.08 18.816V19.008H185.248C185.29 19.5733 185.482 20.0267 185.824 20.368C186.112 20.656 186.512 20.8 187.024 20.8C187.44 20.8 187.797 20.688 188.096 20.464C188.341 20.272 188.549 20.0267 188.72 19.728ZM185.36 17.728H188.48C188.416 17.3547 188.256 17.0507 188 16.816C187.722 16.56 187.37 16.432 186.944 16.432C186.496 16.432 186.128 16.576 185.84 16.864C185.605 17.0773 185.445 17.3653 185.36 17.728Z" fill="#9DADF2"/>
    <path d="M134.621 64.32C133 64.32 131.517 64.0427 130.173 63.488C128.829 62.9333 127.667 62.144 126.685 61.12C125.704 60.0747 124.936 58.848 124.381 57.44C123.848 56.0107 123.581 54.4533 123.581 52.768C123.581 51.1467 123.869 49.6427 124.445 48.256C125.021 46.8693 125.821 45.6533 126.845 44.608C127.869 43.5627 129.064 42.752 130.429 42.176C131.795 41.6 133.277 41.312 134.877 41.312C135.965 41.312 137.021 41.472 138.045 41.792C139.069 42.112 140.008 42.56 140.861 43.136C141.715 43.6907 142.429 44.3413 143.005 45.088L140.349 48C139.795 47.424 139.219 46.944 138.621 46.56C138.045 46.1547 137.437 45.856 136.797 45.664C136.179 45.4507 135.539 45.344 134.877 45.344C133.896 45.344 132.968 45.5253 132.093 45.888C131.24 46.2507 130.493 46.7627 129.853 47.424C129.235 48.0853 128.744 48.8747 128.381 49.792C128.019 50.688 127.837 51.6907 127.837 52.8C127.837 53.9307 128.008 54.9547 128.349 55.872C128.712 56.7893 129.213 57.5787 129.853 58.24C130.515 58.9013 131.293 59.4133 132.189 59.776C133.107 60.1173 134.109 60.288 135.197 60.288C135.901 60.288 136.584 60.192 137.245 60C137.907 59.808 138.515 59.5413 139.069 59.2C139.645 58.8373 140.168 58.4213 140.637 57.952L142.685 61.248C142.173 61.824 141.491 62.3467 140.637 62.816C139.784 63.2853 138.824 63.6587 137.757 63.936C136.712 64.192 135.667 64.32 134.621 64.32ZM152.656 64.32C151.27 64.32 150.011 63.936 148.88 63.168C147.75 62.4 146.843 61.3547 146.16 60.032C145.478 58.7093 145.136 57.2053 145.136 55.52C145.136 53.8347 145.478 52.3307 146.16 51.008C146.843 49.6853 147.771 48.6507 148.944 47.904C150.118 47.1573 151.44 46.784 152.912 46.784C153.766 46.784 154.544 46.912 155.248 47.168C155.952 47.4027 156.571 47.744 157.104 48.192C157.638 48.64 158.075 49.152 158.416 49.728C158.779 50.304 159.024 50.9227 159.152 51.584L158.288 51.36V47.136H162.256V64H158.256V59.968L159.184 59.808C159.035 60.384 158.758 60.9493 158.352 61.504C157.968 62.0373 157.478 62.5173 156.88 62.944C156.304 63.3493 155.654 63.68 154.928 63.936C154.224 64.192 153.467 64.32 152.656 64.32ZM153.744 60.832C154.662 60.832 155.472 60.608 156.176 60.16C156.88 59.712 157.424 59.0933 157.808 58.304C158.214 57.4933 158.416 56.5653 158.416 55.52C158.416 54.496 158.214 53.5893 157.808 52.8C157.424 52.0107 156.88 51.392 156.176 50.944C155.472 50.496 154.662 50.272 153.744 50.272C152.827 50.272 152.016 50.496 151.312 50.944C150.63 51.392 150.096 52.0107 149.712 52.8C149.328 53.5893 149.136 54.496 149.136 55.52C149.136 56.5653 149.328 57.4933 149.712 58.304C150.096 59.0933 150.63 59.712 151.312 60.16C152.016 60.608 152.827 60.832 153.744 60.832ZM172.452 64.32C170.958 64.32 169.614 64.0747 168.42 63.584C167.246 63.072 166.286 62.3467 165.54 61.408L168.1 59.2C168.74 59.9253 169.454 60.448 170.244 60.768C171.033 61.088 171.865 61.248 172.74 61.248C173.102 61.248 173.422 61.2053 173.7 61.12C173.998 61.0347 174.254 60.9067 174.468 60.736C174.681 60.5653 174.841 60.3733 174.948 60.16C175.076 59.9253 175.14 59.6693 175.14 59.392C175.14 58.88 174.948 58.4747 174.564 58.176C174.35 58.0267 174.009 57.8667 173.54 57.696C173.092 57.5253 172.505 57.3547 171.78 57.184C170.628 56.8853 169.668 56.544 168.9 56.16C168.132 55.7547 167.534 55.3067 167.108 54.816C166.745 54.4107 166.468 53.952 166.276 53.44C166.105 52.928 166.02 52.3733 166.02 51.776C166.02 51.0293 166.18 50.3573 166.5 49.76C166.841 49.1413 167.3 48.608 167.876 48.16C168.452 47.712 169.124 47.3707 169.892 47.136C170.66 46.9013 171.46 46.784 172.292 46.784C173.145 46.784 173.966 46.8907 174.756 47.104C175.566 47.3173 176.313 47.6267 176.996 48.032C177.7 48.416 178.297 48.8853 178.788 49.44L176.612 51.84C176.206 51.456 175.758 51.1147 175.268 50.816C174.798 50.5173 174.318 50.2827 173.828 50.112C173.337 49.92 172.878 49.824 172.452 49.824C172.046 49.824 171.684 49.8667 171.364 49.952C171.044 50.016 170.777 50.1227 170.564 50.272C170.35 50.4213 170.18 50.6133 170.052 50.848C169.945 51.0613 169.892 51.3173 169.892 51.616C169.913 51.872 169.977 52.1173 170.084 52.352C170.212 52.5653 170.382 52.7467 170.596 52.896C170.83 53.0453 171.182 53.216 171.652 53.408C172.121 53.6 172.729 53.7813 173.476 53.952C174.521 54.2293 175.396 54.5387 176.1 54.88C176.804 55.2213 177.358 55.616 177.764 56.064C178.169 56.448 178.457 56.896 178.628 57.408C178.798 57.92 178.884 58.4853 178.884 59.104C178.884 60.1067 178.596 61.0027 178.02 61.792C177.465 62.5813 176.697 63.2 175.716 63.648C174.756 64.096 173.668 64.32 172.452 64.32ZM182.799 64V47.136H186.735V64H182.799ZM184.719 43.552C183.93 43.552 183.311 43.36 182.863 42.976C182.436 42.5707 182.223 42.0053 182.223 41.28C182.223 40.5973 182.447 40.0427 182.895 39.616C183.343 39.1893 183.951 38.976 184.719 38.976C185.53 38.976 186.148 39.1787 186.575 39.584C187.023 39.968 187.247 40.5333 187.247 41.28C187.247 41.9413 187.023 42.4853 186.575 42.912C186.127 43.3387 185.508 43.552 184.719 43.552ZM191.726 64V47.136H195.566L195.63 50.592L194.894 50.976C195.107 50.208 195.523 49.5147 196.142 48.896C196.761 48.256 197.497 47.744 198.35 47.36C199.203 46.976 200.078 46.784 200.974 46.784C202.254 46.784 203.321 47.04 204.174 47.552C205.049 48.064 205.699 48.832 206.126 49.856C206.574 50.88 206.798 52.16 206.798 53.696V64H202.862V53.984C202.862 53.1307 202.745 52.4267 202.51 51.872C202.275 51.296 201.913 50.88 201.422 50.624C200.931 50.3467 200.334 50.2187 199.63 50.24C199.054 50.24 198.521 50.336 198.03 50.528C197.561 50.6987 197.145 50.9547 196.782 51.296C196.441 51.616 196.163 51.9893 195.95 52.416C195.758 52.8427 195.662 53.312 195.662 53.824V64H193.71C193.326 64 192.963 64 192.622 64C192.302 64 192.003 64 191.726 64ZM218.938 64.32C217.253 64.32 215.749 63.9467 214.426 63.2C213.103 62.432 212.058 61.3867 211.29 60.064C210.522 58.7413 210.138 57.2373 210.138 55.552C210.138 53.8667 210.522 52.3627 211.29 51.04C212.058 49.7173 213.103 48.6827 214.426 47.936C215.749 47.168 217.253 46.784 218.938 46.784C220.602 46.784 222.095 47.168 223.418 47.936C224.741 48.6827 225.775 49.7173 226.522 51.04C227.29 52.3627 227.674 53.8667 227.674 55.552C227.674 57.2373 227.29 58.7413 226.522 60.064C225.775 61.3867 224.741 62.432 223.418 63.2C222.095 63.9467 220.602 64.32 218.938 64.32ZM218.938 60.832C219.855 60.832 220.666 60.5973 221.37 60.128C222.095 59.6587 222.661 59.0293 223.066 58.24C223.493 57.4507 223.695 56.5547 223.674 55.552C223.695 54.528 223.493 53.6213 223.066 52.832C222.661 52.0427 222.095 51.424 221.37 50.976C220.666 50.5067 219.855 50.272 218.938 50.272C218.021 50.272 217.189 50.5067 216.442 50.976C215.717 51.424 215.151 52.0533 214.746 52.864C214.341 53.6533 214.138 54.5493 214.138 55.552C214.138 56.5547 214.341 57.4507 214.746 58.24C215.151 59.0293 215.717 59.6587 216.442 60.128C217.189 60.5973 218.021 60.832 218.938 60.832Z" fill="white"/>
</svg>
