<svg width="209" height="38" viewBox="0 0 209 38" fill="none" xmlns="http://www.w3.org/2000/svg">
    <path fill-rule="evenodd" clip-rule="evenodd" d="M114.266 12.1913L110.495 10.4012L110.92 8.53577H118.747L114.051 29.136H106.218L109.941 12.8257H114.126L114.266 12.1913ZM172.849 15.0298L173.817 10.7775H190.875L189.907 15.0298H185.292L182.075 29.136H174.247L177.464 15.0298H172.849ZM76.959 24.9696H74.4145L77.653 10.772H70.0141L66.6304 25.5825L69.3524 29.1359H80.1544L84.4473 25.6362L87.8364 10.772H80.1921L76.959 24.9696ZM89.4019 14.2396L93.6679 10.7668H104.443L107.165 14.2934L103.787 29.1307H96.169L99.4075 14.9062H96.8688L93.6303 29.1307H86.0127L89.4019 14.2396ZM168.842 10.772H158.281L154.102 14.1696L152.939 19.2874H152.912L151.455 25.6792L154.118 29.1628H164.667L168.842 25.7008L171.482 14.2234L168.842 10.772ZM161.536 25.0503H159.055L161.413 14.8362H163.898L161.536 25.0503ZM205.54 25.8407L205.535 25.83L201.479 29.136H187.933L188.923 24.8623H199.004L190.375 18.5026L191.386 14.0622L195.437 10.7668H208.983L208.009 15.0191H198.111L206.605 21.1852L205.54 25.8407ZM134.466 25.83L134.471 25.8407L135.537 21.1852L127.042 15.0191H136.941L137.915 10.7668H124.368L120.318 14.0622L119.306 18.5026L127.935 24.8623H117.854L116.87 29.136H130.41L134.466 25.83ZM148.023 10.7668L144.79 24.8838H149.9L148.926 29.136H139.286L136.736 25.8407L140.19 10.7668H148.023Z" fill="#2DFFF2"/>
    <path fill-rule="evenodd" clip-rule="evenodd" d="M114.266 12.1913L110.495 10.4012L110.92 8.53577H118.747L114.051 29.136H106.218L109.941 12.8257H114.126L114.266 12.1913ZM172.849 15.0298L173.817 10.7775H190.875L189.907 15.0298H185.292L182.075 29.136H174.247L177.464 15.0298H172.849ZM76.959 24.9696H74.4145L77.653 10.772H70.0141L66.6304 25.5825L69.3524 29.1359H80.1544L84.4473 25.6362L87.8364 10.772H80.1921L76.959 24.9696ZM89.4019 14.2396L93.6679 10.7668H104.443L107.165 14.2934L103.787 29.1307H96.169L99.4075 14.9062H96.8688L93.6303 29.1307H86.0127L89.4019 14.2396ZM168.842 10.772H158.281L154.102 14.1696L152.939 19.2874H152.912L151.455 25.6792L154.118 29.1628H164.667L168.842 25.7008L171.482 14.2234L168.842 10.772ZM161.536 25.0503H159.055L161.413 14.8362H163.898L161.536 25.0503ZM205.54 25.8407L205.535 25.83L201.479 29.136H187.933L188.923 24.8623H199.004L190.375 18.5026L191.386 14.0622L195.437 10.7668H208.983L208.009 15.0191H198.111L206.605 21.1852L205.54 25.8407ZM134.466 25.83L134.471 25.8407L135.537 21.1852L127.042 15.0191H136.941L137.915 10.7668H124.368L120.318 14.0622L119.306 18.5026L127.935 24.8623H117.854L116.87 29.136H130.41L134.466 25.83ZM148.023 10.7668L144.79 24.8838H149.9L148.926 29.136H139.286L136.736 25.8407L140.19 10.7668H148.023Z" fill="url(#paint0_radial_616_1906)" fill-opacity="0.7"/>
    <path d="M46.1482 10.8427C45.9554 10.408 46.0932 9.9008 46.4811 9.61679L57.5023 1.54675C57.6928 1.40729 57.7387 1.14654 57.6065 0.952877C57.4904 0.782514 57.2693 0.713431 57.0741 0.78647L43.3681 5.9063C42.8965 6.08248 42.3707 5.83292 42.2204 5.36158L41.7796 3.98026C41.2857 2.43178 39.5623 1.75634 39.2495 3.34937C39.1317 3.94892 39.127 4.56809 39.1959 5.0387C30.8559 -0.583393 16.5472 -2.10887 8.84289 7.05012C4.94463 11.6845 10.5342 11.6787 3.64493 16.3246C-1.22101 19.6062 -0.0151452 25.3817 4.35977 29.101C11.3132 35.0124 37.9571 38 37.9571 38C36.0075 27.4446 32.8783 26.6039 30.8559 23.2813C28.8337 19.9586 31.7598 15.8821 35.0173 16.9268C37.2483 17.6424 36.8879 20.0471 36.4391 21.4915C36.2383 22.138 36.4806 22.872 37.0858 23.1978L47.2184 28.6507C49.2477 29.7428 51.7787 29.3233 53.327 27.6385C53.4356 27.5203 53.4637 27.3512 53.3992 27.2054L46.1482 10.8427ZM45.2669 19.1077C44.4213 18.7287 43.8791 17.9024 43.8791 16.9927V16.8819C43.8791 16.3088 44.659 16.1112 44.9433 16.6126L45.9492 18.3869C46.1967 18.8233 45.7308 19.3154 45.2669 19.1077Z" fill="white"/>
    <defs>
        <radialGradient id="paint0_radial_616_1906" cx="0" cy="0" r="1" gradientUnits="userSpaceOnUse" gradientTransform="translate(88.7741 -16.8708) rotate(28.2247) scale(114.889 426.441)">
            <stop offset="0.0625" stop-color="#FF63EF"/>
            <stop offset="0.619792" stop-color="#1E6ADC" stop-opacity="0.58"/>
            <stop offset="1" stop-color="#27F586"/>
        </radialGradient>
    </defs>
</svg>
