<svg width="214" height="48" viewBox="0 0 214 48" fill="none" xmlns="http://www.w3.org/2000/svg">
    <path fill-rule="evenodd" clip-rule="evenodd" d="M117.266 16.1913L113.495 14.4012L113.92 12.5358H121.747L117.051 33.136H109.218L112.941 16.8257H117.126L117.266 16.1913ZM175.849 19.0298L176.817 14.7775H193.875L192.907 19.0298H188.292L185.075 33.136H177.247L180.464 19.0298H175.849ZM79.959 28.9696H77.4145L80.653 14.772H73.0141L69.6304 29.5825L72.3524 33.1359H83.1544L87.4473 29.6362L90.8364 14.772H83.1921L79.959 28.9696ZM92.4019 18.2396L96.6679 14.7668H107.443L110.165 18.2934L106.787 33.1307H99.169L102.407 18.9062H99.8688L96.6303 33.1307H89.0127L92.4019 18.2396ZM171.842 14.772H161.281L157.102 18.1696L155.939 23.2874H155.912L154.455 29.6792L157.118 33.1628H167.667L171.842 29.7008L174.482 18.2234L171.842 14.772ZM164.536 29.0503H162.055L164.413 18.8362H166.898L164.536 29.0503ZM208.54 29.8407L208.535 29.83L204.479 33.136H190.933L191.923 28.8623H202.004L193.375 22.5026L194.386 18.0622L198.437 14.7668H211.983L211.009 19.0191H201.111L209.605 25.1852L208.54 29.8407ZM137.466 29.83L137.471 29.8407L138.537 25.1852L130.042 19.0191H139.941L140.915 14.7668H127.368L123.318 18.0622L122.306 22.5026L130.935 28.8623H120.854L119.87 33.136H133.41L137.466 29.83ZM151.023 14.7668L147.79 28.8838H152.9L151.926 33.136H142.286L139.736 29.8407L143.19 14.7668H151.023Z" fill="#2DFFF2"/>
    <path fill-rule="evenodd" clip-rule="evenodd" d="M117.266 16.1913L113.495 14.4012L113.92 12.5358H121.747L117.051 33.136H109.218L112.941 16.8257H117.126L117.266 16.1913ZM175.849 19.0298L176.817 14.7775H193.875L192.907 19.0298H188.292L185.075 33.136H177.247L180.464 19.0298H175.849ZM79.959 28.9696H77.4145L80.653 14.772H73.0141L69.6304 29.5825L72.3524 33.1359H83.1544L87.4473 29.6362L90.8364 14.772H83.1921L79.959 28.9696ZM92.4019 18.2396L96.6679 14.7668H107.443L110.165 18.2934L106.787 33.1307H99.169L102.407 18.9062H99.8688L96.6303 33.1307H89.0127L92.4019 18.2396ZM171.842 14.772H161.281L157.102 18.1696L155.939 23.2874H155.912L154.455 29.6792L157.118 33.1628H167.667L171.842 29.7008L174.482 18.2234L171.842 14.772ZM164.536 29.0503H162.055L164.413 18.8362H166.898L164.536 29.0503ZM208.54 29.8407L208.535 29.83L204.479 33.136H190.933L191.923 28.8623H202.004L193.375 22.5026L194.386 18.0622L198.437 14.7668H211.983L211.009 19.0191H201.111L209.605 25.1852L208.54 29.8407ZM137.466 29.83L137.471 29.8407L138.537 25.1852L130.042 19.0191H139.941L140.915 14.7668H127.368L123.318 18.0622L122.306 22.5026L130.935 28.8623H120.854L119.87 33.136H133.41L137.466 29.83ZM151.023 14.7668L147.79 28.8838H152.9L151.926 33.136H142.286L139.736 29.8407L143.19 14.7668H151.023Z" fill="url(#paint0_radial_404_8940)" fill-opacity="0.7"/>
    <path d="M49.1482 14.8427C48.9554 14.408 49.0932 13.9008 49.4811 13.6168L60.5023 5.54675C60.6928 5.40729 60.7387 5.14654 60.6065 4.95288C60.4904 4.78251 60.2693 4.71343 60.0741 4.78647L46.3681 9.9063C45.8965 10.0825 45.3707 9.83292 45.2204 9.36158L44.7796 7.98026C44.2857 6.43178 42.5623 5.75634 42.2495 7.34937C42.1317 7.94892 42.127 8.56809 42.1959 9.0387C33.8559 3.41661 19.5472 1.89113 11.8429 11.0501C7.94463 15.6845 13.5342 15.6787 6.64493 20.3246C1.77899 23.6062 2.98485 29.3817 7.35977 33.101C14.3132 39.0124 40.9571 42 40.9571 42C39.0075 31.4446 35.8783 30.6039 33.8559 27.2813C31.8337 23.9586 34.7598 19.8821 38.0173 20.9268C40.2483 21.6424 39.8879 24.0471 39.4391 25.4915C39.2383 26.138 39.4806 26.872 40.0858 27.1978L50.2184 32.6507C52.2477 33.7428 54.7787 33.3233 56.327 31.6385C56.4356 31.5203 56.4637 31.3512 56.3992 31.2054L49.1482 14.8427ZM48.2669 23.1077C47.4213 22.7287 46.8791 21.9024 46.8791 20.9927V20.8819C46.8791 20.3088 47.659 20.1112 47.9433 20.6126L48.9492 22.3869C49.1967 22.8233 48.7308 23.3154 48.2669 23.1077Z" fill="white"/>
    <defs>
        <radialGradient id="paint0_radial_404_8940" cx="0" cy="0" r="1" gradientUnits="userSpaceOnUse" gradientTransform="translate(91.7741 -12.8708) rotate(28.2247) scale(114.889 426.441)">
            <stop offset="0.0625" stop-color="#FF63EF"/>
            <stop offset="0.619792" stop-color="#1E6ADC" stop-opacity="0.58"/>
            <stop offset="1" stop-color="#27F586"/>
        </radialGradient>
    </defs>
</svg>
