<svg width="351" height="80" viewBox="0 0 351 80" fill="none" xmlns="http://www.w3.org/2000/svg">
    <path d="M119.715 22V17.392L116.211 11.328H118.067L120.531 15.6L122.995 11.328H124.851L121.347 17.392V22H119.715ZM129.767 19.728L131.079 20.464C130.78 20.9973 130.401 21.408 129.943 21.696C129.42 22.0373 128.759 22.208 127.959 22.208C127.02 22.208 126.263 21.92 125.687 21.344C125.025 20.6827 124.695 19.824 124.695 18.768C124.695 17.6587 125.052 16.736 125.767 16C126.375 15.392 127.127 15.088 128.023 15.088C128.897 15.088 129.617 15.3813 130.183 15.968C130.812 16.6187 131.127 17.568 131.127 18.816V19.008H126.295C126.337 19.5733 126.529 20.0267 126.871 20.368C127.159 20.656 127.559 20.8 128.071 20.8C128.487 20.8 128.844 20.688 129.143 20.464C129.388 20.272 129.596 20.0267 129.767 19.728ZM126.407 17.728H129.527C129.463 17.3547 129.303 17.0507 129.047 16.816C128.769 16.56 128.417 16.432 127.991 16.432C127.543 16.432 127.175 16.576 126.887 16.864C126.652 17.0773 126.492 17.3653 126.407 17.728ZM137.693 16.048V15.264H139.261V22H137.693V21.296C137.171 21.904 136.499 22.208 135.677 22.208C134.685 22.208 133.891 21.856 133.293 21.152C132.707 20.448 132.413 19.6053 132.413 18.624C132.413 17.5573 132.728 16.704 133.357 16.064C133.997 15.4133 134.776 15.088 135.693 15.088C136.536 15.088 137.203 15.408 137.693 16.048ZM135.885 16.496C135.331 16.496 134.877 16.704 134.525 17.12C134.184 17.536 134.013 18.048 134.013 18.656C134.013 19.2533 134.184 19.76 134.525 20.176C134.877 20.592 135.331 20.8 135.885 20.8C136.419 20.8 136.867 20.6133 137.229 20.24C137.603 19.8667 137.789 19.344 137.789 18.672C137.789 17.9787 137.603 17.4453 137.229 17.072C136.867 16.688 136.419 16.496 135.885 16.496ZM141.25 22V15.264H142.818V15.872C143.02 15.6373 143.239 15.4507 143.474 15.312C143.73 15.1627 144.05 15.088 144.434 15.088C144.892 15.088 145.303 15.1947 145.666 15.408L145.026 16.832C144.77 16.672 144.503 16.592 144.226 16.592C143.81 16.592 143.484 16.7147 143.25 16.96C142.962 17.2693 142.818 17.7867 142.818 18.512V22H141.25ZM150.969 16.096C151.662 15.424 152.521 15.088 153.545 15.088C154.569 15.088 155.422 15.424 156.105 16.096C156.798 16.7573 157.145 17.6053 157.145 18.64C157.145 19.664 156.798 20.5173 156.105 21.2C155.422 21.872 154.569 22.208 153.545 22.208C152.521 22.208 151.662 21.872 150.969 21.2C150.286 20.5173 149.945 19.664 149.945 18.64C149.945 17.6053 150.286 16.7573 150.969 16.096ZM152.089 20.224C152.451 20.608 152.937 20.8 153.545 20.8C154.153 20.8 154.638 20.608 155.001 20.224C155.363 19.8293 155.545 19.3067 155.545 18.656C155.545 17.9413 155.347 17.4027 154.953 17.04C154.569 16.6773 154.099 16.496 153.545 16.496C152.99 16.496 152.515 16.6773 152.121 17.04C151.737 17.4027 151.545 17.9413 151.545 18.656C151.545 19.3067 151.726 19.8293 152.089 20.224ZM162.205 16.704H160.509V22H158.941V16.704H158.269V15.264H158.941V12.928C158.941 11.9893 159.16 11.2853 159.597 10.816C160.013 10.3787 160.546 10.16 161.197 10.16C161.57 10.16 161.906 10.224 162.205 10.352V11.904C161.938 11.744 161.688 11.664 161.453 11.664C161.154 11.664 160.925 11.7493 160.765 11.92C160.594 12.0907 160.509 12.3573 160.509 12.72V15.264H162.205V16.704ZM170.252 16.704H168.556V22H166.988V16.704H166.316V15.264H166.988V12.928C166.988 11.9893 167.207 11.2853 167.644 10.816C168.06 10.3787 168.593 10.16 169.244 10.16C169.617 10.16 169.953 10.224 170.252 10.352V11.904C169.985 11.744 169.735 11.664 169.5 11.664C169.201 11.664 168.972 11.7493 168.812 11.92C168.641 12.0907 168.556 12.3573 168.556 12.72V15.264H170.252V16.704ZM171.812 16.096C172.506 15.424 173.364 15.088 174.388 15.088C175.412 15.088 176.266 15.424 176.948 16.096C177.642 16.7573 177.988 17.6053 177.988 18.64C177.988 19.664 177.642 20.5173 176.948 21.2C176.266 21.872 175.412 22.208 174.388 22.208C173.364 22.208 172.506 21.872 171.812 21.2C171.13 20.5173 170.788 19.664 170.788 18.64C170.788 17.6053 171.13 16.7573 171.812 16.096ZM172.932 20.224C173.295 20.608 173.78 20.8 174.388 20.8C174.996 20.8 175.482 20.608 175.844 20.224C176.207 19.8293 176.388 19.3067 176.388 18.656C176.388 17.9413 176.191 17.4027 175.796 17.04C175.412 16.6773 174.943 16.496 174.388 16.496C173.834 16.496 173.359 16.6773 172.964 17.04C172.58 17.4027 172.388 17.9413 172.388 18.656C172.388 19.3067 172.57 19.8293 172.932 20.224ZM179.625 15.264H181.193V19.12C181.193 19.6853 181.289 20.0907 181.481 20.336C181.715 20.6453 182.057 20.8 182.505 20.8C182.953 20.8 183.294 20.6453 183.529 20.336C183.721 20.0907 183.817 19.6853 183.817 19.12V15.264H185.385V19.168C185.385 20.16 185.145 20.896 184.665 21.376C184.11 21.9307 183.379 22.208 182.473 22.208C181.598 22.208 180.889 21.9307 180.345 21.376C179.865 20.896 179.625 20.16 179.625 19.168V15.264ZM187.359 22V15.264H188.927V15.888C189.407 15.3547 190.015 15.088 190.751 15.088C191.636 15.088 192.297 15.392 192.735 16C193.012 16.3947 193.151 17.0187 193.151 17.872V22H191.583V18.256C191.583 17.8507 191.551 17.52 191.487 17.264C191.423 17.008 191.321 16.832 191.183 16.736C191.044 16.6293 190.916 16.5653 190.799 16.544C190.692 16.512 190.543 16.496 190.351 16.496C190.127 16.496 189.945 16.5173 189.807 16.56C189.679 16.592 189.535 16.6773 189.375 16.816C189.225 16.944 189.113 17.1733 189.039 17.504C188.964 17.824 188.927 18.2453 188.927 18.768V22H187.359ZM200.068 16.048V10.336H201.636V22H200.068V21.296C199.546 21.904 198.874 22.208 198.052 22.208C197.06 22.208 196.266 21.856 195.668 21.152C195.082 20.448 194.788 19.6053 194.788 18.624C194.788 17.5573 195.103 16.704 195.732 16.064C196.372 15.4133 197.151 15.088 198.068 15.088C198.911 15.088 199.578 15.408 200.068 16.048ZM198.26 16.496C197.706 16.496 197.252 16.704 196.9 17.12C196.559 17.536 196.388 18.048 196.388 18.656C196.388 19.2533 196.559 19.76 196.9 20.176C197.252 20.592 197.706 20.8 198.26 20.8C198.794 20.8 199.242 20.6133 199.604 20.24C199.978 19.8667 200.164 19.344 200.164 18.672C200.164 17.9787 199.978 17.4453 199.604 17.072C199.242 16.688 198.794 16.496 198.26 16.496ZM208.553 16.048V15.264H210.121V22H208.553V21.296C208.03 21.904 207.358 22.208 206.537 22.208C205.545 22.208 204.75 21.856 204.153 21.152C203.566 20.448 203.273 19.6053 203.273 18.624C203.273 17.5573 203.587 16.704 204.217 16.064C204.857 15.4133 205.635 15.088 206.553 15.088C207.395 15.088 208.062 15.408 208.553 16.048ZM206.745 16.496C206.19 16.496 205.737 16.704 205.385 17.12C205.043 17.536 204.873 18.048 204.873 18.656C204.873 19.2533 205.043 19.76 205.385 20.176C205.737 20.592 206.19 20.8 206.745 20.8C207.278 20.8 207.726 20.6133 208.089 20.24C208.462 19.8667 208.649 19.344 208.649 18.672C208.649 17.9787 208.462 17.4453 208.089 17.072C207.726 16.688 207.278 16.496 206.745 16.496ZM214.925 16.704H213.725V22H212.157V16.704H211.501V15.264H212.157V12.8H213.725V15.264H214.925V16.704ZM215.984 15.264H217.552V22H215.984V15.264ZM216.048 13.2C215.856 13.008 215.76 12.768 215.76 12.48C215.76 12.192 215.856 11.952 216.048 11.76C216.24 11.568 216.48 11.472 216.768 11.472C217.056 11.472 217.296 11.568 217.488 11.76C217.68 11.952 217.776 12.192 217.776 12.48C217.776 12.768 217.68 13.008 217.488 13.2C217.296 13.392 217.056 13.488 216.768 13.488C216.48 13.488 216.24 13.392 216.048 13.2ZM220.203 16.096C220.896 15.424 221.755 15.088 222.779 15.088C223.803 15.088 224.656 15.424 225.339 16.096C226.032 16.7573 226.379 17.6053 226.379 18.64C226.379 19.664 226.032 20.5173 225.339 21.2C224.656 21.872 223.803 22.208 222.779 22.208C221.755 22.208 220.896 21.872 220.203 21.2C219.52 20.5173 219.179 19.664 219.179 18.64C219.179 17.6053 219.52 16.7573 220.203 16.096ZM221.323 20.224C221.686 20.608 222.171 20.8 222.779 20.8C223.387 20.8 223.872 20.608 224.235 20.224C224.598 19.8293 224.779 19.3067 224.779 18.656C224.779 17.9413 224.582 17.4027 224.187 17.04C223.803 16.6773 223.334 16.496 222.779 16.496C222.224 16.496 221.75 16.6773 221.355 17.04C220.971 17.4027 220.779 17.9413 220.779 18.656C220.779 19.3067 220.96 19.8293 221.323 20.224ZM227.999 22V15.264H229.567V15.888C230.047 15.3547 230.655 15.088 231.391 15.088C232.277 15.088 232.938 15.392 233.375 16C233.653 16.3947 233.791 17.0187 233.791 17.872V22H232.223V18.256C232.223 17.8507 232.191 17.52 232.127 17.264C232.063 17.008 231.962 16.832 231.823 16.736C231.685 16.6293 231.557 16.5653 231.439 16.544C231.333 16.512 231.183 16.496 230.991 16.496C230.767 16.496 230.586 16.5173 230.447 16.56C230.319 16.592 230.175 16.6773 230.015 16.816C229.866 16.944 229.754 17.1733 229.679 17.504C229.605 17.824 229.567 18.2453 229.567 18.768V22H227.999Z" fill="#9DADF2"/>
    <path d="M142.108 64L141.052 61.376L147.772 53.856C148.156 53.472 148.55 53.0347 148.956 52.544C149.361 52.032 149.745 51.5093 150.108 50.976C150.492 50.4213 150.801 49.888 151.036 49.376C151.27 48.8427 151.388 48.352 151.388 47.904C151.388 47.328 151.26 46.8267 151.004 46.4C150.769 45.9733 150.428 45.6427 149.98 45.408C149.532 45.1733 148.977 45.056 148.316 45.056C147.74 45.056 147.174 45.2267 146.62 45.568C146.086 45.888 145.585 46.3573 145.116 46.976C144.668 47.5733 144.294 48.288 143.996 49.12L140.86 47.264C141.244 46.0267 141.82 44.96 142.588 44.064C143.377 43.1467 144.294 42.4427 145.34 41.952C146.406 41.4613 147.558 41.216 148.796 41.216C150.076 41.216 151.217 41.4827 152.22 42.016C153.222 42.5493 154.012 43.2853 154.588 44.224C155.185 45.1627 155.484 46.2613 155.484 47.52C155.484 47.9893 155.43 48.48 155.324 48.992C155.217 49.4827 155.046 50.0053 154.812 50.56C154.598 51.0933 154.31 51.6587 153.948 52.256C153.585 52.832 153.148 53.44 152.636 54.08C152.145 54.72 151.58 55.392 150.94 56.096L145.852 61.632L145.212 60.16H156.284V64H142.108ZM167.127 64.32C165.314 64.32 163.756 63.8613 162.455 62.944C161.175 62.0053 160.183 60.6827 159.479 58.976C158.796 57.248 158.455 55.1893 158.455 52.8C158.455 50.4107 158.796 48.3627 159.479 46.656C160.183 44.928 161.175 43.6053 162.455 42.688C163.756 41.7493 165.314 41.28 167.127 41.28C168.94 41.28 170.498 41.7493 171.799 42.688C173.1 43.6053 174.092 44.928 174.775 46.656C175.479 48.3627 175.831 50.4107 175.831 52.8C175.831 55.1893 175.479 57.248 174.775 58.976C174.092 60.6827 173.1 62.0053 171.799 62.944C170.498 63.8613 168.94 64.32 167.127 64.32ZM167.127 60.672C168.62 60.672 169.772 59.9893 170.583 58.624C171.415 57.2373 171.831 55.296 171.831 52.8C171.831 50.2827 171.415 48.3307 170.583 46.944C169.772 45.5573 168.62 44.864 167.127 44.864C165.634 44.864 164.471 45.5573 163.639 46.944C162.828 48.3307 162.423 50.2827 162.423 52.8C162.423 55.296 162.828 57.2373 163.639 58.624C164.471 59.9893 165.634 60.672 167.127 60.672ZM179.826 64L178.77 61.376L185.49 53.856C185.874 53.472 186.269 53.0347 186.674 52.544C187.08 52.032 187.464 51.5093 187.826 50.976C188.21 50.4213 188.52 49.888 188.754 49.376C188.989 48.8427 189.106 48.352 189.106 47.904C189.106 47.328 188.978 46.8267 188.722 46.4C188.488 45.9733 188.146 45.6427 187.698 45.408C187.25 45.1733 186.696 45.056 186.034 45.056C185.458 45.056 184.893 45.2267 184.338 45.568C183.805 45.888 183.304 46.3573 182.834 46.976C182.386 47.5733 182.013 48.288 181.714 49.12L178.578 47.264C178.962 46.0267 179.538 44.96 180.306 44.064C181.096 43.1467 182.013 42.4427 183.058 41.952C184.125 41.4613 185.277 41.216 186.514 41.216C187.794 41.216 188.936 41.4827 189.938 42.016C190.941 42.5493 191.73 43.2853 192.306 44.224C192.904 45.1627 193.202 46.2613 193.202 47.52C193.202 47.9893 193.149 48.48 193.042 48.992C192.936 49.4827 192.765 50.0053 192.53 50.56C192.317 51.0933 192.029 51.6587 191.666 52.256C191.304 52.832 190.866 53.44 190.354 54.08C189.864 54.72 189.298 55.392 188.658 56.096L183.57 61.632L182.93 60.16H194.002V64H179.826ZM201.646 62.432V44.256L202.83 45.792L198.286 48.096L197.358 44.448L203.47 41.28H205.774V62.432H201.646ZM197.902 64V60.16H209.614V64H197.902Z" fill="white"/>
    <path d="M349 0V80H353V0H349Z" fill="white" fill-opacity="0.2" mask="url(#path-1-inside-1_404_8949)"/>
</svg>
